<svg xmlns="http://www.w3.org/2000/svg" viewBox="0 0 460 250">
<title>直線・線分・半直線の対比（3段組の定義図)</title>
<desc>【この図の意図】直線・線分・半直線の3点セットを1枚で対比する定義図。上段=直線（両端矢印）・中段=線分（両端が点）・下段=半直線AB（A端・B側矢印）。【主要な数値・設定】2点A・Bを3段で共通にする（目盛り・長さの数値なし）。【AIに同じ種類の図を描かせるときの説明文】「直線・線分・半直線の対比（3段組の定義図)。直線・線分・半直線の3点セットを1枚で対比する定義図。上段=直線（両端矢印）・中段=線分（両端が点）・下段=半直線AB（A端・B側矢印）。数値・設定: 2点A・Bを3段で共通にする（目盛り・長さの数値なし）。白黒印刷向けのシンプルな教材図（SVG）としてかいて。」——この説明文を生成AIに渡せば同型の図を描かせられる。数値を変えれば類題用の図も作れる。</desc>
<!-- L01_fig1_line_segment_ray.svg | 直線・線分・半直線の対比（3段組の定義図) -->
<!-- generated by assets_provenance/generate_figures.py on 2026-07-18 (コード来歴方式・SVG直接編集禁止/スクリプト改修で再生成) -->
<rect x="0" y="0" width="460" height="250" fill="#fff"/>
<line x1="66.0" y1="48.0" x2="234.0" y2="48.0" stroke="#000" stroke-width="1.6"/>
<line x1="66.0" y1="48.0" x2="24.0" y2="48.0" stroke="#000" stroke-width="1.4"/>
<polygon points="17.0,48.0 24.0,44.9 24.0,51.1" fill="#000"/>
<line x1="234.0" y1="48.0" x2="276.0" y2="48.0" stroke="#000" stroke-width="1.4"/>
<polygon points="283.0,48.0 276.0,51.1 276.0,44.9" fill="#000"/>
<circle cx="66.0" cy="48.0" r="2.5" fill="#000"/>
<circle cx="234.0" cy="48.0" r="2.5" fill="#000"/>
<text x="66.0" y="37.1" font-size="13" text-anchor="middle" font-weight="bold">A</text>
<text x="234.0" y="37.1" font-size="13" text-anchor="middle" font-weight="bold">B</text>
<text x="300.5" y="52.5" font-size="13" text-anchor="start" font-weight="bold">直線AB</text>
<line x1="66.0" y1="125.0" x2="234.0" y2="125.0" stroke="#000" stroke-width="1.6"/>
<circle cx="66.0" cy="125.0" r="2.5" fill="#000"/>
<circle cx="234.0" cy="125.0" r="2.5" fill="#000"/>
<text x="66.0" y="114.1" font-size="13" text-anchor="middle" font-weight="bold">A</text>
<text x="234.0" y="114.1" font-size="13" text-anchor="middle" font-weight="bold">B</text>
<text x="300.5" y="129.6" font-size="13" text-anchor="start" font-weight="bold">線分AB</text>
<line x1="66.0" y1="202.0" x2="234.0" y2="202.0" stroke="#000" stroke-width="1.6"/>
<line x1="234.0" y1="202.0" x2="276.0" y2="202.0" stroke="#000" stroke-width="1.4"/>
<polygon points="283.0,202.0 276.0,205.2 276.0,198.8" fill="#000"/>
<circle cx="66.0" cy="202.0" r="2.5" fill="#000"/>
<circle cx="234.0" cy="202.0" r="2.5" fill="#000"/>
<text x="66.0" y="191.2" font-size="13" text-anchor="middle" font-weight="bold">A</text>
<text x="234.0" y="191.2" font-size="13" text-anchor="middle" font-weight="bold">B</text>
<text x="300.5" y="206.6" font-size="13" text-anchor="start" font-weight="bold">半直線AB</text>
<text x="230.0" y="235.0" font-size="12" text-anchor="middle">同じ2点A・Bでも、のばし方（端があるかないか）で名前が変わる</text>
</svg>
