<svg xmlns="http://www.w3.org/2000/svg" viewBox="0 0 400 560">
<title>対応する点を結ぶ線分の性質（3つの移動の検証図）</title>
<desc>【この図の意図】移動の種類ごとの「対応する点を結ぶ線分の性質」を確かめる検証図。図2と同じ3設定に補助線分（破線）と等長・直角・等角のマークを重ねる。回転の段は中心Oから各対応点への線分と角のマークを明示。【主要な数値・設定】図2と同じ設定を再利用（AD・BE・CF等長平行／軸と垂直・2等分／中心から等距離・等角90°を数値検証）。【AIに同じ種類の図を描かせるときの説明文】「対応する点を結ぶ線分の性質（3つの移動の検証図）。移動の種類ごとの「対応する点を結ぶ線分の性質」を確かめる検証図。図2と同じ3設定に補助線分（破線）と等長・直角・等角のマークを重ねる。回転の段は中心Oから各対応点への線分と角のマークを明示。数値・設定: 図2と同じ設定を再利用（AD・BE・CF等長平行／軸と垂直・2等分／中心から等距離・等角90°を数値検証）。白黒印刷向けのシンプルな教材図（SVG）としてかいて。」——この説明文を生成AIに渡せば同型の図を描かせられる。数値を変えれば類題用の図も作れる。</desc>
<!-- L02_fig3_motion_properties.svg | 対応する点を結ぶ線分の性質（3つの移動の検証図） -->
<!-- generated by assets_provenance/generate_figures.py on 2026-07-18 (コード来歴方式・SVG直接編集禁止/スクリプト改修で再生成) -->
<rect x="0" y="0" width="400" height="560" fill="#fff"/>
<line x1="48.0" y1="178.0" x2="48.0" y2="50.0" stroke="#ddd" stroke-width="0.8"/>
<line x1="80.0" y1="178.0" x2="80.0" y2="50.0" stroke="#ddd" stroke-width="0.8"/>
<line x1="112.0" y1="178.0" x2="112.0" y2="50.0" stroke="#ddd" stroke-width="0.8"/>
<line x1="144.0" y1="178.0" x2="144.0" y2="50.0" stroke="#ddd" stroke-width="0.8"/>
<line x1="176.0" y1="178.0" x2="176.0" y2="50.0" stroke="#ddd" stroke-width="0.8"/>
<line x1="208.0" y1="178.0" x2="208.0" y2="50.0" stroke="#ddd" stroke-width="0.8"/>
<line x1="240.0" y1="178.0" x2="240.0" y2="50.0" stroke="#ddd" stroke-width="0.8"/>
<line x1="272.0" y1="178.0" x2="272.0" y2="50.0" stroke="#ddd" stroke-width="0.8"/>
<line x1="304.0" y1="178.0" x2="304.0" y2="50.0" stroke="#ddd" stroke-width="0.8"/>
<line x1="336.0" y1="178.0" x2="336.0" y2="50.0" stroke="#ddd" stroke-width="0.8"/>
<line x1="48.0" y1="178.0" x2="336.0" y2="178.0" stroke="#ddd" stroke-width="0.8"/>
<line x1="48.0" y1="146.0" x2="336.0" y2="146.0" stroke="#ddd" stroke-width="0.8"/>
<line x1="48.0" y1="114.0" x2="336.0" y2="114.0" stroke="#ddd" stroke-width="0.8"/>
<line x1="48.0" y1="82.0" x2="336.0" y2="82.0" stroke="#ddd" stroke-width="0.8"/>
<line x1="48.0" y1="50.0" x2="336.0" y2="50.0" stroke="#ddd" stroke-width="0.8"/>
<text x="48.0" y="36.6" font-size="12" text-anchor="start" font-weight="bold">平行移動（右へ5マス・上へ1マス）</text>
<polygon points="80.0,146.0 144.0,146.0 112.0,82.0" fill="none" stroke="#000" stroke-width="1.6" stroke-linejoin="round"/>
<polygon points="240.0,114.0 304.0,114.0 272.0,50.0" fill="none" stroke="#777" stroke-width="1.6" stroke-linejoin="round"/>
<text x="70.0" y="156.9" font-size="12" text-anchor="middle" font-weight="bold">A</text>
<text x="154.0" y="156.9" font-size="12" text-anchor="middle" font-weight="bold">B</text>
<text x="112.0" y="74.2" font-size="12" text-anchor="middle" font-weight="bold">C</text>
<text x="230.0" y="124.9" font-size="12" text-anchor="middle" font-weight="bold">D</text>
<text x="314.0" y="124.9" font-size="12" text-anchor="middle" font-weight="bold">E</text>
<text x="272.0" y="42.2" font-size="12" text-anchor="middle" font-weight="bold">F</text>
<line x1="80.0" y1="146.0" x2="240.0" y2="114.0" stroke="#444" stroke-width="1.1" stroke-dasharray="6 4"/>
<line x1="159.1" y1="125.6" x2="160.9" y2="134.4" stroke="#000" stroke-width="1.4"/>
<line x1="133.5" y1="140.4" x2="140.4" y2="133.9" stroke="#000" stroke-width="1.4"/>
<line x1="131.6" y1="130.6" x2="140.4" y2="133.9" stroke="#000" stroke-width="1.4"/>
<line x1="144.0" y1="146.0" x2="304.0" y2="114.0" stroke="#444" stroke-width="1.1" stroke-dasharray="6 4"/>
<line x1="223.1" y1="125.6" x2="224.9" y2="134.4" stroke="#000" stroke-width="1.4"/>
<line x1="197.5" y1="140.4" x2="204.4" y2="133.9" stroke="#000" stroke-width="1.4"/>
<line x1="195.6" y1="130.6" x2="204.4" y2="133.9" stroke="#000" stroke-width="1.4"/>
<line x1="112.0" y1="82.0" x2="272.0" y2="50.0" stroke="#444" stroke-width="1.1" stroke-dasharray="6 4"/>
<line x1="191.1" y1="61.6" x2="192.9" y2="70.4" stroke="#000" stroke-width="1.4"/>
<line x1="165.5" y1="76.4" x2="172.4" y2="69.9" stroke="#000" stroke-width="1.4"/>
<line x1="163.6" y1="66.6" x2="172.4" y2="69.9" stroke="#000" stroke-width="1.4"/>
<line x1="48.0" y1="354.0" x2="48.0" y2="226.0" stroke="#ddd" stroke-width="0.8"/>
<line x1="80.0" y1="354.0" x2="80.0" y2="226.0" stroke="#ddd" stroke-width="0.8"/>
<line x1="112.0" y1="354.0" x2="112.0" y2="226.0" stroke="#ddd" stroke-width="0.8"/>
<line x1="144.0" y1="354.0" x2="144.0" y2="226.0" stroke="#ddd" stroke-width="0.8"/>
<line x1="176.0" y1="354.0" x2="176.0" y2="226.0" stroke="#ddd" stroke-width="0.8"/>
<line x1="208.0" y1="354.0" x2="208.0" y2="226.0" stroke="#ddd" stroke-width="0.8"/>
<line x1="240.0" y1="354.0" x2="240.0" y2="226.0" stroke="#ddd" stroke-width="0.8"/>
<line x1="272.0" y1="354.0" x2="272.0" y2="226.0" stroke="#ddd" stroke-width="0.8"/>
<line x1="304.0" y1="354.0" x2="304.0" y2="226.0" stroke="#ddd" stroke-width="0.8"/>
<line x1="336.0" y1="354.0" x2="336.0" y2="226.0" stroke="#ddd" stroke-width="0.8"/>
<line x1="48.0" y1="354.0" x2="336.0" y2="354.0" stroke="#ddd" stroke-width="0.8"/>
<line x1="48.0" y1="322.0" x2="336.0" y2="322.0" stroke="#ddd" stroke-width="0.8"/>
<line x1="48.0" y1="290.0" x2="336.0" y2="290.0" stroke="#ddd" stroke-width="0.8"/>
<line x1="48.0" y1="258.0" x2="336.0" y2="258.0" stroke="#ddd" stroke-width="0.8"/>
<line x1="48.0" y1="226.0" x2="336.0" y2="226.0" stroke="#ddd" stroke-width="0.8"/>
<text x="48.0" y="212.6" font-size="12" text-anchor="start" font-weight="bold">対称移動（直線ℓが軸）</text>
<polygon points="80.0,322.0 144.0,322.0 112.0,258.0" fill="none" stroke="#000" stroke-width="1.6" stroke-linejoin="round"/>
<polygon points="272.0,322.0 208.0,322.0 240.0,258.0" fill="none" stroke="#777" stroke-width="1.6" stroke-linejoin="round"/>
<text x="70.0" y="332.9" font-size="12" text-anchor="middle" font-weight="bold">A</text>
<text x="154.0" y="332.9" font-size="12" text-anchor="middle" font-weight="bold">B</text>
<text x="112.0" y="250.2" font-size="12" text-anchor="middle" font-weight="bold">C</text>
<text x="282.0" y="332.9" font-size="12" text-anchor="middle" font-weight="bold">D</text>
<text x="198.0" y="332.9" font-size="12" text-anchor="middle" font-weight="bold">E</text>
<text x="240.0" y="250.2" font-size="12" text-anchor="middle" font-weight="bold">F</text>
<line x1="176.0" y1="360.4" x2="176.0" y2="216.4" stroke="#000" stroke-width="2.0"/>
<text x="185.0" y="225.8" font-size="13" text-anchor="middle" font-weight="bold">ℓ</text>
<line x1="80.0" y1="322.0" x2="272.0" y2="322.0" stroke="#444" stroke-width="1.1" stroke-dasharray="6 4"/>
<line x1="128.0" y1="317.5" x2="128.0" y2="326.5" stroke="#000" stroke-width="1.4"/>
<line x1="224.0" y1="317.5" x2="224.0" y2="326.5" stroke="#000" stroke-width="1.4"/>
<polyline points="167.0,322.0 167.0,313.0 176.0,313.0" fill="none" stroke="#000" stroke-width="1.2"/>
<line x1="144.0" y1="322.0" x2="208.0" y2="322.0" stroke="#444" stroke-width="1.1" stroke-dasharray="6 4"/>
<line x1="158.2" y1="317.5" x2="158.2" y2="326.5" stroke="#000" stroke-width="1.4"/>
<line x1="161.8" y1="317.5" x2="161.8" y2="326.5" stroke="#000" stroke-width="1.4"/>
<line x1="190.2" y1="317.5" x2="190.2" y2="326.5" stroke="#000" stroke-width="1.4"/>
<line x1="193.8" y1="317.5" x2="193.8" y2="326.5" stroke="#000" stroke-width="1.4"/>
<line x1="112.0" y1="258.0" x2="240.0" y2="258.0" stroke="#444" stroke-width="1.1" stroke-dasharray="6 4"/>
<line x1="140.5" y1="253.5" x2="140.5" y2="262.5" stroke="#000" stroke-width="1.4"/>
<line x1="144.0" y1="253.5" x2="144.0" y2="262.5" stroke="#000" stroke-width="1.4"/>
<line x1="147.5" y1="253.5" x2="147.5" y2="262.5" stroke="#000" stroke-width="1.4"/>
<line x1="204.5" y1="253.5" x2="204.5" y2="262.5" stroke="#000" stroke-width="1.4"/>
<line x1="208.0" y1="253.5" x2="208.0" y2="262.5" stroke="#000" stroke-width="1.4"/>
<line x1="211.5" y1="253.5" x2="211.5" y2="262.5" stroke="#000" stroke-width="1.4"/>
<line x1="48.0" y1="530.0" x2="48.0" y2="402.0" stroke="#ddd" stroke-width="0.8"/>
<line x1="80.0" y1="530.0" x2="80.0" y2="402.0" stroke="#ddd" stroke-width="0.8"/>
<line x1="112.0" y1="530.0" x2="112.0" y2="402.0" stroke="#ddd" stroke-width="0.8"/>
<line x1="144.0" y1="530.0" x2="144.0" y2="402.0" stroke="#ddd" stroke-width="0.8"/>
<line x1="176.0" y1="530.0" x2="176.0" y2="402.0" stroke="#ddd" stroke-width="0.8"/>
<line x1="208.0" y1="530.0" x2="208.0" y2="402.0" stroke="#ddd" stroke-width="0.8"/>
<line x1="240.0" y1="530.0" x2="240.0" y2="402.0" stroke="#ddd" stroke-width="0.8"/>
<line x1="272.0" y1="530.0" x2="272.0" y2="402.0" stroke="#ddd" stroke-width="0.8"/>
<line x1="304.0" y1="530.0" x2="304.0" y2="402.0" stroke="#ddd" stroke-width="0.8"/>
<line x1="336.0" y1="530.0" x2="336.0" y2="402.0" stroke="#ddd" stroke-width="0.8"/>
<line x1="48.0" y1="530.0" x2="336.0" y2="530.0" stroke="#ddd" stroke-width="0.8"/>
<line x1="48.0" y1="498.0" x2="336.0" y2="498.0" stroke="#ddd" stroke-width="0.8"/>
<line x1="48.0" y1="466.0" x2="336.0" y2="466.0" stroke="#ddd" stroke-width="0.8"/>
<line x1="48.0" y1="434.0" x2="336.0" y2="434.0" stroke="#ddd" stroke-width="0.8"/>
<line x1="48.0" y1="402.0" x2="336.0" y2="402.0" stroke="#ddd" stroke-width="0.8"/>
<text x="48.0" y="388.6" font-size="12" text-anchor="start" font-weight="bold">回転移動（点Oを中心に反時計回りに90°）</text>
<polygon points="240.0,498.0 304.0,498.0 272.0,434.0" fill="none" stroke="#000" stroke-width="1.6" stroke-linejoin="round"/>
<polygon points="144.0,466.0 144.0,402.0 80.0,434.0" fill="none" stroke="#777" stroke-width="1.6" stroke-linejoin="round"/>
<text x="230.0" y="508.9" font-size="12" text-anchor="middle" font-weight="bold">A</text>
<text x="314.0" y="508.9" font-size="12" text-anchor="middle" font-weight="bold">B</text>
<text x="272.0" y="426.2" font-size="12" text-anchor="middle" font-weight="bold">C</text>
<text x="150.7" y="480.2" font-size="12" text-anchor="middle" font-weight="bold">D</text>
<text x="150.7" y="396.2" font-size="12" text-anchor="middle" font-weight="bold">E</text>
<text x="68.0" y="438.2" font-size="12" text-anchor="middle" font-weight="bold">F</text>
<circle cx="176.0" cy="530.0" r="3.0" fill="#000"/>
<text x="165.8" y="530.1" font-size="13" text-anchor="middle" font-weight="bold">O</text>
<line x1="176.0" y1="530.0" x2="240.0" y2="498.0" stroke="#444" stroke-width="1.1" stroke-dasharray="6 4"/>
<line x1="176.0" y1="530.0" x2="144.0" y2="466.0" stroke="#444" stroke-width="1.1" stroke-dasharray="6 4"/>
<line x1="206.0" y1="510.0" x2="210.0" y2="518.0" stroke="#000" stroke-width="1.4"/>
<line x1="156.0" y1="500.0" x2="164.0" y2="496.0" stroke="#000" stroke-width="1.4"/>
<polyline points="190.3,522.8 189.7,521.7 189.0,520.7 188.2,519.7 187.4,518.8 186.5,517.9 185.5,517.1 184.5,516.4 183.4,515.8 182.2,515.3 181.1,514.8 179.9,514.5 178.6,514.2 177.4,514.1 176.1,514.0 174.9,514.0 173.6,514.2 172.4,514.4 171.2,514.7 170.0,515.2 168.8,515.7" fill="none" stroke="#000" stroke-width="1.2"/>
<line x1="176.0" y1="530.0" x2="304.0" y2="498.0" stroke="#444" stroke-width="1.1" stroke-dasharray="6 4"/>
<line x1="176.0" y1="530.0" x2="144.0" y2="402.0" stroke="#444" stroke-width="1.1" stroke-dasharray="6 4"/>
<line x1="237.2" y1="510.1" x2="239.4" y2="518.8" stroke="#000" stroke-width="1.4"/>
<line x1="240.6" y1="509.2" x2="242.8" y2="517.9" stroke="#000" stroke-width="1.4"/>
<line x1="156.1" y1="468.8" x2="164.8" y2="466.6" stroke="#000" stroke-width="1.4"/>
<line x1="155.2" y1="465.4" x2="163.9" y2="463.2" stroke="#000" stroke-width="1.4"/>
<polyline points="198.3,524.4 197.8,522.7 197.2,521.0 196.4,519.4 195.5,517.8 194.5,516.3 193.3,514.9 192.1,513.6 190.8,512.4 189.3,511.3 187.8,510.3 186.2,509.4 184.6,508.7 182.9,508.1 181.2,507.6 179.4,507.3 177.6,507.1 175.8,507.0 174.0,507.1 172.2,507.3 170.4,507.7" fill="none" stroke="#000" stroke-width="1.2"/>
<line x1="176.0" y1="530.0" x2="272.0" y2="434.0" stroke="#444" stroke-width="1.1" stroke-dasharray="6 4"/>
<line x1="176.0" y1="530.0" x2="80.0" y2="434.0" stroke="#444" stroke-width="1.1" stroke-dasharray="6 4"/>
<line x1="218.3" y1="481.3" x2="224.7" y2="487.7" stroke="#000" stroke-width="1.4"/>
<line x1="220.8" y1="478.8" x2="227.2" y2="485.2" stroke="#000" stroke-width="1.4"/>
<line x1="223.3" y1="476.3" x2="229.7" y2="482.7" stroke="#000" stroke-width="1.4"/>
<line x1="127.3" y1="487.7" x2="133.7" y2="481.3" stroke="#000" stroke-width="1.4"/>
<line x1="124.8" y1="485.2" x2="131.2" y2="478.8" stroke="#000" stroke-width="1.4"/>
<line x1="122.3" y1="482.7" x2="128.7" y2="476.3" stroke="#000" stroke-width="1.4"/>
<polyline points="197.2,508.8 195.5,507.2 193.6,505.7 191.7,504.4 189.6,503.3 187.5,502.3 185.3,501.5 183.0,500.8 180.7,500.4 178.4,500.1 176.0,500.0 173.6,500.1 171.3,500.4 169.0,500.8 166.7,501.5 164.5,502.3 162.4,503.3 160.3,504.4 158.4,505.7 156.5,507.2 154.8,508.8" fill="none" stroke="#000" stroke-width="1.2"/>
<text x="200.0" y="550.0" font-size="12" text-anchor="middle">対応する点を結ぶ線分に、移動の種類ごとの性質が現れる</text>
</svg>
