<svg xmlns="http://www.w3.org/2000/svg" viewBox="0 0 400 560">
<title>3つの移動の定義（△ABC→△DEFの3段組）</title>
<desc>【この図の意図】平行移動・対称移動・回転移動の定義を1枚で対比する図。各段に移動前△ABC・移動後△DEFと移動のようす（矢印/軸ℓと折り返し/中心Oと回転の弧矢印）。対応A→D・B→E・C→Fを明記。【主要な数値・設定】平行移動=右へ5マス・上へ1マス／対称移動=縦の直線ℓ（x=4）／回転移動=点O中心・反時計回りに90°（全頂点が格子点上）。【AIに同じ種類の図を描かせるときの説明文】「3つの移動の定義（△ABC→△DEFの3段組）。平行移動・対称移動・回転移動の定義を1枚で対比する図。各段に移動前△ABC・移動後△DEFと移動のようす（矢印/軸ℓと折り返し/中心Oと回転の弧矢印）。対応A→D・B→E・C→Fを明記。数値・設定: 平行移動=右へ5マス・上へ1マス／対称移動=縦の直線ℓ（x=4）／回転移動=点O中心・反時計回りに90°（全頂点が格子点上）。白黒印刷向けのシンプルな教材図（SVG）としてかいて。」——この説明文を生成AIに渡せば同型の図を描かせられる。数値を変えれば類題用の図も作れる。</desc>
<!-- L02_fig2_three_motions.svg | 3つの移動の定義（△ABC→△DEFの3段組） -->
<!-- generated by assets_provenance/generate_figures.py on 2026-07-18 (コード来歴方式・SVG直接編集禁止/スクリプト改修で再生成) -->
<rect x="0" y="0" width="400" height="560" fill="#fff"/>
<line x1="48.0" y1="178.0" x2="48.0" y2="50.0" stroke="#ddd" stroke-width="0.8"/>
<line x1="80.0" y1="178.0" x2="80.0" y2="50.0" stroke="#ddd" stroke-width="0.8"/>
<line x1="112.0" y1="178.0" x2="112.0" y2="50.0" stroke="#ddd" stroke-width="0.8"/>
<line x1="144.0" y1="178.0" x2="144.0" y2="50.0" stroke="#ddd" stroke-width="0.8"/>
<line x1="176.0" y1="178.0" x2="176.0" y2="50.0" stroke="#ddd" stroke-width="0.8"/>
<line x1="208.0" y1="178.0" x2="208.0" y2="50.0" stroke="#ddd" stroke-width="0.8"/>
<line x1="240.0" y1="178.0" x2="240.0" y2="50.0" stroke="#ddd" stroke-width="0.8"/>
<line x1="272.0" y1="178.0" x2="272.0" y2="50.0" stroke="#ddd" stroke-width="0.8"/>
<line x1="304.0" y1="178.0" x2="304.0" y2="50.0" stroke="#ddd" stroke-width="0.8"/>
<line x1="336.0" y1="178.0" x2="336.0" y2="50.0" stroke="#ddd" stroke-width="0.8"/>
<line x1="48.0" y1="178.0" x2="336.0" y2="178.0" stroke="#ddd" stroke-width="0.8"/>
<line x1="48.0" y1="146.0" x2="336.0" y2="146.0" stroke="#ddd" stroke-width="0.8"/>
<line x1="48.0" y1="114.0" x2="336.0" y2="114.0" stroke="#ddd" stroke-width="0.8"/>
<line x1="48.0" y1="82.0" x2="336.0" y2="82.0" stroke="#ddd" stroke-width="0.8"/>
<line x1="48.0" y1="50.0" x2="336.0" y2="50.0" stroke="#ddd" stroke-width="0.8"/>
<text x="48.0" y="36.6" font-size="12" text-anchor="start" font-weight="bold">平行移動（右へ5マス・上へ1マス）</text>
<polygon points="80.0,146.0 144.0,146.0 112.0,82.0" fill="none" stroke="#000" stroke-width="1.6" stroke-linejoin="round"/>
<polygon points="240.0,114.0 304.0,114.0 272.0,50.0" fill="none" stroke="#777" stroke-width="1.6" stroke-linejoin="round"/>
<text x="70.0" y="156.9" font-size="12" text-anchor="middle" font-weight="bold">A</text>
<text x="154.0" y="156.9" font-size="12" text-anchor="middle" font-weight="bold">B</text>
<text x="112.0" y="74.2" font-size="12" text-anchor="middle" font-weight="bold">C</text>
<text x="230.0" y="124.9" font-size="12" text-anchor="middle" font-weight="bold">D</text>
<text x="314.0" y="124.9" font-size="12" text-anchor="middle" font-weight="bold">E</text>
<text x="272.0" y="42.2" font-size="12" text-anchor="middle" font-weight="bold">F</text>
<line x1="80.0" y1="146.0" x2="233.1" y2="115.4" stroke="#555" stroke-width="1.1"/>
<polygon points="240.0,114.0 233.8,118.5 232.5,112.3" fill="#555"/>
<line x1="144.0" y1="146.0" x2="297.1" y2="115.4" stroke="#555" stroke-width="1.1"/>
<polygon points="304.0,114.0 297.8,118.5 296.5,112.3" fill="#555"/>
<line x1="112.0" y1="82.0" x2="265.1" y2="51.4" stroke="#555" stroke-width="1.1"/>
<polygon points="272.0,50.0 265.8,54.5 264.5,48.3" fill="#555"/>
<line x1="48.0" y1="354.0" x2="48.0" y2="226.0" stroke="#ddd" stroke-width="0.8"/>
<line x1="80.0" y1="354.0" x2="80.0" y2="226.0" stroke="#ddd" stroke-width="0.8"/>
<line x1="112.0" y1="354.0" x2="112.0" y2="226.0" stroke="#ddd" stroke-width="0.8"/>
<line x1="144.0" y1="354.0" x2="144.0" y2="226.0" stroke="#ddd" stroke-width="0.8"/>
<line x1="176.0" y1="354.0" x2="176.0" y2="226.0" stroke="#ddd" stroke-width="0.8"/>
<line x1="208.0" y1="354.0" x2="208.0" y2="226.0" stroke="#ddd" stroke-width="0.8"/>
<line x1="240.0" y1="354.0" x2="240.0" y2="226.0" stroke="#ddd" stroke-width="0.8"/>
<line x1="272.0" y1="354.0" x2="272.0" y2="226.0" stroke="#ddd" stroke-width="0.8"/>
<line x1="304.0" y1="354.0" x2="304.0" y2="226.0" stroke="#ddd" stroke-width="0.8"/>
<line x1="336.0" y1="354.0" x2="336.0" y2="226.0" stroke="#ddd" stroke-width="0.8"/>
<line x1="48.0" y1="354.0" x2="336.0" y2="354.0" stroke="#ddd" stroke-width="0.8"/>
<line x1="48.0" y1="322.0" x2="336.0" y2="322.0" stroke="#ddd" stroke-width="0.8"/>
<line x1="48.0" y1="290.0" x2="336.0" y2="290.0" stroke="#ddd" stroke-width="0.8"/>
<line x1="48.0" y1="258.0" x2="336.0" y2="258.0" stroke="#ddd" stroke-width="0.8"/>
<line x1="48.0" y1="226.0" x2="336.0" y2="226.0" stroke="#ddd" stroke-width="0.8"/>
<text x="48.0" y="212.6" font-size="12" text-anchor="start" font-weight="bold">対称移動（直線ℓが軸）</text>
<polygon points="80.0,322.0 144.0,322.0 112.0,258.0" fill="none" stroke="#000" stroke-width="1.6" stroke-linejoin="round"/>
<polygon points="272.0,322.0 208.0,322.0 240.0,258.0" fill="none" stroke="#777" stroke-width="1.6" stroke-linejoin="round"/>
<text x="70.0" y="332.9" font-size="12" text-anchor="middle" font-weight="bold">A</text>
<text x="154.0" y="332.9" font-size="12" text-anchor="middle" font-weight="bold">B</text>
<text x="112.0" y="250.2" font-size="12" text-anchor="middle" font-weight="bold">C</text>
<text x="282.0" y="332.9" font-size="12" text-anchor="middle" font-weight="bold">D</text>
<text x="198.0" y="332.9" font-size="12" text-anchor="middle" font-weight="bold">E</text>
<text x="240.0" y="250.2" font-size="12" text-anchor="middle" font-weight="bold">F</text>
<line x1="176.0" y1="360.4" x2="176.0" y2="216.4" stroke="#000" stroke-width="2.0"/>
<text x="185.0" y="225.8" font-size="13" text-anchor="middle" font-weight="bold">ℓ</text>
<path d="M 153.6 224.4 Q 176.0 242.3 198.4 224.4" fill="none" stroke="#000" stroke-width="1.4"/>
<polygon points="153.6,224.4 160.0,226.0 156.6,230.3" fill="#000"/>
<polygon points="198.4,224.4 195.4,230.3 192.0,226.0" fill="#000"/>
<line x1="48.0" y1="530.0" x2="48.0" y2="402.0" stroke="#ddd" stroke-width="0.8"/>
<line x1="80.0" y1="530.0" x2="80.0" y2="402.0" stroke="#ddd" stroke-width="0.8"/>
<line x1="112.0" y1="530.0" x2="112.0" y2="402.0" stroke="#ddd" stroke-width="0.8"/>
<line x1="144.0" y1="530.0" x2="144.0" y2="402.0" stroke="#ddd" stroke-width="0.8"/>
<line x1="176.0" y1="530.0" x2="176.0" y2="402.0" stroke="#ddd" stroke-width="0.8"/>
<line x1="208.0" y1="530.0" x2="208.0" y2="402.0" stroke="#ddd" stroke-width="0.8"/>
<line x1="240.0" y1="530.0" x2="240.0" y2="402.0" stroke="#ddd" stroke-width="0.8"/>
<line x1="272.0" y1="530.0" x2="272.0" y2="402.0" stroke="#ddd" stroke-width="0.8"/>
<line x1="304.0" y1="530.0" x2="304.0" y2="402.0" stroke="#ddd" stroke-width="0.8"/>
<line x1="336.0" y1="530.0" x2="336.0" y2="402.0" stroke="#ddd" stroke-width="0.8"/>
<line x1="48.0" y1="530.0" x2="336.0" y2="530.0" stroke="#ddd" stroke-width="0.8"/>
<line x1="48.0" y1="498.0" x2="336.0" y2="498.0" stroke="#ddd" stroke-width="0.8"/>
<line x1="48.0" y1="466.0" x2="336.0" y2="466.0" stroke="#ddd" stroke-width="0.8"/>
<line x1="48.0" y1="434.0" x2="336.0" y2="434.0" stroke="#ddd" stroke-width="0.8"/>
<line x1="48.0" y1="402.0" x2="336.0" y2="402.0" stroke="#ddd" stroke-width="0.8"/>
<text x="48.0" y="388.6" font-size="12" text-anchor="start" font-weight="bold">回転移動（点Oを中心に反時計回りに90°）</text>
<polygon points="240.0,498.0 304.0,498.0 272.0,434.0" fill="none" stroke="#000" stroke-width="1.6" stroke-linejoin="round"/>
<polygon points="144.0,466.0 144.0,402.0 80.0,434.0" fill="none" stroke="#777" stroke-width="1.6" stroke-linejoin="round"/>
<text x="230.0" y="508.9" font-size="12" text-anchor="middle" font-weight="bold">A</text>
<text x="314.0" y="508.9" font-size="12" text-anchor="middle" font-weight="bold">B</text>
<text x="272.0" y="426.2" font-size="12" text-anchor="middle" font-weight="bold">C</text>
<text x="150.7" y="480.2" font-size="12" text-anchor="middle" font-weight="bold">D</text>
<text x="150.7" y="396.2" font-size="12" text-anchor="middle" font-weight="bold">E</text>
<text x="68.0" y="438.2" font-size="12" text-anchor="middle" font-weight="bold">F</text>
<circle cx="176.0" cy="530.0" r="3.0" fill="#000"/>
<text x="165.8" y="530.1" font-size="13" text-anchor="middle" font-weight="bold">O</text>
<path d="M 216.2 519.2 A 41.6 41.6 0 0 0 186.8 489.8" fill="none" stroke="#000" stroke-width="1.3"/>
<line x1="186.8" y1="489.8" x2="188.6" y2="490.2" stroke="#000" stroke-width="1.3"/>
<polygon points="181.8,488.8 189.3,487.1 188.0,493.3" fill="#000"/>
<text x="200.0" y="550.0" font-size="12" text-anchor="middle">対応: A→D・B→E・C→F。形も大きさも変わらない</text>
</svg>
