<svg xmlns="http://www.w3.org/2000/svg" viewBox="0 0 480 265">
<title>合同な三角形の敷き詰め模様（ア・①②③）</title>
<desc>【この図の意図】敷き詰め模様の観察素材。①=アを右へずらした位置・②=アを共有辺で裏返した位置・③=アを1つの頂点のまわりに回した位置（移動を表す矢印は描かない）。【主要な数値・設定】合同な不等辺三角形（直角なし）を4行×7列敷き詰め（下2行=基準の向き・上2行=鏡映の帯）。①②③の位置と裏返しの帯の存在を移動の計算で厳密に検証。【AIに同じ種類の図を描かせるときの説明文】「合同な三角形の敷き詰め模様（ア・①②③）。敷き詰め模様の観察素材。①=アを右へずらした位置・②=アを共有辺で裏返した位置・③=アを1つの頂点のまわりに回した位置（移動を表す矢印は描かない）。数値・設定: 合同な不等辺三角形（直角なし）を4行×7列敷き詰め（下2行=基準の向き・上2行=鏡映の帯）。①②③の位置と裏返しの帯の存在を移動の計算で厳密に検証。白黒印刷向けのシンプルな教材図（SVG）としてかいて。」——この説明文を生成AIに渡せば同型の図を描かせられる。数値を変えれば類題用の図も作れる。</desc>
<!-- L02_fig1_tessellation.svg | 合同な三角形の敷き詰め模様（ア・①②③） -->
<!-- generated by assets_provenance/generate_figures.py on 2026-07-18 (コード来歴方式・SVG直接編集禁止/スクリプト改修で再生成) -->
<rect x="0" y="0" width="480" height="265" fill="#fff"/>
<polygon points="160.8,117.6 76.8,117.6 131.4,163.8" fill="#bdbdbd" stroke="none"/>
<polygon points="-66.0,210.0 18.0,210.0 -36.6,163.8" fill="none" stroke="#000" stroke-width="1.1" stroke-linejoin="round"/>
<polygon points="47.4,163.8 -36.6,163.8 18.0,210.0" fill="none" stroke="#000" stroke-width="1.1" stroke-linejoin="round"/>
<polygon points="-66.0,25.2 18.0,25.2 -36.6,71.4" fill="none" stroke="#000" stroke-width="1.1" stroke-linejoin="round"/>
<polygon points="47.4,71.4 -36.6,71.4 18.0,25.2" fill="none" stroke="#000" stroke-width="1.1" stroke-linejoin="round"/>
<polygon points="-36.6,163.8 47.4,163.8 -7.2,117.6" fill="none" stroke="#000" stroke-width="1.1" stroke-linejoin="round"/>
<polygon points="76.8,117.6 -7.2,117.6 47.4,163.8" fill="none" stroke="#000" stroke-width="1.1" stroke-linejoin="round"/>
<polygon points="-36.6,71.4 47.4,71.4 -7.2,117.6" fill="none" stroke="#000" stroke-width="1.1" stroke-linejoin="round"/>
<polygon points="76.8,117.6 -7.2,117.6 47.4,71.4" fill="none" stroke="#000" stroke-width="1.1" stroke-linejoin="round"/>
<polygon points="18.0,210.0 102.0,210.0 47.4,163.8" fill="none" stroke="#000" stroke-width="1.1" stroke-linejoin="round"/>
<polygon points="131.4,163.8 47.4,163.8 102.0,210.0" fill="none" stroke="#000" stroke-width="1.1" stroke-linejoin="round"/>
<polygon points="18.0,25.2 102.0,25.2 47.4,71.4" fill="none" stroke="#000" stroke-width="1.1" stroke-linejoin="round"/>
<polygon points="131.4,71.4 47.4,71.4 102.0,25.2" fill="none" stroke="#000" stroke-width="1.1" stroke-linejoin="round"/>
<polygon points="47.4,163.8 131.4,163.8 76.8,117.6" fill="none" stroke="#000" stroke-width="1.1" stroke-linejoin="round"/>
<polygon points="160.8,117.6 76.8,117.6 131.4,163.8" fill="none" stroke="#000" stroke-width="1.1" stroke-linejoin="round"/>
<polygon points="47.4,71.4 131.4,71.4 76.8,117.6" fill="none" stroke="#000" stroke-width="1.1" stroke-linejoin="round"/>
<polygon points="160.8,117.6 76.8,117.6 131.4,71.4" fill="none" stroke="#000" stroke-width="1.1" stroke-linejoin="round"/>
<polygon points="102.0,210.0 186.0,210.0 131.4,163.8" fill="none" stroke="#000" stroke-width="1.1" stroke-linejoin="round"/>
<polygon points="215.4,163.8 131.4,163.8 186.0,210.0" fill="none" stroke="#000" stroke-width="1.1" stroke-linejoin="round"/>
<polygon points="102.0,25.2 186.0,25.2 131.4,71.4" fill="none" stroke="#000" stroke-width="1.1" stroke-linejoin="round"/>
<polygon points="215.4,71.4 131.4,71.4 186.0,25.2" fill="none" stroke="#000" stroke-width="1.1" stroke-linejoin="round"/>
<polygon points="131.4,163.8 215.4,163.8 160.8,117.6" fill="none" stroke="#000" stroke-width="1.1" stroke-linejoin="round"/>
<polygon points="244.8,117.6 160.8,117.6 215.4,163.8" fill="none" stroke="#000" stroke-width="1.1" stroke-linejoin="round"/>
<polygon points="131.4,71.4 215.4,71.4 160.8,117.6" fill="none" stroke="#000" stroke-width="1.1" stroke-linejoin="round"/>
<polygon points="244.8,117.6 160.8,117.6 215.4,71.4" fill="none" stroke="#000" stroke-width="1.1" stroke-linejoin="round"/>
<polygon points="186.0,210.0 270.0,210.0 215.4,163.8" fill="none" stroke="#000" stroke-width="1.1" stroke-linejoin="round"/>
<polygon points="299.4,163.8 215.4,163.8 270.0,210.0" fill="none" stroke="#000" stroke-width="1.1" stroke-linejoin="round"/>
<polygon points="186.0,25.2 270.0,25.2 215.4,71.4" fill="none" stroke="#000" stroke-width="1.1" stroke-linejoin="round"/>
<polygon points="299.4,71.4 215.4,71.4 270.0,25.2" fill="none" stroke="#000" stroke-width="1.1" stroke-linejoin="round"/>
<polygon points="215.4,163.8 299.4,163.8 244.8,117.6" fill="none" stroke="#000" stroke-width="1.1" stroke-linejoin="round"/>
<polygon points="328.8,117.6 244.8,117.6 299.4,163.8" fill="none" stroke="#000" stroke-width="1.1" stroke-linejoin="round"/>
<polygon points="215.4,71.4 299.4,71.4 244.8,117.6" fill="none" stroke="#000" stroke-width="1.1" stroke-linejoin="round"/>
<polygon points="328.8,117.6 244.8,117.6 299.4,71.4" fill="none" stroke="#000" stroke-width="1.1" stroke-linejoin="round"/>
<polygon points="270.0,210.0 354.0,210.0 299.4,163.8" fill="none" stroke="#000" stroke-width="1.1" stroke-linejoin="round"/>
<polygon points="383.4,163.8 299.4,163.8 354.0,210.0" fill="none" stroke="#000" stroke-width="1.1" stroke-linejoin="round"/>
<polygon points="270.0,25.2 354.0,25.2 299.4,71.4" fill="none" stroke="#000" stroke-width="1.1" stroke-linejoin="round"/>
<polygon points="383.4,71.4 299.4,71.4 354.0,25.2" fill="none" stroke="#000" stroke-width="1.1" stroke-linejoin="round"/>
<polygon points="299.4,163.8 383.4,163.8 328.8,117.6" fill="none" stroke="#000" stroke-width="1.1" stroke-linejoin="round"/>
<polygon points="412.8,117.6 328.8,117.6 383.4,163.8" fill="none" stroke="#000" stroke-width="1.1" stroke-linejoin="round"/>
<polygon points="299.4,71.4 383.4,71.4 328.8,117.6" fill="none" stroke="#000" stroke-width="1.1" stroke-linejoin="round"/>
<polygon points="412.8,117.6 328.8,117.6 383.4,71.4" fill="none" stroke="#000" stroke-width="1.1" stroke-linejoin="round"/>
<polygon points="354.0,210.0 438.0,210.0 383.4,163.8" fill="none" stroke="#000" stroke-width="1.1" stroke-linejoin="round"/>
<polygon points="467.4,163.8 383.4,163.8 438.0,210.0" fill="none" stroke="#000" stroke-width="1.1" stroke-linejoin="round"/>
<polygon points="354.0,25.2 438.0,25.2 383.4,71.4" fill="none" stroke="#000" stroke-width="1.1" stroke-linejoin="round"/>
<polygon points="467.4,71.4 383.4,71.4 438.0,25.2" fill="none" stroke="#000" stroke-width="1.1" stroke-linejoin="round"/>
<polygon points="383.4,163.8 467.4,163.8 412.8,117.6" fill="none" stroke="#000" stroke-width="1.1" stroke-linejoin="round"/>
<polygon points="496.8,117.6 412.8,117.6 467.4,163.8" fill="none" stroke="#000" stroke-width="1.1" stroke-linejoin="round"/>
<polygon points="383.4,71.4 467.4,71.4 412.8,117.6" fill="none" stroke="#000" stroke-width="1.1" stroke-linejoin="round"/>
<polygon points="496.8,117.6 412.8,117.6 467.4,71.4" fill="none" stroke="#000" stroke-width="1.1" stroke-linejoin="round"/>
<polygon points="438.0,210.0 522.0,210.0 467.4,163.8" fill="none" stroke="#000" stroke-width="1.1" stroke-linejoin="round"/>
<polygon points="551.4,163.8 467.4,163.8 522.0,210.0" fill="none" stroke="#000" stroke-width="1.1" stroke-linejoin="round"/>
<polygon points="438.0,25.2 522.0,25.2 467.4,71.4" fill="none" stroke="#000" stroke-width="1.1" stroke-linejoin="round"/>
<polygon points="551.4,71.4 467.4,71.4 522.0,25.2" fill="none" stroke="#000" stroke-width="1.1" stroke-linejoin="round"/>
<polygon points="467.4,163.8 551.4,163.8 496.8,117.6" fill="none" stroke="#000" stroke-width="1.1" stroke-linejoin="round"/>
<polygon points="580.8,117.6 496.8,117.6 551.4,163.8" fill="none" stroke="#000" stroke-width="1.1" stroke-linejoin="round"/>
<polygon points="467.4,71.4 551.4,71.4 496.8,117.6" fill="none" stroke="#000" stroke-width="1.1" stroke-linejoin="round"/>
<polygon points="580.8,117.6 496.8,117.6 551.4,71.4" fill="none" stroke="#000" stroke-width="1.1" stroke-linejoin="round"/>
<text x="123.0" y="138.2" font-size="15" text-anchor="middle" font-weight="bold">ア</text>
<text x="207.0" y="137.9" font-size="14" text-anchor="middle" font-weight="bold">①</text>
<text x="123.0" y="107.1" font-size="14" text-anchor="middle" font-weight="bold">②</text>
<text x="139.8" y="199.5" font-size="14" text-anchor="middle" font-weight="bold">③</text>
<text x="240.0" y="250.0" font-size="12" text-anchor="middle">アを①②③のそれぞれにぴったり重ねるには、どう動かせばよい？</text>
</svg>
