<svg xmlns="http://www.w3.org/2000/svg" viewBox="0 0 480 240">
<title>3つの移動の決定要素（対比のミニ図3枚）</title>
<desc>【この図の意図】決定要素の対比表を図解化した3枚のミニ図。平行移動=方向と距離の矢印だけ強調・対称移動=軸だけ強調・回転移動=中心の点・回転の弧矢印（向き）・角度ラベルの3要素を強調（決定要素以外の補助線なし）。【主要な数値・設定】回転移動の例は「点O・時計回りに90°」（本文の表と一致・回転向きも数値検証）。【AIに同じ種類の図を描かせるときの説明文】「3つの移動の決定要素（対比のミニ図3枚）。決定要素の対比表を図解化した3枚のミニ図。平行移動=方向と距離の矢印だけ強調・対称移動=軸だけ強調・回転移動=中心の点・回転の弧矢印（向き）・角度ラベルの3要素を強調（決定要素以外の補助線なし）。数値・設定: 回転移動の例は「点O・時計回りに90°」（本文の表と一致・回転向きも数値検証）。白黒印刷向けのシンプルな教材図（SVG）としてかいて。」——この説明文を生成AIに渡せば同型の図を描かせられる。数値を変えれば類題用の図も作れる。</desc>
<!-- L03_fig1_determining_elements.svg | 3つの移動の決定要素（対比のミニ図3枚） -->
<!-- generated by assets_provenance/generate_figures.py on 2026-07-18 (コード来歴方式・SVG直接編集禁止/スクリプト改修で再生成) -->
<rect x="0" y="0" width="480" height="240" fill="#fff"/>
<text x="76.0" y="42.8" font-size="12" text-anchor="middle" font-weight="bold">平行移動</text>
<text x="76.0" y="224.3" font-size="11" text-anchor="middle">決定要素: 方向と距離</text>
<text x="235.8" y="42.8" font-size="12" text-anchor="middle" font-weight="bold">対称移動</text>
<text x="235.8" y="224.3" font-size="11" text-anchor="middle">決定要素: 軸の位置</text>
<text x="395.6" y="42.8" font-size="12" text-anchor="middle" font-weight="bold">回転移動</text>
<text x="395.6" y="224.3" font-size="11" text-anchor="middle">決定要素: 中心・角・向き</text>
<polygon points="21.6,167.8 65.8,167.8 35.2,137.2" fill="none" stroke="#999" stroke-width="1.2" stroke-linejoin="round"/>
<polygon points="79.4,137.2 123.6,137.2 93.0,106.6" fill="none" stroke="#999" stroke-width="1.2" stroke-linejoin="round"/>
<line x1="31.8" y1="120.2" x2="83.4" y2="92.9" stroke="#000" stroke-width="2.8"/>
<polygon points="89.6,89.6 84.9,95.7 81.9,90.1" fill="#000"/>
<polygon points="181.4,167.8 218.8,167.8 195.0,130.4" fill="none" stroke="#999" stroke-width="1.2" stroke-linejoin="round"/>
<polygon points="290.2,167.8 252.8,167.8 276.6,130.4" fill="none" stroke="#999" stroke-width="1.2" stroke-linejoin="round"/>
<line x1="235.8" y1="188.2" x2="235.8" y2="55.6" stroke="#000" stroke-width="2.8"/>
<text x="246.0" y="67.0" font-size="13" text-anchor="middle" font-weight="bold">ℓ</text>
<polygon points="412.6,113.4 443.2,113.4 419.4,86.2" fill="none" stroke="#999" stroke-width="1.2" stroke-linejoin="round"/>
<polygon points="409.2,150.8 409.2,181.4 436.4,157.6" fill="none" stroke="#999" stroke-width="1.2" stroke-linejoin="round"/>
<circle cx="392.2" cy="130.4" r="3.4" fill="#000"/>
<text x="380.3" y="136.7" font-size="13" text-anchor="middle" font-weight="bold">O</text>
<path d="M 432.4 123.3 A 40.8 40.8 0 0 0 406.2 92.1" fill="none" stroke="#000" stroke-width="2.2"/>
<line x1="431.8" y1="120.5" x2="431.4" y2="118.5" stroke="#000" stroke-width="2.2"/>
<polygon points="432.7,125.4 428.3,119.1 434.5,118.0" fill="#000"/>
<text x="437.8" y="96.7" font-size="13" text-anchor="middle" font-weight="bold">90°</text>
<text x="240.0" y="232.0" font-size="12" text-anchor="middle">うすい図形は移動の前後。こく示した部分が「決めなければ伝わらない」情報</text>
</svg>
