<svg xmlns="http://www.w3.org/2000/svg" viewBox="0 0 480 280">
<title>線分の垂直二等分線の作図手順（2ステップ）</title>
<desc>【この図の意図】垂直二等分線の作図手順図（2ステップを左右に並べる）。左=手順①（A中心・B中心の同半径の弧が上下2点P・Qで交わる。半径が等しいことを弧上の印で示す）・右=手順②（直線PQと、ABとの交点Mに中点の印と直角マーク）。【主要な数値・設定】線分AB=2.6・共通の半径r=1.7（ABの半分より大きい）。交点P・Qは厳密計算（長さの数値・分度器は載せない）。【AIに同じ種類の図を描かせるときの説明文】「線分の垂直二等分線の作図手順（2ステップ）。垂直二等分線の作図手順図（2ステップを左右に並べる）。左=手順①（A中心・B中心の同半径の弧が上下2点P・Qで交わる。半径が等しいことを弧上の印で示す）・右=手順②（直線PQと、ABとの交点Mに中点の印と直角マーク）。数値・設定: 線分AB=2.6・共通の半径r=1.7（ABの半分より大きい）。交点P・Qは厳密計算（長さの数値・分度器は載せない）。白黒印刷向けのシンプルな教材図（SVG）としてかいて。」——この説明文を生成AIに渡せば同型の図を描かせられる。数値を変えれば類題用の図も作れる。</desc>
<!-- L04_fig1_perp_bisector_steps.svg | 線分の垂直二等分線の作図手順（2ステップ） -->
<!-- generated by assets_provenance/generate_figures.py on 2026-07-18 (コード来歴方式・SVG直接編集禁止/スクリプト改修で再生成) -->
<rect x="0" y="0" width="480" height="280" fill="#fff"/>
<line x1="40.3" y1="150.0" x2="201.5" y2="150.0" stroke="#000" stroke-width="1.6"/>
<path d="M 102.1 235.4 A 105.4 105.4 0 0 0 102.1 64.6" fill="none" stroke="#555" stroke-width="1.1"/>
<path d="M 139.7 64.6 A 105.4 105.4 0 0 0 139.7 235.4" fill="none" stroke="#555" stroke-width="1.1"/>
<line x1="138.5" y1="129.1" x2="148.3" y2="127.0" stroke="#000" stroke-width="1.4"/>
<line x1="103.3" y1="129.1" x2="93.5" y2="127.0" stroke="#000" stroke-width="1.4"/>
<circle cx="40.3" cy="150.0" r="2.5" fill="#000"/>
<text x="40.3" y="170.7" font-size="13" text-anchor="middle" font-weight="bold">A</text>
<circle cx="201.5" cy="150.0" r="2.5" fill="#000"/>
<text x="201.5" y="170.7" font-size="13" text-anchor="middle" font-weight="bold">B</text>
<circle cx="120.9" cy="82.1" r="2.5" fill="#000"/>
<text x="120.9" y="70.5" font-size="13" text-anchor="middle" font-weight="bold">P</text>
<circle cx="120.9" cy="217.9" r="2.5" fill="#000"/>
<text x="120.9" y="239.8" font-size="13" text-anchor="middle" font-weight="bold">Q</text>
<text x="120.9" y="264.4" font-size="12" text-anchor="middle">① A・Bを中心に等しい半径の弧</text>
<line x1="275.9" y1="150.0" x2="437.1" y2="150.0" stroke="#000" stroke-width="1.6"/>
<path d="M 337.7 235.4 A 105.4 105.4 0 0 0 337.7 64.6" fill="none" stroke="#555" stroke-width="1.1"/>
<path d="M 375.3 64.6 A 105.4 105.4 0 0 0 375.3 235.4" fill="none" stroke="#555" stroke-width="1.1"/>
<line x1="374.1" y1="129.1" x2="383.9" y2="127.0" stroke="#000" stroke-width="1.4"/>
<line x1="338.9" y1="129.1" x2="329.1" y2="127.0" stroke="#000" stroke-width="1.4"/>
<circle cx="275.9" cy="150.0" r="2.5" fill="#000"/>
<text x="275.9" y="170.7" font-size="13" text-anchor="middle" font-weight="bold">A</text>
<circle cx="437.1" cy="150.0" r="2.5" fill="#000"/>
<text x="437.1" y="170.7" font-size="13" text-anchor="middle" font-weight="bold">B</text>
<circle cx="356.5" cy="82.1" r="2.5" fill="#000"/>
<text x="356.5" y="70.5" font-size="13" text-anchor="middle" font-weight="bold">P</text>
<circle cx="356.5" cy="217.9" r="2.5" fill="#000"/>
<text x="356.5" y="239.8" font-size="13" text-anchor="middle" font-weight="bold">Q</text>
<line x1="356.5" y1="60.4" x2="356.5" y2="239.6" stroke="#000" stroke-width="2.2"/>
<circle cx="356.5" cy="150.0" r="2.5" fill="#000"/>
<text x="371.4" y="169.4" font-size="13" text-anchor="middle" font-weight="bold">M</text>
<polyline points="365.5,150.0 365.5,141.0 356.5,141.0" fill="none" stroke="#000" stroke-width="1.2"/>
<line x1="316.2" y1="145.5" x2="316.2" y2="154.5" stroke="#000" stroke-width="1.4"/>
<line x1="396.8" y1="145.5" x2="396.8" y2="154.5" stroke="#000" stroke-width="1.4"/>
<text x="356.5" y="264.4" font-size="12" text-anchor="middle">② 交点P・Qを通る直線をひく</text>
<text x="240.0" y="272.0" font-size="12" text-anchor="middle">弧の途中の印＝半径が等しいしるし。Mは中点・直角マークつき</text>
</svg>
