<svg xmlns="http://www.w3.org/2000/svg" viewBox="0 0 420 300">
<title>垂直二等分線の作図の根拠（等距離と2円の線対称）</title>
<desc>【この図の意図】作図の根拠図。完成図にPA・PB・QA・QBの4線分を破線+等しい印で追加し、直線PQを対称の軸として図全体が線対称であることを折り返し矢印で示す（この単元の統合の伏線）。【主要な数値・設定】図1と同じ設定（AB=2.6・r=1.7）。折るとA・Bが重なることを数値検証。【AIに同じ種類の図を描かせるときの説明文】「垂直二等分線の作図の根拠（等距離と2円の線対称）。作図の根拠図。完成図にPA・PB・QA・QBの4線分を破線+等しい印で追加し、直線PQを対称の軸として図全体が線対称であることを折り返し矢印で示す（この単元の統合の伏線）。数値・設定: 図1と同じ設定（AB=2.6・r=1.7）。折るとA・Bが重なることを数値検証。白黒印刷向けのシンプルな教材図（SVG）としてかいて。」——この説明文を生成AIに渡せば同型の図を描かせられる。数値を変えれば類題用の図も作れる。</desc>
<!-- L04_fig2_perp_bisector_reason.svg | 垂直二等分線の作図の根拠（等距離と2円の線対称） -->
<!-- generated by assets_provenance/generate_figures.py on 2026-07-18 (コード来歴方式・SVG直接編集禁止/スクリプト改修で再生成) -->
<rect x="0" y="0" width="420" height="300" fill="#fff"/>
<line x1="129.4" y1="160.0" x2="290.6" y2="160.0" stroke="#000" stroke-width="1.6"/>
<path d="M 191.2 245.4 A 105.4 105.4 0 0 0 191.2 74.6" fill="none" stroke="#555" stroke-width="1.1"/>
<path d="M 228.8 74.6 A 105.4 105.4 0 0 0 228.8 245.4" fill="none" stroke="#555" stroke-width="1.1"/>
<line x1="210.0" y1="61.1" x2="210.0" y2="249.6" stroke="#000" stroke-width="2.2"/>
<line x1="210.0" y1="92.1" x2="129.4" y2="160.0" stroke="#000" stroke-width="1.1" stroke-dasharray="6 4"/>
<line x1="172.6" y1="129.5" x2="166.8" y2="122.6" stroke="#000" stroke-width="1.4"/>
<line x1="210.0" y1="92.1" x2="290.6" y2="160.0" stroke="#000" stroke-width="1.1" stroke-dasharray="6 4"/>
<line x1="253.2" y1="122.6" x2="247.4" y2="129.5" stroke="#000" stroke-width="1.4"/>
<line x1="210.0" y1="227.9" x2="129.4" y2="160.0" stroke="#000" stroke-width="1.1" stroke-dasharray="6 4"/>
<line x1="166.8" y1="197.4" x2="172.6" y2="190.5" stroke="#000" stroke-width="1.4"/>
<line x1="210.0" y1="227.9" x2="290.6" y2="160.0" stroke="#000" stroke-width="1.1" stroke-dasharray="6 4"/>
<line x1="247.4" y1="190.5" x2="253.2" y2="197.4" stroke="#000" stroke-width="1.4"/>
<circle cx="129.4" cy="160.0" r="2.5" fill="#000"/>
<text x="126.3" y="181.3" font-size="13" text-anchor="middle" font-weight="bold">A</text>
<circle cx="290.6" cy="160.0" r="2.5" fill="#000"/>
<text x="293.7" y="181.3" font-size="13" text-anchor="middle" font-weight="bold">B</text>
<circle cx="210.0" cy="92.1" r="2.5" fill="#000"/>
<text x="223.6" y="85.5" font-size="13" text-anchor="middle" font-weight="bold">P</text>
<circle cx="210.0" cy="227.9" r="2.5" fill="#000"/>
<text x="223.6" y="244.9" font-size="13" text-anchor="middle" font-weight="bold">Q</text>
<circle cx="210.0" cy="160.0" r="2.5" fill="#000"/>
<polyline points="219.0,160.0 219.0,151.0 210.0,151.0" fill="none" stroke="#000" stroke-width="1.2"/>
<path d="M 175.9 74.7 Q 210.0 108.8 244.1 74.7" fill="none" stroke="#000" stroke-width="1.4"/>
<polygon points="175.9,74.7 182.1,77.1 178.2,80.9" fill="#000"/>
<polygon points="244.1,74.7 241.8,80.9 237.9,77.1" fill="#000"/>
<text x="210.0" y="288.0" font-size="12" text-anchor="middle">PA・PB・QA・QBの印＝等距離。直線PQで折ると図全体がぴったり重なる</text>
</svg>
