<svg xmlns="http://www.w3.org/2000/svg" viewBox="0 0 490 260">
<title>角の二等分線の作図手順（3コマ）</title>
<desc>【この図の意図】角の二等分線の作図手順図（3ステップ）。コマ①=O中心の弧とOX・OY上の交点A・B、コマ②=A中心・B中心の等半径の弧と交点P、コマ③=半直線OPと2つに分かれた角の等しい印（分度器・角度の数値なし）。【主要な数値・設定】∠XOY=70°（直角・60°に見えない角）・OA=OB=1.1・手順②の半径0.9（ABの半分より長い）。交点Pは厳密計算し等角性を数値検証。【AIに同じ種類の図を描かせるときの説明文】「角の二等分線の作図手順（3コマ）。角の二等分線の作図手順図（3ステップ）。コマ①=O中心の弧とOX・OY上の交点A・B、コマ②=A中心・B中心の等半径の弧と交点P、コマ③=半直線OPと2つに分かれた角の等しい印（分度器・角度の数値なし）。数値・設定: ∠XOY=70°（直角・60°に見えない角）・OA=OB=1.1・手順②の半径0.9（ABの半分より長い）。交点Pは厳密計算し等角性を数値検証。白黒印刷向けのシンプルな教材図（SVG）としてかいて。」——この説明文を生成AIに渡せば同型の図を描かせられる。数値を変えれば類題用の図も作れる。</desc>
<!-- L05_fig1_angle_bisector_steps.svg | 角の二等分線の作図手順（3コマ） -->
<!-- generated by assets_provenance/generate_figures.py on 2026-07-18 (コード来歴方式・SVG直接編集禁止/スクリプト改修で再生成) -->
<rect x="0" y="0" width="490" height="260" fill="#fff"/>
<line x1="29.0" y1="205.0" x2="152.3" y2="172.0" stroke="#000" stroke-width="1.6"/>
<line x1="29.0" y1="205.0" x2="40.1" y2="77.9" stroke="#000" stroke-width="1.6"/>
<text x="164.6" y="173.2" font-size="13" text-anchor="middle" font-weight="bold">X</text>
<text x="41.2" y="69.7" font-size="13" text-anchor="middle" font-weight="bold">Y</text>
<path d="M 92.7 201.7 A 63.8 63.8 0 0 0 21.2 141.7" fill="none" stroke="#555" stroke-width="1.1"/>
<circle cx="29.0" cy="205.0" r="2.5" fill="#000"/>
<text x="17.4" y="218.8" font-size="13" text-anchor="middle" font-weight="bold">O</text>
<circle cx="90.6" cy="188.5" r="2.5" fill="#000"/>
<text x="96.4" y="207.0" font-size="13" text-anchor="middle" font-weight="bold">A</text>
<circle cx="34.6" cy="141.4" r="2.5" fill="#000"/>
<text x="19.5" y="139.0" font-size="13" text-anchor="middle" font-weight="bold">B</text>
<text x="84.1" y="241.0" font-size="12" text-anchor="middle">① O中心の弧→A・B</text>
<line x1="194.3" y1="205.0" x2="317.6" y2="172.0" stroke="#000" stroke-width="1.6"/>
<line x1="194.3" y1="205.0" x2="205.4" y2="77.9" stroke="#000" stroke-width="1.6"/>
<text x="329.9" y="173.2" font-size="13" text-anchor="middle" font-weight="bold">X</text>
<text x="206.5" y="69.7" font-size="13" text-anchor="middle" font-weight="bold">Y</text>
<path d="M 258.0 201.7 A 63.8 63.8 0 0 0 186.5 141.7" fill="none" stroke="#555" stroke-width="1.1"/>
<circle cx="194.3" cy="205.0" r="2.5" fill="#000"/>
<text x="182.7" y="218.8" font-size="13" text-anchor="middle" font-weight="bold">O</text>
<circle cx="255.9" cy="188.5" r="2.5" fill="#000"/>
<text x="261.7" y="207.0" font-size="13" text-anchor="middle" font-weight="bold">A</text>
<circle cx="199.9" cy="141.4" r="2.5" fill="#000"/>
<text x="184.8" y="139.0" font-size="13" text-anchor="middle" font-weight="bold">B</text>
<path d="M 275.0 139.9 A 52.2 52.2 0 0 0 229.4 143.5" fill="none" stroke="#555" stroke-width="1.1"/>
<path d="M 248.8 159.7 A 52.2 52.2 0 0 0 244.4 114.2" fill="none" stroke="#555" stroke-width="1.1"/>
<line x1="237.9" y1="144.9" x2="234.0" y2="135.6" stroke="#000" stroke-width="1.4"/>
<line x1="245.9" y1="151.7" x2="255.7" y2="153.8" stroke="#000" stroke-width="1.4"/>
<circle cx="251.8" cy="136.4" r="2.5" fill="#000"/>
<text x="265.7" y="131.7" font-size="13" text-anchor="middle" font-weight="bold">P</text>
<text x="249.4" y="241.0" font-size="12" text-anchor="middle">② A・B中心に等しい弧→P</text>
<line x1="359.6" y1="205.0" x2="482.9" y2="172.0" stroke="#000" stroke-width="1.6"/>
<line x1="359.6" y1="205.0" x2="370.7" y2="77.9" stroke="#000" stroke-width="1.6"/>
<text x="495.2" y="173.2" font-size="13" text-anchor="middle" font-weight="bold">X</text>
<text x="371.8" y="69.7" font-size="13" text-anchor="middle" font-weight="bold">Y</text>
<path d="M 423.3 201.7 A 63.8 63.8 0 0 0 351.8 141.7" fill="none" stroke="#555" stroke-width="1.1"/>
<circle cx="359.6" cy="205.0" r="2.5" fill="#000"/>
<text x="348.0" y="218.8" font-size="13" text-anchor="middle" font-weight="bold">O</text>
<circle cx="421.2" cy="188.5" r="2.5" fill="#000"/>
<text x="427.0" y="207.0" font-size="13" text-anchor="middle" font-weight="bold">A</text>
<circle cx="365.2" cy="141.4" r="2.5" fill="#000"/>
<text x="350.1" y="139.0" font-size="13" text-anchor="middle" font-weight="bold">B</text>
<path d="M 440.3 139.9 A 52.2 52.2 0 0 0 394.7 143.5" fill="none" stroke="#555" stroke-width="1.1"/>
<path d="M 414.1 159.7 A 52.2 52.2 0 0 0 409.7 114.2" fill="none" stroke="#555" stroke-width="1.1"/>
<line x1="403.2" y1="144.9" x2="399.3" y2="135.6" stroke="#000" stroke-width="1.4"/>
<line x1="411.2" y1="151.7" x2="421.0" y2="153.8" stroke="#000" stroke-width="1.4"/>
<circle cx="417.1" cy="136.4" r="2.5" fill="#000"/>
<text x="431.0" y="131.7" font-size="13" text-anchor="middle" font-weight="bold">P</text>
<line x1="359.6" y1="205.0" x2="443.5" y2="105.0" stroke="#000" stroke-width="2.2"/>
<polyline points="374.1,201.1 374.0,200.7 373.8,200.2 373.7,199.8 373.5,199.4 373.3,199.0 373.1,198.5 372.9,198.1 372.7,197.7 372.5,197.3 372.3,196.9 372.0,196.6 371.7,196.2 371.5,195.8 371.2,195.5 370.9,195.1 370.6,194.8 370.3,194.4 369.9,194.1 369.6,193.8 369.2,193.5" fill="none" stroke="#000" stroke-width="1.2"/>
<polyline points="369.2,193.5 368.9,193.2 368.5,192.9 368.1,192.7 367.8,192.4 367.4,192.2 367.0,191.9 366.6,191.7 366.2,191.5 365.8,191.3 365.3,191.1 364.9,191.0 364.5,190.8 364.0,190.7 363.6,190.5 363.2,190.4 362.7,190.3 362.3,190.2 361.8,190.2 361.4,190.1 360.9,190.1" fill="none" stroke="#000" stroke-width="1.2"/>
<text x="414.7" y="241.0" font-size="12" text-anchor="middle">③ 半直線OPをひく</text>
<text x="245.0" y="252.0" font-size="12" text-anchor="middle">②の印＝半径が等しいしるし。③の弧＝2つに分かれた角が等しいしるし</text>
</svg>
