<svg xmlns="http://www.w3.org/2000/svg" viewBox="0 0 490 290">
<title>垂線の作図（ℓ上の点・ℓ上にない点の対比）</title>
<desc>【この図の意図】垂線の2つの場合を左右対比で示す作図手順図。左=ℓ上の点P（P中心の円→A・B→垂直二等分線）・右=ℓ上にない点P（P中心の弧がℓと2点で交わる→A・B→垂直二等分線）。どちらもPA=PBの等しい印を明示し、垂直二等分線部分はL04と同じ描き方（慣用語ラベル・数値なし）。【主要な数値・設定】場合1: 半径0.85→弧1.3／場合2: Pの高さ1.25・円の半径1.55（2点で交わる条件を数値検証）・弧1.15。【AIに同じ種類の図を描かせるときの説明文】「垂線の作図（ℓ上の点・ℓ上にない点の対比）。垂線の2つの場合を左右対比で示す作図手順図。左=ℓ上の点P（P中心の円→A・B→垂直二等分線）・右=ℓ上にない点P（P中心の弧がℓと2点で交わる→A・B→垂直二等分線）。どちらもPA=PBの等しい印を明示し、垂直二等分線部分はL04と同じ描き方（慣用語ラベル・数値なし）。数値・設定: 場合1: 半径0.85→弧1.3／場合2: Pの高さ1.25・円の半径1.55（2点で交わる条件を数値検証）・弧1.15。白黒印刷向けのシンプルな教材図（SVG）としてかいて。」——この説明文を生成AIに渡せば同型の図を描かせられる。数値を変えれば類題用の図も作れる。</desc>
<!-- L05_fig2_perpendicular_two_cases.svg | 垂線の作図（ℓ上の点・ℓ上にない点の対比） -->
<!-- generated by assets_provenance/generate_figures.py on 2026-07-18 (コード来歴方式・SVG直接編集禁止/スクリプト改修で再生成) -->
<rect x="0" y="0" width="490" height="290" fill="#fff"/>
<line x1="6.0" y1="155.0" x2="222.0" y2="155.0" stroke="#000" stroke-width="1.6"/>
<text x="222.0" y="147.6" font-size="13" text-anchor="end" font-weight="bold">ℓ</text>
<circle cx="114.0" cy="155.0" r="51.0" fill="none" stroke="#555" stroke-width="1.1"/>
<path d="M 130.5 116.0 A 78.0 78.0 0 0 0 10.8 97.0" fill="none" stroke="#555" stroke-width="1.1"/>
<path d="M 217.2 97.0 A 78.0 78.0 0 0 0 97.5 116.0" fill="none" stroke="#555" stroke-width="1.1"/>
<line x1="114.0" y1="78.0" x2="114.0" y2="232.0" stroke="#000" stroke-width="2.2"/>
<circle cx="114.0" cy="155.0" r="2.5" fill="#000"/>
<text x="126.0" y="175.2" font-size="13" text-anchor="middle" font-weight="bold">P</text>
<circle cx="63.0" cy="155.0" r="2.5" fill="#000"/>
<text x="63.0" y="176.4" font-size="13" text-anchor="middle" font-weight="bold">A</text>
<circle cx="165.0" cy="155.0" r="2.5" fill="#000"/>
<text x="165.0" y="176.4" font-size="13" text-anchor="middle" font-weight="bold">B</text>
<circle cx="114.0" cy="96.0" r="2.5" fill="#000"/>
<line x1="88.5" y1="150.5" x2="88.5" y2="159.5" stroke="#000" stroke-width="1.4"/>
<line x1="139.5" y1="150.5" x2="139.5" y2="159.5" stroke="#000" stroke-width="1.4"/>
<polyline points="123.0,155.0 123.0,146.0 114.0,146.0" fill="none" stroke="#000" stroke-width="1.2"/>
<line x1="252.0" y1="155.0" x2="468.0" y2="155.0" stroke="#000" stroke-width="1.6"/>
<text x="468.0" y="147.6" font-size="13" text-anchor="end" font-weight="bold">ℓ</text>
<path d="M 275.7 119.3 A 93.0 93.0 0 0 0 444.3 119.3" fill="none" stroke="#555" stroke-width="1.1"/>
<path d="M 338.3 215.4 A 69.0 69.0 0 0 0 372.2 170.7" fill="none" stroke="#555" stroke-width="1.1"/>
<path d="M 347.8 170.7 A 69.0 69.0 0 0 0 381.7 215.4" fill="none" stroke="#555" stroke-width="1.1"/>
<line x1="360.0" y1="59.0" x2="360.0" y2="217.7" stroke="#000" stroke-width="2.2"/>
<circle cx="360.0" cy="80.0" r="2.5" fill="#000"/>
<text x="373.2" y="76.1" font-size="13" text-anchor="middle" font-weight="bold">P</text>
<circle cx="305.0" cy="155.0" r="2.5" fill="#000"/>
<text x="302.0" y="145.2" font-size="13" text-anchor="middle" font-weight="bold">A</text>
<circle cx="415.0" cy="155.0" r="2.5" fill="#000"/>
<text x="412.0" y="145.2" font-size="13" text-anchor="middle" font-weight="bold">B</text>
<circle cx="360.0" cy="196.7" r="2.5" fill="#000"/>
<text x="373.2" y="207.2" font-size="13" text-anchor="middle" font-weight="bold">Q</text>
<line x1="360.0" y1="80.0" x2="305.0" y2="155.0" stroke="#000" stroke-width="1.1" stroke-dasharray="6 4"/>
<line x1="360.0" y1="80.0" x2="415.0" y2="155.0" stroke="#000" stroke-width="1.1" stroke-dasharray="6 4"/>
<line x1="336.1" y1="120.2" x2="328.9" y2="114.8" stroke="#000" stroke-width="1.4"/>
<line x1="391.1" y1="114.8" x2="383.9" y2="120.2" stroke="#000" stroke-width="1.4"/>
<polyline points="369.0,155.0 369.0,146.0 360.0,146.0" fill="none" stroke="#000" stroke-width="1.2"/>
<text x="114.0" y="269.0" font-size="12" text-anchor="middle">ℓ上の点Pを通る垂線</text>
<text x="360.0" y="269.0" font-size="12" text-anchor="middle">ℓ上にない点Pを通る垂線</text>
<text x="245.0" y="283.0" font-size="12" text-anchor="middle">どちらも「Pを2点A・Bから等距離の点にする」→あとは垂直二等分線の作図</text>
</svg>
