<svg xmlns="http://www.w3.org/2000/svg" viewBox="0 0 490 350">
<title>3つの作図の統合図（共通の骨組み＝2円の線対称）</title>
<desc>【この図の意図】3作図（垂直二等分線・角の二等分線・垂線）の完成図を横に並べ、共通の骨組み「等しい半径の2円＋交点を通る対称の軸」を同じ描き方（中心=太い点・2円=グレー弧・軸=太線）でハイライトする統合図。下段に骨組みだけの抽象図（手順番号なし）。【主要な数値・設定】3作図とも交点を厳密計算し、軸で折ると2円の中心が入れかわること（線対称）を数値検証。【AIに同じ種類の図を描かせるときの説明文】「3つの作図の統合図（共通の骨組み＝2円の線対称）。3作図（垂直二等分線・角の二等分線・垂線）の完成図を横に並べ、共通の骨組み「等しい半径の2円＋交点を通る対称の軸」を同じ描き方（中心=太い点・2円=グレー弧・軸=太線）でハイライトする統合図。下段に骨組みだけの抽象図（手順番号なし）。数値・設定: 3作図とも交点を厳密計算し、軸で折ると2円の中心が入れかわること（線対称）を数値検証。白黒印刷向けのシンプルな教材図（SVG）としてかいて。」——この説明文を生成AIに渡せば同型の図を描かせられる。数値を変えれば類題用の図も作れる。</desc>
<!-- L06_fig1_unified_constructions.svg | 3つの作図の統合図（共通の骨組み＝2円の線対称） -->
<!-- generated by assets_provenance/generate_figures.py on 2026-07-18 (コード来歴方式・SVG直接編集禁止/スクリプト改修で再生成) -->
<rect x="0" y="0" width="490" height="350" fill="#fff"/>
<text x="81.0" y="85.9" font-size="12" text-anchor="middle" font-weight="bold">垂直二等分線</text>
<text x="245.7" y="85.9" font-size="12" text-anchor="middle" font-weight="bold">角の二等分線</text>
<text x="410.4" y="85.9" font-size="12" text-anchor="middle" font-weight="bold">垂線</text>
<line x1="40.5" y1="160.0" x2="121.5" y2="160.0" stroke="#000" stroke-width="1.1"/>
<path d="M 65.9 207.7 A 54.0 54.0 0 0 0 65.9 112.3" fill="none" stroke="#555" stroke-width="1.3"/>
<path d="M 96.1 112.3 A 54.0 54.0 0 0 0 96.1 207.7" fill="none" stroke="#555" stroke-width="1.3"/>
<line x1="81.0" y1="103.3" x2="81.0" y2="216.7" stroke="#000" stroke-width="3.2"/>
<circle cx="40.5" cy="160.0" r="3.2" fill="#000"/>
<circle cx="121.5" cy="160.0" r="3.2" fill="#000"/>
<line x1="191.7" y1="205.9" x2="300.0" y2="182.9" stroke="#000" stroke-width="1.1"/>
<line x1="191.7" y1="205.9" x2="225.9" y2="100.6" stroke="#000" stroke-width="1.1"/>
<path d="M 243.0 205.9 A 51.3 51.3 0 0 0 197.1 154.9" fill="none" stroke="#555" stroke-width="1.3"/>
<path d="M 273.8 162.2 A 45.9 45.9 0 0 0 229.2 151.1" fill="none" stroke="#555" stroke-width="1.3"/>
<path d="M 250.1 174.3 A 45.9 45.9 0 0 0 243.7 128.8" fill="none" stroke="#555" stroke-width="1.3"/>
<line x1="191.7" y1="205.9" x2="286.0" y2="121.0" stroke="#000" stroke-width="3.2"/>
<circle cx="191.7" cy="205.9" r="2.5" fill="#000"/>
<circle cx="241.9" cy="195.2" r="3.2" fill="#000"/>
<circle cx="207.6" cy="157.1" r="3.2" fill="#000"/>
<line x1="337.5" y1="189.7" x2="483.3" y2="189.7" stroke="#000" stroke-width="1.1"/>
<circle cx="410.4" cy="189.7" r="33.5" fill="none" stroke="#555" stroke-width="1.3"/>
<path d="M 427.7 171.2 A 54.0 54.0 0 0 0 367.5 136.5" fill="none" stroke="#555" stroke-width="1.3"/>
<path d="M 453.3 136.5 A 54.0 54.0 0 0 0 393.1 171.2" fill="none" stroke="#555" stroke-width="1.3"/>
<line x1="410.4" y1="119.5" x2="410.4" y2="232.9" stroke="#000" stroke-width="3.2"/>
<circle cx="410.4" cy="189.7" r="2.5" fill="#000"/>
<circle cx="376.9" cy="189.7" r="3.2" fill="#000"/>
<circle cx="443.9" cy="189.7" r="3.2" fill="#000"/>
<circle cx="216.0" cy="297.7" r="48.6" fill="none" stroke="#000" stroke-width="1.4"/>
<circle cx="275.4" cy="297.7" r="48.6" fill="none" stroke="#000" stroke-width="1.4"/>
<line x1="216.0" y1="297.7" x2="275.4" y2="297.7" stroke="#000" stroke-width="1.1"/>
<line x1="245.7" y1="237.6" x2="245.7" y2="357.8" stroke="#000" stroke-width="3.2"/>
<circle cx="216.0" cy="297.7" r="3.2" fill="#000"/>
<circle cx="275.4" cy="297.7" r="3.2" fill="#000"/>
<circle cx="245.7" cy="259.2" r="2.5" fill="#000"/>
<circle cx="245.7" cy="336.2" r="2.5" fill="#000"/>
<text x="318.6" y="264.1" font-size="12" text-anchor="start" font-weight="bold">共通の骨組み</text>
<text x="318.6" y="285.4" font-size="11" text-anchor="start">等しい半径の2円と</text>
<text x="318.6" y="304.2" font-size="11" text-anchor="start">交点を通る対称の軸</text>
<text x="245.0" y="342.0" font-size="12" text-anchor="middle">3つの完成図のどれにも、等しい半径の2円（弧）と、その交点を通る太い軸がある</text>
</svg>
