<svg xmlns="http://www.w3.org/2000/svg" viewBox="0 0 430 300">
<title>弧と弦の定義図</title>
<desc>【この図の意図】弧と弦の定義図。円Oと円周上の2点A・B。弦AB（線分）・短い方の弧を太線で「弧AB」・長い方は通常線+「Cを添えて弧ACBと区別」の注記。中心Oと半径1本も示す（⌒記号は使わない）。【主要な数値・設定】A=210°・B=330°・C=90°の配置（短い弧の中心角120°・弦は直径でない）。【AIに同じ種類の図を描かせるときの説明文】「弧と弦の定義図。弧と弦の定義図。円Oと円周上の2点A・B。弦AB（線分）・短い方の弧を太線で「弧AB」・長い方は通常線+「Cを添えて弧ACBと区別」の注記。中心Oと半径1本も示す（⌒記号は使わない）。数値・設定: A=210°・B=330°・C=90°の配置（短い弧の中心角120°・弦は直径でない）。白黒印刷向けのシンプルな教材図（SVG）としてかいて。」——この説明文を生成AIに渡せば同型の図を描かせられる。数値を変えれば類題用の図も作れる。</desc>
<!-- L07_fig1_arc_and_chord.svg | 弧と弦の定義図 -->
<!-- generated by assets_provenance/generate_figures.py on 2026-07-18 (コード来歴方式・SVG直接編集禁止/スクリプト改修で再生成) -->
<rect x="0" y="0" width="430" height="300" fill="#fff"/>
<path d="M 279.2 188.6 A 97.2 97.2 0 1 0 110.8 188.6" fill="none" stroke="#000" stroke-width="1.6"/>
<path d="M 110.8 188.6 A 97.2 97.2 0 0 0 279.2 188.6" fill="none" stroke="#000" stroke-width="3.2"/>
<line x1="110.8" y1="188.6" x2="279.2" y2="188.6" stroke="#000" stroke-width="1.6"/>
<line x1="195.0" y1="140.0" x2="110.8" y2="91.4" stroke="#000" stroke-width="1.1"/>
<text x="159.4" y="108.6" font-size="12" text-anchor="middle">半径</text>
<circle cx="195.0" cy="140.0" r="2.5" fill="#000"/>
<text x="206.5" y="148.9" font-size="13" text-anchor="middle" font-weight="bold">O</text>
<circle cx="110.8" cy="188.6" r="2.5" fill="#000"/>
<text x="96.4" y="207.6" font-size="13" text-anchor="middle" font-weight="bold">A</text>
<circle cx="279.2" cy="188.6" r="2.5" fill="#000"/>
<text x="293.6" y="207.6" font-size="13" text-anchor="middle" font-weight="bold">B</text>
<circle cx="195.0" cy="42.8" r="2.5" fill="#000"/>
<text x="195.0" y="31.5" font-size="13" text-anchor="middle" font-weight="bold">C</text>
<text x="195.0" y="177.8" font-size="12" text-anchor="middle">弦AB</text>
<text x="195.0" y="261.6" font-size="12" text-anchor="middle">弧AB（太い側）</text>
<text x="210.0" y="30.0" font-size="11" text-anchor="middle">Cを通る側も弧。区別するときは間の点を</text>
<text x="210.0" y="44.0" font-size="11" text-anchor="middle">そえて「弧ACB」のように書く</text>
<text x="215.0" y="290.0" font-size="12" text-anchor="middle">弦＝まっすぐな近道・弧＝円周ぞいのまがった道</text>
</svg>
