<svg xmlns="http://www.w3.org/2000/svg" viewBox="0 0 490 300">
<title>弦の垂直二等分線と円の中心の復元</title>
<desc>【この図の意図】「弦の垂直二等分線は中心を通る」の性質図と中心復元の作図を1枚にまとめる。左=円Oと弦AB・その垂直二等分線が中心Oを通るようす（OA・OBに等しい印）。右=中心の印がない円に3点A・B・Cをとり、弦AB・BCの垂直二等分線2本の交点として中心を復元（3本目はひかない）。【主要な数値・設定】半径1.15・左A=140°/B=255°・右A=100°/B=215°/C=340°。垂直二等分線が中心を通ること・2本の交点=中心を数値検証。【AIに同じ種類の図を描かせるときの説明文】「弦の垂直二等分線と円の中心の復元。「弦の垂直二等分線は中心を通る」の性質図と中心復元の作図を1枚にまとめる。左=円Oと弦AB・その垂直二等分線が中心Oを通るようす（OA・OBに等しい印）。右=中心の印がない円に3点A・B・Cをとり、弦AB・BCの垂直二等分線2本の交点として中心を復元（3本目はひかない）。数値・設定: 半径1.15・左A=140°/B=255°・右A=100°/B=215°/C=340°。垂直二等分線が中心を通ること・2本の交点=中心を数値検証。白黒印刷向けのシンプルな教材図（SVG）としてかいて。」——この説明文を生成AIに渡せば同型の図を描かせられる。数値を変えれば類題用の図も作れる。</desc>
<!-- L07_fig2_chord_bisector_center.svg | 弦の垂直二等分線と円の中心の復元 -->
<!-- generated by assets_provenance/generate_figures.py on 2026-07-18 (コード来歴方式・SVG直接編集禁止/スクリプト改修で再生成) -->
<rect x="0" y="0" width="490" height="300" fill="#fff"/>
<circle cx="118.4" cy="140.0" r="73.6" fill="none" stroke="#000" stroke-width="1.6"/>
<line x1="62.0" y1="92.7" x2="99.4" y2="211.1" stroke="#000" stroke-width="1.6"/>
<line x1="-26.1" y1="185.6" x2="187.5" y2="118.2" stroke="#000" stroke-width="2.2"/>
<line x1="118.4" y1="140.0" x2="62.0" y2="92.7" stroke="#000" stroke-width="1.1" stroke-dasharray="6 4"/>
<line x1="118.4" y1="140.0" x2="99.4" y2="211.1" stroke="#000" stroke-width="1.1" stroke-dasharray="6 4"/>
<line x1="87.3" y1="119.8" x2="93.1" y2="112.9" stroke="#000" stroke-width="1.4"/>
<line x1="113.2" y1="176.7" x2="104.5" y2="174.4" stroke="#000" stroke-width="1.4"/>
<polyline points="78.0,143.3 86.6,140.6 89.3,149.2" fill="none" stroke="#000" stroke-width="1.2"/>
<circle cx="118.4" cy="140.0" r="2.5" fill="#000"/>
<text x="129.9" y="136.9" font-size="13" text-anchor="middle" font-weight="bold">O</text>
<circle cx="62.0" cy="92.7" r="2.5" fill="#000"/>
<text x="47.9" y="88.3" font-size="13" text-anchor="middle" font-weight="bold">A</text>
<circle cx="99.4" cy="211.1" r="2.5" fill="#000"/>
<text x="99.4" y="232.3" font-size="13" text-anchor="middle" font-weight="bold">B</text>
<circle cx="371.2" cy="140.0" r="73.6" fill="none" stroke="#000" stroke-width="1.6"/>
<line x1="358.4" y1="67.5" x2="310.9" y2="182.2" stroke="#000" stroke-width="1.1"/>
<line x1="310.9" y1="182.2" x2="440.4" y2="165.2" stroke="#000" stroke-width="1.1"/>
<line x1="266.7" y1="96.7" x2="402.7" y2="153.0" stroke="#000" stroke-width="1.7"/>
<line x1="385.2" y1="246.7" x2="366.0" y2="100.7" stroke="#000" stroke-width="1.7"/>
<circle cx="371.2" cy="140.0" r="3.2" fill="#000"/>
<text x="372.5" y="163.0" font-size="11" text-anchor="middle" font-weight="bold">円の中心</text>
<circle cx="358.4" cy="67.5" r="2.5" fill="#000"/>
<text x="352.0" y="56.7" font-size="13" text-anchor="middle" font-weight="bold">A</text>
<circle cx="310.9" cy="182.2" r="2.5" fill="#000"/>
<text x="295.6" y="197.0" font-size="13" text-anchor="middle" font-weight="bold">B</text>
<circle cx="440.4" cy="165.2" r="2.5" fill="#000"/>
<text x="455.7" y="177.4" font-size="13" text-anchor="middle" font-weight="bold">C</text>
<text x="118.4" y="252.0" font-size="12" text-anchor="middle">弦の垂直二等分線は中心を通る</text>
<text x="371.2" y="252.0" font-size="12" text-anchor="middle">2本ひけば交点が中心（中心の復元）</text>
<text x="245.0" y="292.0" font-size="12" text-anchor="middle">左の性質を2回使うと、中心の印がない円の中心を作図で見つけられる</text>
</svg>
