<svg xmlns="http://www.w3.org/2000/svg" viewBox="0 0 500 360">
<title>弧の長さも面積も中心角に比例（段階図）</title>
<desc>【この図の意図】「中心角に比例」を視覚化する段階図。同じ半径のおうぎ形4つを扇の要をそろえて並べ、各図の下に中心角・弧の長さ・面積の3段ラベル。30°を基準に×2・×3・×4の矢印を弧の長さの行と面積の行の両方に付ける（公式は載せない）。【主要な数値・設定】半径6cm・中心角30/60/90/120°（本文の表と同じ値。弧・面積の値はコードで再計算して照合）。【AIに同じ種類の図を描かせるときの説明文】「弧の長さも面積も中心角に比例（段階図）。「中心角に比例」を視覚化する段階図。同じ半径のおうぎ形4つを扇の要をそろえて並べ、各図の下に中心角・弧の長さ・面積の3段ラベル。30°を基準に×2・×3・×4の矢印を弧の長さの行と面積の行の両方に付ける（公式は載せない）。数値・設定: 半径6cm・中心角30/60/90/120°（本文の表と同じ値。弧・面積の値はコードで再計算して照合）。白黒印刷向けのシンプルな教材図（SVG）としてかいて。」——この説明文を生成AIに渡せば同型の図を描かせられる。数値を変えれば類題用の図も作れる。</desc>
<!-- L09_fig2_proportional_sectors.svg | 弧の長さも面積も中心角に比例（段階図） -->
<!-- generated by assets_provenance/generate_figures.py on 2026-07-18 (コード来歴方式・SVG直接編集禁止/スクリプト改修で再生成) -->
<rect x="0" y="0" width="500" height="360" fill="#fff"/>
<text x="250.0" y="26.0" font-size="13" text-anchor="middle" font-weight="bold">半径6cmの円（円周12π cm・面積36π cm²）からできるおうぎ形</text>
<path d="M 80.0 200.0 L 92.3 154.1 A 47.5 47.5 0 0 0 67.7 154.1 Z" fill="#e6e6e6" stroke="#000" stroke-width="1.7" stroke-linejoin="round"/>
<circle cx="80" cy="200" r="2.2" fill="#000"/>
<path d="M 178.0 200.0 L 201.8 158.9 A 47.5 47.5 0 0 0 154.2 158.9 Z" fill="#e6e6e6" stroke="#000" stroke-width="1.7" stroke-linejoin="round"/>
<circle cx="178" cy="200" r="2.2" fill="#000"/>
<path d="M 285.0 200.0 L 318.6 166.4 A 47.5 47.5 0 0 0 251.4 166.4 Z" fill="#e6e6e6" stroke="#000" stroke-width="1.7" stroke-linejoin="round"/>
<circle cx="285" cy="200" r="2.2" fill="#000"/>
<path d="M 407.0 200.0 L 448.1 176.2 A 47.5 47.5 0 0 0 365.9 176.2 Z" fill="#e6e6e6" stroke="#000" stroke-width="1.7" stroke-linejoin="round"/>
<circle cx="407" cy="200" r="2.2" fill="#000"/>
<text x="14.0" y="232.0" font-size="11" text-anchor="start" font-weight="bold">中心角</text>
<text x="80.0" y="232.0" font-size="12" text-anchor="middle">30°</text>
<text x="178.0" y="232.0" font-size="12" text-anchor="middle">60°</text>
<text x="285.0" y="232.0" font-size="12" text-anchor="middle">90°</text>
<text x="407.0" y="232.0" font-size="12" text-anchor="middle">120°</text>
<text x="14.0" y="262.0" font-size="11" text-anchor="start" font-weight="bold">弧の長さ</text>
<text x="80.0" y="262.0" font-size="12" text-anchor="middle">π cm</text>
<text x="178.0" y="262.0" font-size="12" text-anchor="middle">2π cm</text>
<text x="285.0" y="262.0" font-size="12" text-anchor="middle">3π cm</text>
<text x="407.0" y="262.0" font-size="12" text-anchor="middle">4π cm</text>
<text x="14.0" y="322.0" font-size="11" text-anchor="start" font-weight="bold">面積</text>
<text x="80.0" y="322.0" font-size="12" text-anchor="middle">3π cm²</text>
<text x="178.0" y="322.0" font-size="12" text-anchor="middle">6π cm²</text>
<text x="285.0" y="322.0" font-size="12" text-anchor="middle">9π cm²</text>
<text x="407.0" y="322.0" font-size="12" text-anchor="middle">12π cm²</text>
<line x1="92.0" y1="278.0" x2="158.5" y2="278.0" stroke="#555" stroke-width="1.0"/>
<polygon points="164.0,278.0 158.5,280.5 158.5,275.5" fill="#555"/>
<text x="129.0" y="275.0" font-size="10" text-anchor="middle">×2</text>
<line x1="92.0" y1="285.0" x2="265.5" y2="285.0" stroke="#555" stroke-width="1.0"/>
<polygon points="271.0,285.0 265.5,287.5 265.5,282.5" fill="#555"/>
<text x="182.5" y="282.0" font-size="10" text-anchor="middle">×3</text>
<line x1="92.0" y1="292.0" x2="387.5" y2="292.0" stroke="#555" stroke-width="1.0"/>
<polygon points="393.0,292.0 387.5,294.5 387.5,289.5" fill="#555"/>
<text x="243.5" y="289.0" font-size="10" text-anchor="middle">×4</text>
<line x1="92.0" y1="338.0" x2="158.5" y2="338.0" stroke="#555" stroke-width="1.0"/>
<polygon points="164.0,338.0 158.5,340.5 158.5,335.5" fill="#555"/>
<text x="129.0" y="335.0" font-size="10" text-anchor="middle">×2</text>
<line x1="92.0" y1="345.0" x2="265.5" y2="345.0" stroke="#555" stroke-width="1.0"/>
<polygon points="271.0,345.0 265.5,347.5 265.5,342.5" fill="#555"/>
<text x="182.5" y="342.0" font-size="10" text-anchor="middle">×3</text>
<line x1="92.0" y1="352.0" x2="387.5" y2="352.0" stroke="#555" stroke-width="1.0"/>
<polygon points="393.0,352.0 387.5,354.5 387.5,349.5" fill="#555"/>
<text x="243.5" y="349.0" font-size="10" text-anchor="middle">×4</text>
</svg>
