<svg xmlns="http://www.w3.org/2000/svg" viewBox="0 0 470 270">
<title>おうぎ形の定義図（円からの切り出し）</title>
<desc>【この図の意図】おうぎ形の定義図。左=円O全体（うすい色）の中に2つの半径と弧で囲まれた部分だけ濃い色・右=切り出したおうぎ形単体に「半径」「半径」「弧」「中心角」の4ラベル（弦は描かない・中心角の数値も載せない）。【主要な数値・設定】中心角60°の例（コードで角度を検算・図中に数値は載せない）。【AIに同じ種類の図を描かせるときの説明文】「おうぎ形の定義図（円からの切り出し）。おうぎ形の定義図。左=円O全体（うすい色）の中に2つの半径と弧で囲まれた部分だけ濃い色・右=切り出したおうぎ形単体に「半径」「半径」「弧」「中心角」の4ラベル（弦は描かない・中心角の数値も載せない）。数値・設定: 中心角60°の例（コードで角度を検算・図中に数値は載せない）。白黒印刷向けのシンプルな教材図（SVG）としてかいて。」——この説明文を生成AIに渡せば同型の図を描かせられる。数値を変えれば類題用の図も作れる。</desc>
<!-- L09_fig1_sector_definition.svg | おうぎ形の定義図（円からの切り出し） -->
<!-- generated by assets_provenance/generate_figures.py on 2026-07-18 (コード来歴方式・SVG直接編集禁止/スクリプト改修で再生成) -->
<rect x="0" y="0" width="470" height="270" fill="#fff"/>
<circle cx="108.5" cy="155.0" r="71.3" fill="#e6e6e6" stroke="#000" stroke-width="1.6"/>
<path d="M 108.5 155.0 L 173.1 124.9 A 71.3 71.3 0 0 0 114.7 84.0 Z" fill="#bdbdbd" stroke="#000" stroke-width="1.6" stroke-linejoin="round"/>
<circle cx="108.5" cy="155.0" r="2.5" fill="#000"/>
<text x="104.8" y="175.7" font-size="13" text-anchor="middle" font-weight="bold">O</text>
<path d="M 344.1 176.7 L 420.0 141.3 A 83.7 83.7 0 0 0 351.4 93.3 Z" fill="none" stroke="#000" stroke-width="2.0" stroke-linejoin="round"/>
<polyline points="359.5,169.5 359.1,168.7 358.7,167.9 358.2,167.2 357.7,166.5 357.1,165.8 356.5,165.1 355.9,164.5 355.3,163.9 354.6,163.3 353.9,162.8 353.1,162.3 352.3,161.8 351.6,161.4 350.7,161.1 349.9,160.7 349.1,160.4 348.2,160.2 347.3,160.0 346.5,159.9 345.6,159.8" fill="none" stroke="#000" stroke-width="1.2"/>
<text x="379.9" y="148.8" font-size="12" text-anchor="middle">半径</text>
<text x="362.1" y="136.3" font-size="12" text-anchor="middle">半径</text>
<text x="400.6" y="100.5" font-size="13" text-anchor="middle" font-weight="bold">弧</text>
<text x="362.6" y="154.5" font-size="12" text-anchor="middle">中心角</text>
<circle cx="344.1" cy="176.7" r="2.5" fill="#000"/>
<text x="108.5" y="254.2" font-size="12" text-anchor="middle">円の一部として切り出す</text>
<text x="375.1" y="232.5" font-size="12" text-anchor="middle">2つの半径と弧で囲まれた図形</text>
<text x="235.0" y="262.0" font-size="12" text-anchor="middle">中心角は、おうぎ形が囲んでいる弧の側で測る</text>
</svg>
