<svg xmlns="http://www.w3.org/2000/svg" viewBox="0 0 470 350">
<title>おうぎ形の計量の構造（円全体の値×取り分）</title>
<desc>【この図の意図】公式の構造図。上段=円全体（円周8π・面積16π）・中段=×135/360＝×3/8の帯・下段=おうぎ形（弧3π・面積6π）。弧の長さの系列と面積の系列を左右2列で平行に見せ、構造の同一性を強調（文字式の変形過程は載せない）。【主要な数値・設定】半径4cm・中心角135°（本文と同じ値。8π・16π・3/8・3π・6πをコードで検算）。【AIに同じ種類の図を描かせるときの説明文】「おうぎ形の計量の構造（円全体の値×取り分）。公式の構造図。上段=円全体（円周8π・面積16π）・中段=×135/360＝×3/8の帯・下段=おうぎ形（弧3π・面積6π）。弧の長さの系列と面積の系列を左右2列で平行に見せ、構造の同一性を強調（文字式の変形過程は載せない）。数値・設定: 半径4cm・中心角135°（本文と同じ値。8π・16π・3/8・3π・6πをコードで検算）。白黒印刷向けのシンプルな教材図（SVG）としてかいて。」——この説明文を生成AIに渡せば同型の図を描かせられる。数値を変えれば類題用の図も作れる。</desc>
<!-- L10_fig1_formula_structure.svg | おうぎ形の計量の構造（円全体の値×取り分） -->
<!-- generated by assets_provenance/generate_figures.py on 2026-07-18 (コード来歴方式・SVG直接編集禁止/スクリプト改修で再生成) -->
<rect x="0" y="0" width="470" height="350" fill="#fff"/>
<text x="235.0" y="28.0" font-size="14" text-anchor="middle" font-weight="bold">例: 半径4cm・中心角135°のおうぎ形</text>
<circle cx="235" cy="80" r="26" fill="#e6e6e6" stroke="#000" stroke-width="1.5"/>
<rect x="35.0" y="55.0" width="150.0" height="50.0" rx="7" fill="#fff" stroke="#000" stroke-width="1.4"/>
<text x="110.0" y="76.2" font-size="12" text-anchor="middle">円全体の円周</text>
<text x="110.0" y="92.2" font-size="12" text-anchor="middle">8π cm</text>
<rect x="285.0" y="55.0" width="150.0" height="50.0" rx="7" fill="#fff" stroke="#000" stroke-width="1.4"/>
<text x="360.0" y="76.2" font-size="12" text-anchor="middle">円全体の面積</text>
<text x="360.0" y="92.2" font-size="12" text-anchor="middle">16π cm²</text>
<line x1="110.0" y1="108.0" x2="110.0" y2="141.0" stroke="#000" stroke-width="1.4"/>
<polygon points="110.0,148.0 106.8,141.0 113.2,141.0" fill="#000"/>
<line x1="360.0" y1="108.0" x2="360.0" y2="141.0" stroke="#000" stroke-width="1.4"/>
<polygon points="360.0,148.0 356.9,141.0 363.1,141.0" fill="#000"/>
<rect x="60.0" y="150.0" width="350.0" height="40.0" rx="7" fill="#e6e6e6" stroke="#000" stroke-width="1.4"/>
<text x="235.0" y="174.6" font-size="13" text-anchor="middle" font-weight="bold">× 135/360 ＝ × 3/8（取り分）</text>
<line x1="110.0" y1="193.0" x2="110.0" y2="226.0" stroke="#000" stroke-width="1.4"/>
<polygon points="110.0,233.0 106.8,226.0 113.2,226.0" fill="#000"/>
<line x1="360.0" y1="193.0" x2="360.0" y2="226.0" stroke="#000" stroke-width="1.4"/>
<polygon points="360.0,233.0 356.9,226.0 363.1,226.0" fill="#000"/>
<path d="M 235 262 L 259.9 251.7 A 27 27 0 0 0 210.1 251.7 Z" fill="#bdbdbd" stroke="#000" stroke-width="1.5"/>
<rect x="35.0" y="235.0" width="150.0" height="50.0" rx="7" fill="#fff" stroke="#000" stroke-width="1.4"/>
<text x="110.0" y="256.2" font-size="12" text-anchor="middle" font-weight="bold">おうぎ形の弧の長さ</text>
<text x="110.0" y="272.2" font-size="12" text-anchor="middle" font-weight="bold">3π cm</text>
<rect x="285.0" y="235.0" width="150.0" height="50.0" rx="7" fill="#fff" stroke="#000" stroke-width="1.4"/>
<text x="360.0" y="256.2" font-size="12" text-anchor="middle" font-weight="bold">おうぎ形の面積</text>
<text x="360.0" y="272.2" font-size="12" text-anchor="middle" font-weight="bold">6π cm²</text>
<text x="235.0" y="325.0" font-size="12" text-anchor="middle">どちらの列も構造は同じ——「円全体の値」×「取り分」</text>
</svg>
