<svg xmlns="http://www.w3.org/2000/svg" viewBox="0 0 430 300">
<title>接線は接点を通る半径に垂直</title>
<desc>【この図の意図】接線の性質図（対称性による説明つき）。円Oと接点A・接線ℓ。半径OAを太線、OAとℓの交点に直角マーク。直線OAを対称の軸として図全体が線対称であることを折り返し矢印で示す（円の外の点からの接線は描かない）。【主要な数値・設定】半径1.15・接点A=(r,0)・接線x=r（垂直・共有点1個・折り返し対称を数値検証）。【AIに同じ種類の図を描かせるときの説明文】「接線は接点を通る半径に垂直。接線の性質図（対称性による説明つき）。円Oと接点A・接線ℓ。半径OAを太線、OAとℓの交点に直角マーク。直線OAを対称の軸として図全体が線対称であることを折り返し矢印で示す（円の外の点からの接線は描かない）。数値・設定: 半径1.15・接点A=(r,0)・接線x=r（垂直・共有点1個・折り返し対称を数値検証）。白黒印刷向けのシンプルな教材図（SVG）としてかいて。」——この説明文を生成AIに渡せば同型の図を描かせられる。数値を変えれば類題用の図も作れる。</desc>
<!-- L11_fig2_tangent_perpendicular.svg | 接線は接点を通る半径に垂直 -->
<!-- generated by assets_provenance/generate_figures.py on 2026-07-18 (コード来歴方式・SVG直接編集禁止/スクリプト改修で再生成) -->
<rect x="0" y="0" width="430" height="300" fill="#fff"/>
<circle cx="180.0" cy="150.0" r="87.4" fill="none" stroke="#000" stroke-width="1.6"/>
<line x1="47.0" y1="150.0" x2="324.4" y2="150.0" stroke="#000" stroke-width="1.1" stroke-dasharray="6 4"/>
<line x1="180.0" y1="150.0" x2="267.4" y2="150.0" stroke="#000" stroke-width="3.2"/>
<line x1="267.4" y1="267.8" x2="267.4" y2="32.2" stroke="#000" stroke-width="2.2"/>
<polyline points="258.4,150.0 258.4,141.0 267.4,141.0" fill="none" stroke="#000" stroke-width="1.2"/>
<circle cx="180.0" cy="150.0" r="2.5" fill="#000"/>
<text x="175.4" y="172.8" font-size="13" text-anchor="middle" font-weight="bold">O</text>
<circle cx="267.4" cy="150.0" r="3.2" fill="#000"/>
<text x="252.2" y="139.4" font-size="13" text-anchor="middle" font-weight="bold">A</text>
<text x="282.6" y="44.3" font-size="13" text-anchor="middle" font-weight="bold">ℓ</text>
<text x="219.3" y="167.2" font-size="12" text-anchor="middle">半径</text>
<path d="M 100.2 112.0 Q 66.0 150.0 100.2 188.0" fill="none" stroke="#000" stroke-width="1.4"/>
<polygon points="100.2,112.0 98.2,118.3 94.2,114.7" fill="#000"/>
<polygon points="100.2,188.0 94.2,185.3 98.2,181.7" fill="#000"/>
<text x="56.9" y="129.5" font-size="11" text-anchor="middle">折る</text>
<text x="190.0" y="288.0" font-size="12" text-anchor="middle">破線（直線OA）で折ると、円もℓも自分自身にぴったり重なる</text>
</svg>
