<svg xmlns="http://www.w3.org/2000/svg" viewBox="0 0 480 400">
<title>単元全体の道具マップ（依存関係図）</title>
<desc>【この図の意図】単元の学習内容の積み上がりを示すブロック図。最下段=「対称性・等距離・ぴったり重なる（合同）」の土台、その上に移動3種・垂直二等分線、さらに角の二等分線・垂線、最上段に接線の作図・おうぎ形の計量（おうぎ形は円の計量と比例の2本柱の上）。矢印で帰着の向きを示す（レッスン番号は載せない）。【主要な数値・設定】ブロック9個・帰着の矢印7本（矢印の向き・ブロックの重なりなしをコード検証）。【AIに同じ種類の図を描かせるときの説明文】「単元全体の道具マップ（依存関係図）。単元の学習内容の積み上がりを示すブロック図。最下段=「対称性・等距離・ぴったり重なる（合同）」の土台、その上に移動3種・垂直二等分線、さらに角の二等分線・垂線、最上段に接線の作図・おうぎ形の計量（おうぎ形は円の計量と比例の2本柱の上）。矢印で帰着の向きを示す（レッスン番号は載せない）。数値・設定: ブロック9個・帰着の矢印7本（矢印の向き・ブロックの重なりなしをコード検証）。白黒印刷向けのシンプルな教材図（SVG）としてかいて。」——この説明文を生成AIに渡せば同型の図を描かせられる。数値を変えれば類題用の図も作れる。</desc>
<!-- L12_fig1_tool_map.svg | 単元全体の道具マップ（依存関係図） -->
<!-- generated by assets_provenance/generate_figures.py on 2026-07-18 (コード来歴方式・SVG直接編集禁止/スクリプト改修で再生成) -->
<rect x="0" y="0" width="480" height="400" fill="#fff"/>
<text x="240.0" y="28.0" font-size="15" text-anchor="middle" font-weight="bold">この単元の道具マップ</text>
<text x="240.0" y="48.0" font-size="11" text-anchor="middle">矢印＝「帰着」（上の道具は、下の道具でできている）</text>
<line x1="135.0" y1="285.0" x2="135.0" y2="306.0" stroke="#000" stroke-width="1.4"/>
<polygon points="135.0,313.0 131.8,306.0 138.2,306.0" fill="#000"/>
<line x1="305.0" y1="285.0" x2="305.0" y2="306.0" stroke="#000" stroke-width="1.4"/>
<polygon points="305.0,313.0 301.9,306.0 308.1,306.0" fill="#000"/>
<line x1="105.0" y1="210.0" x2="235.2" y2="241.4" stroke="#000" stroke-width="1.4"/>
<polygon points="242.0,243.0 234.5,244.4 235.9,238.3" fill="#000"/>
<line x1="242.5" y1="210.0" x2="242.5" y2="236.0" stroke="#000" stroke-width="1.4"/>
<polygon points="242.5,243.0 239.3,236.0 245.7,236.0" fill="#000"/>
<line x1="195.0" y1="130.0" x2="196.6" y2="161.0" stroke="#000" stroke-width="1.4"/>
<polygon points="197.0,168.0 193.5,161.2 199.8,160.8" fill="#000"/>
<line x1="372.5" y1="130.0" x2="372.5" y2="161.0" stroke="#000" stroke-width="1.4"/>
<polygon points="372.5,168.0 369.4,161.0 375.6,161.0" fill="#000"/>
<line x1="372.5" y1="130.0" x2="407.0" y2="163.1" stroke="#000" stroke-width="1.4"/>
<polygon points="412.0,168.0 404.8,165.4 409.1,160.9" fill="#000"/>
<rect x="60.0" y="315.0" width="360.0" height="40.0" rx="7" fill="#e6e6e6" stroke="#000" stroke-width="1.4"/>
<text x="240.0" y="338.9" font-size="11" text-anchor="middle" font-weight="bold">対称性・等距離・ぴったり重なる（合同）</text>
<rect x="60.0" y="245.0" width="150.0" height="40.0" rx="7" fill="#fff" stroke="#000" stroke-width="1.4"/>
<text x="135.0" y="261.4" font-size="11" text-anchor="middle">移動3種</text>
<text x="135.0" y="276.4" font-size="11" text-anchor="middle">（ずらす・裏返す・まわす）</text>
<rect x="230.0" y="245.0" width="150.0" height="40.0" rx="7" fill="#fff" stroke="#000" stroke-width="1.4"/>
<text x="305.0" y="268.9" font-size="11" text-anchor="middle">垂直二等分線の作図</text>
<rect x="40.0" y="170.0" width="130.0" height="40.0" rx="7" fill="#fff" stroke="#000" stroke-width="1.4"/>
<text x="105.0" y="193.8" font-size="11" text-anchor="middle">角の二等分線の作図</text>
<rect x="185.0" y="170.0" width="115.0" height="40.0" rx="7" fill="#fff" stroke="#000" stroke-width="1.4"/>
<text x="242.5" y="193.8" font-size="11" text-anchor="middle">垂線の作図</text>
<rect x="315.0" y="170.0" width="75.0" height="40.0" rx="7" fill="#fff" stroke="#000" stroke-width="1.4"/>
<text x="352.5" y="193.8" font-size="11" text-anchor="middle">円の計量</text>
<rect x="400.0" y="170.0" width="60.0" height="40.0" rx="7" fill="#fff" stroke="#000" stroke-width="1.4"/>
<text x="430.0" y="193.8" font-size="11" text-anchor="middle">比例</text>
<rect x="130.0" y="90.0" width="130.0" height="40.0" rx="7" fill="#fff" stroke="#000" stroke-width="1.4"/>
<text x="195.0" y="113.8" font-size="11" text-anchor="middle">接線の作図</text>
<rect x="300.0" y="90.0" width="145.0" height="40.0" rx="7" fill="#fff" stroke="#000" stroke-width="1.4"/>
<text x="372.5" y="113.8" font-size="11" text-anchor="middle">おうぎ形の計量</text>
<text x="240.0" y="388.0" font-size="12" text-anchor="middle">新しい道具のほとんどが、前の道具への「帰着」で作られている</text>
</svg>
