<svg xmlns="http://www.w3.org/2000/svg" viewBox="0 0 560 262">
<title>代入して確かめる表（x＋3＝5・○が付くのはx＝2だけ）</title>
<desc>【この図の意図】主概念2「解＝条件を満たす値」の活動の可視化。○×判定の3段構造。【主要な数値・設定】x＋3＝5・xは−3〜3（両端に…）・左辺の値0〜6・○はx＝2のみ。【AIに同じ種類の図を描かせるときの説明文】「代入して確かめる表（x＋3＝5・○が付くのはx＝2だけ）。主概念2「解＝条件を満たす値」の活動の可視化。○×判定の3段構造。数値・設定: x＋3＝5・xは−3〜3（両端に…）・左辺の値0〜6・○はx＝2のみ。白黒印刷向けのシンプルな教材図（SVG）としてかいて。」——この説明文を生成AIに渡せば同型の図を描かせられる。数値を変えれば類題用の図も作れる。</desc>
<!-- L01_fig1_substitute_and_check_table.svg | 代入して確かめる表（x＋3＝5・○が付くのはx＝2だけ） -->
<!-- generated by assets_provenance/generate_figures.py on 2026-07-18 (コード来歴方式・SVG直接編集禁止/スクリプト改修で再生成) -->
<rect x="0" y="0" width="560" height="262" fill="#fff"/>
<text x="280.0" y="26.0" font-size="13" text-anchor="middle" font-weight="bold">方程式 x＋3＝5 に、xの値を順に代入してみる</text>
<rect x="28.0" y="44.0" width="100.0" height="28.0" fill="#eee" stroke="#000" stroke-width="1.1"/>
<text x="78.0" y="61.9" font-size="11" text-anchor="middle">① xの値</text>
<rect x="128.0" y="44.0" width="42.0" height="28.0" fill="#fff" stroke="#000" stroke-width="1.1"/>
<text x="149.0" y="62.5" font-size="13" text-anchor="middle">…</text>
<rect x="170.0" y="44.0" width="42.0" height="28.0" fill="#fff" stroke="#000" stroke-width="1.1"/>
<text x="191.0" y="62.5" font-size="13" text-anchor="middle">-3</text>
<rect x="212.0" y="44.0" width="42.0" height="28.0" fill="#fff" stroke="#000" stroke-width="1.1"/>
<text x="233.0" y="62.5" font-size="13" text-anchor="middle">-2</text>
<rect x="254.0" y="44.0" width="42.0" height="28.0" fill="#fff" stroke="#000" stroke-width="1.1"/>
<text x="275.0" y="62.5" font-size="13" text-anchor="middle">-1</text>
<rect x="296.0" y="44.0" width="42.0" height="28.0" fill="#fff" stroke="#000" stroke-width="1.1"/>
<text x="317.0" y="62.5" font-size="13" text-anchor="middle">0</text>
<rect x="338.0" y="44.0" width="42.0" height="28.0" fill="#fff" stroke="#000" stroke-width="1.1"/>
<text x="359.0" y="62.5" font-size="13" text-anchor="middle">1</text>
<rect x="380.0" y="44.0" width="42.0" height="28.0" fill="#fff" stroke="#000" stroke-width="1.1"/>
<text x="401.0" y="62.5" font-size="13" text-anchor="middle">2</text>
<rect x="422.0" y="44.0" width="42.0" height="28.0" fill="#fff" stroke="#000" stroke-width="1.1"/>
<text x="443.0" y="62.5" font-size="13" text-anchor="middle">3</text>
<rect x="464.0" y="44.0" width="42.0" height="28.0" fill="#fff" stroke="#000" stroke-width="1.1"/>
<text x="485.0" y="62.5" font-size="13" text-anchor="middle">…</text>
<rect x="28.0" y="72.0" width="100.0" height="28.0" fill="#eee" stroke="#000" stroke-width="1.1"/>
<text x="78.0" y="89.8" font-size="11" text-anchor="middle">② x＋3の値</text>
<rect x="128.0" y="72.0" width="42.0" height="28.0" fill="#fff" stroke="#000" stroke-width="1.1"/>
<text x="149.0" y="90.5" font-size="13" text-anchor="middle">…</text>
<rect x="170.0" y="72.0" width="42.0" height="28.0" fill="#fff" stroke="#000" stroke-width="1.1"/>
<text x="191.0" y="90.5" font-size="13" text-anchor="middle">0</text>
<rect x="212.0" y="72.0" width="42.0" height="28.0" fill="#fff" stroke="#000" stroke-width="1.1"/>
<text x="233.0" y="90.5" font-size="13" text-anchor="middle">1</text>
<rect x="254.0" y="72.0" width="42.0" height="28.0" fill="#fff" stroke="#000" stroke-width="1.1"/>
<text x="275.0" y="90.5" font-size="13" text-anchor="middle">2</text>
<rect x="296.0" y="72.0" width="42.0" height="28.0" fill="#fff" stroke="#000" stroke-width="1.1"/>
<text x="317.0" y="90.5" font-size="13" text-anchor="middle">3</text>
<rect x="338.0" y="72.0" width="42.0" height="28.0" fill="#fff" stroke="#000" stroke-width="1.1"/>
<text x="359.0" y="90.5" font-size="13" text-anchor="middle">4</text>
<rect x="380.0" y="72.0" width="42.0" height="28.0" fill="#fff" stroke="#000" stroke-width="1.1"/>
<text x="401.0" y="90.5" font-size="13" text-anchor="middle">5</text>
<rect x="422.0" y="72.0" width="42.0" height="28.0" fill="#fff" stroke="#000" stroke-width="1.1"/>
<text x="443.0" y="90.5" font-size="13" text-anchor="middle">6</text>
<rect x="464.0" y="72.0" width="42.0" height="28.0" fill="#fff" stroke="#000" stroke-width="1.1"/>
<text x="485.0" y="90.5" font-size="13" text-anchor="middle">…</text>
<rect x="28.0" y="100.0" width="100.0" height="28.0" fill="#eee" stroke="#000" stroke-width="1.1"/>
<text x="78.0" y="117.8" font-size="11" text-anchor="middle">③ 5と等しい？</text>
<rect x="128.0" y="100.0" width="42.0" height="28.0" fill="#fff" stroke="#000" stroke-width="1.1"/>
<text x="149.0" y="118.5" font-size="13" text-anchor="middle">×</text>
<rect x="170.0" y="100.0" width="42.0" height="28.0" fill="#fff" stroke="#000" stroke-width="1.1"/>
<text x="191.0" y="118.5" font-size="13" text-anchor="middle">×</text>
<rect x="212.0" y="100.0" width="42.0" height="28.0" fill="#fff" stroke="#000" stroke-width="1.1"/>
<text x="233.0" y="118.5" font-size="13" text-anchor="middle">×</text>
<rect x="254.0" y="100.0" width="42.0" height="28.0" fill="#fff" stroke="#000" stroke-width="1.1"/>
<text x="275.0" y="118.5" font-size="13" text-anchor="middle">×</text>
<rect x="296.0" y="100.0" width="42.0" height="28.0" fill="#fff" stroke="#000" stroke-width="1.1"/>
<text x="317.0" y="118.5" font-size="13" text-anchor="middle">×</text>
<rect x="338.0" y="100.0" width="42.0" height="28.0" fill="#fff" stroke="#000" stroke-width="1.1"/>
<text x="359.0" y="118.5" font-size="13" text-anchor="middle">×</text>
<rect x="380.0" y="100.0" width="42.0" height="28.0" fill="#fff" stroke="#000" stroke-width="1.1"/>
<text x="401.0" y="118.5" font-size="13" text-anchor="middle" font-weight="bold">○</text>
<rect x="422.0" y="100.0" width="42.0" height="28.0" fill="#fff" stroke="#000" stroke-width="1.1"/>
<text x="443.0" y="118.5" font-size="13" text-anchor="middle">×</text>
<rect x="464.0" y="100.0" width="42.0" height="28.0" fill="#fff" stroke="#000" stroke-width="1.1"/>
<text x="485.0" y="118.5" font-size="13" text-anchor="middle">×</text>
<rect x="380.0" y="44.0" width="42.0" height="84.0" fill="none" stroke="#000" stroke-width="2.2399999999999998"/>
<line x1="401.0" y1="162.0" x2="401.0" y2="141.0" stroke="#000" stroke-width="1.4"/>
<polygon points="401.0,134.0 404.1,141.0 397.9,141.0" fill="#000"/>
<text x="401.0" y="178.0" font-size="13" text-anchor="middle" font-weight="bold">条件をくぐり抜けた値＝解（x＝2）</text>
<text x="280.0" y="214.0" font-size="12" text-anchor="middle">「…」の部分でも左辺は1ずつ増え続けるので、5に等しくなることはもうない</text>
<text x="280.0" y="232.0" font-size="12" text-anchor="middle">①入力→②左辺の値→③判定 の3段で、1つずつ条件に照らしている</text>
</svg>
