<svg xmlns="http://www.w3.org/2000/svg" viewBox="0 0 500 262">
<title>天びんの2コマ（x＋2＝7 → 両皿から2個ずつ → x＝5）</title>
<desc>【この図の意図】主概念2「等式の性質」の操作イメージの中心図。【主要な数値・設定】左皿=袋x＋おもり2個・右皿=おもり7個→2個ずつ除去→x＝5（本文明示）。【AIに同じ種類の図を描かせるときの説明文】「天びんの2コマ（x＋2＝7 → 両皿から2個ずつ → x＝5）。主概念2「等式の性質」の操作イメージの中心図。数値・設定: 左皿=袋x＋おもり2個・右皿=おもり7個→2個ずつ除去→x＝5（本文明示）。白黒印刷向けのシンプルな教材図（SVG）としてかいて。」——この説明文を生成AIに渡せば同型の図を描かせられる。数値を変えれば類題用の図も作れる。</desc>
<!-- L02_fig1_balance_remove_two.svg | 天びんの2コマ（x＋2＝7 → 両皿から2個ずつ → x＝5） -->
<!-- generated by assets_provenance/generate_figures.py on 2026-07-18 (コード来歴方式・SVG直接編集禁止/スクリプト改修で再生成) -->
<rect x="0" y="0" width="500" height="262" fill="#fff"/>
<polygon points="118.0,112.0 105.0,168.0 131.0,168.0" fill="#ccc" stroke="#000" stroke-width="1.6"/>
<line x1="46.0" y1="112.0" x2="190.0" y2="112.0" stroke="#000" stroke-width="2.2399999999999998"/>
<line x1="46.0" y1="112.0" x2="46.0" y2="124.0" stroke="#000" stroke-width="1.1"/>
<rect x="15.0" y="124.0" width="62.0" height="24.0" rx="3" fill="#fff" stroke="#000" stroke-width="1.6"/>
<text x="46.0" y="140.0" font-size="11.5" text-anchor="middle" font-weight="bold">袋 x個</text>
<rect x="15.0" y="151.0" width="62.0" height="24.0" rx="3" fill="#fff" stroke="#000" stroke-width="1.6"/>
<text x="46.0" y="167.0" font-size="11.5" text-anchor="middle" font-weight="bold">おもり2個</text>
<line x1="190.0" y1="112.0" x2="190.0" y2="124.0" stroke="#000" stroke-width="1.1"/>
<rect x="159.0" y="124.0" width="62.0" height="24.0" rx="3" fill="#fff" stroke="#000" stroke-width="1.6"/>
<text x="190.0" y="140.0" font-size="11.5" text-anchor="middle" font-weight="bold">おもり7個</text>
<text x="118.0" y="192.0" font-size="15" text-anchor="middle" font-weight="bold">x＋2＝7</text>
<text x="248.0" y="44.0" font-size="11" text-anchor="middle">両皿から</text>
<text x="248.0" y="58.0" font-size="11" text-anchor="middle">おもりを2個ずつ</text>
<text x="248.0" y="72.0" font-size="11" text-anchor="middle">取り除く（性質②）</text>
<line x1="222.0" y1="86.0" x2="266.0" y2="86.0" stroke="#000" stroke-width="1.6"/>
<polygon points="274.0,86.0 266.0,89.6 266.0,82.4" fill="#000"/>
<polygon points="382.0,112.0 369.0,168.0 395.0,168.0" fill="#ccc" stroke="#000" stroke-width="1.6"/>
<line x1="310.0" y1="112.0" x2="454.0" y2="112.0" stroke="#000" stroke-width="2.2399999999999998"/>
<line x1="310.0" y1="112.0" x2="310.0" y2="124.0" stroke="#000" stroke-width="1.1"/>
<rect x="279.0" y="124.0" width="62.0" height="24.0" rx="3" fill="#fff" stroke="#000" stroke-width="1.6"/>
<text x="310.0" y="140.0" font-size="11.5" text-anchor="middle" font-weight="bold">袋 x個</text>
<line x1="454.0" y1="112.0" x2="454.0" y2="124.0" stroke="#000" stroke-width="1.1"/>
<rect x="423.0" y="124.0" width="62.0" height="24.0" rx="3" fill="#fff" stroke="#000" stroke-width="1.6"/>
<text x="454.0" y="140.0" font-size="11.5" text-anchor="middle" font-weight="bold">おもり5個</text>
<text x="382.0" y="192.0" font-size="15" text-anchor="middle" font-weight="bold">x＝5</text>
<text x="250.0" y="224.0" font-size="12" text-anchor="middle" font-weight="bold">左右から同じだけ取るのだから、天びんはつり合ったまま</text>
<text x="250.0" y="246.0" font-size="12" text-anchor="middle">——両辺から同じ数を引いても、等しさは崩れない</text>
</svg>
