<svg xmlns="http://www.w3.org/2000/svg" viewBox="0 0 500 268">
<title>フル手順と移項の対比（x＋6＝13 → x＝13−6）</title>
<desc>【この図の意図】移項＝性質②の省略記法であることの対比図。2列は＝で結ばない。【主要な数値・設定】x＋6＝13・両辺−6・x＝13−6（本文並記と同一範囲）／解7はassertのみ。【AIに同じ種類の図を描かせるときの説明文】「フル手順と移項の対比（x＋6＝13 → x＝13−6）。移項＝性質②の省略記法であることの対比図。2列は＝で結ばない。数値・設定: x＋6＝13・両辺−6・x＝13−6（本文並記と同一範囲）／解7はassertのみ。白黒印刷向けのシンプルな教材図（SVG）としてかいて。」——この説明文を生成AIに渡せば同型の図を描かせられる。数値を変えれば類題用の図も作れる。</desc>
<!-- L03_fig1_full_steps_vs_transposition.svg | フル手順と移項の対比（x＋6＝13 → x＝13−6） -->
<!-- generated by assets_provenance/generate_figures.py on 2026-07-18 (コード来歴方式・SVG直接編集禁止/スクリプト改修で再生成) -->
<rect x="0" y="0" width="500" height="268" fill="#fff"/>
<rect x="28.0" y="24.0" width="200.0" height="30.0" rx="4" fill="#eee" stroke="#000" stroke-width="1.6"/>
<text x="128.0" y="43.0" font-size="11.5" text-anchor="middle" font-weight="bold">長い書き方（性質②のフルコース）</text>
<text x="128.0" y="84.0" font-size="16" text-anchor="middle">x＋6＝13</text>
<text x="128.0" y="118.0" font-size="16" text-anchor="middle">x＋6−6＝13−6</text>
<text x="128.0" y="152.0" font-size="16" text-anchor="middle" font-weight="bold">x＝13−6</text>
<text x="232.0" y="104.0" font-size="10" text-anchor="end">両辺から6を引く（性質②）</text>
<text x="232.0" y="136.0" font-size="10" text-anchor="end">−6＋6＝0 で左辺が消える</text>
<rect x="292.0" y="24.0" width="180.0" height="30.0" rx="4" fill="#eee" stroke="#000" stroke-width="1.6"/>
<text x="382.0" y="43.0" font-size="11.5" text-anchor="middle" font-weight="bold">短い書き方（移項）</text>
<text x="382.0" y="84.0" font-size="16" text-anchor="middle">x＋6＝13</text>
<text x="382.0" y="152.0" font-size="16" text-anchor="middle" font-weight="bold">x＝13−6</text>
<polyline points="396.0,92 426.0,112 412.0,136" fill="none" stroke="#000" stroke-width="1.4" stroke-dasharray="6 4"/>
<line x1="412.0" y1="136.0" x2="409.6" y2="137.8" stroke="#000" stroke-width="1.4" stroke-dasharray="6 4"/>
<polygon points="404.0,142.0 407.7,135.3 411.5,140.3" fill="#000"/>
<text x="494.0" y="112.0" font-size="10" text-anchor="end">符号を変えて</text>
<text x="496.0" y="125.0" font-size="10" text-anchor="end">反対側の辺へ</text>
<rect x="206.0" y="180.0" width="128.0" height="40.0" rx="4" fill="#fff" stroke="#000" stroke-width="1.1" stroke-dasharray="6 4"/>
<text x="270.0" y="196.6" font-size="10.5" text-anchor="middle">同じ変形の</text>
<text x="270.0" y="210.8" font-size="10.5" text-anchor="middle">長い書き方と短い書き方</text>
<line x1="128" y1="170" x2="216" y2="196" stroke="#000" stroke-width="1.1" stroke-dasharray="6 4"/>
<line x1="334" y1="196" x2="382" y2="164" stroke="#000" stroke-width="1.1" stroke-dasharray="6 4"/>
<text x="250.0" y="244.0" font-size="12" text-anchor="middle">移項は瞬間移動ではなく、「両辺から同じ数を引いた」途中を省いた書き方</text>
</svg>
