<svg xmlns="http://www.w3.org/2000/svg" viewBox="0 0 480 344">
<title>解く手順の全体地図（移項→整理→係数でわる→検算）</title>
<desc>【この図の意図】主概念1の基本手順4ステップのフローチャート。検算を実線で本流に含める。【主要な数値・設定】例1の 5x−7＝2x＋8→5x−2x＝8＋7→3x＝15→x＝5（本文明示）・検算両辺18。【AIに同じ種類の図を描かせるときの説明文】「解く手順の全体地図（移項→整理→係数でわる→検算）。主概念1の基本手順4ステップのフローチャート。検算を実線で本流に含める。数値・設定: 例1の 5x−7＝2x＋8→5x−2x＝8＋7→3x＝15→x＝5（本文明示）・検算両辺18。白黒印刷向けのシンプルな教材図（SVG）としてかいて。」——この説明文を生成AIに渡せば同型の図を描かせられる。数値を変えれば類題用の図も作れる。</desc>
<!-- L04_fig1_solving_procedure_flowchart.svg | 解く手順の全体地図（移項→整理→係数でわる→検算） -->
<!-- generated by assets_provenance/generate_figures.py on 2026-07-18 (コード来歴方式・SVG直接編集禁止/スクリプト改修で再生成) -->
<rect x="0" y="0" width="480" height="344" fill="#fff"/>
<rect x="60.0" y="24.0" width="190.0" height="36.0" rx="4" fill="#fff" stroke="#000" stroke-width="1.6"/>
<text x="155.0" y="46.9" font-size="14" text-anchor="middle">5x−7＝2x＋8</text>
<rect x="60.0" y="86.0" width="190.0" height="36.0" rx="4" fill="#fff" stroke="#000" stroke-width="1.6"/>
<text x="155.0" y="108.9" font-size="14" text-anchor="middle">5x−2x＝8＋7</text>
<line x1="155.0" y1="82.0" x2="155.0" y2="77.0" stroke="#000" stroke-width="1.6"/>
<polygon points="155.0,84.0 151.8,77.0 158.2,77.0" fill="#000"/>
<text x="266.0" y="101.0" font-size="11" text-anchor="start" font-weight="bold">手順1</text>
<text x="266.0" y="115.0" font-size="10.5" text-anchor="start">移項（性質①②の省略）</text>
<rect x="60.0" y="148.0" width="190.0" height="36.0" rx="4" fill="#fff" stroke="#000" stroke-width="1.6"/>
<text x="155.0" y="170.9" font-size="14" text-anchor="middle">3x＝15</text>
<line x1="155.0" y1="144.0" x2="155.0" y2="139.0" stroke="#000" stroke-width="1.6"/>
<polygon points="155.0,146.0 151.8,139.0 158.2,139.0" fill="#000"/>
<text x="266.0" y="163.0" font-size="11" text-anchor="start" font-weight="bold">手順2</text>
<text x="266.0" y="177.0" font-size="10.5" text-anchor="start">整理してＡx＝Ｂの形に</text>
<rect x="60.0" y="210.0" width="190.0" height="36.0" rx="4" fill="#fff" stroke="#000" stroke-width="1.6"/>
<text x="155.0" y="232.9" font-size="14" text-anchor="middle" font-weight="bold">x＝5</text>
<line x1="155.0" y1="206.0" x2="155.0" y2="201.0" stroke="#000" stroke-width="1.6"/>
<polygon points="155.0,208.0 151.8,201.0 158.2,201.0" fill="#000"/>
<text x="266.0" y="225.0" font-size="11" text-anchor="start" font-weight="bold">手順3</text>
<text x="266.0" y="239.0" font-size="10.5" text-anchor="start">両辺を係数3でわる（性質④）</text>
<rect x="60.0" y="272.0" width="250.0" height="36.0" rx="4" fill="#fff" stroke="#000" stroke-width="1.6"/>
<text x="185.0" y="294.9" font-size="14" text-anchor="middle">検算: 両辺とも18で成り立つ</text>
<line x1="155.0" y1="268.0" x2="155.0" y2="263.0" stroke="#000" stroke-width="1.6"/>
<polygon points="155.0,270.0 151.8,263.0 158.2,263.0" fill="#000"/>
<text x="326.0" y="287.0" font-size="11" text-anchor="start" font-weight="bold">手順4</text>
<text x="326.0" y="301.0" font-size="10.5" text-anchor="start">解を代入して検算</text>
<text x="240.0" y="332.0" font-size="12" text-anchor="middle">検算は点線の寄り道ではなく実線の本流——ここまでやって「解けた」と言える</text>
</svg>
