<svg xmlns="http://www.w3.org/2000/svg" viewBox="0 0 500 332">
<title>前処理→基本手順→検算の手順マップ（かっこ・小数・分数の3分岐）</title>
<desc>【この図の意図】前処理1〜3が基本手順に合流する全体地図。各例の解は書かない。【主要な数値・設定】例1〜例3の式は本文と同一／各解7・9・7はassertでのみ検算。【AIに同じ種類の図を描かせるときの説明文】「前処理→基本手順→検算の手順マップ（かっこ・小数・分数の3分岐）。前処理1〜3が基本手順に合流する全体地図。各例の解は書かない。数値・設定: 例1〜例3の式は本文と同一／各解7・9・7はassertでのみ検算。白黒印刷向けのシンプルな教材図（SVG）としてかいて。」——この説明文を生成AIに渡せば同型の図を描かせられる。数値を変えれば類題用の図も作れる。</desc>
<!-- L05_fig1_preprocess_flow_map.svg | 前処理→基本手順→検算の手順マップ（かっこ・小数・分数の3分岐） -->
<!-- generated by assets_provenance/generate_figures.py on 2026-07-18 (コード来歴方式・SVG直接編集禁止/スクリプト改修で再生成) -->
<rect x="0" y="0" width="500" height="332" fill="#fff"/>
<rect x="12.0" y="18.0" width="146.0" height="58.0" rx="4" fill="#fff" stroke="#000" stroke-width="1.6"/>
<text x="85.0" y="43.6" font-size="10.5" text-anchor="middle" font-weight="bold">かっこ</text>
<text x="85.0" y="57.8" font-size="10.5" text-anchor="middle">2(x−3)＝x＋1</text>
<text x="85.0" y="96.0" font-size="10.5" text-anchor="middle" font-weight="bold">分配法則で外す</text>
<rect x="178.0" y="18.0" width="146.0" height="58.0" rx="4" fill="#fff" stroke="#000" stroke-width="1.6"/>
<text x="251.0" y="43.6" font-size="10.5" text-anchor="middle" font-weight="bold">小数</text>
<text x="251.0" y="57.8" font-size="10.5" text-anchor="middle">0.3x＋0.5＝0.2x＋1.4</text>
<text x="251.0" y="96.0" font-size="10.5" text-anchor="middle" font-weight="bold">両辺×10・×100</text>
<rect x="344.0" y="18.0" width="146.0" height="58.0" rx="4" fill="#fff" stroke="#000" stroke-width="1.6"/>
<text x="417.0" y="43.6" font-size="10.5" text-anchor="middle" font-weight="bold">分数</text>
<text x="417.0" y="57.8" font-size="10.5" text-anchor="middle">(x＋2)/3＝(x−1)/2</text>
<text x="417.0" y="96.0" font-size="10.5" text-anchor="middle" font-weight="bold">両辺×分母の公倍数</text>
<rect x="150.0" y="148.0" width="200.0" height="52.0" rx="4" fill="#fff" stroke="#000" stroke-width="1.92"/>
<text x="250.0" y="169.8" font-size="13" text-anchor="middle" font-weight="bold">基本手順（L04）</text>
<text x="250.0" y="187.3" font-size="13" text-anchor="middle">Ａx＝Ｂ → x＝（数）</text>
<line x1="85.0" y1="104.0" x2="193.6" y2="141.7" stroke="#000" stroke-width="1.4"/>
<polygon points="200.2,144.0 192.6,144.7 194.6,138.7" fill="#000"/>
<line x1="251.0" y1="104.0" x2="250.2" y2="137.0" stroke="#000" stroke-width="1.4"/>
<polygon points="250.0,144.0 247.0,136.9 253.3,137.1" fill="#000"/>
<line x1="417.0" y1="104.0" x2="306.4" y2="141.7" stroke="#000" stroke-width="1.4"/>
<polygon points="299.8,144.0 305.4,138.8 307.4,144.7" fill="#000"/>
<line x1="250.0" y1="204.0" x2="250.0" y2="230.0" stroke="#000" stroke-width="1.6"/>
<polygon points="250.0,238.0 246.4,230.0 253.6,230.0" fill="#000"/>
<rect x="164.0" y="242.0" width="172.0" height="36.0" rx="4" fill="#fff" stroke="#000" stroke-width="1.6"/>
<text x="250.0" y="264.4" font-size="12.5" text-anchor="middle" font-weight="bold">解を代入して検算</text>
<text x="250.0" y="302.0" font-size="12" text-anchor="middle">小数・分数の前処理の根拠は等式の性質③（両辺に同じ数をかける——全部の項に）。</text>
<text x="250.0" y="320.0" font-size="12" text-anchor="middle">かっこ外しだけは両辺への操作ではなく、分配法則による各辺の式の計算</text>
</svg>
