<svg xmlns="http://www.w3.org/2000/svg" viewBox="0 0 520 260">
<title>比例式の翻訳図（x：12＝3：4 →比の値の橋→ x/12＝3/4 → x＝9）</title>
<desc>【この図の意図】比例式→一次方程式への帰着の3段変換。検算は戻り矢印で明示。【主要な数値・設定】x：12＝3：4・x/12＝3/4・x＝9（本文明示）／比の値一致はassert検算。【AIに同じ種類の図を描かせるときの説明文】「比例式の翻訳図（x：12＝3：4 →比の値の橋→ x/12＝3/4 → x＝9）。比例式→一次方程式への帰着の3段変換。検算は戻り矢印で明示。数値・設定: x：12＝3：4・x/12＝3/4・x＝9（本文明示）／比の値一致はassert検算。白黒印刷向けのシンプルな教材図（SVG）としてかいて。」——この説明文を生成AIに渡せば同型の図を描かせられる。数値を変えれば類題用の図も作れる。</desc>
<!-- L06_fig1_proportion_translation_bridge.svg | 比例式の翻訳図（x：12＝3：4 →比の値の橋→ x/12＝3/4 → x＝9） -->
<!-- generated by assets_provenance/generate_figures.py on 2026-07-18 (コード来歴方式・SVG直接編集禁止/スクリプト改修で再生成) -->
<rect x="0" y="0" width="520" height="260" fill="#fff"/>
<rect x="24.0" y="40.0" width="150.0" height="66.0" rx="4" fill="#fff" stroke="#000" stroke-width="1.6"/>
<text x="99.0" y="68.9" font-size="12.5" text-anchor="middle" font-weight="bold">：の世界（比例式）</text>
<text x="99.0" y="85.8" font-size="12.5" text-anchor="middle">x：12＝3：4</text>
<line x1="176.0" y1="74.0" x2="308.0" y2="74.0" stroke="#000" stroke-width="1.6"/>
<polygon points="316.0,74.0 308.0,77.6 308.0,70.4" fill="#000"/>
<rect x="184.0" y="62.0" width="122.0" height="24.0" rx="10" fill="#eee" stroke="#000" stroke-width="1.6"/>
<text x="245.0" y="78.0" font-size="11.5" text-anchor="middle" font-weight="bold">橋＝比の値</text>
<text x="245.0" y="104.0" font-size="10" text-anchor="middle">「2つの比が等しい＝比の値が等しい」</text>
<rect x="322.0" y="28.0" width="176.0" height="44.0" rx="4" fill="#fff" stroke="#000" stroke-width="1.6"/>
<text x="410.0" y="45.9" font-size="12.5" text-anchor="middle" font-weight="bold">＝と分数の世界</text>
<text x="410.0" y="62.8" font-size="12.5" text-anchor="middle">x/12＝3/4</text>
<line x1="410.0" y1="74.0" x2="410.0" y2="89.0" stroke="#000" stroke-width="1.4"/>
<polygon points="410.0,96.0 406.9,89.0 413.1,89.0" fill="#000"/>
<text x="420.0" y="88.0" font-size="10" text-anchor="start">両辺×12（性質③）</text>
<rect x="352.0" y="100.0" width="116.0" height="34.0" rx="4" fill="#fff" stroke="#000" stroke-width="1.92"/>
<text x="410.0" y="121.9" font-size="14" text-anchor="middle" font-weight="bold">x＝9</text>
<polyline points="352,124 200,168 110,120" fill="none" stroke="#000" stroke-width="1.3" stroke-dasharray="6 4"/>
<line x1="110.0" y1="120.0" x2="106.4" y2="115.5" stroke="#000" stroke-width="1.3" stroke-dasharray="6 4"/>
<polygon points="102.0,110.0 108.8,113.5 103.9,117.4" fill="#000"/>
<text x="228.0" y="186.0" font-size="11" text-anchor="middle">検算: 9：12 の比の値は 9/12＝3/4——右の比 3：4 と一致</text>
<text x="260.0" y="226.0" font-size="12" text-anchor="middle">比例式に新しい解き方はいらない。比の値で等式に翻訳すれば、</text>
<text x="260.0" y="244.0" font-size="12" text-anchor="middle">いままでの一次方程式（分数の前処理つき）として解ける</text>
</svg>
