<svg xmlns="http://www.w3.org/2000/svg" viewBox="0 0 500 356">
<title>立式の5ステップ手順図（例2・150x＋90(10−x)＝1200）</title>
<desc>【この図の意図】立式の型の全体像。ステップ2を太枠で強調（この問題の心臓部）。【主要な数値・設定】150円×x個・90円×(10−x)個・1200円・x＝5（本文明示）。【AIに同じ種類の図を描かせるときの説明文】「立式の5ステップ手順図（例2・150x＋90(10−x)＝1200）。立式の型の全体像。ステップ2を太枠で強調（この問題の心臓部）。数値・設定: 150円×x個・90円×(10−x)個・1200円・x＝5（本文明示）。白黒印刷向けのシンプルな教材図（SVG）としてかいて。」——この説明文を生成AIに渡せば同型の図を描かせられる。数値を変えれば類題用の図も作れる。</desc>
<!-- L07_fig1_formulation_five_steps.svg | 立式の5ステップ手順図（例2・150x＋90(10−x)＝1200） -->
<!-- generated by assets_provenance/generate_figures.py on 2026-07-18 (コード来歴方式・SVG直接編集禁止/スクリプト改修で再生成) -->
<rect x="0" y="0" width="500" height="356" fill="#fff"/>
<rect x="92.0" y="16.0" width="316.0" height="44.0" rx="4" fill="#fff" stroke="#000" stroke-width="1.6"/>
<text x="250.0" y="34.5" font-size="10.8" text-anchor="middle" font-weight="bold">① xで表す</text>
<text x="250.0" y="49.1" font-size="10.8" text-anchor="middle">りんごをx個と宣言（みかんは 10−x 個）</text>
<line x1="250.0" y1="61.0" x2="250.0" y2="66.0" stroke="#000" stroke-width="1.6"/>
<polygon points="250.0,73.0 246.8,66.0 253.2,66.0" fill="#000"/>
<rect x="92.0" y="74.0" width="316.0" height="58.0" rx="4" fill="#fff" stroke="#000" stroke-width="2.4000000000000004"/>
<text x="250.0" y="92.2" font-size="10.8" text-anchor="middle" font-weight="bold">② 等しい2つの数量</text>
<text x="250.0" y="106.8" font-size="10.8" text-anchor="middle">「代金の合計」が二通りに表せる:</text>
<text x="250.0" y="121.4" font-size="10.8" text-anchor="middle">買い方から計算した金額 と 実際に払った金額</text>
<text x="418.0" y="101.0" font-size="10.5" text-anchor="start" font-weight="bold">この問題の</text>
<text x="418.0" y="115.0" font-size="10.5" text-anchor="start" font-weight="bold">心臓部</text>
<line x1="250.0" y1="133.0" x2="250.0" y2="138.0" stroke="#000" stroke-width="1.6"/>
<polygon points="250.0,145.0 246.8,138.0 253.2,138.0" fill="#000"/>
<rect x="92.0" y="146.0" width="316.0" height="44.0" rx="4" fill="#fff" stroke="#000" stroke-width="1.6"/>
<text x="250.0" y="164.5" font-size="10.8" text-anchor="middle" font-weight="bold">③ 左辺・右辺の意味</text>
<text x="250.0" y="179.1" font-size="10.8" text-anchor="middle">左辺＝買い方から計算した代金・右辺＝実際の代金</text>
<line x1="250.0" y1="191.0" x2="250.0" y2="196.0" stroke="#000" stroke-width="1.6"/>
<polygon points="250.0,203.0 246.8,196.0 253.2,196.0" fill="#000"/>
<rect x="92.0" y="204.0" width="316.0" height="44.0" rx="4" fill="#fff" stroke="#000" stroke-width="1.6"/>
<text x="250.0" y="222.5" font-size="10.8" text-anchor="middle" font-weight="bold">④ 方程式をつくって解く</text>
<text x="250.0" y="237.1" font-size="10.8" text-anchor="middle">150x＋90(10−x)＝1200</text>
<line x1="250.0" y1="249.0" x2="250.0" y2="254.0" stroke="#000" stroke-width="1.6"/>
<polygon points="250.0,261.0 246.8,254.0 253.2,254.0" fill="#000"/>
<rect x="92.0" y="262.0" width="316.0" height="44.0" rx="4" fill="#fff" stroke="#000" stroke-width="1.6"/>
<text x="250.0" y="280.5" font-size="10.8" text-anchor="middle" font-weight="bold">⑤ 場面に戻す</text>
<text x="250.0" y="295.1" font-size="10.8" text-anchor="middle">x＝5 → 単位を付けて問いに答える（検算・吟味も）</text>
<text x="250.0" y="340.0" font-size="11" text-anchor="middle">急所はステップ②——方程式を1本つくるとは、場面にひそむ「等しい関係」を見つけること</text>
</svg>
