<svg xmlns="http://www.w3.org/2000/svg" viewBox="0 0 540 288">
<title>過不足の線分図（同じ総数の二通りの表し方 4x＋18 と 7x−12）</title>
<desc>【この図の意図】型1「総数を二通りに表す」の可視化。ラベルは一般形のみで解は書かない。【主要な数値・設定】4個ずつ余り18・7個ずつ不足12／区切りは解の実測比（値は非記載）。【AIに同じ種類の図を描かせるときの説明文】「過不足の線分図（同じ総数の二通りの表し方 4x＋18 と 7x−12）。型1「総数を二通りに表す」の可視化。ラベルは一般形のみで解は書かない。数値・設定: 4個ずつ余り18・7個ずつ不足12／区切りは解の実測比（値は非記載）。白黒印刷向けのシンプルな教材図（SVG）としてかいて。」——この説明文を生成AIに渡せば同型の図を描かせられる。数値を変えれば類題用の図も作れる。</desc>
<!-- L08_fig1_surplus_shortage_segments.svg | 過不足の線分図（同じ総数の二通りの表し方 4x＋18 と 7x−12） -->
<!-- generated by assets_provenance/generate_figures.py on 2026-07-18 (コード来歴方式・SVG直接編集禁止/スクリプト改修で再生成) -->
<rect x="0" y="0" width="540" height="288" fill="#fff"/>
<text x="219.5" y="34.0" font-size="13" text-anchor="middle" font-weight="bold">あめの総数（どちらの配り方でも変わらない）</text>
<line x1="60.0" y1="46" x2="60.0" y2="198.0" stroke="#000" stroke-width="1.1" stroke-dasharray="6 4"/>
<line x1="379.0" y1="46" x2="379.0" y2="198.0" stroke="#000" stroke-width="1.1" stroke-dasharray="6 4"/>
<line x1="60.0" y1="96" x2="280.0" y2="96" stroke="#000" stroke-width="2.2399999999999998"/>
<line x1="280.0" y1="96" x2="379.0" y2="96" stroke="#000" stroke-width="2.2399999999999998"/>
<line x1="60.0" y1="89" x2="60.0" y2="103" stroke="#000" stroke-width="1.6"/>
<line x1="280.0" y1="89" x2="280.0" y2="103" stroke="#000" stroke-width="1.6"/>
<line x1="379.0" y1="89" x2="379.0" y2="103" stroke="#000" stroke-width="1.6"/>
<text x="170.0" y="82.0" font-size="13" text-anchor="middle">4x（4個ずつx人に配る）</text>
<text x="329.5" y="82.0" font-size="13" text-anchor="middle" font-weight="bold">余り 18</text>
<text x="391.0" y="100.0" font-size="12" text-anchor="start">→ 総数＝4x＋18</text>
<line x1="60.0" y1="172" x2="379.0" y2="172" stroke="#000" stroke-width="2.2399999999999998"/>
<line x1="379.0" y1="172" x2="445.0" y2="172" stroke="#000" stroke-width="2.2399999999999998" stroke-dasharray="6 4"/>
<line x1="60.0" y1="165" x2="60.0" y2="179" stroke="#000" stroke-width="1.6"/>
<line x1="379.0" y1="165" x2="379.0" y2="179" stroke="#000" stroke-width="1.6"/>
<line x1="445.0" y1="165" x2="445.0" y2="179" stroke="#000" stroke-width="1.6" stroke-dasharray="6 4"/>
<text x="252.5" y="194.0" font-size="13" text-anchor="middle">7x（7個ずつx人に配るのに必要な個数）</text>
<text x="412.0" y="158.0" font-size="13" text-anchor="middle" font-weight="bold">不足 12</text>
<text x="455.0" y="176.0" font-size="12" text-anchor="start">→ 総数＝7x−12</text>
<line x1="60" y1="238" x2="96" y2="238" stroke="#000" stroke-width="2.2399999999999998"/>
<text x="102.0" y="242.0" font-size="11" text-anchor="start">実線＝実際にあるあめ（余りは実線で足す）</text>
<line x1="60" y1="258" x2="96" y2="258" stroke="#000" stroke-width="2.2399999999999998" stroke-dasharray="6 4"/>
<text x="102.0" y="262.0" font-size="11" text-anchor="start">点線＝足りない分（不足は点線で欠ける）</text>
<text x="300.0" y="280.0" font-size="11" text-anchor="middle">上下の線分の全長（＝総数）は同じ。二通りの表し方を等号で結ぶと 4x＋18＝7x−12</text>
</svg>
