<svg xmlns="http://www.w3.org/2000/svg" viewBox="0 0 540 300">
<title>検算と吟味の2段関門図（x＝3.75は①通過・②不通過）</title>
<desc>【この図の意図】2段チェックの関門イメージ。②で止まった解の行き先の分岐を明示。【主要な数値・設定】例1の x＝3.75・両辺650（本文明示）／整数判定はassert検算。【AIに同じ種類の図を描かせるときの説明文】「検算と吟味の2段関門図（x＝3.75は①通過・②不通過）。2段チェックの関門イメージ。②で止まった解の行き先の分岐を明示。数値・設定: 例1の x＝3.75・両辺650（本文明示）／整数判定はassert検算。白黒印刷向けのシンプルな教材図（SVG）としてかいて。」——この説明文を生成AIに渡せば同型の図を描かせられる。数値を変えれば類題用の図も作れる。</desc>
<!-- L09_fig1_two_gate_check.svg | 検算と吟味の2段関門図（x＝3.75は①通過・②不通過） -->
<!-- generated by assets_provenance/generate_figures.py on 2026-07-18 (コード来歴方式・SVG直接編集禁止/スクリプト改修で再生成) -->
<rect x="0" y="0" width="540" height="300" fill="#fff"/>
<rect x="20.0" y="92.0" width="108.0" height="44.0" rx="4" fill="#fff" stroke="#000" stroke-width="1.6"/>
<text x="74.0" y="109.9" font-size="12.5" text-anchor="middle" font-weight="bold">解</text>
<text x="74.0" y="126.8" font-size="12.5" text-anchor="middle">x＝3.75</text>
<rect x="162.0" y="40.0" width="150.0" height="148.0" rx="6" fill="#fff" stroke="#000" stroke-width="1.6"/>
<text x="237.0" y="62.0" font-size="12.5" text-anchor="middle" font-weight="bold">関門① 検算</text>
<text x="237.0" y="84.0" font-size="10.5" text-anchor="middle">方程式に代入して</text>
<text x="237.0" y="98.0" font-size="10.5" text-anchor="middle">計算が正しいか？</text>
<text x="237.0" y="124.0" font-size="11.5" text-anchor="middle">両辺とも650</text>
<text x="237.0" y="148.0" font-size="12.5" text-anchor="middle" font-weight="bold">→ 通過</text>
<rect x="356.0" y="40.0" width="150.0" height="148.0" rx="6" fill="#fff" stroke="#000" stroke-width="1.6"/>
<text x="431.0" y="62.0" font-size="12.5" text-anchor="middle" font-weight="bold">関門② 吟味</text>
<text x="431.0" y="84.0" font-size="10.5" text-anchor="middle">場面に照らして</text>
<text x="431.0" y="98.0" font-size="10.5" text-anchor="middle">意味を持つか？</text>
<text x="431.0" y="124.0" font-size="11" text-anchor="middle">個数なのに整数でない</text>
<text x="431.0" y="148.0" font-size="12.5" text-anchor="middle" font-weight="bold">→ 不通過</text>
<line x1="130.0" y1="114.0" x2="150.0" y2="114.0" stroke="#000" stroke-width="1.8"/>
<polygon points="158.0,114.0 150.0,117.6 150.0,110.4" fill="#000"/>
<line x1="314.0" y1="114.0" x2="344.0" y2="114.0" stroke="#000" stroke-width="1.8"/>
<polygon points="352.0,114.0 344.0,117.6 344.0,110.4" fill="#000"/>
<line x1="431.0" y1="190.0" x2="431.0" y2="209.0" stroke="#000" stroke-width="1.6"/>
<polygon points="431.0,216.0 427.9,209.0 434.1,209.0" fill="#000"/>
<rect x="236.0" y="220.0" width="288.0" height="48.0" rx="4" fill="#fff" stroke="#000" stroke-width="1.6"/>
<text x="380.0" y="240.6" font-size="10.5" text-anchor="middle" font-weight="bold">答えとして採用しない</text>
<text x="380.0" y="254.8" font-size="10.5" text-anchor="middle">「条件に合う買い方はない」と答える／設定を見直す</text>
<text x="60.0" y="220.0" font-size="10.5" text-anchor="start">両方通って</text>
<text x="60.0" y="234.0" font-size="10.5" text-anchor="start">はじめて「答え」</text>
<text x="60.0" y="248.0" font-size="10.5" text-anchor="start">になる</text>
<text x="270.0" y="288.0" font-size="12" text-anchor="middle">①が通っても②で止まることがある——検算と吟味は別の関門</text>
</svg>
