<svg xmlns="http://www.w3.org/2000/svg" viewBox="0 0 540 312">
<title>単元全体の3部屋マップ（意味・解く・使う＋廊下L10）</title>
<desc>【この図の意図】章の総整理の見取図。部屋割りは本文チェックリストの割当と一致。【主要な数値・設定】意味=L01・L02／解く=L03〜L06／使う=L07〜L09（本文チェックリスト準拠）。【AIに同じ種類の図を描かせるときの説明文】「単元全体の3部屋マップ（意味・解く・使う＋廊下L10）。章の総整理の見取図。部屋割りは本文チェックリストの割当と一致。数値・設定: 意味=L01・L02／解く=L03〜L06／使う=L07〜L09（本文チェックリスト準拠）。白黒印刷向けのシンプルな教材図（SVG）としてかいて。」——この説明文を生成AIに渡せば同型の図を描かせられる。数値を変えれば類題用の図も作れる。</desc>
<!-- L10_fig1_three_rooms_map.svg | 単元全体の3部屋マップ（意味・解く・使う＋廊下L10） -->
<!-- generated by assets_provenance/generate_figures.py on 2026-07-18 (コード来歴方式・SVG直接編集禁止/スクリプト改修で再生成) -->
<rect x="0" y="0" width="540" height="312" fill="#fff"/>
<rect x="16.0" y="40.0" width="146.0" height="92.0" rx="4" fill="#fff" stroke="#000" stroke-width="1.6"/>
<text x="89.0" y="75.8" font-size="10.2" text-anchor="middle" font-weight="bold">部屋1 意味（L01・L02）</text>
<text x="89.0" y="89.6" font-size="10.2" text-anchor="middle">方程式・解とは何か</text>
<text x="89.0" y="103.3" font-size="10.2" text-anchor="middle">等式の性質4つ</text>
<rect x="198.0" y="40.0" width="146.0" height="92.0" rx="4" fill="#fff" stroke="#000" stroke-width="1.6"/>
<text x="271.0" y="75.8" font-size="10.2" text-anchor="middle" font-weight="bold">部屋2 解く（L03〜L06）</text>
<text x="271.0" y="89.6" font-size="10.2" text-anchor="middle">移項・基本手順Ａx＝Ｂ</text>
<text x="271.0" y="103.3" font-size="10.2" text-anchor="middle">前処理・比例式・検算</text>
<rect x="380.0" y="40.0" width="146.0" height="92.0" rx="4" fill="#fff" stroke="#000" stroke-width="1.6"/>
<text x="453.0" y="75.8" font-size="10.2" text-anchor="middle" font-weight="bold">部屋3 使う（L07〜L09）</text>
<text x="453.0" y="89.6" font-size="10.2" text-anchor="middle">立式の型・二通りの表現</text>
<text x="453.0" y="103.3" font-size="10.2" text-anchor="middle">検算と吟味の2段チェック</text>
<line x1="164.0" y1="86.0" x2="188.0" y2="86.0" stroke="#000" stroke-width="1.8"/>
<polygon points="196.0,86.0 188.0,89.6 188.0,82.4" fill="#000"/>
<text x="180.0" y="152.0" font-size="10" text-anchor="middle">等式の性質が</text>
<text x="180.0" y="165.0" font-size="10" text-anchor="middle">解く手順の根拠になる</text>
<line x1="180" y1="140" x2="180" y2="98" stroke="#000" stroke-width="1.1" stroke-dasharray="6 4"/>
<line x1="346.0" y1="86.0" x2="370.0" y2="86.0" stroke="#000" stroke-width="1.8"/>
<polygon points="378.0,86.0 370.0,89.6 370.0,82.4" fill="#000"/>
<text x="362.0" y="152.0" font-size="10" text-anchor="middle">解く力が</text>
<text x="362.0" y="165.0" font-size="10" text-anchor="middle">立式の受け皿になる</text>
<line x1="362" y1="140" x2="362" y2="98" stroke="#000" stroke-width="1.1" stroke-dasharray="6 4"/>
<rect x="16.0" y="196.0" width="510.0" height="44.0" rx="6" fill="#eee" stroke="#000" stroke-width="1.92"/>
<text x="271.0" y="214.0" font-size="12.5" text-anchor="middle" font-weight="bold">L10 章末まとめ＝3部屋を見わたす廊下</text>
<text x="271.0" y="231.0" font-size="10.5" text-anchor="middle">×や△の部屋のレッスンに戻って復習する</text>
<line x1="89" y1="132" x2="89" y2="196" stroke="#000" stroke-width="1.1"/>
<line x1="271" y1="132" x2="271" y2="196" stroke="#000" stroke-width="1.1"/>
<line x1="453" y1="132" x2="453" y2="196" stroke="#000" stroke-width="1.1"/>
<text x="271.0" y="270.0" font-size="12" text-anchor="middle">この章の背骨:「形を変えても解は変わらない」——意味が根拠を支え、</text>
<text x="271.0" y="288.0" font-size="12" text-anchor="middle">根拠が手続きを支え、手続きが場面の問題解決を支える</text>
</svg>
