<svg xmlns="http://www.w3.org/2000/svg" viewBox="0 0 420 250">
<title>2直線の交点・1つの角だけ62°（練習1）</title>
<desc>【この図の意図】対頂角・一直線の角の適用練習。与件62°のみ表示し、残り3角は？で示す。【主要な数値・設定】交差角62°を厳密に反映（残り3角の値は図に書かない）。【AIに同じ種類の図を描かせるときの説明文】「2直線の交点・1つの角だけ62°（練習1）。対頂角・一直線の角の適用練習。与件62°のみ表示し、残り3角は？で示す。数値・設定: 交差角62°を厳密に反映（残り3角の値は図に書かない）。白黒印刷向けのシンプルな教材図（SVG）としてかいて。」——この説明文を生成AIに渡せば同型の図を描かせられる。数値を変えれば類題用の図も作れる。</desc>
<!-- L01_fig2_vertical_angles_62.svg | 2直線の交点・1つの角だけ62°（練習1） -->
<!-- generated by assets_provenance/generate_figures.py on 2026-07-18 (docs/SPEC_figures.md準拠・SVG直接編集禁止/スクリプト改修で再生成) -->
<rect x="0" y="0" width="420" height="250" fill="#fff"/>
<line x1="236.7" y1="227.1" x2="183.3" y2="12.9" stroke="#000" stroke-width="1.6"/>
<line x1="317.1" y1="146.7" x2="102.9" y2="93.3" stroke="#000" stroke-width="1.6"/>
<circle cx="210.0" cy="120.0" r="2.5" fill="#000"/>
<text x="222.0" y="134.0" font-size="13" text-anchor="start" font-weight="bold">O</text>
<polyline points="205.9,103.5 205.0,103.8 204.1,104.0 203.3,104.4 202.4,104.8 201.6,105.2 200.8,105.7 200.1,106.2 199.3,106.8 198.6,107.3 198.0,108.0 197.3,108.6 196.8,109.3 196.2,110.1 195.7,110.8 195.2,111.6 194.8,112.4 194.4,113.3 194.0,114.1 193.8,115.0 193.5,115.9" fill="none" stroke="#000" stroke-width="1.2"/>
<text x="178.9" y="93.4" font-size="13" text-anchor="middle" font-weight="bold">62°</text>
<text x="241.1" y="93.4" font-size="13" text-anchor="middle">？</text>
<text x="241.1" y="155.7" font-size="13" text-anchor="middle">？</text>
<text x="178.9" y="155.7" font-size="13" text-anchor="middle">？</text>
<text x="210.0" y="232.0" font-size="12" text-anchor="middle">2直線が点Oで交わる。？の3つの角を求める（根拠を一言そえて）</text>
</svg>
