<svg xmlns="http://www.w3.org/2000/svg" viewBox="0 0 420 250">
<title>2直線の交点と4つの角（対頂角の定義図）</title>
<desc>【この図の意図】対頂角の定義図。向かい合う∠aと∠cを同系の弧マークで示す（角度の具体値は載せない）。【主要な数値・設定】2直線の方向10°/80°（交差角70°・直角に見えない斜め交差）。【AIに同じ種類の図を描かせるときの説明文】「2直線の交点と4つの角（対頂角の定義図）。対頂角の定義図。向かい合う∠aと∠cを同系の弧マークで示す（角度の具体値は載せない）。数値・設定: 2直線の方向10°/80°（交差角70°・直角に見えない斜め交差）。白黒印刷向けのシンプルな教材図（SVG）としてかいて。」——この説明文を生成AIに渡せば同型の図を描かせられる。数値を変えれば類題用の図も作れる。</desc>
<!-- L01_fig1_vertical_angles.svg | 2直線の交点と4つの角（対頂角の定義図） -->
<!-- generated by assets_provenance/generate_figures.py on 2026-07-18 (docs/SPEC_figures.md準拠・SVG直接編集禁止/スクリプト改修で再生成) -->
<rect x="0" y="0" width="420" height="250" fill="#fff"/>
<line x1="101.3" y1="139.2" x2="318.7" y2="100.8" stroke="#000" stroke-width="1.6"/>
<line x1="190.8" y1="228.7" x2="229.2" y2="11.3" stroke="#000" stroke-width="1.6"/>
<circle cx="210.0" cy="120.0" r="2.5" fill="#000"/>
<text x="224.0" y="108.0" font-size="13" text-anchor="start" font-weight="bold">O</text>
<polyline points="212.8,104.2 211.3,104.0 209.7,104.0 208.2,104.1 206.7,104.3 205.2,104.7 203.7,105.3 202.4,105.9 201.1,106.7 199.8,107.7 198.7,108.7 197.7,109.8 196.7,111.1 195.9,112.4 195.3,113.7 194.7,115.2 194.3,116.7 194.1,118.2 194.0,119.7 194.0,121.3 194.2,122.8" fill="none" stroke="#000" stroke-width="1.2"/>
<polyline points="207.2,135.8 208.7,136.0 210.3,136.0 211.8,135.9 213.3,135.7 214.8,135.3 216.3,134.7 217.6,134.1 218.9,133.3 220.2,132.3 221.3,131.3 222.3,130.2 223.3,128.9 224.1,127.6 224.7,126.3 225.3,124.8 225.7,123.3 225.9,121.8 226.0,120.3 226.0,118.7 225.8,117.2" fill="none" stroke="#000" stroke-width="1.2"/>
<text x="180.3" y="94.9" font-size="13" text-anchor="middle" font-weight="bold">∠a</text>
<text x="239.7" y="94.9" font-size="13" text-anchor="middle" font-weight="bold">∠b</text>
<text x="239.7" y="154.2" font-size="13" text-anchor="middle" font-weight="bold">∠c</text>
<text x="180.3" y="154.2" font-size="13" text-anchor="middle" font-weight="bold">∠d</text>
<text x="210.0" y="232.0" font-size="12" text-anchor="middle">向かい合う∠aと∠c、∠bと∠dが対頂角（弧は∠a・∠cの組）</text>
</svg>
