<svg xmlns="http://www.w3.org/2000/svg" viewBox="0 0 430 250">
<title>頂点Aを通り辺BCに平行な直線を引いた図（内角の和の導出）</title>
<desc>【この図の意図】内角の和180度の導出図。l//BCの錯角2組を弧の本数で対応づける（角度値なし）。【主要な数値・設定】B(0,0) C(4,0) A(1.5,2.1)・lはAを通る水平線（BCと厳密に平行）。【AIに同じ種類の図を描かせるときの説明文】「頂点Aを通り辺BCに平行な直線を引いた図（内角の和の導出）。内角の和180度の導出図。l//BCの錯角2組を弧の本数で対応づける（角度値なし）。数値・設定: B(0,0) C(4,0) A(1.5,2.1)・lはAを通る水平線（BCと厳密に平行）。白黒印刷向けのシンプルな教材図（SVG）としてかいて。」——この説明文を生成AIに渡せば同型の図を描かせられる。数値を変えれば類題用の図も作れる。</desc>
<!-- L03_fig2_parallel_through_apex.svg | 頂点Aを通り辺BCに平行な直線を引いた図（内角の和の導出） -->
<!-- generated by assets_provenance/generate_figures.py on 2026-07-18 (docs/SPEC_figures.md準拠・SVG直接編集禁止/スクリプト改修で再生成) -->
<rect x="0" y="0" width="430" height="250" fill="#fff"/>
<line x1="23.6" y1="80.8" x2="270.6" y2="80.8" stroke="#000" stroke-width="1.6"/>
<polygon points="138.0,80.8 60.0,190.0 268.0,190.0" fill="none" stroke="#000" stroke-width="1.6" stroke-linejoin="round"/>
<text x="134.5" y="70.8" font-size="13" text-anchor="middle" font-weight="bold">A</text>
<text x="46.0" y="199.9" font-size="13" text-anchor="middle" font-weight="bold">B</text>
<text x="282.3" y="199.2" font-size="13" text-anchor="middle" font-weight="bold">C</text>
<circle cx="49.6" cy="80.8" r="2.5" fill="#000"/>
<text x="38.4" y="78.8" font-size="13" text-anchor="middle" font-weight="bold">D</text>
<circle cx="247.2" cy="80.8" r="2.5" fill="#000"/>
<text x="258.9" y="79.8" font-size="13" text-anchor="middle" font-weight="bold">E</text>
<text x="275.8" y="85.3" font-size="13" text-anchor="middle" font-weight="bold">l</text>
<polyline points="124.0,80.8 124.0,81.5 124.1,82.1 124.1,82.8 124.3,83.4 124.4,84.1 124.6,84.7 124.8,85.4 125.0,86.0 125.3,86.6 125.6,87.2 125.9,87.8 126.2,88.4 126.6,88.9 127.0,89.4 127.4,90.0 127.9,90.4 128.3,90.9 128.8,91.4 129.3,91.8 129.9,92.2" fill="none" stroke="#000" stroke-width="1.2"/>
<polyline points="74.0,190.0 74.0,189.3 73.9,188.7 73.9,188.0 73.7,187.4 73.6,186.7 73.4,186.1 73.2,185.4 73.0,184.8 72.7,184.2 72.4,183.6 72.1,183.0 71.8,182.4 71.4,181.9 71.0,181.4 70.6,180.8 70.1,180.4 69.7,179.9 69.2,179.4 68.7,179.0 68.1,178.6" fill="none" stroke="#000" stroke-width="1.2"/>
<polyline points="152.0,80.8 152.0,81.3 152.0,81.8 151.9,82.3 151.9,82.7 151.8,83.2 151.7,83.7 151.6,84.2 151.5,84.7 151.3,85.1 151.2,85.6 151.0,86.0 150.8,86.5 150.6,86.9 150.4,87.4 150.1,87.8 149.9,88.2 149.6,88.6 149.3,89.0 149.0,89.4 148.7,89.8" fill="none" stroke="#000" stroke-width="1.2"/>
<polyline points="155.5,80.8 155.5,81.4 155.5,82.0 155.4,82.6 155.3,83.2 155.2,83.8 155.1,84.4 155.0,85.0 154.8,85.6 154.6,86.2 154.4,86.8 154.2,87.4 154.0,87.9 153.7,88.5 153.4,89.0 153.2,89.6 152.8,90.1 152.5,90.6 152.2,91.1 151.8,91.6 151.4,92.1" fill="none" stroke="#000" stroke-width="1.2"/>
<polyline points="257.3,181.0 257.0,181.4 256.7,181.8 256.4,182.2 256.1,182.6 255.9,183.0 255.6,183.4 255.4,183.9 255.2,184.3 255.0,184.8 254.8,185.2 254.7,185.7 254.5,186.1 254.4,186.6 254.3,187.1 254.2,187.6 254.1,188.1 254.1,188.5 254.0,189.0 254.0,189.5 254.0,190.0" fill="none" stroke="#000" stroke-width="1.2"/>
<polyline points="254.6,178.7 254.2,179.2 253.8,179.7 253.5,180.2 253.2,180.7 252.8,181.2 252.6,181.8 252.3,182.3 252.0,182.9 251.8,183.4 251.6,184.0 251.4,184.6 251.2,185.2 251.0,185.8 250.9,186.4 250.8,187.0 250.7,187.6 250.6,188.2 250.5,188.8 250.5,189.4 250.5,190.0" fill="none" stroke="#000" stroke-width="1.2"/>
<text x="215.0" y="238.0" font-size="12" text-anchor="middle">Aを通りBCに平行な直線l。同じ本数の弧＝錯角の組</text>
</svg>
