<svg xmlns="http://www.w3.org/2000/svg" viewBox="0 0 470 230">
<title>三角形の3つの角を1点に集めると一直線に並ぶ（実験の再現図）</title>
<desc>【この図の意図】角を集める実験の再現図。弧の本数で角の対応を示す（角度の数値は載せない）。【主要な数値・設定】3つの角50/60/70度（非対称）・和180度を検算。【AIに同じ種類の図を描かせるときの説明文】「三角形の3つの角を1点に集めると一直線に並ぶ（実験の再現図）。角を集める実験の再現図。弧の本数で角の対応を示す（角度の数値は載せない）。数値・設定: 3つの角50/60/70度（非対称）・和180度を検算。白黒印刷向けのシンプルな教材図（SVG）としてかいて。」——この説明文を生成AIに渡せば同型の図を描かせられる。数値を変えれば類題用の図も作れる。</desc>
<!-- L03_fig1_tear_and_line_up.svg | 三角形の3つの角を1点に集めると一直線に並ぶ（実験の再現図） -->
<!-- generated by assets_provenance/generate_figures.py on 2026-07-18 (docs/SPEC_figures.md準拠・SVG直接編集禁止/スクリプト改修で再生成) -->
<rect x="0" y="0" width="470" height="230" fill="#fff"/>
<defs><pattern id="hatch" width="6" height="6" patternUnits="userSpaceOnUse" patternTransform="rotate(45)"><line x1="0" y1="0" x2="0" y2="6" stroke="#999" stroke-width="1"/></pattern></defs><polygon points="128.3,32.0 40.0,185.0 184.0,185.0" fill="none" stroke="#000" stroke-width="1.6" stroke-linejoin="round"/>
<text x="129.9" y="21.7" font-size="13" text-anchor="middle" font-weight="bold">A</text>
<text x="27.5" y="197.8" font-size="13" text-anchor="middle" font-weight="bold">B</text>
<text x="195.9" y="198.7" font-size="13" text-anchor="middle" font-weight="bold">C</text>
<polyline points="121.3,44.1 121.9,44.4 122.4,44.7 123.0,45.0 123.5,45.2 124.1,45.4 124.7,45.5 125.3,45.7 125.9,45.8 126.5,45.9 127.1,46.0 127.7,46.0 128.3,46.0 128.9,46.0 129.5,46.0 130.1,45.9 130.8,45.8 131.4,45.7 131.9,45.5 132.5,45.4 133.1,45.2" fill="none" stroke="#000" stroke-width="1.2"/>
<polyline points="54.0,185.0 54.0,184.3 53.9,183.5 53.8,182.8 53.7,182.1 53.5,181.4 53.3,180.7 53.1,180.0 52.8,179.3 52.5,178.6 52.1,178.0 51.7,177.4 51.3,176.8 50.9,176.2 50.4,175.6 49.9,175.1 49.4,174.6 48.8,174.1 48.2,173.7 47.6,173.3 47.0,172.9" fill="none" stroke="#000" stroke-width="1.2"/>
<polyline points="57.5,185.0 57.5,184.1 57.4,183.2 57.3,182.3 57.1,181.4 56.9,180.5 56.6,179.6 56.3,178.7 56.0,177.9 55.6,177.1 55.2,176.2 54.7,175.5 54.2,174.7 53.6,174.0 53.0,173.3 52.4,172.6 51.7,172.0 51.0,171.4 50.3,170.8 49.5,170.3 48.8,169.8" fill="none" stroke="#000" stroke-width="1.2"/>
<polyline points="179.2,171.8 178.4,172.2 177.6,172.5 176.9,172.9 176.2,173.4 175.5,173.9 174.8,174.4 174.2,175.0 173.6,175.6 173.0,176.3 172.5,177.0 172.1,177.7 171.6,178.4 171.3,179.2 170.9,180.0 170.6,180.8 170.4,181.6 170.2,182.4 170.1,183.3 170.0,184.1 170.0,185.0" fill="none" stroke="#000" stroke-width="1.2"/>
<polyline points="178.0,168.6 177.0,169.0 176.1,169.4 175.1,169.9 174.2,170.5 173.3,171.1 172.5,171.8 171.7,172.5 171.0,173.3 170.3,174.1 169.7,175.0 169.1,175.9 168.5,176.8 168.1,177.7 167.7,178.7 167.3,179.7 167.0,180.8 166.8,181.8 166.6,182.9 166.5,183.9 166.5,185.0" fill="none" stroke="#000" stroke-width="1.2"/>
<polyline points="176.8,165.3 175.6,165.7 174.5,166.3 173.3,166.9 172.3,167.6 171.2,168.3 170.2,169.2 169.3,170.0 168.4,170.9 167.6,171.9 166.8,173.0 166.1,174.0 165.5,175.1 164.9,176.3 164.4,177.5 164.0,178.7 163.6,179.9 163.4,181.2 163.2,182.4 163.0,183.7 163.0,185.0" fill="none" stroke="#000" stroke-width="1.2"/>
<polygon points="330.0,130.0 392.4,130.0 392.2,125.5 391.7,121.0 390.9,116.5 389.8,112.1 388.3,107.8 386.6,103.6 384.5,99.6 382.1,95.7 379.5,92.0 376.6,88.5 373.5,85.2 370.1,82.2" fill="#e6e6e6" stroke="none"/>
<polyline points="344.0,130.0 344.0,129.4 343.9,128.8 343.9,128.2 343.8,127.6 343.7,127.0 343.5,126.4 343.4,125.8 343.2,125.2 342.9,124.6 342.7,124.1 342.4,123.5 342.1,123.0 341.8,122.5 341.5,122.0 341.1,121.5 340.7,121.0 340.3,120.5 339.9,120.1 339.5,119.7 339.0,119.3" fill="none" stroke="#000" stroke-width="1.2"/>
<polygon points="330.0,130.0 370.1,82.2 365.8,78.9 361.2,76.0 356.4,73.4 351.3,71.4 346.2,69.7 340.8,68.5 335.4,67.8 330.0,67.6 324.6,67.8 319.2,68.5 313.8,69.7 308.7,71.4" fill="#fff" stroke="none"/>
<polyline points="339.0,119.3 338.4,118.8 337.8,118.4 337.2,118.0 336.6,117.6 335.9,117.3 335.2,117.0 334.6,116.8 333.9,116.5 333.1,116.4 332.4,116.2 331.7,116.1 331.0,116.0 330.2,116.0 329.5,116.0 328.8,116.1 328.1,116.1 327.3,116.3 326.6,116.4 325.9,116.6 325.2,116.8" fill="none" stroke="#000" stroke-width="1.2"/>
<polyline points="341.2,116.6 340.5,116.0 339.8,115.5 339.0,115.0 338.2,114.5 337.4,114.1 336.6,113.8 335.7,113.5 334.8,113.2 333.9,112.9 333.0,112.8 332.1,112.6 331.2,112.5 330.3,112.5 329.4,112.5 328.5,112.6 327.6,112.7 326.7,112.8 325.8,113.0 324.9,113.3 324.0,113.6" fill="none" stroke="#000" stroke-width="1.2"/>
<polygon points="330.0,130.0 308.7,71.4 302.8,73.8 297.2,76.9 292.0,80.5 287.2,84.6 282.8,89.2 278.9,94.2 275.5,99.6 272.7,105.3 270.5,111.2 268.9,117.4 267.9,123.7 267.6,130.0" fill="url(#hatch)" stroke="none"/>
<polyline points="325.2,116.8 324.4,117.2 323.6,117.5 322.9,117.9 322.2,118.4 321.5,118.9 320.8,119.4 320.2,120.0 319.6,120.6 319.0,121.3 318.5,122.0 318.1,122.7 317.6,123.4 317.3,124.2 316.9,125.0 316.6,125.8 316.4,126.6 316.2,127.4 316.1,128.3 316.0,129.1 316.0,130.0" fill="none" stroke="#000" stroke-width="1.2"/>
<polyline points="324.0,113.6 323.0,114.0 322.1,114.4 321.1,114.9 320.2,115.5 319.3,116.1 318.5,116.8 317.7,117.5 317.0,118.3 316.3,119.1 315.7,120.0 315.1,120.9 314.5,121.8 314.1,122.7 313.7,123.7 313.3,124.7 313.0,125.8 312.8,126.8 312.6,127.9 312.5,128.9 312.5,130.0" fill="none" stroke="#000" stroke-width="1.2"/>
<polyline points="322.8,110.3 321.6,110.7 320.5,111.3 319.3,111.9 318.3,112.6 317.2,113.3 316.2,114.2 315.3,115.0 314.4,115.9 313.6,116.9 312.8,118.0 312.1,119.0 311.5,120.1 310.9,121.3 310.4,122.5 310.0,123.7 309.6,124.9 309.4,126.2 309.2,127.4 309.0,128.7 309.0,130.0" fill="none" stroke="#000" stroke-width="1.2"/>
<line x1="248.4" y1="130.0" x2="411.6" y2="130.0" stroke="#000" stroke-width="1.6"/>
<line x1="330.0" y1="130.0" x2="370.1" y2="82.2" stroke="#000" stroke-width="1.6"/>
<line x1="330.0" y1="130.0" x2="308.7" y2="71.4" stroke="#000" stroke-width="1.6"/>
<circle cx="330.0" cy="130.0" r="2.5" fill="#000"/>
<text x="330.0" y="212.0" font-size="12" text-anchor="middle">切り取った3つの角を1点に集めると一直線に並ぶ</text>
<text x="330.0" y="170.0" font-size="12" text-anchor="middle">（弧の本数が同じ角どうしが対応）</text>
</svg>
