<svg xmlns="http://www.w3.org/2000/svg" viewBox="0 0 430 240">
<title>辺BCをCの先へ延長してできる外角∠ACD</title>
<desc>【この図の意図】外角の定義図と外角の性質の導出図。外角と2つの内角を弧の本数で区別（角度値なし）。【主要な数値・設定】B(0,0) C(3.2,0) A(0.9,1.9) D(4.7,0)（B・C・D一直線）。【AIに同じ種類の図を描かせるときの説明文】「辺BCをCの先へ延長してできる外角∠ACD。外角の定義図と外角の性質の導出図。外角と2つの内角を弧の本数で区別（角度値なし）。数値・設定: B(0,0) C(3.2,0) A(0.9,1.9) D(4.7,0)（B・C・D一直線）。白黒印刷向けのシンプルな教材図（SVG）としてかいて。」——この説明文を生成AIに渡せば同型の図を描かせられる。数値を変えれば類題用の図も作れる。</desc>
<!-- L03_fig3_exterior_angle.svg | 辺BCをCの先へ延長してできる外角∠ACD -->
<!-- generated by assets_provenance/generate_figures.py on 2026-07-18 (docs/SPEC_figures.md準拠・SVG直接編集禁止/スクリプト改修で再生成) -->
<rect x="0" y="0" width="430" height="240" fill="#fff"/>
<polygon points="120.4,78.6 70.0,185.0 249.2,185.0" fill="none" stroke="#000" stroke-width="1.6" stroke-linejoin="round"/>
<line x1="249.2" y1="185.0" x2="333.2" y2="185.0" stroke="#000" stroke-width="1.6"/>
<text x="115.2" y="69.1" font-size="13" text-anchor="middle" font-weight="bold">A</text>
<text x="56.4" y="195.9" font-size="13" text-anchor="middle" font-weight="bold">B</text>
<text x="263.4" y="194.4" font-size="13" text-anchor="middle" font-weight="bold">C</text>
<circle cx="333.2" cy="185.0" r="2.5" fill="#000"/>
<text x="346.2" y="189.6" font-size="13" text-anchor="middle" font-weight="bold">D</text>
<polyline points="238.4,176.1 239.6,174.8 240.9,173.7 242.3,172.8 243.9,172.1 245.5,171.5 247.2,171.1 248.9,171.0 250.6,171.1 252.3,171.3 253.9,171.8 255.5,172.5 257.0,173.4 258.4,174.4 259.6,175.6 260.7,176.9 261.6,178.4 262.3,180.0 262.8,181.6 263.1,183.3 263.2,185.0" fill="none" stroke="#000" stroke-width="1.2"/>
<polyline points="114.4,91.3 115.3,91.6 116.1,91.9 117.0,92.2 117.9,92.4 118.8,92.5 119.8,92.6 120.7,92.6 121.6,92.5 122.5,92.4 123.4,92.3 124.3,92.0 125.2,91.7 126.1,91.4 126.9,91.0 127.7,90.5 128.5,90.0 129.2,89.5 129.9,88.9 130.6,88.2 131.2,87.5" fill="none" stroke="#000" stroke-width="1.2"/>
<polyline points="112.9,94.4 114.0,94.9 115.1,95.3 116.2,95.6 117.3,95.8 118.4,96.0 119.6,96.1 120.8,96.1 121.9,96.0 123.1,95.9 124.2,95.7 125.3,95.4 126.4,95.0 127.5,94.6 128.5,94.1 129.5,93.5 130.5,92.9 131.4,92.2 132.3,91.4 133.1,90.6 133.9,89.7" fill="none" stroke="#000" stroke-width="1.2"/>
<polyline points="84.0,185.0 84.0,184.2 83.9,183.4 83.8,182.6 83.6,181.9 83.4,181.1 83.2,180.4 82.9,179.6 82.6,178.9 82.2,178.2 81.8,177.5 81.4,176.9 80.9,176.2 80.4,175.6 79.9,175.1 79.3,174.5 78.7,174.0 78.0,173.5 77.4,173.1 76.7,172.7 76.0,172.3" fill="none" stroke="#000" stroke-width="1.2"/>
<polyline points="87.5,185.0 87.5,184.0 87.4,183.0 87.2,182.1 87.1,181.1 86.8,180.1 86.5,179.2 86.2,178.3 85.7,177.4 85.3,176.5 84.8,175.6 84.2,174.8 83.6,174.0 83.0,173.3 82.3,172.6 81.6,171.9 80.8,171.3 80.0,170.7 79.2,170.1 78.4,169.6 77.5,169.2" fill="none" stroke="#000" stroke-width="1.2"/>
<polyline points="91.0,185.0 91.0,183.8 90.9,182.6 90.7,181.5 90.5,180.3 90.2,179.2 89.8,178.0 89.4,176.9 88.9,175.8 88.4,174.8 87.7,173.8 87.1,172.8 86.4,171.8 85.6,170.9 84.8,170.1 83.9,169.3 83.0,168.5 82.1,167.8 81.1,167.2 80.0,166.6 79.0,166.0" fill="none" stroke="#000" stroke-width="1.2"/>
<text x="263.4" y="149.7" font-size="12" text-anchor="middle">外角</text>
<text x="215.0" y="228.0" font-size="12" text-anchor="middle">辺BCをCの先へ延長すると、頂点Cの外角∠ACDができる</text>
</svg>
