<svg xmlns="http://www.w3.org/2000/svg" viewBox="0 0 460 265">
<title>向きの違う合同な2つの三角形（対応の読み取り練習）</title>
<desc>【この図の意図】対応の読み取り練習。等しい辺は同数ティック。解答となる対応の式は図に書かない。【主要な数値・設定】AB=2.2 BC=2.6 CA=4.3（∠B鈍角・AC最長）・△KLMは150度回転+平行移動。【AIに同じ種類の図を描かせるときの説明文】「向きの違う合同な2つの三角形（対応の読み取り練習）。対応の読み取り練習。等しい辺は同数ティック。解答となる対応の式は図に書かない。数値・設定: AB=2.2 BC=2.6 CA=4.3（∠B鈍角・AC最長）・△KLMは150度回転+平行移動。白黒印刷向けのシンプルな教材図（SVG）としてかいて。」——この説明文を生成AIに渡せば同型の図を描かせられる。数値を変えれば類題用の図も作れる。</desc>
<!-- L05_fig2_match_correspondence.svg | 向きの違う合同な2つの三角形（対応の読み取り練習） -->
<!-- generated by assets_provenance/generate_figures.py on 2026-07-18 (docs/SPEC_figures.md準拠・SVG直接編集禁止/スクリプト改修で再生成) -->
<rect x="0" y="0" width="460" height="265" fill="#fff"/>
<polygon points="24.4,101.2 80.0,175.0 189.2,175.0" fill="none" stroke="#000" stroke-width="1.6" stroke-linejoin="round"/>
<text x="11.9" y="97.4" font-size="13" text-anchor="middle" font-weight="bold">A</text>
<text x="71.2" y="191.7" font-size="13" text-anchor="middle" font-weight="bold">B</text>
<text x="203.7" y="183.4" font-size="13" text-anchor="middle" font-weight="bold">C</text>
<line x1="55.8" y1="135.4" x2="48.6" y2="140.8" stroke="#000" stroke-width="1.4"/>
<line x1="132.8" y1="170.5" x2="132.8" y2="179.5" stroke="#000" stroke-width="1.4"/>
<line x1="136.3" y1="170.5" x2="136.3" y2="179.5" stroke="#000" stroke-width="1.4"/>
<line x1="108.1" y1="143.7" x2="111.8" y2="135.4" stroke="#000" stroke-width="1.4"/>
<line x1="104.9" y1="142.2" x2="108.6" y2="134.0" stroke="#000" stroke-width="1.4"/>
<line x1="101.7" y1="140.8" x2="105.4" y2="132.6" stroke="#000" stroke-width="1.4"/>
<polygon points="347.5,176.4 336.2,84.7 241.6,30.1" fill="none" stroke="#000" stroke-width="1.6" stroke-linejoin="round"/>
<text x="354.1" y="194.4" font-size="13" text-anchor="middle" font-weight="bold">K</text>
<text x="349.9" y="83.1" font-size="13" text-anchor="middle" font-weight="bold">L</text>
<text x="231.0" y="24.0" font-size="13" text-anchor="middle" font-weight="bold">M</text>
<line x1="337.4" y1="131.1" x2="346.3" y2="130.0" stroke="#000" stroke-width="1.4"/>
<line x1="288.2" y1="62.2" x2="292.7" y2="54.4" stroke="#000" stroke-width="1.4"/>
<line x1="285.1" y1="60.4" x2="289.6" y2="52.6" stroke="#000" stroke-width="1.4"/>
<line x1="296.2" y1="97.8" x2="288.9" y2="103.1" stroke="#000" stroke-width="1.4"/>
<line x1="298.2" y1="100.6" x2="290.9" y2="105.9" stroke="#000" stroke-width="1.4"/>
<line x1="300.3" y1="103.4" x2="293.0" y2="108.7" stroke="#000" stroke-width="1.4"/>
<text x="230.0" y="253.0" font-size="12" text-anchor="middle">2つの三角形は合同。同じ本数のティック＝等しい辺。対応順に注意して≡で表す</text>
</svg>
