<svg xmlns="http://www.w3.org/2000/svg" viewBox="0 0 430 280">
<title>2辺と間ではない角の指定から2種類の三角形ができる作図</title>
<desc>【この図の意図】位置指定を外すと三角形が決まらないことの実験図。濃淡とハッチングで2三角形を塗り分け。【主要な数値・設定】AB=6, AC=4, ∠B=40度（6sin40°≈3.857&lt;4&lt;6の2交点条件を厳密に反映）。【AIに同じ種類の図を描かせるときの説明文】「2辺と間ではない角の指定から2種類の三角形ができる作図。位置指定を外すと三角形が決まらないことの実験図。濃淡とハッチングで2三角形を塗り分け。数値・設定: AB=6, AC=4, ∠B=40度（6sin40°≈3.857&lt;4&lt;6の2交点条件を厳密に反映）。白黒印刷向けのシンプルな教材図（SVG）としてかいて。」——この説明文を生成AIに渡せば同型の図を描かせられる。数値を変えれば類題用の図も作れる。</desc>
<!-- L06_fig2_ssa_two_triangles.svg | 2辺と間ではない角の指定から2種類の三角形ができる作図 -->
<!-- generated by assets_provenance/generate_figures.py on 2026-07-18 (docs/SPEC_figures.md準拠・SVG直接編集禁止/スクリプト改修で再生成) -->
<rect x="0" y="0" width="430" height="280" fill="#fff"/>
<defs><pattern id="hatch" width="6" height="6" patternUnits="userSpaceOnUse" patternTransform="rotate(45)"><line x1="0" y1="0" x2="0" y2="6" stroke="#999" stroke-width="1"/></pattern></defs><polygon points="60.0,235.0 324.0,235.0 133.3,75.0" fill="url(#hatch)" stroke="none"/>
<polygon points="60.0,235.0 324.0,235.0 204.8,135.0" fill="#e6e6e6" stroke="none"/>
<line x1="60.0" y1="235.0" x2="324.0" y2="235.0" stroke="#000" stroke-width="1.6"/>
<line x1="324.0" y1="235.0" x2="109.7" y2="55.2" stroke="#000" stroke-width="1.6"/>
<line x1="60.0" y1="235.0" x2="204.8" y2="135.0" stroke="#000" stroke-width="1.6"/>
<line x1="60.0" y1="235.0" x2="133.3" y2="75.0" stroke="#000" stroke-width="1.6"/>
<polyline points="226.8,178.8 225.2,174.3 223.5,169.8 221.6,165.3 219.6,160.9 217.6,156.6 215.4,152.3 213.0,148.1 210.6,143.9 208.0,139.8 205.4,135.8 202.6,131.9 199.7,128.0 196.7,124.2 193.7,120.5 190.5,116.9 187.2,113.4 183.8,109.9 180.3,106.6 176.8,103.3 173.1,100.2 169.4,97.1 165.6,94.2 161.7,91.3 157.7,88.6 153.7,86.0 149.6,83.5 145.4,81.1 141.1,78.8 136.8,76.6 132.5,74.6 128.0,72.7 123.6,70.9 119.0,69.2 114.5,67.6 109.9,66.2 105.2,64.9 100.6,63.7 95.9,62.7 91.1,61.8 86.4,61.0" fill="none" stroke="#000" stroke-width="1.1" stroke-dasharray="6 4"/>
<circle cx="60.0" cy="235.0" r="2.5" fill="#000"/>
<text x="48.0" y="249.0" font-size="13" text-anchor="middle" font-weight="bold">A</text>
<circle cx="324.0" cy="235.0" r="2.5" fill="#000"/>
<text x="336.0" y="249.0" font-size="13" text-anchor="middle" font-weight="bold">B</text>
<circle cx="204.8" cy="135.0" r="2.5" fill="#000"/>
<text x="220.8" y="133.0" font-size="13" text-anchor="middle" font-weight="bold">C1</text>
<circle cx="133.3" cy="75.0" r="2.5" fill="#000"/>
<text x="143.3" y="67.0" font-size="13" text-anchor="middle" font-weight="bold">C2</text>
<text x="192.0" y="253.2" font-size="12" text-anchor="middle">6cm</text>
<text x="139.8" y="199.9" font-size="12" text-anchor="middle">4cm</text>
<text x="84.8" y="153.8" font-size="12" text-anchor="middle">4cm</text>
<polyline points="307.0,235.0 307.0,234.4 307.0,233.8 307.1,233.2 307.2,232.6 307.3,232.0 307.4,231.5 307.5,230.9 307.7,230.3 307.8,229.7 308.0,229.2 308.2,228.6 308.5,228.1 308.7,227.5 309.0,227.0 309.3,226.5 309.6,226.0 309.9,225.5 310.2,225.0 310.6,224.5 311.0,224.1" fill="none" stroke="#000" stroke-width="1.2"/>
<text x="288.3" y="226.6" font-size="13" text-anchor="middle">40°</text>
<text x="215.0" y="268.0" font-size="12" text-anchor="middle">同じ指定（AB=6cm・AC=4cm・∠B=40°）から、形の違う三角形が2つできる</text>
</svg>
