<svg xmlns="http://www.w3.org/2000/svg" viewBox="0 0 500 470">
<title>三角形の合同条件3つの対応図</title>
<desc>【この図の意図】3条件の一覧図。使う辺・角だけにマークを付け、正典の文言を添える（数値・略称なし）。【主要な数値・設定】共通の三角形（辺2.4/3.0/2.0相当）×3段・右側は14度回転。【AIに同じ種類の図を描かせるときの説明文】「三角形の合同条件3つの対応図。3条件の一覧図。使う辺・角だけにマークを付け、正典の文言を添える（数値・略称なし）。数値・設定: 共通の三角形（辺2.4/3.0/2.0相当）×3段・右側は14度回転。白黒印刷向けのシンプルな教材図（SVG）としてかいて。」——この説明文を生成AIに渡せば同型の図を描かせられる。数値を変えれば類題用の図も作れる。</desc>
<!-- L06_fig1_three_conditions.svg | 三角形の合同条件3つの対応図 -->
<!-- generated by assets_provenance/generate_figures.py on 2026-07-18 (docs/SPEC_figures.md準拠・SVG直接編集禁止/スクリプト改修で再生成) -->
<rect x="0" y="0" width="500" height="470" fill="#fff"/>
<polygon points="103.0,87.8 42.0,142.0 144.0,142.0" fill="none" stroke="#000" stroke-width="1.6" stroke-linejoin="round"/>
<line x1="75.5" y1="118.2" x2="69.5" y2="111.5" stroke="#000" stroke-width="1.4"/>
<line x1="91.2" y1="137.5" x2="91.2" y2="146.5" stroke="#000" stroke-width="1.4"/>
<line x1="94.8" y1="137.5" x2="94.8" y2="146.5" stroke="#000" stroke-width="1.4"/>
<line x1="122.0" y1="120.4" x2="129.2" y2="115.0" stroke="#000" stroke-width="1.4"/>
<line x1="119.9" y1="117.6" x2="127.1" y2="112.2" stroke="#000" stroke-width="1.4"/>
<line x1="117.8" y1="114.8" x2="125.0" y2="109.4" stroke="#000" stroke-width="1.4"/>
<polygon points="246.0,74.6 200.0,142.0 299.0,117.3" fill="none" stroke="#000" stroke-width="1.6" stroke-linejoin="round"/>
<line x1="226.7" y1="110.9" x2="219.3" y2="105.8" stroke="#000" stroke-width="1.4"/>
<line x1="246.7" y1="125.7" x2="248.9" y2="134.5" stroke="#000" stroke-width="1.4"/>
<line x1="250.1" y1="124.9" x2="252.3" y2="133.6" stroke="#000" stroke-width="1.4"/>
<line x1="272.4" y1="101.7" x2="278.1" y2="94.7" stroke="#000" stroke-width="1.4"/>
<line x1="269.7" y1="99.5" x2="275.3" y2="92.5" stroke="#000" stroke-width="1.4"/>
<line x1="267.0" y1="97.3" x2="272.6" y2="90.3" stroke="#000" stroke-width="1.4"/>
<text x="30.0" y="40.0" font-size="13" text-anchor="start" font-weight="bold">1. 対応する３組の辺がそれぞれ等しい</text>
<polygon points="103.0,225.8 42.0,280.0 144.0,280.0" fill="none" stroke="#000" stroke-width="1.6" stroke-linejoin="round"/>
<line x1="75.5" y1="256.2" x2="69.5" y2="249.5" stroke="#000" stroke-width="1.4"/>
<line x1="91.2" y1="275.5" x2="91.2" y2="284.5" stroke="#000" stroke-width="1.4"/>
<line x1="94.8" y1="275.5" x2="94.8" y2="284.5" stroke="#000" stroke-width="1.4"/>
<polyline points="56.0,280.0 56.0,279.5 56.0,279.0 55.9,278.5 55.9,278.0 55.8,277.5 55.7,277.0 55.5,276.5 55.4,276.0 55.3,275.5 55.1,275.0 54.9,274.6 54.7,274.1 54.5,273.6 54.2,273.2 54.0,272.7 53.7,272.3 53.4,271.9 53.1,271.5 52.8,271.1 52.5,270.7" fill="none" stroke="#000" stroke-width="1.2"/>
<polygon points="246.0,212.6 200.0,280.0 299.0,255.3" fill="none" stroke="#000" stroke-width="1.6" stroke-linejoin="round"/>
<line x1="226.7" y1="248.9" x2="219.3" y2="243.8" stroke="#000" stroke-width="1.4"/>
<line x1="246.7" y1="263.7" x2="248.9" y2="272.5" stroke="#000" stroke-width="1.4"/>
<line x1="250.1" y1="262.9" x2="252.3" y2="271.6" stroke="#000" stroke-width="1.4"/>
<polyline points="213.6,276.6 213.5,276.1 213.3,275.6 213.1,275.2 213.0,274.7 212.7,274.2 212.5,273.8 212.3,273.3 212.0,272.9 211.8,272.4 211.5,272.0 211.2,271.6 210.9,271.2 210.6,270.8 210.2,270.4 209.9,270.1 209.5,269.7 209.1,269.4 208.7,269.0 208.3,268.7 207.9,268.4" fill="none" stroke="#000" stroke-width="1.2"/>
<text x="30.0" y="178.0" font-size="13" text-anchor="start" font-weight="bold">2. 対応する２組の辺がそれぞれ等しく，その間の角が等しい</text>
<polygon points="103.0,363.8 42.0,418.0 144.0,418.0" fill="none" stroke="#000" stroke-width="1.6" stroke-linejoin="round"/>
<line x1="93.0" y1="413.5" x2="93.0" y2="422.5" stroke="#000" stroke-width="1.4"/>
<polyline points="56.0,418.0 56.0,417.5 56.0,417.0 55.9,416.5 55.9,416.0 55.8,415.5 55.7,415.0 55.5,414.5 55.4,414.0 55.3,413.5 55.1,413.0 54.9,412.6 54.7,412.1 54.5,411.6 54.2,411.2 54.0,410.7 53.7,410.3 53.4,409.9 53.1,409.5 52.8,409.1 52.5,408.7" fill="none" stroke="#000" stroke-width="1.2"/>
<polyline points="135.6,406.8 135.0,407.2 134.6,407.7 134.1,408.1 133.6,408.6 133.2,409.1 132.8,409.6 132.4,410.1 132.1,410.6 131.8,411.2 131.5,411.8 131.2,412.4 130.9,412.9 130.7,413.6 130.5,414.2 130.4,414.8 130.2,415.4 130.1,416.1 130.1,416.7 130.0,417.4 130.0,418.0" fill="none" stroke="#000" stroke-width="1.2"/>
<polyline points="133.4,404.0 132.8,404.5 132.2,405.1 131.6,405.6 131.1,406.2 130.5,406.8 130.0,407.5 129.6,408.1 129.1,408.8 128.7,409.5 128.3,410.2 128.0,410.9 127.7,411.7 127.4,412.4 127.2,413.2 127.0,414.0 126.8,414.8 126.7,415.6 126.6,416.4 126.5,417.2 126.5,418.0" fill="none" stroke="#000" stroke-width="1.2"/>
<polygon points="246.0,350.6 200.0,418.0 299.0,393.3" fill="none" stroke="#000" stroke-width="1.6" stroke-linejoin="round"/>
<line x1="248.4" y1="401.3" x2="250.6" y2="410.0" stroke="#000" stroke-width="1.4"/>
<polyline points="213.6,414.6 213.5,414.1 213.3,413.6 213.1,413.2 213.0,412.7 212.7,412.2 212.5,411.8 212.3,411.3 212.0,410.9 211.8,410.4 211.5,410.0 211.2,409.6 210.9,409.2 210.6,408.8 210.2,408.4 209.9,408.1 209.5,407.7 209.1,407.4 208.7,407.0 208.3,406.7 207.9,406.4" fill="none" stroke="#000" stroke-width="1.2"/>
<polyline points="288.1,384.5 287.7,385.0 287.3,385.6 287.0,386.1 286.6,386.7 286.4,387.3 286.1,387.8 285.8,388.4 285.6,389.1 285.5,389.7 285.3,390.3 285.2,390.9 285.1,391.6 285.0,392.2 285.0,392.9 285.0,393.5 285.0,394.2 285.0,394.8 285.1,395.4 285.2,396.1 285.4,396.7" fill="none" stroke="#000" stroke-width="1.2"/>
<polyline points="285.3,382.3 284.9,383.0 284.4,383.6 284.0,384.3 283.6,385.0 283.2,385.7 282.9,386.5 282.6,387.2 282.3,388.0 282.1,388.8 281.9,389.6 281.7,390.3 281.6,391.1 281.5,391.9 281.5,392.8 281.5,393.6 281.5,394.4 281.6,395.2 281.7,396.0 281.8,396.8 282.0,397.6" fill="none" stroke="#000" stroke-width="1.2"/>
<text x="30.0" y="316.0" font-size="13" text-anchor="start" font-weight="bold">3. 対応する１組の辺が等しく，その両端の角がそれぞれ等しい</text>
<text x="250.0" y="22.0" font-size="14" text-anchor="middle" font-weight="bold">三角形の合同条件（どれか1つが成り立てば合同）</text>
<text x="250.0" y="454.0" font-size="12" text-anchor="middle">同じ本数のティック＝等しい辺，同じ本数の弧＝等しい角</text>
</svg>
