<svg xmlns="http://www.w3.org/2000/svg" viewBox="0 0 420 250">
<title>中点Oで交わる2線分AB・CDと、結んだ線分AC・BD</title>
<desc>【この図の意図】はじめての証明の図。仮定OA=OB・OC=ODをティックで示す（結論側の情報は載せない）。【主要な数値・設定】O(0,0) A(-1.7,1.1) B(1.7,-1.1) C(-1.3,-1.2) D(1.3,1.2)。【AIに同じ種類の図を描かせるときの説明文】「中点Oで交わる2線分AB・CDと、結んだ線分AC・BD。はじめての証明の図。仮定OA=OB・OC=ODをティックで示す（結論側の情報は載せない）。数値・設定: O(0,0) A(-1.7,1.1) B(1.7,-1.1) C(-1.3,-1.2) D(1.3,1.2)。白黒印刷向けのシンプルな教材図（SVG）としてかいて。」——この説明文を生成AIに渡せば同型の図を描かせられる。数値を変えれば類題用の図も作れる。</desc>
<!-- L07_fig1_two_segments_midpoint.svg | 中点Oで交わる2線分AB・CDと、結んだ線分AC・BD -->
<!-- generated by assets_provenance/generate_figures.py on 2026-07-18 (docs/SPEC_figures.md準拠・SVG直接編集禁止/スクリプト改修で再生成) -->
<rect x="0" y="0" width="420" height="250" fill="#fff"/>
<line x1="104.6" y1="49.8" x2="315.4" y2="186.2" stroke="#000" stroke-width="1.6"/>
<line x1="129.4" y1="192.4" x2="290.6" y2="43.6" stroke="#000" stroke-width="1.6"/>
<line x1="104.6" y1="49.8" x2="129.4" y2="192.4" stroke="#000" stroke-width="1.6"/>
<line x1="315.4" y1="186.2" x2="290.6" y2="43.6" stroke="#000" stroke-width="1.6"/>
<line x1="154.9" y1="87.7" x2="159.7" y2="80.1" stroke="#000" stroke-width="1.4"/>
<line x1="265.1" y1="148.3" x2="260.3" y2="155.9" stroke="#000" stroke-width="1.4"/>
<line x1="174.0" y1="157.3" x2="167.9" y2="150.7" stroke="#000" stroke-width="1.4"/>
<line x1="171.5" y1="159.7" x2="165.4" y2="153.1" stroke="#000" stroke-width="1.4"/>
<line x1="246.0" y1="78.7" x2="252.1" y2="85.3" stroke="#000" stroke-width="1.4"/>
<line x1="248.5" y1="76.3" x2="254.6" y2="82.9" stroke="#000" stroke-width="1.4"/>
<circle cx="104.6" cy="49.8" r="2.5" fill="#000"/>
<text x="92.0" y="46.2" font-size="13" text-anchor="middle" font-weight="bold">A</text>
<circle cx="315.4" cy="186.2" r="2.5" fill="#000"/>
<text x="328.0" y="198.9" font-size="13" text-anchor="middle" font-weight="bold">B</text>
<circle cx="129.4" cy="192.4" r="2.5" fill="#000"/>
<text x="118.4" y="207.1" font-size="13" text-anchor="middle" font-weight="bold">C</text>
<circle cx="290.6" cy="43.6" r="2.5" fill="#000"/>
<text x="301.6" y="38.0" font-size="13" text-anchor="middle" font-weight="bold">D</text>
<circle cx="210.0" cy="118.0" r="2.5" fill="#000"/>
<text x="218.0" y="110.0" font-size="13" text-anchor="start" font-weight="bold">O</text>
<text x="210.0" y="238.0" font-size="12" text-anchor="middle">線分AB・CDは、それぞれの中点Oで交わっている</text>
</svg>
