<svg xmlns="http://www.w3.org/2000/svg" viewBox="0 0 420 250">
<title>二等辺三角形と頂角・底辺・底角の名称</title>
<desc>【この図の意図】用語の整理図。仮定AB=ACのみティックで示し、底角の等しさはマークしない。【主要な数値・設定】A(0,2.7) B(-1.4,0) C(1.4,0)（AB=AC=3.04相当・正三角形ではない）。【AIに同じ種類の図を描かせるときの説明文】「二等辺三角形と頂角・底辺・底角の名称。用語の整理図。仮定AB=ACのみティックで示し、底角の等しさはマークしない。数値・設定: A(0,2.7) B(-1.4,0) C(1.4,0)（AB=AC=3.04相当・正三角形ではない）。白黒印刷向けのシンプルな教材図（SVG）としてかいて。」——この説明文を生成AIに渡せば同型の図を描かせられる。数値を変えれば類題用の図も作れる。</desc>
<!-- L08_fig1_isosceles_terms.svg | 二等辺三角形と頂角・底辺・底角の名称 -->
<!-- generated by assets_provenance/generate_figures.py on 2026-07-18 (docs/SPEC_figures.md準拠・SVG直接編集禁止/スクリプト改修で再生成) -->
<rect x="0" y="0" width="420" height="250" fill="#fff"/>
<polygon points="210.0,43.4 128.8,200.0 291.2,200.0" fill="none" stroke="#000" stroke-width="1.6" stroke-linejoin="round"/>
<text x="210.0" y="32.9" font-size="13" text-anchor="middle" font-weight="bold">A</text>
<text x="116.2" y="212.7" font-size="13" text-anchor="middle" font-weight="bold">B</text>
<text x="303.8" y="212.7" font-size="13" text-anchor="middle" font-weight="bold">C</text>
<line x1="173.4" y1="123.8" x2="165.4" y2="119.6" stroke="#000" stroke-width="1.4"/>
<line x1="254.6" y1="119.6" x2="246.6" y2="123.8" stroke="#000" stroke-width="1.4"/>
<polyline points="203.6,55.8 204.2,56.1 204.8,56.4 205.4,56.6 206.0,56.8 206.7,57.0 207.3,57.1 208.0,57.3 208.7,57.3 209.3,57.4 210.0,57.4 210.7,57.4 211.3,57.3 212.0,57.3 212.7,57.1 213.3,57.0 214.0,56.8 214.6,56.6 215.2,56.4 215.8,56.1 216.4,55.8" fill="none" stroke="#000" stroke-width="1.2"/>
<text x="210.0" y="91.6" font-size="12" text-anchor="middle">頂角</text>
<text x="210.0" y="220.4" font-size="12" text-anchor="middle">底辺</text>
<text x="163.0" y="183.4" font-size="12" text-anchor="middle">底角</text>
<text x="257.0" y="183.4" font-size="12" text-anchor="middle">底角</text>
<text x="210.0" y="238.0" font-size="12" text-anchor="middle">等しい2辺の間の角＝頂角、向かい合う辺＝底辺、底辺の両端＝底角</text>
</svg>
