<svg xmlns="http://www.w3.org/2000/svg" viewBox="0 0 420 250">
<title>頂角の二等分線ADで二等辺三角形を2つに割った図</title>
<desc>【この図の意図】底角の定理の証明図。仮定と作図（AB=AC・∠BAD=∠CAD）のみマークし、証明する内容は描かない。【主要な数値・設定】A(0,2.7) B(-1.4,0) C(1.4,0) D(0,0)（二等分線の足＝厳密に対称）。【AIに同じ種類の図を描かせるときの説明文】「頂角の二等分線ADで二等辺三角形を2つに割った図。底角の定理の証明図。仮定と作図（AB=AC・∠BAD=∠CAD）のみマークし、証明する内容は描かない。数値・設定: A(0,2.7) B(-1.4,0) C(1.4,0) D(0,0)（二等分線の足＝厳密に対称）。白黒印刷向けのシンプルな教材図（SVG）としてかいて。」——この説明文を生成AIに渡せば同型の図を描かせられる。数値を変えれば類題用の図も作れる。</desc>
<!-- L08_fig2_bisector_split.svg | 頂角の二等分線ADで二等辺三角形を2つに割った図 -->
<!-- generated by assets_provenance/generate_figures.py on 2026-07-18 (docs/SPEC_figures.md準拠・SVG直接編集禁止/スクリプト改修で再生成) -->
<rect x="0" y="0" width="420" height="250" fill="#fff"/>
<polygon points="210.0,43.4 128.8,200.0 291.2,200.0" fill="none" stroke="#000" stroke-width="1.6" stroke-linejoin="round"/>
<line x1="210.0" y1="43.4" x2="210.0" y2="200.0" stroke="#000" stroke-width="1.6"/>
<text x="210.0" y="32.9" font-size="13" text-anchor="middle" font-weight="bold">A</text>
<text x="116.2" y="212.7" font-size="13" text-anchor="middle" font-weight="bold">B</text>
<text x="303.8" y="212.7" font-size="13" text-anchor="middle" font-weight="bold">C</text>
<circle cx="210.0" cy="200.0" r="2.5" fill="#000"/>
<text x="210.0" y="216.0" font-size="13" text-anchor="middle" font-weight="bold">D</text>
<line x1="173.4" y1="123.8" x2="165.4" y2="119.6" stroke="#000" stroke-width="1.4"/>
<line x1="254.6" y1="119.6" x2="246.6" y2="123.8" stroke="#000" stroke-width="1.4"/>
<polyline points="199.9,62.9 200.3,63.2 200.8,63.4 201.3,63.6 201.8,63.8 202.3,64.0 202.8,64.2 203.3,64.3 203.8,64.5 204.3,64.6 204.8,64.8 205.3,64.9 205.8,65.0 206.3,65.1 206.9,65.2 207.4,65.2 207.9,65.3 208.4,65.3 208.9,65.4 209.5,65.4 210.0,65.4" fill="none" stroke="#000" stroke-width="1.2"/>
<polyline points="210.0,65.4 210.5,65.4 211.1,65.4 211.6,65.3 212.1,65.3 212.6,65.2 213.1,65.2 213.7,65.1 214.2,65.0 214.7,64.9 215.2,64.8 215.7,64.6 216.2,64.5 216.7,64.3 217.2,64.2 217.7,64.0 218.2,63.8 218.7,63.6 219.2,63.4 219.7,63.2 220.1,62.9" fill="none" stroke="#000" stroke-width="1.2"/>
<text x="210.0" y="238.0" font-size="12" text-anchor="middle">頂角∠Aの二等分線ADと底辺BCの交点をDとする（同じ弧＝等しい角）</text>
</svg>
