<svg xmlns="http://www.w3.org/2000/svg" viewBox="0 0 470 240">
<title>2つの直角三角形を背中合わせに貼って二等辺三角形を作る図</title>
<desc>【この図の意図】斜辺と他の1辺の条件の証明図。合成でAB=AGの二等辺三角形が現れる（角度数値なし）。【主要な数値・設定】直角をはさむ2辺1.9/2.5相当・合成図はB(-1.9,0) C(0,0) G(1.9,0) A(0,2.5)。【AIに同じ種類の図を描かせるときの説明文】「2つの直角三角形を背中合わせに貼って二等辺三角形を作る図。斜辺と他の1辺の条件の証明図。合成でAB=AGの二等辺三角形が現れる（角度数値なし）。数値・設定: 直角をはさむ2辺1.9/2.5相当・合成図はB(-1.9,0) C(0,0) G(1.9,0) A(0,2.5)。白黒印刷向けのシンプルな教材図（SVG）としてかいて。」——この説明文を生成AIに渡せば同型の図を描かせられる。数値を変えれば類題用の図も作れる。</desc>
<!-- L10_fig1_back_to_back.svg | 2つの直角三角形を背中合わせに貼って二等辺三角形を作る図 -->
<!-- generated by assets_provenance/generate_figures.py on 2026-07-18 (docs/SPEC_figures.md準拠・SVG直接編集禁止/スクリプト改修で再生成) -->
<rect x="0" y="0" width="470" height="240" fill="#fff"/>
<polygon points="80.0,105.0 15.4,190.0 80.0,190.0" fill="none" stroke="#000" stroke-width="1.6" stroke-linejoin="round"/>
<text x="85.3" y="95.5" font-size="13" text-anchor="middle" font-weight="bold">A</text>
<text x="2.9" y="202.8" font-size="13" text-anchor="middle" font-weight="bold">B</text>
<text x="89.1" y="206.5" font-size="13" text-anchor="middle" font-weight="bold">C</text>
<polyline points="71.0,190.0 71.0,181.0 80.0,181.0" fill="none" stroke="#000" stroke-width="1.2"/>
<line x1="51.3" y1="150.2" x2="44.1" y2="144.8" stroke="#000" stroke-width="1.4"/>
<line x1="84.5" y1="145.8" x2="75.5" y2="145.8" stroke="#000" stroke-width="1.4"/>
<line x1="84.5" y1="149.2" x2="75.5" y2="149.2" stroke="#000" stroke-width="1.4"/>
<polygon points="175.0,105.0 239.6,190.0 175.0,190.0" fill="none" stroke="#000" stroke-width="1.6" stroke-linejoin="round"/>
<text x="169.7" y="95.5" font-size="13" text-anchor="middle" font-weight="bold">D</text>
<text x="252.1" y="202.8" font-size="13" text-anchor="middle" font-weight="bold">E</text>
<text x="165.9" y="206.5" font-size="13" text-anchor="middle" font-weight="bold">F</text>
<polyline points="184.0,190.0 184.0,181.0 175.0,181.0" fill="none" stroke="#000" stroke-width="1.2"/>
<line x1="210.9" y1="144.8" x2="203.7" y2="150.2" stroke="#000" stroke-width="1.4"/>
<line x1="179.5" y1="145.8" x2="170.5" y2="145.8" stroke="#000" stroke-width="1.4"/>
<line x1="179.5" y1="149.2" x2="170.5" y2="149.2" stroke="#000" stroke-width="1.4"/>
<polygon points="350.0,105.0 285.4,190.0 414.6,190.0" fill="none" stroke="#000" stroke-width="1.6" stroke-linejoin="round"/>
<line x1="350.0" y1="105.0" x2="350.0" y2="190.0" stroke="#000" stroke-width="1.6"/>
<text x="350.0" y="94.5" font-size="13" text-anchor="middle" font-weight="bold">A</text>
<text x="271.7" y="200.6" font-size="13" text-anchor="middle" font-weight="bold">B</text>
<text x="428.3" y="200.6" font-size="13" text-anchor="middle" font-weight="bold">G</text>
<circle cx="350.0" cy="190.0" r="2.5" fill="#000"/>
<text x="350.0" y="206.0" font-size="13" text-anchor="middle" font-weight="bold">C</text>
<polyline points="341.0,190.0 341.0,181.0 350.0,181.0" fill="none" stroke="#000" stroke-width="1.2"/>
<line x1="321.3" y1="150.2" x2="314.1" y2="144.8" stroke="#000" stroke-width="1.4"/>
<line x1="385.9" y1="144.8" x2="378.7" y2="150.2" stroke="#000" stroke-width="1.4"/>
<text x="128.0" y="224.0" font-size="12" text-anchor="middle">△ABCと△DEF（斜辺と他の1辺が等しい）</text>
<text x="360.0" y="224.0" font-size="12" text-anchor="middle">DFをACに重ねて貼るとB・C・Gは一直線</text>
</svg>
