<svg xmlns="http://www.w3.org/2000/svg" viewBox="0 0 430 240">
<title>平行四辺形の対角線の交点Oと、向かい合う△OAB・△OCD</title>
<desc>【この図の意図】対角線の性質の証明図。証明済みの対辺相等と錯角のみマークし、OA=OC等は描かない。【主要な数値・設定】A(1.2,2.2) B(0,0) C(3.4,0) D(4.6,2.2)・O=対角線の交点(2.3,1.1)。【AIに同じ種類の図を描かせるときの説明文】「平行四辺形の対角線の交点Oと、向かい合う△OAB・△OCD。対角線の性質の証明図。証明済みの対辺相等と錯角のみマークし、OA=OC等は描かない。数値・設定: A(1.2,2.2) B(0,0) C(3.4,0) D(4.6,2.2)・O=対角線の交点(2.3,1.1)。白黒印刷向けのシンプルな教材図（SVG）としてかいて。」——この説明文を生成AIに渡せば同型の図を描かせられる。数値を変えれば類題用の図も作れる。</desc>
<!-- L11_fig2_diagonals_bisect.svg | 平行四辺形の対角線の交点Oと、向かい合う△OAB・△OCD -->
<!-- generated by assets_provenance/generate_figures.py on 2026-07-18 (docs/SPEC_figures.md準拠・SVG直接編集禁止/スクリプト改修で再生成) -->
<rect x="0" y="0" width="430" height="240" fill="#fff"/>
<defs><pattern id="hatch" width="6" height="6" patternUnits="userSpaceOnUse" patternTransform="rotate(45)"><line x1="0" y1="0" x2="0" y2="6" stroke="#999" stroke-width="1"/></pattern></defs><polygon points="192.2,119.6 121.8,49.2 45.0,190.0" fill="#e6e6e6" stroke="none"/>
<polygon points="192.2,119.6 262.6,190.0 339.4,49.2" fill="url(#hatch)" stroke="none"/>
<polygon points="121.8,49.2 45.0,190.0 262.6,190.0 339.4,49.2" fill="none" stroke="#000" stroke-width="1.6" stroke-linejoin="round"/>
<line x1="121.8" y1="49.2" x2="262.6" y2="190.0" stroke="#000" stroke-width="1.6"/>
<line x1="45.0" y1="190.0" x2="339.4" y2="49.2" stroke="#000" stroke-width="1.6"/>
<text x="111.2" y="43.1" font-size="13" text-anchor="middle" font-weight="bold">A</text>
<text x="31.5" y="201.0" font-size="13" text-anchor="middle" font-weight="bold">B</text>
<text x="273.2" y="205.2" font-size="13" text-anchor="middle" font-weight="bold">C</text>
<text x="352.9" y="47.3" font-size="13" text-anchor="middle" font-weight="bold">D</text>
<circle cx="192.2" cy="119.6" r="2.5" fill="#000"/>
<text x="196.2" y="110.6" font-size="13" text-anchor="start" font-weight="bold">O</text>
<line x1="87.4" y1="121.8" x2="79.4" y2="117.4" stroke="#000" stroke-width="1.4"/>
<line x1="305.0" y1="121.8" x2="297.0" y2="117.4" stroke="#000" stroke-width="1.4"/>
<polyline points="133.8,61.2 133.0,62.0 132.2,62.7 131.3,63.3 130.4,63.9 129.4,64.4 128.4,64.9 127.4,65.3 126.4,65.6 125.3,65.8 124.2,66.0 123.1,66.1 122.0,66.2 121.0,66.2 119.9,66.1 118.8,65.9 117.7,65.7 116.7,65.4 115.6,65.0 114.6,64.6 113.7,64.1" fill="none" stroke="#000" stroke-width="1.2"/>
<polyline points="250.6,178.0 251.4,177.2 252.2,176.5 253.1,175.9 254.0,175.3 255.0,174.8 256.0,174.3 257.0,173.9 258.0,173.6 259.1,173.4 260.2,173.2 261.3,173.1 262.4,173.0 263.4,173.0 264.5,173.1 265.6,173.3 266.7,173.5 267.7,173.8 268.8,174.2 269.8,174.6 270.7,175.1" fill="none" stroke="#000" stroke-width="1.2"/>
<polyline points="60.3,182.7 60.1,182.2 59.8,181.7 59.6,181.3 59.3,180.8 59.0,180.4 58.7,179.9 58.4,179.5 58.0,179.1 57.7,178.7 57.3,178.3 57.0,177.9 56.6,177.6 56.2,177.2 55.8,176.9 55.4,176.5 54.9,176.2 54.5,175.9 54.1,175.6 53.6,175.3 53.1,175.1" fill="none" stroke="#000" stroke-width="1.2"/>
<polyline points="63.5,181.2 63.2,180.6 62.9,180.0 62.6,179.5 62.2,178.9 61.9,178.4 61.5,177.9 61.1,177.4 60.7,176.9 60.3,176.4 59.9,175.9 59.4,175.4 59.0,175.0 58.5,174.6 58.0,174.1 57.5,173.8 57.0,173.4 56.5,173.0 55.9,172.7 55.4,172.3 54.8,172.0" fill="none" stroke="#000" stroke-width="1.2"/>
<polyline points="324.1,56.5 324.3,57.0 324.6,57.5 324.8,57.9 325.1,58.4 325.4,58.8 325.7,59.3 326.0,59.7 326.4,60.1 326.7,60.5 327.1,60.9 327.4,61.3 327.8,61.6 328.2,62.0 328.6,62.3 329.0,62.7 329.5,63.0 329.9,63.3 330.3,63.6 330.8,63.9 331.3,64.1" fill="none" stroke="#000" stroke-width="1.2"/>
<polyline points="320.9,58.0 321.2,58.6 321.5,59.2 321.8,59.7 322.2,60.3 322.5,60.8 322.9,61.3 323.3,61.8 323.7,62.3 324.1,62.8 324.5,63.3 325.0,63.8 325.4,64.2 325.9,64.6 326.4,65.1 326.9,65.4 327.4,65.8 327.9,66.2 328.5,66.5 329.0,66.9 329.6,67.2" fill="none" stroke="#000" stroke-width="1.2"/>
<text x="215.0" y="228.0" font-size="12" text-anchor="middle">向かい合う△OABと△OCD。ティック＝対辺相等（証明済み）、弧＝錯角</text>
</svg>
