<svg xmlns="http://www.w3.org/2000/svg" viewBox="0 0 430 240">
<title>平行四辺形ABCDに対角線ACを引き、錯角2組をマークした図</title>
<desc>【この図の意図】対辺相等の証明図。仮定（平行）から得る錯角のみマークし、証明する辺の等しさは描かない。【主要な数値・設定】A(1.2,2.2) B(0,0) C(3.4,0) D(4.6,2.2)（厳密な平行四辺形）。【AIに同じ種類の図を描かせるときの説明文】「平行四辺形ABCDに対角線ACを引き、錯角2組をマークした図。対辺相等の証明図。仮定（平行）から得る錯角のみマークし、証明する辺の等しさは描かない。数値・設定: A(1.2,2.2) B(0,0) C(3.4,0) D(4.6,2.2)（厳密な平行四辺形）。白黒印刷向けのシンプルな教材図（SVG）としてかいて。」——この説明文を生成AIに渡せば同型の図を描かせられる。数値を変えれば類題用の図も作れる。</desc>
<!-- L11_fig1_diagonal_split.svg | 平行四辺形ABCDに対角線ACを引き、錯角2組をマークした図 -->
<!-- generated by assets_provenance/generate_figures.py on 2026-07-18 (docs/SPEC_figures.md準拠・SVG直接編集禁止/スクリプト改修で再生成) -->
<rect x="0" y="0" width="430" height="240" fill="#fff"/>
<polygon points="121.8,49.2 45.0,190.0 262.6,190.0 339.4,49.2" fill="none" stroke="#000" stroke-width="1.6" stroke-linejoin="round"/>
<line x1="121.8" y1="49.2" x2="262.6" y2="190.0" stroke="#000" stroke-width="1.6"/>
<text x="111.2" y="43.1" font-size="13" text-anchor="middle" font-weight="bold">A</text>
<text x="31.5" y="201.0" font-size="13" text-anchor="middle" font-weight="bold">B</text>
<text x="273.2" y="205.2" font-size="13" text-anchor="middle" font-weight="bold">C</text>
<text x="352.9" y="47.3" font-size="13" text-anchor="middle" font-weight="bold">D</text>
<polyline points="113.2,65.0 114.2,65.5 115.3,66.0 116.4,66.4 117.5,66.7 118.6,66.9 119.8,67.1 120.9,67.2 122.1,67.2 123.2,67.1 124.4,67.0 125.5,66.8 126.6,66.5 127.7,66.2 128.8,65.8 129.9,65.3 130.9,64.7 131.9,64.1 132.8,63.5 133.7,62.7 134.5,61.9" fill="none" stroke="#000" stroke-width="1.2"/>
<polyline points="271.2,174.2 270.2,173.7 269.1,173.2 268.0,172.8 266.9,172.5 265.8,172.3 264.6,172.1 263.5,172.0 262.3,172.0 261.2,172.1 260.0,172.2 258.9,172.4 257.8,172.7 256.7,173.0 255.6,173.4 254.5,173.9 253.5,174.5 252.5,175.1 251.6,175.7 250.7,176.5 249.9,177.3" fill="none" stroke="#000" stroke-width="1.2"/>
<polyline points="236.6,190.0 236.6,189.0 236.7,188.0 236.8,186.9 236.9,185.9 237.1,184.9 237.3,183.9 237.6,182.9 237.9,182.0 238.2,181.0 238.6,180.1 239.0,179.1 239.4,178.2 239.9,177.3 240.4,176.4 241.0,175.6 241.6,174.7 242.2,173.9 242.8,173.1 243.5,172.4 244.2,171.6" fill="none" stroke="#000" stroke-width="1.2"/>
<polyline points="233.1,190.0 233.1,188.8 233.2,187.7 233.3,186.5 233.5,185.4 233.7,184.2 233.9,183.1 234.2,182.0 234.5,180.9 234.9,179.8 235.3,178.7 235.8,177.6 236.3,176.6 236.9,175.6 237.4,174.6 238.1,173.6 238.7,172.7 239.4,171.7 240.2,170.8 240.9,170.0 241.7,169.1" fill="none" stroke="#000" stroke-width="1.2"/>
<polyline points="147.8,49.2 147.8,50.2 147.7,51.2 147.6,52.3 147.5,53.3 147.3,54.3 147.1,55.3 146.8,56.3 146.5,57.2 146.2,58.2 145.8,59.1 145.4,60.1 145.0,61.0 144.5,61.9 144.0,62.8 143.4,63.6 142.8,64.5 142.2,65.3 141.6,66.1 140.9,66.8 140.2,67.6" fill="none" stroke="#000" stroke-width="1.2"/>
<polyline points="151.3,49.2 151.3,50.4 151.2,51.5 151.1,52.7 150.9,53.8 150.7,55.0 150.5,56.1 150.2,57.2 149.9,58.3 149.5,59.4 149.1,60.5 148.6,61.6 148.1,62.6 147.5,63.6 147.0,64.6 146.3,65.6 145.7,66.5 145.0,67.5 144.2,68.4 143.5,69.2 142.7,70.1" fill="none" stroke="#000" stroke-width="1.2"/>
<text x="215.0" y="228.0" font-size="12" text-anchor="middle">対角線ACを引く。同じ本数の弧＝錯角の組（1重: AB//DC、2重: AD//BC）</text>
</svg>
