<svg xmlns="http://www.w3.org/2000/svg" viewBox="0 0 430 240">
<title>対角線ACで分けた2つの三角形と、合同から取り出す錯角</title>
<desc>【この図の意図】条件2の証明図。仮定の対辺相等のみティックで示し、証明する平行は描かない。【主要な数値・設定】A(1.2,2.2) B(0,0) C(3.4,0) D(4.6,2.2)（L11と同一座標・マークのみ変更）。【AIに同じ種類の図を描かせるときの説明文】「対角線ACで分けた2つの三角形と、合同から取り出す錯角。条件2の証明図。仮定の対辺相等のみティックで示し、証明する平行は描かない。数値・設定: A(1.2,2.2) B(0,0) C(3.4,0) D(4.6,2.2)（L11と同一座標・マークのみ変更）。白黒印刷向けのシンプルな教材図（SVG）としてかいて。」——この説明文を生成AIに渡せば同型の図を描かせられる。数値を変えれば類題用の図も作れる。</desc>
<!-- L12_fig1_sss_to_parallel.svg | 対角線ACで分けた2つの三角形と、合同から取り出す錯角 -->
<!-- generated by assets_provenance/generate_figures.py on 2026-07-18 (docs/SPEC_figures.md準拠・SVG直接編集禁止/スクリプト改修で再生成) -->
<rect x="0" y="0" width="430" height="240" fill="#fff"/>
<polygon points="121.8,49.2 45.0,190.0 262.6,190.0 339.4,49.2" fill="none" stroke="#000" stroke-width="1.6" stroke-linejoin="round"/>
<line x1="121.8" y1="49.2" x2="262.6" y2="190.0" stroke="#000" stroke-width="1.6"/>
<text x="111.2" y="43.1" font-size="13" text-anchor="middle" font-weight="bold">A</text>
<text x="31.5" y="201.0" font-size="13" text-anchor="middle" font-weight="bold">B</text>
<text x="273.2" y="205.2" font-size="13" text-anchor="middle" font-weight="bold">C</text>
<text x="352.9" y="47.3" font-size="13" text-anchor="middle" font-weight="bold">D</text>
<line x1="87.4" y1="121.8" x2="79.4" y2="117.4" stroke="#000" stroke-width="1.4"/>
<line x1="297.0" y1="117.4" x2="305.0" y2="121.8" stroke="#000" stroke-width="1.4"/>
<line x1="228.8" y1="44.7" x2="228.8" y2="53.7" stroke="#000" stroke-width="1.4"/>
<line x1="232.3" y1="44.7" x2="232.3" y2="53.7" stroke="#000" stroke-width="1.4"/>
<line x1="155.6" y1="194.5" x2="155.6" y2="185.5" stroke="#000" stroke-width="1.4"/>
<line x1="152.1" y1="194.5" x2="152.1" y2="185.5" stroke="#000" stroke-width="1.4"/>
<polyline points="113.2,65.0 114.2,65.5 115.3,66.0 116.4,66.4 117.5,66.7 118.6,66.9 119.8,67.1 120.9,67.2 122.1,67.2 123.2,67.1 124.4,67.0 125.5,66.8 126.6,66.5 127.7,66.2 128.8,65.8 129.9,65.3 130.9,64.7 131.9,64.1 132.8,63.5 133.7,62.7 134.5,61.9" fill="none" stroke="#000" stroke-width="1.2"/>
<polyline points="271.2,174.2 270.2,173.7 269.1,173.2 268.0,172.8 266.9,172.5 265.8,172.3 264.6,172.1 263.5,172.0 262.3,172.0 261.2,172.1 260.0,172.2 258.9,172.4 257.8,172.7 256.7,173.0 255.6,173.4 254.5,173.9 253.5,174.5 252.5,175.1 251.6,175.7 250.7,176.5 249.9,177.3" fill="none" stroke="#000" stroke-width="1.2"/>
<text x="215.0" y="228.0" font-size="12" text-anchor="middle">仮定: AB=CD（1本）・AD=CB（2本）。弧＝合同から取り出す角</text>
</svg>
