<svg xmlns="http://www.w3.org/2000/svg" viewBox="0 0 440 332">
<title>四角形・平行四辺形・長方形・ひし形・正方形の包含関係図</title>
<desc>【この図の意図】包含関係の整理図。入れ子の枠と代表図形のシルエットで示す（台形は描かない）。【主要な数値・設定】枠4つ+重なり領域・シルエット5種は幾何検算済み（正方形=4辺相等かつ4直角など）。【AIに同じ種類の図を描かせるときの説明文】「四角形・平行四辺形・長方形・ひし形・正方形の包含関係図。包含関係の整理図。入れ子の枠と代表図形のシルエットで示す（台形は描かない）。数値・設定: 枠4つ+重なり領域・シルエット5種は幾何検算済み（正方形=4辺相等かつ4直角など）。白黒印刷向けのシンプルな教材図（SVG）としてかいて。」——この説明文を生成AIに渡せば同型の図を描かせられる。数値を変えれば類題用の図も作れる。</desc>
<!-- L13_fig2_inclusion_map.svg | 四角形・平行四辺形・長方形・ひし形・正方形の包含関係図 -->
<!-- generated by assets_provenance/generate_figures.py on 2026-07-18 (docs/SPEC_figures.md準拠・SVG直接編集禁止/スクリプト改修で再生成) -->
<rect x="0" y="0" width="440" height="332" fill="#fff"/>
<rect x="8" y="26" width="424" height="296" fill="none" stroke="#000" stroke-width="1.6" rx="6"/>
<text x="18.0" y="46.0" font-size="13" text-anchor="start" font-weight="bold">四角形</text>
<rect x="24" y="96" width="392" height="218" fill="none" stroke="#000" stroke-width="1.6" rx="6"/>
<text x="34.0" y="116.0" font-size="13" text-anchor="start" font-weight="bold">平行四辺形</text>
<rect x="40" y="150" width="230" height="152" fill="none" stroke="#000" stroke-width="1.6" rx="6"/>
<text x="50.0" y="170.0" font-size="13" text-anchor="start" font-weight="bold">長方形</text>
<rect x="185" y="150" width="215" height="152" fill="none" stroke="#000" stroke-width="1.6" stroke-dasharray="6 4" rx="6"/>
<text x="358.0" y="170.0" font-size="13" text-anchor="start" font-weight="bold">ひし形</text>
<text x="227.5" y="176.0" font-size="13" text-anchor="middle" font-weight="bold">正方形</text>
<text x="227.5" y="194.0" font-size="10" text-anchor="middle">（重なり）</text>
<polygon points="300.0,81.0 345.0,84.0 351.0,54.0 315.0,42.0" fill="#e6e6e6" stroke="#000" stroke-width="1.2" stroke-linejoin="round"/>
<polygon points="289.1,144.0 325.5,144.0 316.4,118.0 280.0,118.0" fill="#e6e6e6" stroke="#000" stroke-width="1.2" stroke-linejoin="round"/>
<polygon points="66.0,262.0 120.4,262.0 120.4,228.0 66.0,228.0" fill="#e6e6e6" stroke="#000" stroke-width="1.2" stroke-linejoin="round"/>
<polygon points="324.0,282.0 342.0,253.2 324.0,224.4 306.0,253.2" fill="#e6e6e6" stroke="#000" stroke-width="1.2" stroke-linejoin="round"/>
<polygon points="193.0,262.0 235.0,262.0 235.0,220.0 193.0,220.0" fill="#e6e6e6" stroke="#000" stroke-width="1.2" stroke-linejoin="round"/>
</svg>
