<svg xmlns="http://www.w3.org/2000/svg" viewBox="0 0 420 292">
<title>ひし形の対角線と、合同を使う2つの三角形</title>
<desc>【この図の意図】対角線垂直の証明図。定義（4辺相等）のみマークし、証明する直角は描かない。【主要な数値・設定】対角線の半分1.3/1.9（4辺=2.302相当・正方形ではない）。【AIに同じ種類の図を描かせるときの説明文】「ひし形の対角線と、合同を使う2つの三角形。対角線垂直の証明図。定義（4辺相等）のみマークし、証明する直角は描かない。数値・設定: 対角線の半分1.3/1.9（4辺=2.302相当・正方形ではない）。白黒印刷向けのシンプルな教材図（SVG）としてかいて。」——この説明文を生成AIに渡せば同型の図を描かせられる。数値を変えれば類題用の図も作れる。</desc>
<!-- L13_fig1_rhombus_diagonals.svg | ひし形の対角線と、合同を使う2つの三角形 -->
<!-- generated by assets_provenance/generate_figures.py on 2026-07-18 (docs/SPEC_figures.md準拠・SVG直接編集禁止/スクリプト改修で再生成) -->
<rect x="0" y="0" width="420" height="292" fill="#fff"/>
<defs><pattern id="hatch" width="6" height="6" patternUnits="userSpaceOnUse" patternTransform="rotate(45)"><line x1="0" y1="0" x2="0" y2="6" stroke="#999" stroke-width="1"/></pattern></defs><polygon points="210.0,21.6 137.2,128.0 210.0,128.0" fill="#e6e6e6" stroke="none"/>
<polygon points="210.0,234.4 137.2,128.0 210.0,128.0" fill="url(#hatch)" stroke="none"/>
<polygon points="210.0,21.6 137.2,128.0 210.0,234.4 282.8,128.0" fill="none" stroke="#000" stroke-width="1.6" stroke-linejoin="round"/>
<line x1="210.0" y1="21.6" x2="210.0" y2="234.4" stroke="#000" stroke-width="1.6"/>
<line x1="137.2" y1="128.0" x2="282.8" y2="128.0" stroke="#000" stroke-width="1.6"/>
<text x="210.0" y="11.2" font-size="13" text-anchor="middle" font-weight="bold">A</text>
<text x="122.2" y="132.6" font-size="13" text-anchor="middle" font-weight="bold">B</text>
<text x="210.0" y="253.9" font-size="13" text-anchor="middle" font-weight="bold">C</text>
<text x="297.8" y="132.6" font-size="13" text-anchor="middle" font-weight="bold">D</text>
<circle cx="210.0" cy="128.0" r="2.5" fill="#000"/>
<text x="217.0" y="120.0" font-size="13" text-anchor="start" font-weight="bold">O</text>
<line x1="177.3" y1="77.3" x2="169.9" y2="72.3" stroke="#000" stroke-width="1.4"/>
<line x1="177.3" y1="178.7" x2="169.9" y2="183.7" stroke="#000" stroke-width="1.4"/>
<line x1="242.7" y1="178.7" x2="250.1" y2="183.7" stroke="#000" stroke-width="1.4"/>
<line x1="242.7" y1="77.3" x2="250.1" y2="72.3" stroke="#000" stroke-width="1.4"/>
<text x="210.0" y="280.0" font-size="12" text-anchor="middle">4辺が等しいひし形。塗り分けた△ABOと△CBOの合同に注目する</text>
</svg>
