<svg xmlns="http://www.w3.org/2000/svg" viewBox="0 0 340 352">
<title>温度計の目盛り（0℃の境目と−3℃・＋5℃の対）</title>
<desc>【この図の意図】負の数の最初の実物イメージ。0℃の上下に目盛りが続くことを見せる。【主要な数値・設定】目盛り−10℃〜＋10℃・マーカー−3℃と＋5℃・0℃太線に「境目」。【AIに同じ種類の図を描かせるときの説明文】「温度計の目盛り（0℃の境目と−3℃・＋5℃の対）。負の数の最初の実物イメージ。0℃の上下に目盛りが続くことを見せる。数値・設定: 目盛り−10℃〜＋10℃・マーカー−3℃と＋5℃・0℃太線に「境目」。白黒印刷向けのシンプルな教材図（SVG）としてかいて。」——この説明文を生成AIに渡せば同型の図を描かせられる。数値を変えれば類題用の図も作れる。</desc>
<!-- L01_fig1_thermometer.svg | 温度計の目盛り（0℃の境目と−3℃・＋5℃の対） -->
<!-- generated by assets_provenance/generate_figures.py on 2026-07-20 (SVG直接編集禁止/スクリプト改修で再生成) -->
<rect x="0" y="0" width="340" height="352" fill="#fff"/>
<rect x="111.0" y="16.0" width="18.0" height="274.0" rx="9" fill="#fff" stroke="#000" stroke-width="1.6"/>
<polyline points="135.0,308.0 134.9,309.3 134.8,310.6 134.5,311.9 134.1,313.1 133.6,314.3 133.0,315.5 132.3,316.6 131.5,317.6 130.6,318.6 129.6,319.5 128.6,320.3 127.5,321.0 126.3,321.6 125.1,322.1 123.9,322.5 122.6,322.8 121.3,322.9 120.0,323.0 118.7,322.9 117.4,322.8 116.1,322.5 114.9,322.1 113.7,321.6 112.5,321.0 111.4,320.3 110.4,319.5 109.4,318.6 108.5,317.6 107.7,316.6 107.0,315.5 106.4,314.3 105.9,313.1 105.5,311.9 105.2,310.6 105.1,309.3 105.0,308.0 105.1,306.7 105.2,305.4 105.5,304.1 105.9,302.9 106.4,301.7 107.0,300.5 107.7,299.4 108.5,298.4 109.4,297.4 110.4,296.5 111.4,295.7 112.5,295.0 113.7,294.4 114.9,293.9 116.1,293.5 117.4,293.2 118.7,293.1 120.0,293.0 121.3,293.1 122.6,293.2 123.9,293.5 125.1,293.9 126.3,294.4 127.5,295.0 128.6,295.7 129.6,296.5 130.6,297.4 131.5,298.4 132.3,299.4 133.0,300.5 133.6,301.7 134.1,302.9 134.5,304.1 134.8,305.4 134.9,306.7 135.0,308.0" fill="none" stroke="#000" stroke-width="1.6"/>
<circle cx="120" cy="308" r="9" fill="#999"/>
<line x1="129" y1="278.0" x2="143" y2="278.0" stroke="#000" stroke-width="1.1"/>
<text x="104.0" y="282.0" font-size="11" text-anchor="end">−10℃</text>
<line x1="129" y1="265.5" x2="136" y2="265.5" stroke="#000" stroke-width="1.1"/>
<line x1="129" y1="253.0" x2="136" y2="253.0" stroke="#000" stroke-width="1.1"/>
<line x1="129" y1="240.5" x2="136" y2="240.5" stroke="#000" stroke-width="1.1"/>
<line x1="129" y1="228.0" x2="136" y2="228.0" stroke="#000" stroke-width="1.1"/>
<line x1="129" y1="215.5" x2="143" y2="215.5" stroke="#000" stroke-width="1.1"/>
<text x="104.0" y="219.5" font-size="11" text-anchor="end">−5℃</text>
<line x1="129" y1="203.0" x2="136" y2="203.0" stroke="#000" stroke-width="1.1"/>
<line x1="129" y1="190.5" x2="136" y2="190.5" stroke="#000" stroke-width="1.1"/>
<line x1="129" y1="178.0" x2="136" y2="178.0" stroke="#000" stroke-width="1.1"/>
<line x1="129" y1="165.5" x2="136" y2="165.5" stroke="#000" stroke-width="1.1"/>
<line x1="129" y1="153.0" x2="143" y2="153.0" stroke="#000" stroke-width="1.1"/>
<text x="104.0" y="157.0" font-size="11" text-anchor="end">0℃</text>
<line x1="129" y1="140.5" x2="136" y2="140.5" stroke="#000" stroke-width="1.1"/>
<line x1="129" y1="128.0" x2="136" y2="128.0" stroke="#000" stroke-width="1.1"/>
<line x1="129" y1="115.5" x2="136" y2="115.5" stroke="#000" stroke-width="1.1"/>
<line x1="129" y1="103.0" x2="136" y2="103.0" stroke="#000" stroke-width="1.1"/>
<line x1="129" y1="90.5" x2="143" y2="90.5" stroke="#000" stroke-width="1.1"/>
<text x="104.0" y="94.5" font-size="11" text-anchor="end">＋5℃</text>
<line x1="129" y1="78.0" x2="136" y2="78.0" stroke="#000" stroke-width="1.1"/>
<line x1="129" y1="65.5" x2="136" y2="65.5" stroke="#000" stroke-width="1.1"/>
<line x1="129" y1="53.0" x2="136" y2="53.0" stroke="#000" stroke-width="1.1"/>
<line x1="129" y1="40.5" x2="136" y2="40.5" stroke="#000" stroke-width="1.1"/>
<line x1="129" y1="28.0" x2="143" y2="28.0" stroke="#000" stroke-width="1.1"/>
<text x="104.0" y="32.0" font-size="11" text-anchor="end">＋10℃</text>
<line x1="111" y1="153.0" x2="129" y2="153.0" stroke="#000" stroke-width="3.2"/>
<text x="182.0" y="157.0" font-size="13" text-anchor="start" font-weight="bold">境目</text>
<line x1="178.0" y1="153.0" x2="152.0" y2="153.0" stroke="#000" stroke-width="1.1"/>
<polygon points="146.0,153.0 152.0,150.3 152.0,155.7" fill="#000"/>
<circle cx="120" cy="190.5" r="4" fill="#000"/>
<line x1="196.0" y1="190.5" x2="157.0" y2="190.5" stroke="#000" stroke-width="1.4"/>
<polygon points="150.0,190.5 157.0,187.3 157.0,193.7" fill="#000"/>
<text x="202.0" y="195.0" font-size="14" text-anchor="start" font-weight="bold">−3℃</text>
<circle cx="120" cy="90.5" r="4" fill="#000"/>
<line x1="196.0" y1="90.5" x2="157.0" y2="90.5" stroke="#000" stroke-width="1.4"/>
<polygon points="150.0,90.5 157.0,87.3 157.0,93.7" fill="#000"/>
<text x="202.0" y="95.0" font-size="14" text-anchor="start" font-weight="bold">＋5℃</text>
<text x="202.0" y="63.2" font-size="11.5" text-anchor="start">0より高い＝＋</text>
<text x="202.0" y="232.0" font-size="11.5" text-anchor="start">0より低い＝−</text>
<text x="170.0" y="344.0" font-size="12" text-anchor="middle">目盛りは0℃の上にも下にも同じ間隔で続いていく</text>
</svg>
