<svg xmlns="http://www.w3.org/2000/svg" viewBox="0 0 480 130">
<title>練習1の読み取り数直線（点A〜D、1目盛り0.5の補助目盛りつき）</title>
<desc>【この図の意図】練習1用。点の位置は答えそのものなので文字ラベルのみで数値は書かない。【主要な数値・設定】−6〜＋6・補助目盛り0.5／A〜Dの値はassertでのみ照合（図に非記載）。【AIに同じ種類の図を描かせるときの説明文】「練習1の読み取り数直線（点A〜D、1目盛り0.5の補助目盛りつき）。練習1用。点の位置は答えそのものなので文字ラベルのみで数値は書かない。数値・設定: −6〜＋6・補助目盛り0.5／A〜Dの値はassertでのみ照合（図に非記載）。白黒印刷向けのシンプルな教材図（SVG）としてかいて。」——この説明文を生成AIに渡せば同型の図を描かせられる。数値を変えれば類題用の図も作れる。</desc>
<!-- L02_fig2_practice_number_line.svg | 練習1の読み取り数直線（点A〜D、1目盛り0.5の補助目盛りつき） -->
<!-- generated by assets_provenance/generate_figures.py on 2026-07-20 (SVG直接編集禁止/スクリプト改修で再生成) -->
<rect x="0" y="0" width="480" height="130" fill="#fff"/>
<line x1="40.0" y1="66.0" x2="447.0" y2="66.0" stroke="#000" stroke-width="1.6"/>
<polygon points="454.0,66.0 447.0,69.2 447.0,62.9" fill="#000"/>
<line x1="440.0" y1="66.0" x2="33.0" y2="66.0" stroke="#000" stroke-width="1.6"/>
<polygon points="26.0,66.0 33.0,62.9 33.0,69.2" fill="#000"/>
<line x1="40.0" y1="63.0" x2="40.0" y2="69.0" stroke="#000" stroke-width="0.8800000000000001"/>
<line x1="56.7" y1="63.0" x2="56.7" y2="69.0" stroke="#000" stroke-width="0.8800000000000001"/>
<line x1="73.3" y1="63.0" x2="73.3" y2="69.0" stroke="#000" stroke-width="0.8800000000000001"/>
<line x1="90.0" y1="63.0" x2="90.0" y2="69.0" stroke="#000" stroke-width="0.8800000000000001"/>
<line x1="106.7" y1="63.0" x2="106.7" y2="69.0" stroke="#000" stroke-width="0.8800000000000001"/>
<line x1="123.3" y1="63.0" x2="123.3" y2="69.0" stroke="#000" stroke-width="0.8800000000000001"/>
<line x1="140.0" y1="63.0" x2="140.0" y2="69.0" stroke="#000" stroke-width="0.8800000000000001"/>
<line x1="156.7" y1="63.0" x2="156.7" y2="69.0" stroke="#000" stroke-width="0.8800000000000001"/>
<line x1="173.3" y1="63.0" x2="173.3" y2="69.0" stroke="#000" stroke-width="0.8800000000000001"/>
<line x1="190.0" y1="63.0" x2="190.0" y2="69.0" stroke="#000" stroke-width="0.8800000000000001"/>
<line x1="206.7" y1="63.0" x2="206.7" y2="69.0" stroke="#000" stroke-width="0.8800000000000001"/>
<line x1="223.3" y1="63.0" x2="223.3" y2="69.0" stroke="#000" stroke-width="0.8800000000000001"/>
<line x1="240.0" y1="63.0" x2="240.0" y2="69.0" stroke="#000" stroke-width="0.8800000000000001"/>
<line x1="256.7" y1="63.0" x2="256.7" y2="69.0" stroke="#000" stroke-width="0.8800000000000001"/>
<line x1="273.3" y1="63.0" x2="273.3" y2="69.0" stroke="#000" stroke-width="0.8800000000000001"/>
<line x1="290.0" y1="63.0" x2="290.0" y2="69.0" stroke="#000" stroke-width="0.8800000000000001"/>
<line x1="306.7" y1="63.0" x2="306.7" y2="69.0" stroke="#000" stroke-width="0.8800000000000001"/>
<line x1="323.3" y1="63.0" x2="323.3" y2="69.0" stroke="#000" stroke-width="0.8800000000000001"/>
<line x1="340.0" y1="63.0" x2="340.0" y2="69.0" stroke="#000" stroke-width="0.8800000000000001"/>
<line x1="356.7" y1="63.0" x2="356.7" y2="69.0" stroke="#000" stroke-width="0.8800000000000001"/>
<line x1="373.3" y1="63.0" x2="373.3" y2="69.0" stroke="#000" stroke-width="0.8800000000000001"/>
<line x1="390.0" y1="63.0" x2="390.0" y2="69.0" stroke="#000" stroke-width="0.8800000000000001"/>
<line x1="406.7" y1="63.0" x2="406.7" y2="69.0" stroke="#000" stroke-width="0.8800000000000001"/>
<line x1="423.3" y1="63.0" x2="423.3" y2="69.0" stroke="#000" stroke-width="0.8800000000000001"/>
<line x1="440.0" y1="63.0" x2="440.0" y2="69.0" stroke="#000" stroke-width="0.8800000000000001"/>
<line x1="40.0" y1="61.0" x2="40.0" y2="71.0" stroke="#000" stroke-width="1.1"/>
<text x="40.0" y="84.0" font-size="11" text-anchor="middle">−6</text>
<line x1="73.3" y1="61.0" x2="73.3" y2="71.0" stroke="#000" stroke-width="1.1"/>
<text x="73.3" y="84.0" font-size="11" text-anchor="middle">−5</text>
<line x1="106.7" y1="61.0" x2="106.7" y2="71.0" stroke="#000" stroke-width="1.1"/>
<text x="106.7" y="84.0" font-size="11" text-anchor="middle">−4</text>
<line x1="140.0" y1="61.0" x2="140.0" y2="71.0" stroke="#000" stroke-width="1.1"/>
<text x="140.0" y="84.0" font-size="11" text-anchor="middle">−3</text>
<line x1="173.3" y1="61.0" x2="173.3" y2="71.0" stroke="#000" stroke-width="1.1"/>
<text x="173.3" y="84.0" font-size="11" text-anchor="middle">−2</text>
<line x1="206.7" y1="61.0" x2="206.7" y2="71.0" stroke="#000" stroke-width="1.1"/>
<text x="206.7" y="84.0" font-size="11" text-anchor="middle">−1</text>
<line x1="240.0" y1="61.0" x2="240.0" y2="71.0" stroke="#000" stroke-width="1.1"/>
<text x="240.0" y="84.0" font-size="11" text-anchor="middle">0</text>
<line x1="273.3" y1="61.0" x2="273.3" y2="71.0" stroke="#000" stroke-width="1.1"/>
<text x="273.3" y="84.0" font-size="11" text-anchor="middle">＋1</text>
<line x1="306.7" y1="61.0" x2="306.7" y2="71.0" stroke="#000" stroke-width="1.1"/>
<text x="306.7" y="84.0" font-size="11" text-anchor="middle">＋2</text>
<line x1="340.0" y1="61.0" x2="340.0" y2="71.0" stroke="#000" stroke-width="1.1"/>
<text x="340.0" y="84.0" font-size="11" text-anchor="middle">＋3</text>
<line x1="373.3" y1="61.0" x2="373.3" y2="71.0" stroke="#000" stroke-width="1.1"/>
<text x="373.3" y="84.0" font-size="11" text-anchor="middle">＋4</text>
<line x1="406.7" y1="61.0" x2="406.7" y2="71.0" stroke="#000" stroke-width="1.1"/>
<text x="406.7" y="84.0" font-size="11" text-anchor="middle">＋5</text>
<line x1="440.0" y1="61.0" x2="440.0" y2="71.0" stroke="#000" stroke-width="1.1"/>
<text x="440.0" y="84.0" font-size="11" text-anchor="middle">＋6</text>
<circle cx="106.7" cy="66" r="3.0" fill="#000"/>
<text x="106.7" y="54.0" font-size="14" text-anchor="middle" font-weight="bold">A</text>
<circle cx="323.3" cy="66" r="3.0" fill="#000"/>
<text x="323.3" y="54.0" font-size="14" text-anchor="middle" font-weight="bold">B</text>
<circle cx="190.0" cy="66" r="3.0" fill="#000"/>
<text x="190.0" y="54.0" font-size="14" text-anchor="middle" font-weight="bold">C</text>
<circle cx="406.7" cy="66" r="3.0" fill="#000"/>
<text x="406.7" y="54.0" font-size="14" text-anchor="middle" font-weight="bold">D</text>
<text x="240.0" y="116.0" font-size="12" text-anchor="middle">小さい目盛りは1目盛り0.5（点の表す数を読み取ろう）</text>
</svg>
