<svg xmlns="http://www.w3.org/2000/svg" viewBox="0 0 480 250">
<title>数直線の左への延長（原点・正の方向・負の方向）</title>
<desc>【この図の意図】0の右だけだった数直線が左へ延びる様子を上下2段で対比する。【主要な数値・設定】上段0〜6・下段−6〜＋6・点は−3.5と＋2.5・上下の0を点線で連結。【AIに同じ種類の図を描かせるときの説明文】「数直線の左への延長（原点・正の方向・負の方向）。0の右だけだった数直線が左へ延びる様子を上下2段で対比する。数値・設定: 上段0〜6・下段−6〜＋6・点は−3.5と＋2.5・上下の0を点線で連結。白黒印刷向けのシンプルな教材図（SVG）としてかいて。」——この説明文を生成AIに渡せば同型の図を描かせられる。数値を変えれば類題用の図も作れる。</desc>
<!-- L02_fig1_number_line.svg | 数直線の左への延長（原点・正の方向・負の方向） -->
<!-- generated by assets_provenance/generate_figures.py on 2026-07-20 (SVG直接編集禁止/スクリプト改修で再生成) -->
<rect x="0" y="0" width="480" height="250" fill="#fff"/>
<text x="28.0" y="24.0" font-size="12" text-anchor="start">小学校の数直線（0の右だけ）</text>
<line x1="240.0" y1="60.0" x2="447.0" y2="60.0" stroke="#000" stroke-width="1.6"/>
<polygon points="454.0,60.0 447.0,63.1 447.0,56.9" fill="#000"/>
<line x1="240.0" y1="55" x2="240.0" y2="65" stroke="#000" stroke-width="1.1"/>
<text x="240.0" y="78.0" font-size="11" text-anchor="middle">0</text>
<line x1="273.3" y1="55" x2="273.3" y2="65" stroke="#000" stroke-width="1.1"/>
<text x="273.3" y="78.0" font-size="11" text-anchor="middle">1</text>
<line x1="306.7" y1="55" x2="306.7" y2="65" stroke="#000" stroke-width="1.1"/>
<text x="306.7" y="78.0" font-size="11" text-anchor="middle">2</text>
<line x1="340.0" y1="55" x2="340.0" y2="65" stroke="#000" stroke-width="1.1"/>
<text x="340.0" y="78.0" font-size="11" text-anchor="middle">3</text>
<line x1="373.3" y1="55" x2="373.3" y2="65" stroke="#000" stroke-width="1.1"/>
<text x="373.3" y="78.0" font-size="11" text-anchor="middle">4</text>
<line x1="406.7" y1="55" x2="406.7" y2="65" stroke="#000" stroke-width="1.1"/>
<text x="406.7" y="78.0" font-size="11" text-anchor="middle">5</text>
<line x1="440.0" y1="55" x2="440.0" y2="65" stroke="#000" stroke-width="1.1"/>
<text x="440.0" y="78.0" font-size="11" text-anchor="middle">6</text>
<text x="28.0" y="122.0" font-size="12" text-anchor="start">中学の数直線（0の左へも延長）</text>
<line x1="40.0" y1="158.0" x2="447.0" y2="158.0" stroke="#000" stroke-width="1.6"/>
<polygon points="454.0,158.0 447.0,161.2 447.0,154.8" fill="#000"/>
<line x1="440.0" y1="158.0" x2="33.0" y2="158.0" stroke="#000" stroke-width="1.6"/>
<polygon points="26.0,158.0 33.0,154.8 33.0,161.2" fill="#000"/>
<line x1="40.0" y1="153.0" x2="40.0" y2="163.0" stroke="#000" stroke-width="1.1"/>
<text x="40.0" y="176.0" font-size="11" text-anchor="middle">−6</text>
<line x1="73.3" y1="153.0" x2="73.3" y2="163.0" stroke="#000" stroke-width="1.1"/>
<text x="73.3" y="176.0" font-size="11" text-anchor="middle">−5</text>
<line x1="106.7" y1="153.0" x2="106.7" y2="163.0" stroke="#000" stroke-width="1.1"/>
<text x="106.7" y="176.0" font-size="11" text-anchor="middle">−4</text>
<line x1="140.0" y1="153.0" x2="140.0" y2="163.0" stroke="#000" stroke-width="1.1"/>
<text x="140.0" y="176.0" font-size="11" text-anchor="middle">−3</text>
<line x1="173.3" y1="153.0" x2="173.3" y2="163.0" stroke="#000" stroke-width="1.1"/>
<text x="173.3" y="176.0" font-size="11" text-anchor="middle">−2</text>
<line x1="206.7" y1="153.0" x2="206.7" y2="163.0" stroke="#000" stroke-width="1.1"/>
<text x="206.7" y="176.0" font-size="11" text-anchor="middle">−1</text>
<line x1="240.0" y1="153.0" x2="240.0" y2="163.0" stroke="#000" stroke-width="1.1"/>
<text x="240.0" y="176.0" font-size="11" text-anchor="middle">0</text>
<line x1="273.3" y1="153.0" x2="273.3" y2="163.0" stroke="#000" stroke-width="1.1"/>
<text x="273.3" y="176.0" font-size="11" text-anchor="middle">＋1</text>
<line x1="306.7" y1="153.0" x2="306.7" y2="163.0" stroke="#000" stroke-width="1.1"/>
<text x="306.7" y="176.0" font-size="11" text-anchor="middle">＋2</text>
<line x1="340.0" y1="153.0" x2="340.0" y2="163.0" stroke="#000" stroke-width="1.1"/>
<text x="340.0" y="176.0" font-size="11" text-anchor="middle">＋3</text>
<line x1="373.3" y1="153.0" x2="373.3" y2="163.0" stroke="#000" stroke-width="1.1"/>
<text x="373.3" y="176.0" font-size="11" text-anchor="middle">＋4</text>
<line x1="406.7" y1="153.0" x2="406.7" y2="163.0" stroke="#000" stroke-width="1.1"/>
<text x="406.7" y="176.0" font-size="11" text-anchor="middle">＋5</text>
<line x1="440.0" y1="153.0" x2="440.0" y2="163.0" stroke="#000" stroke-width="1.1"/>
<text x="440.0" y="176.0" font-size="11" text-anchor="middle">＋6</text>
<text x="240.0" y="192.0" font-size="13" text-anchor="middle" font-weight="bold">原点</text>
<text x="448.0" y="146.0" font-size="11.5" text-anchor="end">正の方向</text>
<text x="32.0" y="146.0" font-size="11.5" text-anchor="start">負の方向</text>
<line x1="240.0" y1="86" x2="240.0" y2="150" stroke="#000" stroke-width="1.1" stroke-dasharray="6 4"/>
<circle cx="123.3" cy="158" r="3.0" fill="#000"/>
<text x="123.3" y="146.0" font-size="12" text-anchor="middle" font-weight="bold">−3.5</text>
<circle cx="323.3" cy="158" r="3.0" fill="#000"/>
<text x="323.3" y="146.0" font-size="12" text-anchor="middle" font-weight="bold">＋2.5</text>
<text x="240.0" y="224.0" font-size="12" text-anchor="middle">0を境に左へも同じ間隔で目盛りが続く。整数の間の数（−3.5や＋2.5）も1つの点で表せる</text>
</svg>
