<svg xmlns="http://www.w3.org/2000/svg" viewBox="0 0 480 168">
<title>絶対値＝原点からの距離（＋4と−4の左右対称矢印）</title>
<desc>【この図の意図】＋4と−4が原点から等距離であることを対称な矢印で見せる。【主要な数値・設定】−6〜＋6の数直線・原点から±4へ外向き矢印・どちらも「距離4」。【AIに同じ種類の図を描かせるときの説明文】「絶対値＝原点からの距離（＋4と−4の左右対称矢印）。＋4と−4が原点から等距離であることを対称な矢印で見せる。数値・設定: −6〜＋6の数直線・原点から±4へ外向き矢印・どちらも「距離4」。白黒印刷向けのシンプルな教材図（SVG）としてかいて。」——この説明文を生成AIに渡せば同型の図を描かせられる。数値を変えれば類題用の図も作れる。</desc>
<!-- L03_fig1_absolute_value.svg | 絶対値＝原点からの距離（＋4と−4の左右対称矢印） -->
<!-- generated by assets_provenance/generate_figures.py on 2026-07-20 (SVG直接編集禁止/スクリプト改修で再生成) -->
<rect x="0" y="0" width="480" height="168" fill="#fff"/>
<line x1="40.0" y1="74.0" x2="447.0" y2="74.0" stroke="#000" stroke-width="1.6"/>
<polygon points="454.0,74.0 447.0,77.2 447.0,70.8" fill="#000"/>
<line x1="440.0" y1="74.0" x2="33.0" y2="74.0" stroke="#000" stroke-width="1.6"/>
<polygon points="26.0,74.0 33.0,70.8 33.0,77.2" fill="#000"/>
<line x1="40.0" y1="69.0" x2="40.0" y2="79.0" stroke="#000" stroke-width="1.1"/>
<text x="40.0" y="92.0" font-size="11" text-anchor="middle">−6</text>
<line x1="73.3" y1="69.0" x2="73.3" y2="79.0" stroke="#000" stroke-width="1.1"/>
<text x="73.3" y="92.0" font-size="11" text-anchor="middle">−5</text>
<line x1="106.7" y1="69.0" x2="106.7" y2="79.0" stroke="#000" stroke-width="1.1"/>
<text x="106.7" y="92.0" font-size="11" text-anchor="middle">−4</text>
<line x1="140.0" y1="69.0" x2="140.0" y2="79.0" stroke="#000" stroke-width="1.1"/>
<text x="140.0" y="92.0" font-size="11" text-anchor="middle">−3</text>
<line x1="173.3" y1="69.0" x2="173.3" y2="79.0" stroke="#000" stroke-width="1.1"/>
<text x="173.3" y="92.0" font-size="11" text-anchor="middle">−2</text>
<line x1="206.7" y1="69.0" x2="206.7" y2="79.0" stroke="#000" stroke-width="1.1"/>
<text x="206.7" y="92.0" font-size="11" text-anchor="middle">−1</text>
<line x1="240.0" y1="69.0" x2="240.0" y2="79.0" stroke="#000" stroke-width="1.1"/>
<text x="240.0" y="92.0" font-size="11" text-anchor="middle">0</text>
<line x1="273.3" y1="69.0" x2="273.3" y2="79.0" stroke="#000" stroke-width="1.1"/>
<text x="273.3" y="92.0" font-size="11" text-anchor="middle">＋1</text>
<line x1="306.7" y1="69.0" x2="306.7" y2="79.0" stroke="#000" stroke-width="1.1"/>
<text x="306.7" y="92.0" font-size="11" text-anchor="middle">＋2</text>
<line x1="340.0" y1="69.0" x2="340.0" y2="79.0" stroke="#000" stroke-width="1.1"/>
<text x="340.0" y="92.0" font-size="11" text-anchor="middle">＋3</text>
<line x1="373.3" y1="69.0" x2="373.3" y2="79.0" stroke="#000" stroke-width="1.1"/>
<text x="373.3" y="92.0" font-size="11" text-anchor="middle">＋4</text>
<line x1="406.7" y1="69.0" x2="406.7" y2="79.0" stroke="#000" stroke-width="1.1"/>
<text x="406.7" y="92.0" font-size="11" text-anchor="middle">＋5</text>
<line x1="440.0" y1="69.0" x2="440.0" y2="79.0" stroke="#000" stroke-width="1.1"/>
<text x="440.0" y="92.0" font-size="11" text-anchor="middle">＋6</text>
<circle cx="240.0" cy="52" r="2.5" fill="#000"/>
<text x="240.0" y="42.0" font-size="10" text-anchor="middle">原点から</text>
<line x1="231.7" y1="52.0" x2="114.7" y2="52.0" stroke="#000" stroke-width="1.8"/>
<polygon points="106.7,52.0 114.7,48.4 114.7,55.6" fill="#000"/>
<text x="159.3" y="44.0" font-size="12" text-anchor="middle" font-weight="bold">距離4</text>
<line x1="248.3" y1="52.0" x2="365.3" y2="52.0" stroke="#000" stroke-width="1.8"/>
<polygon points="373.3,52.0 365.3,55.6 365.3,48.4" fill="#000"/>
<text x="320.7" y="44.0" font-size="12" text-anchor="middle" font-weight="bold">距離4</text>
<circle cx="106.7" cy="74" r="3.5" fill="#000"/>
<circle cx="373.3" cy="74" r="3.5" fill="#000"/>
<text x="240.0" y="128.0" font-size="12" text-anchor="middle">原点から距離4の点は右と左に1つずつ——絶対値4の数は2つある（＋4と−4）</text>
<text x="240.0" y="148.0" font-size="12" text-anchor="middle">（絶対値0の数だけは0ただ1つ）</text>
</svg>
