<svg xmlns="http://www.w3.org/2000/svg" viewBox="0 0 440 232">
<title>はしご割り（60＝2×2×3×5）</title>
<desc>【この図の意図】素因数分解の手続きを1段ずつ見せる。積の検算はassertで実施。【主要な数値・設定】60→30→15→5・割る素数2、2、3・結論60＝2×2×3×5。【AIに同じ種類の図を描かせるときの説明文】「はしご割り（60＝2×2×3×5）。素因数分解の手続きを1段ずつ見せる。積の検算はassertで実施。数値・設定: 60→30→15→5・割る素数2、2、3・結論60＝2×2×3×5。白黒印刷向けのシンプルな教材図（SVG）としてかいて。」——この説明文を生成AIに渡せば同型の図を描かせられる。数値を変えれば類題用の図も作れる。</desc>
<!-- L04_fig1_ladder_division.svg | はしご割り（60＝2×2×3×5） -->
<!-- generated by assets_provenance/generate_figures.py on 2026-07-20 (SVG直接編集禁止/スクリプト改修で再生成) -->
<rect x="0" y="0" width="440" height="232" fill="#fff"/>
<text x="106.0" y="46.0" font-size="16" text-anchor="middle" font-weight="bold">2</text>
<text x="150.0" y="46.0" font-size="16" text-anchor="middle">60</text>
<line x1="122" y1="30" x2="122" y2="54" stroke="#000" stroke-width="1.6"/>
<line x1="122" y1="54" x2="184" y2="54" stroke="#000" stroke-width="1.6"/>
<text x="106.0" y="90.0" font-size="16" text-anchor="middle" font-weight="bold">2</text>
<text x="150.0" y="90.0" font-size="16" text-anchor="middle">30</text>
<line x1="122" y1="74" x2="122" y2="98" stroke="#000" stroke-width="1.6"/>
<line x1="122" y1="98" x2="184" y2="98" stroke="#000" stroke-width="1.6"/>
<text x="106.0" y="134.0" font-size="16" text-anchor="middle" font-weight="bold">3</text>
<text x="150.0" y="134.0" font-size="16" text-anchor="middle">15</text>
<line x1="122" y1="118" x2="122" y2="142" stroke="#000" stroke-width="1.6"/>
<line x1="122" y1="142" x2="184" y2="142" stroke="#000" stroke-width="1.6"/>
<text x="150.0" y="178.0" font-size="16" text-anchor="middle" font-weight="bold">5</text>
<text x="196.0" y="178.0" font-size="11" text-anchor="start">←素数になったらおしまい</text>
<polyline points="126.0,90.0 125.9,95.9 125.7,101.8 125.3,107.7 124.8,113.3 124.1,118.8 123.3,124.1 122.4,129.1 121.3,133.8 120.1,138.2 118.9,142.2 117.5,145.9 116.0,149.1 114.5,151.8 112.8,154.1 111.2,155.9 109.5,157.2 107.7,157.9 106.0,158.2 104.3,157.9 102.5,157.2 100.8,155.9 99.2,154.1 97.5,151.8 96.0,149.1 94.5,145.9 93.1,142.2 91.9,138.2 90.7,133.8 89.6,129.1 88.7,124.1 87.9,118.8 87.2,113.3 86.7,107.7 86.3,101.8 86.1,95.9 86.0,90.0 86.1,84.1 86.3,78.2 86.7,72.3 87.2,66.7 87.9,61.2 88.7,55.9 89.6,50.9 90.7,46.2 91.9,41.8 93.1,37.8 94.5,34.1 96.0,30.9 97.5,28.2 99.2,25.9 100.8,24.1 102.5,22.8 104.3,22.1 106.0,21.8 107.7,22.1 109.5,22.8 111.2,24.1 112.8,25.9 114.5,28.2 116.0,30.9 117.5,34.1 118.9,37.8 120.1,41.8 121.3,46.2 122.4,50.9 123.3,55.9 124.1,61.2 124.8,66.7 125.3,72.3 125.7,78.2 125.9,84.1 126.0,90.0" fill="none" stroke="#000" stroke-width="1.1" stroke-dasharray="6 4"/>
<polyline points="168.0,173.0 167.9,174.2 167.7,175.4 167.4,176.6 166.9,177.8 166.3,178.9 165.6,180.0 164.7,181.0 163.8,182.0 162.7,182.9 161.6,183.7 160.3,184.5 159.0,185.1 157.6,185.7 156.2,186.2 154.7,186.5 153.1,186.8 151.6,186.9 150.0,187.0 148.4,186.9 146.9,186.8 145.3,186.5 143.8,186.2 142.4,185.7 141.0,185.1 139.7,184.5 138.4,183.7 137.3,182.9 136.2,182.0 135.3,181.0 134.4,180.0 133.7,178.9 133.1,177.8 132.6,176.6 132.3,175.4 132.1,174.2 132.0,173.0 132.1,171.8 132.3,170.6 132.6,169.4 133.1,168.2 133.7,167.1 134.4,166.0 135.3,165.0 136.2,164.0 137.3,163.1 138.4,162.3 139.7,161.5 141.0,160.9 142.4,160.3 143.8,159.8 145.3,159.5 146.9,159.2 148.4,159.1 150.0,159.0 151.6,159.1 153.1,159.2 154.7,159.5 156.2,159.8 157.6,160.3 159.0,160.9 160.3,161.5 161.6,162.3 162.7,163.1 163.8,164.0 164.7,165.0 165.6,166.0 166.3,167.1 166.9,168.2 167.4,169.4 167.7,170.6 167.9,171.8 168.0,173.0" fill="none" stroke="#000" stroke-width="1.1" stroke-dasharray="6 4"/>
<line x1="210.0" y1="120.0" x2="259.0" y2="120.0" stroke="#000" stroke-width="1.4"/>
<polygon points="266.0,120.0 259.0,123.2 259.0,116.8" fill="#000"/>
<rect x="272.0" y="86.0" width="150.0" height="64.0" rx="4" fill="#fff" stroke="#000" stroke-width="1.6"/>
<text x="347.0" y="106.0" font-size="12" text-anchor="middle" font-weight="bold">60＝2×2×3×5</text>
<text x="347.0" y="122.2" font-size="12" text-anchor="middle">割った左の列＋最後の</text>
<text x="347.0" y="138.4" font-size="12" text-anchor="middle">1個を全部かける</text>
<text x="220.0" y="214.0" font-size="12" text-anchor="middle">小さい素数から順に割る。「、」ではなく×だけで書けているかを最後に確かめる</text>
</svg>
