<svg xmlns="http://www.w3.org/2000/svg" viewBox="0 0 500 320">
<title>加法の数直線移動（同符号(−3)＋(−4)と異符号(＋5)＋(−8)の対比）</title>
<desc>【この図の意図】加法を連続した矢印移動で見せる。着地点＝和（本文明示の解説値）。【主要な数値・設定】上段0→−3→−7・下段0→＋5→−3・着地点に星印。【AIに同じ種類の図を描かせるときの説明文】「加法の数直線移動（同符号(−3)＋(−4)と異符号(＋5)＋(−8)の対比）。加法を連続した矢印移動で見せる。着地点＝和（本文明示の解説値）。数値・設定: 上段0→−3→−7・下段0→＋5→−3・着地点に星印。白黒印刷向けのシンプルな教材図（SVG）としてかいて。」——この説明文を生成AIに渡せば同型の図を描かせられる。数値を変えれば類題用の図も作れる。</desc>
<!-- L05_fig1_addition_moves.svg | 加法の数直線移動（同符号(−3)＋(−4)と異符号(＋5)＋(−8)の対比） -->
<!-- generated by assets_provenance/generate_figures.py on 2026-07-20 (SVG直接編集禁止/スクリプト改修で再生成) -->
<rect x="0" y="0" width="500" height="320" fill="#fff"/>
<line x1="44.0" y1="96.0" x2="463.0" y2="96.0" stroke="#000" stroke-width="1.6"/>
<polygon points="470.0,96.0 463.0,99.2 463.0,92.8" fill="#000"/>
<line x1="456.0" y1="96.0" x2="37.0" y2="96.0" stroke="#000" stroke-width="1.6"/>
<polygon points="30.0,96.0 37.0,92.8 37.0,99.2" fill="#000"/>
<line x1="44.0" y1="91.0" x2="44.0" y2="101.0" stroke="#000" stroke-width="1.1"/>
<text x="44.0" y="114.0" font-size="11" text-anchor="middle">−8</text>
<line x1="69.8" y1="91.0" x2="69.8" y2="101.0" stroke="#000" stroke-width="1.1"/>
<line x1="95.5" y1="91.0" x2="95.5" y2="101.0" stroke="#000" stroke-width="1.1"/>
<text x="95.5" y="114.0" font-size="11" text-anchor="middle">−6</text>
<line x1="121.2" y1="91.0" x2="121.2" y2="101.0" stroke="#000" stroke-width="1.1"/>
<line x1="147.0" y1="91.0" x2="147.0" y2="101.0" stroke="#000" stroke-width="1.1"/>
<text x="147.0" y="114.0" font-size="11" text-anchor="middle">−4</text>
<line x1="172.8" y1="91.0" x2="172.8" y2="101.0" stroke="#000" stroke-width="1.1"/>
<line x1="198.5" y1="91.0" x2="198.5" y2="101.0" stroke="#000" stroke-width="1.1"/>
<text x="198.5" y="114.0" font-size="11" text-anchor="middle">−2</text>
<line x1="224.2" y1="91.0" x2="224.2" y2="101.0" stroke="#000" stroke-width="1.1"/>
<line x1="250.0" y1="91.0" x2="250.0" y2="101.0" stroke="#000" stroke-width="1.1"/>
<text x="250.0" y="114.0" font-size="11" text-anchor="middle">0</text>
<line x1="275.8" y1="91.0" x2="275.8" y2="101.0" stroke="#000" stroke-width="1.1"/>
<line x1="301.5" y1="91.0" x2="301.5" y2="101.0" stroke="#000" stroke-width="1.1"/>
<text x="301.5" y="114.0" font-size="11" text-anchor="middle">＋2</text>
<line x1="327.2" y1="91.0" x2="327.2" y2="101.0" stroke="#000" stroke-width="1.1"/>
<line x1="353.0" y1="91.0" x2="353.0" y2="101.0" stroke="#000" stroke-width="1.1"/>
<text x="353.0" y="114.0" font-size="11" text-anchor="middle">＋4</text>
<line x1="378.8" y1="91.0" x2="378.8" y2="101.0" stroke="#000" stroke-width="1.1"/>
<line x1="404.5" y1="91.0" x2="404.5" y2="101.0" stroke="#000" stroke-width="1.1"/>
<text x="404.5" y="114.0" font-size="11" text-anchor="middle">＋6</text>
<line x1="430.2" y1="91.0" x2="430.2" y2="101.0" stroke="#000" stroke-width="1.1"/>
<line x1="456.0" y1="91.0" x2="456.0" y2="101.0" stroke="#000" stroke-width="1.1"/>
<text x="456.0" y="114.0" font-size="11" text-anchor="middle">＋8</text>
<text x="30.0" y="44.0" font-size="12" text-anchor="start" font-weight="bold">同符号: (−3)＋(−4)　……負の方向へ2回</text>
<line x1="250.0" y1="78.0" x2="180.8" y2="78.0" stroke="#000" stroke-width="1.8"/>
<polygon points="172.8,78.0 180.8,74.4 180.8,81.6" fill="#000"/>
<text x="211.4" y="71.0" font-size="12" text-anchor="middle">−3</text>
<line x1="172.8" y1="62.0" x2="77.8" y2="62.0" stroke="#000" stroke-width="1.8"/>
<polygon points="69.8,62.0 77.8,58.4 77.8,65.6" fill="#000"/>
<text x="121.2" y="55.0" font-size="12" text-anchor="middle">−4</text>
<polygon points="69.8,90.5 71.4,94.7 75.9,95.0 72.4,97.9 73.6,102.3 69.8,99.8 65.9,102.3 67.1,97.9 63.6,95.0 68.1,94.7" fill="#000"/>
<text x="69.8" y="128.0" font-size="12" text-anchor="middle" font-weight="bold">答え −7</text>
<line x1="44.0" y1="232.0" x2="463.0" y2="232.0" stroke="#000" stroke-width="1.6"/>
<polygon points="470.0,232.0 463.0,235.2 463.0,228.8" fill="#000"/>
<line x1="456.0" y1="232.0" x2="37.0" y2="232.0" stroke="#000" stroke-width="1.6"/>
<polygon points="30.0,232.0 37.0,228.8 37.0,235.2" fill="#000"/>
<line x1="44.0" y1="227.0" x2="44.0" y2="237.0" stroke="#000" stroke-width="1.1"/>
<text x="44.0" y="250.0" font-size="11" text-anchor="middle">−8</text>
<line x1="69.8" y1="227.0" x2="69.8" y2="237.0" stroke="#000" stroke-width="1.1"/>
<line x1="95.5" y1="227.0" x2="95.5" y2="237.0" stroke="#000" stroke-width="1.1"/>
<text x="95.5" y="250.0" font-size="11" text-anchor="middle">−6</text>
<line x1="121.2" y1="227.0" x2="121.2" y2="237.0" stroke="#000" stroke-width="1.1"/>
<line x1="147.0" y1="227.0" x2="147.0" y2="237.0" stroke="#000" stroke-width="1.1"/>
<text x="147.0" y="250.0" font-size="11" text-anchor="middle">−4</text>
<line x1="172.8" y1="227.0" x2="172.8" y2="237.0" stroke="#000" stroke-width="1.1"/>
<line x1="198.5" y1="227.0" x2="198.5" y2="237.0" stroke="#000" stroke-width="1.1"/>
<text x="198.5" y="250.0" font-size="11" text-anchor="middle">−2</text>
<line x1="224.2" y1="227.0" x2="224.2" y2="237.0" stroke="#000" stroke-width="1.1"/>
<line x1="250.0" y1="227.0" x2="250.0" y2="237.0" stroke="#000" stroke-width="1.1"/>
<text x="250.0" y="250.0" font-size="11" text-anchor="middle">0</text>
<line x1="275.8" y1="227.0" x2="275.8" y2="237.0" stroke="#000" stroke-width="1.1"/>
<line x1="301.5" y1="227.0" x2="301.5" y2="237.0" stroke="#000" stroke-width="1.1"/>
<text x="301.5" y="250.0" font-size="11" text-anchor="middle">＋2</text>
<line x1="327.2" y1="227.0" x2="327.2" y2="237.0" stroke="#000" stroke-width="1.1"/>
<line x1="353.0" y1="227.0" x2="353.0" y2="237.0" stroke="#000" stroke-width="1.1"/>
<text x="353.0" y="250.0" font-size="11" text-anchor="middle">＋4</text>
<line x1="378.8" y1="227.0" x2="378.8" y2="237.0" stroke="#000" stroke-width="1.1"/>
<line x1="404.5" y1="227.0" x2="404.5" y2="237.0" stroke="#000" stroke-width="1.1"/>
<text x="404.5" y="250.0" font-size="11" text-anchor="middle">＋6</text>
<line x1="430.2" y1="227.0" x2="430.2" y2="237.0" stroke="#000" stroke-width="1.1"/>
<line x1="456.0" y1="227.0" x2="456.0" y2="237.0" stroke="#000" stroke-width="1.1"/>
<text x="456.0" y="250.0" font-size="11" text-anchor="middle">＋8</text>
<text x="30.0" y="180.0" font-size="12" text-anchor="start" font-weight="bold">異符号: (＋5)＋(−8)　……5進んで8もどる</text>
<line x1="250.0" y1="214.0" x2="370.8" y2="214.0" stroke="#000" stroke-width="1.8"/>
<polygon points="378.8,214.0 370.8,217.6 370.8,210.4" fill="#000"/>
<text x="314.4" y="207.0" font-size="12" text-anchor="middle">＋5</text>
<line x1="378.8" y1="198.0" x2="180.8" y2="198.0" stroke="#000" stroke-width="1.8"/>
<polygon points="172.8,198.0 180.8,194.4 180.8,201.6" fill="#000"/>
<text x="275.8" y="191.0" font-size="12" text-anchor="middle">−8</text>
<polygon points="172.8,226.5 174.4,230.7 178.9,231.0 175.4,233.9 176.6,238.3 172.8,235.8 168.9,238.3 170.1,233.9 166.6,231.0 171.1,230.7" fill="#000"/>
<text x="172.8" y="264.0" font-size="12" text-anchor="middle" font-weight="bold">答え −3</text>
<text x="250.0" y="306.0" font-size="12" text-anchor="middle">2本目の矢印は1本目の終点から。反対向きの移動は打ち消し合う</text>
</svg>
