<svg xmlns="http://www.w3.org/2000/svg" viewBox="0 0 420 330">
<title>温度差の縦数直線（−2℃と＋7℃のへだたり——差は？）</title>
<desc>【この図の意図】2点のへだたりを視覚化し立式B−Aへつなぐ。差の値は図に書かず「差は？」のまま。【主要な数値・設定】目盛り−5〜＋10・点は−2と＋7・両矢印は「差は？」・0に破線補助線。【AIに同じ種類の図を描かせるときの説明文】「温度差の縦数直線（−2℃と＋7℃のへだたり——差は？）。2点のへだたりを視覚化し立式B−Aへつなぐ。差の値は図に書かず「差は？」のまま。数値・設定: 目盛り−5〜＋10・点は−2と＋7・両矢印は「差は？」・0に破線補助線。白黒印刷向けのシンプルな教材図（SVG）としてかいて。」——この説明文を生成AIに渡せば同型の図を描かせられる。数値を変えれば類題用の図も作れる。</desc>
<!-- L06_fig1_temperature_difference.svg | 温度差の縦数直線（−2℃と＋7℃のへだたり——差は？） -->
<!-- generated by assets_provenance/generate_figures.py on 2026-07-20 (SVG直接編集禁止/スクリプト改修で再生成) -->
<rect x="0" y="0" width="420" height="330" fill="#fff"/>
<line x1="130.0" y1="298.0" x2="130.0" y2="29.0" stroke="#000" stroke-width="1.6"/>
<polygon points="130.0,22.0 133.2,29.0 126.8,29.0" fill="#000"/>
<line x1="125" y1="292.0" x2="135" y2="292.0" stroke="#000" stroke-width="1.1"/>
<text x="118.0" y="296.0" font-size="11" text-anchor="end">−5</text>
<line x1="125" y1="274.8" x2="135" y2="274.8" stroke="#000" stroke-width="1.1"/>
<line x1="125" y1="257.6" x2="135" y2="257.6" stroke="#000" stroke-width="1.1"/>
<line x1="125" y1="240.4" x2="135" y2="240.4" stroke="#000" stroke-width="1.1"/>
<text x="118.0" y="244.4" font-size="11" text-anchor="end">−2</text>
<line x1="125" y1="223.2" x2="135" y2="223.2" stroke="#000" stroke-width="1.1"/>
<line x1="125" y1="206.0" x2="135" y2="206.0" stroke="#000" stroke-width="1.1"/>
<text x="118.0" y="210.0" font-size="11" text-anchor="end">0</text>
<line x1="125" y1="188.8" x2="135" y2="188.8" stroke="#000" stroke-width="1.1"/>
<line x1="125" y1="171.6" x2="135" y2="171.6" stroke="#000" stroke-width="1.1"/>
<line x1="125" y1="154.4" x2="135" y2="154.4" stroke="#000" stroke-width="1.1"/>
<line x1="125" y1="137.2" x2="135" y2="137.2" stroke="#000" stroke-width="1.1"/>
<line x1="125" y1="120.0" x2="135" y2="120.0" stroke="#000" stroke-width="1.1"/>
<text x="118.0" y="124.0" font-size="11" text-anchor="end">＋5</text>
<line x1="125" y1="102.8" x2="135" y2="102.8" stroke="#000" stroke-width="1.1"/>
<line x1="125" y1="85.6" x2="135" y2="85.6" stroke="#000" stroke-width="1.1"/>
<text x="118.0" y="89.6" font-size="11" text-anchor="end">＋7</text>
<line x1="125" y1="68.4" x2="135" y2="68.4" stroke="#000" stroke-width="1.1"/>
<line x1="125" y1="51.2" x2="135" y2="51.2" stroke="#000" stroke-width="1.1"/>
<line x1="125" y1="34.0" x2="135" y2="34.0" stroke="#000" stroke-width="1.1"/>
<text x="118.0" y="38.0" font-size="11" text-anchor="end">＋10</text>
<circle cx="130" cy="240.4" r="4" fill="#000"/>
<text x="78.0" y="244.4" font-size="13" text-anchor="end" font-weight="bold">A町 −2℃</text>
<circle cx="130" cy="85.6" r="4" fill="#000"/>
<text x="78.0" y="89.6" font-size="13" text-anchor="end" font-weight="bold">B町 ＋7℃</text>
<line x1="174.0" y1="92.6" x2="174.0" y2="233.4" stroke="#000" stroke-width="1.4"/>
<polygon points="174.0,85.6 170.8,92.6 177.2,92.6" fill="#000"/>
<polygon points="174.0,240.4 170.8,233.4 177.2,233.4" fill="#000"/>
<text x="186.0" y="167.0" font-size="14" text-anchor="start" font-weight="bold">差は？</text>
<line x1="125" y1="206.0" x2="200" y2="206.0" stroke="#000" stroke-width="1.1" stroke-dasharray="6 4"/>
<text x="206.0" y="210.0" font-size="10.5" text-anchor="start">0の線で2つに分けて考えてもよい</text>
<rect x="238.0" y="75.6" width="158.0" height="54.0" rx="4" fill="#fff" stroke="#000" stroke-width="1.6"/>
<text x="317.0" y="98.7" font-size="12" text-anchor="middle" font-weight="bold">「BはAより何度高い？」</text>
<text x="317.0" y="114.9" font-size="12" text-anchor="middle">B−A＝(＋7)−(−2)</text>
<text x="210.0" y="320.0" font-size="12" text-anchor="middle">「〜より」の直後にあるA（基準）をひく——ひき算で2点のへだたりを求める</text>
</svg>
