<svg xmlns="http://www.w3.org/2000/svg" viewBox="0 0 480 330">
<title>項の仕分け（6−13＋5−2 → 正の箱＋11と負の箱−15 → −4）</title>
<desc>【この図の意図】項を符号で仕分けて箱ごとの和→全体の和の2段構えを図式化する。【主要な数値・設定】項＋6・−13・＋5・−2／小計＋11と−15／合計−4（本文明示）。【AIに同じ種類の図を描かせるときの説明文】「項の仕分け（6−13＋5−2 → 正の箱＋11と負の箱−15 → −4）。項を符号で仕分けて箱ごとの和→全体の和の2段構えを図式化する。数値・設定: 項＋6・−13・＋5・−2／小計＋11と−15／合計−4（本文明示）。白黒印刷向けのシンプルな教材図（SVG）としてかいて。」——この説明文を生成AIに渡せば同型の図を描かせられる。数値を変えれば類題用の図も作れる。</desc>
<!-- L07_fig1_terms_sorting.svg | 項の仕分け（6−13＋5−2 → 正の箱＋11と負の箱−15 → −4） -->
<!-- generated by assets_provenance/generate_figures.py on 2026-07-20 (SVG直接編集禁止/スクリプト改修で再生成) -->
<rect x="0" y="0" width="480" height="330" fill="#fff"/>
<text x="240.0" y="30.0" font-size="13" text-anchor="middle" font-weight="bold">6−13＋5−2　＝　＋6、−13、＋5、−2 の和</text>
<rect x="70.0" y="48.0" width="52.0" height="30.0" rx="5" fill="#fff" stroke="#000" stroke-width="1.6"/>
<text x="96.0" y="67.5" font-size="13" text-anchor="middle" font-weight="bold">＋6</text>
<rect x="170.0" y="48.0" width="52.0" height="30.0" rx="5" fill="#fff" stroke="#000" stroke-width="1.6"/>
<text x="196.0" y="67.5" font-size="13" text-anchor="middle" font-weight="bold">−13</text>
<rect x="270.0" y="48.0" width="52.0" height="30.0" rx="5" fill="#fff" stroke="#000" stroke-width="1.6"/>
<text x="296.0" y="67.5" font-size="13" text-anchor="middle" font-weight="bold">＋5</text>
<rect x="370.0" y="48.0" width="52.0" height="30.0" rx="5" fill="#fff" stroke="#000" stroke-width="1.6"/>
<text x="396.0" y="67.5" font-size="13" text-anchor="middle" font-weight="bold">−2</text>
<rect x="60.0" y="130.0" width="140.0" height="74.0" rx="6" fill="#fff" stroke="#000" stroke-width="1.6"/>
<text x="130.0" y="150.0" font-size="12" text-anchor="middle" font-weight="bold">正の項の箱</text>
<text x="130.0" y="174.0" font-size="13" text-anchor="middle">＋6　＋5</text>
<rect x="280.0" y="130.0" width="140.0" height="74.0" rx="6" fill="#fff" stroke="#000" stroke-width="1.6"/>
<text x="350.0" y="150.0" font-size="12" text-anchor="middle" font-weight="bold">負の項の箱</text>
<text x="350.0" y="174.0" font-size="13" text-anchor="middle">−13　−2</text>
<line x1="96.0" y1="82.0" x2="120.1" y2="120.1" stroke="#000" stroke-width="1.2"/>
<polygon points="123.9,126.0 117.5,121.8 122.8,118.4" fill="#000"/>
<line x1="196.0" y1="82.0" x2="315.7" y2="123.7" stroke="#000" stroke-width="1.2"/>
<polygon points="322.3,126.0 314.6,126.7 316.7,120.7" fill="#000"/>
<line x1="296.0" y1="82.0" x2="166.5" y2="123.8" stroke="#000" stroke-width="1.2"/>
<polygon points="159.9,126.0 165.6,120.8 167.5,126.8" fill="#000"/>
<line x1="396.0" y1="82.0" x2="362.8" y2="120.7" stroke="#000" stroke-width="1.2"/>
<polygon points="358.3,126.0 360.4,118.6 365.2,122.7" fill="#000"/>
<text x="130.0" y="224.0" font-size="13" text-anchor="middle" font-weight="bold">小計 ＋11</text>
<text x="350.0" y="224.0" font-size="13" text-anchor="middle" font-weight="bold">小計 −15</text>
<line x1="130.0" y1="234.0" x2="219.4" y2="265.7" stroke="#000" stroke-width="1.4"/>
<polygon points="226.0,268.0 218.3,268.6 220.5,262.7" fill="#000"/>
<line x1="350.0" y1="234.0" x2="260.6" y2="265.7" stroke="#000" stroke-width="1.4"/>
<polygon points="254.0,268.0 259.5,262.7 261.7,268.6" fill="#000"/>
<rect x="170.0" y="272.0" width="140.0" height="36.0" rx="4" fill="#fff" stroke="#000" stroke-width="1.92"/>
<text x="240.0" y="294.6" font-size="13" text-anchor="middle" font-weight="bold">合計 11−15＝−4</text>
<text x="240.0" y="326.0" font-size="12" text-anchor="middle">たし算は順序を入れかえてよいから、先に符号ごとに仕分けできる</text>
</svg>
