<svg xmlns="http://www.w3.org/2000/svg" viewBox="0 0 520 344">
<title>かけ算の表のパターン延長（3ずつ減・3ずつ増を0の先へ）</title>
<desc>【この図の意図】積の増減パターンの延長で(＋)×(−)＝−と(−)×(−)＝＋が現れる様子を見せる。【主要な数値・設定】上段(＋3)×で＋9〜−6（差−3）・下段(−3)×で−6〜＋6（差＋3）・延長マスは斜線。【AIに同じ種類の図を描かせるときの説明文】「かけ算の表のパターン延長（3ずつ減・3ずつ増を0の先へ）。積の増減パターンの延長で(＋)×(−)＝−と(−)×(−)＝＋が現れる様子を見せる。数値・設定: 上段(＋3)×で＋9〜−6（差−3）・下段(−3)×で−6〜＋6（差＋3）・延長マスは斜線。白黒印刷向けのシンプルな教材図（SVG）としてかいて。」——この説明文を生成AIに渡せば同型の図を描かせられる。数値を変えれば類題用の図も作れる。</desc>
<!-- L08_fig1_pattern_tables.svg | かけ算の表のパターン延長（3ずつ減・3ずつ増を0の先へ） -->
<!-- generated by assets_provenance/generate_figures.py on 2026-07-20 (SVG直接編集禁止/スクリプト改修で再生成) -->
<rect x="0" y="0" width="520" height="344" fill="#fff"/>
<defs><pattern id="h45" width="6" height="6" patternUnits="userSpaceOnUse" patternTransform="rotate(45)"><line x1="0" y1="0" x2="0" y2="6" stroke="#555" stroke-width="1.1"/></pattern></defs><text x="38.0" y="30.0" font-size="13" text-anchor="start" font-weight="bold">① (＋3)×の表　……積は3ずつ減る</text>
<rect x="38.0" y="40.0" width="96.0" height="28.0" fill="#eee" stroke="#000" stroke-width="1.1"/>
<text x="86.0" y="58.0" font-size="11" text-anchor="middle">かける数</text>
<rect x="38.0" y="68.0" width="96.0" height="28.0" fill="#eee" stroke="#000" stroke-width="1.1"/>
<text x="86.0" y="86.0" font-size="11" text-anchor="middle">(＋3)×</text>
<rect x="134.0" y="40.0" width="56.0" height="28.0" fill="#fff" stroke="#000" stroke-width="1.1"/>
<text x="162.0" y="58.0" font-size="12" text-anchor="middle">＋3</text>
<rect x="134.0" y="68.0" width="56.0" height="28.0" fill="#fff" stroke="#000" stroke-width="1.1"/>
<text x="162.0" y="86.0" font-size="12" text-anchor="middle">＋9</text>
<line x1="170.0" y1="108.0" x2="205.0" y2="108.0" stroke="#000" stroke-width="1.1"/>
<polygon points="210.0,108.0 205.0,110.2 205.0,105.8" fill="#000"/>
<text x="190.0" y="122.0" font-size="10.5" text-anchor="middle">−3</text>
<rect x="190.0" y="40.0" width="56.0" height="28.0" fill="#fff" stroke="#000" stroke-width="1.1"/>
<text x="218.0" y="58.0" font-size="12" text-anchor="middle">＋2</text>
<rect x="190.0" y="68.0" width="56.0" height="28.0" fill="#fff" stroke="#000" stroke-width="1.1"/>
<text x="218.0" y="86.0" font-size="12" text-anchor="middle">＋6</text>
<line x1="226.0" y1="108.0" x2="261.0" y2="108.0" stroke="#000" stroke-width="1.1"/>
<polygon points="266.0,108.0 261.0,110.2 261.0,105.8" fill="#000"/>
<text x="246.0" y="122.0" font-size="10.5" text-anchor="middle">−3</text>
<rect x="246.0" y="40.0" width="56.0" height="28.0" fill="#fff" stroke="#000" stroke-width="1.1"/>
<text x="274.0" y="58.0" font-size="12" text-anchor="middle">＋1</text>
<rect x="246.0" y="68.0" width="56.0" height="28.0" fill="#fff" stroke="#000" stroke-width="1.1"/>
<text x="274.0" y="86.0" font-size="12" text-anchor="middle">＋3</text>
<line x1="282.0" y1="108.0" x2="317.0" y2="108.0" stroke="#000" stroke-width="1.1"/>
<polygon points="322.0,108.0 317.0,110.2 317.0,105.8" fill="#000"/>
<text x="302.0" y="122.0" font-size="10.5" text-anchor="middle">−3</text>
<rect x="302.0" y="40.0" width="56.0" height="28.0" fill="#fff" stroke="#000" stroke-width="1.1"/>
<text x="330.0" y="58.0" font-size="12" text-anchor="middle">0</text>
<rect x="302.0" y="68.0" width="56.0" height="28.0" fill="#fff" stroke="#000" stroke-width="1.1"/>
<text x="330.0" y="86.0" font-size="12" text-anchor="middle">0</text>
<line x1="338.0" y1="108.0" x2="373.0" y2="108.0" stroke="#000" stroke-width="1.1"/>
<polygon points="378.0,108.0 373.0,110.2 373.0,105.8" fill="#000"/>
<text x="358.0" y="122.0" font-size="10.5" text-anchor="middle">−3</text>
<rect x="358.0" y="40.0" width="56.0" height="28.0" fill="#fff" stroke="#000" stroke-width="1.1"/>
<text x="386.0" y="58.0" font-size="12" text-anchor="middle">−1</text>
<rect x="358.0" y="68.0" width="56.0" height="28.0" fill="url(#h45)" stroke="#000" stroke-width="1.1"/>
<rect x="372.0" y="72.0" width="28.0" height="20.0" fill="#fff" stroke="#000" stroke-width="0.0001"/>
<text x="386.0" y="86.0" font-size="12" text-anchor="middle" font-weight="bold">−3</text>
<line x1="394.0" y1="108.0" x2="429.0" y2="108.0" stroke="#000" stroke-width="1.1"/>
<polygon points="434.0,108.0 429.0,110.2 429.0,105.8" fill="#000"/>
<text x="414.0" y="122.0" font-size="10.5" text-anchor="middle">−3</text>
<rect x="414.0" y="40.0" width="56.0" height="28.0" fill="#fff" stroke="#000" stroke-width="1.1"/>
<text x="442.0" y="58.0" font-size="12" text-anchor="middle">−2</text>
<rect x="414.0" y="68.0" width="56.0" height="28.0" fill="url(#h45)" stroke="#000" stroke-width="1.1"/>
<rect x="428.0" y="72.0" width="28.0" height="20.0" fill="#fff" stroke="#000" stroke-width="0.0001"/>
<text x="442.0" y="86.0" font-size="12" text-anchor="middle" font-weight="bold">−6</text>
<text x="38.0" y="162.0" font-size="13" text-anchor="start" font-weight="bold">② (−3)×の表　……積は3ずつ増える</text>
<rect x="38.0" y="172.0" width="96.0" height="28.0" fill="#eee" stroke="#000" stroke-width="1.1"/>
<text x="86.0" y="190.0" font-size="11" text-anchor="middle">かける数</text>
<rect x="38.0" y="200.0" width="96.0" height="28.0" fill="#eee" stroke="#000" stroke-width="1.1"/>
<text x="86.0" y="218.0" font-size="11" text-anchor="middle">(−3)×</text>
<rect x="134.0" y="172.0" width="56.0" height="28.0" fill="#fff" stroke="#000" stroke-width="1.1"/>
<text x="162.0" y="190.0" font-size="12" text-anchor="middle">＋2</text>
<rect x="134.0" y="200.0" width="56.0" height="28.0" fill="#fff" stroke="#000" stroke-width="1.1"/>
<text x="162.0" y="218.0" font-size="12" text-anchor="middle">−6</text>
<line x1="170.0" y1="240.0" x2="205.0" y2="240.0" stroke="#000" stroke-width="1.1"/>
<polygon points="210.0,240.0 205.0,242.2 205.0,237.8" fill="#000"/>
<text x="190.0" y="254.0" font-size="10.5" text-anchor="middle">＋3</text>
<rect x="190.0" y="172.0" width="56.0" height="28.0" fill="#fff" stroke="#000" stroke-width="1.1"/>
<text x="218.0" y="190.0" font-size="12" text-anchor="middle">＋1</text>
<rect x="190.0" y="200.0" width="56.0" height="28.0" fill="#fff" stroke="#000" stroke-width="1.1"/>
<text x="218.0" y="218.0" font-size="12" text-anchor="middle">−3</text>
<line x1="226.0" y1="240.0" x2="261.0" y2="240.0" stroke="#000" stroke-width="1.1"/>
<polygon points="266.0,240.0 261.0,242.2 261.0,237.8" fill="#000"/>
<text x="246.0" y="254.0" font-size="10.5" text-anchor="middle">＋3</text>
<rect x="246.0" y="172.0" width="56.0" height="28.0" fill="#fff" stroke="#000" stroke-width="1.1"/>
<text x="274.0" y="190.0" font-size="12" text-anchor="middle">0</text>
<rect x="246.0" y="200.0" width="56.0" height="28.0" fill="#fff" stroke="#000" stroke-width="1.1"/>
<text x="274.0" y="218.0" font-size="12" text-anchor="middle">0</text>
<line x1="282.0" y1="240.0" x2="317.0" y2="240.0" stroke="#000" stroke-width="1.1"/>
<polygon points="322.0,240.0 317.0,242.2 317.0,237.8" fill="#000"/>
<text x="302.0" y="254.0" font-size="10.5" text-anchor="middle">＋3</text>
<rect x="302.0" y="172.0" width="56.0" height="28.0" fill="#fff" stroke="#000" stroke-width="1.1"/>
<text x="330.0" y="190.0" font-size="12" text-anchor="middle">−1</text>
<rect x="302.0" y="200.0" width="56.0" height="28.0" fill="url(#h45)" stroke="#000" stroke-width="1.1"/>
<rect x="316.0" y="204.0" width="28.0" height="20.0" fill="#fff" stroke="#000" stroke-width="0.0001"/>
<text x="330.0" y="218.0" font-size="12" text-anchor="middle" font-weight="bold">＋3</text>
<line x1="338.0" y1="240.0" x2="373.0" y2="240.0" stroke="#000" stroke-width="1.1"/>
<polygon points="378.0,240.0 373.0,242.2 373.0,237.8" fill="#000"/>
<text x="358.0" y="254.0" font-size="10.5" text-anchor="middle">＋3</text>
<rect x="358.0" y="172.0" width="56.0" height="28.0" fill="#fff" stroke="#000" stroke-width="1.1"/>
<text x="386.0" y="190.0" font-size="12" text-anchor="middle">−2</text>
<rect x="358.0" y="200.0" width="56.0" height="28.0" fill="url(#h45)" stroke="#000" stroke-width="1.1"/>
<rect x="372.0" y="204.0" width="28.0" height="20.0" fill="#fff" stroke="#000" stroke-width="0.0001"/>
<text x="386.0" y="218.0" font-size="12" text-anchor="middle" font-weight="bold">＋6</text>
<text x="260.0" y="296.0" font-size="12" text-anchor="middle" font-weight="bold">斜線のマス＝0の先へパターンの続きとして決めた部分</text>
<text x="260.0" y="316.0" font-size="12" text-anchor="middle">①から (＋)×(−)＝−、②から (−)×(−)＝＋ が現れる</text>
</svg>
