<svg xmlns="http://www.w3.org/2000/svg" viewBox="0 0 480 240">
<title>何が2乗されているかを丸で囲む（(−3)²＝＋9と−3²＝−9）</title>
<desc>【この図の意図】丸の位置のちがいが答えのちがいに直結することを左右対比で見せる。【主要な数値・設定】左=(−3)全体を丸囲み→＋9・右=3のみ丸囲み→−9（本文明示）。【AIに同じ種類の図を描かせるときの説明文】「何が2乗されているかを丸で囲む（(−3)²＝＋9と−3²＝−9）。丸の位置のちがいが答えのちがいに直結することを左右対比で見せる。数値・設定: 左=(−3)全体を丸囲み→＋9・右=3のみ丸囲み→−9（本文明示）。白黒印刷向けのシンプルな教材図（SVG）としてかいて。」——この説明文を生成AIに渡せば同型の図を描かせられる。数値を変えれば類題用の図も作れる。</desc>
<!-- L09_fig1_circle_the_base.svg | 何が2乗されているかを丸で囲む（(−3)²＝＋9と−3²＝−9） -->
<!-- generated by assets_provenance/generate_figures.py on 2026-07-20 (SVG直接編集禁止/スクリプト改修で再生成) -->
<rect x="0" y="0" width="480" height="240" fill="#fff"/>
<text x="120.0" y="34.0" font-size="13" text-anchor="middle" font-weight="bold">左: (−3)²</text>
<text x="360.0" y="34.0" font-size="13" text-anchor="middle" font-weight="bold">右: −3²</text>
<text x="112.0" y="82.0" font-size="18" text-anchor="middle" font-weight="bold">(−3)</text>
<text x="146.0" y="70.0" font-size="12" text-anchor="middle" font-weight="bold">²</text>
<polyline points="142.0,76.0 141.9,77.4 141.5,78.8 141.0,80.1 140.2,81.5 139.2,82.8 138.0,84.0 136.6,85.2 135.0,86.3 133.2,87.3 131.3,88.3 129.2,89.1 127.0,89.9 124.7,90.5 122.3,91.0 119.8,91.5 117.2,91.8 114.6,91.9 112.0,92.0 109.4,91.9 106.8,91.8 104.2,91.5 101.7,91.0 99.3,90.5 97.0,89.9 94.8,89.1 92.7,88.3 90.8,87.3 89.0,86.3 87.4,85.2 86.0,84.0 84.8,82.8 83.8,81.5 83.0,80.1 82.5,78.8 82.1,77.4 82.0,76.0 82.1,74.6 82.5,73.2 83.0,71.9 83.8,70.5 84.8,69.2 86.0,68.0 87.4,66.8 89.0,65.7 90.8,64.7 92.7,63.7 94.8,62.9 97.0,62.1 99.3,61.5 101.7,61.0 104.2,60.5 106.8,60.2 109.4,60.1 112.0,60.0 114.6,60.1 117.2,60.2 119.8,60.5 122.3,61.0 124.7,61.5 127.0,62.1 129.2,62.9 131.3,63.7 133.2,64.7 135.0,65.7 136.6,66.8 138.0,68.0 139.2,69.2 140.2,70.5 141.0,71.9 141.5,73.2 141.9,74.6 142.0,76.0" fill="none" stroke="#000" stroke-width="1.6"/>
<line x1="120.0" y1="102.0" x2="120.0" y2="121.0" stroke="#000" stroke-width="1.4"/>
<polygon points="120.0,128.0 116.8,121.0 123.2,121.0" fill="#000"/>
<text x="120.0" y="148.0" font-size="16" text-anchor="middle" font-weight="bold">＋9</text>
<text x="120.0" y="172.0" font-size="10.5" text-anchor="middle">丸の中＝−3全体を2乗</text>
<text x="120.0" y="187.0" font-size="10.5" text-anchor="middle">(−3)×(−3)</text>
<text x="336.0" y="82.0" font-size="18" text-anchor="middle" font-weight="bold">−</text>
<text x="358.0" y="82.0" font-size="18" text-anchor="middle" font-weight="bold">3</text>
<text x="380.0" y="70.0" font-size="12" text-anchor="middle" font-weight="bold">²</text>
<polyline points="371.0,76.0 371.0,77.4 370.8,78.8 370.6,80.1 370.2,81.5 369.8,82.8 369.3,84.0 368.6,85.2 368.0,86.3 367.2,87.3 366.4,88.3 365.5,89.1 364.5,89.9 363.5,90.5 362.4,91.0 361.4,91.5 360.3,91.8 359.1,91.9 358.0,92.0 356.9,91.9 355.7,91.8 354.6,91.5 353.6,91.0 352.5,90.5 351.5,89.9 350.5,89.1 349.6,88.3 348.8,87.3 348.0,86.3 347.4,85.2 346.7,84.0 346.2,82.8 345.8,81.5 345.4,80.1 345.2,78.8 345.0,77.4 345.0,76.0 345.0,74.6 345.2,73.2 345.4,71.9 345.8,70.5 346.2,69.2 346.7,68.0 347.4,66.8 348.0,65.7 348.8,64.7 349.6,63.7 350.5,62.9 351.5,62.1 352.5,61.5 353.6,61.0 354.6,60.5 355.7,60.2 356.9,60.1 358.0,60.0 359.1,60.1 360.3,60.2 361.4,60.5 362.4,61.0 363.5,61.5 364.5,62.1 365.5,62.9 366.4,63.7 367.2,64.7 368.0,65.7 368.6,66.8 369.3,68.0 369.8,69.2 370.2,70.5 370.6,71.9 370.8,73.2 371.0,74.6 371.0,76.0" fill="none" stroke="#000" stroke-width="1.6"/>
<line x1="360.0" y1="102.0" x2="360.0" y2="121.0" stroke="#000" stroke-width="1.4"/>
<polygon points="360.0,128.0 356.9,121.0 363.1,121.0" fill="#000"/>
<text x="360.0" y="148.0" font-size="16" text-anchor="middle" font-weight="bold">−9</text>
<text x="360.0" y="172.0" font-size="10.5" text-anchor="middle">丸の中は3だけ。外の−は</text>
<text x="360.0" y="187.0" font-size="10.5" text-anchor="middle">符号として最後につく</text>
<line x1="240" y1="48" x2="240" y2="196" stroke="#000" stroke-width="1.1" stroke-dasharray="6 4"/>
<text x="240.0" y="226.0" font-size="12" text-anchor="middle" font-weight="bold">合言葉:「丸の中だけを2乗する」——丸の位置を先に決めてから計算する</text>
</svg>
