<svg xmlns="http://www.w3.org/2000/svg" viewBox="0 0 460 300">
<title>数の集合の入れ子（自然数⊂整数⊂数全体）</title>
<desc>【この図の意図】3つの範囲の包含関係を図示し「計算の自由度」の議論の土台を作る。【主要な数値・設定】内=自然数(1,2,3)・中=整数(0,−2追加)・外=数(0.5,−3/4追加)。【AIに同じ種類の図を描かせるときの説明文】「数の集合の入れ子（自然数⊂整数⊂数全体）。3つの範囲の包含関係を図示し「計算の自由度」の議論の土台を作る。数値・設定: 内=自然数(1,2,3)・中=整数(0,−2追加)・外=数(0.5,−3/4追加)。白黒印刷向けのシンプルな教材図（SVG）としてかいて。」——この説明文を生成AIに渡せば同型の図を描かせられる。数値を変えれば類題用の図も作れる。</desc>
<!-- L11_fig1_number_sets.svg | 数の集合の入れ子（自然数⊂整数⊂数全体） -->
<!-- generated by assets_provenance/generate_figures.py on 2026-07-20 (SVG直接編集禁止/スクリプト改修で再生成) -->
<rect x="0" y="0" width="460" height="300" fill="#fff"/>
<polyline points="426.0,142.0 425.3,152.3 423.0,162.5 419.3,172.5 414.2,182.4 407.6,191.9 399.7,201.0 390.6,209.7 380.1,217.8 368.6,225.4 356.0,232.4 342.4,238.7 328.0,244.2 312.8,248.9 297.0,252.9 280.7,256.0 264.0,258.2 247.1,259.6 230.0,260.0 212.9,259.6 196.0,258.2 179.3,256.0 163.0,252.9 147.2,248.9 132.0,244.2 117.6,238.7 104.0,232.4 91.4,225.4 79.9,217.8 69.4,209.7 60.3,201.0 52.4,191.9 45.8,182.4 40.7,172.5 37.0,162.5 34.7,152.3 34.0,142.0 34.7,131.7 37.0,121.5 40.7,111.5 45.8,101.6 52.4,92.1 60.3,83.0 69.4,74.3 79.9,66.2 91.4,58.6 104.0,51.6 117.6,45.3 132.0,39.8 147.2,35.1 163.0,31.1 179.3,28.0 196.0,25.8 212.9,24.4 230.0,24.0 247.1,24.4 264.0,25.8 280.7,28.0 297.0,31.1 312.8,35.1 328.0,39.8 342.4,45.3 356.0,51.6 368.6,58.6 380.1,66.2 390.6,74.3 399.7,83.0 407.6,92.1 414.2,101.6 419.3,111.5 423.0,121.5 425.3,131.7 426.0,142.0" fill="none" stroke="#000" stroke-width="1.6"/>
<polyline points="328.0,154.0 327.5,161.5 326.0,168.9 323.5,176.3 320.0,183.4 315.6,190.3 310.3,197.0 304.1,203.3 297.1,209.3 289.3,214.8 280.8,219.9 271.7,224.4 262.0,228.5 251.8,231.9 241.1,234.8 230.2,237.1 218.9,238.7 207.5,239.7 196.0,240.0 184.5,239.7 173.1,238.7 161.8,237.1 150.9,234.8 140.2,231.9 130.0,228.5 120.3,224.4 111.2,219.9 102.7,214.8 94.9,209.3 87.9,203.3 81.7,197.0 76.4,190.3 72.0,183.4 68.5,176.3 66.0,168.9 64.5,161.5 64.0,154.0 64.5,146.5 66.0,139.1 68.5,131.7 72.0,124.6 76.4,117.7 81.7,111.0 87.9,104.7 94.9,98.7 102.7,93.2 111.2,88.1 120.3,83.6 130.0,79.5 140.2,76.1 150.9,73.2 161.8,70.9 173.1,69.3 184.5,68.3 196.0,68.0 207.5,68.3 218.9,69.3 230.2,70.9 241.1,73.2 251.8,76.1 262.0,79.5 271.7,83.6 280.8,88.1 289.3,93.2 297.1,98.7 304.1,104.7 310.3,111.0 315.6,117.7 320.0,124.6 323.5,131.7 326.0,139.1 327.5,146.5 328.0,154.0" fill="none" stroke="#000" stroke-width="1.6"/>
<polyline points="242.0,166.0 241.7,170.5 240.9,175.0 239.5,179.5 237.5,183.8 235.1,188.0 232.1,192.0 228.6,195.8 224.7,199.4 220.3,202.8 215.6,205.8 210.4,208.6 205.0,211.0 199.3,213.1 193.3,214.9 187.2,216.2 180.8,217.2 174.4,217.8 168.0,218.0 161.6,217.8 155.2,217.2 148.8,216.2 142.7,214.9 136.7,213.1 131.0,211.0 125.6,208.6 120.4,205.8 115.7,202.8 111.3,199.4 107.4,195.8 103.9,192.0 100.9,188.0 98.5,183.8 96.5,179.5 95.1,175.0 94.3,170.5 94.0,166.0 94.3,161.5 95.1,157.0 96.5,152.5 98.5,148.2 100.9,144.0 103.9,140.0 107.4,136.2 111.3,132.6 115.7,129.2 120.4,126.2 125.6,123.4 131.0,121.0 136.7,118.9 142.7,117.1 148.8,115.8 155.2,114.8 161.6,114.2 168.0,114.0 174.4,114.2 180.8,114.8 187.2,115.8 193.3,117.1 199.3,118.9 205.0,121.0 210.4,123.4 215.6,126.2 220.3,129.2 224.7,132.6 228.6,136.2 232.1,140.0 235.1,144.0 237.5,148.2 239.5,152.5 240.9,157.0 241.7,161.5 242.0,166.0" fill="none" stroke="#000" stroke-width="1.6"/>
<text x="168.0" y="130.0" font-size="13" text-anchor="middle" font-weight="bold">自然数</text>
<text x="252.0" y="102.0" font-size="13" text-anchor="middle" font-weight="bold">整数</text>
<text x="348.0" y="76.0" font-size="13" text-anchor="middle" font-weight="bold">数</text>
<text x="146.0" y="172.0" font-size="13" text-anchor="middle">1</text>
<text x="168.0" y="194.0" font-size="13" text-anchor="middle">2</text>
<text x="190.0" y="172.0" font-size="13" text-anchor="middle">3</text>
<text x="274.0" y="166.0" font-size="13" text-anchor="middle">0</text>
<text x="294.0" y="200.0" font-size="13" text-anchor="middle">−2</text>
<text x="378.0" y="176.0" font-size="13" text-anchor="middle">0.5</text>
<text x="100.0" y="76.0" font-size="13" text-anchor="middle">−3/4</text>
<text x="230.0" y="284.0" font-size="12" text-anchor="middle">内側の集合は外側の集合にすっぽり含まれる——範囲が広がると計算の自由度が上がる</text>
</svg>
