<svg xmlns="http://www.w3.org/2000/svg" viewBox="0 0 520 300">
<title>仮平均の数直線（基準300のまわりのずれと平均303）</title>
<desc>【この図の意図】ずれの平均＋3だけ基準を動かすと本当の平均になることを見せる。【主要な数値・設定】範囲285〜330・基準300太線・5点(312,292,300,325,286)・平均303に星印。【AIに同じ種類の図を描かせるときの説明文】「仮平均の数直線（基準300のまわりのずれと平均303）。ずれの平均＋3だけ基準を動かすと本当の平均になることを見せる。数値・設定: 範囲285〜330・基準300太線・5点(312,292,300,325,286)・平均303に星印。白黒印刷向けのシンプルな教材図（SVG）としてかいて。」——この説明文を生成AIに渡せば同型の図を描かせられる。数値を変えれば類題用の図も作れる。</desc>
<!-- L12_fig1_provisional_mean.svg | 仮平均の数直線（基準300のまわりのずれと平均303） -->
<!-- generated by assets_provenance/generate_figures.py on 2026-07-20 (SVG直接編集禁止/スクリプト改修で再生成) -->
<rect x="0" y="0" width="520" height="300" fill="#fff"/>
<line x1="46.0" y1="170.0" x2="486.0" y2="170.0" stroke="#000" stroke-width="1.6"/>
<line x1="46.0" y1="165.0" x2="46.0" y2="175.0" stroke="#000" stroke-width="1.1"/>
<text x="46.0" y="188.0" font-size="10.5" text-anchor="middle">285</text>
<line x1="94.9" y1="165.0" x2="94.9" y2="175.0" stroke="#000" stroke-width="1.1"/>
<text x="94.9" y="188.0" font-size="10.5" text-anchor="middle">290</text>
<line x1="143.8" y1="165.0" x2="143.8" y2="175.0" stroke="#000" stroke-width="1.1"/>
<text x="143.8" y="188.0" font-size="10.5" text-anchor="middle">295</text>
<line x1="192.7" y1="165.0" x2="192.7" y2="175.0" stroke="#000" stroke-width="1.1"/>
<text x="192.7" y="188.0" font-size="10.5" text-anchor="middle">300</text>
<line x1="241.6" y1="165.0" x2="241.6" y2="175.0" stroke="#000" stroke-width="1.1"/>
<text x="241.6" y="188.0" font-size="10.5" text-anchor="middle">305</text>
<line x1="290.4" y1="165.0" x2="290.4" y2="175.0" stroke="#000" stroke-width="1.1"/>
<text x="290.4" y="188.0" font-size="10.5" text-anchor="middle">310</text>
<line x1="339.3" y1="165.0" x2="339.3" y2="175.0" stroke="#000" stroke-width="1.1"/>
<text x="339.3" y="188.0" font-size="10.5" text-anchor="middle">315</text>
<line x1="388.2" y1="165.0" x2="388.2" y2="175.0" stroke="#000" stroke-width="1.1"/>
<text x="388.2" y="188.0" font-size="10.5" text-anchor="middle">320</text>
<line x1="437.1" y1="165.0" x2="437.1" y2="175.0" stroke="#000" stroke-width="1.1"/>
<text x="437.1" y="188.0" font-size="10.5" text-anchor="middle">325</text>
<line x1="486.0" y1="165.0" x2="486.0" y2="175.0" stroke="#000" stroke-width="1.1"/>
<text x="486.0" y="188.0" font-size="10.5" text-anchor="middle">330</text>
<line x1="192.7" y1="144" x2="192.7" y2="180" stroke="#000" stroke-width="3.2"/>
<text x="184.7" y="140.0" font-size="12" text-anchor="end" font-weight="bold">基準 300</text>
<circle cx="310.0" cy="170" r="3.0" fill="#000"/>
<text x="310.0" y="202.0" font-size="11" text-anchor="middle">月</text>
<line x1="198.2" y1="124.0" x2="304.5" y2="124.0" stroke="#000" stroke-width="1.1"/>
<polygon points="192.7,124.0 198.2,126.5 198.2,121.5" fill="#000"/>
<polygon points="310.0,124.0 304.5,126.5 304.5,121.5" fill="#000"/>
<line x1="310.0" y1="124.0" x2="310.0" y2="165.0" stroke="#000" stroke-width="0.7" stroke-dasharray="2 3"/>
<line x1="192.7" y1="124.0" x2="192.7" y2="144.0" stroke="#000" stroke-width="0.7" stroke-dasharray="2 3"/>
<text x="251.3" y="118.0" font-size="11" text-anchor="middle" font-weight="bold">＋12</text>
<circle cx="114.4" cy="170" r="3.0" fill="#000"/>
<text x="114.4" y="202.0" font-size="11" text-anchor="middle">火</text>
<line x1="187.2" y1="124.0" x2="119.9" y2="124.0" stroke="#000" stroke-width="1.1"/>
<polygon points="192.7,124.0 187.2,121.5 187.2,126.5" fill="#000"/>
<polygon points="114.4,124.0 119.9,121.5 119.9,126.5" fill="#000"/>
<line x1="114.4" y1="124.0" x2="114.4" y2="165.0" stroke="#000" stroke-width="0.7" stroke-dasharray="2 3"/>
<line x1="192.7" y1="124.0" x2="192.7" y2="144.0" stroke="#000" stroke-width="0.7" stroke-dasharray="2 3"/>
<text x="153.6" y="118.0" font-size="11" text-anchor="middle" font-weight="bold">−8</text>
<circle cx="192.7" cy="170" r="3.0" fill="#000"/>
<text x="192.7" y="202.0" font-size="11" text-anchor="middle">水</text>
<text x="196.7" y="158.0" font-size="10" text-anchor="start">ずれ0</text>
<circle cx="437.1" cy="170" r="3.0" fill="#000"/>
<text x="437.1" y="202.0" font-size="11" text-anchor="middle">木</text>
<line x1="198.2" y1="92.0" x2="431.6" y2="92.0" stroke="#000" stroke-width="1.1"/>
<polygon points="192.7,92.0 198.2,94.5 198.2,89.5" fill="#000"/>
<polygon points="437.1,92.0 431.6,94.5 431.6,89.5" fill="#000"/>
<line x1="437.1" y1="92.0" x2="437.1" y2="165.0" stroke="#000" stroke-width="0.7" stroke-dasharray="2 3"/>
<line x1="192.7" y1="92.0" x2="192.7" y2="144.0" stroke="#000" stroke-width="0.7" stroke-dasharray="2 3"/>
<text x="314.9" y="86.0" font-size="11" text-anchor="middle" font-weight="bold">＋25</text>
<circle cx="55.8" cy="170" r="3.0" fill="#000"/>
<text x="55.8" y="202.0" font-size="11" text-anchor="middle">金</text>
<line x1="187.2" y1="92.0" x2="61.3" y2="92.0" stroke="#000" stroke-width="1.1"/>
<polygon points="192.7,92.0 187.2,89.5 187.2,94.5" fill="#000"/>
<polygon points="55.8,92.0 61.3,89.5 61.3,94.5" fill="#000"/>
<line x1="55.8" y1="92.0" x2="55.8" y2="165.0" stroke="#000" stroke-width="0.7" stroke-dasharray="2 3"/>
<line x1="192.7" y1="92.0" x2="192.7" y2="144.0" stroke="#000" stroke-width="0.7" stroke-dasharray="2 3"/>
<text x="124.2" y="86.0" font-size="11" text-anchor="middle" font-weight="bold">−14</text>
<line x1="192.7" y1="222.0" x2="215.0" y2="222.0" stroke="#000" stroke-width="1.8"/>
<polygon points="222.0,222.0 215.0,225.2 215.0,218.8" fill="#000"/>
<text x="207.3" y="238.0" font-size="11.5" text-anchor="middle" font-weight="bold">ずれの平均 ＋3</text>
<polygon points="222.0,201.0 223.8,205.6 228.7,205.8 224.9,208.9 226.1,213.7 222.0,211.0 217.9,213.7 219.1,208.9 215.3,205.8 220.2,205.6" fill="#000"/>
<text x="232.0" y="212.0" font-size="12" text-anchor="start" font-weight="bold">平均 303</text>
<text x="266.0" y="272.0" font-size="12" text-anchor="middle">ずれだけ集めて平均し、あとで基準300にたし戻す——それが仮平均の技</text>
</svg>
