<svg xmlns="http://www.w3.org/2000/svg" viewBox="0 0 470 300" role="img">
<title>希少性と選択の概念図（欲しいもの3つと使えるお金1,000円）</title>
<desc>L01導入〜本文の概念図。上段に欲しいもの3枚のカード（ルポの実のジュース400円・焼きたてパン350円・文房具セット500円——すべて架空）、中段に「おこづかい 1,000円＝使えるお金には限り（希少性）」の箱、下段に破線の2箱「選ぶもの ？」「あきらめるもの ？」を対等に並べ、中段から2本の矢印（ラベル「選択」）でつなぐ。合計金額や買える組み合わせは導入の問い・活動の答えにあたるため記載しない。再現指示: 品物カード3枚→お金の箱→同寸の？箱2つ、の3段構成で描き、？箱への矢印は同じ太さ・同じ長さにする。白黒のみ。</desc>
<!-- L01_fig1_scarcity_choice.svg | 希少性と選択の概念図（欲しいもの3つと使えるお金1,000円） -->
<!-- generated by assets_provenance/generate_figures.py on 2026-07-17 (docs/SPEC_figures.md準拠（内部規約の要旨は同SPECに反映済み）・AI再利用メタ情報つき・SVG直接編集禁止/スクリプト改修で再生成) -->
<rect x="0" y="0" width="470" height="300" fill="#fff"/>
<text x="235.0" y="28.0" font-size="14" text-anchor="middle" font-weight="bold">欲しいものは3つ、使えるお金には限りがある</text>
<rect x="19.0" y="52.0" width="136.0" height="62.0" rx="6" fill="none" stroke="#000" stroke-width="1.6"/>
<text x="87.0" y="79.3" font-size="12" text-anchor="middle" font-weight="bold">ルポの実のジュース</text>
<text x="87.0" y="95.3" font-size="12" text-anchor="middle">400円</text>
<rect x="167.0" y="52.0" width="136.0" height="62.0" rx="6" fill="none" stroke="#000" stroke-width="1.6"/>
<text x="235.0" y="79.3" font-size="12" text-anchor="middle" font-weight="bold">焼きたてパン</text>
<text x="235.0" y="95.3" font-size="12" text-anchor="middle">350円</text>
<rect x="315.0" y="52.0" width="136.0" height="62.0" rx="6" fill="none" stroke="#000" stroke-width="1.6"/>
<text x="383.0" y="79.3" font-size="12" text-anchor="middle" font-weight="bold">文房具セット</text>
<text x="383.0" y="95.3" font-size="12" text-anchor="middle">500円</text>
<line x1="87.0" y1="114.0" x2="185.0" y2="148.0" stroke="#888" stroke-width="1.1" stroke-dasharray="2 3"/>
<line x1="235.0" y1="114.0" x2="235.0" y2="148.0" stroke="#888" stroke-width="1.1" stroke-dasharray="2 3"/>
<line x1="383.0" y1="114.0" x2="285.0" y2="148.0" stroke="#888" stroke-width="1.1" stroke-dasharray="2 3"/>
<rect x="130.0" y="148.0" width="210.0" height="56.0" rx="6" fill="none" stroke="#000" stroke-width="1.92"/>
<text x="235.0" y="170.3" font-size="12" text-anchor="middle" font-weight="bold">おこづかい 1,000円</text>
<text x="235.0" y="190.3" font-size="12" text-anchor="middle">＝使えるお金には限り（希少性）</text>
<line x1="215.0" y1="204.0" x2="135.0" y2="236.0" stroke="#000" stroke-width="1.4"/>
<line x1="135.0" y1="236.0" x2="139.7" y2="230.8" stroke="#000" stroke-width="1.4"/>
<line x1="135.0" y1="236.0" x2="142.0" y2="236.5" stroke="#000" stroke-width="1.4"/>
<line x1="255.0" y1="204.0" x2="335.0" y2="236.0" stroke="#000" stroke-width="1.4"/>
<line x1="335.0" y1="236.0" x2="328.0" y2="236.5" stroke="#000" stroke-width="1.4"/>
<line x1="335.0" y1="236.0" x2="330.3" y2="230.8" stroke="#000" stroke-width="1.4"/>
<text x="235.0" y="228.0" font-size="12" text-anchor="middle" font-weight="bold">選択</text>
<rect x="45.0" y="236.0" width="180.0" height="44.0" rx="6" fill="none" stroke="#000" stroke-width="1.6" stroke-dasharray="6 4"/>
<text x="135.0" y="262.3" font-size="12" text-anchor="middle" font-weight="bold">選ぶもの ？</text>
<rect x="245.0" y="236.0" width="180.0" height="44.0" rx="6" fill="none" stroke="#000" stroke-width="1.6" stroke-dasharray="6 4"/>
<text x="335.0" y="262.3" font-size="12" text-anchor="middle" font-weight="bold">あきらめるもの ？</text>
<text x="235.0" y="296.0" font-size="11" text-anchor="middle">（あおば町・みずき市場・品物と価格はすべて架空の設定）</text>
</svg>
