<svg xmlns="http://www.w3.org/2000/svg" viewBox="0 0 480 310" role="img">
<title>市場での交換と分業のフロー図</title>
<desc>L02本文と活動3の概念図。上段は破線の枠「市場（みずき市場）」の中で、売り手（ハルさんの屋台）と買い手（町の人）の箱を左右に置き、上の矢印「商品（ルポの実）」は売り手→買い手、下の矢印「貨幣（お金）」は買い手→売り手と、逆向きの2本で交換を示す。下段は「育てる人（農家）→運ぶ人→売る人→買う人」の4箱を矢印でつなぐ分業のチェーン。数値なし・すべて架空の設定。再現指示: 上段=左右2箱と逆向き矢印2本を破線枠で囲む、下段=同寸の4箱を一方向の矢印でつなぐ、の2段構成。白黒のみ。</desc>
<!-- L02_fig1_market_exchange_flow.svg | 市場での交換と分業のフロー図 -->
<!-- generated by assets_provenance/generate_figures.py on 2026-07-17 (docs/SPEC_figures.md準拠（内部規約の要旨は同SPECに反映済み）・AI再利用メタ情報つき・SVG直接編集禁止/スクリプト改修で再生成) -->
<rect x="0" y="0" width="480" height="310" fill="#fff"/>
<text x="240.0" y="26.0" font-size="14" text-anchor="middle" font-weight="bold">市場——貨幣を通した交換</text>
<rect x="28.0" y="44.0" width="424.0" height="118.0" rx="10" fill="none" stroke="#000" stroke-width="1.1" stroke-dasharray="6 4"/>
<text x="44.0" y="62.0" font-size="12" text-anchor="start" font-weight="bold">市場（みずき市場）</text>
<rect x="48.0" y="76.0" width="118.0" height="62.0" rx="6" fill="none" stroke="#000" stroke-width="1.6"/>
<text x="107.0" y="103.3" font-size="12" text-anchor="middle" font-weight="bold">売り手</text>
<text x="107.0" y="119.3" font-size="12" text-anchor="middle">（ハルさんの屋台）</text>
<rect x="314.0" y="76.0" width="118.0" height="62.0" rx="6" fill="none" stroke="#000" stroke-width="1.6"/>
<text x="373.0" y="103.3" font-size="12" text-anchor="middle" font-weight="bold">買い手</text>
<text x="373.0" y="119.3" font-size="12" text-anchor="middle">（町の人）</text>
<line x1="174.0" y1="92.0" x2="306.0" y2="92.0" stroke="#000" stroke-width="1.6"/>
<line x1="306.0" y1="92.0" x2="299.7" y2="95.1" stroke="#000" stroke-width="1.6"/>
<line x1="306.0" y1="92.0" x2="299.7" y2="88.9" stroke="#000" stroke-width="1.6"/>
<text x="240.0" y="84.0" font-size="12" text-anchor="middle">商品（ルポの実）</text>
<line x1="306.0" y1="124.0" x2="174.0" y2="124.0" stroke="#000" stroke-width="1.6"/>
<line x1="174.0" y1="124.0" x2="180.3" y2="120.9" stroke="#000" stroke-width="1.6"/>
<line x1="174.0" y1="124.0" x2="180.3" y2="127.1" stroke="#000" stroke-width="1.6"/>
<text x="240.0" y="140.0" font-size="12" text-anchor="middle">貨幣（お金）</text>
<text x="240.0" y="196.0" font-size="14" text-anchor="middle" font-weight="bold">分業——役割を分けて、商品が届くまでをつなぐ</text>
<rect x="13.0" y="214.0" width="100.0" height="50.0" rx="6" fill="none" stroke="#000" stroke-width="1.6"/>
<text x="63.0" y="235.3" font-size="12" text-anchor="middle" font-weight="bold">育てる人</text>
<text x="63.0" y="251.3" font-size="12" text-anchor="middle">（農家）</text>
<rect x="131.0" y="214.0" width="100.0" height="50.0" rx="6" fill="none" stroke="#000" stroke-width="1.6"/>
<text x="181.0" y="243.3" font-size="12" text-anchor="middle" font-weight="bold">運ぶ人</text>
<line x1="115.0" y1="239.0" x2="129.0" y2="239.0" stroke="#000" stroke-width="1.6"/>
<line x1="129.0" y1="239.0" x2="122.7" y2="242.1" stroke="#000" stroke-width="1.6"/>
<line x1="129.0" y1="239.0" x2="122.7" y2="235.9" stroke="#000" stroke-width="1.6"/>
<rect x="249.0" y="214.0" width="100.0" height="50.0" rx="6" fill="none" stroke="#000" stroke-width="1.6"/>
<text x="299.0" y="243.3" font-size="12" text-anchor="middle" font-weight="bold">売る人</text>
<line x1="233.0" y1="239.0" x2="247.0" y2="239.0" stroke="#000" stroke-width="1.6"/>
<line x1="247.0" y1="239.0" x2="240.7" y2="242.1" stroke="#000" stroke-width="1.6"/>
<line x1="247.0" y1="239.0" x2="240.7" y2="235.9" stroke="#000" stroke-width="1.6"/>
<rect x="367.0" y="214.0" width="100.0" height="50.0" rx="6" fill="none" stroke="#000" stroke-width="1.6"/>
<text x="417.0" y="243.3" font-size="12" text-anchor="middle" font-weight="bold">買う人</text>
<line x1="351.0" y1="239.0" x2="365.0" y2="239.0" stroke="#000" stroke-width="1.6"/>
<line x1="365.0" y1="239.0" x2="358.7" y2="242.1" stroke="#000" stroke-width="1.6"/>
<line x1="365.0" y1="239.0" x2="358.7" y2="235.9" stroke="#000" stroke-width="1.6"/>
<text x="240.0" y="292.0" font-size="11" text-anchor="middle">（分業でつくられた商品が、市場で貨幣と交換される。登場する町・市場・品はすべて架空）</text>
</svg>
