<svg xmlns="http://www.w3.org/2000/svg" viewBox="0 0 480 344" role="img">
<title>ひとり紙上市場（思考実験）の手順図</title>
<desc>L02活動1の手順図。手順1「売り手になる——ルポの実カード10枚を1枚100円で売り始める」から、破線の2箱「なかなか売れないとき」「すぐ売り切れそうなとき」（どちらも「次の値付けは？（理由も）」）へ分岐。手順2「立場を替えて買い手になる——持ち金500円（架空通貨）」から「値上がりしたとき」「値下がりしたとき」（どちらも「買う量をどうする？（理由も）」）へ分岐。手順3「ふり返り——売り手と買い手の反応が逆向きになっていることを確かめる」で閉じる。値付け・買う量の答えはすべて？で、図は示さない。再現指示: 横長の手順バー3本の間に、同寸の破線箱2つずつを左右対称に置き、細い矢印で分岐させる。白黒のみ。</desc>
<!-- L02_fig2_paper_market_steps.svg | ひとり紙上市場（思考実験）の手順図 -->
<!-- generated by assets_provenance/generate_figures.py on 2026-07-17 (docs/SPEC_figures.md準拠（内部規約の要旨は同SPECに反映済み）・AI再利用メタ情報つき・SVG直接編集禁止/スクリプト改修で再生成) -->
<rect x="0" y="0" width="480" height="344" fill="#fff"/>
<text x="240.0" y="26.0" font-size="14" text-anchor="middle" font-weight="bold">ひとり紙上市場（思考実験）の進め方</text>
<rect x="30.0" y="44.0" width="420.0" height="36.0" rx="6" fill="none" stroke="#000" stroke-width="1.6"/>
<text x="240.0" y="66.0" font-size="11" text-anchor="middle" font-weight="bold">手順1 売り手になる——ルポの実カード10枚を 1枚100円で売り始める</text>
<rect x="30.0" y="96.0" width="202.0" height="56.0" rx="6" fill="none" stroke="#000" stroke-width="1.6" stroke-dasharray="6 4"/>
<text x="131.0" y="120.3" font-size="12" text-anchor="middle">なかなか売れないとき</text>
<text x="131.0" y="136.3" font-size="12" text-anchor="middle">次の値付けは？（理由も）</text>
<rect x="248.0" y="96.0" width="202.0" height="56.0" rx="6" fill="none" stroke="#000" stroke-width="1.6" stroke-dasharray="6 4"/>
<text x="349.0" y="120.3" font-size="12" text-anchor="middle">すぐ売り切れそうなとき</text>
<text x="349.0" y="136.3" font-size="12" text-anchor="middle">次の値付けは？（理由も）</text>
<line x1="180.0" y1="86.0" x2="131.0" y2="95.0" stroke="#000" stroke-width="1.2"/>
<line x1="131.0" y1="95.0" x2="136.6" y2="90.8" stroke="#000" stroke-width="1.2"/>
<line x1="131.0" y1="95.0" x2="137.7" y2="96.9" stroke="#000" stroke-width="1.2"/>
<line x1="300.0" y1="86.0" x2="349.0" y2="95.0" stroke="#000" stroke-width="1.2"/>
<line x1="349.0" y1="95.0" x2="342.3" y2="96.9" stroke="#000" stroke-width="1.2"/>
<line x1="349.0" y1="95.0" x2="343.4" y2="90.8" stroke="#000" stroke-width="1.2"/>
<rect x="30.0" y="172.0" width="420.0" height="36.0" rx="6" fill="none" stroke="#000" stroke-width="1.6"/>
<text x="240.0" y="194.0" font-size="11" text-anchor="middle" font-weight="bold">手順2 立場を替えて買い手になる——持ち金500円（架空通貨）</text>
<rect x="30.0" y="224.0" width="202.0" height="56.0" rx="6" fill="none" stroke="#000" stroke-width="1.6" stroke-dasharray="6 4"/>
<text x="131.0" y="248.3" font-size="12" text-anchor="middle">値上がりしたとき</text>
<text x="131.0" y="264.3" font-size="12" text-anchor="middle">買う量をどうする？（理由も）</text>
<rect x="248.0" y="224.0" width="202.0" height="56.0" rx="6" fill="none" stroke="#000" stroke-width="1.6" stroke-dasharray="6 4"/>
<text x="349.0" y="248.3" font-size="12" text-anchor="middle">値下がりしたとき</text>
<text x="349.0" y="264.3" font-size="12" text-anchor="middle">買う量をどうする？（理由も）</text>
<line x1="180.0" y1="214.0" x2="131.0" y2="223.0" stroke="#000" stroke-width="1.2"/>
<line x1="131.0" y1="223.0" x2="136.6" y2="218.8" stroke="#000" stroke-width="1.2"/>
<line x1="131.0" y1="223.0" x2="137.7" y2="224.9" stroke="#000" stroke-width="1.2"/>
<line x1="300.0" y1="214.0" x2="349.0" y2="223.0" stroke="#000" stroke-width="1.2"/>
<line x1="349.0" y1="223.0" x2="342.3" y2="224.9" stroke="#000" stroke-width="1.2"/>
<line x1="349.0" y1="223.0" x2="343.4" y2="218.8" stroke="#000" stroke-width="1.2"/>
<line x1="240.0" y1="152.0" x2="240.0" y2="170.0" stroke="#000" stroke-width="1.4"/>
<line x1="240.0" y1="170.0" x2="236.9" y2="163.7" stroke="#000" stroke-width="1.4"/>
<line x1="240.0" y1="170.0" x2="243.1" y2="163.7" stroke="#000" stroke-width="1.4"/>
<line x1="240.0" y1="280.0" x2="240.0" y2="298.0" stroke="#000" stroke-width="1.4"/>
<line x1="240.0" y1="298.0" x2="236.9" y2="291.7" stroke="#000" stroke-width="1.4"/>
<line x1="240.0" y1="298.0" x2="243.1" y2="291.7" stroke="#000" stroke-width="1.4"/>
<rect x="30.0" y="300.0" width="420.0" height="36.0" rx="6" fill="none" stroke="#000" stroke-width="1.6"/>
<text x="240.0" y="322.0" font-size="11" text-anchor="middle" font-weight="bold">手順3 ふり返り——売り手と買い手の反応が逆向きになっていることを確かめる</text>
</svg>
