<svg xmlns="http://www.w3.org/2000/svg" viewBox="0 0 480 300" role="img">
<title>価格の調整の概念図（品不足→上がる力／売れ残り→下がる力）</title>
<desc>L03本文の概念図。左パネル「価格が低いとき（60円）」は買いたい量100個（斜線ハッチングの横バー）と売りたい量40個（白バー）の差を破線でかこんで「→ 品不足」、上向き矢印で「価格に上がる力」。右パネル「価格が高いとき（120円）」は買いたい量40個と売りたい量80個で「→ 売れ残り」、下向き矢印で「価格に下がる力」。バーの長さは量に厳密比例。下に「ズレが小さくなる方向へ価格は動く」と、モデル条件の注記（売り手が値札を書き換えられる架空の設定）。80円・100円の状態は活動の答えにあたるため描かない。再現指示: 同寸の左右パネルに量比例の横バー2本ずつを置き、差の部分を破線でかこみ、同寸の上下矢印で価格の動く向きを添える。白黒のみ。</desc>
<!-- L03_fig2_price_adjustment.svg | 価格の調整の概念図（品不足→上がる力／売れ残り→下がる力） -->
<!-- generated by assets_provenance/generate_figures.py on 2026-07-17 (docs/SPEC_figures.md準拠（内部規約の要旨は同SPECに反映済み）・AI再利用メタ情報つき・SVG直接編集禁止/スクリプト改修で再生成) -->
<rect x="0" y="0" width="480" height="300" fill="#fff"/>
<defs><pattern id="h45" width="6" height="6" patternUnits="userSpaceOnUse" patternTransform="rotate(45)"><line x1="0" y1="0" x2="0" y2="6" stroke="#555" stroke-width="1.1"/></pattern></defs><text x="240.0" y="26.0" font-size="14" text-anchor="middle" font-weight="bold">2つの量のズレが、価格を動かす</text>
<rect x="20.0" y="44.0" width="214.0" height="196.0" rx="8" fill="none" stroke="#000" stroke-width="1.1"/>
<text x="127.0" y="66.0" font-size="12" text-anchor="middle" font-weight="bold">価格が低いとき（60円）</text>
<rect x="36.0" y="84.0" width="150.0" height="22.0" fill="url(#h45)" stroke="#000" stroke-width="1.2"/>
<text x="36.0" y="78.0" font-size="11" text-anchor="start">買いたい量 100個</text>
<rect x="36.0" y="128.0" width="60.0" height="22.0" fill="none" stroke="#000" stroke-width="1.2"/>
<text x="36.0" y="122.0" font-size="11" text-anchor="start">売りたい量 40個</text>
<rect x="98.0" y="82.0" width="88.0" height="70.0" rx="4" fill="none" stroke="#000" stroke-width="1.1" stroke-dasharray="3 3"/>
<text x="127.0" y="176.0" font-size="12" text-anchor="middle" font-weight="bold">→ 品不足</text>
<line x1="69.0" y1="216.0" x2="69.0" y2="192.0" stroke="#000" stroke-width="2.2"/>
<line x1="69.0" y1="192.0" x2="72.5" y2="199.2" stroke="#000" stroke-width="2.2"/>
<line x1="69.0" y1="192.0" x2="65.5" y2="199.2" stroke="#000" stroke-width="2.2"/>
<text x="139.0" y="208.0" font-size="12" text-anchor="middle" font-weight="bold">価格に上がる力</text>
<rect x="246.0" y="44.0" width="214.0" height="196.0" rx="8" fill="none" stroke="#000" stroke-width="1.1"/>
<text x="353.0" y="66.0" font-size="12" text-anchor="middle" font-weight="bold">価格が高いとき（120円）</text>
<rect x="262.0" y="84.0" width="60.0" height="22.0" fill="url(#h45)" stroke="#000" stroke-width="1.2"/>
<text x="262.0" y="78.0" font-size="11" text-anchor="start">買いたい量 40個</text>
<rect x="262.0" y="128.0" width="120.0" height="22.0" fill="none" stroke="#000" stroke-width="1.2"/>
<text x="262.0" y="122.0" font-size="11" text-anchor="start">売りたい量 80個</text>
<rect x="324.0" y="82.0" width="58.0" height="70.0" rx="4" fill="none" stroke="#000" stroke-width="1.1" stroke-dasharray="3 3"/>
<text x="353.0" y="176.0" font-size="12" text-anchor="middle" font-weight="bold">→ 売れ残り</text>
<line x1="295.0" y1="192.0" x2="295.0" y2="216.0" stroke="#000" stroke-width="2.2"/>
<line x1="295.0" y1="216.0" x2="291.5" y2="208.8" stroke="#000" stroke-width="2.2"/>
<line x1="295.0" y1="216.0" x2="298.5" y2="208.8" stroke="#000" stroke-width="2.2"/>
<text x="365.0" y="208.0" font-size="12" text-anchor="middle" font-weight="bold">価格に下がる力</text>
<text x="240.0" y="266.0" font-size="12" text-anchor="middle">ズレが小さくなる方向へ、価格は動いていく</text>
<text x="240.0" y="288.0" font-size="11" text-anchor="middle">（※売り手が自分で値札を書き換えられる、というみずき市場（架空）の設定のもとでのモデル）</text>
</svg>
