<svg xmlns="http://www.w3.org/2000/svg" viewBox="0 0 480 372" role="img">
<title>3問手順型のフロー図（ジュースの流行の例つき）</title>
<desc>L04本文の手順図。「きっかけ（例）テレビ番組（架空）でジュースが紹介され、飲みたい人が増えた」の箱から、①どちらの量が変わる？（買いたい量か、売りたい量か）→②どちら向きに変わる？（増えるのか、減るのか）→③価格と取引量はどうなる？の3箱を下向き矢印でつなぎ、右側の破線箱に本文明記の例（①買いたい量が ②増える ③いまの価格では品不足→価格は上がりやすく、取引量も増えやすい）を添える。確認問題の別の場面の答えは入れない。再現指示: 縦のフロー3箱＋きっかけ箱を実線、例の答えを破線箱で右に並置し、点線矢印で対応づける。白黒のみ。</desc>
<!-- L04_fig1_three_question_procedure.svg | 3問手順型のフロー図（ジュースの流行の例つき） -->
<!-- generated by assets_provenance/generate_figures.py on 2026-07-17 (docs/SPEC_figures.md準拠（内部規約の要旨は同SPECに反映済み）・AI再利用メタ情報つき・SVG直接編集禁止/スクリプト改修で再生成) -->
<rect x="0" y="0" width="480" height="372" fill="#fff"/>
<text x="240.0" y="26.0" font-size="14" text-anchor="middle" font-weight="bold">3問手順型——順番に考えて予測する</text>
<rect x="30.0" y="40.0" width="420.0" height="46.0" rx="6" fill="none" stroke="#000" stroke-width="1.6"/>
<text x="240.0" y="58.0" font-size="11" text-anchor="middle" font-weight="bold">きっかけ（例）</text>
<text x="240.0" y="76.0" font-size="11" text-anchor="middle">テレビ番組（架空）でジュースが紹介され、飲みたい人が増えた</text>
<rect x="30.0" y="100.0" width="268.0" height="52.0" rx="6" fill="none" stroke="#000" stroke-width="1.6"/>
<text x="164.0" y="122.3" font-size="12" text-anchor="middle" font-weight="bold">① どちらの量が変わる？</text>
<text x="164.0" y="138.3" font-size="12" text-anchor="middle">（買いたい量か、売りたい量か）</text>
<line x1="164.0" y1="152.0" x2="164.0" y2="166.0" stroke="#000" stroke-width="1.4"/>
<line x1="164.0" y1="166.0" x2="160.9" y2="159.7" stroke="#000" stroke-width="1.4"/>
<line x1="164.0" y1="166.0" x2="167.1" y2="159.7" stroke="#000" stroke-width="1.4"/>
<rect x="316.0" y="100.0" width="134.0" height="52.0" rx="6" fill="none" stroke="#000" stroke-width="1.6" stroke-dasharray="6 4"/>
<text x="383.0" y="122.3" font-size="12" text-anchor="middle">例:</text>
<text x="383.0" y="138.3" font-size="12" text-anchor="middle">買いたい量が</text>
<line x1="302.0" y1="126.0" x2="312.0" y2="126.0" stroke="#000" stroke-width="1.0" stroke-dasharray="2 3"/>
<line x1="312.0" y1="126.0" x2="305.7" y2="129.1" stroke="#000" stroke-width="1.0"/>
<line x1="312.0" y1="126.0" x2="305.7" y2="122.9" stroke="#000" stroke-width="1.0"/>
<rect x="30.0" y="168.0" width="268.0" height="52.0" rx="6" fill="none" stroke="#000" stroke-width="1.6"/>
<text x="164.0" y="190.3" font-size="12" text-anchor="middle" font-weight="bold">② どちら向きに変わる？</text>
<text x="164.0" y="206.3" font-size="12" text-anchor="middle">（増えるのか、減るのか）</text>
<line x1="164.0" y1="220.0" x2="164.0" y2="234.0" stroke="#000" stroke-width="1.4"/>
<line x1="164.0" y1="234.0" x2="160.9" y2="227.7" stroke="#000" stroke-width="1.4"/>
<line x1="164.0" y1="234.0" x2="167.1" y2="227.7" stroke="#000" stroke-width="1.4"/>
<rect x="316.0" y="168.0" width="134.0" height="52.0" rx="6" fill="none" stroke="#000" stroke-width="1.6" stroke-dasharray="6 4"/>
<text x="383.0" y="190.3" font-size="12" text-anchor="middle">例:</text>
<text x="383.0" y="206.3" font-size="12" text-anchor="middle">増える</text>
<line x1="302.0" y1="194.0" x2="312.0" y2="194.0" stroke="#000" stroke-width="1.0" stroke-dasharray="2 3"/>
<line x1="312.0" y1="194.0" x2="305.7" y2="197.1" stroke="#000" stroke-width="1.0"/>
<line x1="312.0" y1="194.0" x2="305.7" y2="190.9" stroke="#000" stroke-width="1.0"/>
<rect x="30.0" y="236.0" width="268.0" height="52.0" rx="6" fill="none" stroke="#000" stroke-width="1.6"/>
<text x="164.0" y="266.3" font-size="12" text-anchor="middle" font-weight="bold">③ 価格と取引量はどうなる？</text>
<line x1="164.0" y1="288.0" x2="164.0" y2="302.0" stroke="#000" stroke-width="1.4"/>
<line x1="164.0" y1="302.0" x2="160.9" y2="295.7" stroke="#000" stroke-width="1.4"/>
<line x1="164.0" y1="302.0" x2="167.1" y2="295.7" stroke="#000" stroke-width="1.4"/>
<rect x="30.0" y="302.0" width="420.0" height="44.0" rx="6" fill="none" stroke="#000" stroke-width="1.6" stroke-dasharray="6 4"/>
<text x="240.0" y="319.0" font-size="11" text-anchor="middle">例: いまの価格では品不足</text>
<text x="240.0" y="337.0" font-size="11" text-anchor="middle">→ 価格は上がりやすく、取引量も増えやすい</text>
<line x1="164.0" y1="288.0" x2="164.0" y2="300.0" stroke="#000" stroke-width="1.4"/>
<line x1="164.0" y1="300.0" x2="160.9" y2="293.7" stroke="#000" stroke-width="1.4"/>
<line x1="164.0" y1="300.0" x2="167.1" y2="293.7" stroke="#000" stroke-width="1.4"/>
<text x="240.0" y="360.0" font-size="11" text-anchor="middle">（※一度に考える変化は1つだけ。この型で予測しにくい場面もある——確認問題Q3）</text>
</svg>
