<svg xmlns="http://www.w3.org/2000/svg" viewBox="0 0 480 330" role="img">
<title>効率と公正——2つのものさしの整理図</title>
<desc>L05本文の整理図。上の箱「同じ出来事（例: 日照りで収穫が減り、価格が上がった——架空）」から、同じ太さの矢印2本で、同寸・同段の2パネルへ分かれる。左パネル=ものさし1 効率（無駄を省く——より少ない資源で、より大きな成果を得る）。右パネル=ものさし2 公正（意味の異なる複数のものさし）で、内側に手続き（決め方にみんなが参加できたか）・機会（チャンスは等しく開かれていたか）・結果（行き渡り方に偏りはないか）の3つの小箱と「…など（3つは例であり、すべてではない）」の注記。下に「どのものさしで測るかで評価は変わりうる——ものさしに優劣をつける図ではない」。再現指示: 2パネルは必ず同寸・同じ高さに置き、矢印も同じ太さにする（優劣の視覚的示唆を避ける）。白黒のみ。</desc>
<!-- L05_fig1_efficiency_fairness_rulers.svg | 効率と公正——2つのものさしの整理図 -->
<!-- generated by assets_provenance/generate_figures.py on 2026-07-17 (docs/SPEC_figures.md準拠（内部規約の要旨は同SPECに反映済み）・AI再利用メタ情報つき・SVG直接編集禁止/スクリプト改修で再生成) -->
<rect x="0" y="0" width="480" height="330" fill="#fff"/>
<text x="240.0" y="26.0" font-size="14" text-anchor="middle" font-weight="bold">同じ出来事を、2つのものさしで測る</text>
<rect x="90.0" y="42.0" width="300.0" height="40.0" rx="6" fill="none" stroke="#000" stroke-width="1.6"/>
<text x="240.0" y="66.1" font-size="11.5" text-anchor="middle">同じ出来事（例: 日照りで収穫が減り、価格が上がった——架空）</text>
<line x1="180.0" y1="82.0" x2="127.0" y2="118.0" stroke="#000" stroke-width="1.4"/>
<line x1="127.0" y1="118.0" x2="130.5" y2="111.9" stroke="#000" stroke-width="1.4"/>
<line x1="127.0" y1="118.0" x2="133.9" y2="117.0" stroke="#000" stroke-width="1.4"/>
<line x1="300.0" y1="82.0" x2="353.0" y2="118.0" stroke="#000" stroke-width="1.4"/>
<line x1="353.0" y1="118.0" x2="346.1" y2="117.0" stroke="#000" stroke-width="1.4"/>
<line x1="353.0" y1="118.0" x2="349.5" y2="111.9" stroke="#000" stroke-width="1.4"/>
<rect x="20.0" y="122.0" width="214.0" height="176.0" rx="8" fill="none" stroke="#000" stroke-width="1.6"/>
<rect x="246.0" y="122.0" width="214.0" height="176.0" rx="8" fill="none" stroke="#000" stroke-width="1.6"/>
<text x="127.0" y="148.0" font-size="14" text-anchor="middle" font-weight="bold">ものさし1 効率</text>
<text x="127.0" y="178.0" font-size="12" text-anchor="middle">無駄を省く</text>
<text x="127.0" y="198.0" font-size="12" text-anchor="middle">（より少ない資源で、</text>
<text x="127.0" y="214.0" font-size="12" text-anchor="middle">より大きな成果を得る）</text>
<text x="353.0" y="148.0" font-size="14" text-anchor="middle" font-weight="bold">ものさし2 公正</text>
<text x="353.0" y="166.0" font-size="10.5" text-anchor="middle">——意味の異なる複数のものさし</text>
<rect x="258.0" y="171.0" width="190.0" height="26.0" rx="4" fill="none" stroke="#000" stroke-width="1.1"/>
<text x="264.0" y="188.0" font-size="11.5" text-anchor="start" font-weight="bold">手続き</text>
<text x="302.0" y="188.0" font-size="9.5" text-anchor="start">決め方にみんなが参加できたか</text>
<rect x="258.0" y="203.0" width="190.0" height="26.0" rx="4" fill="none" stroke="#000" stroke-width="1.1"/>
<text x="264.0" y="220.0" font-size="11.5" text-anchor="start" font-weight="bold">機会</text>
<text x="302.0" y="220.0" font-size="9.5" text-anchor="start">チャンスは等しく開かれていたか</text>
<rect x="258.0" y="235.0" width="190.0" height="26.0" rx="4" fill="none" stroke="#000" stroke-width="1.1"/>
<text x="264.0" y="252.0" font-size="11.5" text-anchor="start" font-weight="bold">結果</text>
<text x="302.0" y="252.0" font-size="9.5" text-anchor="start">行き渡り方に偏りはないか</text>
<text x="353.0" y="286.0" font-size="10" text-anchor="middle">…など（3つは例であり、すべてではない）</text>
<text x="240.0" y="318.0" font-size="11" text-anchor="middle">（どのものさしで測るかで評価は変わりうる——ものさしに優劣をつける図ではない）</text>
</svg>
