<svg xmlns="http://www.w3.org/2000/svg" viewBox="0 0 500 356" role="img">
<title>性質しらべの3観点の書きこみ用の表（あおば町の5つの財・サービス）</title>
<desc>L06活動1の書きこみ用の表。行=架空のあおば町の財・サービス5つ（ルポの実・町の橋・水道の水・屋台の飾りひも・夜の街灯）、列=3観点（（ア）売り手は自由に増えられるか／（イ）買い手は「買わない」を選びやすいか／（ウ）使う人を特定の人に限定しやすいか）。判定セル15個はすべて空欄で、○・△・×は生徒が自分で記入する。観点は性質が異なるため、一直線の尺度（機能しやすい〜しにくいの序列軸）には合成せず表形式のまま示す。再現指示: 5行×3列の空欄表に品名と2行組みの観点見出しだけを入れ、序列を示す軸や矢印は描かない。白黒のみ・数値なし。</desc>
<!-- L06_fig1_three_viewpoints_table.svg | 性質しらべの3観点の書きこみ用の表（あおば町の5つの財・サービス） -->
<!-- generated by assets_provenance/generate_figures.py on 2026-07-17 (docs/SPEC_figures.md準拠（内部規約の要旨は同SPECに反映済み）・AI再利用メタ情報つき・SVG直接編集禁止/スクリプト改修で再生成) -->
<rect x="0" y="0" width="500" height="356" fill="#fff"/>
<text x="250.0" y="26.0" font-size="14" text-anchor="middle" font-weight="bold">性質しらべ——3つの観点で ○・△・× を自分で記入</text>
<rect x="24.0" y="48.0" width="452.0" height="256.0" fill="none" stroke="#000" stroke-width="1.6"/>
<line x1="24.0" y1="104.0" x2="476.0" y2="104.0" stroke="#000" stroke-width="1.6"/>
<line x1="24.0" y1="144.0" x2="476.0" y2="144.0" stroke="#999" stroke-width="0.8"/>
<line x1="24.0" y1="184.0" x2="476.0" y2="184.0" stroke="#999" stroke-width="0.8"/>
<line x1="24.0" y1="224.0" x2="476.0" y2="224.0" stroke="#999" stroke-width="0.8"/>
<line x1="24.0" y1="264.0" x2="476.0" y2="264.0" stroke="#999" stroke-width="0.8"/>
<line x1="152.0" y1="48.0" x2="152.0" y2="304.0" stroke="#000" stroke-width="1.6"/>
<line x1="260.0" y1="48.0" x2="260.0" y2="304.0" stroke="#000" stroke-width="1.0"/>
<line x1="368.0" y1="48.0" x2="368.0" y2="304.0" stroke="#000" stroke-width="1.0"/>
<line x1="476.0" y1="48.0" x2="476.0" y2="304.0" stroke="#000" stroke-width="1.0"/>
<text x="88.0" y="80.0" font-size="12" text-anchor="middle" font-weight="bold">財・サービス</text>
<text x="206.0" y="66.0" font-size="10" text-anchor="middle" font-weight="bold">（ア）売り手は</text>
<text x="206.0" y="81.0" font-size="10" text-anchor="middle" font-weight="bold">自由に</text>
<text x="206.0" y="96.0" font-size="10" text-anchor="middle" font-weight="bold">増えられるか</text>
<text x="314.0" y="66.0" font-size="10" text-anchor="middle" font-weight="bold">（イ）買い手は</text>
<text x="314.0" y="81.0" font-size="10" text-anchor="middle" font-weight="bold">「買わない」を</text>
<text x="314.0" y="96.0" font-size="10" text-anchor="middle" font-weight="bold">選びやすいか</text>
<text x="422.0" y="66.0" font-size="10" text-anchor="middle" font-weight="bold">（ウ）使う人を</text>
<text x="422.0" y="81.0" font-size="10" text-anchor="middle" font-weight="bold">特定の人に</text>
<text x="422.0" y="96.0" font-size="10" text-anchor="middle" font-weight="bold">限定しやすいか</text>
<text x="36.0" y="128.0" font-size="12" text-anchor="start">ルポの実</text>
<text x="36.0" y="168.0" font-size="12" text-anchor="start">町の橋</text>
<text x="36.0" y="208.0" font-size="12" text-anchor="start">水道の水</text>
<text x="36.0" y="248.0" font-size="12" text-anchor="start">屋台の飾りひも</text>
<text x="36.0" y="288.0" font-size="12" text-anchor="start">夜の街灯</text>
<text x="250.0" y="326.0" font-size="11" text-anchor="middle">（財・サービスはすべて架空のあおば町の例。3つの観点は性質がちがうので、</text>
<text x="250.0" y="342.0" font-size="11" text-anchor="middle">判定がそろわない財・サービスがあってもよい）</text>
</svg>
