<svg xmlns="http://www.w3.org/2000/svg" viewBox="0 0 500 348" role="img">
<title>気温と『上限』の棒グラフ（架空の練習用データ）</title>
<desc>L01の概念図。横軸=気温0〜30℃（5℃刻み）、縦軸=飽和水蒸気量g/m³（0〜32・正確な線形縮尺）の棒グラフ。本文の架空の練習用数表（0℃4.0／5℃6.0／10℃8.0／15℃12.0／20℃16.0／25℃24.0／30℃32.0）をそのまま棒の高さにし、気温が高いほど上限が大きいことを視覚化する。値は架空で、実際の飽和水蒸気量ではない（図中に「架空の練習用データ」と明示）。再現指示: 線形の縦横軸に7本の斜線ハッチングの棒を立て、各棒の上に架空数表の値をラベルし、「架空の練習用データ」の断りを図中に入れる。白黒のみ・答えの数値（差や余裕）は入れない。</desc>
<!-- L01_fig1_saturation_limit_bars.svg | 気温と『上限』の棒グラフ（架空の練習用データ） -->
<!-- generated by assets_provenance/generate_figures.py on 2026-07-17 (docs/SPEC_figures.md準拠（内部規約の要旨は同SPECに反映済み）・AI再利用メタ情報つき・SVG直接編集禁止/スクリプト改修で再生成) -->
<rect x="0" y="0" width="500" height="348" fill="#fff"/>
<defs><pattern id="h45" width="6" height="6" patternUnits="userSpaceOnUse" patternTransform="rotate(45)"><line x1="0" y1="0" x2="0" y2="6" stroke="#555" stroke-width="1.1"/></pattern></defs><line x1="124.9" y1="272.0" x2="124.9" y2="71.7" stroke="#ddd" stroke-width="0.5"/>
<line x1="185.8" y1="272.0" x2="185.8" y2="71.7" stroke="#ddd" stroke-width="0.5"/>
<line x1="246.8" y1="272.0" x2="246.8" y2="71.7" stroke="#ddd" stroke-width="0.5"/>
<line x1="307.7" y1="272.0" x2="307.7" y2="71.7" stroke="#ddd" stroke-width="0.5"/>
<line x1="368.6" y1="272.0" x2="368.6" y2="71.7" stroke="#ddd" stroke-width="0.5"/>
<line x1="429.5" y1="272.0" x2="429.5" y2="71.7" stroke="#ddd" stroke-width="0.5"/>
<line x1="64.0" y1="247.0" x2="429.5" y2="247.0" stroke="#ddd" stroke-width="0.5"/>
<line x1="64.0" y1="221.9" x2="429.5" y2="221.9" stroke="#ddd" stroke-width="0.5"/>
<line x1="64.0" y1="196.9" x2="429.5" y2="196.9" stroke="#ddd" stroke-width="0.5"/>
<line x1="64.0" y1="171.8" x2="429.5" y2="171.8" stroke="#ddd" stroke-width="0.5"/>
<line x1="64.0" y1="146.8" x2="429.5" y2="146.8" stroke="#ddd" stroke-width="0.5"/>
<line x1="64.0" y1="121.7" x2="429.5" y2="121.7" stroke="#ddd" stroke-width="0.5"/>
<line x1="64.0" y1="96.7" x2="429.5" y2="96.7" stroke="#ddd" stroke-width="0.5"/>
<line x1="64.0" y1="71.7" x2="429.5" y2="71.7" stroke="#ddd" stroke-width="0.5"/>
<line x1="64.0" y1="272.0" x2="464.0" y2="272.0" stroke="#000" stroke-width="1.3"/>
<line x1="464.0" y1="272.0" x2="457.7" y2="275.1" stroke="#000" stroke-width="1.3"/>
<line x1="464.0" y1="272.0" x2="457.7" y2="268.9" stroke="#000" stroke-width="1.3"/>
<line x1="64.0" y1="272.0" x2="64.0" y2="52.0" stroke="#000" stroke-width="1.3"/>
<line x1="64.0" y1="52.0" x2="67.1" y2="58.3" stroke="#000" stroke-width="1.3"/>
<line x1="64.0" y1="52.0" x2="60.9" y2="58.3" stroke="#000" stroke-width="1.3"/>
<line x1="64.0" y1="272.0" x2="64.0" y2="276.0" stroke="#000" stroke-width="1.0"/>
<text x="64.0" y="290.0" font-size="11.5" text-anchor="middle">0</text>
<line x1="124.9" y1="272.0" x2="124.9" y2="276.0" stroke="#000" stroke-width="1.0"/>
<text x="124.9" y="290.0" font-size="11.5" text-anchor="middle">5</text>
<line x1="185.8" y1="272.0" x2="185.8" y2="276.0" stroke="#000" stroke-width="1.0"/>
<text x="185.8" y="290.0" font-size="11.5" text-anchor="middle">10</text>
<line x1="246.8" y1="272.0" x2="246.8" y2="276.0" stroke="#000" stroke-width="1.0"/>
<text x="246.8" y="290.0" font-size="11.5" text-anchor="middle">15</text>
<line x1="307.7" y1="272.0" x2="307.7" y2="276.0" stroke="#000" stroke-width="1.0"/>
<text x="307.7" y="290.0" font-size="11.5" text-anchor="middle">20</text>
<line x1="368.6" y1="272.0" x2="368.6" y2="276.0" stroke="#000" stroke-width="1.0"/>
<text x="368.6" y="290.0" font-size="11.5" text-anchor="middle">25</text>
<line x1="429.5" y1="272.0" x2="429.5" y2="276.0" stroke="#000" stroke-width="1.0"/>
<text x="429.5" y="290.0" font-size="11.5" text-anchor="middle">30</text>
<line x1="60.0" y1="272.0" x2="64.0" y2="272.0" stroke="#000" stroke-width="1.0"/>
<text x="56.0" y="276.0" font-size="11.5" text-anchor="end">0</text>
<line x1="60.0" y1="247.0" x2="64.0" y2="247.0" stroke="#000" stroke-width="1.0"/>
<text x="56.0" y="251.0" font-size="11.5" text-anchor="end">4</text>
<line x1="60.0" y1="221.9" x2="64.0" y2="221.9" stroke="#000" stroke-width="1.0"/>
<text x="56.0" y="225.9" font-size="11.5" text-anchor="end">8</text>
<line x1="60.0" y1="196.9" x2="64.0" y2="196.9" stroke="#000" stroke-width="1.0"/>
<text x="56.0" y="200.9" font-size="11.5" text-anchor="end">12</text>
<line x1="60.0" y1="171.8" x2="64.0" y2="171.8" stroke="#000" stroke-width="1.0"/>
<text x="56.0" y="175.8" font-size="11.5" text-anchor="end">16</text>
<line x1="60.0" y1="146.8" x2="64.0" y2="146.8" stroke="#000" stroke-width="1.0"/>
<text x="56.0" y="150.8" font-size="11.5" text-anchor="end">20</text>
<line x1="60.0" y1="121.7" x2="64.0" y2="121.7" stroke="#000" stroke-width="1.0"/>
<text x="56.0" y="125.7" font-size="11.5" text-anchor="end">24</text>
<line x1="60.0" y1="96.7" x2="64.0" y2="96.7" stroke="#000" stroke-width="1.0"/>
<text x="56.0" y="100.7" font-size="11.5" text-anchor="end">28</text>
<line x1="60.0" y1="71.7" x2="64.0" y2="71.7" stroke="#000" stroke-width="1.0"/>
<text x="56.0" y="75.7" font-size="11.5" text-anchor="end">32</text>
<text x="458.0" y="306.0" font-size="12" text-anchor="end">気温［℃］</text>
<text x="58.0" y="46.0" font-size="12" text-anchor="start">g/m³</text>
<rect x="53.0" y="247.0" width="22.0" height="25.0" fill="url(#h45)" stroke="#000" stroke-width="1.6"/>
<text x="64.0" y="240.0" font-size="11.5" text-anchor="middle">4.0</text>
<rect x="113.9" y="234.4" width="22.0" height="37.6" fill="url(#h45)" stroke="#000" stroke-width="1.6"/>
<text x="124.9" y="227.4" font-size="11.5" text-anchor="middle">6.0</text>
<rect x="174.8" y="221.9" width="22.0" height="50.1" fill="url(#h45)" stroke="#000" stroke-width="1.6"/>
<text x="185.8" y="214.9" font-size="11.5" text-anchor="middle">8.0</text>
<rect x="235.8" y="196.9" width="22.0" height="75.1" fill="url(#h45)" stroke="#000" stroke-width="1.6"/>
<text x="246.8" y="189.9" font-size="11.5" text-anchor="middle">12.0</text>
<rect x="296.7" y="171.8" width="22.0" height="100.2" fill="url(#h45)" stroke="#000" stroke-width="1.6"/>
<text x="307.7" y="164.8" font-size="11.5" text-anchor="middle">16.0</text>
<rect x="357.6" y="121.7" width="22.0" height="150.3" fill="url(#h45)" stroke="#000" stroke-width="1.6"/>
<text x="368.6" y="114.7" font-size="11.5" text-anchor="middle">24.0</text>
<rect x="418.5" y="71.7" width="22.0" height="200.3" fill="url(#h45)" stroke="#000" stroke-width="1.6"/>
<text x="429.5" y="64.7" font-size="11.5" text-anchor="middle">32.0</text>
<text x="250.0" y="28.0" font-size="13" text-anchor="middle" font-weight="bold">空気1m³が含むことのできる水蒸気の上限（飽和水蒸気量）</text>
<text x="250.0" y="46.0" font-size="12" text-anchor="middle" font-weight="bold">——架空の練習用データ——</text>
<text x="250.0" y="340.0" font-size="11" text-anchor="middle">（この教材の練習用に作った架空値。実際の値は教科書で確認すること）</text>
</svg>
