<svg xmlns="http://www.w3.org/2000/svg" viewBox="0 0 500 292" role="img">
<title>『器が縮む』イメージ図（比喩・霧のからくり）</title>
<desc>L01雑談枠の比喩を図にしたイメージ図。同じ量の中身（斜線ハッチング＝水蒸気の量・3パネルで同じ高さ）に対して、器（＝上限・飽和水蒸気量の比喩）が「冷える」矢印とともに左から右へ縮んでいき、右端で器の口が中身の高さに一致する。さらに冷えるとあふれた分が水滴（霧）になる、と小さな水滴の円で示す。図の左上に「イメージ図（比喩）」ラベル、下部に「実際の空気が物理的な器を持っているわけではない」の断りを明示（本文のヘッジと整合・実測風に見せない・数値なし）。再現指示: 口の開いたコの字の器を3つ並べ、中身の高さは固定、器の高さだけ段階的に低くし、3つ目で器の高さ＝中身の高さにする。比喩ラベルと断り書きを必ず入れる。白黒のみ・数値なし。</desc>
<!-- L01_fig2_shrinking_vessel_image.svg | 『器が縮む』イメージ図（比喩・霧のからくり） -->
<!-- generated by assets_provenance/generate_figures.py on 2026-07-17 (docs/SPEC_figures.md準拠（内部規約の要旨は同SPECに反映済み）・AI再利用メタ情報つき・SVG直接編集禁止/スクリプト改修で再生成) -->
<rect x="0" y="0" width="500" height="292" fill="#fff"/>
<defs><pattern id="h45" width="6" height="6" patternUnits="userSpaceOnUse" patternTransform="rotate(45)"><line x1="0" y1="0" x2="0" y2="6" stroke="#555" stroke-width="1.1"/></pattern></defs><text x="20.0" y="30.0" font-size="14" text-anchor="start" font-weight="bold">イメージ図（比喩）</text>
<rect x="50.0" y="140.0" width="92.0" height="78.0" fill="url(#h45)"/>
<polyline points="50.00,68.00 50.00,218.00 142.00,218.00 142.00,68.00" fill="none" stroke="#000" stroke-width="2.2"/>
<line x1="42.0" y1="68.0" x2="150.0" y2="68.0" stroke="#000" stroke-width="1.1" stroke-dasharray="6 4"/>
<text x="96.0" y="236.0" font-size="10.8" text-anchor="middle">気温が高い：余裕が大きい</text>
<rect x="204.0" y="140.0" width="92.0" height="78.0" fill="url(#h45)"/>
<polyline points="204.00,106.00 204.00,218.00 296.00,218.00 296.00,106.00" fill="none" stroke="#000" stroke-width="2.2"/>
<line x1="196.0" y1="106.0" x2="304.0" y2="106.0" stroke="#000" stroke-width="1.1" stroke-dasharray="6 4"/>
<text x="250.0" y="236.0" font-size="10.8" text-anchor="middle">気温が下がる：器（上限）が縮む</text>
<rect x="358.0" y="140.0" width="92.0" height="78.0" fill="url(#h45)"/>
<polyline points="358.00,140.00 358.00,218.00 450.00,218.00 450.00,140.00" fill="none" stroke="#000" stroke-width="2.2"/>
<line x1="350.0" y1="140.0" x2="458.0" y2="140.0" stroke="#000" stroke-width="1.1" stroke-dasharray="6 4"/>
<text x="404.0" y="236.0" font-size="10.8" text-anchor="middle">上限＝いまの量まで縮んだ</text>
<line x1="156.0" y1="122.0" x2="190.0" y2="122.0" stroke="#000" stroke-width="1.4"/>
<line x1="190.0" y1="122.0" x2="183.7" y2="125.1" stroke="#000" stroke-width="1.4"/>
<line x1="190.0" y1="122.0" x2="183.7" y2="118.9" stroke="#000" stroke-width="1.4"/>
<text x="173.0" y="114.0" font-size="10.8" text-anchor="middle">冷える</text>
<line x1="310.0" y1="122.0" x2="344.0" y2="122.0" stroke="#000" stroke-width="1.4"/>
<line x1="344.0" y1="122.0" x2="337.7" y2="125.1" stroke="#000" stroke-width="1.4"/>
<line x1="344.0" y1="122.0" x2="337.7" y2="118.9" stroke="#000" stroke-width="1.4"/>
<text x="327.0" y="114.0" font-size="10.8" text-anchor="middle">冷える</text>
<circle cx="388.0" cy="124.0" r="3.0" fill="none" stroke="#000" stroke-width="1.1"/>
<circle cx="404.0" cy="116.0" r="3.0" fill="none" stroke="#000" stroke-width="1.1"/>
<circle cx="420.0" cy="126.0" r="3.0" fill="none" stroke="#000" stroke-width="1.1"/>
<text x="494.0" y="100.0" font-size="10.5" text-anchor="end">さらに冷えると、あふれた分が水滴に（霧）</text>
<text x="250.0" y="256.0" font-size="11" text-anchor="middle">（比喩です。実際の空気が物理的な器を持っている</text>
<text x="250.0" y="272.0" font-size="11" text-anchor="middle">わけではありません——「上限」は気温で決まる値）</text>
</svg>
