<svg xmlns="http://www.w3.org/2000/svg" viewBox="0 0 520 262" role="img">
<title>湿度計算の流れ図（順算・3ステップ）</title>
<desc>L02の手順図。「①いまの気温を確かめる→②表でその気温の飽和水蒸気量（分母）を引く→③水蒸気量÷分母×100＝湿度[%]」の3つの箱を矢印でつなぎ、下の破線の帯に本文例題1の具体例（気温20℃→分母16.0g/m³→8.0÷16.0×100＝50%）を添える。分母を表から引く一手間が小5百分率との差分であることを見せる図。数値は本文例題1で解き済みのもののみで、練習問題の答えは入れない。数表は架空の練習用。再現指示: 角丸の箱3つを右向き矢印でつなぎ、手順を書き、下に破線枠で具体例1行を添える。白黒のみ。</desc>
<!-- L02_fig1_humidity_calc_flow.svg | 湿度計算の流れ図（順算・3ステップ） -->
<!-- generated by assets_provenance/generate_figures.py on 2026-07-17 (docs/SPEC_figures.md準拠（内部規約の要旨は同SPECに反映済み）・AI再利用メタ情報つき・SVG直接編集禁止/スクリプト改修で再生成) -->
<rect x="0" y="0" width="520" height="262" fill="#fff"/>
<rect x="10.0" y="52.0" width="158.0" height="58.0" rx="6" fill="none" stroke="#000" stroke-width="1.6"/>
<text x="89.0" y="76.0" font-size="11.5" text-anchor="middle" font-weight="bold">① いまの気温を</text>
<text x="89.0" y="95.0" font-size="11.5" text-anchor="middle" font-weight="bold">確かめる</text>
<rect x="182.0" y="52.0" width="158.0" height="58.0" rx="6" fill="none" stroke="#000" stroke-width="1.6"/>
<text x="261.0" y="76.0" font-size="11.5" text-anchor="middle" font-weight="bold">② 表でその気温の</text>
<text x="261.0" y="95.0" font-size="11.5" text-anchor="middle" font-weight="bold">飽和水蒸気量（分母）を引く</text>
<rect x="354.0" y="52.0" width="158.0" height="58.0" rx="6" fill="none" stroke="#000" stroke-width="1.6"/>
<text x="433.0" y="76.0" font-size="11.5" text-anchor="middle" font-weight="bold">③ 水蒸気量÷分母</text>
<text x="433.0" y="95.0" font-size="11.5" text-anchor="middle" font-weight="bold">×100 ＝ 湿度［%］</text>
<line x1="164.0" y1="81.0" x2="180.0" y2="81.0" stroke="#000" stroke-width="1.8"/>
<line x1="180.0" y1="81.0" x2="173.7" y2="84.1" stroke="#000" stroke-width="1.8"/>
<line x1="180.0" y1="81.0" x2="173.7" y2="77.9" stroke="#000" stroke-width="1.8"/>
<line x1="336.0" y1="81.0" x2="352.0" y2="81.0" stroke="#000" stroke-width="1.8"/>
<line x1="352.0" y1="81.0" x2="345.7" y2="84.1" stroke="#000" stroke-width="1.8"/>
<line x1="352.0" y1="81.0" x2="345.7" y2="77.9" stroke="#000" stroke-width="1.8"/>
<text x="260.0" y="32.0" font-size="13" text-anchor="middle" font-weight="bold">湿度を求める手順（順算）——分母を表から引く一手間が入る</text>
<rect x="16.0" y="150.0" width="490.0" height="66.0" rx="6" fill="none" stroke="#000" stroke-width="1.1" stroke-dasharray="6 4"/>
<text x="26.0" y="174.0" font-size="12" text-anchor="start" font-weight="bold">例題1の場合:</text>
<text x="26.0" y="198.0" font-size="12" text-anchor="start">① 気温20℃ → ② 表より分母は16.0g/m³ → ③ 8.0÷16.0×100＝50%</text>
<text x="260.0" y="244.0" font-size="11" text-anchor="middle">（数表はこの教材の練習用に作った架空の数表。実際の値は教科書で確認）</text>
</svg>
