<svg xmlns="http://www.w3.org/2000/svg" viewBox="0 0 520 300" role="img">
<title>順算と逆算の使い分け図（％か、gか）</title>
<desc>L03の構造図。最上段に共通の一手間「まず表でその気温の分母（飽和水蒸気量）を引く」の箱、中央に「求めたいのは％か、gか？」の分岐、左に順算の箱（湿度[%]＝水蒸気量÷分母×100）、右に逆算の箱（水蒸気量[g/m³]＝分母×湿度÷100）を置いた対比図。下部に「凝結量のgは引き算で求める（レッスン4）」の限定注記を添え、本文の合言葉と整合させる。具体的な問題の数値は入れない。再現指示: 上1箱→分岐の問い→左右2箱の三叉フローを矢印で描き、式は本文の定義どおりに書く。白黒のみ・具体数値なし。</desc>
<!-- L03_fig1_forward_reverse_flow.svg | 順算と逆算の使い分け図（％か、gか） -->
<!-- generated by assets_provenance/generate_figures.py on 2026-07-17 (docs/SPEC_figures.md準拠（内部規約の要旨は同SPECに反映済み）・AI再利用メタ情報つき・SVG直接編集禁止/スクリプト改修で再生成) -->
<rect x="0" y="0" width="520" height="300" fill="#fff"/>
<rect x="110.0" y="40.0" width="300.0" height="40.0" rx="6" fill="none" stroke="#000" stroke-width="1.6"/>
<text x="260.0" y="65.0" font-size="12" text-anchor="middle" font-weight="bold">まず表で「その気温の分母（飽和水蒸気量）」を引く</text>
<text x="260.0" y="116.0" font-size="13" text-anchor="middle" font-weight="bold">求めたいのは ％ か、g か？</text>
<line x1="260.0" y1="82.0" x2="260.0" y2="98.0" stroke="#000" stroke-width="1.6"/>
<line x1="260.0" y1="98.0" x2="256.9" y2="91.7" stroke="#000" stroke-width="1.6"/>
<line x1="260.0" y1="98.0" x2="263.1" y2="91.7" stroke="#000" stroke-width="1.6"/>
<line x1="230.0" y1="124.0" x2="130.0" y2="152.0" stroke="#000" stroke-width="1.6"/>
<line x1="130.0" y1="152.0" x2="135.2" y2="147.3" stroke="#000" stroke-width="1.6"/>
<line x1="130.0" y1="152.0" x2="136.9" y2="153.3" stroke="#000" stroke-width="1.6"/>
<line x1="290.0" y1="124.0" x2="390.0" y2="152.0" stroke="#000" stroke-width="1.6"/>
<line x1="390.0" y1="152.0" x2="383.1" y2="153.3" stroke="#000" stroke-width="1.6"/>
<line x1="390.0" y1="152.0" x2="384.8" y2="147.3" stroke="#000" stroke-width="1.6"/>
<rect x="28.0" y="160.0" width="210.0" height="84.0" rx="6" fill="none" stroke="#000" stroke-width="1.6"/>
<text x="133.0" y="182.0" font-size="12" text-anchor="middle" font-weight="bold">％を求める → 順算</text>
<text x="133.0" y="208.0" font-size="12" text-anchor="middle">湿度［%］＝</text>
<text x="133.0" y="228.0" font-size="12" text-anchor="middle">水蒸気量 ÷ 分母 × 100</text>
<rect x="282.0" y="160.0" width="210.0" height="84.0" rx="6" fill="none" stroke="#000" stroke-width="1.6"/>
<text x="387.0" y="182.0" font-size="12" text-anchor="middle" font-weight="bold">g を求める → 逆算</text>
<text x="387.0" y="208.0" font-size="12" text-anchor="middle">水蒸気量［g/m³］＝</text>
<text x="387.0" y="228.0" font-size="12" text-anchor="middle">分母 × 湿度 ÷ 100</text>
<text x="260.0" y="272.0" font-size="11" text-anchor="middle">（この使い分けは湿度の式を使う場面のもの。凝結量のgは引き算で求める——レッスン4）</text>
<text x="260.0" y="290.0" font-size="11" text-anchor="middle">（分母＝その気温の飽和水蒸気量。数表は架空の練習用）</text>
</svg>
