<svg xmlns="http://www.w3.org/2000/svg" viewBox="0 0 520 300" role="img">
<title>露点の表の逆引き図（下の行から探して真上を読む）</title>
<desc>L04の手順図。架空の練習用数表（気温0〜30℃／飽和水蒸気量4.0〜32.0g/m³）を表の形で描き、本文例題1（水蒸気量12.0g/m³の空気）を例に、①下の行から12.0を探す（実線の太枠で強調）→②真上の気温を読む（破線枠・上向き矢印）＝露点、という逆引きの向きを矢印で示す。レッスン1〜3の「気温→上限」と読む向きが逆になることを見出しで明示。強調と矢印は本文で解き済みの例題1（12.0→15℃）だけに付け、練習問題の値には付けない。再現指示: 2行の表を描き、下行の該当セルを太枠・真上のセルを破線枠で強調し、下から上への矢印と手順①②のラベルを添える。白黒のみ。</desc>
<!-- L04_fig1_dewpoint_table_reverse.svg | 露点の表の逆引き図（下の行から探して真上を読む） -->
<!-- generated by assets_provenance/generate_figures.py on 2026-07-17 (docs/SPEC_figures.md準拠（内部規約の要旨は同SPECに反映済み）・AI再利用メタ情報つき・SVG直接編集禁止/スクリプト改修で再生成) -->
<rect x="0" y="0" width="520" height="300" fill="#fff"/>
<rect x="24.0" y="96.0" width="472.0" height="68.0" fill="none" stroke="#000" stroke-width="1.6"/>
<line x1="24.0" y1="130.0" x2="496.0" y2="130.0" stroke="#000" stroke-width="1.0"/>
<line x1="174.0" y1="96.0" x2="174.0" y2="164.0" stroke="#000" stroke-width="1.0"/>
<line x1="220.0" y1="96.0" x2="220.0" y2="164.0" stroke="#bbb" stroke-width="0.7"/>
<line x1="266.0" y1="96.0" x2="266.0" y2="164.0" stroke="#bbb" stroke-width="0.7"/>
<line x1="312.0" y1="96.0" x2="312.0" y2="164.0" stroke="#bbb" stroke-width="0.7"/>
<line x1="358.0" y1="96.0" x2="358.0" y2="164.0" stroke="#bbb" stroke-width="0.7"/>
<line x1="404.0" y1="96.0" x2="404.0" y2="164.0" stroke="#bbb" stroke-width="0.7"/>
<line x1="450.0" y1="96.0" x2="450.0" y2="164.0" stroke="#bbb" stroke-width="0.7"/>
<text x="99.0" y="117.0" font-size="12" text-anchor="middle">気温［℃］</text>
<text x="99.0" y="144.0" font-size="10.5" text-anchor="middle">飽和水蒸気量</text>
<text x="99.0" y="159.0" font-size="10.5" text-anchor="middle">［g/m³］（架空値）</text>
<text x="197.0" y="117.0" font-size="12" text-anchor="middle">0</text>
<text x="197.0" y="151.0" font-size="12" text-anchor="middle">4.0</text>
<text x="243.0" y="117.0" font-size="12" text-anchor="middle">5</text>
<text x="243.0" y="151.0" font-size="12" text-anchor="middle">6.0</text>
<text x="289.0" y="117.0" font-size="12" text-anchor="middle">10</text>
<text x="289.0" y="151.0" font-size="12" text-anchor="middle">8.0</text>
<text x="335.0" y="117.0" font-size="12" text-anchor="middle" font-weight="bold">15</text>
<text x="335.0" y="151.0" font-size="12" text-anchor="middle" font-weight="bold">12.0</text>
<text x="381.0" y="117.0" font-size="12" text-anchor="middle">20</text>
<text x="381.0" y="151.0" font-size="12" text-anchor="middle">16.0</text>
<text x="427.0" y="117.0" font-size="12" text-anchor="middle">25</text>
<text x="427.0" y="151.0" font-size="12" text-anchor="middle">24.0</text>
<text x="473.0" y="117.0" font-size="12" text-anchor="middle">30</text>
<text x="473.0" y="151.0" font-size="12" text-anchor="middle">32.0</text>
<rect x="314.0" y="132.0" width="42.0" height="30.0" fill="none" stroke="#000" stroke-width="2.4"/>
<rect x="314.0" y="98.0" width="42.0" height="30.0" fill="none" stroke="#000" stroke-width="2.4" stroke-dasharray="4 3"/>
<line x1="275.0" y1="198.0" x2="329.0" y2="170.0" stroke="#000" stroke-width="1.6"/>
<line x1="329.0" y1="170.0" x2="324.8" y2="175.6" stroke="#000" stroke-width="1.6"/>
<line x1="329.0" y1="170.0" x2="322.0" y2="170.2" stroke="#000" stroke-width="1.6"/>
<text x="150.0" y="216.0" font-size="12" text-anchor="start">① 下の行から、実際に含んでいる水蒸気量（例題1では12.0）を探す</text>
<line x1="349.0" y1="156.0" x2="349.0" y2="104.0" stroke="#000" stroke-width="1.6"/>
<line x1="349.0" y1="104.0" x2="352.1" y2="110.3" stroke="#000" stroke-width="1.6"/>
<line x1="349.0" y1="104.0" x2="345.9" y2="110.3" stroke="#000" stroke-width="1.6"/>
<text x="335.0" y="86.0" font-size="12" text-anchor="middle" font-weight="bold">② 真上の気温を読む → それが露点</text>
<text x="260.0" y="40.0" font-size="13" text-anchor="middle" font-weight="bold">露点の判定は、表の逆引き——読む向きがレッスン1〜3と逆になる</text>
<text x="260.0" y="62.0" font-size="12" text-anchor="middle">（レッスン1〜3: 気温→上限 ／ 露点: 水蒸気量→気温）</text>
<text x="260.0" y="288.0" font-size="11" text-anchor="middle">（数表はこの教材の練習用に作った架空の数表。実際の値は教科書で確認）</text>
</svg>
