<svg xmlns="http://www.w3.org/2000/svg" viewBox="0 0 500 320" role="img">
<title>凝結量は『差』の図（冷やすと上限からあふれる分）</title>
<desc>L04例題2の図解。縦軸g/m³（0〜16・正確な線形縮尺）に対し、左に冷やす前（気温20℃）の実量12.0gの棒、右に5℃まで冷やした後の棒を描く。右の棒は5℃の上限6.0g/m³の太い水平線で区切られ、上限を超える部分（12.0−6.0）を別ハッチング＋破線枠で「水滴になる分」と寸法線表示する。凝結量が割合（÷や×100）ではなく差（引き算）で求まることを視覚化。答えの数値は式12.0−6.0のまま提示し、計算結果は書かない。架空の練習用データの断り付き。再現指示: 同じ縦軸に2本の棒を並べ、右の棒だけ上限線で分割し、上限超過分を破線枠・別ハッチングで示して寸法線に「水滴になる分＝12.0−6.0」と書く。白黒のみ。</desc>
<!-- L04_fig2_condensation_difference.svg | 凝結量は『差』の図（冷やすと上限からあふれる分） -->
<!-- generated by assets_provenance/generate_figures.py on 2026-07-17 (docs/SPEC_figures.md準拠（内部規約の要旨は同SPECに反映済み）・AI再利用メタ情報つき・SVG直接編集禁止/スクリプト改修で再生成) -->
<rect x="0" y="0" width="500" height="320" fill="#fff"/>
<defs><pattern id="h45" width="6" height="6" patternUnits="userSpaceOnUse" patternTransform="rotate(45)"><line x1="0" y1="0" x2="0" y2="6" stroke="#555" stroke-width="1.1"/></pattern><pattern id="h135" width="6" height="6" patternUnits="userSpaceOnUse" patternTransform="rotate(135)"><line x1="0" y1="0" x2="0" y2="6" stroke="#555" stroke-width="1.1"/></pattern></defs><line x1="70.0" y1="266.0" x2="70.0" y2="52.0" stroke="#000" stroke-width="1.3"/>
<line x1="70.0" y1="52.0" x2="73.1" y2="58.3" stroke="#000" stroke-width="1.3"/>
<line x1="70.0" y1="52.0" x2="66.9" y2="58.3" stroke="#000" stroke-width="1.3"/>
<line x1="66.0" y1="266.0" x2="70.0" y2="266.0" stroke="#000" stroke-width="1.0"/>
<text x="62.0" y="270.0" font-size="11.5" text-anchor="end">0</text>
<line x1="66.0" y1="216.0" x2="70.0" y2="216.0" stroke="#000" stroke-width="1.0"/>
<text x="62.0" y="220.0" font-size="11.5" text-anchor="end">4</text>
<line x1="66.0" y1="166.0" x2="70.0" y2="166.0" stroke="#000" stroke-width="1.0"/>
<text x="62.0" y="170.0" font-size="11.5" text-anchor="end">8</text>
<line x1="66.0" y1="116.0" x2="70.0" y2="116.0" stroke="#000" stroke-width="1.0"/>
<text x="62.0" y="120.0" font-size="11.5" text-anchor="end">12</text>
<line x1="66.0" y1="66.0" x2="70.0" y2="66.0" stroke="#000" stroke-width="1.0"/>
<text x="62.0" y="70.0" font-size="11.5" text-anchor="end">16</text>
<text x="64.0" y="46.0" font-size="12" text-anchor="start">g/m³</text>
<line x1="70.0" y1="266.0" x2="470.0" y2="266.0" stroke="#000" stroke-width="1.3"/>
<rect x="137.0" y="116.0" width="66.0" height="150.0" fill="url(#h45)" stroke="#000" stroke-width="1.6"/>
<text x="170.0" y="108.0" font-size="12" text-anchor="middle" font-weight="bold">実量 12.0g</text>
<text x="170.0" y="284.0" font-size="12" text-anchor="middle">冷やす前（気温20℃）</text>
<rect x="317.0" y="191.0" width="66.0" height="75.0" fill="url(#h45)" stroke="#000" stroke-width="1.6"/>
<rect x="317.0" y="116.0" width="66.0" height="75.0" fill="url(#h135)" stroke="#000" stroke-width="1.1" stroke-dasharray="4 3"/>
<line x1="291.0" y1="191.0" x2="395.0" y2="191.0" stroke="#000" stroke-width="2.2399999999999998"/>
<text x="287.0" y="195.0" font-size="11.5" text-anchor="end">5℃の上限 6.0</text>
<text x="350.0" y="284.0" font-size="12" text-anchor="middle">5℃まで冷やした後</text>
<line x1="405.0" y1="116.0" x2="405.0" y2="191.0" stroke="#000" stroke-width="1.0"/>
<line x1="401.0" y1="116.0" x2="409.0" y2="116.0" stroke="#000" stroke-width="1.0"/>
<line x1="401.0" y1="191.0" x2="409.0" y2="191.0" stroke="#000" stroke-width="1.0"/>
<text x="413.0" y="149.5" font-size="11.5" text-anchor="start" font-weight="bold">水滴になる分</text>
<text x="413.0" y="165.5" font-size="11.5" text-anchor="start">＝ 12.0−6.0</text>
<line x1="219.0" y1="88.5" x2="287.0" y2="88.5" stroke="#000" stroke-width="1.6"/>
<line x1="287.0" y1="88.5" x2="280.7" y2="91.6" stroke="#000" stroke-width="1.6"/>
<line x1="287.0" y1="88.5" x2="280.7" y2="85.4" stroke="#000" stroke-width="1.6"/>
<text x="260.0" y="78.5" font-size="12" text-anchor="middle">5℃まで冷やす</text>
<text x="250.0" y="34.0" font-size="13" text-anchor="middle" font-weight="bold">凝結量は割合ではなく「差」——引き算で求める</text>
<text x="250.0" y="308.0" font-size="11" text-anchor="middle">（架空の練習用データ。実際の値は教科書で確認。含みきれない分が水滴になる、と考えたモデル）</text>
</svg>
