<svg xmlns="http://www.w3.org/2000/svg" viewBox="0 0 360 330">
<title>弧ABに対する円周角を全部見つける（中心角70°）</title>
<desc>【この図の意図】練習1の図。OA・OB・PA・PB・QA・QBを全部引き対応づけを問う。【主要な数値・設定】円周上の配置(度): A235・B305（中心角70°は与件）・P110・Q40。【AIに同じ種類の図を描かせるときの説明文】「弧ABに対する円周角を全部見つける（中心角70°）。練習1の図。OA・OB・PA・PB・QA・QBを全部引き対応づけを問う。数値・設定: 円周上の配置(度): A235・B305（中心角70°は与件）・P110・Q40。白黒印刷向けのシンプルな教材図（SVG）としてかいて。」——この説明文を生成AIに渡せば同型の図を描かせられる。数値を変えれば類題用の図も作れる。</desc>
<!-- L01_fig3_practice_find_inscribed.svg | 弧ABに対する円周角を全部見つける（中心角70°） -->
<!-- generated by assets_provenance/generate_figures.py on 2026-07-17 (docs/SPEC_figures.md準拠（内部規約の要旨は同SPECに反映済み）・SVG直接編集禁止/スクリプト改修で再生成) -->
<rect x="0" y="0" width="360" height="330" fill="#fff"/>
<polyline points="122.6,217.9 128.7,221.8 135.0,225.3 141.5,228.3 148.2,230.8 155.1,232.9 162.1,234.4 169.2,235.4 176.4,235.9 183.6,235.9 190.8,235.4 197.9,234.4 204.9,232.9 211.8,230.8 218.5,228.3 225.0,225.3 231.3,221.8 237.4,217.9" fill="none" stroke="#c9c9c9" stroke-width="8" stroke-linecap="round"/>
<circle cx="180.0" cy="136.0" r="100.0" fill="none" stroke="#000" stroke-width="1.6"/>
<line x1="180.0" y1="136.0" x2="122.6" y2="217.9" stroke="#000" stroke-width="1.6"/>
<line x1="180.0" y1="136.0" x2="237.4" y2="217.9" stroke="#000" stroke-width="1.6"/>
<line x1="145.8" y1="42.0" x2="122.6" y2="217.9" stroke="#000" stroke-width="1.6"/>
<line x1="145.8" y1="42.0" x2="237.4" y2="217.9" stroke="#000" stroke-width="1.6"/>
<line x1="256.6" y1="71.7" x2="122.6" y2="217.9" stroke="#000" stroke-width="1.6"/>
<line x1="256.6" y1="71.7" x2="237.4" y2="217.9" stroke="#000" stroke-width="1.6"/>
<circle cx="122.6" cy="217.9" r="2.5" fill="#000"/>
<text x="114.0" y="234.8" font-size="13" text-anchor="middle" font-weight="bold">A</text>
<circle cx="237.4" cy="217.9" r="2.5" fill="#000"/>
<text x="246.0" y="234.8" font-size="13" text-anchor="middle" font-weight="bold">B</text>
<circle cx="145.8" cy="42.0" r="2.5" fill="#000"/>
<text x="140.7" y="32.5" font-size="13" text-anchor="middle" font-weight="bold">P</text>
<circle cx="256.6" cy="71.7" r="2.5" fill="#000"/>
<text x="268.1" y="66.6" font-size="13" text-anchor="middle" font-weight="bold">Q</text>
<circle cx="180.0" cy="136.0" r="2.5" fill="#000"/>
<text x="166.2" y="138.1" font-size="13" text-anchor="middle" font-weight="bold">O</text>
<polyline points="171.4,148.3 172.2,148.8 173.0,149.2 173.8,149.6 174.6,150.0 175.5,150.3 176.4,150.6 177.3,150.7 178.2,150.9 179.1,151.0 180.0,151.0 180.9,151.0 181.8,150.9 182.7,150.7 183.6,150.6 184.5,150.3 185.4,150.0 186.2,149.6 187.0,149.2 187.8,148.8 188.6,148.3" fill="none" stroke="#000" stroke-width="1.2"/>
<text x="180.0" y="170.6" font-size="13" text-anchor="middle">70°</text>
<text x="180.0" y="294.0" font-size="12" text-anchor="middle">弧AB（下側・グレー）に対する円周角はどれか，すべて挙げる</text>
<text x="180.0" y="312.0" font-size="12" text-anchor="middle">（中心角∠AOB＝70°。円周角の数値はまだ求めない）</text>
</svg>
