<svg xmlns="http://www.w3.org/2000/svg" viewBox="0 0 360 330">
<title>実験——点Pを動かして円周角を測る</title>
<desc>【この図の意図】主概念2の実験図。同一弧ABへの3つの円周角（どこでも等しいことを測る）。【主要な数値・設定】円周上の配置(度): A220・B320・P150/105/60。角度数値なし。【AIに同じ種類の図を描かせるときの説明文】「実験——点Pを動かして円周角を測る。主概念2の実験図。同一弧ABへの3つの円周角（どこでも等しいことを測る）。数値・設定: 円周上の配置(度): A220・B320・P150/105/60。角度数値なし。白黒印刷向けのシンプルな教材図（SVG）としてかいて。」——この説明文を生成AIに渡せば同型の図を描かせられる。数値を変えれば類題用の図も作れる。</desc>
<!-- L01_fig2_experiment_moving_point.svg | 実験——点Pを動かして円周角を測る -->
<!-- generated by assets_provenance/generate_figures.py on 2026-07-17 (docs/SPEC_figures.md準拠（内部規約の要旨は同SPECに反映済み）・SVG直接編集禁止/スクリプト改修で再生成) -->
<rect x="0" y="0" width="360" height="330" fill="#fff"/>
<polyline points="103.4,200.3 108.1,205.5 113.1,210.3 118.4,214.8 124.1,218.9 130.0,222.6 136.2,225.9 142.5,228.7 149.1,231.1 155.8,233.0 162.6,234.5 169.5,235.5 176.5,235.9 183.5,235.9 190.5,235.5 197.4,234.5 204.2,233.0 210.9,231.1 217.5,228.7 223.8,225.9 230.0,222.6 235.9,218.9 241.6,214.8 246.9,210.3 251.9,205.5 256.6,200.3" fill="none" stroke="#c9c9c9" stroke-width="8" stroke-linecap="round"/>
<circle cx="180.0" cy="136.0" r="100.0" fill="none" stroke="#000" stroke-width="1.6"/>
<line x1="180.0" y1="136.0" x2="103.4" y2="200.3" stroke="#000" stroke-width="1.6"/>
<line x1="180.0" y1="136.0" x2="256.6" y2="200.3" stroke="#000" stroke-width="1.6"/>
<line x1="93.4" y1="86.0" x2="103.4" y2="200.3" stroke="#000" stroke-width="1.1"/>
<line x1="93.4" y1="86.0" x2="256.6" y2="200.3" stroke="#000" stroke-width="1.1"/>
<polyline points="94.6,99.9 95.2,99.9 95.8,99.8 96.4,99.7 97.0,99.5 97.6,99.4 98.2,99.2 98.8,98.9 99.3,98.7 99.9,98.4 100.4,98.1 100.9,97.8 101.4,97.5 101.9,97.1 102.4,96.7 102.9,96.3 103.3,95.9 103.7,95.5 104.1,95.0 104.5,94.5 104.9,94.0" fill="none" stroke="#000" stroke-width="1.2"/>
<line x1="154.1" y1="39.4" x2="103.4" y2="200.3" stroke="#000" stroke-width="1.1"/>
<line x1="154.1" y1="39.4" x2="256.6" y2="200.3" stroke="#000" stroke-width="1.1"/>
<polyline points="149.9,52.8 150.5,52.9 151.1,53.1 151.7,53.2 152.3,53.3 152.9,53.4 153.5,53.4 154.1,53.4 154.7,53.4 155.3,53.4 155.9,53.3 156.5,53.2 157.1,53.1 157.7,52.9 158.3,52.8 158.9,52.6 159.5,52.3 160.0,52.1 160.6,51.8 161.1,51.5 161.6,51.2" fill="none" stroke="#000" stroke-width="1.2"/>
<line x1="230.0" y1="49.4" x2="103.4" y2="200.3" stroke="#000" stroke-width="1.1"/>
<line x1="230.0" y1="49.4" x2="256.6" y2="200.3" stroke="#000" stroke-width="1.1"/>
<polyline points="221.0,60.1 221.5,60.5 222.0,60.9 222.5,61.2 223.0,61.5 223.5,61.8 224.1,62.1 224.6,62.3 225.2,62.6 225.8,62.7 226.4,62.9 227.0,63.1 227.6,63.2 228.2,63.3 228.8,63.3 229.4,63.4 230.0,63.4 230.6,63.4 231.2,63.3 231.8,63.3 232.4,63.2" fill="none" stroke="#000" stroke-width="1.2"/>
<circle cx="103.4" cy="200.3" r="2.5" fill="#000"/>
<text x="91.9" y="214.5" font-size="13" text-anchor="middle" font-weight="bold">A</text>
<circle cx="256.6" cy="200.3" r="2.5" fill="#000"/>
<text x="268.1" y="214.5" font-size="13" text-anchor="middle" font-weight="bold">B</text>
<circle cx="93.4" cy="86.0" r="2.5" fill="#000"/>
<text x="80.4" y="83.0" font-size="13" text-anchor="middle" font-weight="bold">P</text>
<circle cx="154.1" cy="39.4" r="2.5" fill="#000"/>
<text x="150.2" y="29.5" font-size="13" text-anchor="middle" font-weight="bold">P′</text>
<circle cx="230.0" cy="49.4" r="2.5" fill="#000"/>
<text x="237.5" y="41.0" font-size="13" text-anchor="middle" font-weight="bold">P″</text>
<circle cx="180.0" cy="136.0" r="2.5" fill="#000"/>
<text x="180.0" y="166.6" font-size="13" text-anchor="middle" font-weight="bold">O</text>
<polyline points="168.5,145.6 169.4,146.6 170.4,147.5 171.4,148.3 172.5,149.0 173.7,149.6 174.9,150.1 176.1,150.5 177.4,150.8 178.7,150.9 180.0,151.0 181.3,150.9 182.6,150.8 183.9,150.5 185.1,150.1 186.3,149.6 187.5,149.0 188.6,148.3 189.6,147.5 190.6,146.6 191.5,145.6" fill="none" stroke="#000" stroke-width="1.2"/>
<text x="180.0" y="260.0" font-size="13" text-anchor="middle" font-weight="bold">弧AB</text>
<text x="180.0" y="294.0" font-size="12" text-anchor="middle">中心角∠AOBを固定し，Pを円周に沿って動かして∠APBを測る</text>
<text x="180.0" y="312.0" font-size="12" text-anchor="middle">（P・P′・P″の3か所——それぞれの角はどうなる？）</text>
</svg>
