<svg xmlns="http://www.w3.org/2000/svg" viewBox="0 0 360 332">
<title>円周角と中心角の定義（弧ABの強調つき）</title>
<desc>【この図の意図】主概念1の定義図。弧AB（下側・グレー強調）と円周角・中心角の対応づけ。【主要な数値・設定】円周上の配置(度): A220・B320・P100。数値ラベルなし。【AIに同じ種類の図を描かせるときの説明文】「円周角と中心角の定義（弧ABの強調つき）。主概念1の定義図。弧AB（下側・グレー強調）と円周角・中心角の対応づけ。数値・設定: 円周上の配置(度): A220・B320・P100。数値ラベルなし。白黒印刷向けのシンプルな教材図（SVG）としてかいて。」——この説明文を生成AIに渡せば同型の図を描かせられる。数値を変えれば類題用の図も作れる。</desc>
<!-- L01_fig1_inscribed_central_definition.svg | 円周角と中心角の定義（弧ABの強調つき） -->
<!-- generated by assets_provenance/generate_figures.py on 2026-07-17 (docs/SPEC_figures.md準拠（内部規約の要旨は同SPECに反映済み）・SVG直接編集禁止/スクリプト改修で再生成) -->
<rect x="0" y="0" width="360" height="332" fill="#fff"/>
<polyline points="103.4,202.3 108.1,207.5 113.1,212.3 118.4,216.8 124.1,220.9 130.0,224.6 136.2,227.9 142.5,230.7 149.1,233.1 155.8,235.0 162.6,236.5 169.5,237.5 176.5,237.9 183.5,237.9 190.5,237.5 197.4,236.5 204.2,235.0 210.9,233.1 217.5,230.7 223.8,227.9 230.0,224.6 235.9,220.9 241.6,216.8 246.9,212.3 251.9,207.5 256.6,202.3" fill="none" stroke="#c9c9c9" stroke-width="8" stroke-linecap="round"/>
<circle cx="180.0" cy="138.0" r="100.0" fill="none" stroke="#000" stroke-width="1.6"/>
<line x1="180.0" y1="138.0" x2="103.4" y2="202.3" stroke="#000" stroke-width="1.6"/>
<line x1="180.0" y1="138.0" x2="256.6" y2="202.3" stroke="#000" stroke-width="1.6"/>
<line x1="162.6" y1="39.5" x2="103.4" y2="202.3" stroke="#000" stroke-width="1.6"/>
<line x1="162.6" y1="39.5" x2="256.6" y2="202.3" stroke="#000" stroke-width="1.6"/>
<circle cx="103.4" cy="202.3" r="2.5" fill="#000"/>
<text x="91.9" y="216.5" font-size="13" text-anchor="middle" font-weight="bold">A</text>
<circle cx="256.6" cy="202.3" r="2.5" fill="#000"/>
<text x="268.1" y="216.5" font-size="13" text-anchor="middle" font-weight="bold">B</text>
<circle cx="162.6" cy="39.5" r="2.5" fill="#000"/>
<text x="160.0" y="29.3" font-size="13" text-anchor="middle" font-weight="bold">P</text>
<circle cx="180.0" cy="138.0" r="2.5" fill="#000"/>
<text x="166.0" y="142.6" font-size="13" text-anchor="middle" font-weight="bold">O</text>
<polyline points="157.8,52.7 158.4,52.9 159.0,53.0 159.6,53.2 160.2,53.3 160.8,53.4 161.4,53.5 162.0,53.5 162.6,53.5 163.2,53.5 163.9,53.5 164.5,53.4 165.1,53.3 165.7,53.2 166.3,53.0 166.8,52.9 167.4,52.7 168.0,52.5 168.6,52.2 169.1,51.9 169.6,51.6" fill="none" stroke="#000" stroke-width="1.2"/>
<polyline points="167.0,148.9 168.0,150.0 169.1,151.0 170.2,151.9 171.5,152.7 172.8,153.4 174.2,154.0 175.6,154.4 177.0,154.7 178.5,154.9 180.0,155.0 181.5,154.9 183.0,154.7 184.4,154.4 185.8,154.0 187.2,153.4 188.5,152.7 189.8,151.9 190.9,151.0 192.0,150.0 193.0,148.9" fill="none" stroke="#000" stroke-width="1.2"/>
<text x="166.5" y="87.6" font-size="12" text-anchor="middle">円周角</text>
<text x="180.0" y="182.2" font-size="12" text-anchor="middle">中心角</text>
<text x="180.0" y="262.0" font-size="13" text-anchor="middle" font-weight="bold">弧AB</text>
<line x1="180.0" y1="250.0" x2="180.0" y2="247.0" stroke="#000" stroke-width="1.2"/>
<polygon points="180.0,241.0 182.7,247.0 177.3,247.0" fill="#000"/>
<text x="180.0" y="296.0" font-size="12" text-anchor="middle">∠APB＝弧ABに対する円周角，∠AOB＝弧ABに対する中心角</text>
<text x="180.0" y="314.0" font-size="12" text-anchor="middle">（Pは弧ABの上にはとらない。角は「どの弧に対するか」とセット）</text>
</svg>
