<svg xmlns="http://www.w3.org/2000/svg" viewBox="0 0 340 322">
<title>円周角どうしをつなぐ（64°→x）</title>
<desc>【この図の意図】例題3の図。同一弧ABへの2円周角（弧の強調と1重弧マークで対応）。【主要な数値・設定】A=206°,B=334°（中心角128°）,P=110°,Q=58°。【AIに同じ種類の図を描かせるときの説明文】「円周角どうしをつなぐ（64°→x）。例題3の図。同一弧ABへの2円周角（弧の強調と1重弧マークで対応）。数値・設定: A=206°,B=334°（中心角128°）,P=110°,Q=58°。白黒印刷向けのシンプルな教材図（SVG）としてかいて。」——この説明文を生成AIに渡せば同型の図を描かせられる。数値を変えれば類題用の図も作れる。</desc>
<!-- L02_fig3_example_same_arc.svg | 円周角どうしをつなぐ（64°→x） -->
<!-- generated by assets_provenance/generate_figures.py on 2026-07-17 (docs/SPEC_figures.md準拠（内部規約の要旨は同SPECに反映済み）・SVG直接編集禁止/スクリプト改修で再生成) -->
<rect x="0" y="0" width="340" height="322" fill="#fff"/>
<polyline points="83.7,174.1 86.9,180.0 90.4,185.7 94.4,191.1 98.7,196.2 103.3,201.1 108.3,205.5 113.6,209.7 119.1,213.4 124.9,216.8 131.0,219.7 137.2,222.2 143.5,224.3 150.0,225.9 156.6,227.1 163.3,227.8 170.0,228.0 176.7,227.8 183.4,227.1 190.0,225.9 196.5,224.3 202.8,222.2 209.0,219.7 215.1,216.8 220.9,213.4 226.4,209.7 231.7,205.5 236.7,201.1 241.3,196.2 245.6,191.1 249.6,185.7 253.1,180.0 256.3,174.1" fill="none" stroke="#c9c9c9" stroke-width="8" stroke-linecap="round"/>
<circle cx="170.0" cy="132.0" r="96.0" fill="none" stroke="#000" stroke-width="1.6"/>
<line x1="137.2" y1="41.8" x2="83.7" y2="174.1" stroke="#000" stroke-width="1.6"/>
<line x1="137.2" y1="41.8" x2="256.3" y2="174.1" stroke="#000" stroke-width="1.6"/>
<polyline points="131.9,54.8 132.7,55.0 133.4,55.3 134.2,55.5 134.9,55.6 135.7,55.7 136.5,55.8 137.3,55.8 138.0,55.8 138.8,55.7 139.6,55.6 140.4,55.4 141.1,55.2 141.9,55.0 142.6,54.7 143.3,54.4 144.0,54.0 144.7,53.6 145.3,53.2 145.9,52.7 146.5,52.2" fill="none" stroke="#000" stroke-width="1.2"/>
<line x1="220.9" y1="50.6" x2="83.7" y2="174.1" stroke="#000" stroke-width="1.6"/>
<line x1="220.9" y1="50.6" x2="256.3" y2="174.1" stroke="#000" stroke-width="1.6"/>
<polyline points="210.5,60.0 211.0,60.5 211.6,61.1 212.2,61.6 212.8,62.0 213.5,62.5 214.1,62.9 214.8,63.2 215.5,63.5 216.3,63.8 217.0,64.0 217.8,64.2 218.5,64.4 219.3,64.5 220.1,64.6 220.9,64.6 221.7,64.6 222.4,64.5 223.2,64.4 224.0,64.2 224.7,64.0" fill="none" stroke="#000" stroke-width="1.2"/>
<circle cx="83.7" cy="174.1" r="2.5" fill="#000"/>
<text x="70.2" y="185.2" font-size="13" text-anchor="middle" font-weight="bold">A</text>
<circle cx="256.3" cy="174.1" r="2.5" fill="#000"/>
<text x="269.8" y="185.2" font-size="13" text-anchor="middle" font-weight="bold">B</text>
<circle cx="137.2" cy="41.8" r="2.5" fill="#000"/>
<text x="132.0" y="32.2" font-size="13" text-anchor="middle" font-weight="bold">P</text>
<circle cx="220.9" cy="50.6" r="2.5" fill="#000"/>
<text x="228.8" y="42.4" font-size="13" text-anchor="middle" font-weight="bold">Q</text>
<text x="142.4" y="75.9" font-size="13" text-anchor="middle">64°</text>
<text x="212.6" y="84.0" font-size="13" text-anchor="middle">x</text>
<text x="170.0" y="288.0" font-size="12" text-anchor="middle">∠APBと∠AQBは，どちらも弧AB（グレー）に対する円周角</text>
<text x="170.0" y="306.0" font-size="12" text-anchor="middle">（例題3: 中心角が図になくても定理(2)で直接つなぐ）</text>
</svg>
