<svg xmlns="http://www.w3.org/2000/svg" viewBox="0 0 360 344">
<title>1つの図に円周角が2組（30°と45°）</title>
<desc>【この図の意図】例題4の図。弧BC/弧ADを塗り分け・等角は弧の本数（1重/2重）で対応。【主要な数値・設定】A=140°,B=200°,C=260°,D=50°（弧BC=60°・弧AD=90°）。【AIに同じ種類の図を描かせるときの説明文】「1つの図に円周角が2組（30°と45°）。例題4の図。弧BC/弧ADを塗り分け・等角は弧の本数（1重/2重）で対応。数値・設定: A=140°,B=200°,C=260°,D=50°（弧BC=60°・弧AD=90°）。白黒印刷向けのシンプルな教材図（SVG）としてかいて。」——この説明文を生成AIに渡せば同型の図を描かせられる。数値を変えれば類題用の図も作れる。</desc>
<!-- L02_fig4_example_two_pairs.svg | 1つの図に円周角が2組（30°と45°） -->
<!-- generated by assets_provenance/generate_figures.py on 2026-07-17 (docs/SPEC_figures.md準拠（内部規約の要旨は同SPECに反映済み）・SVG直接編集禁止/スクリプト改修で再生成) -->
<rect x="0" y="0" width="360" height="344" fill="#fff"/>
<polyline points="87.9,171.5 90.5,177.9 93.5,184.0 96.9,189.9 100.7,195.6 104.9,201.0 109.5,206.1 114.4,210.8 119.7,215.2 125.2,219.2 131.0,222.9 137.0,226.1 143.3,228.9 149.7,231.2 156.3,233.1 163.0,234.5" fill="none" stroke="#c9c9c9" stroke-width="8" stroke-linecap="round"/>
<polyline points="243.0,62.9 237.5,58.6 231.7,54.7 225.6,51.3 219.3,48.2 212.8,45.6 206.1,43.5 199.3,41.9 192.4,40.8 185.4,40.2 178.4,40.0 171.5,40.4 164.5,41.2 157.7,42.6 150.9,44.4 144.3,46.7 137.9,49.5 131.7,52.7 125.7,56.4 120.0,60.5 114.7,65.0 109.6,69.8 104.9,75.0" fill="none" stroke="#8f8f8f" stroke-width="4" stroke-linecap="round"/>
<circle cx="180.0" cy="138.0" r="98.0" fill="none" stroke="#000" stroke-width="1.6"/>
<line x1="104.9" y1="75.0" x2="87.9" y2="171.5" stroke="#000" stroke-width="1.6"/>
<line x1="87.9" y1="171.5" x2="163.0" y2="234.5" stroke="#000" stroke-width="1.6"/>
<line x1="163.0" y1="234.5" x2="243.0" y2="62.9" stroke="#000" stroke-width="1.6"/>
<line x1="243.0" y1="62.9" x2="104.9" y2="75.0" stroke="#000" stroke-width="1.6"/>
<line x1="104.9" y1="75.0" x2="163.0" y2="234.5" stroke="#000" stroke-width="1.6"/>
<line x1="87.9" y1="171.5" x2="243.0" y2="62.9" stroke="#000" stroke-width="1.6"/>
<circle cx="104.9" cy="75.0" r="2.5" fill="#000"/>
<text x="93.4" y="69.9" font-size="13" text-anchor="middle" font-weight="bold">A</text>
<circle cx="87.9" cy="171.5" r="2.5" fill="#000"/>
<text x="73.8" y="181.2" font-size="13" text-anchor="middle" font-weight="bold">B</text>
<circle cx="163.0" cy="234.5" r="2.5" fill="#000"/>
<text x="160.4" y="253.8" font-size="13" text-anchor="middle" font-weight="bold">C</text>
<circle cx="243.0" cy="62.9" r="2.5" fill="#000"/>
<text x="252.6" y="56.0" font-size="13" text-anchor="middle" font-weight="bold">D</text>
<polyline points="102.5,88.8 102.9,88.9 103.2,88.9 103.6,88.9 104.0,89.0 104.3,89.0 104.7,89.0 105.0,89.0 105.4,89.0 105.8,89.0 106.1,89.0 106.5,88.9 106.9,88.9 107.2,88.8 107.6,88.7 108.0,88.7 108.3,88.6 108.7,88.5 109.0,88.4 109.4,88.3 109.7,88.2" fill="none" stroke="#000" stroke-width="1.2"/>
<polyline points="231.5,71.0 231.7,71.3 232.0,71.5 232.2,71.8 232.4,72.1 232.7,72.4 232.9,72.7 233.2,72.9 233.4,73.2 233.7,73.4 234.0,73.7 234.3,73.9 234.6,74.1 234.9,74.3 235.2,74.5 235.5,74.7 235.8,74.9 236.1,75.1 236.4,75.3 236.7,75.5 237.1,75.6" fill="none" stroke="#000" stroke-width="1.2"/>
<polyline points="158.2,221.4 158.7,221.2 159.2,221.0 159.8,220.9 160.3,220.8 160.9,220.7 161.4,220.6 161.9,220.5 162.5,220.5 163.0,220.5 163.6,220.5 164.1,220.6 164.7,220.6 165.2,220.7 165.8,220.8 166.3,220.9 166.8,221.1 167.4,221.2 167.9,221.4 168.4,221.6 168.9,221.8" fill="none" stroke="#000" stroke-width="1.2"/>
<polyline points="157.0,218.1 157.6,217.8 158.3,217.6 159.0,217.5 159.6,217.3 160.3,217.2 161.0,217.1 161.7,217.1 162.4,217.0 163.1,217.0 163.7,217.0 164.4,217.1 165.1,217.1 165.8,217.2 166.5,217.4 167.1,217.5 167.8,217.7 168.5,217.9 169.1,218.1 169.7,218.4 170.4,218.7" fill="none" stroke="#000" stroke-width="1.2"/>
<polyline points="90.3,157.7 90.9,157.8 91.4,158.0 91.9,158.1 92.5,158.3 93.0,158.5 93.5,158.7 94.0,158.9 94.5,159.2 95.0,159.4 95.4,159.7 95.9,160.0 96.3,160.3 96.8,160.7 97.2,161.0 97.6,161.4 98.0,161.8 98.4,162.2 98.7,162.6 99.1,163.0 99.4,163.5" fill="none" stroke="#000" stroke-width="1.2"/>
<polyline points="90.9,154.3 91.6,154.4 92.3,154.6 93.0,154.8 93.6,155.0 94.3,155.2 94.9,155.5 95.5,155.8 96.1,156.1 96.7,156.4 97.3,156.8 97.9,157.1 98.4,157.5 99.0,158.0 99.5,158.4 100.0,158.9 100.5,159.4 101.0,159.9 101.4,160.4 101.8,160.9 102.2,161.5" fill="none" stroke="#000" stroke-width="1.2"/>
<text x="108.8" y="123.4" font-size="13" text-anchor="middle">30°</text>
<text x="164.4" y="207.1" font-size="13" text-anchor="middle">45°</text>
<text x="222.4" y="92.0" font-size="13" text-anchor="middle">？</text>
<text x="105.1" y="149.1" font-size="13" text-anchor="middle">？</text>
<text x="180.0" y="310.0" font-size="12" text-anchor="middle">∠BAC＝30°・∠ACD＝45°から，∠BDC・∠ABD（？）を求める</text>
<text x="180.0" y="328.0" font-size="12" text-anchor="middle">（例題4: 1つの角につき1回塗る。同じ弧マーク＝同じ本数の角弧）</text>
</svg>
