<svg xmlns="http://www.w3.org/2000/svg" viewBox="0 0 340 322">
<title>中心角から円周角へ（80°→x）</title>
<desc>【この図の意図】例題1の図。塗り弧BC・中心角80°・求める円周角x。【主要な数値・設定】B=230°,C=310°（中心角80°）,A=95°。【AIに同じ種類の図を描かせるときの説明文】「中心角から円周角へ（80°→x）。例題1の図。塗り弧BC・中心角80°・求める円周角x。数値・設定: B=230°,C=310°（中心角80°）,A=95°。白黒印刷向けのシンプルな教材図（SVG）としてかいて。」——この説明文を生成AIに渡せば同型の図を描かせられる。数値を変えれば類題用の図も作れる。</desc>
<!-- L02_fig2_example_central_to_inscribed.svg | 中心角から円周角へ（80°→x） -->
<!-- generated by assets_provenance/generate_figures.py on 2026-07-17 (docs/SPEC_figures.md準拠（内部規約の要旨は同SPECに反映済み）・SVG直接編集禁止/スクリプト改修で再生成) -->
<rect x="0" y="0" width="340" height="322" fill="#fff"/>
<polyline points="108.3,205.5 113.6,209.7 119.1,213.4 124.9,216.8 131.0,219.7 137.2,222.2 143.5,224.3 150.0,225.9 156.6,227.1 163.3,227.8 170.0,228.0 176.7,227.8 183.4,227.1 190.0,225.9 196.5,224.3 202.8,222.2 209.0,219.7 215.1,216.8 220.9,213.4 226.4,209.7 231.7,205.5" fill="none" stroke="#c9c9c9" stroke-width="8" stroke-linecap="round"/>
<circle cx="170.0" cy="132.0" r="96.0" fill="none" stroke="#000" stroke-width="1.6"/>
<line x1="170.0" y1="132.0" x2="108.3" y2="205.5" stroke="#000" stroke-width="1.6"/>
<line x1="170.0" y1="132.0" x2="231.7" y2="205.5" stroke="#000" stroke-width="1.6"/>
<line x1="161.6" y1="36.4" x2="108.3" y2="205.5" stroke="#000" stroke-width="1.6"/>
<line x1="161.6" y1="36.4" x2="231.7" y2="205.5" stroke="#000" stroke-width="1.6"/>
<circle cx="108.3" cy="205.5" r="2.5" fill="#000"/>
<text x="98.7" y="221.6" font-size="13" text-anchor="middle" font-weight="bold">B</text>
<circle cx="231.7" cy="205.5" r="2.5" fill="#000"/>
<text x="241.3" y="221.6" font-size="13" text-anchor="middle" font-weight="bold">C</text>
<circle cx="161.6" cy="36.4" r="2.5" fill="#000"/>
<text x="160.3" y="26.0" font-size="13" text-anchor="middle" font-weight="bold">A</text>
<circle cx="170.0" cy="132.0" r="2.5" fill="#000"/>
<text x="156.2" y="134.1" font-size="13" text-anchor="middle" font-weight="bold">O</text>
<polyline points="160.4,143.5 161.2,144.1 162.1,144.7 163.0,145.2 163.9,145.7 164.9,146.1 165.9,146.4 166.9,146.7 167.9,146.9 169.0,147.0 170.0,147.0 171.0,147.0 172.1,146.9 173.1,146.7 174.1,146.4 175.1,146.1 176.1,145.7 177.0,145.2 177.9,144.7 178.8,144.1 179.6,143.5" fill="none" stroke="#000" stroke-width="1.2"/>
<text x="170.0" y="166.6" font-size="13" text-anchor="middle">80°</text>
<polyline points="157.4,49.7 157.9,49.9 158.4,50.0 158.8,50.1 159.3,50.2 159.8,50.2 160.3,50.3 160.8,50.3 161.3,50.4 161.8,50.4 162.2,50.4 162.7,50.3 163.2,50.3 163.7,50.2 164.2,50.1 164.7,50.0 165.1,49.9 165.6,49.8 166.1,49.6 166.5,49.5 167.0,49.3" fill="none" stroke="#000" stroke-width="1.2"/>
<text x="162.9" y="68.9" font-size="13" text-anchor="middle">x</text>
<text x="170.0" y="288.0" font-size="12" text-anchor="middle">弧BC（グレー）に対する中心角80°→ 円周角∠BAC＝x</text>
<text x="170.0" y="306.0" font-size="12" text-anchor="middle">（例題1: 頂点Aを含まない側の弧を塗ってから定理(1)）</text>
</svg>
