<svg xmlns="http://www.w3.org/2000/svg" viewBox="0 0 660 300">
<title>練習3・4・5（3パネル統合）</title>
<desc>【この図の意図】同弧等角2題＋半径二等辺経由1題。塗り弧と1重弧マークで対応。【主要な数値・設定】P3: 中心角82°／P4: 中心角126°／P5: ∠OAB=25°（中心角は導出値のため非表示）。【AIに同じ種類の図を描かせるときの説明文】「練習3・4・5（3パネル統合）。同弧等角2題＋半径二等辺経由1題。塗り弧と1重弧マークで対応。数値・設定: P3: 中心角82°／P4: 中心角126°／P5: ∠OAB=25°（中心角は導出値のため非表示）。白黒印刷向けのシンプルな教材図（SVG）としてかいて。」——この説明文を生成AIに渡せば同型の図を描かせられる。数値を変えれば類題用の図も作れる。</desc>
<!-- L02_fig5_practice_3_4_5.svg | 練習3・4・5（3パネル統合） -->
<!-- generated by assets_provenance/generate_figures.py on 2026-07-17 (docs/SPEC_figures.md準拠（内部規約の要旨は同SPECに反映済み）・SVG直接編集禁止/スクリプト改修で再生成) -->
<rect x="0" y="0" width="660" height="300" fill="#fff"/>
<polyline points="66.1,160.8 70.0,164.0 74.1,166.8 78.4,169.4 82.9,171.6 87.5,173.6 92.2,175.2 97.1,176.4 102.0,177.3 107.0,177.8 112.0,178.0 117.0,177.8 122.0,177.3 126.9,176.4 131.8,175.2 136.5,173.6 141.1,171.6 145.6,169.4 149.9,166.8 154.0,164.0 157.9,160.8" fill="none" stroke="#c9c9c9" stroke-width="6" stroke-linecap="round"/>
<circle cx="112.0" cy="108.0" r="70.0" fill="none" stroke="#000" stroke-width="1.6"/>
<line x1="90.4" y1="41.4" x2="66.1" y2="160.8" stroke="#000" stroke-width="1.6"/>
<line x1="90.4" y1="41.4" x2="157.9" y2="160.8" stroke="#000" stroke-width="1.6"/>
<polyline points="88.2,52.2 88.6,52.3 89.0,52.3 89.3,52.4 89.7,52.4 90.1,52.4 90.5,52.4 90.9,52.4 91.3,52.4 91.7,52.3 92.1,52.3 92.5,52.2 92.9,52.1 93.2,52.0 93.6,51.9 94.0,51.8 94.4,51.7 94.7,51.5 95.1,51.4 95.4,51.2 95.8,51.0" fill="none" stroke="#000" stroke-width="1.2"/>
<line x1="152.2" y1="50.7" x2="66.1" y2="160.8" stroke="#000" stroke-width="1.6"/>
<line x1="152.2" y1="50.7" x2="157.9" y2="160.8" stroke="#000" stroke-width="1.6"/>
<polyline points="145.4,59.3 145.7,59.6 146.0,59.8 146.3,60.0 146.7,60.2 147.0,60.4 147.4,60.6 147.7,60.7 148.1,60.9 148.5,61.0 148.8,61.2 149.2,61.3 149.6,61.4 150.0,61.4 150.4,61.5 150.8,61.6 151.2,61.6 151.5,61.6 151.9,61.7 152.3,61.7 152.7,61.6" fill="none" stroke="#000" stroke-width="1.2"/>
<circle cx="66.1" cy="160.8" r="2.5" fill="#000"/>
<text x="57.5" y="175.2" font-size="13" text-anchor="middle" font-weight="bold">A</text>
<circle cx="157.9" cy="160.8" r="2.5" fill="#000"/>
<text x="166.5" y="175.2" font-size="13" text-anchor="middle" font-weight="bold">B</text>
<circle cx="90.4" cy="41.4" r="2.5" fill="#000"/>
<text x="86.4" y="33.6" font-size="13" text-anchor="middle" font-weight="bold">P</text>
<circle cx="152.2" cy="50.7" r="2.5" fill="#000"/>
<text x="159.6" y="44.6" font-size="13" text-anchor="middle" font-weight="bold">Q</text>
<text x="96.3" y="83.2" font-size="12" text-anchor="middle">41°</text>
<text x="144.9" y="77.7" font-size="12" text-anchor="middle">x</text>
<text x="112.0" y="216.0" font-size="12" text-anchor="middle" font-weight="bold">練習3</text>
<polyline points="267.6,139.8 270.0,144.1 272.7,148.3 275.7,152.2 279.0,156.0 282.5,159.5 286.3,162.7 290.3,165.7 294.5,168.3 298.9,170.7 303.4,172.7 308.0,174.5 312.8,175.9 317.7,176.9 322.6,177.6 327.5,178.0 332.5,178.0 337.4,177.6 342.3,176.9 347.2,175.9 352.0,174.5 356.6,172.7 361.1,170.7 365.5,168.3 369.7,165.7 373.7,162.7 377.5,159.5 381.0,156.0 384.3,152.2 387.3,148.3 390.0,144.1 392.4,139.8" fill="none" stroke="#c9c9c9" stroke-width="6" stroke-linecap="round"/>
<circle cx="330.0" cy="108.0" r="70.0" fill="none" stroke="#000" stroke-width="1.6"/>
<line x1="303.8" y1="43.1" x2="267.6" y2="139.8" stroke="#000" stroke-width="1.6"/>
<line x1="303.8" y1="43.1" x2="392.4" y2="139.8" stroke="#000" stroke-width="1.6"/>
<polyline points="299.9,53.4 300.5,53.6 301.1,53.8 301.7,53.9 302.3,54.0 302.9,54.1 303.5,54.1 304.1,54.1 304.7,54.1 305.3,54.0 305.9,53.9 306.5,53.8 307.0,53.6 307.6,53.4 308.2,53.2 308.7,52.9 309.3,52.6 309.8,52.3 310.3,52.0 310.8,51.6 311.2,51.2" fill="none" stroke="#000" stroke-width="1.2"/>
<line x1="362.9" y1="46.2" x2="267.6" y2="139.8" stroke="#000" stroke-width="1.6"/>
<line x1="362.9" y1="46.2" x2="392.4" y2="139.8" stroke="#000" stroke-width="1.6"/>
<polyline points="355.0,53.9 355.5,54.3 355.9,54.7 356.4,55.1 356.9,55.4 357.4,55.7 357.9,56.0 358.5,56.3 359.0,56.5 359.6,56.7 360.2,56.9 360.8,57.0 361.4,57.1 362.0,57.2 362.6,57.2 363.2,57.2 363.8,57.2 364.4,57.1 365.0,57.0 365.6,56.9 366.2,56.7" fill="none" stroke="#000" stroke-width="1.2"/>
<circle cx="267.6" cy="139.8" r="2.5" fill="#000"/>
<text x="256.0" y="150.2" font-size="13" text-anchor="middle" font-weight="bold">A</text>
<circle cx="392.4" cy="139.8" r="2.5" fill="#000"/>
<text x="404.0" y="150.2" font-size="13" text-anchor="middle" font-weight="bold">B</text>
<circle cx="303.8" cy="43.1" r="2.5" fill="#000"/>
<text x="298.9" y="35.6" font-size="13" text-anchor="middle" font-weight="bold">C</text>
<circle cx="362.9" cy="46.2" r="2.5" fill="#000"/>
<text x="369.0" y="39.3" font-size="13" text-anchor="middle" font-weight="bold">D</text>
<text x="308.4" y="70.9" font-size="12" text-anchor="middle">63°</text>
<text x="357.1" y="73.7" font-size="12" text-anchor="middle">x</text>
<text x="330.0" y="216.0" font-size="12" text-anchor="middle" font-weight="bold">練習4</text>
<polyline points="484.6,137.6 486.8,142.0 489.4,146.3 492.2,150.3 495.4,154.2 498.8,157.8 502.4,161.1 506.3,164.2 510.4,167.0 514.7,169.6 519.1,171.8 523.7,173.6 528.4,175.2 533.2,176.4 538.1,177.3 543.0,177.8 548.0,178.0 553.0,177.8 557.9,177.3 562.8,176.4 567.6,175.2 572.3,173.6 576.9,171.8 581.3,169.6 585.6,167.0 589.7,164.2 593.6,161.1 597.2,157.8 600.6,154.2 603.8,150.3 606.6,146.3 609.2,142.0 611.4,137.6" fill="none" stroke="#c9c9c9" stroke-width="6" stroke-linecap="round"/>
<circle cx="548.0" cy="108.0" r="70.0" fill="none" stroke="#000" stroke-width="1.6"/>
<line x1="548.0" y1="108.0" x2="484.6" y2="137.6" stroke="#000" stroke-width="1.6"/>
<line x1="548.0" y1="108.0" x2="611.4" y2="137.6" stroke="#000" stroke-width="1.6"/>
<line x1="548.0" y1="38.0" x2="484.6" y2="137.6" stroke="#000" stroke-width="1.6"/>
<line x1="548.0" y1="38.0" x2="611.4" y2="137.6" stroke="#000" stroke-width="1.6"/>
<circle cx="484.6" cy="137.6" r="2.5" fill="#000"/>
<text x="472.8" y="147.6" font-size="13" text-anchor="middle" font-weight="bold">A</text>
<circle cx="611.4" cy="137.6" r="2.5" fill="#000"/>
<text x="623.2" y="147.6" font-size="13" text-anchor="middle" font-weight="bold">B</text>
<circle cx="548.0" cy="38.0" r="2.5" fill="#000"/>
<text x="548.0" y="29.6" font-size="13" text-anchor="middle" font-weight="bold">P</text>
<circle cx="548.0" cy="108.0" r="2.5" fill="#000"/>
<text x="548.0" y="99.5" font-size="13" text-anchor="middle" font-weight="bold">O</text>
<polyline points="494.5,132.9 494.6,133.2 494.7,133.4 494.8,133.6 494.9,133.8 495.0,134.0 495.0,134.3 495.1,134.5 495.2,134.7 495.2,135.0 495.3,135.2 495.3,135.4 495.4,135.7 495.4,135.9 495.5,136.1 495.5,136.4 495.5,136.6 495.5,136.9 495.5,137.1 495.6,137.3 495.6,137.6" fill="none" stroke="#000" stroke-width="1.2"/>
<text x="523.6" y="133.1" font-size="12" text-anchor="middle">25°</text>
<polyline points="542.1,47.3 542.6,47.6 543.2,47.9 543.7,48.1 544.3,48.4 544.9,48.6 545.5,48.7 546.1,48.8 546.8,48.9 547.4,49.0 548.0,49.0 548.6,49.0 549.2,48.9 549.9,48.8 550.5,48.7 551.1,48.6 551.7,48.4 552.3,48.1 552.8,47.9 553.4,47.6 553.9,47.3" fill="none" stroke="#000" stroke-width="1.2"/>
<text x="548.0" y="66.2" font-size="12" text-anchor="middle">x</text>
<text x="548.0" y="216.0" font-size="12" text-anchor="middle" font-weight="bold">練習5（OA＝OB）</text>
<text x="330.0" y="252.0" font-size="12" text-anchor="middle">練習3・4: 同じ弧（グレー）に対する円周角の組を見つけて定理(2)</text>
<text x="330.0" y="270.0" font-size="12" text-anchor="middle">練習5: 二等辺三角形OABから中心角を先に求めて定理(1)</text>
</svg>
