<svg xmlns="http://www.w3.org/2000/svg" viewBox="0 0 340 340">
<title>円周角と2つの弧（中心角144°と216°）</title>
<desc>【この図の意図】練習9の図。2つの弧の中心角144°と216°を両方示す。どちらが∠BACに対応するかは本文の練習で考える。【主要な数値・設定】A=90°,B=162°,C=18°（2つの弧BCの中心角は144°と216°）。【AIに同じ種類の図を描かせるときの説明文】「円周角と2つの弧（中心角144°と216°）。練習9の図。2つの弧の中心角144°と216°を両方示す。どちらが∠BACに対応するかは本文の練習で考える。数値・設定: A=90°,B=162°,C=18°（2つの弧BCの中心角は144°と216°）。白黒印刷向けのシンプルな教材図（SVG）としてかいて。」——この説明文を生成AIに渡せば同型の図を描かせられる。数値を変えれば類題用の図も作れる。</desc>
<!-- L02_fig7_practice_obtuse_inscribed.svg | 円周角と2つの弧（中心角144°と216°） -->
<!-- generated by assets_provenance/generate_figures.py on 2026-07-17 (docs/SPEC_figures.md準拠（内部規約の要旨は同SPECに反映済み）・SVG直接編集禁止/スクリプト改修で再生成) -->
<rect x="0" y="0" width="340" height="340" fill="#fff"/>
<polyline points="78.7,102.3 76.9,108.8 75.5,115.3 74.5,122.0 74.1,128.6 74.1,135.4 74.5,142.0 75.5,148.7 76.9,155.2 78.7,161.7 81.0,168.0 83.7,174.1 86.9,180.0 90.4,185.7 94.4,191.1 98.7,196.2 103.3,201.1 108.3,205.5 113.6,209.7 119.1,213.4 124.9,216.8 131.0,219.7 137.2,222.2 143.5,224.3 150.0,225.9 156.6,227.1 163.3,227.8 170.0,228.0 176.7,227.8 183.4,227.1 190.0,225.9 196.5,224.3 202.8,222.2 209.0,219.7 215.1,216.8 220.9,213.4 226.4,209.7 231.7,205.5 236.7,201.1 241.3,196.2 245.6,191.1 249.6,185.7 253.1,180.0 256.3,174.1 259.0,168.0 261.3,161.7 263.1,155.2 264.5,148.7 265.5,142.0 265.9,135.4 265.9,128.6 265.5,122.0 264.5,115.3 263.1,108.8 261.3,102.3" fill="none" stroke="#c9c9c9" stroke-width="8" stroke-linecap="round"/>
<circle cx="170.0" cy="132.0" r="96.0" fill="none" stroke="#000" stroke-width="1.6"/>
<line x1="170.0" y1="132.0" x2="78.7" y2="102.3" stroke="#000" stroke-width="1.6"/>
<line x1="170.0" y1="132.0" x2="261.3" y2="102.3" stroke="#000" stroke-width="1.6"/>
<line x1="170.0" y1="36.0" x2="78.7" y2="102.3" stroke="#000" stroke-width="1.6"/>
<line x1="170.0" y1="36.0" x2="261.3" y2="102.3" stroke="#000" stroke-width="1.6"/>
<circle cx="170.0" cy="36.0" r="2.5" fill="#000"/>
<text x="170.0" y="25.6" font-size="13" text-anchor="middle" font-weight="bold">A</text>
<circle cx="78.7" cy="102.3" r="2.5" fill="#000"/>
<text x="64.4" y="102.2" font-size="13" text-anchor="middle" font-weight="bold">B</text>
<circle cx="261.3" cy="102.3" r="2.5" fill="#000"/>
<text x="275.6" y="102.2" font-size="13" text-anchor="middle" font-weight="bold">C</text>
<circle cx="170.0" cy="132.0" r="2.5" fill="#000"/>
<text x="170.0" y="124.5" font-size="13" text-anchor="middle" font-weight="bold">O</text>
<polyline points="153.8,126.7 153.5,127.9 153.3,129.0 153.1,130.2 153.0,131.4 153.0,132.6 153.1,133.8 153.3,135.0 153.5,136.1 153.8,137.3 154.2,138.4 154.7,139.5 155.3,140.5 155.9,141.5 156.6,142.5 157.4,143.4 158.2,144.2 159.1,145.0 160.0,145.8 161.0,146.4 162.0,147.0 163.1,147.5 164.2,148.0 165.3,148.3 166.5,148.6 167.6,148.8 168.8,149.0 170.0,149.0 171.2,149.0 172.4,148.8 173.5,148.6 174.7,148.3 175.8,148.0 176.9,147.5 178.0,147.0 179.0,146.4 180.0,145.8 180.9,145.0 181.8,144.2 182.6,143.4 183.4,142.5 184.1,141.5 184.7,140.5 185.3,139.5 185.8,138.4 186.2,137.3 186.5,136.1 186.7,135.0 186.9,133.8 187.0,132.6 187.0,131.4 186.9,130.2 186.7,129.0 186.5,127.9 186.2,126.7" fill="none" stroke="#000" stroke-width="1.2" stroke-linecap="round"/>
<text x="170.0" y="170.6" font-size="13" text-anchor="middle">216°</text>
<polyline points="194.7,124.0 194.1,122.3 193.4,120.6 192.5,119.0 191.6,117.5 190.5,116.0 189.3,114.6 188.1,113.3 186.7,112.1 185.3,111.0 183.8,110.0 182.2,109.0 180.6,108.2 178.9,107.6 177.2,107.0 175.4,106.6 173.6,106.3 171.8,106.1 170.0,106.0 168.2,106.1 166.4,106.3 164.6,106.6 162.8,107.0 161.1,107.6 159.4,108.2 157.8,109.0 156.2,110.0 154.7,111.0 153.3,112.1 151.9,113.3 150.7,114.6 149.5,116.0 148.4,117.5 147.5,119.0 146.6,120.6 145.9,122.3 145.3,124.0" fill="none" stroke="#000" stroke-width="1.2" stroke-linecap="round" stroke-dasharray="6 4"/>
<text x="170.0" y="92.5" font-size="13" text-anchor="middle">144°</text>
<polyline points="158.7,44.2 159.5,45.3 160.4,46.2 161.4,47.1 162.5,47.8 163.6,48.5 164.8,49.0 166.1,49.4 167.4,49.8 168.7,49.9 170.0,50.0 171.3,49.9 172.6,49.8 173.9,49.4 175.2,49.0 176.4,48.5 177.5,47.8 178.6,47.1 179.6,46.2 180.5,45.3 181.3,44.2" fill="none" stroke="#000" stroke-width="1.2"/>
<text x="170.0" y="66.5" font-size="13" text-anchor="middle">x</text>
<text x="170.0" y="306.0" font-size="12" text-anchor="middle">弧BC（グレー・Aを含まない側）の中心角は大回りの216°</text>
<text x="170.0" y="324.0" font-size="12" text-anchor="middle">（練習9: 144°はAを含む側の弧に対する中心角）</text>
</svg>
