<svg xmlns="http://www.w3.org/2000/svg" viewBox="0 0 560 330">
<title>練習6・7（2パネル統合）</title>
<desc>【この図の意図】円周角2組の型＋中心角3分割から内角。答えの角度は図に置かない。【主要な数値・設定】P6: 弧BC/ADの作図値は答え直結のため非表示／P7: 与件の中心角110°・130°から残り1つを求める構図（値は非表示）。【AIに同じ種類の図を描かせるときの説明文】「練習6・7（2パネル統合）。円周角2組の型＋中心角3分割から内角。答えの角度は図に置かない。数値・設定: P6: 弧BC/ADの作図値は答え直結のため非表示／P7: 与件の中心角110°・130°から残り1つを求める構図（値は非表示）。白黒印刷向けのシンプルな教材図（SVG）としてかいて。」——この説明文を生成AIに渡せば同型の図を描かせられる。数値を変えれば類題用の図も作れる。</desc>
<!-- L02_fig6_practice_6_7.svg | 練習6・7（2パネル統合） -->
<!-- generated by assets_provenance/generate_figures.py on 2026-07-17 (docs/SPEC_figures.md準拠（内部規約の要旨は同SPECに反映済み）・SVG直接編集禁止/スクリプト改修で再生成) -->
<rect x="0" y="0" width="560" height="330" fill="#fff"/>
<polyline points="57.3,158.1 59.6,163.8 62.3,169.3 65.4,174.6 68.8,179.7 72.6,184.6 76.7,189.1 81.1,193.4 85.8,197.3 90.8,201.0 96.0,204.2 101.4,207.1 107.0,209.6 112.8,211.7 118.7,213.4 124.7,214.7" fill="none" stroke="#c9c9c9" stroke-width="6" stroke-linecap="round"/>
<polyline points="149.2,40.5 143.1,40.1 136.9,40.1 130.8,40.5 124.7,41.3 118.7,42.6 112.8,44.3 107.0,46.4 101.4,48.9 96.0,51.8 90.8,55.0 85.8,58.7 81.1,62.6 76.7,66.9 72.6,71.4" fill="none" stroke="#8f8f8f" stroke-width="3.4" stroke-linecap="round"/>
<circle cx="140.0" cy="128.0" r="88.0" fill="none" stroke="#000" stroke-width="1.6"/>
<line x1="72.6" y1="71.4" x2="57.3" y2="158.1" stroke="#000" stroke-width="1.6"/>
<line x1="57.3" y1="158.1" x2="124.7" y2="214.7" stroke="#000" stroke-width="1.6"/>
<line x1="124.7" y1="214.7" x2="149.2" y2="40.5" stroke="#000" stroke-width="1.6"/>
<line x1="149.2" y1="40.5" x2="72.6" y2="71.4" stroke="#000" stroke-width="1.6"/>
<line x1="72.6" y1="71.4" x2="124.7" y2="214.7" stroke="#000" stroke-width="1.6"/>
<line x1="57.3" y1="158.1" x2="149.2" y2="40.5" stroke="#000" stroke-width="1.6"/>
<circle cx="72.6" cy="71.4" r="2.5" fill="#000"/>
<text x="62.6" y="67.6" font-size="13" text-anchor="middle" font-weight="bold">A</text>
<circle cx="57.3" cy="158.1" r="2.5" fill="#000"/>
<text x="45.1" y="167.1" font-size="13" text-anchor="middle" font-weight="bold">B</text>
<circle cx="124.7" cy="214.7" r="2.5" fill="#000"/>
<text x="122.5" y="232.0" font-size="13" text-anchor="middle" font-weight="bold">C</text>
<circle cx="149.2" cy="40.5" r="2.5" fill="#000"/>
<text x="150.6" y="32.1" font-size="13" text-anchor="middle" font-weight="bold">D</text>
<polyline points="70.5,83.3 70.8,83.3 71.1,83.3 71.4,83.4 71.8,83.4 72.1,83.4 72.4,83.4 72.7,83.4 73.0,83.4 73.3,83.4 73.6,83.4 73.9,83.4 74.3,83.3 74.6,83.3 74.9,83.2 75.2,83.2 75.5,83.1 75.8,83.0 76.1,82.9 76.4,82.8 76.7,82.7" fill="none" stroke="#000" stroke-width="1.2"/>
<polyline points="141.8,49.9 142.1,50.1 142.3,50.3 142.6,50.5 142.8,50.7 143.1,50.8 143.4,51.0 143.7,51.1 143.9,51.3 144.2,51.4 144.5,51.5 144.8,51.6 145.1,51.8 145.4,51.9 145.7,52.0 146.0,52.0 146.3,52.1 146.6,52.2 146.9,52.3 147.2,52.3 147.5,52.4" fill="none" stroke="#000" stroke-width="1.2"/>
<polyline points="120.6,203.4 120.9,203.3 121.2,203.2 121.5,203.1 121.7,203.0 122.0,203.0 122.3,202.9 122.6,202.9 122.9,202.8 123.2,202.8 123.5,202.7 123.8,202.7 124.0,202.7 124.3,202.7 124.6,202.7 124.9,202.7 125.2,202.7 125.5,202.7 125.8,202.7 126.1,202.7 126.4,202.8" fill="none" stroke="#000" stroke-width="1.2"/>
<polyline points="119.4,200.1 119.8,200.0 120.1,199.9 120.5,199.7 120.9,199.7 121.2,199.6 121.6,199.5 122.0,199.4 122.3,199.3 122.7,199.3 123.1,199.2 123.5,199.2 123.9,199.2 124.2,199.2 124.6,199.2 125.0,199.2 125.4,199.2 125.7,199.2 126.1,199.2 126.5,199.3 126.9,199.3" fill="none" stroke="#000" stroke-width="1.2"/>
<polyline points="59.4,146.3 59.7,146.3 60.0,146.4 60.3,146.5 60.5,146.5 60.8,146.6 61.1,146.7 61.4,146.8 61.6,146.9 61.9,147.0 62.2,147.1 62.5,147.3 62.7,147.4 63.0,147.5 63.2,147.7 63.5,147.8 63.7,148.0 64.0,148.1 64.2,148.3 64.5,148.5 64.7,148.6" fill="none" stroke="#000" stroke-width="1.2"/>
<polyline points="60.0,142.8 60.4,142.9 60.7,143.0 61.1,143.1 61.5,143.2 61.8,143.3 62.2,143.4 62.6,143.5 62.9,143.6 63.3,143.8 63.6,143.9 64.0,144.1 64.3,144.3 64.6,144.4 65.0,144.6 65.3,144.8 65.6,145.0 65.9,145.2 66.2,145.4 66.5,145.7 66.8,145.9" fill="none" stroke="#000" stroke-width="1.2"/>
<text x="76.1" y="115.5" font-size="12" text-anchor="middle">30°</text>
<text x="121.7" y="190.0" font-size="12" text-anchor="middle">28°</text>
<text x="138.3" y="70.5" font-size="12" text-anchor="middle">x</text>
<text x="68.7" y="136.7" font-size="12" text-anchor="middle">y</text>
<text x="140.0" y="258.0" font-size="12" text-anchor="middle" font-weight="bold">練習6</text>
<circle cx="415.0" cy="128.0" r="88.0" fill="none" stroke="#000" stroke-width="1.6"/>
<polygon points="342.9,77.5 487.1,77.5 407.3,215.7" fill="none" stroke="#000" stroke-width="1.6" stroke-linejoin="round"/>
<line x1="415.0" y1="128.0" x2="342.9" y2="77.5" stroke="#000" stroke-width="1.1"/>
<line x1="415.0" y1="128.0" x2="487.1" y2="77.5" stroke="#000" stroke-width="1.1"/>
<line x1="415.0" y1="128.0" x2="407.3" y2="215.7" stroke="#000" stroke-width="1.1"/>
<circle cx="342.9" cy="77.5" r="2.5" fill="#000"/>
<text x="332.3" y="74.6" font-size="13" text-anchor="middle" font-weight="bold">A</text>
<circle cx="487.1" cy="77.5" r="2.5" fill="#000"/>
<text x="497.7" y="74.6" font-size="13" text-anchor="middle" font-weight="bold">B</text>
<circle cx="407.3" cy="215.7" r="2.5" fill="#000"/>
<text x="406.2" y="233.2" font-size="13" text-anchor="middle" font-weight="bold">C</text>
<circle cx="415.0" cy="128.0" r="2.5" fill="#000"/>
<text x="396.9" y="141.0" font-size="13" text-anchor="middle" font-weight="bold">O</text>
<polyline points="405.2,121.1 405.9,120.2 406.7,119.4 407.5,118.6 408.5,117.9 409.5,117.4 410.5,116.9 411.6,116.5 412.7,116.2 413.8,116.1 415.0,116.0 416.2,116.1 417.3,116.2 418.4,116.5 419.5,116.9 420.5,117.4 421.5,117.9 422.5,118.6 423.3,119.4 424.1,120.2 424.8,121.1" fill="none" stroke="#000" stroke-width="1.2"/>
<polyline points="424.8,121.1 425.5,122.3 426.1,123.5 426.6,124.8 426.9,126.1 427.0,127.5 427.0,128.8 426.8,130.2 426.5,131.5 426.0,132.8 425.4,134.0 424.6,135.1 423.8,136.2 422.8,137.1 421.7,137.9 420.5,138.6 419.3,139.2 418.0,139.6 416.7,139.9 415.3,140.0 414.0,140.0" fill="none" stroke="#000" stroke-width="1.2"/>
<polyline points="427.7,119.1 428.6,120.6 429.4,122.2 429.9,123.9 430.3,125.6 430.5,127.3 430.5,129.1 430.2,130.8 429.8,132.5 429.2,134.2 428.4,135.8 427.5,137.2 426.3,138.6 425.1,139.8 423.7,140.9 422.2,141.7 420.6,142.5 418.9,143.0 417.2,143.3 415.4,143.5 413.6,143.4" fill="none" stroke="#000" stroke-width="1.2"/>
<text x="415.0" y="102.2" font-size="12" text-anchor="middle">110°</text>
<text x="442.7" y="148.2" font-size="12" text-anchor="middle">130°</text>
<text x="415.0" y="258.0" font-size="12" text-anchor="middle" font-weight="bold">練習7</text>
<text x="280.0" y="288.0" font-size="12" text-anchor="middle">練習6: 例題4と同じ型（1つの角につき1回塗る）</text>
<text x="280.0" y="306.0" font-size="12" text-anchor="middle">練習7: 中心角110°・130°から残りの中心角と△ABCの内角を求める</text>
</svg>
