<svg xmlns="http://www.w3.org/2000/svg" viewBox="0 0 380 352">
<title>円周角の定理の全体図（弧→中心角→円周角）</title>
<desc>【この図の意図】主概念1の定理図。塗り弧と2つの円周角・中心角100°の対応を矢印で示す。【主要な数値・設定】A=220°,B=320°（中心角100°）,P=95°,Q=148°。【AIに同じ種類の図を描かせるときの説明文】「円周角の定理の全体図（弧→中心角→円周角）。主概念1の定理図。塗り弧と2つの円周角・中心角100°の対応を矢印で示す。数値・設定: A=220°,B=320°（中心角100°）,P=95°,Q=148°。白黒印刷向けのシンプルな教材図（SVG）としてかいて。」——この説明文を生成AIに渡せば同型の図を描かせられる。数値を変えれば類題用の図も作れる。</desc>
<!-- L02_fig1_theorem_overview.svg | 円周角の定理の全体図（弧→中心角→円周角） -->
<!-- generated by assets_provenance/generate_figures.py on 2026-07-17 (docs/SPEC_figures.md準拠（内部規約の要旨は同SPECに反映済み）・SVG直接編集禁止/スクリプト改修で再生成) -->
<rect x="0" y="0" width="380" height="352" fill="#fff"/>
<polyline points="111.9,207.6 116.6,212.9 121.7,217.8 127.2,222.4 133.0,226.6 139.0,230.3 145.3,233.7 151.8,236.6 158.5,239.0 165.3,241.0 172.3,242.5 179.3,243.4 186.4,243.9 193.6,243.9 200.7,243.4 207.7,242.5 214.7,241.0 221.5,239.0 228.2,236.6 234.7,233.7 241.0,230.3 247.0,226.6 252.8,222.4 258.3,217.8 263.4,212.9 268.1,207.6" fill="none" stroke="#c9c9c9" stroke-width="8" stroke-linecap="round"/>
<circle cx="190.0" cy="142.0" r="102.0" fill="none" stroke="#000" stroke-width="1.6"/>
<line x1="190.0" y1="142.0" x2="111.9" y2="207.6" stroke="#000" stroke-width="1.6"/>
<line x1="190.0" y1="142.0" x2="268.1" y2="207.6" stroke="#000" stroke-width="1.6"/>
<line x1="181.1" y1="40.4" x2="111.9" y2="207.6" stroke="#000" stroke-width="1.6"/>
<line x1="181.1" y1="40.4" x2="268.1" y2="207.6" stroke="#000" stroke-width="1.6"/>
<polyline points="175.8,53.3 176.3,53.5 176.9,53.7 177.5,53.9 178.1,54.1 178.7,54.2 179.3,54.3 179.9,54.3 180.5,54.4 181.1,54.4 181.7,54.4 182.3,54.3 182.9,54.3 183.5,54.2 184.1,54.1 184.7,53.9 185.3,53.7 185.9,53.5 186.5,53.3 187.0,53.1 187.6,52.8" fill="none" stroke="#000" stroke-width="1.2"/>
<line x1="103.5" y1="87.9" x2="111.9" y2="207.6" stroke="#000" stroke-width="1.6"/>
<line x1="103.5" y1="87.9" x2="268.1" y2="207.6" stroke="#000" stroke-width="1.6"/>
<polyline points="104.5,101.9 105.1,101.9 105.7,101.8 106.3,101.7 106.9,101.5 107.5,101.4 108.1,101.2 108.6,101.0 109.2,100.7 109.7,100.5 110.3,100.2 110.8,99.9 111.3,99.6 111.8,99.2 112.3,98.8 112.8,98.4 113.2,98.0 113.7,97.6 114.1,97.1 114.5,96.7 114.8,96.2" fill="none" stroke="#000" stroke-width="1.2"/>
<circle cx="111.9" cy="207.6" r="2.5" fill="#000"/>
<text x="100.4" y="221.8" font-size="13" text-anchor="middle" font-weight="bold">A</text>
<circle cx="268.1" cy="207.6" r="2.5" fill="#000"/>
<text x="279.6" y="221.8" font-size="13" text-anchor="middle" font-weight="bold">B</text>
<circle cx="181.1" cy="40.4" r="2.5" fill="#000"/>
<text x="179.8" y="30.0" font-size="13" text-anchor="middle" font-weight="bold">P</text>
<circle cx="103.5" cy="87.9" r="2.5" fill="#000"/>
<text x="90.8" y="84.5" font-size="13" text-anchor="middle" font-weight="bold">Q</text>
<circle cx="190.0" cy="142.0" r="2.5" fill="#000"/>
<text x="176.1" y="145.3" font-size="13" text-anchor="middle" font-weight="bold">O</text>
<polyline points="178.5,151.6 179.4,152.6 180.4,153.5 181.4,154.3 182.5,155.0 183.7,155.6 184.9,156.1 186.1,156.5 187.4,156.8 188.7,156.9 190.0,157.0 191.3,156.9 192.6,156.8 193.9,156.5 195.1,156.1 196.3,155.6 197.5,155.0 198.6,154.3 199.6,153.5 200.6,152.6 201.5,151.6" fill="none" stroke="#000" stroke-width="1.2"/>
<text x="190.0" y="178.6" font-size="13" text-anchor="middle">100°</text>
<text x="190.0" y="211.5" font-size="12" text-anchor="middle">中心角</text>
<text x="190.0" y="270.0" font-size="13" text-anchor="middle" font-weight="bold">弧AB</text>
<line x1="190.0" y1="258.0" x2="190.0" y2="254.0" stroke="#000" stroke-width="1.2"/>
<polygon points="190.0,248.0 192.7,254.0 187.3,254.0" fill="#000"/>
<line x1="182.0" y1="116.0" x2="184.7" y2="76.4" stroke="#000" stroke-width="1.2"/>
<polygon points="185.1,70.4 187.4,76.6 182.0,76.2" fill="#000"/>
<line x1="176.0" y1="122.0" x2="125.4" y2="113.0" stroke="#000" stroke-width="1.2"/>
<polygon points="119.5,111.9 125.9,110.3 124.9,115.7" fill="#000"/>
<text x="190.0" y="316.0" font-size="12" text-anchor="middle">弧AB→中心角∠AOB→円周角∠APB・∠AQB の順に対応づける</text>
<text x="190.0" y="334.0" font-size="12" text-anchor="middle">（定理(1) 円周角＝中心角×1/2 ／ 定理(2) 同じ弧なら円周角は等しい）</text>
</svg>
