<svg xmlns="http://www.w3.org/2000/svg" viewBox="0 0 340 300">
<title>直径がつくる三角形（∠ABC=32°）</title>
<desc>【この図の意図】例題1の図。直径BC上の△ABC・与件32°のみ記載。【主要な数値・設定】B=180°,C=0°（直径）,A=64°（弧AC=64°）。【AIに同じ種類の図を描かせるときの説明文】「直径がつくる三角形（∠ABC=32°）。例題1の図。直径BC上の△ABC・与件32°のみ記載。数値・設定: B=180°,C=0°（直径）,A=64°（弧AC=64°）。白黒印刷向けのシンプルな教材図（SVG）としてかいて。」——この説明文を生成AIに渡せば同型の図を描かせられる。数値を変えれば類題用の図も作れる。</desc>
<!-- L03_fig2_example_diameter_triangle.svg | 直径がつくる三角形（∠ABC=32°） -->
<!-- generated by assets_provenance/generate_figures.py on 2026-07-17 (docs/SPEC_figures.md準拠（内部規約の要旨は同SPECに反映済み）・SVG直接編集禁止/スクリプト改修で再生成) -->
<rect x="0" y="0" width="340" height="300" fill="#fff"/>
<circle cx="170.0" cy="134.0" r="96.0" fill="none" stroke="#000" stroke-width="1.6"/>
<polygon points="212.1,47.7 74.0,134.0 266.0,134.0" fill="none" stroke="#000" stroke-width="1.6" stroke-linejoin="round"/>
<circle cx="212.1" cy="47.7" r="2.5" fill="#000"/>
<text x="218.7" y="38.8" font-size="13" text-anchor="middle" font-weight="bold">A</text>
<circle cx="74.0" cy="134.0" r="2.5" fill="#000"/>
<text x="59.0" y="138.6" font-size="13" text-anchor="middle" font-weight="bold">B</text>
<circle cx="266.0" cy="134.0" r="2.5" fill="#000"/>
<text x="281.0" y="138.6" font-size="13" text-anchor="middle" font-weight="bold">C</text>
<circle cx="170.0" cy="134.0" r="2.5" fill="#000"/>
<text x="165.6" y="150.8" font-size="13" text-anchor="middle" font-weight="bold">O</text>
<polyline points="85.9,126.6 86.1,126.9 86.3,127.3 86.5,127.6 86.6,128.0 86.8,128.3 86.9,128.7 87.1,129.0 87.2,129.4 87.3,129.8 87.5,130.1 87.6,130.5 87.7,130.9 87.7,131.3 87.8,131.7 87.9,132.1 87.9,132.4 88.0,132.8 88.0,133.2 88.0,133.6 88.0,134.0" fill="none" stroke="#000" stroke-width="1.2"/>
<text x="102.8" y="130.3" font-size="13" text-anchor="middle">32°</text>
<text x="170.0" y="266.0" font-size="12" text-anchor="middle">BCは円Oの直径——∠BACと∠ACBを求める</text>
<text x="170.0" y="284.0" font-size="12" text-anchor="middle">（例題1: 直径を見たら，どこかに隠れている角を疑う）</text>
</svg>
