<svg xmlns="http://www.w3.org/2000/svg" viewBox="0 0 360 330">
<title>三角定規の直角で円の中心を見つける</title>
<desc>【この図の意図】例題2の手順図。90°の円周角→弦は直径→2本の交点=中心。【主要な数値・設定】AB: A=230°,B=50°／A′B′: A′=170°,B′=350°／P=130°,P′=282°。【AIに同じ種類の図を描かせるときの説明文】「三角定規の直角で円の中心を見つける。例題2の手順図。90°の円周角→弦は直径→2本の交点=中心。数値・設定: AB: A=230°,B=50°／A′B′: A′=170°,B′=350°／P=130°,P′=282°。白黒印刷向けのシンプルな教材図（SVG）としてかいて。」——この説明文を生成AIに渡せば同型の図を描かせられる。数値を変えれば類題用の図も作れる。</desc>
<!-- L03_fig3_find_center_right_angle.svg | 三角定規の直角で円の中心を見つける -->
<!-- generated by assets_provenance/generate_figures.py on 2026-07-17 (docs/SPEC_figures.md準拠（内部規約の要旨は同SPECに反映済み）・SVG直接編集禁止/スクリプト改修で再生成) -->
<rect x="0" y="0" width="360" height="330" fill="#fff"/>
<circle cx="180.0" cy="142.0" r="100.0" fill="none" stroke="#000" stroke-width="1.6"/>
<polygon points="115.7,65.4 115.7,129.7 159.4,65.4" fill="none" stroke="#888" stroke-width="1.1" stroke-linejoin="round"/>
<line x1="115.7" y1="65.4" x2="115.7" y2="218.6" stroke="#000" stroke-width="1.6"/>
<line x1="115.7" y1="65.4" x2="244.3" y2="65.4" stroke="#000" stroke-width="1.6"/>
<line x1="115.7" y1="218.6" x2="244.3" y2="65.4" stroke="#000" stroke-width="3.2"/>
<line x1="200.8" y1="239.8" x2="81.5" y2="124.6" stroke="#000" stroke-width="1.1" stroke-dasharray="6 4"/>
<line x1="200.8" y1="239.8" x2="278.5" y2="159.4" stroke="#000" stroke-width="1.1" stroke-dasharray="6 4"/>
<line x1="81.5" y1="124.6" x2="278.5" y2="159.4" stroke="#000" stroke-width="3.2"/>
<polyline points="115.7,73.4 123.7,73.4 123.7,65.4" fill="none" stroke="#000" stroke-width="1.2"/>
<polyline points="195.0,234.3 200.6,228.5 206.3,234.1" fill="none" stroke="#000" stroke-width="1.2"/>
<circle cx="115.7" cy="218.6" r="2.5" fill="#000"/>
<text x="106.1" y="234.6" font-size="13" text-anchor="middle" font-weight="bold">A</text>
<circle cx="244.3" cy="65.4" r="2.5" fill="#000"/>
<text x="253.9" y="58.5" font-size="13" text-anchor="middle" font-weight="bold">B</text>
<circle cx="115.7" cy="65.4" r="2.5" fill="#000"/>
<text x="106.1" y="58.5" font-size="13" text-anchor="middle" font-weight="bold">P</text>
<circle cx="81.5" cy="124.6" r="2.5" fill="#000"/>
<text x="66.7" y="126.6" font-size="13" text-anchor="middle" font-weight="bold">A′</text>
<circle cx="278.5" cy="159.4" r="2.5" fill="#000"/>
<text x="293.3" y="166.5" font-size="13" text-anchor="middle" font-weight="bold">B′</text>
<circle cx="200.8" cy="239.8" r="2.5" fill="#000"/>
<text x="203.9" y="259.0" font-size="13" text-anchor="middle" font-weight="bold">P′</text>
<circle cx="180.0" cy="142.0" r="2.5" fill="#000"/>
<text x="200.0" y="166.0" font-size="13" text-anchor="start" font-weight="bold">中心O</text>
<text x="180.0" y="294.0" font-size="12" text-anchor="middle">直角を円周上に当て，2辺と円周の交点を結ぶ——を2回</text>
<text x="180.0" y="312.0" font-size="12" text-anchor="middle">（2本の線分の交点が中心O。三角定規の輪郭はグレー）</text>
</svg>
