<svg xmlns="http://www.w3.org/2000/svg" viewBox="0 0 360 318">
<title>3本の弦——直径といえるのはどれか</title>
<desc>【この図の意図】練習3の図。90°の円周角の弦だけが中心を通る（中心の印は描かない）。【主要な数値・設定】TU: T=210°,U=30°（対心）,V=120°／PQ: 150°/250°／RS: 300°/20°。【AIに同じ種類の図を描かせるときの説明文】「3本の弦——直径といえるのはどれか。練習3の図。90°の円周角の弦だけが中心を通る（中心の印は描かない）。数値・設定: TU: T=210°,U=30°（対心）,V=120°／PQ: 150°/250°／RS: 300°/20°。白黒印刷向けのシンプルな教材図（SVG）としてかいて。」——この説明文を生成AIに渡せば同型の図を描かせられる。数値を変えれば類題用の図も作れる。</desc>
<!-- L03_fig5_practice_which_diameter.svg | 3本の弦——直径といえるのはどれか -->
<!-- generated by assets_provenance/generate_figures.py on 2026-07-17 (docs/SPEC_figures.md準拠（内部規約の要旨は同SPECに反映済み）・SVG直接編集禁止/スクリプト改修で再生成) -->
<rect x="0" y="0" width="360" height="318" fill="#fff"/>
<circle cx="180.0" cy="138.0" r="100.0" fill="none" stroke="#000" stroke-width="1.6"/>
<line x1="93.4" y1="188.0" x2="266.6" y2="88.0" stroke="#000" stroke-width="1.6"/>
<line x1="93.4" y1="88.0" x2="145.8" y2="232.0" stroke="#000" stroke-width="1.6"/>
<line x1="230.0" y1="224.6" x2="274.0" y2="103.8" stroke="#000" stroke-width="1.6"/>
<line x1="130.0" y1="51.4" x2="93.4" y2="188.0" stroke="#000" stroke-width="1.1" stroke-dasharray="6 4"/>
<line x1="130.0" y1="51.4" x2="266.6" y2="88.0" stroke="#000" stroke-width="1.1" stroke-dasharray="6 4"/>
<polyline points="127.9,59.1 135.7,61.2 137.7,53.5" fill="none" stroke="#000" stroke-width="1.2"/>
<circle cx="93.4" cy="188.0" r="2.5" fill="#000"/>
<text x="82.1" y="199.1" font-size="13" text-anchor="middle" font-weight="bold">T</text>
<circle cx="266.6" cy="88.0" r="2.5" fill="#000"/>
<text x="277.9" y="86.0" font-size="13" text-anchor="middle" font-weight="bold">U</text>
<circle cx="130.0" cy="51.4" r="2.5" fill="#000"/>
<text x="123.5" y="44.7" font-size="13" text-anchor="middle" font-weight="bold">V</text>
<circle cx="93.4" cy="88.0" r="2.5" fill="#000"/>
<text x="82.1" y="86.0" font-size="13" text-anchor="middle" font-weight="bold">P</text>
<circle cx="145.8" cy="232.0" r="2.5" fill="#000"/>
<text x="141.4" y="248.7" font-size="13" text-anchor="middle" font-weight="bold">Q</text>
<circle cx="230.0" cy="224.6" r="2.5" fill="#000"/>
<text x="236.5" y="240.4" font-size="13" text-anchor="middle" font-weight="bold">R</text>
<circle cx="274.0" cy="103.8" r="2.5" fill="#000"/>
<text x="286.2" y="103.9" font-size="13" text-anchor="middle" font-weight="bold">S</text>
<text x="180.0" y="282.0" font-size="12" text-anchor="middle">円周上の点Vから見た∠TVUは直角（印）</text>
<text x="180.0" y="300.0" font-size="12" text-anchor="middle">（弦TU・PQ・RSのうち，この円の直径といえるものはどれ？）</text>
</svg>
