<svg xmlns="http://www.w3.org/2000/svg" viewBox="0 0 560 300">
<title>練習1・2（2パネル統合・直径と三角形）</title>
<desc>【この図の意図】半円の弧に対する円周角の定理を使う基本2題。与件の角のみ記載・答えは？。【主要な数値・設定】P1: ∠CAB=41°（C=82°）／P2: ∠DAB=35°（D=70°・右寄り）。【AIに同じ種類の図を描かせるときの説明文】「練習1・2（2パネル統合・直径と三角形）。半円の弧に対する円周角の定理を使う基本2題。与件の角のみ記載・答えは？。数値・設定: P1: ∠CAB=41°（C=82°）／P2: ∠DAB=35°（D=70°・右寄り）。白黒印刷向けのシンプルな教材図（SVG）としてかいて。」——この説明文を生成AIに渡せば同型の図を描かせられる。数値を変えれば類題用の図も作れる。</desc>
<!-- L03_fig4_practice_1_2.svg | 練習1・2（2パネル統合・直径と三角形） -->
<!-- generated by assets_provenance/generate_figures.py on 2026-07-17 (docs/SPEC_figures.md準拠（内部規約の要旨は同SPECに反映済み）・SVG直接編集禁止/スクリプト改修で再生成) -->
<rect x="0" y="0" width="560" height="300" fill="#fff"/>
<circle cx="140.0" cy="122.0" r="88.0" fill="none" stroke="#000" stroke-width="1.6"/>
<polygon points="52.0,122.0 228.0,122.0 152.2,34.9" fill="none" stroke="#000" stroke-width="1.6" stroke-linejoin="round"/>
<circle cx="52.0" cy="122.0" r="2.5" fill="#000"/>
<text x="39.0" y="126.5" font-size="13" text-anchor="middle" font-weight="bold">A</text>
<circle cx="228.0" cy="122.0" r="2.5" fill="#000"/>
<text x="241.0" y="126.5" font-size="13" text-anchor="middle" font-weight="bold">B</text>
<circle cx="152.2" cy="34.9" r="2.5" fill="#000"/>
<text x="154.1" y="26.5" font-size="13" text-anchor="middle" font-weight="bold">C</text>
<circle cx="140.0" cy="122.0" r="2.5" fill="#000"/>
<text x="135.9" y="137.8" font-size="13" text-anchor="middle" font-weight="bold">O</text>
<polyline points="61.1,114.1 61.3,114.5 61.6,114.8 61.8,115.1 62.1,115.5 62.3,115.9 62.5,116.2 62.7,116.6 62.9,117.0 63.1,117.4 63.2,117.8 63.4,118.2 63.5,118.6 63.6,119.0 63.7,119.4 63.8,119.9 63.9,120.3 63.9,120.7 64.0,121.1 64.0,121.6 64.0,122.0" fill="none" stroke="#000" stroke-width="1.2"/>
<text x="77.3" y="116.7" font-size="12" text-anchor="middle">41°</text>
<text x="150.6" y="63.0" font-size="12" text-anchor="middle">？</text>
<text x="206.2" y="116.2" font-size="12" text-anchor="middle">？</text>
<text x="140.0" y="240.0" font-size="12" text-anchor="middle" font-weight="bold">練習1（ABは直径）</text>
<circle cx="415.0" cy="122.0" r="88.0" fill="none" stroke="#000" stroke-width="1.6"/>
<line x1="327.0" y1="122.0" x2="503.0" y2="122.0" stroke="#000" stroke-width="1.6"/>
<line x1="445.1" y1="39.3" x2="327.0" y2="122.0" stroke="#000" stroke-width="1.6"/>
<line x1="445.1" y1="39.3" x2="503.0" y2="122.0" stroke="#000" stroke-width="1.6"/>
<circle cx="327.0" cy="122.0" r="2.5" fill="#000"/>
<text x="314.0" y="126.5" font-size="13" text-anchor="middle" font-weight="bold">A</text>
<circle cx="503.0" cy="122.0" r="2.5" fill="#000"/>
<text x="516.0" y="126.5" font-size="13" text-anchor="middle" font-weight="bold">B</text>
<circle cx="445.1" cy="39.3" r="2.5" fill="#000"/>
<text x="449.5" y="31.6" font-size="13" text-anchor="middle" font-weight="bold">D</text>
<circle cx="415.0" cy="122.0" r="2.5" fill="#000"/>
<text x="410.9" y="137.8" font-size="13" text-anchor="middle" font-weight="bold">O</text>
<polyline points="336.8,115.1 337.0,115.4 337.2,115.7 337.4,116.0 337.6,116.4 337.8,116.7 337.9,117.0 338.1,117.4 338.2,117.7 338.3,118.0 338.4,118.4 338.5,118.7 338.6,119.1 338.7,119.5 338.8,119.8 338.9,120.2 338.9,120.5 338.9,120.9 339.0,121.3 339.0,121.6 339.0,122.0" fill="none" stroke="#000" stroke-width="1.2"/>
<text x="352.8" y="118.1" font-size="12" text-anchor="middle">35°</text>
<text x="440.9" y="67.1" font-size="12" text-anchor="middle">？</text>
<text x="481.7" y="115.1" font-size="12" text-anchor="middle">？</text>
<text x="415.0" y="240.0" font-size="12" text-anchor="middle" font-weight="bold">練習2（ABは直径）</text>
<text x="280.0" y="270.0" font-size="12" text-anchor="middle">直径がつくる三角形——？の角を求め，内角の和で検算する</text>
</svg>
