<svg xmlns="http://www.w3.org/2000/svg" viewBox="0 0 560 300">
<title>場合分け(1)辺上・(2)外部（2パネル統合）</title>
<desc>【この図の意図】stretchの図。中心の位置3通りのうち残り2つ。数値なし。【主要な数値・設定】(1) P=180°,A=0°,B=60°／(2) A=240°,B=310°（中心角70°）,P=40°。【AIに同じ種類の図を描かせるときの説明文】「場合分け(1)辺上・(2)外部（2パネル統合）。stretchの図。中心の位置3通りのうち残り2つ。数値なし。数値・設定: (1) P=180°,A=0°,B=60°／(2) A=240°,B=310°（中心角70°）,P=40°。白黒印刷向けのシンプルな教材図（SVG）としてかいて。」——この説明文を生成AIに渡せば同型の図を描かせられる。数値を変えれば類題用の図も作れる。</desc>
<!-- L04_fig2_stretch_case_split.svg | 場合分け(1)辺上・(2)外部（2パネル統合） -->
<!-- generated by assets_provenance/generate_figures.py on 2026-07-17 (docs/SPEC_figures.md準拠（内部規約の要旨は同SPECに反映済み）・SVG直接編集禁止/スクリプト改修で再生成) -->
<rect x="0" y="0" width="560" height="300" fill="#fff"/>
<circle cx="140.0" cy="122.0" r="88.0" fill="none" stroke="#000" stroke-width="1.6"/>
<line x1="52.0" y1="122.0" x2="228.0" y2="122.0" stroke="#000" stroke-width="1.6"/>
<line x1="52.0" y1="122.0" x2="184.0" y2="45.8" stroke="#000" stroke-width="1.6"/>
<line x1="140.0" y1="122.0" x2="184.0" y2="45.8" stroke="#000" stroke-width="1.6"/>
<circle cx="52.0" cy="122.0" r="2.5" fill="#000"/>
<text x="39.0" y="126.5" font-size="13" text-anchor="middle" font-weight="bold">P</text>
<circle cx="228.0" cy="122.0" r="2.5" fill="#000"/>
<text x="241.0" y="126.5" font-size="13" text-anchor="middle" font-weight="bold">A</text>
<circle cx="184.0" cy="45.8" r="2.5" fill="#000"/>
<text x="190.5" y="39.1" font-size="13" text-anchor="middle" font-weight="bold">B</text>
<circle cx="140.0" cy="122.0" r="2.5" fill="#000"/>
<text x="135.9" y="137.8" font-size="13" text-anchor="middle" font-weight="bold">O</text>
<text x="140.0" y="240.0" font-size="12" text-anchor="middle" font-weight="bold">(1) PAが直径（Oが辺PA上）</text>
<circle cx="415.0" cy="122.0" r="88.0" fill="none" stroke="#000" stroke-width="1.6"/>
<line x1="415.0" y1="122.0" x2="371.0" y2="198.2" stroke="#000" stroke-width="1.6"/>
<line x1="415.0" y1="122.0" x2="471.6" y2="189.4" stroke="#000" stroke-width="1.6"/>
<line x1="482.4" y1="65.4" x2="371.0" y2="198.2" stroke="#000" stroke-width="1.6"/>
<line x1="482.4" y1="65.4" x2="471.6" y2="189.4" stroke="#000" stroke-width="1.6"/>
<circle cx="482.4" cy="65.4" r="2.5" fill="#000"/>
<text x="492.4" y="61.6" font-size="13" text-anchor="middle" font-weight="bold">P</text>
<circle cx="371.0" cy="198.2" r="2.5" fill="#000"/>
<text x="364.5" y="214.0" font-size="13" text-anchor="middle" font-weight="bold">A</text>
<circle cx="471.6" cy="189.4" r="2.5" fill="#000"/>
<text x="479.9" y="203.9" font-size="13" text-anchor="middle" font-weight="bold">B</text>
<circle cx="415.0" cy="122.0" r="2.5" fill="#000"/>
<text x="403.2" y="121.1" font-size="13" text-anchor="middle" font-weight="bold">O</text>
<text x="415.0" y="240.0" font-size="12" text-anchor="middle" font-weight="bold">(2) Oが∠APBの外部（A・Bが近い）</text>
<text x="280.0" y="270.0" font-size="12" text-anchor="middle">stretch S1: 配置が変わると証明の式の組み立てはどう変わる？</text>
</svg>
