<svg xmlns="http://www.w3.org/2000/svg" viewBox="0 0 360 330">
<title>証明の図（直径PQでa・bに分割）</title>
<desc>【この図の意図】主概念2の証明図。補助線PQは破線・角はa/bの文字のみ。【主要な数値・設定】P=90°,A=220°,B=330°（a=25°・b=30°の位置関係）。【AIに同じ種類の図を描かせるときの説明文】「証明の図（直径PQでa・bに分割）。主概念2の証明図。補助線PQは破線・角はa/bの文字のみ。数値・設定: P=90°,A=220°,B=330°（a=25°・b=30°の位置関係）。白黒印刷向けのシンプルな教材図（SVG）としてかいて。」——この説明文を生成AIに渡せば同型の図を描かせられる。数値を変えれば類題用の図も作れる。</desc>
<!-- L04_fig1_proof_diameter_split.svg | 証明の図（直径PQでa・bに分割） -->
<!-- generated by assets_provenance/generate_figures.py on 2026-07-17 (docs/SPEC_figures.md準拠（内部規約の要旨は同SPECに反映済み）・SVG直接編集禁止/スクリプト改修で再生成) -->
<rect x="0" y="0" width="360" height="330" fill="#fff"/>
<circle cx="180.0" cy="132.0" r="100.0" fill="none" stroke="#000" stroke-width="1.6"/>
<line x1="180.0" y1="32.0" x2="180.0" y2="232.0" stroke="#000" stroke-width="1.1" stroke-dasharray="6 4"/>
<line x1="180.0" y1="132.0" x2="103.4" y2="196.3" stroke="#000" stroke-width="1.6"/>
<line x1="180.0" y1="132.0" x2="266.6" y2="182.0" stroke="#000" stroke-width="1.6"/>
<line x1="180.0" y1="32.0" x2="103.4" y2="196.3" stroke="#000" stroke-width="1.6"/>
<line x1="180.0" y1="32.0" x2="266.6" y2="182.0" stroke="#000" stroke-width="1.6"/>
<circle cx="180.0" cy="32.0" r="2.5" fill="#000"/>
<text x="180.0" y="21.6" font-size="13" text-anchor="middle" font-weight="bold">P</text>
<circle cx="103.4" cy="196.3" r="2.5" fill="#000"/>
<text x="91.9" y="210.5" font-size="13" text-anchor="middle" font-weight="bold">A</text>
<circle cx="266.6" cy="182.0" r="2.5" fill="#000"/>
<text x="279.6" y="194.1" font-size="13" text-anchor="middle" font-weight="bold">B</text>
<circle cx="180.0" cy="232.0" r="2.5" fill="#000"/>
<text x="180.0" y="251.6" font-size="13" text-anchor="middle" font-weight="bold">Q</text>
<circle cx="180.0" cy="132.0" r="2.5" fill="#000"/>
<text x="194.0" y="136.6" font-size="13" text-anchor="middle" font-weight="bold">O</text>
<polyline points="174.1,44.7 174.4,44.8 174.6,44.9 174.9,45.0 175.2,45.2 175.5,45.3 175.8,45.4 176.1,45.4 176.4,45.5 176.7,45.6 177.0,45.7 177.3,45.7 177.6,45.8 177.9,45.8 178.2,45.9 178.5,45.9 178.8,45.9 179.1,46.0 179.4,46.0 179.7,46.0 180.0,46.0" fill="none" stroke="#000" stroke-width="1.2"/>
<polyline points="180.0,46.0 180.4,46.0 180.7,46.0 181.1,46.0 181.5,45.9 181.8,45.9 182.2,45.8 182.6,45.8 182.9,45.7 183.3,45.6 183.6,45.5 184.0,45.4 184.3,45.3 184.7,45.2 185.0,45.1 185.4,44.9 185.7,44.8 186.0,44.6 186.4,44.5 186.7,44.3 187.0,44.1" fill="none" stroke="#000" stroke-width="1.2"/>
<polyline points="180.0,49.5 180.5,49.5 180.9,49.5 181.4,49.4 181.8,49.4 182.3,49.4 182.7,49.3 183.2,49.2 183.6,49.1 184.1,49.0 184.5,48.9 185.0,48.8 185.4,48.6 185.8,48.5 186.3,48.3 186.7,48.2 187.1,48.0 187.5,47.8 187.9,47.6 188.4,47.4 188.8,47.2" fill="none" stroke="#000" stroke-width="1.2"/>
<text x="173.9" y="63.9" font-size="13" text-anchor="middle">a</text>
<text x="187.2" y="63.6" font-size="13" text-anchor="middle">b</text>
<text x="180.0" y="294.0" font-size="12" text-anchor="middle">作戦: Pから中心Oを通る直径PQ（破線）を引き，角をaとbに分ける</text>
<text x="180.0" y="312.0" font-size="12" text-anchor="middle">（OP＝OA＝OB＝半径→二等辺三角形が2つ現れる）</text>
</svg>
