<svg xmlns="http://www.w3.org/2000/svg" viewBox="0 0 360 330">
<title>円周角の定理の逆（同じ側＋等角→円）</title>
<desc>【この図の意図】主概念1の定理図。まだ無い円を破線で出現させる。【主要な数値・設定】A=220°,B=320°,P=90°,Q=143°（すべて50°を張る単位円上）。【AIに同じ種類の図を描かせるときの説明文】「円周角の定理の逆（同じ側＋等角→円）。主概念1の定理図。まだ無い円を破線で出現させる。数値・設定: A=220°,B=320°,P=90°,Q=143°（すべて50°を張る単位円上）。白黒印刷向けのシンプルな教材図（SVG）としてかいて。」——この説明文を生成AIに渡せば同型の図を描かせられる。数値を変えれば類題用の図も作れる。</desc>
<!-- L05_fig1_converse_theorem.svg | 円周角の定理の逆（同じ側＋等角→円） -->
<!-- generated by assets_provenance/generate_figures.py on 2026-07-17 (docs/SPEC_figures.md準拠（内部規約の要旨は同SPECに反映済み）・SVG直接編集禁止/スクリプト改修で再生成) -->
<rect x="0" y="0" width="360" height="330" fill="#fff"/>
<circle cx="180.0" cy="132.0" r="96.0" fill="none" stroke="#000" stroke-width="1.1" stroke-dasharray="6 4"/>
<line x1="62.3" y1="193.7" x2="297.7" y2="193.7" stroke="#000" stroke-width="1.6"/>
<line x1="180.0" y1="36.0" x2="106.5" y2="193.7" stroke="#000" stroke-width="1.6"/>
<line x1="180.0" y1="36.0" x2="253.5" y2="193.7" stroke="#000" stroke-width="1.6"/>
<polyline points="174.1,48.7 174.6,48.9 175.2,49.2 175.8,49.4 176.4,49.5 177.0,49.7 177.6,49.8 178.2,49.9 178.8,49.9 179.4,50.0 180.0,50.0 180.6,50.0 181.2,49.9 181.8,49.9 182.4,49.8 183.0,49.7 183.6,49.5 184.2,49.4 184.8,49.2 185.4,48.9 185.9,48.7" fill="none" stroke="#000" stroke-width="1.2"/>
<line x1="103.3" y1="74.2" x2="106.5" y2="193.7" stroke="#000" stroke-width="1.6"/>
<line x1="103.3" y1="74.2" x2="253.5" y2="193.7" stroke="#000" stroke-width="1.6"/>
<polyline points="103.7,88.2 104.3,88.2 104.9,88.1 105.5,88.1 106.1,87.9 106.7,87.8 107.3,87.6 107.9,87.5 108.5,87.3 109.0,87.0 109.6,86.8 110.1,86.5 110.6,86.2 111.2,85.8 111.7,85.5 112.1,85.1 112.6,84.7 113.1,84.3 113.5,83.9 113.9,83.4 114.3,82.9" fill="none" stroke="#000" stroke-width="1.2"/>
<circle cx="106.5" cy="193.7" r="2.5" fill="#000"/>
<text x="95.0" y="207.9" font-size="13" text-anchor="middle" font-weight="bold">A</text>
<circle cx="253.5" cy="193.7" r="2.5" fill="#000"/>
<text x="265.0" y="207.9" font-size="13" text-anchor="middle" font-weight="bold">B</text>
<circle cx="180.0" cy="36.0" r="2.5" fill="#000"/>
<text x="180.0" y="25.6" font-size="13" text-anchor="middle" font-weight="bold">P</text>
<circle cx="103.3" cy="74.2" r="2.5" fill="#000"/>
<text x="91.4" y="69.7" font-size="13" text-anchor="middle" font-weight="bold">Q</text>
<text x="180.0" y="70.5" font-size="13" text-anchor="middle">50°</text>
<text x="116.7" y="105.6" font-size="13" text-anchor="middle">50°</text>
<text x="180.0" y="294.0" font-size="12" text-anchor="middle">P・Qは直線ABの同じ側で，ABを同じ50°で見ている</text>
<text x="180.0" y="312.0" font-size="12" text-anchor="middle">（→4点A・B・P・Qは一つの円周上にある＝破線の円が出現する）</text>
</svg>
