<svg xmlns="http://www.w3.org/2000/svg" viewBox="0 0 360 330">
<title>一つの円周上にあるか判定する（40°・40°）</title>
<desc>【この図の意図】例題1の図（例題2の設定とも幾何整合）。円は描かない。【主要な数値・設定】円周上の配置(度): A230・B310・C65・D115（弧AB=80°・弧DCの値は答え直結のため非表示）。【AIに同じ種類の図を描かせるときの説明文】「一つの円周上にあるか判定する（40°・40°）。例題1の図（例題2の設定とも幾何整合）。円は描かない。数値・設定: 円周上の配置(度): A230・B310・C65・D115（弧AB=80°・弧DCの値は答え直結のため非表示）。白黒印刷向けのシンプルな教材図（SVG）としてかいて。」——この説明文を生成AIに渡せば同型の図を描かせられる。数値を変えれば類題用の図も作れる。</desc>
<!-- L05_fig3_example_judge_concyclic.svg | 一つの円周上にあるか判定する（40°・40°） -->
<!-- generated by assets_provenance/generate_figures.py on 2026-07-17 (docs/SPEC_figures.md準拠（内部規約の要旨は同SPECに反映済み）・SVG直接編集禁止/スクリプト改修で再生成) -->
<rect x="0" y="0" width="360" height="330" fill="#fff"/>
<line x1="117.0" y1="209.1" x2="243.0" y2="209.1" stroke="#000" stroke-width="1.6"/>
<line x1="243.0" y1="209.1" x2="221.4" y2="45.2" stroke="#000" stroke-width="1.6"/>
<line x1="221.4" y1="45.2" x2="138.6" y2="45.2" stroke="#000" stroke-width="1.6"/>
<line x1="138.6" y1="45.2" x2="117.0" y2="209.1" stroke="#000" stroke-width="1.6"/>
<line x1="117.0" y1="209.1" x2="221.4" y2="45.2" stroke="#000" stroke-width="1.6"/>
<line x1="243.0" y1="209.1" x2="138.6" y2="45.2" stroke="#000" stroke-width="1.6"/>
<circle cx="117.0" cy="209.1" r="2.5" fill="#000"/>
<text x="107.4" y="225.1" font-size="13" text-anchor="middle" font-weight="bold">A</text>
<circle cx="243.0" cy="209.1" r="2.5" fill="#000"/>
<text x="252.6" y="225.1" font-size="13" text-anchor="middle" font-weight="bold">B</text>
<circle cx="221.4" cy="45.2" r="2.5" fill="#000"/>
<text x="227.8" y="36.1" font-size="13" text-anchor="middle" font-weight="bold">C</text>
<circle cx="138.6" cy="45.2" r="2.5" fill="#000"/>
<text x="132.2" y="36.1" font-size="13" text-anchor="middle" font-weight="bold">D</text>
<polyline points="213.9,57.0 214.3,57.2 214.7,57.5 215.2,57.7 215.6,57.9 216.1,58.1 216.5,58.3 217.0,58.5 217.4,58.6 217.9,58.7 218.4,58.8 218.9,58.9 219.3,59.0 219.8,59.1 220.3,59.1 220.8,59.2 221.3,59.2 221.8,59.2 222.3,59.2 222.8,59.1 223.2,59.1" fill="none" stroke="#000" stroke-width="1.2"/>
<polyline points="136.8,59.1 137.2,59.1 137.7,59.2 138.2,59.2 138.7,59.2 139.2,59.2 139.7,59.1 140.2,59.1 140.7,59.0 141.1,58.9 141.6,58.8 142.1,58.7 142.6,58.6 143.0,58.5 143.5,58.3 143.9,58.1 144.4,57.9 144.8,57.7 145.3,57.5 145.7,57.2 146.1,57.0" fill="none" stroke="#000" stroke-width="1.2"/>
<text x="214.1" y="82.9" font-size="13" text-anchor="middle">40°</text>
<text x="145.9" y="82.9" font-size="13" text-anchor="middle">40°</text>
<text x="180.0" y="294.0" font-size="12" text-anchor="middle">∠ACB＝∠ADB。C・Dは直線ABの同じ側にある</text>
<text x="180.0" y="312.0" font-size="12" text-anchor="middle">（例題1: 4点は一つの円周上にあるといえるか。円は描かない）</text>
</svg>
