<svg xmlns="http://www.w3.org/2000/svg" viewBox="0 0 360 330">
<title>判定→等角の収穫（35°・35°・28°）</title>
<desc>【この図の意図】練習2の図。2段コンボ（逆で円→定理(2)で収穫）の判定素材。【主要な数値・設定】A=230°,B=310°,C=20°,D=174°（弧BC=70°・弧AD=56°）。【AIに同じ種類の図を描かせるときの説明文】「判定→等角の収穫（35°・35°・28°）。練習2の図。2段コンボ（逆で円→定理(2)で収穫）の判定素材。数値・設定: A=230°,B=310°,C=20°,D=174°（弧BC=70°・弧AD=56°）。白黒印刷向けのシンプルな教材図（SVG）としてかいて。」——この説明文を生成AIに渡せば同型の図を描かせられる。数値を変えれば類題用の図も作れる。</desc>
<!-- L05_fig5_practice_judge_harvest.svg | 判定→等角の収穫（35°・35°・28°） -->
<!-- generated by assets_provenance/generate_figures.py on 2026-07-17 (docs/SPEC_figures.md準拠（内部規約の要旨は同SPECに反映済み）・SVG直接編集禁止/スクリプト改修で再生成) -->
<rect x="0" y="0" width="360" height="330" fill="#fff"/>
<line x1="117.0" y1="213.1" x2="243.0" y2="213.1" stroke="#000" stroke-width="1.6"/>
<line x1="243.0" y1="213.1" x2="272.1" y2="104.5" stroke="#000" stroke-width="1.6"/>
<line x1="272.1" y1="104.5" x2="82.5" y2="127.8" stroke="#000" stroke-width="1.6"/>
<line x1="82.5" y1="127.8" x2="117.0" y2="213.1" stroke="#000" stroke-width="1.6"/>
<line x1="117.0" y1="213.1" x2="272.1" y2="104.5" stroke="#000" stroke-width="1.6"/>
<line x1="243.0" y1="213.1" x2="82.5" y2="127.8" stroke="#000" stroke-width="1.6"/>
<circle cx="117.0" cy="213.1" r="2.5" fill="#000"/>
<text x="107.4" y="229.1" font-size="13" text-anchor="middle" font-weight="bold">A</text>
<circle cx="243.0" cy="213.1" r="2.5" fill="#000"/>
<text x="252.6" y="229.1" font-size="13" text-anchor="middle" font-weight="bold">B</text>
<circle cx="272.1" cy="104.5" r="2.5" fill="#000"/>
<text x="286.2" y="103.9" font-size="13" text-anchor="middle" font-weight="bold">C</text>
<circle cx="82.5" cy="127.8" r="2.5" fill="#000"/>
<text x="67.6" y="130.7" font-size="13" text-anchor="middle" font-weight="bold">D</text>
<polyline points="131.0,213.1 131.0,212.6 131.0,212.2 130.9,211.8 130.9,211.4 130.8,210.9 130.8,210.5 130.7,210.1 130.6,209.7 130.5,209.3 130.4,208.9 130.2,208.5 130.1,208.1 129.9,207.7 129.7,207.3 129.6,206.9 129.4,206.5 129.2,206.1 128.9,205.8 128.7,205.4 128.5,205.0" fill="none" stroke="#000" stroke-width="1.2"/>
<polyline points="94.9,134.3 95.1,133.9 95.3,133.6 95.4,133.2 95.6,132.8 95.8,132.4 95.9,132.0 96.0,131.6 96.1,131.1 96.2,130.7 96.3,130.3 96.4,129.9 96.4,129.5 96.5,129.0 96.5,128.6 96.5,128.2 96.5,127.8 96.5,127.3 96.5,126.9 96.5,126.5 96.4,126.1" fill="none" stroke="#000" stroke-width="1.2"/>
<polyline points="229.0,213.1 229.0,212.7 229.0,212.4 229.0,212.0 229.1,211.7 229.1,211.4 229.1,211.0 229.2,210.7 229.3,210.4 229.3,210.0 229.4,209.7 229.5,209.4 229.6,209.0 229.7,208.7 229.8,208.4 229.9,208.1 230.0,207.7 230.2,207.4 230.3,207.1 230.5,206.8 230.6,206.5" fill="none" stroke="#000" stroke-width="1.2"/>
<polyline points="225.5,213.1 225.5,212.6 225.5,212.2 225.5,211.8 225.6,211.4 225.6,210.9 225.7,210.5 225.7,210.1 225.8,209.7 225.9,209.3 226.0,208.8 226.1,208.4 226.2,208.0 226.4,207.6 226.5,207.2 226.7,206.8 226.8,206.4 227.0,206.0 227.2,205.6 227.3,205.2 227.5,204.9" fill="none" stroke="#000" stroke-width="1.2"/>
<text x="149.4" y="207.0" font-size="12" text-anchor="middle">35°</text>
<text x="116.0" y="138.2" font-size="12" text-anchor="middle">35°</text>
<text x="202.2" y="207.1" font-size="12" text-anchor="middle">28°</text>
<text x="180.0" y="294.0" font-size="12" text-anchor="middle">∠BAC＝∠BDC（線分BCを見込む2つの角）——円は描かない</text>
<text x="180.0" y="312.0" font-size="12" text-anchor="middle">（練習2: (1)一つの円周上にあるといえる理由 (2)∠ACDを求める）</text>
</svg>
