<svg xmlns="http://www.w3.org/2000/svg" viewBox="0 0 660 296">
<title>練習1（ア）（イ）（ウ）の3パネル</title>
<desc>【この図の意図】逆の条件2つ（同じ側・等角）の判定練習。円は描かない。【主要な数値・設定】(ア)50°/50°同側／(イ)48°/50°同側／(ウ)50°/50°反対側。【AIに同じ種類の図を描かせるときの説明文】「練習1（ア）（イ）（ウ）の3パネル。逆の条件2つ（同じ側・等角）の判定練習。円は描かない。数値・設定: (ア)50°/50°同側／(イ)48°/50°同側／(ウ)50°/50°反対側。白黒印刷向けのシンプルな教材図（SVG）としてかいて。」——この説明文を生成AIに渡せば同型の図を描かせられる。数値を変えれば類題用の図も作れる。</desc>
<!-- L05_fig4_practice_three_cases.svg | 練習1（ア）（イ）（ウ）の3パネル -->
<!-- generated by assets_provenance/generate_figures.py on 2026-07-17 (docs/SPEC_figures.md準拠（内部規約の要旨は同SPECに反映済み）・SVG直接編集禁止/スクリプト改修で再生成) -->
<rect x="0" y="0" width="660" height="296" fill="#fff"/>
<line x1="36.0" y1="157.9" x2="188.0" y2="157.9" stroke="#000" stroke-width="1.6"/>
<line x1="106.6" y1="56.2" x2="64.5" y2="157.9" stroke="#000" stroke-width="1.6"/>
<line x1="106.6" y1="56.2" x2="159.5" y2="157.9" stroke="#000" stroke-width="1.6"/>
<polyline points="102.8,65.5 103.2,65.6 103.6,65.8 104.0,65.9 104.4,66.0 104.9,66.1 105.3,66.2 105.7,66.2 106.2,66.2 106.6,66.2 107.0,66.2 107.5,66.2 107.9,66.2 108.3,66.1 108.8,66.0 109.2,65.9 109.6,65.8 110.0,65.6 110.4,65.5 110.8,65.3 111.2,65.1" fill="none" stroke="#000" stroke-width="1.2"/>
<line x1="61.2" y1="82.4" x2="64.5" y2="157.9" stroke="#000" stroke-width="1.6"/>
<line x1="61.2" y1="82.4" x2="159.5" y2="157.9" stroke="#000" stroke-width="1.6"/>
<polyline points="61.6,92.4 62.1,92.4 62.5,92.4 62.9,92.3 63.4,92.2 63.8,92.1 64.2,92.0 64.6,91.8 65.0,91.7 65.4,91.5 65.8,91.3 66.2,91.1 66.6,90.9 66.9,90.6 67.3,90.4 67.6,90.1 68.0,89.8 68.3,89.5 68.6,89.2 68.9,88.9 69.1,88.5" fill="none" stroke="#000" stroke-width="1.2"/>
<circle cx="64.5" cy="157.9" r="2.5" fill="#000"/>
<text x="60.5" y="173.9" font-size="12" text-anchor="middle" font-weight="bold">A</text>
<circle cx="159.5" cy="157.9" r="2.5" fill="#000"/>
<text x="155.5" y="173.9" font-size="12" text-anchor="middle" font-weight="bold">B</text>
<circle cx="106.6" cy="56.2" r="2.5" fill="#000"/>
<text x="106.6" y="48.2" font-size="12" text-anchor="middle" font-weight="bold">C</text>
<circle cx="61.2" cy="82.4" r="2.5" fill="#000"/>
<text x="61.2" y="74.4" font-size="12" text-anchor="middle" font-weight="bold">D</text>
<text x="107.6" y="83.1" font-size="11" text-anchor="middle">50°</text>
<text x="71.8" y="106.7" font-size="11" text-anchor="middle">50°</text>
<text x="112.0" y="258.0" font-size="12" text-anchor="middle" font-weight="bold">(ア) 同じ側</text>
<line x1="254.0" y1="157.9" x2="406.0" y2="157.9" stroke="#000" stroke-width="1.6"/>
<line x1="351.9" y1="55.0" x2="282.5" y2="157.9" stroke="#000" stroke-width="1.6"/>
<line x1="351.9" y1="55.0" x2="377.5" y2="157.9" stroke="#000" stroke-width="1.6"/>
<polyline points="346.3,63.3 346.6,63.5 347.0,63.8 347.3,64.0 347.7,64.1 348.1,64.3 348.5,64.5 348.9,64.6 349.3,64.7 349.7,64.8 350.1,64.9 350.5,64.9 351.0,65.0 351.4,65.0 351.8,65.0 352.2,65.0 352.6,65.0 353.0,65.0 353.5,64.9 353.9,64.8 354.3,64.7" fill="none" stroke="#000" stroke-width="1.2"/>
<line x1="282.5" y1="78.1" x2="282.5" y2="157.9" stroke="#000" stroke-width="1.6"/>
<line x1="282.5" y1="78.1" x2="377.5" y2="157.9" stroke="#000" stroke-width="1.6"/>
<polyline points="282.5,88.1 282.9,88.1 283.4,88.1 283.8,88.1 284.2,88.0 284.7,87.9 285.1,87.8 285.5,87.7 285.9,87.5 286.3,87.4 286.7,87.2 287.1,87.0 287.5,86.8 287.9,86.6 288.2,86.3 288.6,86.1 288.9,85.8 289.3,85.5 289.6,85.2 289.9,84.9 290.2,84.6" fill="none" stroke="#000" stroke-width="1.2"/>
<circle cx="282.5" cy="157.9" r="2.5" fill="#000"/>
<text x="278.5" y="173.9" font-size="12" text-anchor="middle" font-weight="bold">A</text>
<circle cx="377.5" cy="157.9" r="2.5" fill="#000"/>
<text x="373.5" y="173.9" font-size="12" text-anchor="middle" font-weight="bold">B</text>
<circle cx="351.9" cy="55.0" r="2.5" fill="#000"/>
<text x="351.9" y="47.0" font-size="12" text-anchor="middle" font-weight="bold">C</text>
<circle cx="282.5" cy="78.1" r="2.5" fill="#000"/>
<text x="282.5" y="70.1" font-size="12" text-anchor="middle" font-weight="bold">D</text>
<text x="347.9" y="81.5" font-size="11" text-anchor="middle">48°</text>
<text x="292.2" y="102.8" font-size="11" text-anchor="middle">50°</text>
<text x="330.0" y="258.0" font-size="12" text-anchor="middle" font-weight="bold">(イ) 同じ側・角がちがう</text>
<line x1="472.0" y1="157.9" x2="624.0" y2="157.9" stroke="#000" stroke-width="1.6"/>
<line x1="548.0" y1="56.0" x2="500.5" y2="157.9" stroke="#000" stroke-width="1.6"/>
<line x1="548.0" y1="56.0" x2="595.5" y2="157.9" stroke="#000" stroke-width="1.6"/>
<polyline points="543.8,65.1 544.2,65.2 544.6,65.4 545.0,65.5 545.4,65.7 545.8,65.8 546.3,65.8 546.7,65.9 547.1,66.0 547.6,66.0 548.0,66.0 548.4,66.0 548.9,66.0 549.3,65.9 549.7,65.8 550.2,65.8 550.6,65.7 551.0,65.5 551.4,65.4 551.8,65.2 552.2,65.1" fill="none" stroke="#000" stroke-width="1.2"/>
<line x1="494.3" y1="228.7" x2="500.5" y2="157.9" stroke="#000" stroke-width="1.6"/>
<line x1="494.3" y1="228.7" x2="595.5" y2="157.9" stroke="#000" stroke-width="1.6"/>
<polyline points="495.2,218.7 495.6,218.8 496.0,218.9 496.5,218.9 496.9,219.0 497.3,219.2 497.7,219.3 498.1,219.5 498.5,219.6 498.9,219.8 499.3,220.0 499.7,220.3 500.0,220.5 500.4,220.8 500.7,221.0 501.1,221.3 501.4,221.6 501.7,221.9 502.0,222.3 502.2,222.6 502.5,223.0" fill="none" stroke="#000" stroke-width="1.2"/>
<circle cx="500.5" cy="157.9" r="2.5" fill="#000"/>
<text x="496.5" y="173.9" font-size="12" text-anchor="middle" font-weight="bold">A</text>
<circle cx="595.5" cy="157.9" r="2.5" fill="#000"/>
<text x="591.5" y="173.9" font-size="12" text-anchor="middle" font-weight="bold">B</text>
<circle cx="548.0" cy="56.0" r="2.5" fill="#000"/>
<text x="548.0" y="48.0" font-size="12" text-anchor="middle" font-weight="bold">C</text>
<circle cx="494.3" cy="228.7" r="2.5" fill="#000"/>
<text x="494.3" y="248.7" font-size="12" text-anchor="middle" font-weight="bold">D</text>
<text x="548.0" y="82.8" font-size="11" text-anchor="middle">50°</text>
<text x="505.8" y="212.6" font-size="11" text-anchor="middle">50°</text>
<text x="548.0" y="258.0" font-size="12" text-anchor="middle" font-weight="bold">(ウ) 反対側</text>
<text x="330.0" y="284.0" font-size="12" text-anchor="middle">練習1: それぞれ，4点A・B・C・Dは一つの円周上にあるといえるか</text>
</svg>
