<svg xmlns="http://www.w3.org/2000/svg" viewBox="0 0 360 420">
<title>反例——反対側のQ′は円に乗らない</title>
<desc>【この図の意図】主概念2の反例図。Q′が円の外にあることがはっきり分かる配置。【主要な数値・設定】A=220°,B=320°,P=90°,Q′=Pの直線AB折り返し（|OQ′|≈2.29）。【AIに同じ種類の図を描かせるときの説明文】「反例——反対側のQ′は円に乗らない。主概念2の反例図。Q′が円の外にあることがはっきり分かる配置。数値・設定: A=220°,B=320°,P=90°,Q′=Pの直線AB折り返し（|OQ′|≈2.29）。白黒印刷向けのシンプルな教材図（SVG）としてかいて。」——この説明文を生成AIに渡せば同型の図を描かせられる。数値を変えれば類題用の図も作れる。</desc>
<!-- L05_fig2_counterexample_opposite_side.svg | 反例——反対側のQ′は円に乗らない -->
<!-- generated by assets_provenance/generate_figures.py on 2026-07-17 (docs/SPEC_figures.md準拠（内部規約の要旨は同SPECに反映済み）・SVG直接編集禁止/スクリプト改修で再生成) -->
<rect x="0" y="0" width="360" height="420" fill="#fff"/>
<circle cx="180.0" cy="120.0" r="88.0" fill="none" stroke="#000" stroke-width="1.6"/>
<line x1="65.4" y1="176.6" x2="294.6" y2="176.6" stroke="#000" stroke-width="1.6"/>
<line x1="180.0" y1="32.0" x2="112.6" y2="176.6" stroke="#000" stroke-width="1.6"/>
<line x1="180.0" y1="32.0" x2="247.4" y2="176.6" stroke="#000" stroke-width="1.6"/>
<polyline points="174.1,44.7 174.6,44.9 175.2,45.2 175.8,45.4 176.4,45.5 177.0,45.7 177.6,45.8 178.2,45.9 178.8,45.9 179.4,46.0 180.0,46.0 180.6,46.0 181.2,45.9 181.8,45.9 182.4,45.8 183.0,45.7 183.6,45.5 184.2,45.4 184.8,45.2 185.4,44.9 185.9,44.7" fill="none" stroke="#000" stroke-width="1.2"/>
<line x1="180.0" y1="321.1" x2="112.6" y2="176.6" stroke="#000" stroke-width="1.6"/>
<line x1="180.0" y1="321.1" x2="247.4" y2="176.6" stroke="#000" stroke-width="1.6"/>
<polyline points="174.1,308.4 174.6,308.2 175.2,308.0 175.8,307.8 176.4,307.6 177.0,307.5 177.6,307.3 178.2,307.3 178.8,307.2 179.4,307.1 180.0,307.1 180.6,307.1 181.2,307.2 181.8,307.3 182.4,307.3 183.0,307.5 183.6,307.6 184.2,307.8 184.8,308.0 185.4,308.2 185.9,308.4" fill="none" stroke="#000" stroke-width="1.2"/>
<circle cx="112.6" cy="176.6" r="2.5" fill="#000"/>
<text x="101.1" y="190.8" font-size="13" text-anchor="middle" font-weight="bold">A</text>
<circle cx="247.4" cy="176.6" r="2.5" fill="#000"/>
<text x="258.9" y="190.8" font-size="13" text-anchor="middle" font-weight="bold">B</text>
<circle cx="180.0" cy="32.0" r="2.5" fill="#000"/>
<text x="180.0" y="21.6" font-size="13" text-anchor="middle" font-weight="bold">P</text>
<circle cx="180.0" cy="321.1" r="2.5" fill="#000"/>
<text x="180.0" y="343.1" font-size="13" text-anchor="middle" font-weight="bold">Q′</text>
<text x="180.0" y="66.5" font-size="13" text-anchor="middle">50°</text>
<text x="180.0" y="293.7" font-size="13" text-anchor="middle">50°</text>
<text x="180.0" y="384.0" font-size="12" text-anchor="middle">Q′は直線ABの反対側——同じ50°でも，A・B・Pの円には乗らない</text>
<text x="180.0" y="402.0" font-size="12" text-anchor="middle">（「同じ側」の条件を落とすと定理は壊れる）</text>
</svg>
