<svg xmlns="http://www.w3.org/2000/svg" viewBox="0 0 400 330">
<title>接線の作図の完成図（OP=半径の2.5倍）</title>
<desc>【この図の意図】手順①〜④の完成図。補助円は破線・直角の印のみ（数値なし）。【主要な数値・設定】半径1・OP=2.5・接点A,B=(0.4,±√0.84)（2円の交点の厳密解）。【AIに同じ種類の図を描かせるときの説明文】「接線の作図の完成図（OP=半径の2.5倍）。手順①〜④の完成図。補助円は破線・直角の印のみ（数値なし）。数値・設定: 半径1・OP=2.5・接点A,B=(0.4,±√0.84)（2円の交点の厳密解）。白黒印刷向けのシンプルな教材図（SVG）としてかいて。」——この説明文を生成AIに渡せば同型の図を描かせられる。数値を変えれば類題用の図も作れる。</desc>
<!-- L06_fig2_tangent_construction.svg | 接線の作図の完成図（OP=半径の2.5倍） -->
<!-- generated by assets_provenance/generate_figures.py on 2026-07-17 (docs/SPEC_figures.md準拠（内部規約の要旨は同SPECに反映済み）・SVG直接編集禁止/スクリプト改修で再生成) -->
<rect x="0" y="0" width="400" height="330" fill="#fff"/>
<circle cx="192.0" cy="138.0" r="100.0" fill="none" stroke="#000" stroke-width="1.1" stroke-dasharray="6 4"/>
<circle cx="92.0" cy="138.0" r="80.0" fill="none" stroke="#000" stroke-width="1.6"/>
<line x1="92.0" y1="138.0" x2="292.0" y2="138.0" stroke="#000" stroke-width="1.1"/>
<line x1="92.0" y1="138.0" x2="124.0" y2="64.7" stroke="#000" stroke-width="1.6"/>
<line x1="92.0" y1="138.0" x2="124.0" y2="211.3" stroke="#000" stroke-width="1.6"/>
<line x1="82.0" y1="46.3" x2="292.0" y2="138.0" stroke="#000" stroke-width="1.6"/>
<line x1="82.0" y1="229.7" x2="292.0" y2="138.0" stroke="#000" stroke-width="1.6"/>
<polyline points="120.8,72.0 128.1,75.2 131.3,67.9" fill="none" stroke="#000" stroke-width="1.2"/>
<polyline points="120.8,204.0 128.1,200.8 131.3,208.1" fill="none" stroke="#000" stroke-width="1.2"/>
<circle cx="124.0" cy="64.7" r="2.5" fill="#000"/>
<text x="120.0" y="52.7" font-size="13" text-anchor="middle" font-weight="bold">A</text>
<circle cx="124.0" cy="211.3" r="2.5" fill="#000"/>
<text x="120.0" y="231.3" font-size="13" text-anchor="middle" font-weight="bold">B</text>
<circle cx="292.0" cy="138.0" r="2.5" fill="#000"/>
<text x="308.0" y="142.0" font-size="13" text-anchor="middle" font-weight="bold">P</text>
<circle cx="192.0" cy="138.0" r="2.5" fill="#000"/>
<text x="194.0" y="158.0" font-size="13" text-anchor="middle" font-weight="bold">M</text>
<circle cx="92.0" cy="138.0" r="2.5" fill="#000"/>
<text x="78.8" y="147.3" font-size="13" text-anchor="middle" font-weight="bold">O</text>
<text x="200.0" y="296.0" font-size="12" text-anchor="middle">OPの中点Mを中心に，OPを直径とする円（破線）をかく</text>
<text x="200.0" y="314.0" font-size="12" text-anchor="middle">（円Oとの交点A・Bが接点。直線PA・PBが求める接線）</text>
</svg>
