<svg xmlns="http://www.w3.org/2000/svg" viewBox="0 0 360 330">
<title>弦の交点のまわりの角（40°・48°→x）</title>
<desc>【この図の意図】例題1の図。与件2つとxのみ・解答の値（与件の角の和）は書かない。【主要な数値・設定】A=125°,B=205°,C=320°,D=56°（弧AB=80°・弧DC=96°）。【AIに同じ種類の図を描かせるときの説明文】「弦の交点のまわりの角（40°・48°→x）。例題1の図。与件2つとxのみ・解答の値（与件の角の和）は書かない。数値・設定: A=125°,B=205°,C=320°,D=56°（弧AB=80°・弧DC=96°）。白黒印刷向けのシンプルな教材図（SVG）としてかいて。」——この説明文を生成AIに渡せば同型の図を描かせられる。数値を変えれば類題用の図も作れる。</desc>
<!-- L07_fig1_example_chord_intersection.svg | 弦の交点のまわりの角（40°・48°→x） -->
<!-- generated by assets_provenance/generate_figures.py on 2026-07-17 (docs/SPEC_figures.md準拠（内部規約の要旨は同SPECに反映済み）・SVG直接編集禁止/スクリプト改修で再生成) -->
<rect x="0" y="0" width="360" height="330" fill="#fff"/>
<circle cx="180.0" cy="136.0" r="98.0" fill="none" stroke="#000" stroke-width="1.6"/>
<line x1="123.8" y1="55.7" x2="255.1" y2="199.0" stroke="#000" stroke-width="1.6"/>
<line x1="91.2" y1="177.4" x2="234.8" y2="54.8" stroke="#000" stroke-width="1.6"/>
<line x1="123.8" y1="55.7" x2="234.8" y2="54.8" stroke="#000" stroke-width="1.6"/>
<line x1="91.2" y1="177.4" x2="255.1" y2="199.0" stroke="#000" stroke-width="1.6"/>
<circle cx="123.8" cy="55.7" r="2.5" fill="#000"/>
<text x="115.2" y="48.0" font-size="13" text-anchor="middle" font-weight="bold">A</text>
<circle cx="91.2" cy="177.4" r="2.5" fill="#000"/>
<text x="77.6" y="188.3" font-size="13" text-anchor="middle" font-weight="bold">B</text>
<circle cx="255.1" cy="199.0" r="2.5" fill="#000"/>
<text x="266.6" y="213.2" font-size="13" text-anchor="middle" font-weight="bold">C</text>
<circle cx="234.8" cy="54.8" r="2.5" fill="#000"/>
<text x="243.2" y="46.9" font-size="13" text-anchor="middle" font-weight="bold">D</text>
<circle cx="172.0" cy="108.4" r="2.5" fill="#000"/>
<text x="176.0" y="126.4" font-size="13" text-anchor="middle" font-weight="bold">E</text>
<polyline points="220.8,54.9 220.8,55.4 220.8,55.9 220.9,56.3 221.0,56.8 221.0,57.3 221.1,57.8 221.2,58.3 221.4,58.7 221.5,59.2 221.7,59.7 221.9,60.1 222.1,60.6 222.3,61.0 222.5,61.4 222.7,61.9 223.0,62.3 223.3,62.7 223.5,63.1 223.8,63.5 224.2,63.8" fill="none" stroke="#000" stroke-width="1.2"/>
<polyline points="101.8,168.3 102.2,168.8 102.6,169.2 102.9,169.7 103.2,170.2 103.5,170.7 103.8,171.3 104.0,171.8 104.2,172.3 104.4,172.9 104.6,173.4 104.8,174.0 104.9,174.6 105.0,175.2 105.1,175.7 105.1,176.3 105.2,176.9 105.2,177.5 105.2,178.1 105.1,178.7 105.1,179.2" fill="none" stroke="#000" stroke-width="1.2"/>
<polyline points="104.5,166.1 105.0,166.6 105.4,167.2 105.8,167.8 106.2,168.4 106.6,169.1 106.9,169.7 107.2,170.4 107.5,171.1 107.7,171.7 108.0,172.4 108.2,173.2 108.3,173.9 108.5,174.6 108.6,175.3 108.6,176.0 108.7,176.8 108.7,177.5 108.7,178.2 108.6,179.0 108.5,179.7" fill="none" stroke="#000" stroke-width="1.2"/>
<polyline points="164.6,100.3 164.0,100.9 163.4,101.5 162.9,102.2 162.5,102.9 162.1,103.6 161.8,104.4 161.5,105.2 161.3,106.0 161.1,106.9 161.0,107.7 161.0,108.5 161.1,109.4 161.2,110.2 161.4,111.0 161.6,111.9 161.9,112.6 162.3,113.4 162.7,114.1 163.1,114.8 163.7,115.5" fill="none" stroke="#000" stroke-width="1.2"/>
<text x="206.7" y="69.8" font-size="13" text-anchor="middle">40°</text>
<text x="119.9" y="173.4" font-size="13" text-anchor="middle">48°</text>
<text x="148.1" y="111.5" font-size="13" text-anchor="middle">x</text>
<text x="180.0" y="294.0" font-size="12" text-anchor="middle">弦ACとBDが円の内部の点Eで交わる——∠AEB＝x</text>
<text x="180.0" y="312.0" font-size="12" text-anchor="middle">（例題1: 円周角の定理＋三角形の外角の合わせ技）</text>
</svg>
