<svg xmlns="http://www.w3.org/2000/svg" viewBox="0 0 360 330">
<title>逆→収穫の2段コンボ（52°・52°・31°→x）</title>
<desc>【この図の意図】例題3の図。円なし四角形＋対角線・答えの値は図に置かない（与件の表示回数は機械検査で固定）。【主要な数値・設定】A=230°,B=310°,C=54°,D=168°（弧BC=104°・弧AD=62°）。【AIに同じ種類の図を描かせるときの説明文】「逆→収穫の2段コンボ（52°・52°・31°→x）。例題3の図。円なし四角形＋対角線・答えの値は図に置かない（与件の表示回数は機械検査で固定）。数値・設定: A=230°,B=310°,C=54°,D=168°（弧BC=104°・弧AD=62°）。白黒印刷向けのシンプルな教材図（SVG）としてかいて。」——この説明文を生成AIに渡せば同型の図を描かせられる。数値を変えれば類題用の図も作れる。</desc>
<!-- L07_fig3_example_converse_harvest.svg | 逆→収穫の2段コンボ（52°・52°・31°→x） -->
<!-- generated by assets_provenance/generate_figures.py on 2026-07-17 (docs/SPEC_figures.md準拠（内部規約の要旨は同SPECに反映済み）・SVG直接編集禁止/スクリプト改修で再生成) -->
<rect x="0" y="0" width="360" height="330" fill="#fff"/>
<line x1="117.0" y1="213.1" x2="243.0" y2="213.1" stroke="#000" stroke-width="1.6"/>
<line x1="243.0" y1="213.1" x2="237.6" y2="58.7" stroke="#000" stroke-width="1.6"/>
<line x1="237.6" y1="58.7" x2="84.1" y2="117.6" stroke="#000" stroke-width="1.6"/>
<line x1="84.1" y1="117.6" x2="117.0" y2="213.1" stroke="#000" stroke-width="1.6"/>
<line x1="117.0" y1="213.1" x2="237.6" y2="58.7" stroke="#000" stroke-width="1.6"/>
<line x1="243.0" y1="213.1" x2="84.1" y2="117.6" stroke="#000" stroke-width="1.6"/>
<circle cx="117.0" cy="213.1" r="2.5" fill="#000"/>
<text x="107.4" y="229.1" font-size="13" text-anchor="middle" font-weight="bold">A</text>
<circle cx="243.0" cy="213.1" r="2.5" fill="#000"/>
<text x="252.6" y="229.1" font-size="13" text-anchor="middle" font-weight="bold">B</text>
<circle cx="237.6" cy="58.7" r="2.5" fill="#000"/>
<text x="246.4" y="51.1" font-size="13" text-anchor="middle" font-weight="bold">C</text>
<circle cx="84.1" cy="117.6" r="2.5" fill="#000"/>
<text x="69.5" y="119.1" font-size="13" text-anchor="middle" font-weight="bold">D</text>
<polyline points="131.0,213.1 131.0,212.4 130.9,211.8 130.9,211.2 130.8,210.5 130.6,209.9 130.5,209.3 130.3,208.7 130.1,208.1 129.9,207.5 129.6,206.9 129.3,206.4 129.0,205.8 128.6,205.3 128.3,204.8 127.9,204.3 127.5,203.8 127.0,203.3 126.6,202.9 126.1,202.4 125.6,202.0" fill="none" stroke="#000" stroke-width="1.2"/>
<polyline points="96.1,124.8 96.5,124.3 96.7,123.7 97.0,123.1 97.2,122.6 97.5,122.0 97.6,121.3 97.8,120.7 97.9,120.1 98.0,119.5 98.1,118.8 98.1,118.2 98.1,117.6 98.1,116.9 98.1,116.3 98.0,115.7 97.9,115.0 97.8,114.4 97.6,113.8 97.4,113.2 97.2,112.6" fill="none" stroke="#000" stroke-width="1.2"/>
<polyline points="229.0,69.7 228.7,69.5 228.4,69.3 228.1,69.0 227.8,68.8 227.6,68.5 227.3,68.2 227.1,67.9 226.8,67.6 226.6,67.3 226.3,67.0 226.1,66.7 225.9,66.4 225.7,66.1 225.5,65.8 225.3,65.5 225.2,65.1 225.0,64.8 224.8,64.4 224.7,64.1 224.5,63.7" fill="none" stroke="#000" stroke-width="1.2"/>
<polyline points="226.8,72.5 226.5,72.2 226.1,71.9 225.7,71.6 225.4,71.3 225.1,70.9 224.7,70.6 224.4,70.2 224.1,69.9 223.8,69.5 223.5,69.1 223.3,68.7 223.0,68.3 222.7,68.0 222.5,67.5 222.3,67.1 222.0,66.7 221.8,66.3 221.6,65.9 221.4,65.4 221.3,65.0" fill="none" stroke="#000" stroke-width="1.2"/>
<text x="144.0" y="204.1" font-size="12" text-anchor="middle">52°</text>
<text x="114.0" y="124.4" font-size="12" text-anchor="middle">52°</text>
<text x="211.9" y="82.0" font-size="12" text-anchor="middle">31°</text>
<text x="214.1" y="209.6" font-size="13" text-anchor="middle">x</text>
<text x="180.0" y="294.0" font-size="12" text-anchor="middle">∠BAC＝∠BDC——まず円を出現させ，次に∠ABD＝xを収穫する</text>
<text x="180.0" y="312.0" font-size="12" text-anchor="middle">（例題3: 円は描かれていない。2段コンボの型）</text>
</svg>
