<svg xmlns="http://www.w3.org/2000/svg" viewBox="0 0 560 600">
<title>練習1〜4（2×2の4パネル統合）</title>
<desc>【この図の意図】総合演習の練習4題。答えの角度・途中の中心角は図に置かない。【主要な数値・設定】P1: 弧AB=72°/弧DC=88°／P2: 等弧（作図値は答え直結のため非表示）×2／P3: ∠OAB=28°／P4: 弧AB=130°/弧DC=36°。【AIに同じ種類の図を描かせるときの説明文】「練習1〜4（2×2の4パネル統合）。総合演習の練習4題。答えの角度・途中の中心角は図に置かない。数値・設定: P1: 弧AB=72°/弧DC=88°／P2: 等弧（作図値は答え直結のため非表示）×2／P3: ∠OAB=28°／P4: 弧AB=130°/弧DC=36°。白黒印刷向けのシンプルな教材図（SVG）としてかいて。」——この説明文を生成AIに渡せば同型の図を描かせられる。数値を変えれば類題用の図も作れる。</desc>
<!-- L07_fig4_practice_1_to_4.svg | 練習1〜4（2×2の4パネル統合） -->
<!-- generated by assets_provenance/generate_figures.py on 2026-07-17 (docs/SPEC_figures.md準拠（内部規約の要旨は同SPECに反映済み）・SVG直接編集禁止/スクリプト改修で再生成) -->
<rect x="0" y="0" width="560" height="600" fill="#fff"/>
<circle cx="140.0" cy="128.0" r="88.0" fill="none" stroke="#000" stroke-width="1.6"/>
<line x1="89.5" y1="55.9" x2="207.4" y2="184.6" stroke="#000" stroke-width="1.6"/>
<line x1="55.8" y1="153.7" x2="198.9" y2="62.6" stroke="#000" stroke-width="1.6"/>
<line x1="89.5" y1="55.9" x2="198.9" y2="62.6" stroke="#000" stroke-width="1.6"/>
<line x1="55.8" y1="153.7" x2="207.4" y2="184.6" stroke="#000" stroke-width="1.6"/>
<circle cx="89.5" cy="55.9" r="2.5" fill="#000"/>
<text x="82.1" y="49.8" font-size="13" text-anchor="middle" font-weight="bold">A</text>
<circle cx="55.8" cy="153.7" r="2.5" fill="#000"/>
<text x="43.4" y="162.1" font-size="13" text-anchor="middle" font-weight="bold">B</text>
<circle cx="207.4" cy="184.6" r="2.5" fill="#000"/>
<text x="217.4" y="197.5" font-size="13" text-anchor="middle" font-weight="bold">C</text>
<circle cx="198.9" cy="62.6" r="2.5" fill="#000"/>
<text x="207.6" y="57.5" font-size="13" text-anchor="middle" font-weight="bold">D</text>
<circle cx="133.7" cy="104.1" r="2.5" fill="#000"/>
<text x="137.7" y="121.1" font-size="12" text-anchor="middle" font-weight="bold">E</text>
<polyline points="186.9,61.9 186.9,62.2 186.9,62.6 186.9,63.0 186.9,63.4 186.9,63.8 187.0,64.1 187.0,64.5 187.1,64.9 187.2,65.2 187.3,65.6 187.4,66.0 187.5,66.3 187.6,66.7 187.7,67.0 187.9,67.4 188.0,67.7 188.2,68.1 188.4,68.4 188.6,68.7 188.8,69.1" fill="none" stroke="#000" stroke-width="1.2"/>
<polyline points="66.0,147.3 66.2,147.7 66.4,148.1 66.6,148.5 66.8,148.9 67.0,149.3 67.2,149.8 67.3,150.2 67.4,150.6 67.6,151.1 67.6,151.5 67.7,152.0 67.8,152.5 67.8,152.9 67.8,153.4 67.8,153.8 67.8,154.3 67.8,154.8 67.8,155.2 67.7,155.7 67.6,156.1" fill="none" stroke="#000" stroke-width="1.2"/>
<polyline points="68.9,145.4 69.2,145.9 69.5,146.4 69.8,147.0 70.0,147.5 70.3,148.0 70.5,148.6 70.7,149.2 70.8,149.7 71.0,150.3 71.1,150.9 71.2,151.5 71.3,152.1 71.3,152.7 71.3,153.3 71.3,153.9 71.3,154.5 71.3,155.1 71.2,155.6 71.1,156.2 71.0,156.8" fill="none" stroke="#000" stroke-width="1.2"/>
<text x="172.7" y="73.6" font-size="12" text-anchor="middle">36°</text>
<text x="82.4" y="153.0" font-size="12" text-anchor="middle">44°</text>
<text x="112.9" y="105.6" font-size="12" text-anchor="middle">x</text>
<text x="140.0" y="254.0" font-size="12" text-anchor="middle" font-weight="bold">練習1</text>
<polyline points="415.0,216.0 421.1,215.8 427.2,215.1 433.3,214.1 439.3,212.6 445.1,210.7 450.8,208.4 456.3,205.7 461.6,202.6 466.7,199.2 471.6,195.4 476.1,191.3 480.4,186.9" fill="none" stroke="#c9c9c9" stroke-width="6" stroke-linecap="round"/>
<polyline points="480.4,186.9 484.3,182.2 488.0,177.2 491.2,172.0 494.1,166.6 496.6,161.0 498.7,155.2 500.4,149.3 501.7,143.3 502.5,137.2 502.9,131.1 502.9,124.9 502.5,118.8" fill="none" stroke="#c9c9c9" stroke-width="6" stroke-linecap="round"/>
<circle cx="415.0" cy="128.0" r="88.0" fill="none" stroke="#000" stroke-width="1.6"/>
<line x1="371.0" y1="51.8" x2="415.0" y2="216.0" stroke="#000" stroke-width="1.6"/>
<line x1="371.0" y1="51.8" x2="480.4" y2="186.9" stroke="#000" stroke-width="1.6"/>
<line x1="371.0" y1="51.8" x2="502.5" y2="118.8" stroke="#000" stroke-width="1.6"/>
<line x1="448.4" y1="202.9" x2="453.2" y2="213.9" stroke="#000" stroke-width="1.4"/>
<line x1="493.0" y1="153.3" x2="504.4" y2="157.0" stroke="#000" stroke-width="1.4"/>
<circle cx="371.0" cy="51.8" r="2.5" fill="#000"/>
<text x="364.5" y="45.1" font-size="13" text-anchor="middle" font-weight="bold">A</text>
<circle cx="415.0" cy="216.0" r="2.5" fill="#000"/>
<text x="415.0" y="233.6" font-size="13" text-anchor="middle" font-weight="bold">B</text>
<circle cx="480.4" cy="186.9" r="2.5" fill="#000"/>
<text x="490.1" y="200.1" font-size="13" text-anchor="middle" font-weight="bold">C</text>
<circle cx="502.5" cy="118.8" r="2.5" fill="#000"/>
<text x="515.4" y="122.0" font-size="13" text-anchor="middle" font-weight="bold">D</text>
<circle cx="415.0" cy="128.0" r="2.5" fill="#000"/>
<text x="415.0" y="120.5" font-size="13" text-anchor="middle" font-weight="bold">O</text>
<polyline points="374.1,63.4 374.3,63.3 374.6,63.2 374.8,63.2 375.1,63.1 375.3,63.0 375.5,62.9 375.8,62.8 376.0,62.7 376.2,62.6 376.4,62.5 376.7,62.4 376.9,62.2 377.1,62.1 377.3,62.0 377.5,61.9 377.7,61.7 378.0,61.6 378.2,61.4 378.4,61.3 378.6,61.1" fill="none" stroke="#000" stroke-width="1.2"/>
<polyline points="375.9,70.1 376.7,69.9 377.4,69.7 378.2,69.4 378.9,69.1 379.6,68.7 380.3,68.3 381.0,67.9 381.7,67.5 382.3,67.0 383.0,66.6 383.6,66.0 384.2,65.5 384.7,64.9 385.3,64.4 385.8,63.7 386.3,63.1 386.7,62.5 387.1,61.8 387.6,61.1 387.9,60.4" fill="none" stroke="#000" stroke-width="1.2"/>
<text x="391.9" y="97.0" font-size="12" text-anchor="middle">24°</text>
<text x="406.2" y="99.5" font-size="12" text-anchor="middle">x</text>
<text x="415.0" y="254.0" font-size="12" text-anchor="middle" font-weight="bold">練習2（弧BC＝弧CD）</text>
<polyline points="62.3,461.3 65.4,466.6 68.8,471.7 72.6,476.6 76.7,481.1 81.1,485.4 85.8,489.3 90.8,493.0 96.0,496.2 101.4,499.1 107.0,501.6 112.8,503.7 118.7,505.4 124.7,506.7 130.8,507.5 136.9,507.9 143.1,507.9 149.2,507.5 155.3,506.7 161.3,505.4 167.2,503.7 173.0,501.6 178.6,499.1 184.0,496.2 189.2,493.0 194.2,489.3 198.9,485.4 203.3,481.1 207.4,476.6 211.2,471.7 214.6,466.6 217.7,461.3" fill="none" stroke="#c9c9c9" stroke-width="6" stroke-linecap="round"/>
<circle cx="140.0" cy="420.0" r="88.0" fill="none" stroke="#000" stroke-width="1.6"/>
<line x1="140.0" y1="420.0" x2="62.3" y2="461.3" stroke="#000" stroke-width="1.6"/>
<line x1="140.0" y1="420.0" x2="217.7" y2="461.3" stroke="#000" stroke-width="1.6"/>
<line x1="140.0" y1="332.0" x2="62.3" y2="461.3" stroke="#000" stroke-width="1.6"/>
<line x1="140.0" y1="332.0" x2="217.7" y2="461.3" stroke="#000" stroke-width="1.6"/>
<circle cx="62.3" cy="461.3" r="2.5" fill="#000"/>
<text x="50.8" y="472.0" font-size="13" text-anchor="middle" font-weight="bold">A</text>
<circle cx="217.7" cy="461.3" r="2.5" fill="#000"/>
<text x="229.2" y="472.0" font-size="13" text-anchor="middle" font-weight="bold">B</text>
<circle cx="140.0" cy="332.0" r="2.5" fill="#000"/>
<text x="140.0" y="323.6" font-size="13" text-anchor="middle" font-weight="bold">C</text>
<circle cx="140.0" cy="420.0" r="2.5" fill="#000"/>
<text x="149.2" y="415.4" font-size="13" text-anchor="middle" font-weight="bold">O</text>
<polyline points="72.9,455.7 73.0,455.9 73.2,456.2 73.3,456.5 73.4,456.7 73.5,457.0 73.6,457.3 73.7,457.6 73.8,457.8 73.9,458.1 73.9,458.4 74.0,458.7 74.1,459.0 74.1,459.3 74.2,459.6 74.2,459.9 74.2,460.1 74.3,460.4 74.3,460.7 74.3,461.0 74.3,461.3" fill="none" stroke="#000" stroke-width="1.2"/>
<polyline points="133.8,342.3 134.4,342.6 135.0,342.9 135.6,343.1 136.2,343.4 136.8,343.6 137.4,343.7 138.1,343.8 138.7,343.9 139.4,344.0 140.0,344.0 140.6,344.0 141.3,343.9 141.9,343.8 142.6,343.7 143.2,343.6 143.8,343.4 144.4,343.1 145.0,342.9 145.6,342.6 146.2,342.3" fill="none" stroke="#000" stroke-width="1.2"/>
<text x="101.1" y="455.8" font-size="12" text-anchor="middle">28°</text>
<text x="140.0" y="360.2" font-size="12" text-anchor="middle">x</text>
<text x="140.0" y="546.0" font-size="12" text-anchor="middle" font-weight="bold">練習3（OA＝OB）</text>
<line x1="335.2" y1="457.2" x2="494.8" y2="457.2" stroke="#000" stroke-width="1.6"/>
<line x1="494.8" y1="457.2" x2="456.3" y2="342.3" stroke="#000" stroke-width="1.6"/>
<line x1="456.3" y1="342.3" x2="402.8" y2="332.9" stroke="#000" stroke-width="1.6"/>
<line x1="402.8" y1="332.9" x2="335.2" y2="457.2" stroke="#000" stroke-width="1.6"/>
<line x1="335.2" y1="457.2" x2="456.3" y2="342.3" stroke="#000" stroke-width="1.6"/>
<line x1="494.8" y1="457.2" x2="402.8" y2="332.9" stroke="#000" stroke-width="1.6"/>
<circle cx="335.2" cy="457.2" r="2.5" fill="#000"/>
<text x="323.5" y="467.2" font-size="13" text-anchor="middle" font-weight="bold">A</text>
<circle cx="494.8" cy="457.2" r="2.5" fill="#000"/>
<text x="506.5" y="467.2" font-size="13" text-anchor="middle" font-weight="bold">B</text>
<circle cx="456.3" cy="342.3" r="2.5" fill="#000"/>
<text x="462.4" y="335.4" font-size="13" text-anchor="middle" font-weight="bold">C</text>
<circle cx="402.8" cy="332.9" r="2.5" fill="#000"/>
<text x="400.9" y="324.5" font-size="13" text-anchor="middle" font-weight="bold">D</text>
<polyline points="447.6,350.6 448.1,351.0 448.6,351.5 449.1,351.9 449.7,352.3 450.3,352.7 450.9,353.0 451.5,353.3 452.1,353.5 452.8,353.8 453.4,353.9 454.1,354.1 454.7,354.2 455.4,354.3 456.1,354.3 456.8,354.3 457.5,354.2 458.1,354.2 458.8,354.0 459.5,353.9 460.1,353.7" fill="none" stroke="#000" stroke-width="1.2"/>
<polyline points="397.0,343.4 397.6,343.7 398.3,344.0 398.9,344.2 399.5,344.4 400.2,344.6 400.9,344.7 401.6,344.8 402.2,344.8 402.9,344.9 403.6,344.8 404.3,344.8 404.9,344.7 405.6,344.5 406.3,344.3 406.9,344.1 407.5,343.9 408.2,343.6 408.8,343.2 409.3,342.9 409.9,342.5" fill="none" stroke="#000" stroke-width="1.2"/>
<polyline points="341.0,446.6 341.1,446.7 341.3,446.8 341.5,446.9 341.6,447.0 341.8,447.1 341.9,447.2 342.1,447.3 342.2,447.4 342.4,447.6 342.6,447.7 342.7,447.8 342.8,447.9 343.0,448.0 343.1,448.1 343.3,448.3 343.4,448.4 343.6,448.5 343.7,448.7 343.8,448.8 343.9,448.9" fill="none" stroke="#000" stroke-width="1.2"/>
<polyline points="342.6,443.6 342.9,443.7 343.1,443.8 343.3,443.9 343.5,444.1 343.7,444.2 343.9,444.3 344.1,444.5 344.3,444.6 344.5,444.7 344.7,444.9 344.9,445.0 345.1,445.2 345.2,445.4 345.4,445.5 345.6,445.7 345.8,445.8 346.0,446.0 346.1,446.2 346.3,446.3 346.5,446.5" fill="none" stroke="#000" stroke-width="1.2"/>
<text x="449.1" y="375.6" font-size="12" text-anchor="middle">65°</text>
<text x="404.8" y="367.0" font-size="12" text-anchor="middle">65°</text>
<text x="362.0" y="426.5" font-size="12" text-anchor="middle">18°</text>
<text x="476.3" y="425.9" font-size="12" text-anchor="middle">x</text>
<text x="415.0" y="546.0" font-size="12" text-anchor="middle" font-weight="bold">練習4（円は描かれていない）</text>
<text x="280.0" y="578.0" font-size="12" text-anchor="middle">練習1〜4: どの道具（定理(1)(2)・外角・等しい弧・逆）が使える形かを読み取る</text>
</svg>
