<svg xmlns="http://www.w3.org/2000/svg" viewBox="0 0 360 330">
<title>等しい弧に等しい円周角（27°→x）</title>
<desc>【この図の意図】例題2の図。等弧マーク（弧を横切る短線）で弧BC=弧CDを表示。【主要な数値・設定】A=120°,B=270°,C=324°,D=18°（弧BC=弧CD=54°）。【AIに同じ種類の図を描かせるときの説明文】「等しい弧に等しい円周角（27°→x）。例題2の図。等弧マーク（弧を横切る短線）で弧BC=弧CDを表示。数値・設定: A=120°,B=270°,C=324°,D=18°（弧BC=弧CD=54°）。白黒印刷向けのシンプルな教材図（SVG）としてかいて。」——この説明文を生成AIに渡せば同型の図を描かせられる。数値を変えれば類題用の図も作れる。</desc>
<!-- L07_fig2_example_equal_arcs.svg | 等しい弧に等しい円周角（27°→x） -->
<!-- generated by assets_provenance/generate_figures.py on 2026-07-17 (docs/SPEC_figures.md準拠（内部規約の要旨は同SPECに反映済み）・SVG直接編集禁止/スクリプト改修で再生成) -->
<rect x="0" y="0" width="360" height="330" fill="#fff"/>
<polyline points="180.0,234.0 187.1,233.7 194.2,233.0 201.1,231.7 208.0,229.9 214.8,227.6 221.3,224.9 227.6,221.6 233.7,218.0 239.5,213.9 245.0,209.4 250.1,204.5 254.9,199.2 259.3,193.6" fill="none" stroke="#c9c9c9" stroke-width="6" stroke-linecap="round"/>
<polyline points="259.3,193.6 263.2,187.7 266.8,181.5 269.8,175.1 272.4,168.5 274.6,161.7 276.2,154.8 277.3,147.8 277.9,140.7 278.0,133.6 277.5,126.5 276.6,119.5 275.2,112.5 273.2,105.7" fill="none" stroke="#c9c9c9" stroke-width="6" stroke-linecap="round"/>
<circle cx="180.0" cy="136.0" r="98.0" fill="none" stroke="#000" stroke-width="1.6"/>
<line x1="131.0" y1="51.1" x2="180.0" y2="234.0" stroke="#000" stroke-width="1.6"/>
<line x1="131.0" y1="51.1" x2="259.3" y2="193.6" stroke="#000" stroke-width="1.6"/>
<line x1="131.0" y1="51.1" x2="273.2" y2="105.7" stroke="#000" stroke-width="1.6"/>
<line x1="221.8" y1="218.0" x2="227.2" y2="228.7" stroke="#000" stroke-width="1.4"/>
<line x1="270.9" y1="150.4" x2="282.7" y2="152.3" stroke="#000" stroke-width="1.4"/>
<circle cx="131.0" cy="51.1" r="2.5" fill="#000"/>
<text x="123.5" y="42.7" font-size="13" text-anchor="middle" font-weight="bold">A</text>
<circle cx="180.0" cy="234.0" r="2.5" fill="#000"/>
<text x="180.0" y="253.6" font-size="13" text-anchor="middle" font-weight="bold">B</text>
<circle cx="259.3" cy="193.6" r="2.5" fill="#000"/>
<text x="271.4" y="207.0" font-size="13" text-anchor="middle" font-weight="bold">C</text>
<circle cx="273.2" cy="105.7" r="2.5" fill="#000"/>
<text x="287.5" y="105.6" font-size="13" text-anchor="middle" font-weight="bold">D</text>
<circle cx="180.0" cy="136.0" r="2.5" fill="#000"/>
<text x="180.0" y="127.5" font-size="13" text-anchor="middle" font-weight="bold">O</text>
<polyline points="134.4,63.7 134.7,63.6 135.0,63.5 135.2,63.4 135.5,63.3 135.8,63.2 136.1,63.1 136.4,63.0 136.7,62.8 136.9,62.7 137.2,62.6 137.5,62.4 137.7,62.2 138.0,62.1 138.3,61.9 138.5,61.7 138.8,61.6 139.0,61.4 139.2,61.2 139.5,61.0 139.7,60.8" fill="none" stroke="#000" stroke-width="1.2"/>
<polyline points="143.0,64.5 143.4,64.2 143.7,63.9 144.0,63.6 144.2,63.3 144.5,63.0 144.8,62.7 145.1,62.3 145.3,62.0 145.6,61.7 145.8,61.3 146.1,61.0 146.3,60.6 146.5,60.3 146.7,59.9 146.9,59.5 147.1,59.1 147.3,58.8 147.5,58.4 147.6,58.0 147.8,57.6" fill="none" stroke="#000" stroke-width="1.2"/>
<text x="156.8" y="103.1" font-size="13" text-anchor="middle">27°</text>
<text x="196.9" y="101.0" font-size="13" text-anchor="middle">x</text>
<text x="180.0" y="294.0" font-size="12" text-anchor="middle">弧BCと弧CDの長さが等しい（同じ印）——∠CAD＝x</text>
<text x="180.0" y="312.0" font-size="12" text-anchor="middle">（例題2: 等しい弧→等しい中心角→円周角も等しい）</text>
</svg>
