<svg xmlns="http://www.w3.org/2000/svg" viewBox="0 0 360 318">
<title>直径×相似の融合証明図（記号のみ）</title>
<desc>【この図の意図】stretchの図。弧AC=50°/CD=40°/DB=90°の本文指定配置・数値なし。【主要な数値・設定】A=180°,B=0°,C=130°,D=90°。【AIに同じ種類の図を描かせるときの説明文】「直径×相似の融合証明図（記号のみ）。stretchの図。弧AC=50°/CD=40°/DB=90°の本文指定配置・数値なし。数値・設定: A=180°,B=0°,C=130°,D=90°。白黒印刷向けのシンプルな教材図（SVG）としてかいて。」——この説明文を生成AIに渡せば同型の図を描かせられる。数値を変えれば類題用の図も作れる。</desc>
<!-- L08_fig4_stretch_diameter_similar.svg | 直径×相似の融合証明図（記号のみ） -->
<!-- generated by assets_provenance/generate_figures.py on 2026-07-17 (docs/SPEC_figures.md準拠（内部規約の要旨は同SPECに反映済み）・SVG直接編集禁止/スクリプト改修で再生成) -->
<rect x="0" y="0" width="360" height="318" fill="#fff"/>
<circle cx="180.0" cy="136.0" r="98.0" fill="none" stroke="#000" stroke-width="1.6"/>
<line x1="82.0" y1="136.0" x2="278.0" y2="136.0" stroke="#000" stroke-width="1.6"/>
<line x1="82.0" y1="136.0" x2="117.0" y2="60.9" stroke="#000" stroke-width="1.6"/>
<line x1="82.0" y1="136.0" x2="180.0" y2="38.0" stroke="#000" stroke-width="1.6"/>
<line x1="278.0" y1="136.0" x2="117.0" y2="60.9" stroke="#000" stroke-width="1.6"/>
<line x1="278.0" y1="136.0" x2="180.0" y2="38.0" stroke="#000" stroke-width="1.6"/>
<circle cx="82.0" cy="136.0" r="2.5" fill="#000"/>
<text x="67.0" y="140.6" font-size="13" text-anchor="middle" font-weight="bold">A</text>
<circle cx="278.0" cy="136.0" r="2.5" fill="#000"/>
<text x="293.0" y="140.6" font-size="13" text-anchor="middle" font-weight="bold">B</text>
<circle cx="117.0" cy="60.9" r="2.5" fill="#000"/>
<text x="107.4" y="54.0" font-size="13" text-anchor="middle" font-weight="bold">C</text>
<circle cx="180.0" cy="38.0" r="2.5" fill="#000"/>
<text x="180.0" y="27.6" font-size="13" text-anchor="middle" font-weight="bold">D</text>
<circle cx="180.0" cy="136.0" r="2.5" fill="#000"/>
<text x="175.6" y="152.8" font-size="13" text-anchor="middle" font-weight="bold">O</text>
<circle cx="144.3" cy="73.7" r="2.5" fill="#000"/>
<text x="156.3" y="85.7" font-size="13" text-anchor="middle" font-weight="bold">E</text>
<text x="180.0" y="282.0" font-size="12" text-anchor="middle">ABは円Oの直径。弦ADとBCが円の内部の点Eで交わる</text>
<text x="180.0" y="300.0" font-size="12" text-anchor="middle">（stretch: △EAC∽△EBDを証明する——直径が供給する角を探す）</text>
</svg>
