<svg xmlns="http://www.w3.org/2000/svg" viewBox="0 0 560 330">
<title>練習5・6（2パネル統合）</title>
<desc>【この図の意図】章末混合練習の応用2題。答えの角度は図に置かない。【主要な数値・設定】P5: 弧AB=84°/弧DC=78°／P6: 弧AB=116°/弧DC=42°。【AIに同じ種類の図を描かせるときの説明文】「練習5・6（2パネル統合）。章末混合練習の応用2題。答えの角度は図に置かない。数値・設定: P5: 弧AB=84°/弧DC=78°／P6: 弧AB=116°/弧DC=42°。白黒印刷向けのシンプルな教材図（SVG）としてかいて。」——この説明文を生成AIに渡せば同型の図を描かせられる。数値を変えれば類題用の図も作れる。</desc>
<!-- L08_fig3_practice_5_6.svg | 練習5・6（2パネル統合） -->
<!-- generated by assets_provenance/generate_figures.py on 2026-07-17 (docs/SPEC_figures.md準拠（内部規約の要旨は同SPECに反映済み）・SVG直接編集禁止/スクリプト改修で再生成) -->
<rect x="0" y="0" width="560" height="330" fill="#fff"/>
<circle cx="140.0" cy="128.0" r="88.0" fill="none" stroke="#000" stroke-width="1.6"/>
<line x1="89.5" y1="55.9" x2="207.4" y2="184.6" stroke="#000" stroke-width="1.6"/>
<line x1="63.0" y1="170.7" x2="209.3" y2="73.8" stroke="#000" stroke-width="1.6"/>
<line x1="89.5" y1="55.9" x2="209.3" y2="73.8" stroke="#000" stroke-width="1.6"/>
<line x1="63.0" y1="170.7" x2="207.4" y2="184.6" stroke="#000" stroke-width="1.6"/>
<circle cx="89.5" cy="55.9" r="2.5" fill="#000"/>
<text x="82.1" y="49.8" font-size="13" text-anchor="middle" font-weight="bold">A</text>
<circle cx="63.0" cy="170.7" r="2.5" fill="#000"/>
<text x="51.7" y="181.5" font-size="13" text-anchor="middle" font-weight="bold">B</text>
<circle cx="207.4" cy="184.6" r="2.5" fill="#000"/>
<text x="217.4" y="197.5" font-size="13" text-anchor="middle" font-weight="bold">C</text>
<circle cx="209.3" cy="73.8" r="2.5" fill="#000"/>
<text x="219.6" y="70.4" font-size="13" text-anchor="middle" font-weight="bold">D</text>
<circle cx="145.0" cy="116.4" r="2.5" fill="#000"/>
<text x="149.0" y="133.4" font-size="12" text-anchor="middle" font-weight="bold">E</text>
<polyline points="197.5,72.0 197.4,72.5 197.4,72.9 197.4,73.4 197.3,73.8 197.4,74.2 197.4,74.7 197.4,75.1 197.5,75.6 197.5,76.0 197.6,76.4 197.7,76.8 197.9,77.3 198.0,77.7 198.1,78.1 198.3,78.5 198.5,78.9 198.7,79.3 198.9,79.7 199.1,80.1 199.3,80.4" fill="none" stroke="#000" stroke-width="1.2"/>
<polyline points="73.0,164.0 73.3,164.4 73.5,164.7 73.7,165.1 73.8,165.5 74.0,165.8 74.2,166.2 74.3,166.6 74.5,167.0 74.6,167.4 74.7,167.8 74.8,168.2 74.8,168.6 74.9,169.0 75.0,169.4 75.0,169.8 75.0,170.2 75.0,170.6 75.0,171.0 75.0,171.4 75.0,171.8" fill="none" stroke="#000" stroke-width="1.2"/>
<polyline points="76.0,162.1 76.2,162.6 76.5,163.0 76.8,163.5 77.0,163.9 77.2,164.4 77.4,164.9 77.6,165.4 77.8,165.9 77.9,166.4 78.1,166.9 78.2,167.4 78.3,167.9 78.4,168.5 78.4,169.0 78.5,169.5 78.5,170.0 78.5,170.6 78.5,171.1 78.5,171.6 78.5,172.1" fill="none" stroke="#000" stroke-width="1.2"/>
<text x="183.0" y="83.9" font-size="12" text-anchor="middle">42°</text>
<text x="89.2" y="168.3" font-size="12" text-anchor="middle">39°</text>
<text x="124.1" y="118.1" font-size="12" text-anchor="middle">x</text>
<text x="140.0" y="258.0" font-size="12" text-anchor="middle" font-weight="bold">練習5</text>
<line x1="340.4" y1="174.6" x2="489.6" y2="174.6" stroke="#000" stroke-width="1.6"/>
<line x1="489.6" y1="174.6" x2="459.0" y2="51.8" stroke="#000" stroke-width="1.6"/>
<line x1="459.0" y1="51.8" x2="396.7" y2="41.9" stroke="#000" stroke-width="1.6"/>
<line x1="396.7" y1="41.9" x2="340.4" y2="174.6" stroke="#000" stroke-width="1.6"/>
<line x1="340.4" y1="174.6" x2="459.0" y2="51.8" stroke="#000" stroke-width="1.6"/>
<line x1="489.6" y1="174.6" x2="396.7" y2="41.9" stroke="#000" stroke-width="1.6"/>
<circle cx="340.4" cy="174.6" r="2.5" fill="#000"/>
<text x="329.3" y="186.1" font-size="13" text-anchor="middle" font-weight="bold">A</text>
<circle cx="489.6" cy="174.6" r="2.5" fill="#000"/>
<text x="500.7" y="186.1" font-size="13" text-anchor="middle" font-weight="bold">B</text>
<circle cx="459.0" cy="51.8" r="2.5" fill="#000"/>
<text x="465.5" y="45.1" font-size="13" text-anchor="middle" font-weight="bold">C</text>
<circle cx="396.7" cy="41.9" r="2.5" fill="#000"/>
<text x="394.0" y="33.8" font-size="13" text-anchor="middle" font-weight="bold">D</text>
<polyline points="450.7,60.4 451.1,60.8 451.6,61.2 452.1,61.6 452.6,61.9 453.1,62.2 453.6,62.5 454.2,62.8 454.7,63.0 455.3,63.2 455.9,63.4 456.5,63.5 457.1,63.6 457.7,63.7 458.3,63.8 458.9,63.8 459.5,63.8 460.1,63.7 460.7,63.7 461.3,63.6 461.9,63.4" fill="none" stroke="#000" stroke-width="1.2"/>
<polyline points="392.0,53.0 392.6,53.2 393.2,53.4 393.7,53.6 394.3,53.7 394.9,53.8 395.5,53.9 396.1,53.9 396.7,53.9 397.4,53.9 398.0,53.9 398.6,53.8 399.2,53.7 399.7,53.5 400.3,53.4 400.9,53.2 401.5,52.9 402.0,52.7 402.6,52.4 403.1,52.1 403.6,51.8" fill="none" stroke="#000" stroke-width="1.2"/>
<polyline points="345.1,163.6 345.3,163.7 345.5,163.8 345.7,163.9 345.9,164.0 346.1,164.1 346.2,164.2 346.4,164.3 346.6,164.4 346.8,164.5 347.0,164.6 347.2,164.7 347.4,164.9 347.5,165.0 347.7,165.1 347.9,165.3 348.1,165.4 348.2,165.6 348.4,165.7 348.5,165.8 348.7,166.0" fill="none" stroke="#000" stroke-width="1.2"/>
<polyline points="346.4,160.4 346.7,160.5 346.9,160.6 347.2,160.7 347.5,160.8 347.7,161.0 348.0,161.1 348.2,161.3 348.4,161.4 348.7,161.6 348.9,161.7 349.2,161.9 349.4,162.0 349.6,162.2 349.9,162.4 350.1,162.5 350.3,162.7 350.5,162.9 350.7,163.1 350.9,163.3 351.1,163.5" fill="none" stroke="#000" stroke-width="1.2"/>
<text x="451.2" y="85.0" font-size="12" text-anchor="middle">58°</text>
<text x="399.8" y="76.0" font-size="12" text-anchor="middle">58°</text>
<text x="364.7" y="142.1" font-size="12" text-anchor="middle">21°</text>
<text x="473.0" y="142.4" font-size="12" text-anchor="middle">x</text>
<text x="415.0" y="258.0" font-size="12" text-anchor="middle" font-weight="bold">練習6（円は描かれていない）</text>
<text x="280.0" y="288.0" font-size="12" text-anchor="middle">練習5: 円周角＋外角の合わせ技／練習6: 逆で円を出してから収穫</text>
<text x="280.0" y="306.0" font-size="12" text-anchor="middle">（使った定理を順番に言えるかも点検する）</text>
</svg>
