<svg xmlns="http://www.w3.org/2000/svg" viewBox="0 0 660 300">
<title>練習2・3・4（3パネル統合）</title>
<desc>【この図の意図】章末混合練習の基本3題。答え・途中の中心角は図に置かない。【主要な数値・設定】P2: 弧AB=114°／P3: ∠CAB=37°（C=74°）／P4: ∠OAB=31°（中心角は導出値のため非表示）。【AIに同じ種類の図を描かせるときの説明文】「練習2・3・4（3パネル統合）。章末混合練習の基本3題。答え・途中の中心角は図に置かない。数値・設定: P2: 弧AB=114°／P3: ∠CAB=37°（C=74°）／P4: ∠OAB=31°（中心角は導出値のため非表示）。白黒印刷向けのシンプルな教材図（SVG）としてかいて。」——この説明文を生成AIに渡せば同型の図を描かせられる。数値を変えれば類題用の図も作れる。</desc>
<!-- L08_fig2_practice_2_3_4.svg | 練習2・3・4（3パネル統合） -->
<!-- generated by assets_provenance/generate_figures.py on 2026-07-17 (docs/SPEC_figures.md準拠（内部規約の要旨は同SPECに反映済み）・SVG直接編集禁止/スクリプト改修で再生成) -->
<rect x="0" y="0" width="660" height="300" fill="#fff"/>
<polyline points="53.3,146.1 56.1,150.2 59.3,154.1 62.7,157.7 66.3,161.1 70.2,164.2 74.3,167.0 78.6,169.5 83.1,171.7 87.6,173.6 92.4,175.2 97.2,176.4 102.1,177.3 107.0,177.8 112.0,178.0 117.0,177.8 121.9,177.3 126.8,176.4 131.6,175.2 136.4,173.6 140.9,171.7 145.4,169.5 149.7,167.0 153.8,164.2 157.7,161.1 161.3,157.7 164.7,154.1 167.9,150.2 170.7,146.1" fill="none" stroke="#c9c9c9" stroke-width="6" stroke-linecap="round"/>
<circle cx="112.0" cy="108.0" r="70.0" fill="none" stroke="#000" stroke-width="1.6"/>
<line x1="82.4" y1="44.6" x2="53.3" y2="146.1" stroke="#000" stroke-width="1.6"/>
<line x1="82.4" y1="44.6" x2="170.7" y2="146.1" stroke="#000" stroke-width="1.6"/>
<polyline points="79.4,55.1 79.9,55.3 80.4,55.4 81.0,55.5 81.5,55.5 82.1,55.6 82.6,55.6 83.2,55.5 83.7,55.5 84.3,55.4 84.8,55.3 85.3,55.2 85.9,55.0 86.4,54.8 86.9,54.6 87.4,54.4 87.9,54.1 88.3,53.8 88.8,53.5 89.2,53.2 89.6,52.9" fill="none" stroke="#000" stroke-width="1.2"/>
<line x1="141.6" y1="44.6" x2="53.3" y2="146.1" stroke="#000" stroke-width="1.6"/>
<line x1="141.6" y1="44.6" x2="170.7" y2="146.1" stroke="#000" stroke-width="1.6"/>
<polyline points="134.4,52.9 134.8,53.2 135.2,53.5 135.7,53.8 136.1,54.1 136.6,54.4 137.1,54.6 137.6,54.8 138.1,55.0 138.7,55.2 139.2,55.3 139.7,55.4 140.3,55.5 140.8,55.5 141.4,55.6 141.9,55.6 142.5,55.5 143.0,55.5 143.6,55.4 144.1,55.3 144.6,55.1" fill="none" stroke="#000" stroke-width="1.2"/>
<circle cx="53.3" cy="146.1" r="2.5" fill="#000"/>
<text x="42.4" y="157.8" font-size="13" text-anchor="middle" font-weight="bold">A</text>
<circle cx="170.7" cy="146.1" r="2.5" fill="#000"/>
<text x="181.6" y="157.8" font-size="13" text-anchor="middle" font-weight="bold">B</text>
<circle cx="82.4" cy="44.6" r="2.5" fill="#000"/>
<text x="76.9" y="37.3" font-size="13" text-anchor="middle" font-weight="bold">C</text>
<circle cx="141.6" cy="44.6" r="2.5" fill="#000"/>
<text x="147.1" y="37.3" font-size="13" text-anchor="middle" font-weight="bold">D</text>
<text x="87.6" y="72.2" font-size="12" text-anchor="middle">57°</text>
<text x="136.4" y="72.2" font-size="12" text-anchor="middle">x</text>
<text x="112.0" y="216.0" font-size="12" text-anchor="middle" font-weight="bold">練習2</text>
<circle cx="330.0" cy="108.0" r="70.0" fill="none" stroke="#000" stroke-width="1.6"/>
<polygon points="260.0,108.0 400.0,108.0 349.3,40.7" fill="none" stroke="#000" stroke-width="1.6" stroke-linejoin="round"/>
<circle cx="260.0" cy="108.0" r="2.5" fill="#000"/>
<text x="247.0" y="112.5" font-size="13" text-anchor="middle" font-weight="bold">A</text>
<circle cx="400.0" cy="108.0" r="2.5" fill="#000"/>
<text x="413.0" y="112.5" font-size="13" text-anchor="middle" font-weight="bold">B</text>
<circle cx="349.3" cy="40.7" r="2.5" fill="#000"/>
<text x="352.9" y="32.8" font-size="13" text-anchor="middle" font-weight="bold">C</text>
<circle cx="330.0" cy="108.0" r="2.5" fill="#000"/>
<text x="325.9" y="123.8" font-size="13" text-anchor="middle" font-weight="bold">O</text>
<polyline points="268.8,101.4 269.0,101.7 269.2,102.0 269.4,102.3 269.6,102.6 269.7,102.9 269.9,103.2 270.0,103.5 270.2,103.8 270.3,104.2 270.4,104.5 270.5,104.8 270.6,105.2 270.7,105.5 270.8,105.9 270.9,106.2 270.9,106.6 270.9,106.9 271.0,107.3 271.0,107.6 271.0,108.0" fill="none" stroke="#000" stroke-width="1.2"/>
<text x="282.8" y="104.6" font-size="12" text-anchor="middle">37°</text>
<text x="346.4" y="65.7" font-size="12" text-anchor="middle">？</text>
<text x="381.2" y="102.8" font-size="12" text-anchor="middle">？</text>
<text x="330.0" y="216.0" font-size="12" text-anchor="middle" font-weight="bold">練習3（ABは直径）</text>
<polyline points="488.0,144.1 490.7,148.2 493.7,152.2 497.0,155.9 500.5,159.4 504.3,162.7 508.3,165.6 512.5,168.3 516.8,170.7 521.3,172.7 526.0,174.5 530.8,175.8 535.6,176.9 540.6,177.6 545.5,178.0 550.5,178.0 555.4,177.6 560.4,176.9 565.2,175.8 570.0,174.5 574.7,172.7 579.2,170.7 583.5,168.3 587.7,165.6 591.7,162.7 595.5,159.4 599.0,155.9 602.3,152.2 605.3,148.2 608.0,144.1" fill="none" stroke="#c9c9c9" stroke-width="6" stroke-linecap="round"/>
<circle cx="548.0" cy="108.0" r="70.0" fill="none" stroke="#000" stroke-width="1.6"/>
<line x1="548.0" y1="108.0" x2="488.0" y2="144.1" stroke="#000" stroke-width="1.6"/>
<line x1="548.0" y1="108.0" x2="608.0" y2="144.1" stroke="#000" stroke-width="1.6"/>
<line x1="548.0" y1="38.0" x2="488.0" y2="144.1" stroke="#000" stroke-width="1.6"/>
<line x1="548.0" y1="38.0" x2="608.0" y2="144.1" stroke="#000" stroke-width="1.6"/>
<circle cx="488.0" cy="144.1" r="2.5" fill="#000"/>
<text x="476.9" y="155.3" font-size="13" text-anchor="middle" font-weight="bold">A</text>
<circle cx="608.0" cy="144.1" r="2.5" fill="#000"/>
<text x="619.1" y="155.3" font-size="13" text-anchor="middle" font-weight="bold">B</text>
<circle cx="548.0" cy="38.0" r="2.5" fill="#000"/>
<text x="548.0" y="29.6" font-size="13" text-anchor="middle" font-weight="bold">P</text>
<circle cx="548.0" cy="108.0" r="2.5" fill="#000"/>
<text x="548.0" y="99.5" font-size="13" text-anchor="middle" font-weight="bold">O</text>
<polyline points="497.4,138.4 497.6,138.6 497.7,138.9 497.9,139.2 498.0,139.4 498.1,139.7 498.2,140.0 498.3,140.3 498.4,140.5 498.5,140.8 498.6,141.1 498.7,141.4 498.7,141.7 498.8,142.0 498.9,142.3 498.9,142.6 498.9,142.9 499.0,143.2 499.0,143.5 499.0,143.8 499.0,144.1" fill="none" stroke="#000" stroke-width="1.2"/>
<polyline points="542.6,47.6 543.1,47.8 543.6,48.1 544.1,48.3 544.7,48.5 545.2,48.6 545.8,48.8 546.3,48.9 546.9,48.9 547.4,49.0 548.0,49.0 548.6,49.0 549.1,48.9 549.7,48.9 550.2,48.8 550.8,48.6 551.3,48.5 551.9,48.3 552.4,48.1 552.9,47.8 553.4,47.6" fill="none" stroke="#000" stroke-width="1.2"/>
<text x="526.5" y="137.6" font-size="12" text-anchor="middle">31°</text>
<text x="548.0" y="66.2" font-size="12" text-anchor="middle">x</text>
<text x="548.0" y="216.0" font-size="12" text-anchor="middle" font-weight="bold">練習4（OA＝OB）</text>
<text x="330.0" y="252.0" font-size="12" text-anchor="middle">章末の混合練習——どの道具を使うかは自分で選ぶ</text>
<text x="330.0" y="270.0" font-size="12" text-anchor="middle">（練習2: 同じ弧／練習3: 直径／練習4: 半径の二等辺三角形から）</text>
</svg>
