<svg xmlns="http://www.w3.org/2000/svg" viewBox="0 0 360 330">
<title>道具を乗り継ぐ（直径AB・∠DBA=34°）</title>
<desc>【この図の意図】例題1の図。与件34°のみ・弧AC/CD/DBの配置は本文指定どおり。【主要な数値・設定】A=180°,B=0°,C=140°,D=112°（弧AC=40°・弧CD=28°・弧DB=112°）。【AIに同じ種類の図を描かせるときの説明文】「道具を乗り継ぐ（直径AB・∠DBA=34°）。例題1の図。与件34°のみ・弧AC/CD/DBの配置は本文指定どおり。数値・設定: A=180°,B=0°,C=140°,D=112°（弧AC=40°・弧CD=28°・弧DB=112°）。白黒印刷向けのシンプルな教材図（SVG）としてかいて。」——この説明文を生成AIに渡せば同型の図を描かせられる。数値を変えれば類題用の図も作れる。</desc>
<!-- L08_fig1_example_tool_relay.svg | 道具を乗り継ぐ（直径AB・∠DBA=34°） -->
<!-- generated by assets_provenance/generate_figures.py on 2026-07-17 (docs/SPEC_figures.md準拠（内部規約の要旨は同SPECに反映済み）・SVG直接編集禁止/スクリプト改修で再生成) -->
<rect x="0" y="0" width="360" height="330" fill="#fff"/>
<circle cx="180.0" cy="136.0" r="98.0" fill="none" stroke="#000" stroke-width="1.6"/>
<line x1="82.0" y1="136.0" x2="278.0" y2="136.0" stroke="#000" stroke-width="1.6"/>
<line x1="82.0" y1="136.0" x2="143.3" y2="45.1" stroke="#000" stroke-width="1.6"/>
<line x1="278.0" y1="136.0" x2="143.3" y2="45.1" stroke="#000" stroke-width="1.6"/>
<line x1="104.9" y1="73.0" x2="143.3" y2="45.1" stroke="#000" stroke-width="1.6"/>
<line x1="104.9" y1="73.0" x2="278.0" y2="136.0" stroke="#000" stroke-width="1.6"/>
<circle cx="82.0" cy="136.0" r="2.5" fill="#000"/>
<text x="67.0" y="140.6" font-size="13" text-anchor="middle" font-weight="bold">A</text>
<circle cx="278.0" cy="136.0" r="2.5" fill="#000"/>
<text x="293.0" y="140.6" font-size="13" text-anchor="middle" font-weight="bold">B</text>
<circle cx="104.9" cy="73.0" r="2.5" fill="#000"/>
<text x="93.4" y="67.9" font-size="13" text-anchor="middle" font-weight="bold">C</text>
<circle cx="143.3" cy="45.1" r="2.5" fill="#000"/>
<text x="137.7" y="35.8" font-size="13" text-anchor="middle" font-weight="bold">D</text>
<circle cx="180.0" cy="136.0" r="2.5" fill="#000"/>
<text x="175.6" y="152.8" font-size="13" text-anchor="middle" font-weight="bold">O</text>
<polyline points="266.4,128.2 266.2,128.5 265.9,128.9 265.7,129.2 265.5,129.6 265.4,130.0 265.2,130.4 265.0,130.7 264.9,131.1 264.7,131.5 264.6,131.9 264.5,132.3 264.4,132.7 264.3,133.1 264.2,133.5 264.2,133.9 264.1,134.3 264.1,134.8 264.0,135.2 264.0,135.6 264.0,136.0" fill="none" stroke="#000" stroke-width="1.2"/>
<text x="247.4" y="131.2" font-size="13" text-anchor="middle">34°</text>
<text x="180.0" y="294.0" font-size="12" text-anchor="middle">ABは円Oの直径——(1)∠ADB (2)∠DAB (3)∠DCB を順に求める</text>
<text x="180.0" y="312.0" font-size="12" text-anchor="middle">（例題1: 半円の弧→内角の和→同じ弧，と道具を乗り継ぐ）</text>
</svg>
