<svg xmlns="http://www.w3.org/2000/svg" viewBox="0 0 430 232">
<title>単項式×多項式の面積モデル（2x(3x＋4y)）</title>
<desc>【この図の意図】主概念1の図。全体＝部分の和として分配法則を可視化（結果は本文提示済み）。【主要な数値・設定】縦2x・横3x+4y（描画は x=y=1 の概念比率）。【AIに同じ種類の図を描かせるときの説明文】「単項式×多項式の面積モデル（2x(3x＋4y)）。主概念1の図。全体＝部分の和として分配法則を可視化（結果は本文提示済み）。数値・設定: 縦2x・横3x+4y（描画は x=y=1 の概念比率）。白黒印刷向けのシンプルな教材図（SVG）としてかいて。」——この説明文を生成AIに渡せば同型の図を描かせられる。数値を変えれば類題用の図も作れる。</desc>
<!-- L01_fig1_area_model_monomial.svg | 単項式×多項式の面積モデル（2x(3x＋4y)） -->
<!-- generated by assets_provenance/generate_figures.py on 2026-07-17 (docs/SPEC_figures.md準拠（内部規約の要旨は同SPECに反映済み）・SVG直接編集禁止/スクリプト改修で再生成) -->
<rect x="0" y="0" width="430" height="232" fill="#fff"/>
<polygon points="60.0,152.0 368.0,152.0 368.0,64.0 60.0,64.0" fill="none" stroke="#000" stroke-width="1.6" stroke-linejoin="round"/>
<line x1="192.0" y1="152.0" x2="192.0" y2="64.0" stroke="#000" stroke-width="1.6"/>
<line x1="60.0" y1="44.2" x2="192.0" y2="44.2" stroke="#000" stroke-width="0.9"/>
<line x1="60.0" y1="40.2" x2="60.0" y2="48.2" stroke="#000" stroke-width="0.9"/>
<line x1="192.0" y1="40.2" x2="192.0" y2="48.2" stroke="#000" stroke-width="0.9"/>
<text x="126.0" y="37.7" font-size="13" text-anchor="middle">3x</text>
<line x1="192.0" y1="44.2" x2="368.0" y2="44.2" stroke="#000" stroke-width="0.9"/>
<line x1="192.0" y1="40.2" x2="192.0" y2="48.2" stroke="#000" stroke-width="0.9"/>
<line x1="368.0" y1="40.2" x2="368.0" y2="48.2" stroke="#000" stroke-width="0.9"/>
<text x="280.0" y="37.7" font-size="13" text-anchor="middle">4y</text>
<line x1="40.2" y1="64.0" x2="40.2" y2="152.0" stroke="#000" stroke-width="0.9"/>
<line x1="44.2" y1="64.0" x2="36.2" y2="64.0" stroke="#000" stroke-width="0.9"/>
<line x1="44.2" y1="152.0" x2="36.2" y2="152.0" stroke="#000" stroke-width="0.9"/>
<text x="32.4" y="112.5" font-size="13" text-anchor="end">2x</text>
<text x="126.0" y="112.5" font-size="13" text-anchor="middle">6x²</text>
<text x="280.0" y="112.5" font-size="13" text-anchor="middle">8xy</text>
<text x="215.0" y="196.0" font-size="12" text-anchor="middle">全体の面積 2x×(3x＋4y) ＝ 部分の面積の和 6x²＋8xy</text>
<text x="215.0" y="214.0" font-size="11" text-anchor="middle">（縦線で2つに切っても，全体を一度に求めても同じ——分配法則は面積の図そのもの）</text>
</svg>
