<svg xmlns="http://www.w3.org/2000/svg" viewBox="0 0 430 258">
<title>多項式×多項式の面積モデル（(a＋b)(c＋d)）</title>
<desc>【この図の意図】主概念2の図。展開の4項＝4部屋の対応（結果は本文提示済み）。【主要な数値・設定】縦 a:b=1.6:1.1・横 c:d=2.2:1.5（概念比率）。【AIに同じ種類の図を描かせるときの説明文】「多項式×多項式の面積モデル（(a＋b)(c＋d)）。主概念2の図。展開の4項＝4部屋の対応（結果は本文提示済み）。数値・設定: 縦 a:b=1.6:1.1・横 c:d=2.2:1.5（概念比率）。白黒印刷向けのシンプルな教材図（SVG）としてかいて。」——この説明文を生成AIに渡せば同型の図を描かせられる。数値を変えれば類題用の図も作れる。</desc>
<!-- L02_fig1_area_model_expansion.svg | 多項式×多項式の面積モデル（(a＋b)(c＋d)） -->
<!-- generated by assets_provenance/generate_figures.py on 2026-07-17 (docs/SPEC_figures.md準拠（内部規約の要旨は同SPECに反映済み）・SVG直接編集禁止/スクリプト改修で再生成) -->
<rect x="0" y="0" width="430" height="258" fill="#fff"/>
<polygon points="80.0,176.0 250.2,176.0 250.2,51.8 80.0,51.8" fill="none" stroke="#000" stroke-width="1.6" stroke-linejoin="round"/>
<line x1="181.2" y1="176.0" x2="181.2" y2="51.8" stroke="#000" stroke-width="1.6"/>
<line x1="80.0" y1="125.4" x2="250.2" y2="125.4" stroke="#000" stroke-width="1.6"/>
<line x1="80.0" y1="31.1" x2="181.2" y2="31.1" stroke="#000" stroke-width="0.9"/>
<line x1="80.0" y1="27.1" x2="80.0" y2="35.1" stroke="#000" stroke-width="0.9"/>
<line x1="181.2" y1="27.1" x2="181.2" y2="35.1" stroke="#000" stroke-width="0.9"/>
<text x="130.6" y="24.6" font-size="13" text-anchor="middle">c</text>
<line x1="181.2" y1="31.1" x2="250.2" y2="31.1" stroke="#000" stroke-width="0.9"/>
<line x1="181.2" y1="27.1" x2="181.2" y2="35.1" stroke="#000" stroke-width="0.9"/>
<line x1="250.2" y1="27.1" x2="250.2" y2="35.1" stroke="#000" stroke-width="0.9"/>
<text x="215.7" y="24.6" font-size="13" text-anchor="middle">d</text>
<line x1="59.3" y1="51.8" x2="59.3" y2="125.4" stroke="#000" stroke-width="0.9"/>
<line x1="63.3" y1="51.8" x2="55.3" y2="51.8" stroke="#000" stroke-width="0.9"/>
<line x1="63.3" y1="125.4" x2="55.3" y2="125.4" stroke="#000" stroke-width="0.9"/>
<text x="51.5" y="93.1" font-size="13" text-anchor="end">a</text>
<line x1="59.3" y1="125.4" x2="59.3" y2="176.0" stroke="#000" stroke-width="0.9"/>
<line x1="63.3" y1="125.4" x2="55.3" y2="125.4" stroke="#000" stroke-width="0.9"/>
<line x1="63.3" y1="176.0" x2="55.3" y2="176.0" stroke="#000" stroke-width="0.9"/>
<text x="51.5" y="155.2" font-size="13" text-anchor="end">b</text>
<text x="130.6" y="93.1" font-size="13" text-anchor="middle">ac</text>
<text x="215.7" y="93.1" font-size="13" text-anchor="middle">ad</text>
<text x="130.6" y="155.2" font-size="13" text-anchor="middle">bc</text>
<text x="215.7" y="155.2" font-size="13" text-anchor="middle">bd</text>
<text x="215.0" y="222.0" font-size="12" text-anchor="middle">全体の面積 (a＋b)(c＋d) ＝ 4つの部屋の和 ac＋ad＋bc＋bd</text>
<text x="215.0" y="240.0" font-size="11" text-anchor="middle">（式の4つの項と図の4つの部屋が1対1で対応する）</text>
</svg>
