<svg xmlns="http://www.w3.org/2000/svg" viewBox="0 0 430 250">
<title>面積の図の下書き白図（練習3用）</title>
<desc>【この図の意図】練習3の解答用下書き枠。ラベル無記入（面積ラベルの由来が答えのため）。【主要な数値・設定】中立比率2.2:1.3×2.2:1.7（練習3の数値を暗示しない）。【AIに同じ種類の図を描かせるときの説明文】「面積の図の下書き白図（練習3用）。練習3の解答用下書き枠。ラベル無記入（面積ラベルの由来が答えのため）。数値・設定: 中立比率2.2:1.3×2.2:1.7（練習3の数値を暗示しない）。白黒印刷向けのシンプルな教材図（SVG）としてかいて。」——この説明文を生成AIに渡せば同型の図を描かせられる。数値を変えれば類題用の図も作れる。</desc>
<!-- L02_fig2_area_model_blank.svg | 面積の図の下書き白図（練習3用） -->
<!-- generated by assets_provenance/generate_figures.py on 2026-07-17 (docs/SPEC_figures.md準拠（内部規約の要旨は同SPECに反映済み）・SVG直接編集禁止/スクリプト改修で再生成) -->
<rect x="0" y="0" width="430" height="250" fill="#fff"/>
<polygon points="80.0,176.0 259.4,176.0 259.4,15.0 80.0,15.0" fill="none" stroke="#000" stroke-width="1.6" stroke-linejoin="round"/>
<line x1="181.2" y1="176.0" x2="181.2" y2="15.0" stroke="#000" stroke-width="1.6"/>
<line x1="80.0" y1="116.2" x2="259.4" y2="116.2" stroke="#000" stroke-width="1.6"/>
<line x1="80.0" y1="-5.7" x2="181.2" y2="-5.7" stroke="#000" stroke-width="0.9"/>
<line x1="80.0" y1="-9.7" x2="80.0" y2="-1.7" stroke="#000" stroke-width="0.9"/>
<line x1="181.2" y1="-9.7" x2="181.2" y2="-1.7" stroke="#000" stroke-width="0.9"/>
<text x="130.6" y="-12.2" font-size="13" text-anchor="middle">（　）</text>
<line x1="181.2" y1="-5.7" x2="259.4" y2="-5.7" stroke="#000" stroke-width="0.9"/>
<line x1="181.2" y1="-9.7" x2="181.2" y2="-1.7" stroke="#000" stroke-width="0.9"/>
<line x1="259.4" y1="-9.7" x2="259.4" y2="-1.7" stroke="#000" stroke-width="0.9"/>
<text x="220.3" y="-12.2" font-size="13" text-anchor="middle">（　）</text>
<line x1="59.3" y1="15.0" x2="59.3" y2="116.2" stroke="#000" stroke-width="0.9"/>
<line x1="63.3" y1="15.0" x2="55.3" y2="15.0" stroke="#000" stroke-width="0.9"/>
<line x1="63.3" y1="116.2" x2="55.3" y2="116.2" stroke="#000" stroke-width="0.9"/>
<text x="51.5" y="70.2" font-size="13" text-anchor="end">（　）</text>
<line x1="59.3" y1="116.2" x2="59.3" y2="176.0" stroke="#000" stroke-width="0.9"/>
<line x1="63.3" y1="116.2" x2="55.3" y2="116.2" stroke="#000" stroke-width="0.9"/>
<line x1="63.3" y1="176.0" x2="55.3" y2="176.0" stroke="#000" stroke-width="0.9"/>
<text x="51.5" y="150.7" font-size="13" text-anchor="end">（　）</text>
<text x="215.0" y="218.0" font-size="12" text-anchor="middle">下書き用の白図——縦・横の長さと，各部屋の面積を書きこもう</text>
<text x="215.0" y="236.0" font-size="11" text-anchor="middle">（区切りの位置は目安。長さに合わせて自分でかき直してもよい）</text>
</svg>
