<svg xmlns="http://www.w3.org/2000/svg" viewBox="0 0 470 268">
<title>公式①の面積モデル（bx・axの合流）</title>
<desc>【この図の意図】主概念の図。「和」の正体＝2部屋のxの項の合流を矢印で示す（本文提示済み）。【主要な数値・設定】x:a:b=2.4:1.2:1.6（概念比率）。【AIに同じ種類の図を描かせるときの説明文】「公式①の面積モデル（bx・axの合流）。主概念の図。「和」の正体＝2部屋のxの項の合流を矢印で示す（本文提示済み）。数値・設定: x:a:b=2.4:1.2:1.6（概念比率）。白黒印刷向けのシンプルな教材図（SVG）としてかいて。」——この説明文を生成AIに渡せば同型の図を描かせられる。数値を変えれば類題用の図も作れる。</desc>
<!-- L03_fig1_area_model_formula1.svg | 公式①の面積モデル（bx・axの合流） -->
<!-- generated by assets_provenance/generate_figures.py on 2026-07-17 (docs/SPEC_figures.md準拠（内部規約の要旨は同SPECに反映済み）・SVG直接編集禁止/スクリプト改修で再生成) -->
<rect x="0" y="0" width="470" height="268" fill="#fff"/>
<polygon points="70.0,186.0 238.0,186.0 238.0,34.8 70.0,34.8" fill="none" stroke="#000" stroke-width="1.6" stroke-linejoin="round"/>
<line x1="170.8" y1="186.0" x2="170.8" y2="34.8" stroke="#000" stroke-width="1.6"/>
<line x1="70.0" y1="135.6" x2="238.0" y2="135.6" stroke="#000" stroke-width="1.6"/>
<line x1="70.0" y1="15.9" x2="170.8" y2="15.9" stroke="#000" stroke-width="0.9"/>
<line x1="70.0" y1="11.9" x2="70.0" y2="19.9" stroke="#000" stroke-width="0.9"/>
<line x1="170.8" y1="11.9" x2="170.8" y2="19.9" stroke="#000" stroke-width="0.9"/>
<text x="120.4" y="9.4" font-size="13" text-anchor="middle">x</text>
<line x1="170.8" y1="15.9" x2="238.0" y2="15.9" stroke="#000" stroke-width="0.9"/>
<line x1="170.8" y1="11.9" x2="170.8" y2="19.9" stroke="#000" stroke-width="0.9"/>
<line x1="238.0" y1="11.9" x2="238.0" y2="19.9" stroke="#000" stroke-width="0.9"/>
<text x="204.4" y="9.4" font-size="13" text-anchor="middle">b</text>
<line x1="51.1" y1="34.8" x2="51.1" y2="135.6" stroke="#000" stroke-width="0.9"/>
<line x1="55.1" y1="34.8" x2="47.1" y2="34.8" stroke="#000" stroke-width="0.9"/>
<line x1="55.1" y1="135.6" x2="47.1" y2="135.6" stroke="#000" stroke-width="0.9"/>
<text x="43.3" y="89.8" font-size="13" text-anchor="end">x</text>
<line x1="51.1" y1="135.6" x2="51.1" y2="186.0" stroke="#000" stroke-width="0.9"/>
<line x1="55.1" y1="135.6" x2="47.1" y2="135.6" stroke="#000" stroke-width="0.9"/>
<line x1="55.1" y1="186.0" x2="47.1" y2="186.0" stroke="#000" stroke-width="0.9"/>
<text x="43.3" y="165.4" font-size="13" text-anchor="end">a</text>
<text x="120.4" y="89.8" font-size="13" text-anchor="middle">x²</text>
<text x="204.4" y="89.8" font-size="13" text-anchor="middle">bx</text>
<text x="120.4" y="165.4" font-size="13" text-anchor="middle">ax</text>
<text x="204.4" y="165.4" font-size="13" text-anchor="middle">ab</text>
<line x1="220.4" y1="85.2" x2="357.5" y2="137.5" stroke="#000" stroke-width="1.1"/>
<polygon points="364.0,140.0 356.3,140.4 358.6,134.6" fill="#000"/>
<line x1="146.4" y1="173.8" x2="357.0" y2="168.2" stroke="#000" stroke-width="1.1"/>
<polygon points="364.0,168.0 357.1,171.3 356.9,165.0" fill="#000"/>
<text x="368.0" y="138.0" font-size="12" text-anchor="start">合流して</text>
<text x="368.0" y="156.0" font-size="13" text-anchor="start" font-weight="bold">(a＋b)x</text>
<text x="235.0" y="232.0" font-size="12" text-anchor="middle">縦(x＋a)・横(x＋b)の長方形——xの項は bx と ax の2部屋から来る</text>
<text x="235.0" y="250.0" font-size="12" text-anchor="middle">全体の面積 (x＋a)(x＋b)＝x²＋(a＋b)x＋ab</text>
</svg>
