<svg xmlns="http://www.w3.org/2000/svg" viewBox="0 0 430 292">
<title>公式②の面積モデル（(a＋b)²）</title>
<desc>【この図の意図】主概念1の図。2abの由来＝abの2部屋を可視化（本文提示済み）。【主要な数値・設定】a:b=2.3:1.2（概念比率・正方形）。【AIに同じ種類の図を描かせるときの説明文】「公式②の面積モデル（(a＋b)²）。主概念1の図。2abの由来＝abの2部屋を可視化（本文提示済み）。数値・設定: a:b=2.3:1.2（概念比率・正方形）。白黒印刷向けのシンプルな教材図（SVG）としてかいて。」——この説明文を生成AIに渡せば同型の図を描かせられる。数値を変えれば類題用の図も作れる。</desc>
<!-- L04_fig1_area_model_square.svg | 公式②の面積モデル（(a＋b)²） -->
<!-- generated by assets_provenance/generate_figures.py on 2026-07-17 (docs/SPEC_figures.md準拠（内部規約の要旨は同SPECに反映済み）・SVG直接編集禁止/スクリプト改修で再生成) -->
<rect x="0" y="0" width="430" height="292" fill="#fff"/>
<polygon points="90.0,210.0 258.0,210.0 258.0,42.0 90.0,42.0" fill="none" stroke="#000" stroke-width="1.6" stroke-linejoin="round"/>
<line x1="200.4" y1="210.0" x2="200.4" y2="42.0" stroke="#000" stroke-width="1.6"/>
<line x1="90.0" y1="152.4" x2="258.0" y2="152.4" stroke="#000" stroke-width="1.6"/>
<line x1="90.0" y1="20.4" x2="200.4" y2="20.4" stroke="#000" stroke-width="0.9"/>
<line x1="90.0" y1="16.4" x2="90.0" y2="24.4" stroke="#000" stroke-width="0.9"/>
<line x1="200.4" y1="16.4" x2="200.4" y2="24.4" stroke="#000" stroke-width="0.9"/>
<text x="145.2" y="13.9" font-size="13" text-anchor="middle">a</text>
<line x1="200.4" y1="20.4" x2="258.0" y2="20.4" stroke="#000" stroke-width="0.9"/>
<line x1="200.4" y1="16.4" x2="200.4" y2="24.4" stroke="#000" stroke-width="0.9"/>
<line x1="258.0" y1="16.4" x2="258.0" y2="24.4" stroke="#000" stroke-width="0.9"/>
<text x="229.2" y="13.9" font-size="13" text-anchor="middle">b</text>
<line x1="68.4" y1="42.0" x2="68.4" y2="152.4" stroke="#000" stroke-width="0.9"/>
<line x1="72.4" y1="42.0" x2="64.4" y2="42.0" stroke="#000" stroke-width="0.9"/>
<line x1="72.4" y1="152.4" x2="64.4" y2="152.4" stroke="#000" stroke-width="0.9"/>
<text x="60.6" y="101.7" font-size="13" text-anchor="end">a</text>
<line x1="68.4" y1="152.4" x2="68.4" y2="210.0" stroke="#000" stroke-width="0.9"/>
<line x1="72.4" y1="152.4" x2="64.4" y2="152.4" stroke="#000" stroke-width="0.9"/>
<line x1="72.4" y1="210.0" x2="64.4" y2="210.0" stroke="#000" stroke-width="0.9"/>
<text x="60.6" y="185.8" font-size="13" text-anchor="end">b</text>
<text x="145.2" y="101.7" font-size="13" text-anchor="middle">a²</text>
<text x="229.2" y="101.7" font-size="13" text-anchor="middle">ab</text>
<text x="145.2" y="185.8" font-size="13" text-anchor="middle">ab</text>
<text x="229.2" y="185.8" font-size="13" text-anchor="middle">b²</text>
<line x1="316.0" y1="160.0" x2="248.7" y2="107.5" stroke="#000" stroke-width="1.1"/>
<polygon points="243.2,103.2 250.7,105.0 246.8,110.0" fill="#000"/>
<line x1="316.0" y1="180.0" x2="180.2" y2="191.6" stroke="#000" stroke-width="1.1"/>
<polygon points="173.2,192.2 179.9,188.5 180.4,194.7" fill="#000"/>
<text x="320.0" y="156.0" font-size="12" text-anchor="start">abの部屋が</text>
<text x="320.0" y="172.0" font-size="12" text-anchor="start" font-weight="bold">2つ→2ab</text>
<text x="215.0" y="254.0" font-size="12" text-anchor="middle">1辺(a＋b)の正方形——真ん中のabが2部屋あるから2ab</text>
<text x="215.0" y="272.0" font-size="12" text-anchor="middle">全体の面積 (a＋b)²＝a²＋2ab＋b²</text>
</svg>
