<svg xmlns="http://www.w3.org/2000/svg" viewBox="0 0 560 344">
<title>符号の見取り図（積→同/異符号→和→2数の符号）</title>
<desc>【この図の意図】主概念の判定流れ図＋本文2例のトレース（2例の分解は本文提示済み）。【主要な数値・設定】例1=(−3,−4)/例2=(4,−3)——本文の見取り図の2例と一致。【AIに同じ種類の図を描かせるときの説明文】「符号の見取り図（積→同/異符号→和→2数の符号）。主概念の判定流れ図＋本文2例のトレース（2例の分解は本文提示済み）。数値・設定: 例1=(−3,−4)/例2=(4,−3)——本文の見取り図の2例と一致。白黒印刷向けのシンプルな教材図（SVG）としてかいて。」——この説明文を生成AIに渡せば同型の図を描かせられる。数値を変えれば類題用の図も作れる。</desc>
<!-- L06_fig1_sign_flowchart.svg | 符号の見取り図（積→同/異符号→和→2数の符号） -->
<!-- generated by assets_provenance/generate_figures.py on 2026-07-17 (docs/SPEC_figures.md準拠（内部規約の要旨は同SPECに反映済み）・SVG直接編集禁止/スクリプト改修で再生成) -->
<rect x="0" y="0" width="560" height="344" fill="#fff"/>
<text x="280.0" y="26.0" font-size="14" text-anchor="middle" font-weight="bold">2数の符号の見取り図——積で分け，和でしぼる</text>
<rect x="195.0" y="45.0" width="170" height="30" rx="6" fill="#fff" stroke="#000" stroke-width="1.3"/>
<text x="280.0" y="64.5" font-size="13" text-anchor="middle" font-weight="bold">積の符号は？</text>
<line x1="236.0" y1="74.0" x2="164.6" y2="97.8" stroke="#000" stroke-width="1.3"/>
<polygon points="158.0,100.0 163.6,94.8 165.6,100.8" fill="#000"/>
<line x1="324.0" y1="74.0" x2="395.4" y2="97.8" stroke="#000" stroke-width="1.3"/>
<polygon points="402.0,100.0 394.4,100.8 396.4,94.8" fill="#000"/>
<text x="178.0" y="84.0" font-size="13" text-anchor="middle" font-weight="bold">＋</text>
<text x="382.0" y="84.0" font-size="13" text-anchor="middle" font-weight="bold">−</text>
<rect x="52.0" y="102.0" width="196" height="32" rx="6" fill="#e2e2e2" stroke="#000" stroke-width="1.3"/>
<text x="150.0" y="122.2" font-size="12" text-anchor="middle" font-weight="bold">2数は同符号</text>
<rect x="312.0" y="102.0" width="196" height="32" rx="6" fill="#e2e2e2" stroke="#000" stroke-width="1.3"/>
<text x="410.0" y="122.2" font-size="12" text-anchor="middle" font-weight="bold">2数は異符号（＋と−）</text>
<line x1="150.0" y1="134.0" x2="150.0" y2="149.0" stroke="#000" stroke-width="1.3"/>
<polygon points="150.0,156.0 146.8,149.0 153.2,149.0" fill="#000"/>
<line x1="410.0" y1="134.0" x2="410.0" y2="149.0" stroke="#000" stroke-width="1.3"/>
<polygon points="410.0,156.0 406.9,149.0 413.1,149.0" fill="#000"/>
<rect x="34.0" y="158.0" width="232" height="48" rx="6" fill="#fff" stroke="#000" stroke-width="1.3"/>
<text x="150.0" y="178.2" font-size="12" text-anchor="middle">和の符号は？</text>
<text x="150.0" y="194.2" font-size="12" text-anchor="middle">＋なら両方＋ ／ −なら両方−</text>
<rect x="290.0" y="158.0" width="240" height="48" rx="6" fill="#fff" stroke="#000" stroke-width="1.3"/>
<text x="410.0" y="178.2" font-size="12" text-anchor="middle">和の符号は？</text>
<text x="410.0" y="194.2" font-size="12" text-anchor="middle">絶対値が大きいほうの符号になる</text>
<line x1="30" y1="222" x2="530" y2="222" stroke="#000" stroke-width="0.8" stroke-dasharray="6 4"/>
<text x="40.0" y="246.0" font-size="12" text-anchor="start" font-weight="bold">例1  x²−7x＋12：</text>
<text x="168.0" y="246.0" font-size="12" text-anchor="start">積＋12 → 同符号　和−7 → 両方マイナス</text>
<text x="168.0" y="264.0" font-size="12" text-anchor="start">→ −3 と −4 → (x−3)(x−4)</text>
<text x="40.0" y="296.0" font-size="12" text-anchor="start" font-weight="bold">例2  x²＋x−12：</text>
<text x="168.0" y="296.0" font-size="12" text-anchor="start">積−12 → 異符号　和＋1 → 絶対値が大きい4がプラス</text>
<text x="168.0" y="314.0" font-size="12" text-anchor="start">→ ＋4 と −3 → (x＋4)(x−3)</text>
</svg>
