<svg xmlns="http://www.w3.org/2000/svg" viewBox="0 0 500 310">
<title>L字形の並べ替え（x²−9＝(x＋3)(x−3)の絵）</title>
<desc>【この図の意図】stretch S2の図。切って並べ替え＝面積の保存（説明の言語化は解答側）。【主要な数値・設定】x=5, 切り取り=3（設問の記号どおり。断片=ハッチング・切る線=破線）。【AIに同じ種類の図を描かせるときの説明文】「L字形の並べ替え（x²−9＝(x＋3)(x−3)の絵）。stretch S2の図。切って並べ替え＝面積の保存（説明の言語化は解答側）。数値・設定: x=5, 切り取り=3（設問の記号どおり。断片=ハッチング・切る線=破線）。白黒印刷向けのシンプルな教材図（SVG）としてかいて。」——この説明文を生成AIに渡せば同型の図を描かせられる。数値を変えれば類題用の図も作れる。</desc>
<!-- L08_fig1_lshape_rearrange.svg | L字形の並べ替え（x²−9＝(x＋3)(x−3)の絵） -->
<!-- generated by assets_provenance/generate_figures.py on 2026-07-17 (docs/SPEC_figures.md準拠（内部規約の要旨は同SPECに反映済み）・SVG直接編集禁止/スクリプト改修で再生成) -->
<rect x="0" y="0" width="500" height="310" fill="#fff"/>
<defs><pattern id="h45" width="6" height="6" patternUnits="userSpaceOnUse" patternTransform="rotate(45)"><line x1="0" y1="0" x2="0" y2="6" stroke="#555" stroke-width="1.1"/></pattern></defs><polygon points="40.0,138.0 92.0,138.0 92.0,60.0 40.0,60.0" fill="url(#h45)" stroke="#000" stroke-width="0" stroke-linejoin="round"/>
<polygon points="40.0,190.0 170.0,190.0 170.0,138.0 92.0,138.0 92.0,60.0 40.0,60.0" fill="none" stroke="#000" stroke-width="1.6" stroke-linejoin="round"/>
<polygon points="92.0,138.0 170.0,138.0 170.0,60.0 92.0,60.0" fill="none" stroke="#000" stroke-width="1.1" stroke-linejoin="round" stroke-dasharray="2 3"/>
<line x1="40.0" y1="138.0" x2="92.0" y2="138.0" stroke="#000" stroke-width="1.1" stroke-dasharray="6 4"/>
<line x1="40.0" y1="203.0" x2="170.0" y2="203.0" stroke="#000" stroke-width="0.9"/>
<line x1="40.0" y1="199.0" x2="40.0" y2="207.0" stroke="#000" stroke-width="0.9"/>
<line x1="170.0" y1="199.0" x2="170.0" y2="207.0" stroke="#000" stroke-width="0.9"/>
<text x="105.0" y="227.1" font-size="13" text-anchor="middle">x</text>
<line x1="27.0" y1="190.0" x2="27.0" y2="60.0" stroke="#000" stroke-width="0.9"/>
<line x1="23.0" y1="190.0" x2="31.0" y2="190.0" stroke="#000" stroke-width="0.9"/>
<line x1="23.0" y1="60.0" x2="31.0" y2="60.0" stroke="#000" stroke-width="0.9"/>
<text x="19.2" y="129.6" font-size="13" text-anchor="end">x</text>
<line x1="92.0" y1="49.6" x2="170.0" y2="49.6" stroke="#000" stroke-width="0.9"/>
<line x1="92.0" y1="45.6" x2="92.0" y2="53.6" stroke="#000" stroke-width="0.9"/>
<line x1="170.0" y1="45.6" x2="170.0" y2="53.6" stroke="#000" stroke-width="0.9"/>
<text x="131.0" y="43.1" font-size="13" text-anchor="middle">3</text>
<text x="115.4" y="106.8" font-size="11" text-anchor="middle">切り取った</text>
<text x="115.4" y="120.8" font-size="11" text-anchor="middle">正方形</text>
<line x1="196.0" y1="118.0" x2="235.0" y2="118.0" stroke="#000" stroke-width="1.6"/>
<polygon points="244.0,118.0 235.0,122.0 235.0,114.0" fill="#000"/>
<text x="220.0" y="102.0" font-size="11" text-anchor="middle">切って回して</text>
<text x="220.0" y="140.0" font-size="11" text-anchor="middle">並べ替える</text>
<polygon points="384.0,190.0 462.0,190.0 462.0,138.0 384.0,138.0" fill="url(#h45)" stroke="#000" stroke-width="0" stroke-linejoin="round"/>
<polygon points="254.0,190.0 462.0,190.0 462.0,138.0 254.0,138.0" fill="none" stroke="#000" stroke-width="1.6" stroke-linejoin="round"/>
<line x1="384.0" y1="190.0" x2="384.0" y2="138.0" stroke="#000" stroke-width="1.1" stroke-dasharray="6 4"/>
<line x1="254.0" y1="203.0" x2="462.0" y2="203.0" stroke="#000" stroke-width="0.9"/>
<line x1="254.0" y1="199.0" x2="254.0" y2="207.0" stroke="#000" stroke-width="0.9"/>
<line x1="462.0" y1="199.0" x2="462.0" y2="207.0" stroke="#000" stroke-width="0.9"/>
<text x="358.0" y="227.1" font-size="13" text-anchor="middle">x＋3</text>
<line x1="241.0" y1="190.0" x2="241.0" y2="138.0" stroke="#000" stroke-width="0.9"/>
<line x1="237.0" y1="190.0" x2="245.0" y2="190.0" stroke="#000" stroke-width="0.9"/>
<line x1="237.0" y1="138.0" x2="245.0" y2="138.0" stroke="#000" stroke-width="0.9"/>
<text x="233.2" y="168.6" font-size="13" text-anchor="end">x−3</text>
<text x="250.0" y="268.0" font-size="12" text-anchor="middle">斜線の断片を回して右へ——面積は変わらない（数値は x と 3 のみ）</text>
<text x="250.0" y="286.0" font-size="12" text-anchor="middle">L字形（x²−9）　→　縦(x−3)・横(x＋3)の長方形</text>
</svg>
