<svg xmlns="http://www.w3.org/2000/svg" viewBox="0 0 430 348">
<title>円形の池と道（練習4）</title>
<desc>【この図の意図】正方形→長方形→円の3ケース目。道の面積の式は不記載（設問が問う）。【主要な数値・設定】r=1.7, a=0.6（描画比率）・円は折れ線サンプリング120点。【AIに同じ種類の図を描かせるときの説明文】「円形の池と道（練習4）。正方形→長方形→円の3ケース目。道の面積の式は不記載（設問が問う）。数値・設定: r=1.7, a=0.6（描画比率）・円は折れ線サンプリング120点。白黒印刷向けのシンプルな教材図（SVG）としてかいて。」——この説明文を生成AIに渡せば同型の図を描かせられる。数値を変えれば類題用の図も作れる。</desc>
<!-- L11_fig4_circle_path.svg | 円形の池と道（練習4） -->
<!-- generated by assets_provenance/generate_figures.py on 2026-07-17 (docs/SPEC_figures.md準拠（内部規約の要旨は同SPECに反映済み）・SVG直接編集禁止/スクリプト改修で再生成) -->
<rect x="0" y="0" width="430" height="348" fill="#fff"/>
<polygon points="251.2,142.0 251.1,136.7 250.6,131.4 250.0,126.2 249.0,121.0 247.8,115.8 246.2,110.7 244.5,105.7 242.5,100.8 240.2,96.1 237.6,91.4 234.9,86.9 231.9,82.5 228.6,78.3 225.2,74.3 221.6,70.4 217.7,66.8 213.7,63.4 209.5,60.1 205.1,57.1 200.6,54.4 195.9,51.8 191.2,49.5 186.3,47.5 181.3,45.8 176.2,44.2 171.0,43.0 165.8,42.0 160.6,41.4 155.3,40.9 150.0,40.8 144.7,40.9 139.4,41.4 134.2,42.0 129.0,43.0 123.8,44.2 118.7,45.8 113.7,47.5 108.8,49.5 104.1,51.8 99.4,54.4 94.9,57.1 90.5,60.1 86.3,63.4 82.3,66.8 78.4,70.4 74.8,74.3 71.4,78.3 68.1,82.5 65.1,86.9 62.4,91.4 59.8,96.1 57.5,100.8 55.5,105.7 53.8,110.7 52.2,115.8 51.0,121.0 50.0,126.2 49.4,131.4 48.9,136.7 48.8,142.0 48.9,147.3 49.4,152.6 50.0,157.8 51.0,163.0 52.2,168.2 53.8,173.3 55.5,178.3 57.5,183.2 59.8,187.9 62.4,192.6 65.1,197.1 68.1,201.5 71.4,205.7 74.8,209.7 78.4,213.6 82.3,217.2 86.3,220.6 90.5,223.9 94.9,226.9 99.4,229.6 104.1,232.2 108.8,234.5 113.7,236.5 118.7,238.2 123.8,239.8 129.0,241.0 134.2,242.0 139.4,242.6 144.7,243.1 150.0,243.2 155.3,243.1 160.6,242.6 165.8,242.0 171.0,241.0 176.2,239.8 181.3,238.2 186.3,236.5 191.2,234.5 195.9,232.2 200.6,229.6 205.1,226.9 209.5,223.9 213.7,220.6 217.7,217.2 221.6,213.6 225.2,209.7 228.6,205.7 231.9,201.5 234.9,197.1 237.6,192.6 240.2,187.9 242.5,183.2 244.5,178.3 246.2,173.3 247.8,168.2 249.0,163.0 250.0,157.8 250.6,152.6 251.1,147.3" fill="#e2e2e2" stroke="#000" stroke-width="1.6" stroke-linejoin="round"/>
<polygon points="224.8,142.0 224.7,138.1 224.4,134.2 223.9,130.3 223.2,126.4 222.3,122.6 221.1,118.9 219.8,115.2 218.3,111.6 216.6,108.0 214.8,104.6 212.7,101.3 210.5,98.0 208.1,94.9 205.6,91.9 202.9,89.1 200.1,86.4 197.1,83.9 194.0,81.5 190.7,79.3 187.4,77.2 184.0,75.4 180.4,73.7 176.8,72.2 173.1,70.9 169.4,69.7 165.6,68.8 161.7,68.1 157.8,67.6 153.9,67.3 150.0,67.2 146.1,67.3 142.2,67.6 138.3,68.1 134.4,68.8 130.6,69.7 126.9,70.9 123.2,72.2 119.6,73.7 116.0,75.4 112.6,77.2 109.3,79.3 106.0,81.5 102.9,83.9 99.9,86.4 97.1,89.1 94.4,91.9 91.9,94.9 89.5,98.0 87.3,101.3 85.2,104.6 83.4,108.0 81.7,111.6 80.2,115.2 78.9,118.9 77.7,122.6 76.8,126.4 76.1,130.3 75.6,134.2 75.3,138.1 75.2,142.0 75.3,145.9 75.6,149.8 76.1,153.7 76.8,157.6 77.7,161.4 78.9,165.1 80.2,168.8 81.7,172.4 83.4,176.0 85.2,179.4 87.3,182.7 89.5,186.0 91.9,189.1 94.4,192.1 97.1,194.9 99.9,197.6 102.9,200.1 106.0,202.5 109.3,204.7 112.6,206.8 116.0,208.6 119.6,210.3 123.2,211.8 126.9,213.1 130.6,214.3 134.4,215.2 138.3,215.9 142.2,216.4 146.1,216.7 150.0,216.8 153.9,216.7 157.8,216.4 161.7,215.9 165.6,215.2 169.4,214.3 173.1,213.1 176.8,211.8 180.4,210.3 184.0,208.6 187.4,206.8 190.7,204.7 194.0,202.5 197.1,200.1 200.1,197.6 202.9,194.9 205.6,192.1 208.1,189.1 210.5,186.0 212.7,182.7 214.8,179.4 216.6,176.0 218.3,172.4 219.8,168.8 221.1,165.1 222.3,161.4 223.2,157.6 223.9,153.7 224.4,149.8 224.7,145.9" fill="#fff" stroke="#000" stroke-width="1.6" stroke-linejoin="round"/>
<polygon points="238.0,142.0 237.9,137.4 237.5,132.8 236.9,128.2 236.1,123.7 235.0,119.2 233.7,114.8 232.2,110.5 230.4,106.2 228.4,102.0 226.2,98.0 223.8,94.1 221.2,90.3 218.4,86.6 215.4,83.1 212.2,79.8 208.9,76.6 205.4,73.6 201.7,70.8 197.9,68.2 194.0,65.8 190.0,63.6 185.8,61.6 181.5,59.8 177.2,58.3 172.8,57.0 168.3,55.9 163.8,55.1 159.2,54.5 154.6,54.1 150.0,54.0 145.4,54.1 140.8,54.5 136.2,55.1 131.7,55.9 127.2,57.0 122.8,58.3 118.5,59.8 114.2,61.6 110.0,63.6 106.0,65.8 102.1,68.2 98.3,70.8 94.6,73.6 91.1,76.6 87.8,79.8 84.6,83.1 81.6,86.6 78.8,90.3 76.2,94.1 73.8,98.0 71.6,102.0 69.6,106.2 67.8,110.5 66.3,114.8 65.0,119.2 63.9,123.7 63.1,128.2 62.5,132.8 62.1,137.4 62.0,142.0 62.1,146.6 62.5,151.2 63.1,155.8 63.9,160.3 65.0,164.8 66.3,169.2 67.8,173.5 69.6,177.8 71.6,182.0 73.8,186.0 76.2,189.9 78.8,193.7 81.6,197.4 84.6,200.9 87.8,204.2 91.1,207.4 94.6,210.4 98.3,213.2 102.1,215.8 106.0,218.2 110.0,220.4 114.2,222.4 118.5,224.2 122.8,225.7 127.2,227.0 131.7,228.1 136.2,228.9 140.8,229.5 145.4,229.9 150.0,230.0 154.6,229.9 159.2,229.5 163.8,228.9 168.3,228.1 172.8,227.0 177.2,225.7 181.5,224.2 185.8,222.4 190.0,220.4 194.0,218.2 197.9,215.8 201.7,213.2 205.4,210.4 208.9,207.4 212.2,204.2 215.4,200.9 218.4,197.4 221.2,193.7 223.8,189.9 226.2,186.0 228.4,182.0 230.4,177.8 232.2,173.5 233.7,169.2 235.0,164.8 236.1,160.3 236.9,155.8 237.5,151.2 237.9,146.6" fill="none" stroke="#000" stroke-width="1.1" stroke-linejoin="round" stroke-dasharray="6 4"/>
<text x="161.0" y="132.1" font-size="12" text-anchor="middle">池</text>
<circle cx="150.0" cy="142.0" r="2.2" fill="#000"/>
<line x1="150.0" y1="142.0" x2="93.6" y2="181.5" stroke="#000" stroke-width="1.1"/>
<polygon points="88.7,184.9 92.1,179.3 95.2,183.7" fill="#000"/>
<text x="112.3" y="159.6" font-size="13" text-anchor="end">r</text>
<line x1="224.8" y1="126.6" x2="251.2" y2="126.6" stroke="#000" stroke-width="0.9"/>
<line x1="224.8" y1="123.4" x2="224.8" y2="129.8" stroke="#000" stroke-width="0.9"/>
<line x1="251.2" y1="123.4" x2="251.2" y2="129.8" stroke="#000" stroke-width="0.9"/>
<text x="239.0" y="119.6" font-size="13" text-anchor="middle">a</text>
<text x="263.2" y="96.0" font-size="11" text-anchor="start">点線＝道の真ん中を</text>
<text x="263.2" y="112.0" font-size="11" text-anchor="start">通る円（半径 r＋a/2）</text>
<text x="263.2" y="128.0" font-size="11" text-anchor="start">——円周が ℓ</text>
<line x1="150.0" y1="258.6" x2="251.2" y2="258.6" stroke="#000" stroke-width="0.9"/>
<line x1="150.0" y1="254.6" x2="150.0" y2="262.6" stroke="#000" stroke-width="0.9"/>
<line x1="251.2" y1="254.6" x2="251.2" y2="262.6" stroke="#000" stroke-width="0.9"/>
<text x="200.6" y="282.7" font-size="13" text-anchor="middle">r＋a</text>
<text x="215.0" y="312.0" font-size="12" text-anchor="middle">半径 r の円形の池のまわりに，はば a の道が一周（練習4）</text>
<text x="215.0" y="330.0" font-size="12" text-anchor="middle">道（網かけ）の面積 S を r, a で表す——円でも S＝aℓ は成り立つ？</text>
</svg>
