<svg xmlns="http://www.w3.org/2000/svg" viewBox="0 0 560 356">
<title>正方形の花だんと道（p可変の比較つき）</title>
<desc>【この図の意図】導入の場面図＋外部批判レビュー（裁定）対応の比較パネル（同じaでpを変えるとℓが変わる）。【主要な数値・設定】p=3.0/4.4（同一スケール比較）, a=0.8・道=淡グレー・真ん中の一周=破線。【AIに同じ種類の図を描かせるときの説明文】「正方形の花だんと道（p可変の比較つき）。導入の場面図＋外部批判レビュー（裁定）対応の比較パネル（同じaでpを変えるとℓが変わる）。数値・設定: p=3.0/4.4（同一スケール比較）, a=0.8・道=淡グレー・真ん中の一周=破線。白黒印刷向けのシンプルな教材図（SVG）としてかいて。」——この説明文を生成AIに渡せば同型の図を描かせられる。数値を変えれば類題用の図も作れる。</desc>
<!-- L11_fig1_square_path.svg | 正方形の花だんと道（p可変の比較つき） -->
<!-- generated by assets_provenance/generate_figures.py on 2026-07-17 (docs/SPEC_figures.md準拠（内部規約の要旨は同SPECに反映済み）・SVG直接編集禁止/スクリプト改修で再生成) -->
<rect x="0" y="0" width="560" height="356" fill="#fff"/>
<polygon points="40.0,262.0 159.6,262.0 159.6,142.4 40.0,142.4" fill="#e2e2e2" stroke="#000" stroke-width="1.6" stroke-linejoin="round"/>
<polygon points="60.8,241.2 138.8,241.2 138.8,163.2 60.8,163.2" fill="#fff" stroke="#000" stroke-width="1.6" stroke-linejoin="round"/>
<polygon points="50.4,251.6 149.2,251.6 149.2,152.8 50.4,152.8" fill="none" stroke="#000" stroke-width="1.1" stroke-linejoin="round" stroke-dasharray="6 4"/>
<text x="99.8" y="192.4" font-size="12" text-anchor="middle">花だん</text>
<line x1="138.8" y1="189.2" x2="159.6" y2="189.2" stroke="#000" stroke-width="0.9"/>
<line x1="138.8" y1="186.0" x2="138.8" y2="192.4" stroke="#000" stroke-width="0.9"/>
<line x1="159.6" y1="186.0" x2="159.6" y2="192.4" stroke="#000" stroke-width="0.9"/>
<text x="151.2" y="183.2" font-size="13" text-anchor="middle">a</text>
<text x="99.8" y="236.7" font-size="13" text-anchor="middle">p</text>
<line x1="40.0" y1="276.3" x2="159.6" y2="276.3" stroke="#000" stroke-width="0.9"/>
<line x1="40.0" y1="272.3" x2="40.0" y2="280.3" stroke="#000" stroke-width="0.9"/>
<line x1="159.6" y1="272.3" x2="159.6" y2="280.3" stroke="#000" stroke-width="0.9"/>
<text x="99.8" y="300.4" font-size="13" text-anchor="middle">p＋2a</text>
<polygon points="250.0,262.0 406.0,262.0 406.0,106.0 250.0,106.0" fill="#e2e2e2" stroke="#000" stroke-width="1.6" stroke-linejoin="round"/>
<polygon points="270.8,241.2 385.2,241.2 385.2,126.8 270.8,126.8" fill="#fff" stroke="#000" stroke-width="1.6" stroke-linejoin="round"/>
<polygon points="260.4,251.6 395.6,251.6 395.6,116.4 260.4,116.4" fill="none" stroke="#000" stroke-width="1.1" stroke-linejoin="round" stroke-dasharray="6 4"/>
<text x="328.0" y="167.6" font-size="12" text-anchor="middle">花だん</text>
<line x1="385.2" y1="171.0" x2="406.0" y2="171.0" stroke="#000" stroke-width="0.9"/>
<line x1="385.2" y1="167.8" x2="385.2" y2="174.2" stroke="#000" stroke-width="0.9"/>
<line x1="406.0" y1="167.8" x2="406.0" y2="174.2" stroke="#000" stroke-width="0.9"/>
<text x="397.6" y="165.0" font-size="13" text-anchor="middle">a</text>
<text x="328.0" y="296.0" font-size="12" text-anchor="middle">1辺 p を大きく（a は同じ）</text>
<text x="420.0" y="120.0" font-size="11" text-anchor="start">点線＝道の真ん中を</text>
<text x="420.0" y="136.0" font-size="11" text-anchor="start">通る一周（長さ ℓ・</text>
<text x="420.0" y="152.0" font-size="11" text-anchor="start">1辺 p＋a の正方形）</text>
<text x="280.0" y="324.0" font-size="12" text-anchor="middle">1辺 p の花だんのまわりに，はば a の道が一周。道（網かけ）の面積が S</text>
<text x="280.0" y="342.0" font-size="12" text-anchor="middle">p が変わると，道の真ん中の一周 ℓ も変わる——S と ℓ の関係は？</text>
</svg>
