<svg xmlns="http://www.w3.org/2000/svg" viewBox="0 0 430 324">
<title>正方形と縦x＋2・横x−2の長方形の並置（練習1）</title>
<desc>【この図の意図】練習1の場面図。面積の差は不記載・「？」表記。【主要な数値・設定】x=4で描画（x&gt;2なら任意）・向き=本文どおり縦がx＋2。【AIに同じ種類の図を描かせるときの説明文】「正方形と縦x＋2・横x−2の長方形の並置（練習1）。練習1の場面図。面積の差は不記載・「？」表記。数値・設定: x=4で描画（x&gt;2なら任意）・向き=本文どおり縦がx＋2。白黒印刷向けのシンプルな教材図（SVG）としてかいて。」——この説明文を生成AIに渡せば同型の図を描かせられる。数値を変えれば類題用の図も作れる。</desc>
<!-- L11_fig2_square_vs_rectangle.svg | 正方形と縦x＋2・横x−2の長方形の並置（練習1） -->
<!-- generated by assets_provenance/generate_figures.py on 2026-07-17 (docs/SPEC_figures.md準拠（内部規約の要旨は同SPECに反映済み）・SVG直接編集禁止/スクリプト改修で再生成) -->
<rect x="0" y="0" width="430" height="324" fill="#fff"/>
<polygon points="70.0,226.0 174.0,226.0 174.0,122.0 70.0,122.0" fill="none" stroke="#000" stroke-width="1.6" stroke-linejoin="round"/>
<line x1="70.0" y1="239.0" x2="174.0" y2="239.0" stroke="#000" stroke-width="0.9"/>
<line x1="70.0" y1="235.0" x2="70.0" y2="243.0" stroke="#000" stroke-width="0.9"/>
<line x1="174.0" y1="235.0" x2="174.0" y2="243.0" stroke="#000" stroke-width="0.9"/>
<text x="122.0" y="263.1" font-size="13" text-anchor="middle">x</text>
<line x1="57.0" y1="226.0" x2="57.0" y2="122.0" stroke="#000" stroke-width="0.9"/>
<line x1="53.0" y1="226.0" x2="61.0" y2="226.0" stroke="#000" stroke-width="0.9"/>
<line x1="53.0" y1="122.0" x2="61.0" y2="122.0" stroke="#000" stroke-width="0.9"/>
<text x="49.2" y="178.6" font-size="13" text-anchor="end">x</text>
<text x="122.0" y="106.3" font-size="12" text-anchor="middle">もとの正方形</text>
<polygon points="260.0,226.0 312.0,226.0 312.0,70.0 260.0,70.0" fill="none" stroke="#000" stroke-width="1.6" stroke-linejoin="round"/>
<line x1="260.0" y1="239.0" x2="312.0" y2="239.0" stroke="#000" stroke-width="0.9"/>
<line x1="260.0" y1="235.0" x2="260.0" y2="243.0" stroke="#000" stroke-width="0.9"/>
<line x1="312.0" y1="235.0" x2="312.0" y2="243.0" stroke="#000" stroke-width="0.9"/>
<text x="286.0" y="263.1" font-size="13" text-anchor="middle">x−2</text>
<line x1="325.0" y1="226.0" x2="325.0" y2="70.0" stroke="#000" stroke-width="0.9"/>
<line x1="321.0" y1="226.0" x2="329.0" y2="226.0" stroke="#000" stroke-width="0.9"/>
<line x1="321.0" y1="70.0" x2="329.0" y2="70.0" stroke="#000" stroke-width="0.9"/>
<text x="332.8" y="152.6" font-size="13" text-anchor="start">x＋2</text>
<text x="286.0" y="54.3" font-size="12" text-anchor="middle">長方形</text>
<line x1="190.0" y1="130.0" x2="231.0" y2="130.0" stroke="#000" stroke-width="1.6"/>
<polygon points="240.0,130.0 231.0,134.1 231.0,126.0" fill="#000"/>
<text x="215.0" y="114.0" font-size="11" text-anchor="middle">縦＋2</text>
<text x="215.0" y="148.0" font-size="11" text-anchor="middle">横−2</text>
<text x="215.0" y="288.0" font-size="12" text-anchor="middle">1辺 x の正方形の縦を2cmのばし，横を2cm縮める（練習1）</text>
<text x="215.0" y="306.0" font-size="12" text-anchor="middle">面積はもとの正方形と比べてどうなる？（差＝？）</text>
</svg>
