<svg xmlns="http://www.w3.org/2000/svg" viewBox="0 0 430 326">
<title>長方形の花だんと道（練習3）</title>
<desc>【この図の意図】練習3の場面図。S・ℓの式と S＝aℓ は不記載（設問が問う）。【主要な数値・設定】p=2.6, q=4.0, a=0.7（描画比率）・道=淡グレー・真ん中の一周=破線。【AIに同じ種類の図を描かせるときの説明文】「長方形の花だんと道（練習3）。練習3の場面図。S・ℓの式と S＝aℓ は不記載（設問が問う）。数値・設定: p=2.6, q=4.0, a=0.7（描画比率）・道=淡グレー・真ん中の一周=破線。白黒印刷向けのシンプルな教材図（SVG）としてかいて。」——この説明文を生成AIに渡せば同型の図を描かせられる。数値を変えれば類題用の図も作れる。</desc>
<!-- L11_fig3_rect_path.svg | 長方形の花だんと道（練習3） -->
<!-- generated by assets_provenance/generate_figures.py on 2026-07-17 (docs/SPEC_figures.md準拠（内部規約の要旨は同SPECに反映済み）・SVG直接編集禁止/スクリプト改修で再生成) -->
<rect x="0" y="0" width="430" height="326" fill="#fff"/>
<polygon points="70.0,236.0 232.0,236.0 232.0,116.0 70.0,116.0" fill="#e2e2e2" stroke="#000" stroke-width="1.6" stroke-linejoin="round"/>
<polygon points="91.0,215.0 211.0,215.0 211.0,137.0 91.0,137.0" fill="#fff" stroke="#000" stroke-width="1.6" stroke-linejoin="round"/>
<polygon points="80.5,225.5 221.5,225.5 221.5,126.5 80.5,126.5" fill="none" stroke="#000" stroke-width="1.1" stroke-linejoin="round" stroke-dasharray="6 4"/>
<text x="141.4" y="170.8" font-size="12" text-anchor="middle">花だん</text>
<text x="151.0" y="210.6" font-size="13" text-anchor="middle">q</text>
<text x="202.6" y="180.6" font-size="13" text-anchor="middle">p</text>
<line x1="70.0" y1="251.0" x2="232.0" y2="251.0" stroke="#000" stroke-width="0.9"/>
<line x1="70.0" y1="247.0" x2="70.0" y2="255.0" stroke="#000" stroke-width="0.9"/>
<line x1="232.0" y1="247.0" x2="232.0" y2="255.0" stroke="#000" stroke-width="0.9"/>
<text x="151.0" y="275.1" font-size="13" text-anchor="middle">q＋2a</text>
<line x1="55.0" y1="236.0" x2="55.0" y2="116.0" stroke="#000" stroke-width="0.9"/>
<line x1="51.0" y1="236.0" x2="59.0" y2="236.0" stroke="#000" stroke-width="0.9"/>
<line x1="51.0" y1="116.0" x2="59.0" y2="116.0" stroke="#000" stroke-width="0.9"/>
<text x="47.2" y="180.6" font-size="13" text-anchor="end">p＋2a</text>
<line x1="211.0" y1="164.0" x2="232.0" y2="164.0" stroke="#000" stroke-width="0.9"/>
<line x1="211.0" y1="160.8" x2="211.0" y2="167.2" stroke="#000" stroke-width="0.9"/>
<line x1="232.0" y1="160.8" x2="232.0" y2="167.2" stroke="#000" stroke-width="0.9"/>
<text x="223.5" y="158.0" font-size="13" text-anchor="middle">a</text>
<text x="248.0" y="120.0" font-size="11" text-anchor="start">点線＝道の真ん中を</text>
<text x="248.0" y="136.0" font-size="11" text-anchor="start">通る一周（長さ ℓ）</text>
<text x="215.0" y="290.0" font-size="12" text-anchor="middle">縦 p・横 q の花だんのまわりに，はば a の道が一周（練習3）</text>
<text x="215.0" y="308.0" font-size="12" text-anchor="middle">道（網かけ）の面積 S と真ん中の一周 ℓ を式で表す——S と aℓ の関係は？</text>
</svg>
