<svg xmlns="http://www.w3.org/2000/svg" viewBox="0 0 430 326">
<title>ふたのない箱の展開図（四すみを切り取る・問13）</title>
<desc>【この図の意図】問13の場面図。残りの面積の式（展開形・因数分解形とも）は不記載。【主要な数値・設定】x=5, a=1で描画（2a&lt;x なら任意）・十字形=淡グレー。【AIに同じ種類の図を描かせるときの説明文】「ふたのない箱の展開図（四すみを切り取る・問13）。問13の場面図。残りの面積の式（展開形・因数分解形とも）は不記載。数値・設定: x=5, a=1で描画（2a&lt;x なら任意）・十字形=淡グレー。白黒印刷向けのシンプルな教材図（SVG）としてかいて。」——この説明文を生成AIに渡せば同型の図を描かせられる。数値を変えれば類題用の図も作れる。</desc>
<!-- L12_fig1_box_net.svg | ふたのない箱の展開図（四すみを切り取る・問13） -->
<!-- generated by assets_provenance/generate_figures.py on 2026-07-17 (docs/SPEC_figures.md準拠（内部規約の要旨は同SPECに反映済み）・SVG直接編集禁止/スクリプト改修で再生成) -->
<rect x="0" y="0" width="430" height="326" fill="#fff"/>
<polygon points="120.0,230.0 210.0,230.0 210.0,200.0 240.0,200.0 240.0,110.0 210.0,110.0 210.0,80.0 120.0,80.0 120.0,110.0 90.0,110.0 90.0,200.0 120.0,200.0" fill="#e2e2e2" stroke="#000" stroke-width="1.6" stroke-linejoin="round"/>
<polygon points="90.0,230.0 120.0,230.0 120.0,200.0 90.0,200.0" fill="none" stroke="#000" stroke-width="1.1" stroke-linejoin="round" stroke-dasharray="2 3"/>
<polygon points="210.0,230.0 240.0,230.0 240.0,200.0 210.0,200.0" fill="none" stroke="#000" stroke-width="1.1" stroke-linejoin="round" stroke-dasharray="2 3"/>
<polygon points="90.0,110.0 120.0,110.0 120.0,80.0 90.0,80.0" fill="none" stroke="#000" stroke-width="1.1" stroke-linejoin="round" stroke-dasharray="2 3"/>
<polygon points="210.0,110.0 240.0,110.0 240.0,80.0 210.0,80.0" fill="none" stroke="#000" stroke-width="1.1" stroke-linejoin="round" stroke-dasharray="2 3"/>
<polygon points="120.0,200.0 210.0,200.0 210.0,110.0 120.0,110.0" fill="none" stroke="#000" stroke-width="1.1" stroke-linejoin="round" stroke-dasharray="6 4"/>
<line x1="90.0" y1="245.0" x2="240.0" y2="245.0" stroke="#000" stroke-width="0.9"/>
<line x1="90.0" y1="241.0" x2="90.0" y2="249.0" stroke="#000" stroke-width="0.9"/>
<line x1="240.0" y1="241.0" x2="240.0" y2="249.0" stroke="#000" stroke-width="0.9"/>
<text x="165.0" y="269.1" font-size="13" text-anchor="middle">x</text>
<line x1="75.0" y1="230.0" x2="75.0" y2="80.0" stroke="#000" stroke-width="0.9"/>
<line x1="71.0" y1="230.0" x2="79.0" y2="230.0" stroke="#000" stroke-width="0.9"/>
<line x1="71.0" y1="80.0" x2="79.0" y2="80.0" stroke="#000" stroke-width="0.9"/>
<text x="67.2" y="159.6" font-size="13" text-anchor="end">x</text>
<line x1="210.0" y1="68.0" x2="240.0" y2="68.0" stroke="#000" stroke-width="0.9"/>
<line x1="210.0" y1="64.0" x2="210.0" y2="72.0" stroke="#000" stroke-width="0.9"/>
<line x1="240.0" y1="64.0" x2="240.0" y2="72.0" stroke="#000" stroke-width="0.9"/>
<text x="225.0" y="61.5" font-size="13" text-anchor="middle">a</text>
<line x1="252.0" y1="110.0" x2="252.0" y2="80.0" stroke="#000" stroke-width="0.9"/>
<line x1="248.0" y1="110.0" x2="256.0" y2="110.0" stroke="#000" stroke-width="0.9"/>
<line x1="248.0" y1="80.0" x2="256.0" y2="80.0" stroke="#000" stroke-width="0.9"/>
<text x="259.8" y="99.5" font-size="13" text-anchor="start">a</text>
<text x="282.5" y="71.0" font-size="11" text-anchor="start">四すみの正方形</text>
<text x="282.5" y="86.0" font-size="11" text-anchor="start">（1辺 a）を切り取る</text>
<line x1="286.5" y1="91.0" x2="249.4" y2="99.8" stroke="#000" stroke-width="1.0"/>
<polygon points="244.5,101.0 248.8,97.7 249.9,102.0" fill="#000"/>
<text x="215.0" y="286.0" font-size="12" text-anchor="middle">1辺 x の正方形の紙の四すみから，1辺 a の正方形を4つ切り取る（問13）</text>
<text x="215.0" y="304.0" font-size="12" text-anchor="middle">残り（網かけの十字形）の面積は？　点線＝切り取り線，破線＝箱の折り目</text>
</svg>
