<svg xmlns="http://www.w3.org/2000/svg" viewBox="0 0 480 260" role="img">
<title>A班の上体起こし回数——ドットプロットと箱ひげ図（同じ数直線）</title>
<desc>L02主概念1の実測図。横軸10〜32回の同じ数直線の上に、A班16人のドットプロット（1人1点・同じ値の18は縦に2点積む）と、その真下に箱ひげ図を並べた。箱は第1四分位数16.5から第3四分位数23.5まで、中央値19.5の縦線入り。箱の区間の真上にあるドットが数えられる配置で、「箱=真ん中の約半数」を自分の目で数えて確かめる。五数は生データから教科書方式で再計算し本文と一致をassert検算済み（箱の中8人も検算。右ひげ側の人数は練習の答えのため記載しない）。再現指示: 同じ横軸の上段にドットプロット・下段に箱ひげ図を描き、五数の数値ラベルは打たない。白黒のみ。</desc>
<!-- L02_fig1_dotplot_boxplot_a.svg | A班の上体起こし回数——ドットプロットと箱ひげ図（同じ数直線） -->
<!-- generated by assets_provenance/generate_figures.py on 2026-07-18 (docs/SPEC_figures.md準拠・AI再利用メタ情報つき・SVG直接編集禁止/スクリプト改修で再生成) -->
<rect x="0" y="0" width="480" height="260" fill="#fff"/>
<line x1="55.0" y1="205.0" x2="445.0" y2="205.0" stroke="#000" stroke-width="1.2"/>
<line x1="55.0" y1="199.0" x2="55.0" y2="211.0" stroke="#000" stroke-width="0.9"/>
<line x1="72.7" y1="201.5" x2="72.7" y2="208.5" stroke="#000" stroke-width="0.9"/>
<line x1="90.5" y1="201.5" x2="90.5" y2="208.5" stroke="#000" stroke-width="0.9"/>
<line x1="108.2" y1="201.5" x2="108.2" y2="208.5" stroke="#000" stroke-width="0.9"/>
<line x1="125.9" y1="201.5" x2="125.9" y2="208.5" stroke="#000" stroke-width="0.9"/>
<line x1="143.6" y1="199.0" x2="143.6" y2="211.0" stroke="#000" stroke-width="0.9"/>
<line x1="161.4" y1="201.5" x2="161.4" y2="208.5" stroke="#000" stroke-width="0.9"/>
<line x1="179.1" y1="201.5" x2="179.1" y2="208.5" stroke="#000" stroke-width="0.9"/>
<line x1="196.8" y1="201.5" x2="196.8" y2="208.5" stroke="#000" stroke-width="0.9"/>
<line x1="214.5" y1="201.5" x2="214.5" y2="208.5" stroke="#000" stroke-width="0.9"/>
<line x1="232.3" y1="199.0" x2="232.3" y2="211.0" stroke="#000" stroke-width="0.9"/>
<line x1="250.0" y1="201.5" x2="250.0" y2="208.5" stroke="#000" stroke-width="0.9"/>
<line x1="267.7" y1="201.5" x2="267.7" y2="208.5" stroke="#000" stroke-width="0.9"/>
<line x1="285.5" y1="201.5" x2="285.5" y2="208.5" stroke="#000" stroke-width="0.9"/>
<line x1="303.2" y1="201.5" x2="303.2" y2="208.5" stroke="#000" stroke-width="0.9"/>
<line x1="320.9" y1="199.0" x2="320.9" y2="211.0" stroke="#000" stroke-width="0.9"/>
<line x1="338.6" y1="201.5" x2="338.6" y2="208.5" stroke="#000" stroke-width="0.9"/>
<line x1="356.4" y1="201.5" x2="356.4" y2="208.5" stroke="#000" stroke-width="0.9"/>
<line x1="374.1" y1="201.5" x2="374.1" y2="208.5" stroke="#000" stroke-width="0.9"/>
<line x1="391.8" y1="201.5" x2="391.8" y2="208.5" stroke="#000" stroke-width="0.9"/>
<line x1="409.5" y1="199.0" x2="409.5" y2="211.0" stroke="#000" stroke-width="0.9"/>
<line x1="427.3" y1="201.5" x2="427.3" y2="208.5" stroke="#000" stroke-width="0.9"/>
<line x1="445.0" y1="201.5" x2="445.0" y2="208.5" stroke="#000" stroke-width="0.9"/>
<text x="55.0" y="223.0" font-size="11" text-anchor="middle">10</text>
<text x="143.6" y="223.0" font-size="11" text-anchor="middle">15</text>
<text x="232.3" y="223.0" font-size="11" text-anchor="middle">20</text>
<text x="320.9" y="223.0" font-size="11" text-anchor="middle">25</text>
<text x="409.5" y="223.0" font-size="11" text-anchor="middle">30</text>
<circle cx="90.5" cy="108.0" r="3.0" fill="#000"/>
<circle cx="125.9" cy="108.0" r="3.0" fill="#000"/>
<circle cx="143.6" cy="108.0" r="3.0" fill="#000"/>
<circle cx="161.4" cy="108.0" r="3.0" fill="#000"/>
<circle cx="179.1" cy="108.0" r="3.0" fill="#000"/>
<circle cx="196.8" cy="108.0" r="3.0" fill="#000"/>
<circle cx="196.8" cy="99.5" r="3.0" fill="#000"/>
<circle cx="214.5" cy="108.0" r="3.0" fill="#000"/>
<circle cx="232.3" cy="108.0" r="3.0" fill="#000"/>
<circle cx="250.0" cy="108.0" r="3.0" fill="#000"/>
<circle cx="267.7" cy="108.0" r="3.0" fill="#000"/>
<circle cx="285.5" cy="108.0" r="3.0" fill="#000"/>
<circle cx="303.2" cy="108.0" r="3.0" fill="#000"/>
<circle cx="338.6" cy="108.0" r="3.0" fill="#000"/>
<circle cx="374.1" cy="108.0" r="3.0" fill="#000"/>
<circle cx="427.3" cy="108.0" r="3.0" fill="#000"/>
<line x1="90.5" y1="160.0" x2="170.2" y2="160.0" stroke="#000" stroke-width="1.6"/>
<line x1="294.3" y1="160.0" x2="427.3" y2="160.0" stroke="#000" stroke-width="1.6"/>
<line x1="90.5" y1="151.7" x2="90.5" y2="168.3" stroke="#000" stroke-width="1.6"/>
<line x1="427.3" y1="151.7" x2="427.3" y2="168.3" stroke="#000" stroke-width="1.6"/>
<rect x="170.2" y="147.0" width="124.1" height="26.0" fill="none" stroke="#000" stroke-width="1.6"/>
<line x1="223.4" y1="147.0" x2="223.4" y2="173.0" stroke="#000" stroke-width="1.6"/>
<text x="34.0" y="112.0" font-size="12" text-anchor="middle" font-weight="bold">A班</text>
<text x="250.0" y="30.0" font-size="13" text-anchor="middle" font-weight="bold">A班の上体起こしの回数——ドットプロットと箱ひげ図</text>
<text x="250.0" y="56.0" font-size="12" text-anchor="middle">箱の区間の真上にあるドットを数えてみよう</text>
<text x="250.0" y="244.0" font-size="11" text-anchor="middle">横軸: 回数（回）・16人（架空の練習用データ）</text>
</svg>
