<svg xmlns="http://www.w3.org/2000/svg" viewBox="0 0 480 360" role="img">
<title>A班とB班の上体起こし回数——ドットプロットつき箱ひげ図の比較（4段）</title>
<desc>L02主概念2の反証図。同じ数直線（10〜32回）の上に、上からA班ドットプロット・A班箱ひげ図・B班ドットプロット・B班箱ひげ図の4段を並べた。A班の箱（16.5〜23.5）はB班の箱（18〜21）より明らかに長いが、それぞれの上のドットプロットの点はどちらも16個ある——「箱が長い＝人数が多い」の誤読を、ドットを数えて反証する。両班の五数は生データから教科書方式で再計算し本文と一致をassert検算済み。再現指示: 同じ横軸に2班分のドットプロット＋箱ひげ図を4段で描き、五数の数値ラベルは打たない。白黒のみ。</desc>
<!-- L02_fig2_ab_dotplot_boxplot.svg | A班とB班の上体起こし回数——ドットプロットつき箱ひげ図の比較（4段） -->
<!-- generated by assets_provenance/generate_figures.py on 2026-07-18 (docs/SPEC_figures.md準拠・AI再利用メタ情報つき・SVG直接編集禁止/スクリプト改修で再生成) -->
<rect x="0" y="0" width="480" height="360" fill="#fff"/>
<line x1="55.0" y1="305.0" x2="445.0" y2="305.0" stroke="#000" stroke-width="1.2"/>
<line x1="55.0" y1="299.0" x2="55.0" y2="311.0" stroke="#000" stroke-width="0.9"/>
<line x1="72.7" y1="301.5" x2="72.7" y2="308.5" stroke="#000" stroke-width="0.9"/>
<line x1="90.5" y1="301.5" x2="90.5" y2="308.5" stroke="#000" stroke-width="0.9"/>
<line x1="108.2" y1="301.5" x2="108.2" y2="308.5" stroke="#000" stroke-width="0.9"/>
<line x1="125.9" y1="301.5" x2="125.9" y2="308.5" stroke="#000" stroke-width="0.9"/>
<line x1="143.6" y1="299.0" x2="143.6" y2="311.0" stroke="#000" stroke-width="0.9"/>
<line x1="161.4" y1="301.5" x2="161.4" y2="308.5" stroke="#000" stroke-width="0.9"/>
<line x1="179.1" y1="301.5" x2="179.1" y2="308.5" stroke="#000" stroke-width="0.9"/>
<line x1="196.8" y1="301.5" x2="196.8" y2="308.5" stroke="#000" stroke-width="0.9"/>
<line x1="214.5" y1="301.5" x2="214.5" y2="308.5" stroke="#000" stroke-width="0.9"/>
<line x1="232.3" y1="299.0" x2="232.3" y2="311.0" stroke="#000" stroke-width="0.9"/>
<line x1="250.0" y1="301.5" x2="250.0" y2="308.5" stroke="#000" stroke-width="0.9"/>
<line x1="267.7" y1="301.5" x2="267.7" y2="308.5" stroke="#000" stroke-width="0.9"/>
<line x1="285.5" y1="301.5" x2="285.5" y2="308.5" stroke="#000" stroke-width="0.9"/>
<line x1="303.2" y1="301.5" x2="303.2" y2="308.5" stroke="#000" stroke-width="0.9"/>
<line x1="320.9" y1="299.0" x2="320.9" y2="311.0" stroke="#000" stroke-width="0.9"/>
<line x1="338.6" y1="301.5" x2="338.6" y2="308.5" stroke="#000" stroke-width="0.9"/>
<line x1="356.4" y1="301.5" x2="356.4" y2="308.5" stroke="#000" stroke-width="0.9"/>
<line x1="374.1" y1="301.5" x2="374.1" y2="308.5" stroke="#000" stroke-width="0.9"/>
<line x1="391.8" y1="301.5" x2="391.8" y2="308.5" stroke="#000" stroke-width="0.9"/>
<line x1="409.5" y1="299.0" x2="409.5" y2="311.0" stroke="#000" stroke-width="0.9"/>
<line x1="427.3" y1="301.5" x2="427.3" y2="308.5" stroke="#000" stroke-width="0.9"/>
<line x1="445.0" y1="301.5" x2="445.0" y2="308.5" stroke="#000" stroke-width="0.9"/>
<text x="55.0" y="323.0" font-size="11" text-anchor="middle">10</text>
<text x="143.6" y="323.0" font-size="11" text-anchor="middle">15</text>
<text x="232.3" y="323.0" font-size="11" text-anchor="middle">20</text>
<text x="320.9" y="323.0" font-size="11" text-anchor="middle">25</text>
<text x="409.5" y="323.0" font-size="11" text-anchor="middle">30</text>
<circle cx="90.5" cy="88.0" r="3.0" fill="#000"/>
<circle cx="125.9" cy="88.0" r="3.0" fill="#000"/>
<circle cx="143.6" cy="88.0" r="3.0" fill="#000"/>
<circle cx="161.4" cy="88.0" r="3.0" fill="#000"/>
<circle cx="179.1" cy="88.0" r="3.0" fill="#000"/>
<circle cx="196.8" cy="88.0" r="3.0" fill="#000"/>
<circle cx="196.8" cy="79.5" r="3.0" fill="#000"/>
<circle cx="214.5" cy="88.0" r="3.0" fill="#000"/>
<circle cx="232.3" cy="88.0" r="3.0" fill="#000"/>
<circle cx="250.0" cy="88.0" r="3.0" fill="#000"/>
<circle cx="267.7" cy="88.0" r="3.0" fill="#000"/>
<circle cx="285.5" cy="88.0" r="3.0" fill="#000"/>
<circle cx="303.2" cy="88.0" r="3.0" fill="#000"/>
<circle cx="338.6" cy="88.0" r="3.0" fill="#000"/>
<circle cx="374.1" cy="88.0" r="3.0" fill="#000"/>
<circle cx="427.3" cy="88.0" r="3.0" fill="#000"/>
<line x1="90.5" y1="130.0" x2="170.2" y2="130.0" stroke="#000" stroke-width="1.6"/>
<line x1="294.3" y1="130.0" x2="427.3" y2="130.0" stroke="#000" stroke-width="1.6"/>
<line x1="90.5" y1="122.3" x2="90.5" y2="137.7" stroke="#000" stroke-width="1.6"/>
<line x1="427.3" y1="122.3" x2="427.3" y2="137.7" stroke="#000" stroke-width="1.6"/>
<rect x="170.2" y="118.0" width="124.1" height="24.0" fill="none" stroke="#000" stroke-width="1.6"/>
<line x1="223.4" y1="118.0" x2="223.4" y2="142.0" stroke="#000" stroke-width="1.6"/>
<circle cx="125.9" cy="218.0" r="3.0" fill="#000"/>
<circle cx="161.4" cy="218.0" r="3.0" fill="#000"/>
<circle cx="179.1" cy="218.0" r="3.0" fill="#000"/>
<circle cx="196.8" cy="218.0" r="3.0" fill="#000"/>
<circle cx="196.8" cy="209.5" r="3.0" fill="#000"/>
<circle cx="214.5" cy="218.0" r="3.0" fill="#000"/>
<circle cx="214.5" cy="209.5" r="3.0" fill="#000"/>
<circle cx="214.5" cy="201.0" r="3.0" fill="#000"/>
<circle cx="232.3" cy="218.0" r="3.0" fill="#000"/>
<circle cx="232.3" cy="209.5" r="3.0" fill="#000"/>
<circle cx="232.3" cy="201.0" r="3.0" fill="#000"/>
<circle cx="250.0" cy="218.0" r="3.0" fill="#000"/>
<circle cx="250.0" cy="209.5" r="3.0" fill="#000"/>
<circle cx="267.7" cy="218.0" r="3.0" fill="#000"/>
<circle cx="303.2" cy="218.0" r="3.0" fill="#000"/>
<circle cx="356.4" cy="218.0" r="3.0" fill="#000"/>
<line x1="125.9" y1="262.0" x2="196.8" y2="262.0" stroke="#000" stroke-width="1.6"/>
<line x1="250.0" y1="262.0" x2="356.4" y2="262.0" stroke="#000" stroke-width="1.6"/>
<line x1="125.9" y1="254.3" x2="125.9" y2="269.7" stroke="#000" stroke-width="1.6"/>
<line x1="356.4" y1="254.3" x2="356.4" y2="269.7" stroke="#000" stroke-width="1.6"/>
<rect x="196.8" y="250.0" width="53.2" height="24.0" fill="none" stroke="#000" stroke-width="1.6"/>
<line x1="223.4" y1="250.0" x2="223.4" y2="274.0" stroke="#000" stroke-width="1.6"/>
<text x="34.0" y="92.0" font-size="12" text-anchor="middle" font-weight="bold">A班</text>
<text x="34.0" y="222.0" font-size="12" text-anchor="middle" font-weight="bold">B班</text>
<text x="250.0" y="26.0" font-size="13" text-anchor="middle" font-weight="bold">A班とB班（各16人）——箱の長さは何を表す？</text>
<text x="250.0" y="344.0" font-size="11" text-anchor="middle">横軸: 上体起こしの回数（回）（架空の練習用データ）</text>
</svg>
