<svg xmlns="http://www.w3.org/2000/svg" viewBox="0 0 480 230" role="img">
<title>例1の4ブロック位置図（四分位数の区切りと「幅≠個数」）</title>
<desc>L03検算の型の可視化図。数直線上に例1の9個のデータ（7・10・13・16・20・22・25・28・31）を黒点と数値で置き、第1四分位数11.5・中央値20・第3四分位数26.5の位置に破線の区切りを立てた。区切りの間の4ブロックはどれも2個ずつ（中央値は除外）だが、数直線上の幅はバラバラ——「幅が広い＝個数が多い、ではない」を計算の側から見せる。五数・ブロック個数・幅はすべて生データから再計算してassert検算済み。再現指示: 数直線に9個の値を打点し、3本の破線区切りと各ブロック下の「2個」ラベルを添える。白黒のみ。</desc>
<!-- L03_fig2_quartile_blocks.svg | 例1の4ブロック位置図（四分位数の区切りと「幅≠個数」） -->
<!-- generated by assets_provenance/generate_figures.py on 2026-07-18 (docs/SPEC_figures.md準拠・AI再利用メタ情報つき・SVG直接編集禁止/スクリプト改修で再生成) -->
<rect x="0" y="0" width="480" height="230" fill="#fff"/>
<line x1="50.0" y1="130.0" x2="450.0" y2="130.0" stroke="#000" stroke-width="1.2"/>
<line x1="50.0" y1="126.5" x2="50.0" y2="133.5" stroke="#000" stroke-width="0.9"/>
<line x1="64.3" y1="126.5" x2="64.3" y2="133.5" stroke="#000" stroke-width="0.9"/>
<line x1="78.6" y1="126.5" x2="78.6" y2="133.5" stroke="#000" stroke-width="0.9"/>
<line x1="92.9" y1="126.5" x2="92.9" y2="133.5" stroke="#000" stroke-width="0.9"/>
<line x1="107.1" y1="126.5" x2="107.1" y2="133.5" stroke="#000" stroke-width="0.9"/>
<line x1="121.4" y1="126.5" x2="121.4" y2="133.5" stroke="#000" stroke-width="0.9"/>
<line x1="135.7" y1="126.5" x2="135.7" y2="133.5" stroke="#000" stroke-width="0.9"/>
<line x1="150.0" y1="126.5" x2="150.0" y2="133.5" stroke="#000" stroke-width="0.9"/>
<line x1="164.3" y1="126.5" x2="164.3" y2="133.5" stroke="#000" stroke-width="0.9"/>
<line x1="178.6" y1="126.5" x2="178.6" y2="133.5" stroke="#000" stroke-width="0.9"/>
<line x1="192.9" y1="126.5" x2="192.9" y2="133.5" stroke="#000" stroke-width="0.9"/>
<line x1="207.1" y1="126.5" x2="207.1" y2="133.5" stroke="#000" stroke-width="0.9"/>
<line x1="221.4" y1="126.5" x2="221.4" y2="133.5" stroke="#000" stroke-width="0.9"/>
<line x1="235.7" y1="126.5" x2="235.7" y2="133.5" stroke="#000" stroke-width="0.9"/>
<line x1="250.0" y1="126.5" x2="250.0" y2="133.5" stroke="#000" stroke-width="0.9"/>
<line x1="264.3" y1="126.5" x2="264.3" y2="133.5" stroke="#000" stroke-width="0.9"/>
<line x1="278.6" y1="126.5" x2="278.6" y2="133.5" stroke="#000" stroke-width="0.9"/>
<line x1="292.9" y1="126.5" x2="292.9" y2="133.5" stroke="#000" stroke-width="0.9"/>
<line x1="307.1" y1="126.5" x2="307.1" y2="133.5" stroke="#000" stroke-width="0.9"/>
<line x1="321.4" y1="126.5" x2="321.4" y2="133.5" stroke="#000" stroke-width="0.9"/>
<line x1="335.7" y1="126.5" x2="335.7" y2="133.5" stroke="#000" stroke-width="0.9"/>
<line x1="350.0" y1="126.5" x2="350.0" y2="133.5" stroke="#000" stroke-width="0.9"/>
<line x1="364.3" y1="126.5" x2="364.3" y2="133.5" stroke="#000" stroke-width="0.9"/>
<line x1="378.6" y1="126.5" x2="378.6" y2="133.5" stroke="#000" stroke-width="0.9"/>
<line x1="392.9" y1="126.5" x2="392.9" y2="133.5" stroke="#000" stroke-width="0.9"/>
<line x1="407.1" y1="126.5" x2="407.1" y2="133.5" stroke="#000" stroke-width="0.9"/>
<line x1="421.4" y1="126.5" x2="421.4" y2="133.5" stroke="#000" stroke-width="0.9"/>
<line x1="435.7" y1="126.5" x2="435.7" y2="133.5" stroke="#000" stroke-width="0.9"/>
<line x1="450.0" y1="126.5" x2="450.0" y2="133.5" stroke="#000" stroke-width="0.9"/>
<circle cx="78.6" cy="130.0" r="3.2" fill="#000"/>
<text x="78.6" y="158.0" font-size="11" text-anchor="middle">7</text>
<circle cx="121.4" cy="130.0" r="3.2" fill="#000"/>
<text x="121.4" y="158.0" font-size="11" text-anchor="middle">10</text>
<circle cx="164.3" cy="130.0" r="3.2" fill="#000"/>
<text x="164.3" y="158.0" font-size="11" text-anchor="middle">13</text>
<circle cx="207.1" cy="130.0" r="3.2" fill="#000"/>
<text x="207.1" y="158.0" font-size="11" text-anchor="middle">16</text>
<circle cx="264.3" cy="130.0" r="3.2" fill="#000"/>
<text x="264.3" y="158.0" font-size="11" text-anchor="middle">20</text>
<circle cx="292.9" cy="130.0" r="3.2" fill="#000"/>
<text x="292.9" y="158.0" font-size="11" text-anchor="middle">22</text>
<circle cx="335.7" cy="130.0" r="3.2" fill="#000"/>
<text x="335.7" y="158.0" font-size="11" text-anchor="middle">25</text>
<circle cx="378.6" cy="130.0" r="3.2" fill="#000"/>
<text x="378.6" y="158.0" font-size="11" text-anchor="middle">28</text>
<circle cx="421.4" cy="130.0" r="3.2" fill="#000"/>
<text x="421.4" y="158.0" font-size="11" text-anchor="middle">31</text>
<line x1="142.9" y1="70.0" x2="142.9" y2="142.0" stroke="#000" stroke-width="1.1" stroke-dasharray="6 4"/>
<text x="142.9" y="46.0" font-size="11" text-anchor="middle" font-weight="bold">第1四分位数</text>
<text x="142.9" y="62.0" font-size="11" text-anchor="middle">11.5</text>
<line x1="264.3" y1="102.0" x2="264.3" y2="142.0" stroke="#000" stroke-width="1.1" stroke-dasharray="6 4"/>
<text x="264.3" y="78.0" font-size="11" text-anchor="middle" font-weight="bold">中央値</text>
<text x="264.3" y="94.0" font-size="11" text-anchor="middle">20</text>
<line x1="357.1" y1="70.0" x2="357.1" y2="142.0" stroke="#000" stroke-width="1.1" stroke-dasharray="6 4"/>
<text x="357.1" y="46.0" font-size="11" text-anchor="middle" font-weight="bold">第3四分位数</text>
<text x="357.1" y="62.0" font-size="11" text-anchor="middle">26.5</text>
<line x1="82.6" y1="176.0" x2="138.9" y2="176.0" stroke="#000" stroke-width="1.1"/>
<line x1="82.6" y1="170.0" x2="82.6" y2="176.0" stroke="#000" stroke-width="1.1"/>
<line x1="138.9" y1="170.0" x2="138.9" y2="176.0" stroke="#000" stroke-width="1.1"/>
<text x="110.7" y="192.0" font-size="11" text-anchor="middle">2個</text>
<line x1="146.9" y1="176.0" x2="260.3" y2="176.0" stroke="#000" stroke-width="1.1"/>
<line x1="146.9" y1="170.0" x2="146.9" y2="176.0" stroke="#000" stroke-width="1.1"/>
<line x1="260.3" y1="170.0" x2="260.3" y2="176.0" stroke="#000" stroke-width="1.1"/>
<text x="203.6" y="192.0" font-size="11" text-anchor="middle">2個</text>
<line x1="268.3" y1="176.0" x2="353.1" y2="176.0" stroke="#000" stroke-width="1.1"/>
<line x1="268.3" y1="170.0" x2="268.3" y2="176.0" stroke="#000" stroke-width="1.1"/>
<line x1="353.1" y1="170.0" x2="353.1" y2="176.0" stroke="#000" stroke-width="1.1"/>
<text x="310.7" y="192.0" font-size="11" text-anchor="middle">2個</text>
<line x1="361.1" y1="176.0" x2="417.4" y2="176.0" stroke="#000" stroke-width="1.1"/>
<line x1="361.1" y1="170.0" x2="361.1" y2="176.0" stroke="#000" stroke-width="1.1"/>
<line x1="417.4" y1="170.0" x2="417.4" y2="176.0" stroke="#000" stroke-width="1.1"/>
<text x="389.3" y="192.0" font-size="11" text-anchor="middle">2個</text>
<text x="240.0" y="24.0" font-size="13" text-anchor="middle" font-weight="bold">例1（9週間の貸出冊数）——3つの区切りと4ブロック</text>
<text x="240.0" y="212.0" font-size="11" text-anchor="middle">個数はどのブロックも2個ずつ。でも幅はバラバラ——幅≠個数</text>
<text x="240.0" y="226.0" font-size="11" text-anchor="middle">（中央値の20はどちらの半分にも入れない）</text>
</svg>
