<svg xmlns="http://www.w3.org/2000/svg" viewBox="0 0 480 250" role="img">
<title>箱ひげ図をかく手順の見本（Aデータ・手順①〜④つき）</title>
<desc>L04主概念3の手順見本図。冊数0〜36の数直線上にAデータ（11人・35冊の読書家を含む）の箱ひげ図を1本描き、かく手順①5つの値を求める・②数直線・③箱と中央値の縦線・④左右のひげ、の番号を対応箇所に添えた。箱は第1四分位数3から第3四分位数9まで・中央値6の縦線入り。左のひげは0まで短く、右のひげは35まで非常に長い——極端にかけ離れた値がひげをのばす様子も同時に見せる。五数は生データから教科書方式で再計算し本文と一致をassert検算済み。再現指示: 数直線上の箱ひげ図1本に手順番号①〜④の注記を引き出し線で添える。五数の数値ラベルは打たない。白黒のみ。</desc>
<!-- L04_fig1_boxplot_draw_steps.svg | 箱ひげ図をかく手順の見本（Aデータ・手順①〜④つき） -->
<!-- generated by assets_provenance/generate_figures.py on 2026-07-18 (docs/SPEC_figures.md準拠・AI再利用メタ情報つき・SVG直接編集禁止/スクリプト改修で再生成) -->
<rect x="0" y="0" width="480" height="250" fill="#fff"/>
<line x1="50.0" y1="185.0" x2="450.0" y2="185.0" stroke="#000" stroke-width="1.2"/>
<line x1="50.0" y1="179.0" x2="50.0" y2="191.0" stroke="#000" stroke-width="0.9"/>
<line x1="61.1" y1="181.5" x2="61.1" y2="188.5" stroke="#000" stroke-width="0.9"/>
<line x1="72.2" y1="181.5" x2="72.2" y2="188.5" stroke="#000" stroke-width="0.9"/>
<line x1="83.3" y1="181.5" x2="83.3" y2="188.5" stroke="#000" stroke-width="0.9"/>
<line x1="94.4" y1="181.5" x2="94.4" y2="188.5" stroke="#000" stroke-width="0.9"/>
<line x1="105.6" y1="179.0" x2="105.6" y2="191.0" stroke="#000" stroke-width="0.9"/>
<line x1="116.7" y1="181.5" x2="116.7" y2="188.5" stroke="#000" stroke-width="0.9"/>
<line x1="127.8" y1="181.5" x2="127.8" y2="188.5" stroke="#000" stroke-width="0.9"/>
<line x1="138.9" y1="181.5" x2="138.9" y2="188.5" stroke="#000" stroke-width="0.9"/>
<line x1="150.0" y1="181.5" x2="150.0" y2="188.5" stroke="#000" stroke-width="0.9"/>
<line x1="161.1" y1="179.0" x2="161.1" y2="191.0" stroke="#000" stroke-width="0.9"/>
<line x1="172.2" y1="181.5" x2="172.2" y2="188.5" stroke="#000" stroke-width="0.9"/>
<line x1="183.3" y1="181.5" x2="183.3" y2="188.5" stroke="#000" stroke-width="0.9"/>
<line x1="194.4" y1="181.5" x2="194.4" y2="188.5" stroke="#000" stroke-width="0.9"/>
<line x1="205.6" y1="181.5" x2="205.6" y2="188.5" stroke="#000" stroke-width="0.9"/>
<line x1="216.7" y1="179.0" x2="216.7" y2="191.0" stroke="#000" stroke-width="0.9"/>
<line x1="227.8" y1="181.5" x2="227.8" y2="188.5" stroke="#000" stroke-width="0.9"/>
<line x1="238.9" y1="181.5" x2="238.9" y2="188.5" stroke="#000" stroke-width="0.9"/>
<line x1="250.0" y1="181.5" x2="250.0" y2="188.5" stroke="#000" stroke-width="0.9"/>
<line x1="261.1" y1="181.5" x2="261.1" y2="188.5" stroke="#000" stroke-width="0.9"/>
<line x1="272.2" y1="179.0" x2="272.2" y2="191.0" stroke="#000" stroke-width="0.9"/>
<line x1="283.3" y1="181.5" x2="283.3" y2="188.5" stroke="#000" stroke-width="0.9"/>
<line x1="294.4" y1="181.5" x2="294.4" y2="188.5" stroke="#000" stroke-width="0.9"/>
<line x1="305.6" y1="181.5" x2="305.6" y2="188.5" stroke="#000" stroke-width="0.9"/>
<line x1="316.7" y1="181.5" x2="316.7" y2="188.5" stroke="#000" stroke-width="0.9"/>
<line x1="327.8" y1="179.0" x2="327.8" y2="191.0" stroke="#000" stroke-width="0.9"/>
<line x1="338.9" y1="181.5" x2="338.9" y2="188.5" stroke="#000" stroke-width="0.9"/>
<line x1="350.0" y1="181.5" x2="350.0" y2="188.5" stroke="#000" stroke-width="0.9"/>
<line x1="361.1" y1="181.5" x2="361.1" y2="188.5" stroke="#000" stroke-width="0.9"/>
<line x1="372.2" y1="181.5" x2="372.2" y2="188.5" stroke="#000" stroke-width="0.9"/>
<line x1="383.3" y1="179.0" x2="383.3" y2="191.0" stroke="#000" stroke-width="0.9"/>
<line x1="394.4" y1="181.5" x2="394.4" y2="188.5" stroke="#000" stroke-width="0.9"/>
<line x1="405.6" y1="181.5" x2="405.6" y2="188.5" stroke="#000" stroke-width="0.9"/>
<line x1="416.7" y1="181.5" x2="416.7" y2="188.5" stroke="#000" stroke-width="0.9"/>
<line x1="427.8" y1="181.5" x2="427.8" y2="188.5" stroke="#000" stroke-width="0.9"/>
<line x1="438.9" y1="179.0" x2="438.9" y2="191.0" stroke="#000" stroke-width="0.9"/>
<line x1="450.0" y1="181.5" x2="450.0" y2="188.5" stroke="#000" stroke-width="0.9"/>
<text x="50.0" y="203.0" font-size="11" text-anchor="middle">0</text>
<text x="105.6" y="203.0" font-size="11" text-anchor="middle">5</text>
<text x="161.1" y="203.0" font-size="11" text-anchor="middle">10</text>
<text x="216.7" y="203.0" font-size="11" text-anchor="middle">15</text>
<text x="272.2" y="203.0" font-size="11" text-anchor="middle">20</text>
<text x="327.8" y="203.0" font-size="11" text-anchor="middle">25</text>
<text x="383.3" y="203.0" font-size="11" text-anchor="middle">30</text>
<text x="438.9" y="203.0" font-size="11" text-anchor="middle">35</text>
<line x1="50.0" y1="120.0" x2="83.3" y2="120.0" stroke="#000" stroke-width="1.6"/>
<line x1="150.0" y1="120.0" x2="438.9" y2="120.0" stroke="#000" stroke-width="1.6"/>
<line x1="50.0" y1="111.0" x2="50.0" y2="129.0" stroke="#000" stroke-width="1.6"/>
<line x1="438.9" y1="111.0" x2="438.9" y2="129.0" stroke="#000" stroke-width="1.6"/>
<rect x="83.3" y="106.0" width="66.7" height="28.0" fill="none" stroke="#000" stroke-width="1.6"/>
<line x1="116.7" y1="106.0" x2="116.7" y2="134.0" stroke="#000" stroke-width="1.6"/>
<text x="438.9" y="210.0" font-size="1" text-anchor="middle"></text>
<line x1="87.3" y1="74.0" x2="97.3" y2="103.0" stroke="#888" stroke-width="0.9"/>
<text x="81.3" y="68.0" font-size="11" text-anchor="start">③ 箱（第1四分位数〜第3四分位数）と中央値の縦線</text>
<line x1="66.7" y1="142.0" x2="66.7" y2="126.0" stroke="#888" stroke-width="0.9"/>
<text x="66.7" y="156.0" font-size="11" text-anchor="start">④ 左のひげは最小値まで</text>
<line x1="316.7" y1="98.0" x2="316.7" y2="114.0" stroke="#888" stroke-width="0.9"/>
<text x="316.7" y="92.0" font-size="11" text-anchor="middle">④ 右のひげは最大値まで</text>
<text x="56.0" y="218.0" font-size="11" text-anchor="start">② 数直線（データ全体が収まる目盛り）</text>
<text x="250.0" y="28.0" font-size="13" text-anchor="middle" font-weight="bold">① 5つの値を求めてから——箱ひげ図をかく手順</text>
<text x="250.0" y="242.0" font-size="11" text-anchor="middle">横軸: 借りた本の冊数（冊）・11人（架空の練習用データ）</text>
</svg>
