<svg xmlns="http://www.w3.org/2000/svg" viewBox="0 0 480 250" role="img">
<title>A組とB組の読書時間の箱ひげ図（箱が短いのに位置が右）</title>
<desc>L05主概念1の主教材図。横軸0〜20時間の同じ数直線にA組・B組（各35人）の箱ひげ図を並べた。A組の箱は長く、B組の箱は短いが全体に右側にある——「長い方が上」「短い方が少ない」の両誤読を同時に試せる配置。比較の根拠は箱の位置・中央値・四分位数で語る（箱の長さは散らばりの幅）。五数の数値ラベルは打たない（値の読み取りと記述が練習のため）。五数の並び順・箱の長さの比・位置関係が本文記述と一致することをassert検算済み。再現指示: 同じ横軸に箱ひげ図2本。上の箱を長く左寄り、下の箱を短く右寄りに描く。白黒のみ。</desc>
<!-- L05_fig1_ab_reading_boxplots.svg | A組とB組の読書時間の箱ひげ図（箱が短いのに位置が右） -->
<!-- generated by assets_provenance/generate_figures.py on 2026-07-18 (docs/SPEC_figures.md準拠・AI再利用メタ情報つき・SVG直接編集禁止/スクリプト改修で再生成) -->
<rect x="0" y="0" width="480" height="250" fill="#fff"/>
<line x1="55.0" y1="190.0" x2="445.0" y2="190.0" stroke="#000" stroke-width="1.2"/>
<line x1="55.0" y1="184.0" x2="55.0" y2="196.0" stroke="#000" stroke-width="0.9"/>
<line x1="74.5" y1="186.5" x2="74.5" y2="193.5" stroke="#000" stroke-width="0.9"/>
<line x1="94.0" y1="186.5" x2="94.0" y2="193.5" stroke="#000" stroke-width="0.9"/>
<line x1="113.5" y1="186.5" x2="113.5" y2="193.5" stroke="#000" stroke-width="0.9"/>
<line x1="133.0" y1="186.5" x2="133.0" y2="193.5" stroke="#000" stroke-width="0.9"/>
<line x1="152.5" y1="184.0" x2="152.5" y2="196.0" stroke="#000" stroke-width="0.9"/>
<line x1="172.0" y1="186.5" x2="172.0" y2="193.5" stroke="#000" stroke-width="0.9"/>
<line x1="191.5" y1="186.5" x2="191.5" y2="193.5" stroke="#000" stroke-width="0.9"/>
<line x1="211.0" y1="186.5" x2="211.0" y2="193.5" stroke="#000" stroke-width="0.9"/>
<line x1="230.5" y1="186.5" x2="230.5" y2="193.5" stroke="#000" stroke-width="0.9"/>
<line x1="250.0" y1="184.0" x2="250.0" y2="196.0" stroke="#000" stroke-width="0.9"/>
<line x1="269.5" y1="186.5" x2="269.5" y2="193.5" stroke="#000" stroke-width="0.9"/>
<line x1="289.0" y1="186.5" x2="289.0" y2="193.5" stroke="#000" stroke-width="0.9"/>
<line x1="308.5" y1="186.5" x2="308.5" y2="193.5" stroke="#000" stroke-width="0.9"/>
<line x1="328.0" y1="186.5" x2="328.0" y2="193.5" stroke="#000" stroke-width="0.9"/>
<line x1="347.5" y1="184.0" x2="347.5" y2="196.0" stroke="#000" stroke-width="0.9"/>
<line x1="367.0" y1="186.5" x2="367.0" y2="193.5" stroke="#000" stroke-width="0.9"/>
<line x1="386.5" y1="186.5" x2="386.5" y2="193.5" stroke="#000" stroke-width="0.9"/>
<line x1="406.0" y1="186.5" x2="406.0" y2="193.5" stroke="#000" stroke-width="0.9"/>
<line x1="425.5" y1="186.5" x2="425.5" y2="193.5" stroke="#000" stroke-width="0.9"/>
<line x1="445.0" y1="184.0" x2="445.0" y2="196.0" stroke="#000" stroke-width="0.9"/>
<text x="55.0" y="208.0" font-size="11" text-anchor="middle">0</text>
<text x="152.5" y="208.0" font-size="11" text-anchor="middle">5</text>
<text x="250.0" y="208.0" font-size="11" text-anchor="middle">10</text>
<text x="347.5" y="208.0" font-size="11" text-anchor="middle">15</text>
<text x="445.0" y="208.0" font-size="11" text-anchor="middle">20</text>
<line x1="94.0" y1="90.0" x2="152.5" y2="90.0" stroke="#000" stroke-width="1.6"/>
<line x1="289.0" y1="90.0" x2="367.0" y2="90.0" stroke="#000" stroke-width="1.6"/>
<line x1="94.0" y1="81.7" x2="94.0" y2="98.3" stroke="#000" stroke-width="1.6"/>
<line x1="367.0" y1="81.7" x2="367.0" y2="98.3" stroke="#000" stroke-width="1.6"/>
<rect x="152.5" y="77.0" width="136.5" height="26.0" fill="none" stroke="#000" stroke-width="1.6"/>
<line x1="211.0" y1="77.0" x2="211.0" y2="103.0" stroke="#000" stroke-width="1.6"/>
<line x1="133.0" y1="150.0" x2="230.5" y2="150.0" stroke="#000" stroke-width="1.6"/>
<line x1="308.5" y1="150.0" x2="406.0" y2="150.0" stroke="#000" stroke-width="1.6"/>
<line x1="133.0" y1="141.7" x2="133.0" y2="158.3" stroke="#000" stroke-width="1.6"/>
<line x1="406.0" y1="141.7" x2="406.0" y2="158.3" stroke="#000" stroke-width="1.6"/>
<rect x="230.5" y="137.0" width="78.0" height="26.0" fill="none" stroke="#000" stroke-width="1.6"/>
<line x1="269.5" y1="137.0" x2="269.5" y2="163.0" stroke="#000" stroke-width="1.6"/>
<text x="34.0" y="94.0" font-size="12" text-anchor="middle" font-weight="bold">A組</text>
<text x="34.0" y="154.0" font-size="12" text-anchor="middle" font-weight="bold">B組</text>
<text x="250.0" y="28.0" font-size="13" text-anchor="middle" font-weight="bold">1か月の読書時間（各35人）——どちらが長い傾向？</text>
<text x="250.0" y="232.0" font-size="11" text-anchor="middle">横軸: 読書時間（時間）（架空の練習用データ）</text>
</svg>
