<svg xmlns="http://www.w3.org/2000/svg" viewBox="0 0 480 372" role="img">
<title>ふた投げ実験の記録表（書きこみ式・20回）</title>
<desc>L01主概念2の作業用紙。上から、実験前の予想欄（20回中だいたい何回か＋理由）、1〜20回の○×記入マス（5回ごとに太線で区切る）、5・10・15・20回時点の集計表（上向きの回数・投げた回数・相対度数・この後どうなる？の予想メモ欄）を配置。相対度数の列見出しには「＝上向きの回数÷投げた回数」の式を薄く印字。投げた回数の列は各時点で確定するため薄く印字済み。データは一切入っていない白紙の書きこみ式で、解答値の漏えいはない。マス数20・区切り位置はassert検算済み。再現指示: 20マスの記録欄と4行の集計表を持つ書きこみ式ワークシート。白黒のみ。</desc>
<!-- L01_fig2_experiment_record_sheet.svg | ふた投げ実験の記録表（書きこみ式・20回） -->
<!-- generated by assets_provenance/generate_figures.py on 2026-07-18 (コード来歴方式・AI再利用メタ情報つき・SVG直接編集禁止/スクリプト改修で再生成) -->
<rect x="0" y="0" width="480" height="372" fill="#fff"/>
<text x="240.0" y="24.0" font-size="13" text-anchor="middle" font-weight="bold">ふた投げ実験の記録表</text>
<rect x="20.0" y="38.0" width="440.0" height="42.0" rx="4" fill="none" stroke="#000" stroke-width="1.3"/>
<text x="28.0" y="55.0" font-size="11" text-anchor="start">実験前の予想：上向きは、20回中だいたい（　　）回。</text>
<text x="28.0" y="72.0" font-size="11" text-anchor="start">理由：</text>
<text x="52.0" y="107.0" font-size="10" text-anchor="end">回</text>
<text x="52.0" y="129.0" font-size="10" text-anchor="end">結果</text>
<rect x="58.0" y="94.0" width="400.0" height="44.0" fill="none" stroke="#000" stroke-width="1.3"/>
<line x1="58.0" y1="112.0" x2="458.0" y2="112.0" stroke="#000" stroke-width="1.0"/>
<line x1="78.0" y1="94.0" x2="78.0" y2="138.0" stroke="#000" stroke-width="0.8"/>
<line x1="98.0" y1="94.0" x2="98.0" y2="138.0" stroke="#000" stroke-width="0.8"/>
<line x1="118.0" y1="94.0" x2="118.0" y2="138.0" stroke="#000" stroke-width="0.8"/>
<line x1="138.0" y1="94.0" x2="138.0" y2="138.0" stroke="#000" stroke-width="0.8"/>
<line x1="158.0" y1="94.0" x2="158.0" y2="138.0" stroke="#000" stroke-width="2.4"/>
<line x1="178.0" y1="94.0" x2="178.0" y2="138.0" stroke="#000" stroke-width="0.8"/>
<line x1="198.0" y1="94.0" x2="198.0" y2="138.0" stroke="#000" stroke-width="0.8"/>
<line x1="218.0" y1="94.0" x2="218.0" y2="138.0" stroke="#000" stroke-width="0.8"/>
<line x1="238.0" y1="94.0" x2="238.0" y2="138.0" stroke="#000" stroke-width="0.8"/>
<line x1="258.0" y1="94.0" x2="258.0" y2="138.0" stroke="#000" stroke-width="2.4"/>
<line x1="278.0" y1="94.0" x2="278.0" y2="138.0" stroke="#000" stroke-width="0.8"/>
<line x1="298.0" y1="94.0" x2="298.0" y2="138.0" stroke="#000" stroke-width="0.8"/>
<line x1="318.0" y1="94.0" x2="318.0" y2="138.0" stroke="#000" stroke-width="0.8"/>
<line x1="338.0" y1="94.0" x2="338.0" y2="138.0" stroke="#000" stroke-width="0.8"/>
<line x1="358.0" y1="94.0" x2="358.0" y2="138.0" stroke="#000" stroke-width="2.4"/>
<line x1="378.0" y1="94.0" x2="378.0" y2="138.0" stroke="#000" stroke-width="0.8"/>
<line x1="398.0" y1="94.0" x2="398.0" y2="138.0" stroke="#000" stroke-width="0.8"/>
<line x1="418.0" y1="94.0" x2="418.0" y2="138.0" stroke="#000" stroke-width="0.8"/>
<line x1="438.0" y1="94.0" x2="438.0" y2="138.0" stroke="#000" stroke-width="0.8"/>
<text x="68.0" y="107.0" font-size="9.5" text-anchor="middle">1</text>
<text x="88.0" y="107.0" font-size="9.5" text-anchor="middle">2</text>
<text x="108.0" y="107.0" font-size="9.5" text-anchor="middle">3</text>
<text x="128.0" y="107.0" font-size="9.5" text-anchor="middle">4</text>
<text x="148.0" y="107.0" font-size="9.5" text-anchor="middle">5</text>
<text x="168.0" y="107.0" font-size="9.5" text-anchor="middle">6</text>
<text x="188.0" y="107.0" font-size="9.5" text-anchor="middle">7</text>
<text x="208.0" y="107.0" font-size="9.5" text-anchor="middle">8</text>
<text x="228.0" y="107.0" font-size="9.5" text-anchor="middle">9</text>
<text x="248.0" y="107.0" font-size="9.5" text-anchor="middle">10</text>
<text x="268.0" y="107.0" font-size="9.5" text-anchor="middle">11</text>
<text x="288.0" y="107.0" font-size="9.5" text-anchor="middle">12</text>
<text x="308.0" y="107.0" font-size="9.5" text-anchor="middle">13</text>
<text x="328.0" y="107.0" font-size="9.5" text-anchor="middle">14</text>
<text x="348.0" y="107.0" font-size="9.5" text-anchor="middle">15</text>
<text x="368.0" y="107.0" font-size="9.5" text-anchor="middle">16</text>
<text x="388.0" y="107.0" font-size="9.5" text-anchor="middle">17</text>
<text x="408.0" y="107.0" font-size="9.5" text-anchor="middle">18</text>
<text x="428.0" y="107.0" font-size="9.5" text-anchor="middle">19</text>
<text x="448.0" y="107.0" font-size="9.5" text-anchor="middle">20</text>
<text x="240.0" y="154.0" font-size="10.5" text-anchor="middle">○＝上向き、×＝それ以外（下向き・横向き）</text>
<rect x="15.0" y="176.0" width="460.0" height="154.0" fill="none" stroke="#000" stroke-width="1.3"/>
<line x1="15.0" y1="210.0" x2="475.0" y2="210.0" stroke="#000" stroke-width="1.6"/>
<line x1="15.0" y1="240.0" x2="475.0" y2="240.0" stroke="#000" stroke-width="0.8"/>
<line x1="15.0" y1="270.0" x2="475.0" y2="270.0" stroke="#000" stroke-width="0.8"/>
<line x1="15.0" y1="300.0" x2="475.0" y2="300.0" stroke="#000" stroke-width="0.8"/>
<line x1="79.0" y1="176.0" x2="79.0" y2="330.0" stroke="#000" stroke-width="0.8"/>
<line x1="157.0" y1="176.0" x2="157.0" y2="330.0" stroke="#000" stroke-width="0.8"/>
<line x1="229.0" y1="176.0" x2="229.0" y2="330.0" stroke="#000" stroke-width="0.8"/>
<line x1="347.0" y1="176.0" x2="347.0" y2="330.0" stroke="#000" stroke-width="0.8"/>
<text x="47.0" y="191.0" font-size="9.5" text-anchor="middle" font-weight="bold">時点</text>
<text x="118.0" y="191.0" font-size="9.5" text-anchor="middle" font-weight="bold">上向きの回数</text>
<text x="193.0" y="191.0" font-size="9.5" text-anchor="middle" font-weight="bold">投げた回数</text>
<text x="288.0" y="191.0" font-size="9.5" text-anchor="middle" font-weight="bold">相対度数</text>
<text x="411.0" y="191.0" font-size="9.5" text-anchor="middle" font-weight="bold">この後どうなる？</text>
<text x="288.0" y="204.0" font-size="8" text-anchor="middle" fill="#888">＝上向きの回数÷投げた回数</text>
<text x="411.0" y="204.0" font-size="8.5" text-anchor="middle" fill="#888">（予想メモ）</text>
<text x="47.0" y="229.0" font-size="10" text-anchor="middle">5回時点</text>
<text x="193.0" y="229.0" font-size="10" text-anchor="middle" fill="#888">5</text>
<text x="47.0" y="259.0" font-size="10" text-anchor="middle">10回時点</text>
<text x="193.0" y="259.0" font-size="10" text-anchor="middle" fill="#888">10</text>
<text x="47.0" y="289.0" font-size="10" text-anchor="middle">15回時点</text>
<text x="193.0" y="289.0" font-size="10" text-anchor="middle" fill="#888">15</text>
<text x="47.0" y="319.0" font-size="10" text-anchor="middle">20回時点</text>
<text x="193.0" y="319.0" font-size="10" text-anchor="middle" fill="#888">20</text>
<text x="240.0" y="340.0" font-size="10.5" text-anchor="middle">5回投げるごとに一度手を止めて、集計と予想を書きこむ</text>
<text x="240.0" y="358.0" font-size="10.5" text-anchor="middle">（相対度数が割り切れないときは四捨五入して小数第2位まで）</text>
</svg>
