<svg xmlns="http://www.w3.org/2000/svg" viewBox="0 0 480 230" role="img">
<title>ペットボトルのふたの3つの落ち方（上向き・下向き・横向き）</title>
<desc>L01主概念1の導入図。ペットボトルのふたを机に投げたときの3つの落ち方を、断面の模式図3つで横に並べた。左＝上向き（開いた口が上・底が接地）、中＝下向き（口が下でかぶさる形・天面が見える）、右＝横向き（転がって円形の面が見える・円が地面に接する）。名前ラベルは本文の呼び名と完全一致。装飾なし・白黒のみ。開口の向き（上向き=天面なし・下向き=底なし）と接地はスクリプト内assertで検算済み。再現指示: コの字を上に開いた断面・下に開いた断面・二重円の3つを地面線の上に描き、名前を添える。数値は入れない。</desc>
<!-- L01_fig1_cap_three_landings.svg | ペットボトルのふたの3つの落ち方（上向き・下向き・横向き） -->
<!-- generated by assets_provenance/generate_figures.py on 2026-07-18 (コード来歴方式・AI再利用メタ情報つき・SVG直接編集禁止/スクリプト改修で再生成) -->
<rect x="0" y="0" width="480" height="230" fill="#fff"/>
<line x1="64.0" y1="112.0" x2="64.0" y2="152.0" stroke="#000" stroke-width="3.0"/>
<line x1="64.0" y1="152.0" x2="128.0" y2="152.0" stroke="#000" stroke-width="3.0"/>
<line x1="128.0" y1="152.0" x2="128.0" y2="112.0" stroke="#000" stroke-width="3.0"/>
<line x1="208.0" y1="152.0" x2="208.0" y2="112.0" stroke="#000" stroke-width="3.0"/>
<line x1="208.0" y1="112.0" x2="272.0" y2="112.0" stroke="#000" stroke-width="3.0"/>
<line x1="272.0" y1="112.0" x2="272.0" y2="152.0" stroke="#000" stroke-width="3.0"/>
<line x1="64.0" y1="112.0" x2="59.0" y2="112.0" stroke="#000" stroke-width="3.0"/>
<line x1="128.0" y1="112.0" x2="133.0" y2="112.0" stroke="#000" stroke-width="3.0"/>
<line x1="208.0" y1="152.0" x2="203.0" y2="152.0" stroke="#000" stroke-width="3.0"/>
<line x1="272.0" y1="152.0" x2="277.0" y2="152.0" stroke="#000" stroke-width="3.0"/>
<circle cx="384.0" cy="126.0" r="26" fill="none" stroke="#000" stroke-width="3.0"/>
<circle cx="384.0" cy="126.0" r="18" fill="none" stroke="#000" stroke-width="1.2"/>
<line x1="40.0" y1="152.0" x2="152.0" y2="152.0" stroke="#000" stroke-width="1.1"/>
<text x="96.0" y="182.0" font-size="13" text-anchor="middle" font-weight="bold">上向き</text>
<text x="96.0" y="200.0" font-size="10.5" text-anchor="middle">（開いた口が上）</text>
<line x1="184.0" y1="152.0" x2="296.0" y2="152.0" stroke="#000" stroke-width="1.1"/>
<text x="240.0" y="182.0" font-size="13" text-anchor="middle" font-weight="bold">下向き</text>
<text x="240.0" y="200.0" font-size="10.5" text-anchor="middle">（口が下、かぶさる形）</text>
<line x1="328.0" y1="152.0" x2="440.0" y2="152.0" stroke="#000" stroke-width="1.1"/>
<text x="384.0" y="182.0" font-size="13" text-anchor="middle" font-weight="bold">横向き</text>
<text x="384.0" y="200.0" font-size="10.5" text-anchor="middle">（転がって横になった形）</text>
<text x="240.0" y="26.0" font-size="13" text-anchor="middle" font-weight="bold">ペットボトルのふたの3つの落ち方</text>
<text x="240.0" y="222.0" font-size="10.5" text-anchor="middle">断面の模式図（実物の色や柄は関係しない）</text>
</svg>
