<svg xmlns="http://www.w3.org/2000/svg" viewBox="0 0 480 322" role="img">
<title>投げた回数と上向きの相対度数の折れ線グラフ（相対度数の安定）</title>
<desc>L02主概念1の中心図版。横軸は投げた回数n（10・20・50・100・200・500・1000・2000の8点を等間隔に配置。間隔は回数に比例していない旨を軸の下に注記）、縦軸は上向きの相対度数（0〜1・0.5と1の目盛りを明示）。本文の表の8点を折れ線で結び、0.65の高さに「およそ0.65」の点線補助線を引いた。前半のぶれと後半の安定の対比が主役で、3方向の誤った予想（1に近づく・最初から一定・近づかない）をこの1枚で同時に否定する。各点の相対度数は本文の生データ（rとn）から四捨五入で再計算して表と一致をassert検算済み。点ごとの数値ラベルは打たない（値は本文の表で読む）。再現指示: 8点等間隔の折れ線＋0.65の点線。白黒のみ。</desc>
<!-- L02_fig1_relative_frequency_line.svg | 投げた回数と上向きの相対度数の折れ線グラフ（相対度数の安定） -->
<!-- generated by assets_provenance/generate_figures.py on 2026-07-18 (コード来歴方式・AI再利用メタ情報つき・SVG直接編集禁止/スクリプト改修で再生成) -->
<rect x="0" y="0" width="480" height="322" fill="#fff"/>
<line x1="70.0" y1="250.0" x2="454.0" y2="250.0" stroke="#000" stroke-width="1.2"/>
<line x1="70.0" y1="250.0" x2="70.0" y2="42.0" stroke="#000" stroke-width="1.2"/>
<line x1="66.0" y1="250.0" x2="70.0" y2="250.0" stroke="#000" stroke-width="0.9"/>
<text x="62.0" y="254.0" font-size="11" text-anchor="end">0</text>
<line x1="66.0" y1="150.0" x2="70.0" y2="150.0" stroke="#000" stroke-width="0.9"/>
<text x="62.0" y="154.0" font-size="11" text-anchor="end">0.5</text>
<line x1="66.0" y1="50.0" x2="70.0" y2="50.0" stroke="#000" stroke-width="0.9"/>
<text x="62.0" y="54.0" font-size="11" text-anchor="end">1</text>
<text x="66.0" y="36.0" font-size="10.5" text-anchor="start">上向きの相対度数</text>
<line x1="70.0" y1="120.0" x2="450.0" y2="120.0" stroke="#000" stroke-width="1.1" stroke-dasharray="6 4"/>
<text x="448.0" y="113.0" font-size="11" text-anchor="end" font-weight="bold">およそ0.65</text>
<line x1="70.0" y1="250.0" x2="70.0" y2="254.0" stroke="#000" stroke-width="0.9"/>
<text x="70.0" y="268.0" font-size="9.5" text-anchor="middle">10</text>
<line x1="124.3" y1="250.0" x2="124.3" y2="254.0" stroke="#000" stroke-width="0.9"/>
<text x="124.3" y="268.0" font-size="9.5" text-anchor="middle">20</text>
<line x1="178.6" y1="250.0" x2="178.6" y2="254.0" stroke="#000" stroke-width="0.9"/>
<text x="178.6" y="268.0" font-size="9.5" text-anchor="middle">50</text>
<line x1="232.9" y1="250.0" x2="232.9" y2="254.0" stroke="#000" stroke-width="0.9"/>
<text x="232.9" y="268.0" font-size="9.5" text-anchor="middle">100</text>
<line x1="287.1" y1="250.0" x2="287.1" y2="254.0" stroke="#000" stroke-width="0.9"/>
<text x="287.1" y="268.0" font-size="9.5" text-anchor="middle">200</text>
<line x1="341.4" y1="250.0" x2="341.4" y2="254.0" stroke="#000" stroke-width="0.9"/>
<text x="341.4" y="268.0" font-size="9.5" text-anchor="middle">500</text>
<line x1="395.7" y1="250.0" x2="395.7" y2="254.0" stroke="#000" stroke-width="0.9"/>
<text x="395.7" y="268.0" font-size="9.5" text-anchor="middle">1000</text>
<line x1="450.0" y1="250.0" x2="450.0" y2="254.0" stroke="#000" stroke-width="0.9"/>
<text x="450.0" y="268.0" font-size="9.5" text-anchor="middle">2000</text>
<text x="260.0" y="284.0" font-size="9.5" text-anchor="middle">投げた回数 n（8つの回数を等間隔に並べてある——間隔は回数に比例していない）</text>
<polyline points="70.0,170.0 124.3,140.0 178.6,126.0 232.9,124.0 287.1,119.0 341.4,119.2 395.7,119.6 450.0,119.7" fill="none" stroke="#000" stroke-width="1.6"/>
<circle cx="70.0" cy="170.0" r="2.8" fill="#000"/>
<circle cx="124.3" cy="140.0" r="2.8" fill="#000"/>
<circle cx="178.6" cy="126.0" r="2.8" fill="#000"/>
<circle cx="232.9" cy="124.0" r="2.8" fill="#000"/>
<circle cx="287.1" cy="119.0" r="2.8" fill="#000"/>
<circle cx="341.4" cy="119.2" r="2.8" fill="#000"/>
<circle cx="395.7" cy="119.6" r="2.8" fill="#000"/>
<circle cx="450.0" cy="119.7" r="2.8" fill="#000"/>
<text x="260.0" y="26.0" font-size="13" text-anchor="middle" font-weight="bold">投げた回数と上向きの相対度数</text>
<text x="260.0" y="308.0" font-size="10.5" text-anchor="middle">同じ種類のふたを2000回投げた記録の例（教材用）</text>
</svg>
