<svg xmlns="http://www.w3.org/2000/svg" viewBox="0 0 480 306" role="img">
<title>サイズごとの貸し出し回数の相対度数（棒グラフ）</title>
<desc>L03主概念1の意思決定の土台図。横軸は靴のサイズ（22.0〜27.0cm・0.5cm刻み）、縦軸は相対度数（0〜0.20・0.05刻みの主目盛りのみでグリッド線なし）。過去1年・貸し出し8000回の記録（教材用の例）の相対度数を単色の棒で表し、最大の24.0cm（0.18）にだけ数値ラベルと「最も借りられやすい」の注記を付けた。23.0cmの棒には数値ラベルを付けない（練習1の空らんの解答が図から読み取れてしまうのを防ぐため。グリッド線を引かないのも同じ理由）。欄外に相対度数の合計が1.00になることを注記。全ての相対度数は回数÷合計8000から再計算して本文の表と一致をassert検算済み（空らん分は掛け算の検算のみで値は非開示）。再現指示: 単色・装飾なしの棒グラフ11本。数値ラベルは最大の棒1本のみ。白黒のみ。</desc>
<!-- L03_fig1_shoe_size_relfreq_bar.svg | サイズごとの貸し出し回数の相対度数（棒グラフ） -->
<!-- generated by assets_provenance/generate_figures.py on 2026-07-18 (コード来歴方式・AI再利用メタ情報つき・SVG直接編集禁止/スクリプト改修で再生成) -->
<rect x="0" y="0" width="480" height="306" fill="#fff"/>
<line x1="58.0" y1="232.0" x2="58.0" y2="56.0" stroke="#000" stroke-width="1.2"/>
<line x1="54.0" y1="232.0" x2="58.0" y2="232.0" stroke="#000" stroke-width="0.9"/>
<text x="50.0" y="236.0" font-size="10" text-anchor="end">0</text>
<line x1="54.0" y1="192.0" x2="58.0" y2="192.0" stroke="#000" stroke-width="0.9"/>
<text x="50.0" y="196.0" font-size="10" text-anchor="end">0.05</text>
<line x1="54.0" y1="152.0" x2="58.0" y2="152.0" stroke="#000" stroke-width="0.9"/>
<text x="50.0" y="156.0" font-size="10" text-anchor="end">0.10</text>
<line x1="54.0" y1="112.0" x2="58.0" y2="112.0" stroke="#000" stroke-width="0.9"/>
<text x="50.0" y="116.0" font-size="10" text-anchor="end">0.15</text>
<line x1="54.0" y1="72.0" x2="58.0" y2="72.0" stroke="#000" stroke-width="0.9"/>
<text x="50.0" y="76.0" font-size="10" text-anchor="end">0.20</text>
<line x1="58.0" y1="232.0" x2="454.5" y2="232.0" stroke="#000" stroke-width="1.2"/>
<rect x="63.8" y="192.0" width="24.0" height="40.0" fill="#e6e6e6" stroke="#000" stroke-width="1.3"/>
<text x="75.8" y="248.0" font-size="9" text-anchor="middle">22.0</text>
<rect x="99.2" y="168.0" width="24.0" height="64.0" fill="#e6e6e6" stroke="#000" stroke-width="1.3"/>
<text x="111.2" y="248.0" font-size="9" text-anchor="middle">22.5</text>
<rect x="134.8" y="136.0" width="24.0" height="96.0" fill="#e6e6e6" stroke="#000" stroke-width="1.3"/>
<text x="146.8" y="248.0" font-size="9" text-anchor="middle">23.0</text>
<rect x="170.2" y="112.0" width="24.0" height="120.0" fill="#e6e6e6" stroke="#000" stroke-width="1.3"/>
<text x="182.2" y="248.0" font-size="9" text-anchor="middle">23.5</text>
<rect x="205.8" y="88.0" width="24.0" height="144.0" fill="#e6e6e6" stroke="#000" stroke-width="1.3"/>
<text x="217.8" y="248.0" font-size="9" text-anchor="middle">24.0</text>
<rect x="241.2" y="96.0" width="24.0" height="136.0" fill="#e6e6e6" stroke="#000" stroke-width="1.3"/>
<text x="253.2" y="248.0" font-size="9" text-anchor="middle">24.5</text>
<rect x="276.8" y="144.0" width="24.0" height="88.0" fill="#e6e6e6" stroke="#000" stroke-width="1.3"/>
<text x="288.8" y="248.0" font-size="9" text-anchor="middle">25.0</text>
<rect x="312.2" y="176.0" width="24.0" height="56.0" fill="#e6e6e6" stroke="#000" stroke-width="1.3"/>
<text x="324.2" y="248.0" font-size="9" text-anchor="middle">25.5</text>
<rect x="347.8" y="200.0" width="24.0" height="32.0" fill="#e6e6e6" stroke="#000" stroke-width="1.3"/>
<text x="359.8" y="248.0" font-size="9" text-anchor="middle">26.0</text>
<rect x="383.2" y="216.0" width="24.0" height="16.0" fill="#e6e6e6" stroke="#000" stroke-width="1.3"/>
<text x="395.2" y="248.0" font-size="9" text-anchor="middle">26.5</text>
<rect x="418.8" y="224.0" width="24.0" height="8.0" fill="#e6e6e6" stroke="#000" stroke-width="1.3"/>
<text x="430.8" y="248.0" font-size="9" text-anchor="middle">27.0</text>
<text x="217.8" y="80.0" font-size="10.5" text-anchor="middle" font-weight="bold">0.18</text>
<text x="227.8" y="48.0" font-size="10.5" text-anchor="middle" font-weight="bold">最も借りられやすい</text>
<line x1="219.8" y1="52.0" x2="217.8" y2="66.0" stroke="#888" stroke-width="0.9"/>
<text x="240.0" y="266.0" font-size="10.5" text-anchor="middle">横軸: 靴のサイズ（cm）／縦軸: 相対度数</text>
<text x="240.0" y="284.0" font-size="10.5" text-anchor="middle">相対度数の合計は1.00（過去1年・貸し出し8000回の記録）</text>
<text x="240.0" y="26.0" font-size="13" text-anchor="middle" font-weight="bold">サイズごとの貸し出し回数の相対度数</text>
</svg>
