<svg xmlns="http://www.w3.org/2000/svg" viewBox="0 0 440 250">
<title>項に分ける（符号ごと切り取り→同類項をまとめて3a＋4）</title>
<desc>【この図の意図】主概念1の可視化。切り取り位置＝符号の直前・同類項の仕分けを図解。練習の答は書かない（3a＋4は本文明示の解説値）。【主要な数値・設定】式7a−2−4a＋6／aの項7a・−4a→3a／数の項−2・6→4。【AIに同じ種類の図を描かせるときの説明文】「項に分ける（符号ごと切り取り→同類項をまとめて3a＋4）。主概念1の可視化。切り取り位置＝符号の直前・同類項の仕分けを図解。練習の答は書かない（3a＋4は本文明示の解説値）。数値・設定: 式7a−2−4a＋6／aの項7a・−4a→3a／数の項−2・6→4。白黒印刷向けのシンプルな教材図（SVG）としてかいて。」——この説明文を生成AIに渡せば同型の図を描かせられる。数値を変えれば類題用の図も作れる。</desc>
<!-- L01_fig1_terms_split_and_group.svg | 項に分ける（符号ごと切り取り→同類項をまとめて3a＋4） -->
<!-- generated by assets_provenance/generate_figures.py on 2026-07-18 (docs/SPEC_figures.md準拠・SVG直接編集禁止/スクリプト改修で再生成) -->
<rect x="0" y="0" width="440" height="250" fill="#fff"/>
<defs><pattern id="h45" width="6" height="6" patternUnits="userSpaceOnUse" patternTransform="rotate(45)"><line x1="0" y1="0" x2="0" y2="6" stroke="#555" stroke-width="1.1"/></pattern><pattern id="h135" width="6" height="6" patternUnits="userSpaceOnUse" patternTransform="rotate(135)"><line x1="0" y1="0" x2="0" y2="6" stroke="#555" stroke-width="1.1"/></pattern></defs><text x="220.0" y="40.0" font-size="20" text-anchor="middle" font-weight="bold">7a − 2 − 4a ＋ 6</text>
<line x1="156" y1="20" x2="156" y2="52" stroke="#000" stroke-width="1.1" stroke-dasharray="6 4"/>
<line x1="208" y1="20" x2="208" y2="52" stroke="#000" stroke-width="1.1" stroke-dasharray="6 4"/>
<line x1="272" y1="20" x2="272" y2="52" stroke="#000" stroke-width="1.1" stroke-dasharray="6 4"/>
<text x="220.0" y="68.0" font-size="12" text-anchor="middle">ハサミを入れるのは、いつも ＋・− の直前（符号ごと切り取る）</text>
<rect x="32.0" y="92.0" width="76.0" height="40.0" rx="4" fill="url(#h45)" stroke="#000" stroke-width="1.6"/>
<text x="70.0" y="117.0" font-size="16" text-anchor="middle" font-weight="bold">7a</text>
<line x1="93.0" y1="74.0" x2="76.0" y2="84.4" stroke="#000" stroke-width="1.1"/>
<polygon points="70.0,88.0 74.3,81.7 77.6,87.1" fill="#000"/>
<rect x="130.0" y="92.0" width="76.0" height="40.0" rx="4" fill="#fff" stroke="#000" stroke-width="1.6"/>
<text x="168.0" y="117.6" font-size="16" text-anchor="middle" font-weight="bold">−2</text>
<line x1="135.0" y1="74.0" x2="161.6" y2="85.3" stroke="#000" stroke-width="1.1"/>
<polygon points="168.0,88.0 160.3,88.2 162.8,82.4" fill="#000"/>
<rect x="228.0" y="92.0" width="76.0" height="40.0" rx="4" fill="url(#h45)" stroke="#000" stroke-width="1.6"/>
<text x="266.0" y="117.0" font-size="16" text-anchor="middle" font-weight="bold">−4a</text>
<line x1="177.0" y1="74.0" x2="259.1" y2="86.9" stroke="#000" stroke-width="1.1"/>
<polygon points="266.0,88.0 258.6,90.0 259.6,83.8" fill="#000"/>
<rect x="326.0" y="92.0" width="76.0" height="40.0" rx="4" fill="#fff" stroke="#000" stroke-width="1.6"/>
<text x="364.0" y="117.6" font-size="16" text-anchor="middle" font-weight="bold">＋6</text>
<line x1="219.0" y1="74.0" x2="357.0" y2="87.3" stroke="#000" stroke-width="1.1"/>
<polygon points="364.0,88.0 356.7,90.5 357.3,84.2" fill="#000"/>
<text x="220.0" y="152.0" font-size="12" text-anchor="middle">斜線＝文字の部分が a の項　　白＝数の項</text>
<line x1="70.0" y1="156.0" x2="114.5" y2="191.6" stroke="#000" stroke-width="1.4"/>
<polygon points="120.0,196.0 112.6,194.1 116.5,189.2" fill="#000"/>
<line x1="266.0" y1="156.0" x2="146.7" y2="193.9" stroke="#000" stroke-width="1.4"/>
<polygon points="140.0,196.0 145.7,190.9 147.6,196.9" fill="#000"/>
<line x1="168.0" y1="156.0" x2="289.3" y2="193.9" stroke="#000" stroke-width="1.4"/>
<polygon points="296.0,196.0 288.4,196.9 290.3,190.9" fill="#000"/>
<line x1="364.0" y1="156.0" x2="321.4" y2="191.5" stroke="#000" stroke-width="1.4"/>
<polygon points="316.0,196.0 319.4,189.1 323.4,193.9" fill="#000"/>
<text x="130.0" y="216.0" font-size="15" text-anchor="middle" font-weight="bold">7a −4a → 3a</text>
<text x="306.0" y="216.0" font-size="15" text-anchor="middle" font-weight="bold">−2 ＋6 → 4</text>
<text x="220.0" y="242.0" font-size="13" text-anchor="middle" font-weight="bold">文字の部分が同じ項どうしだけをまとめる → 3a＋4</text>
</svg>
