<svg xmlns="http://www.w3.org/2000/svg" viewBox="0 0 440 262">
<title>同類項の仕分け（5x＋3y−2x＋y→3x＋4y・xとyはまとめられない）</title>
<desc>【この図の意図】主概念3の可視化。x班とy班のトレイ仕分けで「文字の部分が同じ？」を図解。練習の答は書かない（3x＋4yは本文明示の解説値）。【主要な数値・設定】式5x＋3y−2x＋y／x班5x・−2x→3x／y班3y・y→4y／誤答7xyの注意書き。【AIに同じ種類の図を描かせるときの説明文】「同類項の仕分け（5x＋3y−2x＋y→3x＋4y・xとyはまとめられない）。主概念3の可視化。x班とy班のトレイ仕分けで「文字の部分が同じ？」を図解。練習の答は書かない（3x＋4yは本文明示の解説値）。数値・設定: 式5x＋3y−2x＋y／x班5x・−2x→3x／y班3y・y→4y／誤答7xyの注意書き。白黒印刷向けのシンプルな教材図（SVG）としてかいて。」——この説明文を生成AIに渡せば同型の図を描かせられる。数値を変えれば類題用の図も作れる。</desc>
<!-- L02_fig1_like_terms_sorting.svg | 同類項の仕分け（5x＋3y−2x＋y→3x＋4y・xとyはまとめられない） -->
<!-- generated by assets_provenance/generate_figures.py on 2026-07-18 (docs/SPEC_figures.md準拠・SVG直接編集禁止/スクリプト改修で再生成) -->
<rect x="0" y="0" width="440" height="262" fill="#fff"/>
<defs><pattern id="h45" width="6" height="6" patternUnits="userSpaceOnUse" patternTransform="rotate(45)"><line x1="0" y1="0" x2="0" y2="6" stroke="#555" stroke-width="1.1"/></pattern><pattern id="h135" width="6" height="6" patternUnits="userSpaceOnUse" patternTransform="rotate(135)"><line x1="0" y1="0" x2="0" y2="6" stroke="#555" stroke-width="1.1"/></pattern></defs><text x="220.0" y="34.0" font-size="20" text-anchor="middle" font-weight="bold">5x ＋ 3y − 2x ＋ y</text>
<rect x="48.0" y="84.0" width="150.0" height="84.0" rx="6" fill="url(#h45)" stroke="#000" stroke-width="1.6"/>
<rect x="242.0" y="84.0" width="150.0" height="84.0" rx="6" fill="url(#h135)" stroke="#000" stroke-width="1.6"/>
<text x="123.0" y="108.0" font-size="12" text-anchor="middle" font-weight="bold">文字の部分が x</text>
<text x="317.0" y="108.0" font-size="12" text-anchor="middle" font-weight="bold">文字の部分が y</text>
<text x="123.0" y="136.0" font-size="16" text-anchor="middle" font-weight="bold">5x　−2x</text>
<text x="317.0" y="136.0" font-size="16" text-anchor="middle" font-weight="bold">3y　＋y</text>
<text x="123.0" y="158.0" font-size="15" text-anchor="middle">→ 3x</text>
<text x="317.0" y="158.0" font-size="15" text-anchor="middle">→ 4y</text>
<line x1="138.0" y1="42.0" x2="93.6" y2="75.8" stroke="#000" stroke-width="1.1"/>
<polygon points="88.0,80.0 91.7,73.3 95.5,78.3" fill="#000"/>
<line x1="258.0" y1="42.0" x2="164.5" y2="77.5" stroke="#000" stroke-width="1.1"/>
<polygon points="158.0,80.0 163.4,74.6 165.7,80.5" fill="#000"/>
<line x1="196.0" y1="42.0" x2="275.6" y2="77.2" stroke="#000" stroke-width="1.1"/>
<polygon points="282.0,80.0 274.3,80.1 276.9,74.3" fill="#000"/>
<line x1="306.0" y1="42.0" x2="346.6" y2="75.5" stroke="#000" stroke-width="1.1"/>
<polygon points="352.0,80.0 344.6,78.0 348.6,73.1" fill="#000"/>
<text x="220.0" y="202.0" font-size="19" text-anchor="middle" font-weight="bold">3x ＋ 4y</text>
<text x="220.0" y="228.0" font-size="12" text-anchor="middle">x と y は文字の部分が違う＝同類項ではない → これ以上まとめられない</text>
<text x="220.0" y="248.0" font-size="12" text-anchor="middle">（7xy とまとめるのは誤り。x＝2、y＝1 の代入がすぐ暴く）</text>
</svg>
