<svg xmlns="http://www.w3.org/2000/svg" viewBox="0 0 440 252">
<title>分配は全員に配る（3(2a−5b)＝6a−15b・−(2x−3y)＝−2x＋3y）</title>
<desc>【この図の意図】主概念1・2の可視化。係数から各項への矢印で「全員に配る」を図解。練習の答は書かない（6a−15b・−2x＋3yは本文明示の解説値）。【主要な数値・設定】上段3(2a−5b)→6a−15b／下段−(2x−3y)＝(−1)の分配→−2x＋3y。【AIに同じ種類の図を描かせるときの説明文】「分配は全員に配る（3(2a−5b)＝6a−15b・−(2x−3y)＝−2x＋3y）。主概念1・2の可視化。係数から各項への矢印で「全員に配る」を図解。練習の答は書かない（6a−15b・−2x＋3yは本文明示の解説値）。数値・設定: 上段3(2a−5b)→6a−15b／下段−(2x−3y)＝(−1)の分配→−2x＋3y。白黒印刷向けのシンプルな教材図（SVG）としてかいて。」——この説明文を生成AIに渡せば同型の図を描かせられる。数値を変えれば類題用の図も作れる。</desc>
<!-- L03_fig1_distribute_to_all.svg | 分配は全員に配る（3(2a−5b)＝6a−15b・−(2x−3y)＝−2x＋3y） -->
<!-- generated by assets_provenance/generate_figures.py on 2026-07-18 (docs/SPEC_figures.md準拠・SVG直接編集禁止/スクリプト改修で再生成) -->
<rect x="0" y="0" width="440" height="252" fill="#fff"/>
<text x="220.0" y="30.0" font-size="13" text-anchor="middle" font-weight="bold">分配法則——外の数は、かっこの中の全員に配る</text>
<text x="96.0" y="96.0" font-size="19" text-anchor="middle" font-weight="bold">3(2a−5b)</text>
<path d="M 59 78 Q 85 62 105 76" fill="none" stroke="#000" stroke-width="1.2"/>
<line x1="103.2" y1="74.0" x2="103.0" y2="73.8" stroke="#000" stroke-width="1.2"/>
<polygon points="107.2,78.0 101.0,75.7 104.9,71.8" fill="#000"/>
<path d="M 59 78 Q 111 52 153 76" fill="none" stroke="#000" stroke-width="1.2"/>
<line x1="151.2" y1="72.0" x2="151.9" y2="73.0" stroke="#000" stroke-width="1.2"/>
<polygon points="155.2,78.0 149.6,74.5 154.1,71.5" fill="#000"/>
<line x1="178.0" y1="90.0" x2="219.0" y2="90.0" stroke="#000" stroke-width="1.4"/>
<polygon points="226.0,90.0 219.0,93.2 219.0,86.8" fill="#000"/>
<text x="296.0" y="96.0" font-size="19" text-anchor="middle" font-weight="bold">6a−15b</text>
<text x="296.0" y="118.0" font-size="11" text-anchor="middle">3×2a と 3×(−5b)——符号ごとかける</text>
<text x="96.0" y="186.0" font-size="19" text-anchor="middle" font-weight="bold">−(2x−3y)</text>
<path d="M 59 168 Q 85 152 105 166" fill="none" stroke="#000" stroke-width="1.2"/>
<line x1="103.2" y1="164.0" x2="103.0" y2="163.8" stroke="#000" stroke-width="1.2"/>
<polygon points="107.2,168.0 101.0,165.7 104.9,161.8" fill="#000"/>
<path d="M 59 168 Q 111 142 153 166" fill="none" stroke="#000" stroke-width="1.2"/>
<line x1="151.2" y1="162.0" x2="151.9" y2="163.0" stroke="#000" stroke-width="1.2"/>
<polygon points="155.2,168.0 149.6,164.5 154.1,161.5" fill="#000"/>
<line x1="178.0" y1="180.0" x2="219.0" y2="180.0" stroke="#000" stroke-width="1.4"/>
<polygon points="226.0,180.0 219.0,183.2 219.0,176.8" fill="#000"/>
<text x="296.0" y="186.0" font-size="19" text-anchor="middle" font-weight="bold">−2x＋3y</text>
<text x="296.0" y="208.0" font-size="11" text-anchor="middle">−は(−1)×のこと。(−1)×(−3y)＝＋3y</text>
<text x="220.0" y="240.0" font-size="12" text-anchor="middle">事故が起きるのは決まって後半の項。−も、最後の項まで全員に配る</text>
</svg>
