<svg xmlns="http://www.w3.org/2000/svg" viewBox="0 0 440 226">
<title>2けたの数は10a＋b（37＝10×3＋7）</title>
<desc>【この図の意図】主概念1の可視化。具体例37と一般形10a＋bを並置し、「ab＝a×b」との違いを注意書き。練習2の答（入れかえた数の式）は書かない。【主要な数値・設定】例37＝10×3＋7／一般形10a＋b／誤答例3×7＝21。【AIに同じ種類の図を描かせるときの説明文】「2けたの数は10a＋b（37＝10×3＋7）。主概念1の可視化。具体例37と一般形10a＋bを並置し、「ab＝a×b」との違いを注意書き。練習2の答（入れかえた数の式）は書かない。数値・設定: 例37＝10×3＋7／一般形10a＋b／誤答例3×7＝21。白黒印刷向けのシンプルな教材図（SVG）としてかいて。」——この説明文を生成AIに渡せば同型の図を描かせられる。数値を変えれば類題用の図も作れる。</desc>
<!-- L05_fig2_place_value_10a_plus_b.svg | 2けたの数は10a＋b（37＝10×3＋7） -->
<!-- generated by assets_provenance/generate_figures.py on 2026-07-18 (docs/SPEC_figures.md準拠・SVG直接編集禁止/スクリプト改修で再生成) -->
<rect x="0" y="0" width="440" height="226" fill="#fff"/>
<defs><pattern id="h45" width="6" height="6" patternUnits="userSpaceOnUse" patternTransform="rotate(45)"><line x1="0" y1="0" x2="0" y2="6" stroke="#555" stroke-width="1.1"/></pattern><pattern id="h135" width="6" height="6" patternUnits="userSpaceOnUse" patternTransform="rotate(135)"><line x1="0" y1="0" x2="0" y2="6" stroke="#555" stroke-width="1.1"/></pattern></defs><text x="110.0" y="46.0" font-size="26" text-anchor="middle" font-weight="bold">37</text>
<text x="110.0" y="68.0" font-size="12" text-anchor="middle">十の位 3・一の位 7</text>
<line x1="150.0" y1="42.0" x2="193.0" y2="42.0" stroke="#000" stroke-width="1.4"/>
<polygon points="200.0,42.0 193.0,45.1 193.0,38.9" fill="#000"/>
<rect x="208.0" y="22.0" width="90.0" height="36.0" rx="4" fill="url(#h45)" stroke="#000" stroke-width="1.6"/>
<text x="253.0" y="45.0" font-size="15" text-anchor="middle" font-weight="bold">10×3</text>
<text x="310.0" y="45.0" font-size="15" text-anchor="middle">＋</text>
<rect x="322.0" y="22.0" width="56.0" height="36.0" rx="4" fill="#fff" stroke="#000" stroke-width="1.6"/>
<text x="350.0" y="45.2" font-size="15" text-anchor="middle" font-weight="bold">7</text>
<text x="293.0" y="78.0" font-size="12" text-anchor="middle">＝ 30＋7（3×7＝21 ではない）</text>
<text x="110.0" y="138.0" font-size="15" text-anchor="middle" font-weight="bold">十の位 a</text>
<text x="110.0" y="158.0" font-size="15" text-anchor="middle" font-weight="bold">一の位 b</text>
<line x1="158.0" y1="144.0" x2="193.0" y2="144.0" stroke="#000" stroke-width="1.4"/>
<polygon points="200.0,144.0 193.0,147.2 193.0,140.8" fill="#000"/>
<rect x="208.0" y="124.0" width="90.0" height="36.0" rx="4" fill="url(#h45)" stroke="#000" stroke-width="1.6"/>
<text x="253.0" y="147.0" font-size="15" text-anchor="middle" font-weight="bold">10×a</text>
<text x="310.0" y="147.0" font-size="15" text-anchor="middle">＋</text>
<rect x="322.0" y="124.0" width="56.0" height="36.0" rx="4" fill="#fff" stroke="#000" stroke-width="1.6"/>
<text x="350.0" y="147.2" font-size="15" text-anchor="middle" font-weight="bold">b</text>
<text x="293.0" y="180.0" font-size="12" text-anchor="middle">＝ 10a＋b（「ab」と書くと a×b の意味になる）</text>
<text x="220.0" y="212.0" font-size="12" text-anchor="middle">位の値×個数の和で組み立てる——斜線の箱が「十の位のかたまり」</text>
</svg>
