<svg xmlns="http://www.w3.org/2000/svg" viewBox="0 0 440 200">
<title>数直線上の偶数2nと奇数2n＋1（nは整数）</title>
<desc>【この図の意図】主概念1の可視化。●＝偶数2n・○＝奇数2n＋1が交互に並び、間隔2で無限に続くことを示す。練習の答は書かない。【主要な数値・設定】数直線0〜9／偶数0,2,4,6,8＝●／奇数1,3,5,7,9＝○／間隔2をassert。【AIに同じ種類の図を描かせるときの説明文】「数直線上の偶数2nと奇数2n＋1（nは整数）。主概念1の可視化。●＝偶数2n・○＝奇数2n＋1が交互に並び、間隔2で無限に続くことを示す。練習の答は書かない。数値・設定: 数直線0〜9／偶数0,2,4,6,8＝●／奇数1,3,5,7,9＝○／間隔2をassert。白黒印刷向けのシンプルな教材図（SVG）としてかいて。」——この説明文を生成AIに渡せば同型の図を描かせられる。数値を変えれば類題用の図も作れる。</desc>
<!-- L05_fig1_even_odd_number_line.svg | 数直線上の偶数2nと奇数2n＋1（nは整数） -->
<!-- generated by assets_provenance/generate_figures.py on 2026-07-18 (docs/SPEC_figures.md準拠・SVG直接編集禁止/スクリプト改修で再生成) -->
<rect x="0" y="0" width="440" height="200" fill="#fff"/>
<line x1="19.4" y1="104.0" x2="426.8" y2="104.0" stroke="#000" stroke-width="1.6"/>
<line x1="414.2" y1="104.0" x2="419.2" y2="104.0" stroke="#000" stroke-width="1.6"/>
<polygon points="426.2,104.0 419.2,107.2 419.2,100.8" fill="#000"/>
<line x1="32.0" y1="107.4" x2="32.0" y2="100.6" stroke="#000" stroke-width="1.1"/>
<text x="32.0" y="122.8" font-size="13" text-anchor="middle">0</text>
<line x1="74.0" y1="107.4" x2="74.0" y2="100.6" stroke="#000" stroke-width="1.1"/>
<text x="74.0" y="122.8" font-size="13" text-anchor="middle">1</text>
<line x1="116.0" y1="107.4" x2="116.0" y2="100.6" stroke="#000" stroke-width="1.1"/>
<text x="116.0" y="122.8" font-size="13" text-anchor="middle">2</text>
<line x1="158.0" y1="107.4" x2="158.0" y2="100.6" stroke="#000" stroke-width="1.1"/>
<text x="158.0" y="122.8" font-size="13" text-anchor="middle">3</text>
<line x1="200.0" y1="107.4" x2="200.0" y2="100.6" stroke="#000" stroke-width="1.1"/>
<text x="200.0" y="122.8" font-size="13" text-anchor="middle">4</text>
<line x1="242.0" y1="107.4" x2="242.0" y2="100.6" stroke="#000" stroke-width="1.1"/>
<text x="242.0" y="122.8" font-size="13" text-anchor="middle">5</text>
<line x1="284.0" y1="107.4" x2="284.0" y2="100.6" stroke="#000" stroke-width="1.1"/>
<text x="284.0" y="122.8" font-size="13" text-anchor="middle">6</text>
<line x1="326.0" y1="107.4" x2="326.0" y2="100.6" stroke="#000" stroke-width="1.1"/>
<text x="326.0" y="122.8" font-size="13" text-anchor="middle">7</text>
<line x1="368.0" y1="107.4" x2="368.0" y2="100.6" stroke="#000" stroke-width="1.1"/>
<text x="368.0" y="122.8" font-size="13" text-anchor="middle">8</text>
<line x1="410.0" y1="107.4" x2="410.0" y2="100.6" stroke="#000" stroke-width="1.1"/>
<text x="410.0" y="122.8" font-size="13" text-anchor="middle">9</text>
<circle cx="32.0" cy="91.4" r="4.0" fill="#000"/>
<circle cx="116.0" cy="91.4" r="4.0" fill="#000"/>
<circle cx="200.0" cy="91.4" r="4.0" fill="#000"/>
<circle cx="284.0" cy="91.4" r="4.0" fill="#000"/>
<circle cx="368.0" cy="91.4" r="4.0" fill="#000"/>
<circle cx="74.0" cy="91.4" r="4.0" fill="#fff" stroke="#000" stroke-width="1.4"/>
<circle cx="158.0" cy="91.4" r="4.0" fill="#fff" stroke="#000" stroke-width="1.4"/>
<circle cx="242.0" cy="91.4" r="4.0" fill="#fff" stroke="#000" stroke-width="1.4"/>
<circle cx="326.0" cy="91.4" r="4.0" fill="#fff" stroke="#000" stroke-width="1.4"/>
<circle cx="410.0" cy="91.4" r="4.0" fill="#fff" stroke="#000" stroke-width="1.4"/>
<text x="200.0" y="64.5" font-size="13" text-anchor="middle" font-weight="bold">●＝偶数 2n　　○＝奇数 2n＋1　（n は整数）</text>
<text x="220.0" y="158.0" font-size="12" text-anchor="middle">n に 0、1、2、3……を入れると、●が 0、2、4、6……と全部出てくる</text>
<text x="220.0" y="178.0" font-size="12" text-anchor="middle">1本の式が、無限にある偶数の「製造機」になっている</text>
</svg>
