<svg xmlns="http://www.w3.org/2000/svg" viewBox="0 0 440 344">
<title>式による説明の4ステップ（二つの奇数の和は偶数）</title>
<desc>【この図の意図】主概念1の流れの可視化。表す→計算・変形→読む→結論を縦に接続。足場1・練習の答は書かない（例の式は本文明示の解説）。【主要な数値・設定】例＝二つの奇数の和／(2m＋1)＋(2n＋1)＝2(m＋n＋1)／読み＝2×（整数）。【AIに同じ種類の図を描かせるときの説明文】「式による説明の4ステップ（二つの奇数の和は偶数）。主概念1の流れの可視化。表す→計算・変形→読む→結論を縦に接続。足場1・練習の答は書かない（例の式は本文明示の解説）。数値・設定: 例＝二つの奇数の和／(2m＋1)＋(2n＋1)＝2(m＋n＋1)／読み＝2×（整数）。白黒印刷向けのシンプルな教材図（SVG）としてかいて。」——この説明文を生成AIに渡せば同型の図を描かせられる。数値を変えれば類題用の図も作れる。</desc>
<!-- L06_fig1_four_step_explanation.svg | 式による説明の4ステップ（二つの奇数の和は偶数） -->
<!-- generated by assets_provenance/generate_figures.py on 2026-07-18 (docs/SPEC_figures.md準拠・SVG直接編集禁止/スクリプト改修で再生成) -->
<rect x="0" y="0" width="440" height="344" fill="#fff"/>
<rect x="70.0" y="26.0" width="300.0" height="58.0" rx="4" fill="#fff" stroke="#000" stroke-width="1.6"/>
<text x="220.0" y="43.0" font-size="12" text-anchor="middle" font-weight="bold">ステップ1: 表す</text>
<text x="220.0" y="59.2" font-size="12" text-anchor="middle">m、n を整数とすると</text>
<text x="220.0" y="75.4" font-size="12" text-anchor="middle">二つの奇数は 2m＋1、2n＋1</text>
<line x1="220.0" y1="86.0" x2="220.0" y2="91.0" stroke="#000" stroke-width="1.6"/>
<polygon points="220.0,98.0 216.8,91.0 223.2,91.0" fill="#000"/>
<rect x="70.0" y="100.0" width="300.0" height="58.0" rx="4" fill="#fff" stroke="#000" stroke-width="1.6"/>
<text x="220.0" y="117.0" font-size="12" text-anchor="middle" font-weight="bold">ステップ2: 計算・変形する</text>
<text x="220.0" y="133.2" font-size="12" text-anchor="middle">(2m＋1)＋(2n＋1)</text>
<text x="220.0" y="149.4" font-size="12" text-anchor="middle">＝2m＋2n＋2＝2(m＋n＋1)</text>
<line x1="220.0" y1="160.0" x2="220.0" y2="165.0" stroke="#000" stroke-width="1.6"/>
<polygon points="220.0,172.0 216.8,165.0 223.2,165.0" fill="#000"/>
<rect x="70.0" y="174.0" width="300.0" height="58.0" rx="4" fill="#fff" stroke="#000" stroke-width="1.6"/>
<text x="220.0" y="191.0" font-size="12" text-anchor="middle" font-weight="bold">ステップ3: 読む</text>
<text x="220.0" y="207.2" font-size="12" text-anchor="middle">m＋n＋1 は整数だから</text>
<text x="220.0" y="223.4" font-size="12" text-anchor="middle">2×（整数）の形＝偶数</text>
<line x1="220.0" y1="234.0" x2="220.0" y2="239.0" stroke="#000" stroke-width="1.6"/>
<polygon points="220.0,246.0 216.8,239.0 223.2,239.0" fill="#000"/>
<rect x="70.0" y="248.0" width="300.0" height="58.0" rx="4" fill="#fff" stroke="#000" stroke-width="1.6"/>
<text x="220.0" y="265.0" font-size="12" text-anchor="middle" font-weight="bold">ステップ4: 結論</text>
<text x="220.0" y="281.2" font-size="12" text-anchor="middle">したがって</text>
<text x="220.0" y="297.4" font-size="12" text-anchor="middle">二つの奇数の和は偶数になる</text>
<text x="378.0" y="197.0" font-size="10" text-anchor="start">忘れられ</text>
<text x="378.0" y="209.0" font-size="10" text-anchor="start">やすい！</text>
<text x="220.0" y="330.0" font-size="12" text-anchor="middle">ステップ3を飛ばすと「計算しただけ」で説明にならない</text>
</svg>
