<svg xmlns="http://www.w3.org/2000/svg" viewBox="0 0 440 262">
<title>同じ数の二つの顔（2(5n＋2)＋1は奇数でも5の倍数でもある）</title>
<desc>【この図の意図】主概念2の可視化。1つの式から2通りの形へ分岐する読みの図解。練習の答は書かない（25は本文明示の解説値）。【主要な数値・設定】2(5n＋2)＋1＝10n＋5／読み①2×（整数）＋1／読み②5(2n＋1)／例n＝2で25。【AIに同じ種類の図を描かせるときの説明文】「同じ数の二つの顔（2(5n＋2)＋1は奇数でも5の倍数でもある）。主概念2の可視化。1つの式から2通りの形へ分岐する読みの図解。練習の答は書かない（25は本文明示の解説値）。数値・設定: 2(5n＋2)＋1＝10n＋5／読み①2×（整数）＋1／読み②5(2n＋1)／例n＝2で25。白黒印刷向けのシンプルな教材図（SVG）としてかいて。」——この説明文を生成AIに渡せば同型の図を描かせられる。数値を変えれば類題用の図も作れる。</desc>
<!-- L09_fig2_two_faces_of_expression.svg | 同じ数の二つの顔（2(5n＋2)＋1は奇数でも5の倍数でもある） -->
<!-- generated by assets_provenance/generate_figures.py on 2026-07-18 (docs/SPEC_figures.md準拠・SVG直接編集禁止/スクリプト改修で再生成) -->
<rect x="0" y="0" width="440" height="262" fill="#fff"/>
<rect x="140.0" y="22.0" width="160.0" height="40.0" rx="4" fill="#fff" stroke="#000" stroke-width="1.6"/>
<text x="220.0" y="37.8" font-size="13" text-anchor="middle" font-weight="bold">2(5n＋2)＋1</text>
<text x="220.0" y="55.3" font-size="13" text-anchor="middle">（n は整数）</text>
<rect x="28.0" y="130.0" width="180.0" height="66.0" rx="4" fill="#fff" stroke="#000" stroke-width="1.6"/>
<text x="118.0" y="151.0" font-size="12" text-anchor="middle">2(5n＋2)＋1 のまま見る</text>
<text x="118.0" y="167.2" font-size="12" text-anchor="middle">＝2×（整数）＋1</text>
<text x="118.0" y="183.4" font-size="12" text-anchor="middle">→ 奇数</text>
<rect x="232.0" y="130.0" width="180.0" height="66.0" rx="4" fill="#fff" stroke="#000" stroke-width="1.6"/>
<text x="322.0" y="151.0" font-size="12" text-anchor="middle">10n＋5＝5(2n＋1) と変形</text>
<text x="322.0" y="167.2" font-size="12" text-anchor="middle">＝5×（整数）</text>
<text x="322.0" y="183.4" font-size="12" text-anchor="middle">→ 5の倍数</text>
<line x1="190.0" y1="66.0" x2="123.4" y2="121.5" stroke="#000" stroke-width="1.4"/>
<polygon points="118.0,126.0 121.4,119.1 125.4,123.9" fill="#000"/>
<line x1="250.0" y1="66.0" x2="316.6" y2="121.5" stroke="#000" stroke-width="1.4"/>
<polygon points="322.0,126.0 314.6,123.9 318.6,119.1" fill="#000"/>
<text x="120.0" y="100.0" font-size="11" text-anchor="middle">そのまま読む</text>
<text x="322.0" y="100.0" font-size="11" text-anchor="middle">変形して読む</text>
<text x="220.0" y="226.0" font-size="13" text-anchor="middle" font-weight="bold">同じ数が、どの形に整えるかで違う顔を見せる</text>
<text x="220.0" y="248.0" font-size="12" text-anchor="middle">変形の仕方の数だけ、読める事実がある（n＝2 なら 25——たしかに両方 ✓）</text>
</svg>
