<svg xmlns="http://www.w3.org/2000/svg" viewBox="0 0 440 292">
<title>両端が半円のトラック（直線d・内側の半径r・レーン幅1m）</title>
<desc>【この図の意図】導入の場面図。求める1周の差は「？」で示し、答えの値は書かない。【主要な数値・設定】直線d・内側半径r・レーン幅1m／半円は61点の折れ線近似／差がd,rに無関係なことはassertのみで検算。【AIに同じ種類の図を描かせるときの説明文】「両端が半円のトラック（直線d・内側の半径r・レーン幅1m）。導入の場面図。求める1周の差は「？」で示し、答えの値は書かない。数値・設定: 直線d・内側半径r・レーン幅1m／半円は61点の折れ線近似／差がd,rに無関係なことはassertのみで検算。白黒印刷向けのシンプルな教材図（SVG）としてかいて。」——この説明文を生成AIに渡せば同型の図を描かせられる。数値を変えれば類題用の図も作れる。</desc>
<!-- L09_fig1_track_lanes.svg | 両端が半円のトラック（直線d・内側の半径r・レーン幅1m） -->
<!-- generated by assets_provenance/generate_figures.py on 2026-07-18 (docs/SPEC_figures.md準拠・SVG直接編集禁止/スクリプト改修で再生成) -->
<rect x="0" y="0" width="440" height="292" fill="#fff"/>
<polyline points="332.0,188.4 335.7,188.3 339.4,188.0 343.0,187.5 346.6,186.9 350.2,186.0 353.8,185.0 357.2,183.7 360.6,182.3 364.0,180.7 367.2,179.0 370.3,177.0 373.4,175.0 376.3,172.7 379.1,170.3 381.8,167.8 384.3,165.1 386.7,162.3 389.0,159.4 391.0,156.3 393.0,153.2 394.7,150.0 396.3,146.6 397.7,143.2 399.0,139.8 400.0,136.2 400.9,132.6 401.5,129.0 402.0,125.4 402.3,121.7 402.4,118.0 402.3,114.3 402.0,110.6 401.5,107.0 400.9,103.4 400.0,99.8 399.0,96.2 397.7,92.8 396.3,89.4 394.7,86.0 393.0,82.8 391.0,79.7 389.0,76.6 386.7,73.7 384.3,70.9 381.8,68.2 379.1,65.7 376.3,63.3 373.4,61.0 370.3,59.0 367.2,57.0 364.0,55.3 360.6,53.7 357.2,52.3 353.8,51.0 350.2,50.0 346.6,49.1 343.0,48.5 339.4,48.0 335.7,47.7 332.0,47.6 108.0,47.6 104.3,47.7 100.6,48.0 97.0,48.5 93.4,49.1 89.8,50.0 86.2,51.0 82.8,52.3 79.4,53.7 76.0,55.3 72.8,57.0 69.7,59.0 66.6,61.0 63.7,63.3 60.9,65.7 58.2,68.2 55.7,70.9 53.3,73.7 51.0,76.6 49.0,79.7 47.0,82.8 45.3,86.0 43.7,89.4 42.3,92.8 41.0,96.2 40.0,99.8 39.1,103.4 38.5,107.0 38.0,110.6 37.7,114.3 37.6,118.0 37.7,121.7 38.0,125.4 38.5,129.0 39.1,132.6 40.0,136.2 41.0,139.8 42.3,143.2 43.7,146.6 45.3,150.0 47.0,153.2 49.0,156.3 51.0,159.4 53.3,162.3 55.7,165.1 58.2,167.8 60.9,170.3 63.7,172.7 66.6,175.0 69.7,177.0 72.8,179.0 76.0,180.7 79.4,182.3 82.8,183.7 86.2,185.0 89.8,186.0 93.4,186.9 97.0,187.5 100.6,188.0 104.3,188.3 108.0,188.4 332.0,188.4" fill="none" stroke="#000" stroke-width="1.6"/>
<polyline points="332.0,220.4 337.4,220.3 342.7,219.8 348.0,219.1 353.3,218.2 358.5,216.9 363.6,215.4 368.7,213.6 373.6,211.5 378.5,209.2 383.2,206.7 387.8,203.9 392.2,200.8 396.4,197.6 400.5,194.1 404.4,190.4 408.1,186.5 411.6,182.4 414.8,178.2 417.9,173.8 420.7,169.2 423.2,164.5 425.5,159.6 427.6,154.7 429.4,149.6 430.9,144.5 432.2,139.3 433.1,134.0 433.8,128.7 434.3,123.4 434.4,118.0 434.3,112.6 433.8,107.3 433.1,102.0 432.2,96.7 430.9,91.5 429.4,86.4 427.6,81.3 425.5,76.4 423.2,71.5 420.7,66.8 417.9,62.2 414.8,57.8 411.6,53.6 408.1,49.5 404.4,45.6 400.5,41.9 396.4,38.4 392.2,35.2 387.8,32.1 383.2,29.3 378.5,26.8 373.6,24.5 368.7,22.4 363.6,20.6 358.5,19.1 353.3,17.8 348.0,16.9 342.7,16.2 337.4,15.7 332.0,15.6 108.0,15.6 102.6,15.7 97.3,16.2 92.0,16.9 86.7,17.8 81.5,19.1 76.4,20.6 71.3,22.4 66.4,24.5 61.5,26.8 56.8,29.3 52.2,32.1 47.8,35.2 43.6,38.4 39.5,41.9 35.6,45.6 31.9,49.5 28.4,53.6 25.2,57.8 22.1,62.2 19.3,66.8 16.8,71.5 14.5,76.4 12.4,81.3 10.6,86.4 9.1,91.5 7.8,96.7 6.9,102.0 6.2,107.3 5.7,112.6 5.6,118.0 5.7,123.4 6.2,128.7 6.9,134.0 7.8,139.3 9.1,144.5 10.6,149.6 12.4,154.7 14.5,159.6 16.8,164.5 19.3,169.2 22.1,173.8 25.2,178.2 28.4,182.4 31.9,186.5 35.6,190.4 39.5,194.1 43.6,197.6 47.8,200.8 52.2,203.9 56.8,206.7 61.5,209.2 66.4,211.5 71.3,213.6 76.4,215.4 81.5,216.9 86.7,218.2 92.0,219.1 97.3,219.8 102.6,220.3 108.0,220.4 332.0,220.4" fill="none" stroke="#000" stroke-width="1.6"/>
<line x1="108.0" y1="70.0" x2="332.0" y2="70.0" stroke="#000" stroke-width="0.9"/>
<line x1="108.0" y1="66.0" x2="108.0" y2="74.0" stroke="#000" stroke-width="0.9"/>
<line x1="332.0" y1="66.0" x2="332.0" y2="74.0" stroke="#000" stroke-width="0.9"/>
<text x="220.0" y="61.5" font-size="13" text-anchor="middle">直線部分 d m</text>
<circle cx="332.0" cy="118.0" r="2.5" fill="#000"/>
<line x1="332.0" y1="118.0" x2="393.8" y2="151.8" stroke="#000" stroke-width="1.1" stroke-dasharray="6 4"/>
<text x="375.6" y="166.2" font-size="13" text-anchor="middle">r m</text>
<line x1="402.4" y1="118.0" x2="434.4" y2="118.0" stroke="#000" stroke-width="0.9"/>
<line x1="402.4" y1="114.0" x2="402.4" y2="122.0" stroke="#000" stroke-width="0.9"/>
<line x1="434.4" y1="114.0" x2="434.4" y2="122.0" stroke="#000" stroke-width="0.9"/>
<text x="418.4" y="137.2" font-size="12" text-anchor="middle">1m</text>
<text x="220.0" y="208.6" font-size="12" text-anchor="middle">外側のレーン</text>
<text x="220.0" y="122.2" font-size="12" text-anchor="middle">内側のレーン</text>
<text x="220.0" y="254.0" font-size="13" text-anchor="middle" font-weight="bold">外側のレーンは1周がどれだけ長い？——差は「？」m</text>
<text x="220.0" y="276.0" font-size="12" text-anchor="middle">（長方形の両端に半円。走る線の上で測る。外側の半円の半径は r＋1）</text>
</svg>
