<svg xmlns="http://www.w3.org/2000/svg" viewBox="0 0 480 250" role="img">
<title>影の長さの1日の変化——96cmの水平線が2点で交わる</title>
<desc>L01主概念2の反例図。横軸=時刻（朝〜夕・目盛り数値なし）、縦軸=影の長さの模式図。朝は長く昼に短く夕方また長くなるU字型の曲線に、高さ96cmの水平の破線を重ねると、曲線と2点で交わる（交点に丸印）。y（長さ）を決めるとx（時刻）が2つ出てくる＝逆向きは関数でない、を目で見せる。水平線と曲線の交点がちょうど2個であることを符号変化の数値検算でassert済み。再現指示: U字曲線＋水平破線＋交点2つの丸印。軸に目盛り数値は付けない。白黒のみ。</desc>
<!-- L01_fig2_shadow_two_crossings.svg | 影の長さの1日の変化——96cmの水平線が2点で交わる -->
<!-- generated by assets_provenance/generate_figures.py on 2026-07-18 (コード来歴方式・AI再利用メタ情報つき・SVG直接編集禁止/スクリプト改修で再生成) -->
<rect x="0" y="0" width="480" height="250" fill="#fff"/>
<line x1="70.0" y1="196.0" x2="420.0" y2="196.0" stroke="#000" stroke-width="1.3"/>
<line x1="420.0" y1="196.0" x2="414.6" y2="198.6" stroke="#000" stroke-width="1.3"/>
<line x1="420.0" y1="196.0" x2="414.6" y2="193.4" stroke="#000" stroke-width="1.3"/>
<line x1="70.0" y1="196.0" x2="70.0" y2="38.0" stroke="#000" stroke-width="1.3"/>
<line x1="70.0" y1="38.0" x2="72.6" y2="43.4" stroke="#000" stroke-width="1.3"/>
<line x1="70.0" y1="38.0" x2="67.4" y2="43.4" stroke="#000" stroke-width="1.3"/>
<text x="240.0" y="214.0" font-size="11" text-anchor="middle">時刻（朝 → 夕）</text>
<text x="58.0" y="106.0" font-size="11" text-anchor="middle">影</text>
<text x="58.0" y="122.0" font-size="11" text-anchor="middle">の</text>
<text x="58.0" y="138.0" font-size="11" text-anchor="middle">長</text>
<text x="58.0" y="154.0" font-size="11" text-anchor="middle">さ</text>
<polyline points="70.00,83.86 74.25,88.92 78.50,93.85 82.75,98.66 87.00,103.33 91.25,107.88 95.50,112.30 99.75,116.59 104.00,120.75 108.25,124.78 112.50,128.69 116.75,132.47 121.00,136.12 125.25,139.64 129.50,143.03 133.75,146.30 138.00,149.44 142.25,152.45 146.50,155.33 150.75,158.08 155.00,160.71 159.25,163.21 163.50,165.57 167.75,167.82 172.00,169.93 176.25,171.91 180.50,173.77 184.75,175.50 189.00,177.10 193.25,178.57 197.50,179.92 201.75,181.14 206.00,182.22 210.25,183.18 214.50,184.02 218.75,184.72 223.00,185.30 227.25,185.75 231.50,186.07 235.75,186.26 240.00,186.32 244.25,186.26 248.50,186.07 252.75,185.75 257.00,185.30 261.25,184.72 265.50,184.02 269.75,183.18 274.00,182.22 278.25,181.14 282.50,179.92 286.75,178.57 291.00,177.10 295.25,175.50 299.50,173.77 303.75,171.91 308.00,169.93 312.25,167.82 316.50,165.57 320.75,163.21 325.00,160.71 329.25,158.08 333.50,155.33 337.75,152.45 342.00,149.44 346.25,146.30 350.50,143.03 354.75,139.64 359.00,136.12 363.25,132.47 367.50,128.69 371.75,124.78 376.00,120.75 380.25,116.59 384.50,112.30 388.75,107.88 393.00,103.33 397.25,98.66 401.50,93.85 405.75,88.92 410.00,83.86" fill="none" stroke="#000" stroke-width="2.6" stroke-linejoin="round"/>
<line x1="70.0" y1="172.8" x2="410.0" y2="172.8" stroke="#000" stroke-width="1.2" stroke-dasharray="6 4"/>
<text x="64.0" y="176.8" font-size="11" text-anchor="end" font-weight="bold">96cm</text>
<circle cx="178.3" cy="172.8" r="6" fill="none" stroke="#000" stroke-width="1.6"/>
<circle cx="301.9" cy="172.8" r="6" fill="none" stroke="#000" stroke-width="1.6"/>
<text x="240.0" y="24.0" font-size="13" text-anchor="middle" font-weight="bold">影の長さの1日の変化（模式図）</text>
<text x="240.0" y="232.0" font-size="11" text-anchor="middle">長さ96cmを決めても、時刻は2つ出てくる——逆向きは関数でない</text>
</svg>
