<svg xmlns="http://www.w3.org/2000/svg" viewBox="0 0 480 270" role="img">
<title>対応の矢印図——xの値から矢印がちょうど1本</title>
<desc>L01主概念1の導入図。左の箱「xの値（時間）」に1・2・3、右の箱「yの値（深さ）」に2・4・6を置き、1→2・2→4・3→6の矢印を1本ずつ引いた（本文の水そうの対応）。どのxの値からも矢印がちょうど1本だけ出ることが「ただ一つ決まる＝関数」の見た目であることを示す。右下に、1つの値から矢印が2本に枝分かれする「関数でない場合」を数値なしの点で小さく対比。対応が深さ=2×時間であることをassert検算済み。再現指示: 左右2つの角丸箱と3本の矢印、右下に破線囲みの枝分かれ対比。白黒のみ。</desc>
<!-- L01_fig1_function_arrow_map.svg | 対応の矢印図——xの値から矢印がちょうど1本 -->
<!-- generated by assets_provenance/generate_figures.py on 2026-07-18 (コード来歴方式・AI再利用メタ情報つき・SVG直接編集禁止/スクリプト改修で再生成) -->
<rect x="0" y="0" width="480" height="270" fill="#fff"/>
<text x="240.0" y="24.0" font-size="13" text-anchor="middle" font-weight="bold">「ただ一つ決まる」の見た目——対応の矢印図</text>
<rect x="60.0" y="58.0" width="110.0" height="130.0" rx="10" fill="none" stroke="#000" stroke-width="1.6"/>
<rect x="260.0" y="58.0" width="110.0" height="130.0" rx="10" fill="none" stroke="#000" stroke-width="1.6"/>
<text x="115.0" y="50.0" font-size="11.5" text-anchor="middle" font-weight="bold">xの値（時間）</text>
<text x="315.0" y="50.0" font-size="11.5" text-anchor="middle" font-weight="bold">yの値（深さ）</text>
<text x="115.0" y="92.0" font-size="13" text-anchor="middle">1</text>
<text x="315.0" y="92.0" font-size="13" text-anchor="middle">2</text>
<line x1="178.0" y1="88.0" x2="252.0" y2="88.0" stroke="#000" stroke-width="1.5"/>
<line x1="252.0" y1="88.0" x2="245.7" y2="91.1" stroke="#000" stroke-width="1.5"/>
<line x1="252.0" y1="88.0" x2="245.7" y2="84.9" stroke="#000" stroke-width="1.5"/>
<text x="115.0" y="130.0" font-size="13" text-anchor="middle">2</text>
<text x="315.0" y="130.0" font-size="13" text-anchor="middle">4</text>
<line x1="178.0" y1="126.0" x2="252.0" y2="126.0" stroke="#000" stroke-width="1.5"/>
<line x1="252.0" y1="126.0" x2="245.7" y2="129.1" stroke="#000" stroke-width="1.5"/>
<line x1="252.0" y1="126.0" x2="245.7" y2="122.9" stroke="#000" stroke-width="1.5"/>
<text x="115.0" y="168.0" font-size="13" text-anchor="middle">3</text>
<text x="315.0" y="168.0" font-size="13" text-anchor="middle">6</text>
<line x1="178.0" y1="164.0" x2="252.0" y2="164.0" stroke="#000" stroke-width="1.5"/>
<line x1="252.0" y1="164.0" x2="245.7" y2="167.1" stroke="#000" stroke-width="1.5"/>
<line x1="252.0" y1="164.0" x2="245.7" y2="160.9" stroke="#000" stroke-width="1.5"/>
<text x="180.0" y="220.0" font-size="11" text-anchor="middle">どのxの値からも、矢印はちょうど1本だけ出る</text>
<rect x="348.0" y="182.0" width="130.0" height="66.0" rx="8" fill="none" stroke="#666" stroke-width="1.0" stroke-dasharray="3 3"/>
<circle cx="364.0" cy="208.0" r="3" fill="#000"/>
<circle cx="448.0" cy="196.0" r="3" fill="#000"/>
<circle cx="448.0" cy="222.0" r="3" fill="#000"/>
<line x1="370.0" y1="206.0" x2="442.0" y2="197.0" stroke="#000" stroke-width="1.2"/>
<line x1="442.0" y1="197.0" x2="436.1" y2="200.8" stroke="#000" stroke-width="1.2"/>
<line x1="442.0" y1="197.0" x2="435.4" y2="194.7" stroke="#000" stroke-width="1.2"/>
<line x1="370.0" y1="210.0" x2="442.0" y2="221.0" stroke="#000" stroke-width="1.2"/>
<line x1="442.0" y1="221.0" x2="435.3" y2="223.1" stroke="#000" stroke-width="1.2"/>
<line x1="442.0" y1="221.0" x2="436.2" y2="217.0" stroke="#000" stroke-width="1.2"/>
<text x="410.0" y="242.0" font-size="9.5" text-anchor="middle">矢印が2本→関数でない</text>
</svg>
