<svg xmlns="http://www.w3.org/2000/svg" viewBox="0 0 480 230" role="img">
<title>数直線上の変域表示——0≦x≦15 と −2＜x≦3 の対比</title>
<desc>L02主概念の整理図。数直線2本を縦に並べ、上段に 0≦x≦15（両端とも●・0から15までを太線）、下段に −2＜x≦3（−2は○・3は●・間を太線）を示した。「以上・以下は●／より大きい・未満は○」の使い分けを一目で示す。右下に●○の凡例。両区間の端点が左&lt;右の順で数直線の範囲内にあることをassert検算済み。再現指示: 数直線2本・太線区間・端点の●○・凡例。白黒のみ。</desc>
<!-- L02_fig1_domain_number_lines.svg | 数直線上の変域表示——0≦x≦15 と −2＜x≦3 の対比 -->
<!-- generated by assets_provenance/generate_figures.py on 2026-07-18 (コード来歴方式・AI再利用メタ情報つき・SVG直接編集禁止/スクリプト改修で再生成) -->
<rect x="0" y="0" width="480" height="230" fill="#fff"/>
<text x="240.0" y="24.0" font-size="13" text-anchor="middle" font-weight="bold">変域を数直線で表す——●ふくむ／○ふくまない</text>
<line x1="48.0" y1="78.0" x2="400.0" y2="78.0" stroke="#000" stroke-width="1.2"/>
<line x1="400.0" y1="78.0" x2="394.6" y2="80.6" stroke="#000" stroke-width="1.2"/>
<line x1="400.0" y1="78.0" x2="394.6" y2="75.4" stroke="#000" stroke-width="1.2"/>
<line x1="104.5" y1="74.5" x2="104.5" y2="81.5" stroke="#000" stroke-width="0.9"/>
<text x="104.5" y="95.0" font-size="10.5" text-anchor="middle">0</text>
<line x1="187.0" y1="74.5" x2="187.0" y2="81.5" stroke="#000" stroke-width="0.9"/>
<text x="187.0" y="95.0" font-size="10.5" text-anchor="middle">5</text>
<line x1="269.5" y1="74.5" x2="269.5" y2="81.5" stroke="#000" stroke-width="0.9"/>
<text x="269.5" y="95.0" font-size="10.5" text-anchor="middle">10</text>
<line x1="352.0" y1="74.5" x2="352.0" y2="81.5" stroke="#000" stroke-width="0.9"/>
<text x="352.0" y="95.0" font-size="10.5" text-anchor="middle">15</text>
<line x1="104.5" y1="78.0" x2="352.0" y2="78.0" stroke="#000" stroke-width="4.0"/>
<circle cx="104.5" cy="78.0" r="4.5" fill="#000"/>
<circle cx="352.0" cy="78.0" r="4.5" fill="#000"/>
<text x="430.0" y="66.0" font-size="12" text-anchor="middle" font-weight="bold">0 ≦ x ≦ 15</text>
<line x1="48.0" y1="140.0" x2="400.0" y2="140.0" stroke="#000" stroke-width="1.2"/>
<line x1="400.0" y1="140.0" x2="394.6" y2="142.6" stroke="#000" stroke-width="1.2"/>
<line x1="400.0" y1="140.0" x2="394.6" y2="137.4" stroke="#000" stroke-width="1.2"/>
<line x1="91.7" y1="136.5" x2="91.7" y2="143.5" stroke="#000" stroke-width="0.9"/>
<text x="91.7" y="157.0" font-size="10.5" text-anchor="middle">−3</text>
<line x1="128.3" y1="136.5" x2="128.3" y2="143.5" stroke="#000" stroke-width="0.9"/>
<text x="128.3" y="157.0" font-size="10.5" text-anchor="middle">−2</text>
<line x1="165.0" y1="136.5" x2="165.0" y2="143.5" stroke="#000" stroke-width="0.9"/>
<text x="165.0" y="157.0" font-size="10.5" text-anchor="middle">−1</text>
<line x1="201.7" y1="136.5" x2="201.7" y2="143.5" stroke="#000" stroke-width="0.9"/>
<text x="201.7" y="157.0" font-size="10.5" text-anchor="middle">0</text>
<line x1="238.3" y1="136.5" x2="238.3" y2="143.5" stroke="#000" stroke-width="0.9"/>
<text x="238.3" y="157.0" font-size="10.5" text-anchor="middle">1</text>
<line x1="275.0" y1="136.5" x2="275.0" y2="143.5" stroke="#000" stroke-width="0.9"/>
<text x="275.0" y="157.0" font-size="10.5" text-anchor="middle">2</text>
<line x1="311.7" y1="136.5" x2="311.7" y2="143.5" stroke="#000" stroke-width="0.9"/>
<text x="311.7" y="157.0" font-size="10.5" text-anchor="middle">3</text>
<line x1="348.3" y1="136.5" x2="348.3" y2="143.5" stroke="#000" stroke-width="0.9"/>
<text x="348.3" y="157.0" font-size="10.5" text-anchor="middle">4</text>
<line x1="128.3" y1="140.0" x2="311.7" y2="140.0" stroke="#000" stroke-width="4.0"/>
<circle cx="128.3" cy="140.0" r="4.5" fill="#fff" stroke="#000" stroke-width="1.2"/>
<circle cx="311.7" cy="140.0" r="4.5" fill="#000"/>
<text x="430.0" y="128.0" font-size="12" text-anchor="middle" font-weight="bold">−2 ＜ x ≦ 3</text>
<circle cx="120.0" cy="190.0" r="4.5" fill="#000"/>
<text x="130.0" y="194.0" font-size="10.5" text-anchor="start">＝ ふくむ（以上・以下）</text>
<circle cx="120.0" cy="212.0" r="4.5" fill="#fff" stroke="#000" stroke-width="1.2"/>
<text x="130.0" y="216.0" font-size="10.5" text-anchor="start">＝ ふくまない（より大きい・未満）</text>
</svg>
