<svg xmlns="http://www.w3.org/2000/svg" viewBox="0 0 480 340" role="img">
<title>「商一定」チェック図——y＝80x と y＝−3x の2表</title>
<desc>L03主概念2の判定図。上段にy＝80x（x＝−3〜3）の表、各列の下に商y÷x＝80の書きこみ（x＝0の列だけ「—」・0でわることは考えない注意書きつき）。下段にy＝−3x（x＝1〜4）の表と商y÷x＝−3の書きこみ。比例定数が正でも負でも・xが負でも「商一定」という同じ判定が通ることを視覚化する。表の全値をy＝axから再計算して本文と一致・全列の商が一定であることをassert検算済み。再現指示: 2段の表＋各列下の商の値・x＝0列のみ除外表示。白黒のみ。</desc>
<!-- L03_fig1_quotient_check_tables.svg | 「商一定」チェック図——y＝80x と y＝−3x の2表 -->
<!-- generated by assets_provenance/generate_figures.py on 2026-07-18 (コード来歴方式・AI再利用メタ情報つき・SVG直接編集禁止/スクリプト改修で再生成) -->
<rect x="0" y="0" width="480" height="340" fill="#fff"/>
<text x="240.0" y="24.0" font-size="13" text-anchor="middle" font-weight="bold">「商一定」チェック——比例定数が正でも負でも同じ判定</text>
<text x="40.0" y="52.0" font-size="12" text-anchor="start" font-weight="bold">y ＝ 80x</text>
<line x1="40.0" y1="60.0" x2="444.0" y2="60.0" stroke="#000" stroke-width="1.1"/>
<line x1="40.0" y1="86.0" x2="444.0" y2="86.0" stroke="#000" stroke-width="1.1"/>
<line x1="40.0" y1="112.0" x2="444.0" y2="112.0" stroke="#000" stroke-width="1.1"/>
<line x1="40.0" y1="60.0" x2="40.0" y2="112.0" stroke="#000" stroke-width="1.1"/>
<line x1="80.0" y1="60.0" x2="80.0" y2="112.0" stroke="#000" stroke-width="1.1"/>
<line x1="132.0" y1="60.0" x2="132.0" y2="112.0" stroke="#000" stroke-width="1.1"/>
<line x1="184.0" y1="60.0" x2="184.0" y2="112.0" stroke="#000" stroke-width="1.1"/>
<line x1="236.0" y1="60.0" x2="236.0" y2="112.0" stroke="#000" stroke-width="1.1"/>
<line x1="288.0" y1="60.0" x2="288.0" y2="112.0" stroke="#000" stroke-width="1.1"/>
<line x1="340.0" y1="60.0" x2="340.0" y2="112.0" stroke="#000" stroke-width="1.1"/>
<line x1="392.0" y1="60.0" x2="392.0" y2="112.0" stroke="#000" stroke-width="1.1"/>
<line x1="444.0" y1="60.0" x2="444.0" y2="112.0" stroke="#000" stroke-width="1.1"/>
<text x="60.0" y="77.0" font-size="10.5" text-anchor="middle">x</text>
<text x="60.0" y="103.0" font-size="10.5" text-anchor="middle">y</text>
<text x="106.0" y="77.0" font-size="10.5" text-anchor="middle">−3</text>
<text x="106.0" y="103.0" font-size="10.5" text-anchor="middle">−240</text>
<text x="158.0" y="77.0" font-size="10.5" text-anchor="middle">−2</text>
<text x="158.0" y="103.0" font-size="10.5" text-anchor="middle">−160</text>
<text x="210.0" y="77.0" font-size="10.5" text-anchor="middle">−1</text>
<text x="210.0" y="103.0" font-size="10.5" text-anchor="middle">−80</text>
<text x="262.0" y="77.0" font-size="10.5" text-anchor="middle">0</text>
<text x="262.0" y="103.0" font-size="10.5" text-anchor="middle">0</text>
<text x="314.0" y="77.0" font-size="10.5" text-anchor="middle">1</text>
<text x="314.0" y="103.0" font-size="10.5" text-anchor="middle">80</text>
<text x="366.0" y="77.0" font-size="10.5" text-anchor="middle">2</text>
<text x="366.0" y="103.0" font-size="10.5" text-anchor="middle">160</text>
<text x="418.0" y="77.0" font-size="10.5" text-anchor="middle">3</text>
<text x="418.0" y="103.0" font-size="10.5" text-anchor="middle">240</text>
<line x1="106.0" y1="114.0" x2="106.0" y2="124.0" stroke="#666" stroke-width="0.9"/>
<text x="106.0" y="138.0" font-size="10.5" text-anchor="middle" font-weight="bold">80</text>
<line x1="158.0" y1="114.0" x2="158.0" y2="124.0" stroke="#666" stroke-width="0.9"/>
<text x="158.0" y="138.0" font-size="10.5" text-anchor="middle" font-weight="bold">80</text>
<line x1="210.0" y1="114.0" x2="210.0" y2="124.0" stroke="#666" stroke-width="0.9"/>
<text x="210.0" y="138.0" font-size="10.5" text-anchor="middle" font-weight="bold">80</text>
<text x="262.0" y="138.0" font-size="10.5" text-anchor="middle">—</text>
<line x1="314.0" y1="114.0" x2="314.0" y2="124.0" stroke="#666" stroke-width="0.9"/>
<text x="314.0" y="138.0" font-size="10.5" text-anchor="middle" font-weight="bold">80</text>
<line x1="366.0" y1="114.0" x2="366.0" y2="124.0" stroke="#666" stroke-width="0.9"/>
<text x="366.0" y="138.0" font-size="10.5" text-anchor="middle" font-weight="bold">80</text>
<line x1="418.0" y1="114.0" x2="418.0" y2="124.0" stroke="#666" stroke-width="0.9"/>
<text x="418.0" y="138.0" font-size="10.5" text-anchor="middle" font-weight="bold">80</text>
<text x="40.0" y="158.0" font-size="10" text-anchor="start">y÷x はどの列も 80（x＝0の列は0でわることは考えない）</text>
<text x="40.0" y="196.0" font-size="12" text-anchor="start" font-weight="bold">y ＝ −3x</text>
<line x1="40.0" y1="204.0" x2="288.0" y2="204.0" stroke="#000" stroke-width="1.1"/>
<line x1="40.0" y1="230.0" x2="288.0" y2="230.0" stroke="#000" stroke-width="1.1"/>
<line x1="40.0" y1="256.0" x2="288.0" y2="256.0" stroke="#000" stroke-width="1.1"/>
<line x1="40.0" y1="204.0" x2="40.0" y2="256.0" stroke="#000" stroke-width="1.1"/>
<line x1="80.0" y1="204.0" x2="80.0" y2="256.0" stroke="#000" stroke-width="1.1"/>
<line x1="132.0" y1="204.0" x2="132.0" y2="256.0" stroke="#000" stroke-width="1.1"/>
<line x1="184.0" y1="204.0" x2="184.0" y2="256.0" stroke="#000" stroke-width="1.1"/>
<line x1="236.0" y1="204.0" x2="236.0" y2="256.0" stroke="#000" stroke-width="1.1"/>
<line x1="288.0" y1="204.0" x2="288.0" y2="256.0" stroke="#000" stroke-width="1.1"/>
<text x="60.0" y="221.0" font-size="10.5" text-anchor="middle">x</text>
<text x="60.0" y="247.0" font-size="10.5" text-anchor="middle">y</text>
<text x="106.0" y="221.0" font-size="10.5" text-anchor="middle">1</text>
<text x="106.0" y="247.0" font-size="10.5" text-anchor="middle">−3</text>
<text x="158.0" y="221.0" font-size="10.5" text-anchor="middle">2</text>
<text x="158.0" y="247.0" font-size="10.5" text-anchor="middle">−6</text>
<text x="210.0" y="221.0" font-size="10.5" text-anchor="middle">3</text>
<text x="210.0" y="247.0" font-size="10.5" text-anchor="middle">−9</text>
<text x="262.0" y="221.0" font-size="10.5" text-anchor="middle">4</text>
<text x="262.0" y="247.0" font-size="10.5" text-anchor="middle">−12</text>
<line x1="106.0" y1="258.0" x2="106.0" y2="268.0" stroke="#666" stroke-width="0.9"/>
<text x="106.0" y="282.0" font-size="10.5" text-anchor="middle" font-weight="bold">−3</text>
<line x1="158.0" y1="258.0" x2="158.0" y2="268.0" stroke="#666" stroke-width="0.9"/>
<text x="158.0" y="282.0" font-size="10.5" text-anchor="middle" font-weight="bold">−3</text>
<line x1="210.0" y1="258.0" x2="210.0" y2="268.0" stroke="#666" stroke-width="0.9"/>
<text x="210.0" y="282.0" font-size="10.5" text-anchor="middle" font-weight="bold">−3</text>
<line x1="262.0" y1="258.0" x2="262.0" y2="268.0" stroke="#666" stroke-width="0.9"/>
<text x="262.0" y="282.0" font-size="10.5" text-anchor="middle" font-weight="bold">−3</text>
<text x="40.0" y="302.0" font-size="10" text-anchor="start">y÷x はどの列も −3 —— 減っていても商一定なら比例</text>
<text x="240.0" y="328.0" font-size="11" text-anchor="middle">判定は増減の向きではなく「商がいつも一定か」で行う</text>
</svg>
