<svg xmlns="http://www.w3.org/2000/svg" viewBox="0 0 480 420" role="img">
<title>練習用の座標平面——点Ａ〜Ｆの座標の読み取り</title>
<desc>L04練習1の問題図。方眼つき座標平面（−5〜5）に点Ａ〜Ｆの6点を黒丸と名前ラベルだけで打った。各点の座標の数値は意図的に書かない（読み取りが練習の答えのため）。全6点が軸範囲内・相異なることをassert検算済み。再現指示: 方眼つき座標平面に黒丸6点と名前ラベルのみ。座標値のラベルは付けない。白黒のみ。</desc>
<!-- L04_fig2_coordinate_reading_practice.svg | 練習用の座標平面——点Ａ〜Ｆの座標の読み取り -->
<!-- generated by assets_provenance/generate_figures.py on 2026-07-18 (コード来歴方式・AI再利用メタ情報つき・SVG直接編集禁止/スクリプト改修で再生成) -->
<rect x="0" y="0" width="480" height="420" fill="#fff"/>
<line x1="80.0" y1="40.0" x2="80.0" y2="380.0" stroke="#d8d8d8" stroke-width="0.5"/>
<line x1="114.0" y1="40.0" x2="114.0" y2="380.0" stroke="#d8d8d8" stroke-width="0.5"/>
<line x1="148.0" y1="40.0" x2="148.0" y2="380.0" stroke="#d8d8d8" stroke-width="0.5"/>
<line x1="182.0" y1="40.0" x2="182.0" y2="380.0" stroke="#d8d8d8" stroke-width="0.5"/>
<line x1="216.0" y1="40.0" x2="216.0" y2="380.0" stroke="#d8d8d8" stroke-width="0.5"/>
<line x1="250.0" y1="40.0" x2="250.0" y2="380.0" stroke="#d8d8d8" stroke-width="0.5"/>
<line x1="284.0" y1="40.0" x2="284.0" y2="380.0" stroke="#d8d8d8" stroke-width="0.5"/>
<line x1="318.0" y1="40.0" x2="318.0" y2="380.0" stroke="#d8d8d8" stroke-width="0.5"/>
<line x1="352.0" y1="40.0" x2="352.0" y2="380.0" stroke="#d8d8d8" stroke-width="0.5"/>
<line x1="386.0" y1="40.0" x2="386.0" y2="380.0" stroke="#d8d8d8" stroke-width="0.5"/>
<line x1="420.0" y1="40.0" x2="420.0" y2="380.0" stroke="#d8d8d8" stroke-width="0.5"/>
<line x1="80.0" y1="380.0" x2="420.0" y2="380.0" stroke="#d8d8d8" stroke-width="0.5"/>
<line x1="80.0" y1="346.0" x2="420.0" y2="346.0" stroke="#d8d8d8" stroke-width="0.5"/>
<line x1="80.0" y1="312.0" x2="420.0" y2="312.0" stroke="#d8d8d8" stroke-width="0.5"/>
<line x1="80.0" y1="278.0" x2="420.0" y2="278.0" stroke="#d8d8d8" stroke-width="0.5"/>
<line x1="80.0" y1="244.0" x2="420.0" y2="244.0" stroke="#d8d8d8" stroke-width="0.5"/>
<line x1="80.0" y1="210.0" x2="420.0" y2="210.0" stroke="#d8d8d8" stroke-width="0.5"/>
<line x1="80.0" y1="176.0" x2="420.0" y2="176.0" stroke="#d8d8d8" stroke-width="0.5"/>
<line x1="80.0" y1="142.0" x2="420.0" y2="142.0" stroke="#d8d8d8" stroke-width="0.5"/>
<line x1="80.0" y1="108.0" x2="420.0" y2="108.0" stroke="#d8d8d8" stroke-width="0.5"/>
<line x1="80.0" y1="74.0" x2="420.0" y2="74.0" stroke="#d8d8d8" stroke-width="0.5"/>
<line x1="80.0" y1="40.0" x2="420.0" y2="40.0" stroke="#d8d8d8" stroke-width="0.5"/>
<line x1="74.0" y1="210.0" x2="428.0" y2="210.0" stroke="#000" stroke-width="1.3"/>
<line x1="428.0" y1="210.0" x2="422.6" y2="212.6" stroke="#000" stroke-width="1.3"/>
<line x1="428.0" y1="210.0" x2="422.6" y2="207.4" stroke="#000" stroke-width="1.3"/>
<line x1="250.0" y1="386.0" x2="250.0" y2="32.0" stroke="#000" stroke-width="1.3"/>
<line x1="250.0" y1="32.0" x2="252.6" y2="37.4" stroke="#000" stroke-width="1.3"/>
<line x1="250.0" y1="32.0" x2="247.4" y2="37.4" stroke="#000" stroke-width="1.3"/>
<text x="428.0" y="224.0" font-size="11" text-anchor="middle">x</text>
<text x="262.0" y="34.0" font-size="11" text-anchor="middle">y</text>
<line x1="80.0" y1="207.0" x2="80.0" y2="213.0" stroke="#000" stroke-width="1.0"/>
<text x="80.0" y="224.0" font-size="9.5" text-anchor="middle">−5</text>
<line x1="114.0" y1="207.0" x2="114.0" y2="213.0" stroke="#000" stroke-width="1.0"/>
<text x="114.0" y="224.0" font-size="9.5" text-anchor="middle">−4</text>
<line x1="148.0" y1="207.0" x2="148.0" y2="213.0" stroke="#000" stroke-width="1.0"/>
<text x="148.0" y="224.0" font-size="9.5" text-anchor="middle">−3</text>
<line x1="182.0" y1="207.0" x2="182.0" y2="213.0" stroke="#000" stroke-width="1.0"/>
<text x="182.0" y="224.0" font-size="9.5" text-anchor="middle">−2</text>
<line x1="216.0" y1="207.0" x2="216.0" y2="213.0" stroke="#000" stroke-width="1.0"/>
<text x="216.0" y="224.0" font-size="9.5" text-anchor="middle">−1</text>
<line x1="284.0" y1="207.0" x2="284.0" y2="213.0" stroke="#000" stroke-width="1.0"/>
<text x="284.0" y="224.0" font-size="9.5" text-anchor="middle">1</text>
<line x1="318.0" y1="207.0" x2="318.0" y2="213.0" stroke="#000" stroke-width="1.0"/>
<text x="318.0" y="224.0" font-size="9.5" text-anchor="middle">2</text>
<line x1="352.0" y1="207.0" x2="352.0" y2="213.0" stroke="#000" stroke-width="1.0"/>
<text x="352.0" y="224.0" font-size="9.5" text-anchor="middle">3</text>
<line x1="386.0" y1="207.0" x2="386.0" y2="213.0" stroke="#000" stroke-width="1.0"/>
<text x="386.0" y="224.0" font-size="9.5" text-anchor="middle">4</text>
<line x1="420.0" y1="207.0" x2="420.0" y2="213.0" stroke="#000" stroke-width="1.0"/>
<text x="420.0" y="224.0" font-size="9.5" text-anchor="middle">5</text>
<line x1="247.0" y1="380.0" x2="253.0" y2="380.0" stroke="#000" stroke-width="1.0"/>
<text x="244.0" y="383.5" font-size="9.5" text-anchor="end">−5</text>
<line x1="247.0" y1="346.0" x2="253.0" y2="346.0" stroke="#000" stroke-width="1.0"/>
<text x="244.0" y="349.5" font-size="9.5" text-anchor="end">−4</text>
<line x1="247.0" y1="312.0" x2="253.0" y2="312.0" stroke="#000" stroke-width="1.0"/>
<text x="244.0" y="315.5" font-size="9.5" text-anchor="end">−3</text>
<line x1="247.0" y1="278.0" x2="253.0" y2="278.0" stroke="#000" stroke-width="1.0"/>
<text x="244.0" y="281.5" font-size="9.5" text-anchor="end">−2</text>
<line x1="247.0" y1="244.0" x2="253.0" y2="244.0" stroke="#000" stroke-width="1.0"/>
<text x="244.0" y="247.5" font-size="9.5" text-anchor="end">−1</text>
<line x1="247.0" y1="176.0" x2="253.0" y2="176.0" stroke="#000" stroke-width="1.0"/>
<text x="244.0" y="179.5" font-size="9.5" text-anchor="end">1</text>
<line x1="247.0" y1="142.0" x2="253.0" y2="142.0" stroke="#000" stroke-width="1.0"/>
<text x="244.0" y="145.5" font-size="9.5" text-anchor="end">2</text>
<line x1="247.0" y1="108.0" x2="253.0" y2="108.0" stroke="#000" stroke-width="1.0"/>
<text x="244.0" y="111.5" font-size="9.5" text-anchor="end">3</text>
<line x1="247.0" y1="74.0" x2="253.0" y2="74.0" stroke="#000" stroke-width="1.0"/>
<text x="244.0" y="77.5" font-size="9.5" text-anchor="end">4</text>
<line x1="247.0" y1="40.0" x2="253.0" y2="40.0" stroke="#000" stroke-width="1.0"/>
<text x="244.0" y="43.5" font-size="9.5" text-anchor="end">5</text>
<text x="244.0" y="223.0" font-size="10.5" text-anchor="end">O</text>
<circle cx="318.0" cy="74.0" r="3.0" fill="#000"/>
<text x="330.0" y="68.0" font-size="12" text-anchor="middle" font-weight="bold">Ａ</text>
<circle cx="148.0" cy="142.0" r="3.0" fill="#000"/>
<text x="148.0" y="132.0" font-size="12" text-anchor="middle" font-weight="bold">Ｂ</text>
<circle cx="114.0" cy="346.0" r="3.0" fill="#000"/>
<text x="112.0" y="362.0" font-size="12" text-anchor="middle" font-weight="bold">Ｃ</text>
<circle cx="352.0" cy="244.0" r="3.0" fill="#000"/>
<text x="364.0" y="254.0" font-size="12" text-anchor="middle" font-weight="bold">Ｄ</text>
<circle cx="250.0" cy="278.0" r="3.0" fill="#000"/>
<text x="264.0" y="282.0" font-size="12" text-anchor="middle" font-weight="bold">Ｅ</text>
<circle cx="420.0" cy="210.0" r="3.0" fill="#000"/>
<text x="426.0" y="200.0" font-size="12" text-anchor="middle" font-weight="bold">Ｆ</text>
<text x="240.0" y="24.0" font-size="13" text-anchor="middle" font-weight="bold">練習——点Ａ〜Ｆの座標を読もう</text>
<text x="240.0" y="404.0" font-size="11" text-anchor="middle">方眼を目でたどって、（横→たて）の順で読む</text>
</svg>
