<svg xmlns="http://www.w3.org/2000/svg" viewBox="0 0 480 420" role="img">
<title>練習用の図——原点を通る直線ア（右上がり）とイ（右下がり）</title>
<desc>L05練習2の問題図。方眼つき座標平面（−6〜6）に原点を通る直線を2本かいた。アは右上がり、イは右下がりで、それぞれ格子点1つに黒丸を打って読み取りの手がかりにした。式や傾きの数値は意図的に書かない（式を求めるのが練習の答えのため）。通る点が格子点で軸範囲内・原点を通る直線上にあることをassert検算済み。再現指示: 方眼つき−6〜6の平面に原点を通る2直線＋通る格子点の黒丸のみ。式ラベルは付けない。白黒のみ。</desc>
<!-- L05_fig3_two_lines_practice.svg | 練習用の図——原点を通る直線ア（右上がり）とイ（右下がり） -->
<!-- generated by assets_provenance/generate_figures.py on 2026-07-18 (コード来歴方式・AI再利用メタ情報つき・SVG直接編集禁止/スクリプト改修で再生成) -->
<rect x="0" y="0" width="480" height="420" fill="#fff"/>
<line x1="80.0" y1="44.0" x2="80.0" y2="374.0" stroke="#d8d8d8" stroke-width="0.5"/>
<line x1="107.5" y1="44.0" x2="107.5" y2="374.0" stroke="#d8d8d8" stroke-width="0.5"/>
<line x1="135.0" y1="44.0" x2="135.0" y2="374.0" stroke="#d8d8d8" stroke-width="0.5"/>
<line x1="162.5" y1="44.0" x2="162.5" y2="374.0" stroke="#d8d8d8" stroke-width="0.5"/>
<line x1="190.0" y1="44.0" x2="190.0" y2="374.0" stroke="#d8d8d8" stroke-width="0.5"/>
<line x1="217.5" y1="44.0" x2="217.5" y2="374.0" stroke="#d8d8d8" stroke-width="0.5"/>
<line x1="245.0" y1="44.0" x2="245.0" y2="374.0" stroke="#d8d8d8" stroke-width="0.5"/>
<line x1="272.5" y1="44.0" x2="272.5" y2="374.0" stroke="#d8d8d8" stroke-width="0.5"/>
<line x1="300.0" y1="44.0" x2="300.0" y2="374.0" stroke="#d8d8d8" stroke-width="0.5"/>
<line x1="327.5" y1="44.0" x2="327.5" y2="374.0" stroke="#d8d8d8" stroke-width="0.5"/>
<line x1="355.0" y1="44.0" x2="355.0" y2="374.0" stroke="#d8d8d8" stroke-width="0.5"/>
<line x1="382.5" y1="44.0" x2="382.5" y2="374.0" stroke="#d8d8d8" stroke-width="0.5"/>
<line x1="410.0" y1="44.0" x2="410.0" y2="374.0" stroke="#d8d8d8" stroke-width="0.5"/>
<line x1="80.0" y1="374.0" x2="410.0" y2="374.0" stroke="#d8d8d8" stroke-width="0.5"/>
<line x1="80.0" y1="346.5" x2="410.0" y2="346.5" stroke="#d8d8d8" stroke-width="0.5"/>
<line x1="80.0" y1="319.0" x2="410.0" y2="319.0" stroke="#d8d8d8" stroke-width="0.5"/>
<line x1="80.0" y1="291.5" x2="410.0" y2="291.5" stroke="#d8d8d8" stroke-width="0.5"/>
<line x1="80.0" y1="264.0" x2="410.0" y2="264.0" stroke="#d8d8d8" stroke-width="0.5"/>
<line x1="80.0" y1="236.5" x2="410.0" y2="236.5" stroke="#d8d8d8" stroke-width="0.5"/>
<line x1="80.0" y1="209.0" x2="410.0" y2="209.0" stroke="#d8d8d8" stroke-width="0.5"/>
<line x1="80.0" y1="181.5" x2="410.0" y2="181.5" stroke="#d8d8d8" stroke-width="0.5"/>
<line x1="80.0" y1="154.0" x2="410.0" y2="154.0" stroke="#d8d8d8" stroke-width="0.5"/>
<line x1="80.0" y1="126.5" x2="410.0" y2="126.5" stroke="#d8d8d8" stroke-width="0.5"/>
<line x1="80.0" y1="99.0" x2="410.0" y2="99.0" stroke="#d8d8d8" stroke-width="0.5"/>
<line x1="80.0" y1="71.5" x2="410.0" y2="71.5" stroke="#d8d8d8" stroke-width="0.5"/>
<line x1="80.0" y1="44.0" x2="410.0" y2="44.0" stroke="#d8d8d8" stroke-width="0.5"/>
<line x1="74.0" y1="209.0" x2="418.0" y2="209.0" stroke="#000" stroke-width="1.3"/>
<line x1="418.0" y1="209.0" x2="412.6" y2="211.6" stroke="#000" stroke-width="1.3"/>
<line x1="418.0" y1="209.0" x2="412.6" y2="206.4" stroke="#000" stroke-width="1.3"/>
<line x1="245.0" y1="380.0" x2="245.0" y2="36.0" stroke="#000" stroke-width="1.3"/>
<line x1="245.0" y1="36.0" x2="247.6" y2="41.4" stroke="#000" stroke-width="1.3"/>
<line x1="245.0" y1="36.0" x2="242.4" y2="41.4" stroke="#000" stroke-width="1.3"/>
<text x="418.0" y="223.0" font-size="11" text-anchor="middle">x</text>
<text x="257.0" y="38.0" font-size="11" text-anchor="middle">y</text>
<line x1="80.0" y1="206.0" x2="80.0" y2="212.0" stroke="#000" stroke-width="1.0"/>
<text x="80.0" y="223.0" font-size="9.5" text-anchor="middle">−6</text>
<line x1="135.0" y1="206.0" x2="135.0" y2="212.0" stroke="#000" stroke-width="1.0"/>
<text x="135.0" y="223.0" font-size="9.5" text-anchor="middle">−4</text>
<line x1="190.0" y1="206.0" x2="190.0" y2="212.0" stroke="#000" stroke-width="1.0"/>
<text x="190.0" y="223.0" font-size="9.5" text-anchor="middle">−2</text>
<line x1="300.0" y1="206.0" x2="300.0" y2="212.0" stroke="#000" stroke-width="1.0"/>
<text x="300.0" y="223.0" font-size="9.5" text-anchor="middle">2</text>
<line x1="355.0" y1="206.0" x2="355.0" y2="212.0" stroke="#000" stroke-width="1.0"/>
<text x="355.0" y="223.0" font-size="9.5" text-anchor="middle">4</text>
<line x1="410.0" y1="206.0" x2="410.0" y2="212.0" stroke="#000" stroke-width="1.0"/>
<text x="410.0" y="223.0" font-size="9.5" text-anchor="middle">6</text>
<line x1="242.0" y1="374.0" x2="248.0" y2="374.0" stroke="#000" stroke-width="1.0"/>
<text x="239.0" y="377.5" font-size="9.5" text-anchor="end">−6</text>
<line x1="242.0" y1="319.0" x2="248.0" y2="319.0" stroke="#000" stroke-width="1.0"/>
<text x="239.0" y="322.5" font-size="9.5" text-anchor="end">−4</text>
<line x1="242.0" y1="264.0" x2="248.0" y2="264.0" stroke="#000" stroke-width="1.0"/>
<text x="239.0" y="267.5" font-size="9.5" text-anchor="end">−2</text>
<line x1="242.0" y1="154.0" x2="248.0" y2="154.0" stroke="#000" stroke-width="1.0"/>
<text x="239.0" y="157.5" font-size="9.5" text-anchor="end">2</text>
<line x1="242.0" y1="99.0" x2="248.0" y2="99.0" stroke="#000" stroke-width="1.0"/>
<text x="239.0" y="102.5" font-size="9.5" text-anchor="end">4</text>
<line x1="242.0" y1="44.0" x2="248.0" y2="44.0" stroke="#000" stroke-width="1.0"/>
<text x="239.0" y="47.5" font-size="9.5" text-anchor="end">6</text>
<text x="239.0" y="222.0" font-size="10.5" text-anchor="end">O</text>
<line x1="190.0" y1="374.0" x2="300.0" y2="44.0" stroke="#000" stroke-width="2.6"/>
<line x1="80.0" y1="85.2" x2="410.0" y2="332.8" stroke="#000" stroke-width="2.6"/>
<text x="308.3" y="57.8" font-size="13" text-anchor="middle" font-weight="bold">ア</text>
<text x="371.5" y="335.5" font-size="13" text-anchor="middle" font-weight="bold">イ</text>
<circle cx="300.0" cy="44.0" r="3.2" fill="#000"/>
<circle cx="355.0" cy="291.5" r="3.2" fill="#000"/>
<text x="240.0" y="24.0" font-size="13" text-anchor="middle" font-weight="bold">練習——直線ア・イの式を求めよう</text>
<text x="240.0" y="400.0" font-size="11" text-anchor="middle">格子の交点にのっている点（黒丸）を読み取って使う</text>
</svg>
