<svg xmlns="http://www.w3.org/2000/svg" viewBox="0 0 480 320" role="img">
<title>y＝2xのグラフの完成過程（左: 表の7点／右: 間の点がうまり直線に）</title>
<desc>L05主概念1の過程図。左右2コマとも軸はx＝−4〜4・y＝−7〜7（表の点(±3, ±6)が枠内に収まる範囲・E裁定適用）。左コマは表の整数x（−3〜3）に対する7点だけを打った座標平面。右コマは間の点（x＝±0.5, ±1.5, ±2.5）を白丸でうめ、両端に矢印つきの直線y＝2x（ラベルつき）が現れた完成図。「グラフ＝点の集合」→点を増やすと直線、の過程を見せる。全点がy＝2x上にあり軸範囲内であることをassert検算済み。再現指示: 同じ軸範囲の2コマ・左は黒丸7点のみ・右は白丸の中間点＋両端矢印の直線。白黒のみ。</desc>
<!-- L05_fig1_y2x_graph_process.svg | y＝2xのグラフの完成過程（左: 表の7点／右: 間の点がうまり直線に） -->
<!-- generated by assets_provenance/generate_figures.py on 2026-07-18 (コード来歴方式・AI再利用メタ情報つき・SVG直接編集禁止/スクリプト改修で再生成) -->
<rect x="0" y="0" width="480" height="320" fill="#fff"/>
<line x1="45.0" y1="54.0" x2="45.0" y2="264.0" stroke="#d8d8d8" stroke-width="0.5"/>
<line x1="67.5" y1="54.0" x2="67.5" y2="264.0" stroke="#d8d8d8" stroke-width="0.5"/>
<line x1="90.0" y1="54.0" x2="90.0" y2="264.0" stroke="#d8d8d8" stroke-width="0.5"/>
<line x1="112.5" y1="54.0" x2="112.5" y2="264.0" stroke="#d8d8d8" stroke-width="0.5"/>
<line x1="135.0" y1="54.0" x2="135.0" y2="264.0" stroke="#d8d8d8" stroke-width="0.5"/>
<line x1="157.5" y1="54.0" x2="157.5" y2="264.0" stroke="#d8d8d8" stroke-width="0.5"/>
<line x1="180.0" y1="54.0" x2="180.0" y2="264.0" stroke="#d8d8d8" stroke-width="0.5"/>
<line x1="202.5" y1="54.0" x2="202.5" y2="264.0" stroke="#d8d8d8" stroke-width="0.5"/>
<line x1="225.0" y1="54.0" x2="225.0" y2="264.0" stroke="#d8d8d8" stroke-width="0.5"/>
<line x1="45.0" y1="264.0" x2="225.0" y2="264.0" stroke="#d8d8d8" stroke-width="0.5"/>
<line x1="45.0" y1="249.0" x2="225.0" y2="249.0" stroke="#d8d8d8" stroke-width="0.5"/>
<line x1="45.0" y1="234.0" x2="225.0" y2="234.0" stroke="#d8d8d8" stroke-width="0.5"/>
<line x1="45.0" y1="219.0" x2="225.0" y2="219.0" stroke="#d8d8d8" stroke-width="0.5"/>
<line x1="45.0" y1="204.0" x2="225.0" y2="204.0" stroke="#d8d8d8" stroke-width="0.5"/>
<line x1="45.0" y1="189.0" x2="225.0" y2="189.0" stroke="#d8d8d8" stroke-width="0.5"/>
<line x1="45.0" y1="174.0" x2="225.0" y2="174.0" stroke="#d8d8d8" stroke-width="0.5"/>
<line x1="45.0" y1="159.0" x2="225.0" y2="159.0" stroke="#d8d8d8" stroke-width="0.5"/>
<line x1="45.0" y1="144.0" x2="225.0" y2="144.0" stroke="#d8d8d8" stroke-width="0.5"/>
<line x1="45.0" y1="129.0" x2="225.0" y2="129.0" stroke="#d8d8d8" stroke-width="0.5"/>
<line x1="45.0" y1="114.0" x2="225.0" y2="114.0" stroke="#d8d8d8" stroke-width="0.5"/>
<line x1="45.0" y1="99.0" x2="225.0" y2="99.0" stroke="#d8d8d8" stroke-width="0.5"/>
<line x1="45.0" y1="84.0" x2="225.0" y2="84.0" stroke="#d8d8d8" stroke-width="0.5"/>
<line x1="45.0" y1="69.0" x2="225.0" y2="69.0" stroke="#d8d8d8" stroke-width="0.5"/>
<line x1="45.0" y1="54.0" x2="225.0" y2="54.0" stroke="#d8d8d8" stroke-width="0.5"/>
<line x1="39.0" y1="159.0" x2="233.0" y2="159.0" stroke="#000" stroke-width="1.3"/>
<line x1="233.0" y1="159.0" x2="227.6" y2="161.6" stroke="#000" stroke-width="1.3"/>
<line x1="233.0" y1="159.0" x2="227.6" y2="156.4" stroke="#000" stroke-width="1.3"/>
<line x1="135.0" y1="270.0" x2="135.0" y2="46.0" stroke="#000" stroke-width="1.3"/>
<line x1="135.0" y1="46.0" x2="137.6" y2="51.4" stroke="#000" stroke-width="1.3"/>
<line x1="135.0" y1="46.0" x2="132.4" y2="51.4" stroke="#000" stroke-width="1.3"/>
<text x="233.0" y="173.0" font-size="11" text-anchor="middle">x</text>
<text x="147.0" y="48.0" font-size="11" text-anchor="middle">y</text>
<line x1="45.0" y1="156.0" x2="45.0" y2="162.0" stroke="#000" stroke-width="1.0"/>
<text x="45.0" y="173.0" font-size="8.5" text-anchor="middle">−4</text>
<line x1="90.0" y1="156.0" x2="90.0" y2="162.0" stroke="#000" stroke-width="1.0"/>
<text x="90.0" y="173.0" font-size="8.5" text-anchor="middle">−2</text>
<line x1="180.0" y1="156.0" x2="180.0" y2="162.0" stroke="#000" stroke-width="1.0"/>
<text x="180.0" y="173.0" font-size="8.5" text-anchor="middle">2</text>
<line x1="225.0" y1="156.0" x2="225.0" y2="162.0" stroke="#000" stroke-width="1.0"/>
<text x="225.0" y="173.0" font-size="8.5" text-anchor="middle">4</text>
<line x1="132.0" y1="249.0" x2="138.0" y2="249.0" stroke="#000" stroke-width="1.0"/>
<text x="129.0" y="252.5" font-size="8.5" text-anchor="end">−6</text>
<line x1="132.0" y1="219.0" x2="138.0" y2="219.0" stroke="#000" stroke-width="1.0"/>
<text x="129.0" y="222.5" font-size="8.5" text-anchor="end">−4</text>
<line x1="132.0" y1="189.0" x2="138.0" y2="189.0" stroke="#000" stroke-width="1.0"/>
<text x="129.0" y="192.5" font-size="8.5" text-anchor="end">−2</text>
<line x1="132.0" y1="129.0" x2="138.0" y2="129.0" stroke="#000" stroke-width="1.0"/>
<text x="129.0" y="132.5" font-size="8.5" text-anchor="end">2</text>
<line x1="132.0" y1="99.0" x2="138.0" y2="99.0" stroke="#000" stroke-width="1.0"/>
<text x="129.0" y="102.5" font-size="8.5" text-anchor="end">4</text>
<line x1="132.0" y1="69.0" x2="138.0" y2="69.0" stroke="#000" stroke-width="1.0"/>
<text x="129.0" y="72.5" font-size="8.5" text-anchor="end">6</text>
<text x="129.0" y="172.0" font-size="10.5" text-anchor="end">O</text>
<circle cx="67.5" cy="249.0" r="2.8" fill="#000"/>
<circle cx="90.0" cy="219.0" r="2.8" fill="#000"/>
<circle cx="112.5" cy="189.0" r="2.8" fill="#000"/>
<circle cx="135.0" cy="159.0" r="2.8" fill="#000"/>
<circle cx="157.5" cy="129.0" r="2.8" fill="#000"/>
<circle cx="180.0" cy="99.0" r="2.8" fill="#000"/>
<circle cx="202.5" cy="69.0" r="2.8" fill="#000"/>
<text x="135.0" y="286.0" font-size="11" text-anchor="middle" font-weight="bold">① 表の7点を打つ</text>
<line x1="255.0" y1="54.0" x2="255.0" y2="264.0" stroke="#d8d8d8" stroke-width="0.5"/>
<line x1="277.5" y1="54.0" x2="277.5" y2="264.0" stroke="#d8d8d8" stroke-width="0.5"/>
<line x1="300.0" y1="54.0" x2="300.0" y2="264.0" stroke="#d8d8d8" stroke-width="0.5"/>
<line x1="322.5" y1="54.0" x2="322.5" y2="264.0" stroke="#d8d8d8" stroke-width="0.5"/>
<line x1="345.0" y1="54.0" x2="345.0" y2="264.0" stroke="#d8d8d8" stroke-width="0.5"/>
<line x1="367.5" y1="54.0" x2="367.5" y2="264.0" stroke="#d8d8d8" stroke-width="0.5"/>
<line x1="390.0" y1="54.0" x2="390.0" y2="264.0" stroke="#d8d8d8" stroke-width="0.5"/>
<line x1="412.5" y1="54.0" x2="412.5" y2="264.0" stroke="#d8d8d8" stroke-width="0.5"/>
<line x1="435.0" y1="54.0" x2="435.0" y2="264.0" stroke="#d8d8d8" stroke-width="0.5"/>
<line x1="255.0" y1="264.0" x2="435.0" y2="264.0" stroke="#d8d8d8" stroke-width="0.5"/>
<line x1="255.0" y1="249.0" x2="435.0" y2="249.0" stroke="#d8d8d8" stroke-width="0.5"/>
<line x1="255.0" y1="234.0" x2="435.0" y2="234.0" stroke="#d8d8d8" stroke-width="0.5"/>
<line x1="255.0" y1="219.0" x2="435.0" y2="219.0" stroke="#d8d8d8" stroke-width="0.5"/>
<line x1="255.0" y1="204.0" x2="435.0" y2="204.0" stroke="#d8d8d8" stroke-width="0.5"/>
<line x1="255.0" y1="189.0" x2="435.0" y2="189.0" stroke="#d8d8d8" stroke-width="0.5"/>
<line x1="255.0" y1="174.0" x2="435.0" y2="174.0" stroke="#d8d8d8" stroke-width="0.5"/>
<line x1="255.0" y1="159.0" x2="435.0" y2="159.0" stroke="#d8d8d8" stroke-width="0.5"/>
<line x1="255.0" y1="144.0" x2="435.0" y2="144.0" stroke="#d8d8d8" stroke-width="0.5"/>
<line x1="255.0" y1="129.0" x2="435.0" y2="129.0" stroke="#d8d8d8" stroke-width="0.5"/>
<line x1="255.0" y1="114.0" x2="435.0" y2="114.0" stroke="#d8d8d8" stroke-width="0.5"/>
<line x1="255.0" y1="99.0" x2="435.0" y2="99.0" stroke="#d8d8d8" stroke-width="0.5"/>
<line x1="255.0" y1="84.0" x2="435.0" y2="84.0" stroke="#d8d8d8" stroke-width="0.5"/>
<line x1="255.0" y1="69.0" x2="435.0" y2="69.0" stroke="#d8d8d8" stroke-width="0.5"/>
<line x1="255.0" y1="54.0" x2="435.0" y2="54.0" stroke="#d8d8d8" stroke-width="0.5"/>
<line x1="249.0" y1="159.0" x2="443.0" y2="159.0" stroke="#000" stroke-width="1.3"/>
<line x1="443.0" y1="159.0" x2="437.6" y2="161.6" stroke="#000" stroke-width="1.3"/>
<line x1="443.0" y1="159.0" x2="437.6" y2="156.4" stroke="#000" stroke-width="1.3"/>
<line x1="345.0" y1="270.0" x2="345.0" y2="46.0" stroke="#000" stroke-width="1.3"/>
<line x1="345.0" y1="46.0" x2="347.6" y2="51.4" stroke="#000" stroke-width="1.3"/>
<line x1="345.0" y1="46.0" x2="342.4" y2="51.4" stroke="#000" stroke-width="1.3"/>
<text x="443.0" y="173.0" font-size="11" text-anchor="middle">x</text>
<text x="357.0" y="48.0" font-size="11" text-anchor="middle">y</text>
<line x1="255.0" y1="156.0" x2="255.0" y2="162.0" stroke="#000" stroke-width="1.0"/>
<text x="255.0" y="173.0" font-size="8.5" text-anchor="middle">−4</text>
<line x1="300.0" y1="156.0" x2="300.0" y2="162.0" stroke="#000" stroke-width="1.0"/>
<text x="300.0" y="173.0" font-size="8.5" text-anchor="middle">−2</text>
<line x1="390.0" y1="156.0" x2="390.0" y2="162.0" stroke="#000" stroke-width="1.0"/>
<text x="390.0" y="173.0" font-size="8.5" text-anchor="middle">2</text>
<line x1="435.0" y1="156.0" x2="435.0" y2="162.0" stroke="#000" stroke-width="1.0"/>
<text x="435.0" y="173.0" font-size="8.5" text-anchor="middle">4</text>
<line x1="342.0" y1="249.0" x2="348.0" y2="249.0" stroke="#000" stroke-width="1.0"/>
<text x="339.0" y="252.5" font-size="8.5" text-anchor="end">−6</text>
<line x1="342.0" y1="219.0" x2="348.0" y2="219.0" stroke="#000" stroke-width="1.0"/>
<text x="339.0" y="222.5" font-size="8.5" text-anchor="end">−4</text>
<line x1="342.0" y1="189.0" x2="348.0" y2="189.0" stroke="#000" stroke-width="1.0"/>
<text x="339.0" y="192.5" font-size="8.5" text-anchor="end">−2</text>
<line x1="342.0" y1="129.0" x2="348.0" y2="129.0" stroke="#000" stroke-width="1.0"/>
<text x="339.0" y="132.5" font-size="8.5" text-anchor="end">2</text>
<line x1="342.0" y1="99.0" x2="348.0" y2="99.0" stroke="#000" stroke-width="1.0"/>
<text x="339.0" y="102.5" font-size="8.5" text-anchor="end">4</text>
<line x1="342.0" y1="69.0" x2="348.0" y2="69.0" stroke="#000" stroke-width="1.0"/>
<text x="339.0" y="72.5" font-size="8.5" text-anchor="end">6</text>
<text x="339.0" y="172.0" font-size="10.5" text-anchor="end">O</text>
<line x1="266.2" y1="264.0" x2="423.8" y2="54.0" stroke="#000" stroke-width="2.6"/>
<line x1="423.8" y1="54.0" x2="422.2" y2="61.9" stroke="#000" stroke-width="2.6"/>
<line x1="423.8" y1="54.0" x2="416.6" y2="57.6" stroke="#000" stroke-width="2.6"/>
<line x1="266.2" y1="264.0" x2="267.8" y2="256.1" stroke="#000" stroke-width="2.6"/>
<line x1="266.2" y1="264.0" x2="273.4" y2="260.4" stroke="#000" stroke-width="2.6"/>
<text x="400.2" y="85.5" font-size="11.5" text-anchor="middle" font-weight="bold">y＝2x</text>
<circle cx="288.8" cy="234.0" r="2.3" fill="#fff" stroke="#000" stroke-width="1.2"/>
<circle cx="311.2" cy="204.0" r="2.3" fill="#fff" stroke="#000" stroke-width="1.2"/>
<circle cx="333.8" cy="174.0" r="2.3" fill="#fff" stroke="#000" stroke-width="1.2"/>
<circle cx="356.2" cy="144.0" r="2.3" fill="#fff" stroke="#000" stroke-width="1.2"/>
<circle cx="378.8" cy="114.0" r="2.3" fill="#fff" stroke="#000" stroke-width="1.2"/>
<circle cx="401.2" cy="84.0" r="2.3" fill="#fff" stroke="#000" stroke-width="1.2"/>
<circle cx="277.5" cy="249.0" r="2.8" fill="#000"/>
<circle cx="300.0" cy="219.0" r="2.8" fill="#000"/>
<circle cx="322.5" cy="189.0" r="2.8" fill="#000"/>
<circle cx="345.0" cy="159.0" r="2.8" fill="#000"/>
<circle cx="367.5" cy="129.0" r="2.8" fill="#000"/>
<circle cx="390.0" cy="99.0" r="2.8" fill="#000"/>
<circle cx="412.5" cy="69.0" r="2.8" fill="#000"/>
<text x="345.0" y="286.0" font-size="11" text-anchor="middle" font-weight="bold">② 間の点をうめる → 直線</text>
<text x="240.0" y="24.0" font-size="13" text-anchor="middle" font-weight="bold">y＝2xのグラフができるまで——点の集合が直線になる</text>
<text x="240.0" y="310.0" font-size="11" text-anchor="middle">間の値（x＝0.5, 1.5, …）をどんどんとると、すき間がうまっていく</text>
</svg>
