<svg xmlns="http://www.w3.org/2000/svg" viewBox="0 0 480 420" role="img">
<title>y＝2xとy＝−2xの比較——比例定数の符号とグラフの向き</title>
<desc>L05主概念2の比較図。同じ座標平面（目盛り−6〜6・方眼つき)にy＝2x（右上がり・実線）とy＝−2x（右下がり・実線）を式ラベルつきでかき、x軸をはさんだ対称のようすが分かるよう対応点(2, 4)と(2, −4)に丸印と破線を添えた。比例定数の符号がグラフの向き（右上がり／右下がり）を決めることと、負の比例定数のグラフもふつうの比例のグラフであることを示す。全整数xでyの符号対称・対応点が直線上・軸範囲内であることをassert検算済み。再現指示: 方眼つき−6〜6の平面に2直線＋対応点2つの丸印と破線。白黒のみ。</desc>
<!-- L05_fig2_sign_comparison.svg | y＝2xとy＝−2xの比較——比例定数の符号とグラフの向き -->
<!-- generated by assets_provenance/generate_figures.py on 2026-07-18 (コード来歴方式・AI再利用メタ情報つき・SVG直接編集禁止/スクリプト改修で再生成) -->
<rect x="0" y="0" width="480" height="420" fill="#fff"/>
<line x1="80.0" y1="44.0" x2="80.0" y2="374.0" stroke="#d8d8d8" stroke-width="0.5"/>
<line x1="107.5" y1="44.0" x2="107.5" y2="374.0" stroke="#d8d8d8" stroke-width="0.5"/>
<line x1="135.0" y1="44.0" x2="135.0" y2="374.0" stroke="#d8d8d8" stroke-width="0.5"/>
<line x1="162.5" y1="44.0" x2="162.5" y2="374.0" stroke="#d8d8d8" stroke-width="0.5"/>
<line x1="190.0" y1="44.0" x2="190.0" y2="374.0" stroke="#d8d8d8" stroke-width="0.5"/>
<line x1="217.5" y1="44.0" x2="217.5" y2="374.0" stroke="#d8d8d8" stroke-width="0.5"/>
<line x1="245.0" y1="44.0" x2="245.0" y2="374.0" stroke="#d8d8d8" stroke-width="0.5"/>
<line x1="272.5" y1="44.0" x2="272.5" y2="374.0" stroke="#d8d8d8" stroke-width="0.5"/>
<line x1="300.0" y1="44.0" x2="300.0" y2="374.0" stroke="#d8d8d8" stroke-width="0.5"/>
<line x1="327.5" y1="44.0" x2="327.5" y2="374.0" stroke="#d8d8d8" stroke-width="0.5"/>
<line x1="355.0" y1="44.0" x2="355.0" y2="374.0" stroke="#d8d8d8" stroke-width="0.5"/>
<line x1="382.5" y1="44.0" x2="382.5" y2="374.0" stroke="#d8d8d8" stroke-width="0.5"/>
<line x1="410.0" y1="44.0" x2="410.0" y2="374.0" stroke="#d8d8d8" stroke-width="0.5"/>
<line x1="80.0" y1="374.0" x2="410.0" y2="374.0" stroke="#d8d8d8" stroke-width="0.5"/>
<line x1="80.0" y1="346.5" x2="410.0" y2="346.5" stroke="#d8d8d8" stroke-width="0.5"/>
<line x1="80.0" y1="319.0" x2="410.0" y2="319.0" stroke="#d8d8d8" stroke-width="0.5"/>
<line x1="80.0" y1="291.5" x2="410.0" y2="291.5" stroke="#d8d8d8" stroke-width="0.5"/>
<line x1="80.0" y1="264.0" x2="410.0" y2="264.0" stroke="#d8d8d8" stroke-width="0.5"/>
<line x1="80.0" y1="236.5" x2="410.0" y2="236.5" stroke="#d8d8d8" stroke-width="0.5"/>
<line x1="80.0" y1="209.0" x2="410.0" y2="209.0" stroke="#d8d8d8" stroke-width="0.5"/>
<line x1="80.0" y1="181.5" x2="410.0" y2="181.5" stroke="#d8d8d8" stroke-width="0.5"/>
<line x1="80.0" y1="154.0" x2="410.0" y2="154.0" stroke="#d8d8d8" stroke-width="0.5"/>
<line x1="80.0" y1="126.5" x2="410.0" y2="126.5" stroke="#d8d8d8" stroke-width="0.5"/>
<line x1="80.0" y1="99.0" x2="410.0" y2="99.0" stroke="#d8d8d8" stroke-width="0.5"/>
<line x1="80.0" y1="71.5" x2="410.0" y2="71.5" stroke="#d8d8d8" stroke-width="0.5"/>
<line x1="80.0" y1="44.0" x2="410.0" y2="44.0" stroke="#d8d8d8" stroke-width="0.5"/>
<line x1="74.0" y1="209.0" x2="418.0" y2="209.0" stroke="#000" stroke-width="1.3"/>
<line x1="418.0" y1="209.0" x2="412.6" y2="211.6" stroke="#000" stroke-width="1.3"/>
<line x1="418.0" y1="209.0" x2="412.6" y2="206.4" stroke="#000" stroke-width="1.3"/>
<line x1="245.0" y1="380.0" x2="245.0" y2="36.0" stroke="#000" stroke-width="1.3"/>
<line x1="245.0" y1="36.0" x2="247.6" y2="41.4" stroke="#000" stroke-width="1.3"/>
<line x1="245.0" y1="36.0" x2="242.4" y2="41.4" stroke="#000" stroke-width="1.3"/>
<text x="418.0" y="223.0" font-size="11" text-anchor="middle">x</text>
<text x="257.0" y="38.0" font-size="11" text-anchor="middle">y</text>
<line x1="80.0" y1="206.0" x2="80.0" y2="212.0" stroke="#000" stroke-width="1.0"/>
<text x="80.0" y="223.0" font-size="9.5" text-anchor="middle">−6</text>
<line x1="135.0" y1="206.0" x2="135.0" y2="212.0" stroke="#000" stroke-width="1.0"/>
<text x="135.0" y="223.0" font-size="9.5" text-anchor="middle">−4</text>
<line x1="190.0" y1="206.0" x2="190.0" y2="212.0" stroke="#000" stroke-width="1.0"/>
<text x="190.0" y="223.0" font-size="9.5" text-anchor="middle">−2</text>
<line x1="300.0" y1="206.0" x2="300.0" y2="212.0" stroke="#000" stroke-width="1.0"/>
<text x="300.0" y="223.0" font-size="9.5" text-anchor="middle">2</text>
<line x1="355.0" y1="206.0" x2="355.0" y2="212.0" stroke="#000" stroke-width="1.0"/>
<text x="355.0" y="223.0" font-size="9.5" text-anchor="middle">4</text>
<line x1="410.0" y1="206.0" x2="410.0" y2="212.0" stroke="#000" stroke-width="1.0"/>
<text x="410.0" y="223.0" font-size="9.5" text-anchor="middle">6</text>
<line x1="242.0" y1="374.0" x2="248.0" y2="374.0" stroke="#000" stroke-width="1.0"/>
<text x="239.0" y="377.5" font-size="9.5" text-anchor="end">−6</text>
<line x1="242.0" y1="319.0" x2="248.0" y2="319.0" stroke="#000" stroke-width="1.0"/>
<text x="239.0" y="322.5" font-size="9.5" text-anchor="end">−4</text>
<line x1="242.0" y1="264.0" x2="248.0" y2="264.0" stroke="#000" stroke-width="1.0"/>
<text x="239.0" y="267.5" font-size="9.5" text-anchor="end">−2</text>
<line x1="242.0" y1="154.0" x2="248.0" y2="154.0" stroke="#000" stroke-width="1.0"/>
<text x="239.0" y="157.5" font-size="9.5" text-anchor="end">2</text>
<line x1="242.0" y1="99.0" x2="248.0" y2="99.0" stroke="#000" stroke-width="1.0"/>
<text x="239.0" y="102.5" font-size="9.5" text-anchor="end">4</text>
<line x1="242.0" y1="44.0" x2="248.0" y2="44.0" stroke="#000" stroke-width="1.0"/>
<text x="239.0" y="47.5" font-size="9.5" text-anchor="end">6</text>
<text x="239.0" y="222.0" font-size="10.5" text-anchor="end">O</text>
<line x1="162.5" y1="374.0" x2="327.5" y2="44.0" stroke="#000" stroke-width="2.6"/>
<line x1="162.5" y1="44.0" x2="327.5" y2="374.0" stroke="#000" stroke-width="2.6"/>
<text x="347.0" y="60.5" font-size="12" text-anchor="middle" font-weight="bold">y＝2x</text>
<text x="370.0" y="357.5" font-size="12" text-anchor="middle" font-weight="bold">y＝−2x</text>
<line x1="300.0" y1="99.0" x2="300.0" y2="319.0" stroke="#555" stroke-width="1.1" stroke-dasharray="3 3"/>
<circle cx="300.0" cy="99.0" r="5.5" fill="none" stroke="#000" stroke-width="1.6"/>
<circle cx="300.0" cy="319.0" r="5.5" fill="none" stroke="#000" stroke-width="1.6"/>
<text x="330.0" y="91.0" font-size="10.5" text-anchor="middle">(2, 4)</text>
<text x="334.0" y="333.0" font-size="10.5" text-anchor="middle">(2, −4)</text>
<text x="240.0" y="24.0" font-size="13" text-anchor="middle" font-weight="bold">符号だけ変えると——右上がりと右下がり</text>
<text x="240.0" y="400.0" font-size="11" text-anchor="middle">2本はx軸をはさんで対称に映り合う</text>
</svg>
