<svg xmlns="http://www.w3.org/2000/svg" viewBox="0 0 480 400" role="img">
<title>三表現の往復マップ——表・式y＝−(3/2)x・グラフの6方向の変換</title>
<desc>L06主概念2の一覧図。中央に「同じ関係」の円、まわりに「表」（ミニ表: x＝−2でy＝3・x＝4でy＝−6）・「式 y＝−(3/2)x」・「グラフ」（右下がりのミニ直線・点(−2, 3)にラベル）の3つの箱を置き、6本の矢印に操作名を添えた（表→式=商を計算／式→表=代入／式→グラフ=原点と1点／グラフ→式=通る点を読む／表→グラフ=点を打つ／グラフ→表=座標を読む）。三表現が同じ関係の別の顔であることの一覧化。表の全列と点(−2, 3)がy＝−(3/2)xを満たすことをassert検算済み。再現指示: 中央円＋3箱＋6矢印・操作名は上記6つをそのまま使用。白黒のみ。</desc>
<!-- L06_fig1_three_representations_map.svg | 三表現の往復マップ——表・式y＝−(3/2)x・グラフの6方向の変換 -->
<!-- generated by assets_provenance/generate_figures.py on 2026-07-18 (コード来歴方式・AI再利用メタ情報つき・SVG直接編集禁止/スクリプト改修で再生成) -->
<rect x="0" y="0" width="480" height="400" fill="#fff"/>
<text x="240.0" y="24.0" font-size="13" text-anchor="middle" font-weight="bold">三表現の往復マップ——表・式・グラフは同じ関係の別の顔</text>
<circle cx="240.0" cy="210.0" r="44" fill="none" stroke="#000" stroke-width="1.6"/>
<text x="240.0" y="208.0" font-size="12" text-anchor="middle" font-weight="bold">同じ</text>
<text x="240.0" y="226.0" font-size="12" text-anchor="middle" font-weight="bold">関係</text>
<rect x="165.0" y="52.0" width="150.0" height="40.0" rx="8" fill="none" stroke="#000" stroke-width="1.4"/>
<text x="240.0" y="77.0" font-size="12" text-anchor="middle" font-weight="bold">式　y＝−(3/2)x</text>
<rect x="24.0" y="260.0" width="150.0" height="92.0" rx="8" fill="none" stroke="#000" stroke-width="1.4"/>
<text x="99.0" y="280.0" font-size="12" text-anchor="middle" font-weight="bold">表</text>
<line x1="40.0" y1="290.0" x2="154.0" y2="290.0" stroke="#000" stroke-width="1.1"/>
<line x1="40.0" y1="314.0" x2="154.0" y2="314.0" stroke="#000" stroke-width="1.1"/>
<line x1="40.0" y1="338.0" x2="154.0" y2="338.0" stroke="#000" stroke-width="1.1"/>
<line x1="40.0" y1="290.0" x2="40.0" y2="338.0" stroke="#000" stroke-width="1.1"/>
<line x1="76.0" y1="290.0" x2="76.0" y2="338.0" stroke="#000" stroke-width="1.1"/>
<line x1="115.0" y1="290.0" x2="115.0" y2="338.0" stroke="#000" stroke-width="1.1"/>
<line x1="154.0" y1="290.0" x2="154.0" y2="338.0" stroke="#000" stroke-width="1.1"/>
<text x="58.0" y="306.0" font-size="10" text-anchor="middle">x</text>
<text x="58.0" y="330.0" font-size="10" text-anchor="middle">y</text>
<text x="95.5" y="306.0" font-size="10" text-anchor="middle">−2</text>
<text x="95.5" y="330.0" font-size="10" text-anchor="middle">3</text>
<text x="134.5" y="306.0" font-size="10" text-anchor="middle">4</text>
<text x="134.5" y="330.0" font-size="10" text-anchor="middle">−6</text>
<rect x="306.0" y="260.0" width="150.0" height="92.0" rx="8" fill="none" stroke="#000" stroke-width="1.4"/>
<text x="381.0" y="280.0" font-size="12" text-anchor="middle" font-weight="bold">グラフ</text>
<line x1="324.0" y1="316.0" x2="438.0" y2="316.0" stroke="#000" stroke-width="1.3"/>
<line x1="438.0" y1="316.0" x2="432.6" y2="318.6" stroke="#000" stroke-width="1.3"/>
<line x1="438.0" y1="316.0" x2="432.6" y2="313.4" stroke="#000" stroke-width="1.3"/>
<line x1="380.0" y1="350.0" x2="380.0" y2="280.0" stroke="#000" stroke-width="1.3"/>
<line x1="380.0" y1="280.0" x2="382.6" y2="285.4" stroke="#000" stroke-width="1.3"/>
<line x1="380.0" y1="280.0" x2="377.4" y2="285.4" stroke="#000" stroke-width="1.3"/>
<text x="438.0" y="330.0" font-size="11" text-anchor="middle"></text>
<text x="392.0" y="282.0" font-size="11" text-anchor="middle"></text>
<line x1="330.0" y1="288.0" x2="430.0" y2="344.0" stroke="#000" stroke-width="1.8"/>
<circle cx="355.0" cy="302.0" r="2.6" fill="#000"/>
<text x="353.0" y="295.0" font-size="8.5" text-anchor="middle">(−2, 3)</text>
<line x1="96.0" y1="258.0" x2="176.0" y2="96.0" stroke="#000" stroke-width="1.3"/>
<line x1="176.0" y1="96.0" x2="176.0" y2="103.0" stroke="#000" stroke-width="1.3"/>
<line x1="176.0" y1="96.0" x2="170.5" y2="100.3" stroke="#000" stroke-width="1.3"/>
<text x="60.0" y="176.0" font-size="9.5" text-anchor="start">商を計算</text>
<line x1="160.0" y1="96.0" x2="80.0" y2="258.0" stroke="#000" stroke-width="1.3"/>
<line x1="80.0" y1="258.0" x2="80.0" y2="251.0" stroke="#000" stroke-width="1.3"/>
<line x1="80.0" y1="258.0" x2="85.5" y2="253.7" stroke="#000" stroke-width="1.3"/>
<text x="122.0" y="200.0" font-size="9.5" text-anchor="start">代入</text>
<line x1="304.0" y1="96.0" x2="384.0" y2="258.0" stroke="#000" stroke-width="1.3"/>
<line x1="384.0" y1="258.0" x2="378.5" y2="253.7" stroke="#000" stroke-width="1.3"/>
<line x1="384.0" y1="258.0" x2="384.0" y2="251.0" stroke="#000" stroke-width="1.3"/>
<text x="362.0" y="176.0" font-size="9.5" text-anchor="start">原点と1点</text>
<line x1="400.0" y1="258.0" x2="320.0" y2="96.0" stroke="#000" stroke-width="1.3"/>
<line x1="320.0" y1="96.0" x2="325.5" y2="100.3" stroke="#000" stroke-width="1.3"/>
<line x1="320.0" y1="96.0" x2="320.0" y2="103.0" stroke="#000" stroke-width="1.3"/>
<text x="298.0" y="200.0" font-size="9.5" text-anchor="start">通る点を読む</text>
<line x1="178.0" y1="296.0" x2="302.0" y2="296.0" stroke="#000" stroke-width="1.3"/>
<line x1="302.0" y1="296.0" x2="295.7" y2="299.1" stroke="#000" stroke-width="1.3"/>
<line x1="302.0" y1="296.0" x2="295.7" y2="292.9" stroke="#000" stroke-width="1.3"/>
<text x="240.0" y="288.0" font-size="9.5" text-anchor="middle">点を打つ</text>
<line x1="302.0" y1="320.0" x2="178.0" y2="320.0" stroke="#000" stroke-width="1.3"/>
<line x1="178.0" y1="320.0" x2="184.3" y2="316.9" stroke="#000" stroke-width="1.3"/>
<line x1="178.0" y1="320.0" x2="184.3" y2="323.1" stroke="#000" stroke-width="1.3"/>
<text x="240.0" y="336.0" font-size="9.5" text-anchor="middle">座標を読む</text>
<text x="240.0" y="384.0" font-size="11" text-anchor="middle">どの表現からでも、残りの2つが作れる（作ったら別の表現で検算）</text>
</svg>
