<svg xmlns="http://www.w3.org/2000/svg" viewBox="0 0 480 380" role="img">
<title>2つの表の対比——積一定（反比例）と差一定（残りの関係）</title>
<desc>L07主概念2の対比図。上段はy＝12/xの表（x＝1〜4）で、各列の下に積の書きこみ「1×12＝12」「2×6＝12」…がすべて12になる。下段は残りの関係（12Lからx Lを飲んだ残りy L）の表で、差の書きこみ「−1」が並び、積の書きこみ11・20・27・32には大きく×印。「減っていく」見た目が同じでも、積一定かどうかで反比例が判定できることを示す。両表の値と積・差をすべて再計算してassert検算済み。再現指示: 2段の表＋上段は積の吹き出し・下段は差の書きこみと×印つき積。白黒のみ。</desc>
<!-- L07_fig1_product_vs_difference.svg | 2つの表の対比——積一定（反比例）と差一定（残りの関係） -->
<!-- generated by assets_provenance/generate_figures.py on 2026-07-18 (コード来歴方式・AI再利用メタ情報つき・SVG直接編集禁止/スクリプト改修で再生成) -->
<rect x="0" y="0" width="480" height="380" fill="#fff"/>
<text x="240.0" y="24.0" font-size="13" text-anchor="middle" font-weight="bold">同じ「減っていく」でも——判定は積の計算で</text>
<text x="40.0" y="52.0" font-size="12" text-anchor="start" font-weight="bold">y ＝ 12/x</text>
<line x1="40.0" y1="60.0" x2="372.0" y2="60.0" stroke="#000" stroke-width="1.1"/>
<line x1="40.0" y1="86.0" x2="372.0" y2="86.0" stroke="#000" stroke-width="1.1"/>
<line x1="40.0" y1="112.0" x2="372.0" y2="112.0" stroke="#000" stroke-width="1.1"/>
<line x1="40.0" y1="60.0" x2="40.0" y2="112.0" stroke="#000" stroke-width="1.1"/>
<line x1="84.0" y1="60.0" x2="84.0" y2="112.0" stroke="#000" stroke-width="1.1"/>
<line x1="156.0" y1="60.0" x2="156.0" y2="112.0" stroke="#000" stroke-width="1.1"/>
<line x1="228.0" y1="60.0" x2="228.0" y2="112.0" stroke="#000" stroke-width="1.1"/>
<line x1="300.0" y1="60.0" x2="300.0" y2="112.0" stroke="#000" stroke-width="1.1"/>
<line x1="372.0" y1="60.0" x2="372.0" y2="112.0" stroke="#000" stroke-width="1.1"/>
<text x="62.0" y="77.0" font-size="11" text-anchor="middle">x</text>
<text x="62.0" y="103.0" font-size="11" text-anchor="middle">y</text>
<text x="120.0" y="77.0" font-size="11" text-anchor="middle">1</text>
<text x="120.0" y="103.0" font-size="11" text-anchor="middle">12</text>
<text x="192.0" y="77.0" font-size="11" text-anchor="middle">2</text>
<text x="192.0" y="103.0" font-size="11" text-anchor="middle">6</text>
<text x="264.0" y="77.0" font-size="11" text-anchor="middle">3</text>
<text x="264.0" y="103.0" font-size="11" text-anchor="middle">4</text>
<text x="336.0" y="77.0" font-size="11" text-anchor="middle">4</text>
<text x="336.0" y="103.0" font-size="11" text-anchor="middle">3</text>
<line x1="120.0" y1="114.0" x2="120.0" y2="124.0" stroke="#666" stroke-width="0.9"/>
<text x="120.0" y="138.0" font-size="9.5" text-anchor="middle" font-weight="bold">1×12＝12</text>
<line x1="192.0" y1="114.0" x2="192.0" y2="124.0" stroke="#666" stroke-width="0.9"/>
<text x="192.0" y="138.0" font-size="9.5" text-anchor="middle" font-weight="bold">2×6＝12</text>
<line x1="264.0" y1="114.0" x2="264.0" y2="124.0" stroke="#666" stroke-width="0.9"/>
<text x="264.0" y="138.0" font-size="9.5" text-anchor="middle" font-weight="bold">3×4＝12</text>
<line x1="336.0" y1="114.0" x2="336.0" y2="124.0" stroke="#666" stroke-width="0.9"/>
<text x="336.0" y="138.0" font-size="9.5" text-anchor="middle" font-weight="bold">4×3＝12</text>
<text x="40.0" y="158.0" font-size="10.5" text-anchor="start">積 x×y はすべて 12 —— 積一定だから反比例</text>
<text x="40.0" y="196.0" font-size="12" text-anchor="start" font-weight="bold">残りの関係（12Lからx Lを飲んだ残り）</text>
<line x1="40.0" y1="204.0" x2="372.0" y2="204.0" stroke="#000" stroke-width="1.1"/>
<line x1="40.0" y1="230.0" x2="372.0" y2="230.0" stroke="#000" stroke-width="1.1"/>
<line x1="40.0" y1="256.0" x2="372.0" y2="256.0" stroke="#000" stroke-width="1.1"/>
<line x1="40.0" y1="204.0" x2="40.0" y2="256.0" stroke="#000" stroke-width="1.1"/>
<line x1="84.0" y1="204.0" x2="84.0" y2="256.0" stroke="#000" stroke-width="1.1"/>
<line x1="156.0" y1="204.0" x2="156.0" y2="256.0" stroke="#000" stroke-width="1.1"/>
<line x1="228.0" y1="204.0" x2="228.0" y2="256.0" stroke="#000" stroke-width="1.1"/>
<line x1="300.0" y1="204.0" x2="300.0" y2="256.0" stroke="#000" stroke-width="1.1"/>
<line x1="372.0" y1="204.0" x2="372.0" y2="256.0" stroke="#000" stroke-width="1.1"/>
<text x="62.0" y="221.0" font-size="11" text-anchor="middle">x</text>
<text x="62.0" y="247.0" font-size="11" text-anchor="middle">y</text>
<text x="120.0" y="221.0" font-size="11" text-anchor="middle">1</text>
<text x="120.0" y="247.0" font-size="11" text-anchor="middle">11</text>
<text x="192.0" y="221.0" font-size="11" text-anchor="middle">2</text>
<text x="192.0" y="247.0" font-size="11" text-anchor="middle">10</text>
<text x="264.0" y="221.0" font-size="11" text-anchor="middle">3</text>
<text x="264.0" y="247.0" font-size="11" text-anchor="middle">9</text>
<text x="336.0" y="221.0" font-size="11" text-anchor="middle">4</text>
<text x="336.0" y="247.0" font-size="11" text-anchor="middle">8</text>
<text x="156.0" y="272.0" font-size="10" text-anchor="middle" fill="#555">−1</text>
<text x="228.0" y="272.0" font-size="10" text-anchor="middle" fill="#555">−1</text>
<text x="300.0" y="272.0" font-size="10" text-anchor="middle" fill="#555">−1</text>
<text x="48.0" y="272.0" font-size="10" text-anchor="start" fill="#555">差</text>
<text x="114.0" y="298.0" font-size="10" text-anchor="middle">積 11</text>
<line x1="136.0" y1="302.0" x2="150.0" y2="288.0" stroke="#000" stroke-width="2.0"/>
<line x1="136.0" y1="288.0" x2="150.0" y2="302.0" stroke="#000" stroke-width="2.0"/>
<text x="186.0" y="298.0" font-size="10" text-anchor="middle">積 20</text>
<line x1="208.0" y1="302.0" x2="222.0" y2="288.0" stroke="#000" stroke-width="2.0"/>
<line x1="208.0" y1="288.0" x2="222.0" y2="302.0" stroke="#000" stroke-width="2.0"/>
<text x="258.0" y="298.0" font-size="10" text-anchor="middle">積 27</text>
<line x1="280.0" y1="302.0" x2="294.0" y2="288.0" stroke="#000" stroke-width="2.0"/>
<line x1="280.0" y1="288.0" x2="294.0" y2="302.0" stroke="#000" stroke-width="2.0"/>
<text x="330.0" y="298.0" font-size="10" text-anchor="middle">積 32</text>
<line x1="352.0" y1="302.0" x2="366.0" y2="288.0" stroke="#000" stroke-width="2.0"/>
<line x1="352.0" y1="288.0" x2="366.0" y2="302.0" stroke="#000" stroke-width="2.0"/>
<text x="40.0" y="322.0" font-size="10.5" text-anchor="start">積は 11・20・27・32 —— 一定にならないから反比例ではない</text>
<text x="240.0" y="356.0" font-size="11" text-anchor="middle">「減っていれば反比例」ではない。積一定かどうかを計算で確かめる</text>
</svg>
