<svg xmlns="http://www.w3.org/2000/svg" viewBox="0 0 480 420" role="img">
<title>練習用の図——反比例のグラフ（右上と左下の二本の曲線）</title>
<desc>L08練習3の問題図。方眼つき座標平面（−8〜8）に反比例のグラフ1組（右上と左下の二本の滑らかな曲線・多点サンプリング）をかき、右上の曲線が通る格子点2つに黒丸を打った。式や比例定数の数値は書かない（式を求めるのが練習の答えのため）。2点の積が等しく軸範囲内・曲線サンプル点が全て枠内であることをassert検算済み。再現指示: 方眼つき−8〜8の平面に二本曲線＋通る格子点の黒丸のみ。式ラベルは付けない。白黒のみ。</desc>
<!-- L08_fig2_hyperbola_practice.svg | 練習用の図——反比例のグラフ（右上と左下の二本の曲線） -->
<!-- generated by assets_provenance/generate_figures.py on 2026-07-18 (コード来歴方式・AI再利用メタ情報つき・SVG直接編集禁止/スクリプト改修で再生成) -->
<rect x="0" y="0" width="480" height="420" fill="#fff"/>
<line x1="80.0" y1="44.0" x2="80.0" y2="374.0" stroke="#d8d8d8" stroke-width="0.5"/>
<line x1="100.6" y1="44.0" x2="100.6" y2="374.0" stroke="#d8d8d8" stroke-width="0.5"/>
<line x1="121.2" y1="44.0" x2="121.2" y2="374.0" stroke="#d8d8d8" stroke-width="0.5"/>
<line x1="141.9" y1="44.0" x2="141.9" y2="374.0" stroke="#d8d8d8" stroke-width="0.5"/>
<line x1="162.5" y1="44.0" x2="162.5" y2="374.0" stroke="#d8d8d8" stroke-width="0.5"/>
<line x1="183.1" y1="44.0" x2="183.1" y2="374.0" stroke="#d8d8d8" stroke-width="0.5"/>
<line x1="203.8" y1="44.0" x2="203.8" y2="374.0" stroke="#d8d8d8" stroke-width="0.5"/>
<line x1="224.4" y1="44.0" x2="224.4" y2="374.0" stroke="#d8d8d8" stroke-width="0.5"/>
<line x1="245.0" y1="44.0" x2="245.0" y2="374.0" stroke="#d8d8d8" stroke-width="0.5"/>
<line x1="265.6" y1="44.0" x2="265.6" y2="374.0" stroke="#d8d8d8" stroke-width="0.5"/>
<line x1="286.2" y1="44.0" x2="286.2" y2="374.0" stroke="#d8d8d8" stroke-width="0.5"/>
<line x1="306.9" y1="44.0" x2="306.9" y2="374.0" stroke="#d8d8d8" stroke-width="0.5"/>
<line x1="327.5" y1="44.0" x2="327.5" y2="374.0" stroke="#d8d8d8" stroke-width="0.5"/>
<line x1="348.1" y1="44.0" x2="348.1" y2="374.0" stroke="#d8d8d8" stroke-width="0.5"/>
<line x1="368.8" y1="44.0" x2="368.8" y2="374.0" stroke="#d8d8d8" stroke-width="0.5"/>
<line x1="389.4" y1="44.0" x2="389.4" y2="374.0" stroke="#d8d8d8" stroke-width="0.5"/>
<line x1="410.0" y1="44.0" x2="410.0" y2="374.0" stroke="#d8d8d8" stroke-width="0.5"/>
<line x1="80.0" y1="374.0" x2="410.0" y2="374.0" stroke="#d8d8d8" stroke-width="0.5"/>
<line x1="80.0" y1="353.4" x2="410.0" y2="353.4" stroke="#d8d8d8" stroke-width="0.5"/>
<line x1="80.0" y1="332.8" x2="410.0" y2="332.8" stroke="#d8d8d8" stroke-width="0.5"/>
<line x1="80.0" y1="312.1" x2="410.0" y2="312.1" stroke="#d8d8d8" stroke-width="0.5"/>
<line x1="80.0" y1="291.5" x2="410.0" y2="291.5" stroke="#d8d8d8" stroke-width="0.5"/>
<line x1="80.0" y1="270.9" x2="410.0" y2="270.9" stroke="#d8d8d8" stroke-width="0.5"/>
<line x1="80.0" y1="250.2" x2="410.0" y2="250.2" stroke="#d8d8d8" stroke-width="0.5"/>
<line x1="80.0" y1="229.6" x2="410.0" y2="229.6" stroke="#d8d8d8" stroke-width="0.5"/>
<line x1="80.0" y1="209.0" x2="410.0" y2="209.0" stroke="#d8d8d8" stroke-width="0.5"/>
<line x1="80.0" y1="188.4" x2="410.0" y2="188.4" stroke="#d8d8d8" stroke-width="0.5"/>
<line x1="80.0" y1="167.8" x2="410.0" y2="167.8" stroke="#d8d8d8" stroke-width="0.5"/>
<line x1="80.0" y1="147.1" x2="410.0" y2="147.1" stroke="#d8d8d8" stroke-width="0.5"/>
<line x1="80.0" y1="126.5" x2="410.0" y2="126.5" stroke="#d8d8d8" stroke-width="0.5"/>
<line x1="80.0" y1="105.9" x2="410.0" y2="105.9" stroke="#d8d8d8" stroke-width="0.5"/>
<line x1="80.0" y1="85.2" x2="410.0" y2="85.2" stroke="#d8d8d8" stroke-width="0.5"/>
<line x1="80.0" y1="64.6" x2="410.0" y2="64.6" stroke="#d8d8d8" stroke-width="0.5"/>
<line x1="80.0" y1="44.0" x2="410.0" y2="44.0" stroke="#d8d8d8" stroke-width="0.5"/>
<line x1="74.0" y1="209.0" x2="418.0" y2="209.0" stroke="#000" stroke-width="1.3"/>
<line x1="418.0" y1="209.0" x2="412.6" y2="211.6" stroke="#000" stroke-width="1.3"/>
<line x1="418.0" y1="209.0" x2="412.6" y2="206.4" stroke="#000" stroke-width="1.3"/>
<line x1="245.0" y1="380.0" x2="245.0" y2="36.0" stroke="#000" stroke-width="1.3"/>
<line x1="245.0" y1="36.0" x2="247.6" y2="41.4" stroke="#000" stroke-width="1.3"/>
<line x1="245.0" y1="36.0" x2="242.4" y2="41.4" stroke="#000" stroke-width="1.3"/>
<text x="418.0" y="223.0" font-size="11" text-anchor="middle">x</text>
<text x="257.0" y="38.0" font-size="11" text-anchor="middle">y</text>
<line x1="80.0" y1="206.0" x2="80.0" y2="212.0" stroke="#000" stroke-width="1.0"/>
<text x="80.0" y="223.0" font-size="8.5" text-anchor="middle">−8</text>
<line x1="121.2" y1="206.0" x2="121.2" y2="212.0" stroke="#000" stroke-width="1.0"/>
<text x="121.2" y="223.0" font-size="8.5" text-anchor="middle">−6</text>
<line x1="162.5" y1="206.0" x2="162.5" y2="212.0" stroke="#000" stroke-width="1.0"/>
<text x="162.5" y="223.0" font-size="8.5" text-anchor="middle">−4</text>
<line x1="203.8" y1="206.0" x2="203.8" y2="212.0" stroke="#000" stroke-width="1.0"/>
<text x="203.8" y="223.0" font-size="8.5" text-anchor="middle">−2</text>
<line x1="286.2" y1="206.0" x2="286.2" y2="212.0" stroke="#000" stroke-width="1.0"/>
<text x="286.2" y="223.0" font-size="8.5" text-anchor="middle">2</text>
<line x1="327.5" y1="206.0" x2="327.5" y2="212.0" stroke="#000" stroke-width="1.0"/>
<text x="327.5" y="223.0" font-size="8.5" text-anchor="middle">4</text>
<line x1="368.8" y1="206.0" x2="368.8" y2="212.0" stroke="#000" stroke-width="1.0"/>
<text x="368.8" y="223.0" font-size="8.5" text-anchor="middle">6</text>
<line x1="410.0" y1="206.0" x2="410.0" y2="212.0" stroke="#000" stroke-width="1.0"/>
<text x="410.0" y="223.0" font-size="8.5" text-anchor="middle">8</text>
<line x1="242.0" y1="374.0" x2="248.0" y2="374.0" stroke="#000" stroke-width="1.0"/>
<text x="239.0" y="377.5" font-size="8.5" text-anchor="end">−8</text>
<line x1="242.0" y1="332.8" x2="248.0" y2="332.8" stroke="#000" stroke-width="1.0"/>
<text x="239.0" y="336.2" font-size="8.5" text-anchor="end">−6</text>
<line x1="242.0" y1="291.5" x2="248.0" y2="291.5" stroke="#000" stroke-width="1.0"/>
<text x="239.0" y="295.0" font-size="8.5" text-anchor="end">−4</text>
<line x1="242.0" y1="250.2" x2="248.0" y2="250.2" stroke="#000" stroke-width="1.0"/>
<text x="239.0" y="253.8" font-size="8.5" text-anchor="end">−2</text>
<line x1="242.0" y1="167.8" x2="248.0" y2="167.8" stroke="#000" stroke-width="1.0"/>
<text x="239.0" y="171.2" font-size="8.5" text-anchor="end">2</text>
<line x1="242.0" y1="126.5" x2="248.0" y2="126.5" stroke="#000" stroke-width="1.0"/>
<text x="239.0" y="130.0" font-size="8.5" text-anchor="end">4</text>
<line x1="242.0" y1="85.2" x2="248.0" y2="85.2" stroke="#000" stroke-width="1.0"/>
<text x="239.0" y="88.8" font-size="8.5" text-anchor="end">6</text>
<line x1="242.0" y1="44.0" x2="248.0" y2="44.0" stroke="#000" stroke-width="1.0"/>
<text x="239.0" y="47.5" font-size="8.5" text-anchor="end">8</text>
<text x="239.0" y="222.0" font-size="10.5" text-anchor="end">O</text>
<polyline points="260.47,44.00 262.13,60.00 263.79,73.18 265.45,84.21 267.11,93.59 268.78,101.65 270.44,108.66 272.10,114.81 273.76,120.25 275.42,125.10 277.08,129.45 278.74,133.36 280.41,136.91 282.07,140.14 283.73,143.10 285.39,145.81 287.05,148.31 288.71,150.61 290.38,152.75 292.04,154.74 293.70,156.59 295.36,158.32 297.02,159.94 298.68,161.45 300.34,162.88 302.01,164.23 303.67,165.49 305.33,166.69 306.99,167.83 308.65,168.90 310.31,169.92 311.97,170.89 313.64,171.81 315.30,172.69 316.96,173.53 318.62,174.33 320.28,175.10 321.94,175.83 323.60,176.53 325.27,177.20 326.93,177.85 328.59,178.47 330.25,179.06 331.91,179.63 333.57,180.18 335.23,180.71 336.90,181.23 338.56,181.72 340.22,182.19 341.88,182.65 343.54,183.10 345.20,183.53 346.86,183.94 348.53,184.35 350.19,184.74 351.85,185.11 353.51,185.48 355.17,185.83 356.83,186.18 358.49,186.51 360.16,186.84 361.82,187.15 363.48,187.46 365.14,187.76 366.80,188.05 368.46,188.33 370.12,188.60 371.79,188.87 373.45,189.13 375.11,189.38 376.77,189.63 378.43,189.87 380.09,190.11 381.76,190.34 383.42,190.56 385.08,190.78 386.74,190.99 388.40,191.20 390.06,191.41 391.72,191.60 393.39,191.80 395.05,191.99 396.71,192.18 398.37,192.36 400.03,192.54 401.69,192.71 403.35,192.88 405.02,193.05 406.68,193.21 408.34,193.37 410.00,193.53" fill="none" stroke="#000" stroke-width="2.6" stroke-linejoin="round"/>
<polyline points="80.00,224.47 81.66,224.63 83.32,224.79 84.98,224.95 86.65,225.12 88.31,225.29 89.97,225.46 91.63,225.64 93.29,225.82 94.95,226.01 96.61,226.20 98.28,226.40 99.94,226.59 101.60,226.80 103.26,227.01 104.92,227.22 106.58,227.44 108.24,227.66 109.91,227.89 111.57,228.13 113.23,228.37 114.89,228.62 116.55,228.87 118.21,229.13 119.88,229.40 121.54,229.67 123.20,229.95 124.86,230.24 126.52,230.54 128.18,230.85 129.84,231.16 131.51,231.49 133.17,231.82 134.83,232.17 136.49,232.52 138.15,232.89 139.81,233.26 141.47,233.65 143.14,234.06 144.80,234.47 146.46,234.90 148.12,235.35 149.78,235.81 151.44,236.28 153.10,236.77 154.77,237.29 156.43,237.82 158.09,238.37 159.75,238.94 161.41,239.53 163.07,240.15 164.73,240.80 166.40,241.47 168.06,242.17 169.72,242.90 171.38,243.67 173.04,244.47 174.70,245.31 176.36,246.19 178.03,247.11 179.69,248.08 181.35,249.10 183.01,250.17 184.67,251.31 186.33,252.51 187.99,253.77 189.66,255.12 191.32,256.55 192.98,258.06 194.64,259.68 196.30,261.41 197.96,263.26 199.62,265.25 201.29,267.39 202.95,269.69 204.61,272.19 206.27,274.90 207.93,277.86 209.59,281.09 211.26,284.64 212.92,288.55 214.58,292.90 216.24,297.75 217.90,303.19 219.56,309.34 221.22,316.35 222.89,324.41 224.55,333.79 226.21,344.82 227.87,358.00 229.53,374.00" fill="none" stroke="#000" stroke-width="2.6" stroke-linejoin="round"/>
<circle cx="286.2" cy="147.1" r="3.2" fill="#000"/>
<circle cx="368.8" cy="188.4" r="3.2" fill="#000"/>
<text x="240.0" y="24.0" font-size="13" text-anchor="middle" font-weight="bold">練習——この反比例のグラフの式を求めよう</text>
<text x="240.0" y="400.0" font-size="11" text-anchor="middle">曲線が通る格子点（黒丸）を読み取り、積で比例定数を決める</text>
</svg>
