<svg xmlns="http://www.w3.org/2000/svg" viewBox="0 0 480 430" role="img">
<title>比例と反比例の対比ポスター——商一定・積一定の3分岐</title>
<desc>L09対比表のポスター図。左列＝比例（y＝2xのミニ表x＝1〜3・式・右上がり直線のミニグラフ・商一定）、右列＝反比例（y＝12/xのミニ表・式・二本曲線のミニグラフ・積一定）、中央に判定の分かれ道として「y÷xが一定？→比例」「x×yが一定？→反比例」「どちらでもない？→比例でも反比例でもない」の3分岐フローチャート（上から商→積→どちらでもない、の順）。判定を増減の向きでなく計算（商・積）で行う型の一枚化。両ミニ表の商・積をassert検算済み。再現指示: 左右2列＋中央縦フローチャート。白黒のみ。</desc>
<!-- L09_fig1_comparison_poster.svg | 比例と反比例の対比ポスター——商一定・積一定の3分岐 -->
<!-- generated by assets_provenance/generate_figures.py on 2026-07-18 (コード来歴方式・AI再利用メタ情報つき・SVG直接編集禁止/スクリプト改修で再生成) -->
<rect x="0" y="0" width="480" height="430" fill="#fff"/>
<text x="240.0" y="24.0" font-size="13" text-anchor="middle" font-weight="bold">比例か反比例か——判定は計算で</text>
<rect x="20.0" y="40.0" width="150.0" height="300.0" rx="8" fill="none" stroke="#000" stroke-width="1.4"/>
<text x="95.0" y="62.0" font-size="13" text-anchor="middle" font-weight="bold">比例</text>
<line x1="34.0" y1="74.0" x2="158.0" y2="74.0" stroke="#000" stroke-width="1.1"/>
<line x1="34.0" y1="96.0" x2="158.0" y2="96.0" stroke="#000" stroke-width="1.1"/>
<line x1="34.0" y1="118.0" x2="158.0" y2="118.0" stroke="#000" stroke-width="1.1"/>
<line x1="34.0" y1="74.0" x2="34.0" y2="118.0" stroke="#000" stroke-width="1.1"/>
<line x1="62.0" y1="74.0" x2="62.0" y2="118.0" stroke="#000" stroke-width="1.1"/>
<line x1="94.0" y1="74.0" x2="94.0" y2="118.0" stroke="#000" stroke-width="1.1"/>
<line x1="126.0" y1="74.0" x2="126.0" y2="118.0" stroke="#000" stroke-width="1.1"/>
<line x1="158.0" y1="74.0" x2="158.0" y2="118.0" stroke="#000" stroke-width="1.1"/>
<text x="48.0" y="89.0" font-size="10" text-anchor="middle">x</text>
<text x="48.0" y="111.0" font-size="10" text-anchor="middle">y</text>
<text x="78.0" y="89.0" font-size="10" text-anchor="middle">1</text>
<text x="78.0" y="111.0" font-size="10" text-anchor="middle">2</text>
<text x="110.0" y="89.0" font-size="10" text-anchor="middle">2</text>
<text x="110.0" y="111.0" font-size="10" text-anchor="middle">4</text>
<text x="142.0" y="89.0" font-size="10" text-anchor="middle">3</text>
<text x="142.0" y="111.0" font-size="10" text-anchor="middle">6</text>
<text x="95.0" y="140.0" font-size="12" text-anchor="middle" font-weight="bold">y ＝ 2x</text>
<text x="95.0" y="158.0" font-size="9.5" text-anchor="middle">商 y÷x ＝ 2 で一定</text>
<line x1="39.0" y1="226.0" x2="153.0" y2="226.0" stroke="#000" stroke-width="1.3"/>
<line x1="153.0" y1="226.0" x2="147.6" y2="228.6" stroke="#000" stroke-width="1.3"/>
<line x1="153.0" y1="226.0" x2="147.6" y2="223.4" stroke="#000" stroke-width="1.3"/>
<line x1="95.0" y1="282.0" x2="95.0" y2="168.0" stroke="#000" stroke-width="1.3"/>
<line x1="95.0" y1="168.0" x2="97.6" y2="173.4" stroke="#000" stroke-width="1.3"/>
<line x1="95.0" y1="168.0" x2="92.4" y2="173.4" stroke="#000" stroke-width="1.3"/>
<text x="153.0" y="240.0" font-size="11" text-anchor="middle"></text>
<text x="107.0" y="170.0" font-size="11" text-anchor="middle"></text>
<line x1="45.0" y1="276.0" x2="145.0" y2="176.0" stroke="#000" stroke-width="1.8"/>
<text x="95.0" y="300.0" font-size="9.5" text-anchor="middle">原点を通る直線</text>
<text x="95.0" y="316.0" font-size="9.5" text-anchor="middle">（1本）</text>
<rect x="310.0" y="40.0" width="150.0" height="300.0" rx="8" fill="none" stroke="#000" stroke-width="1.4"/>
<text x="385.0" y="62.0" font-size="13" text-anchor="middle" font-weight="bold">反比例</text>
<line x1="324.0" y1="74.0" x2="448.0" y2="74.0" stroke="#000" stroke-width="1.1"/>
<line x1="324.0" y1="96.0" x2="448.0" y2="96.0" stroke="#000" stroke-width="1.1"/>
<line x1="324.0" y1="118.0" x2="448.0" y2="118.0" stroke="#000" stroke-width="1.1"/>
<line x1="324.0" y1="74.0" x2="324.0" y2="118.0" stroke="#000" stroke-width="1.1"/>
<line x1="352.0" y1="74.0" x2="352.0" y2="118.0" stroke="#000" stroke-width="1.1"/>
<line x1="384.0" y1="74.0" x2="384.0" y2="118.0" stroke="#000" stroke-width="1.1"/>
<line x1="416.0" y1="74.0" x2="416.0" y2="118.0" stroke="#000" stroke-width="1.1"/>
<line x1="448.0" y1="74.0" x2="448.0" y2="118.0" stroke="#000" stroke-width="1.1"/>
<text x="338.0" y="89.0" font-size="10" text-anchor="middle">x</text>
<text x="338.0" y="111.0" font-size="10" text-anchor="middle">y</text>
<text x="368.0" y="89.0" font-size="10" text-anchor="middle">1</text>
<text x="368.0" y="111.0" font-size="10" text-anchor="middle">12</text>
<text x="400.0" y="89.0" font-size="10" text-anchor="middle">2</text>
<text x="400.0" y="111.0" font-size="10" text-anchor="middle">6</text>
<text x="432.0" y="89.0" font-size="10" text-anchor="middle">3</text>
<text x="432.0" y="111.0" font-size="10" text-anchor="middle">4</text>
<text x="385.0" y="140.0" font-size="12" text-anchor="middle" font-weight="bold">y ＝ 12/x</text>
<text x="385.0" y="158.0" font-size="9.5" text-anchor="middle">積 x×y ＝ 12 で一定</text>
<line x1="329.0" y1="226.0" x2="443.0" y2="226.0" stroke="#000" stroke-width="1.3"/>
<line x1="443.0" y1="226.0" x2="437.6" y2="228.6" stroke="#000" stroke-width="1.3"/>
<line x1="443.0" y1="226.0" x2="437.6" y2="223.4" stroke="#000" stroke-width="1.3"/>
<line x1="385.0" y1="282.0" x2="385.0" y2="168.0" stroke="#000" stroke-width="1.3"/>
<line x1="385.0" y1="168.0" x2="387.6" y2="173.4" stroke="#000" stroke-width="1.3"/>
<line x1="385.0" y1="168.0" x2="382.4" y2="173.4" stroke="#000" stroke-width="1.3"/>
<text x="443.0" y="240.0" font-size="11" text-anchor="middle"></text>
<text x="397.0" y="170.0" font-size="11" text-anchor="middle"></text>
<polyline points="401.67,176.00 402.50,178.38 403.33,180.55 404.17,182.52 405.00,184.33 405.83,186.00 406.67,187.54 407.50,188.96 408.33,190.29 409.17,191.52 410.00,192.67 410.83,193.74 411.67,194.75 412.50,195.70 413.33,196.59 414.17,197.43 415.00,198.22 415.83,198.97 416.67,199.68 417.50,200.36 418.33,201.00 419.17,201.61 420.00,202.19 420.83,202.74 421.67,203.27 422.50,203.78 423.33,204.26 424.17,204.72 425.00,205.17 425.83,205.59 426.67,206.00 427.50,206.39 428.33,206.77 429.17,207.13 430.00,207.48 430.83,207.82 431.67,208.14 432.50,208.46 433.33,208.76 434.17,209.05 435.00,209.33" fill="none" stroke="#000" stroke-width="1.8" stroke-linejoin="round"/>
<polyline points="335.00,242.67 335.83,242.95 336.67,243.24 337.50,243.54 338.33,243.86 339.17,244.18 340.00,244.52 340.83,244.87 341.67,245.23 342.50,245.61 343.33,246.00 344.17,246.41 345.00,246.83 345.83,247.28 346.67,247.74 347.50,248.22 348.33,248.73 349.17,249.26 350.00,249.81 350.83,250.39 351.67,251.00 352.50,251.64 353.33,252.32 354.17,253.03 355.00,253.78 355.83,254.57 356.67,255.41 357.50,256.30 358.33,257.25 359.17,258.26 360.00,259.33 360.83,260.48 361.67,261.71 362.50,263.04 363.33,264.46 364.17,266.00 365.00,267.67 365.83,269.48 366.67,271.45 367.50,273.62 368.33,276.00" fill="none" stroke="#000" stroke-width="1.8" stroke-linejoin="round"/>
<text x="385.0" y="300.0" font-size="9.5" text-anchor="middle">原点を通らない</text>
<text x="385.0" y="316.0" font-size="9.5" text-anchor="middle">二本の曲線</text>
<text x="240.0" y="56.0" font-size="10" text-anchor="middle" font-weight="bold">表を見たら</text>
<rect x="186.0" y="64.0" width="108.0" height="30.0" rx="6" fill="none" stroke="#000" stroke-width="1.3"/>
<text x="240.0" y="82.5" font-size="9" text-anchor="middle" font-weight="bold">y÷x が一定？</text>
<line x1="186.0" y1="79.0" x2="172.0" y2="79.0" stroke="#000" stroke-width="1.2"/>
<line x1="172.0" y1="79.0" x2="178.3" y2="75.9" stroke="#000" stroke-width="1.2"/>
<line x1="172.0" y1="79.0" x2="178.3" y2="82.1" stroke="#000" stroke-width="1.2"/>
<text x="178.0" y="71.0" font-size="8.5" text-anchor="end">→比例</text>
<line x1="240.0" y1="94.0" x2="240.0" y2="112.0" stroke="#000" stroke-width="1.2"/>
<line x1="240.0" y1="112.0" x2="236.9" y2="105.7" stroke="#000" stroke-width="1.2"/>
<line x1="240.0" y1="112.0" x2="243.1" y2="105.7" stroke="#000" stroke-width="1.2"/>
<rect x="186.0" y="112.0" width="108.0" height="30.0" rx="6" fill="none" stroke="#000" stroke-width="1.3"/>
<text x="240.0" y="130.5" font-size="9" text-anchor="middle" font-weight="bold">x×y が一定？</text>
<line x1="294.0" y1="127.0" x2="308.0" y2="127.0" stroke="#000" stroke-width="1.2"/>
<line x1="308.0" y1="127.0" x2="301.7" y2="130.1" stroke="#000" stroke-width="1.2"/>
<line x1="308.0" y1="127.0" x2="301.7" y2="123.9" stroke="#000" stroke-width="1.2"/>
<text x="302.0" y="119.0" font-size="8.5" text-anchor="start">→反比例</text>
<line x1="240.0" y1="142.0" x2="240.0" y2="160.0" stroke="#000" stroke-width="1.2"/>
<line x1="240.0" y1="160.0" x2="236.9" y2="153.7" stroke="#000" stroke-width="1.2"/>
<line x1="240.0" y1="160.0" x2="243.1" y2="153.7" stroke="#000" stroke-width="1.2"/>
<rect x="186.0" y="160.0" width="108.0" height="58.0" rx="6" fill="none" stroke="#000" stroke-width="1.3"/>
<text x="240.0" y="178.5" font-size="9" text-anchor="middle" font-weight="bold">どちらでもない？</text>
<text x="240.0" y="192.5" font-size="9" text-anchor="middle" font-weight="bold">→比例でも</text>
<text x="240.0" y="206.5" font-size="9" text-anchor="middle" font-weight="bold">反比例でもない</text>
<text x="240.0" y="250.0" font-size="9.5" text-anchor="middle">増減の向きは</text>
<text x="240.0" y="264.0" font-size="9.5" text-anchor="middle">判定に使わない</text>
<text x="240.0" y="360.0" font-size="11" text-anchor="middle">判定の順: 商一定？ → 積一定？ → どちらでもない</text>
<text x="240.0" y="380.0" font-size="11" text-anchor="middle">「どちらでもない」も堂々とした正解</text>
</svg>
