<svg xmlns="http://www.w3.org/2000/svg" viewBox="0 0 480 340" role="img">
<title>練習用の図——y＝4xのグラフ（ろうそくの場面）</title>
<desc>L10練習3の問題図。y＝4xのグラフ（x軸0〜10・y軸0〜40・方眼つき）。ろうそくが燃えてx分間に短くなる長さy mmの関係を表す。読み取りの補助線・交点・読み取り値は意図的にかかない（y＝28のときのxを読むのが練習の答えのため。目盛りは1mm方眼＋ラベルはx＝2きざみ・y＝8きざみで、答えの値を目盛りラベルとして先出ししない）。読み取り点がy＝4x上・軸範囲内で読める問題として成立することをassert検算済み。再現指示: 方眼つきの第1象限グラフ1本のみ・補助線なし。白黒のみ。</desc>
<!-- L10_fig2_candle_graph_practice.svg | 練習用の図——y＝4xのグラフ（ろうそくの場面） -->
<!-- generated by assets_provenance/generate_figures.py on 2026-07-18 (コード来歴方式・AI再利用メタ情報つき・SVG直接編集禁止/スクリプト改修で再生成) -->
<rect x="0" y="0" width="480" height="340" fill="#fff"/>
<line x1="80.0" y1="44.0" x2="80.0" y2="264.0" stroke="#d8d8d8" stroke-width="0.5"/>
<line x1="114.0" y1="44.0" x2="114.0" y2="264.0" stroke="#d8d8d8" stroke-width="0.5"/>
<line x1="148.0" y1="44.0" x2="148.0" y2="264.0" stroke="#d8d8d8" stroke-width="0.5"/>
<line x1="182.0" y1="44.0" x2="182.0" y2="264.0" stroke="#d8d8d8" stroke-width="0.5"/>
<line x1="216.0" y1="44.0" x2="216.0" y2="264.0" stroke="#d8d8d8" stroke-width="0.5"/>
<line x1="250.0" y1="44.0" x2="250.0" y2="264.0" stroke="#d8d8d8" stroke-width="0.5"/>
<line x1="284.0" y1="44.0" x2="284.0" y2="264.0" stroke="#d8d8d8" stroke-width="0.5"/>
<line x1="318.0" y1="44.0" x2="318.0" y2="264.0" stroke="#d8d8d8" stroke-width="0.5"/>
<line x1="352.0" y1="44.0" x2="352.0" y2="264.0" stroke="#d8d8d8" stroke-width="0.5"/>
<line x1="386.0" y1="44.0" x2="386.0" y2="264.0" stroke="#d8d8d8" stroke-width="0.5"/>
<line x1="420.0" y1="44.0" x2="420.0" y2="264.0" stroke="#d8d8d8" stroke-width="0.5"/>
<line x1="80.0" y1="264.0" x2="420.0" y2="264.0" stroke="#d8d8d8" stroke-width="0.5"/>
<line x1="80.0" y1="242.0" x2="420.0" y2="242.0" stroke="#d8d8d8" stroke-width="0.5"/>
<line x1="80.0" y1="220.0" x2="420.0" y2="220.0" stroke="#d8d8d8" stroke-width="0.5"/>
<line x1="80.0" y1="198.0" x2="420.0" y2="198.0" stroke="#d8d8d8" stroke-width="0.5"/>
<line x1="80.0" y1="176.0" x2="420.0" y2="176.0" stroke="#d8d8d8" stroke-width="0.5"/>
<line x1="80.0" y1="154.0" x2="420.0" y2="154.0" stroke="#d8d8d8" stroke-width="0.5"/>
<line x1="80.0" y1="132.0" x2="420.0" y2="132.0" stroke="#d8d8d8" stroke-width="0.5"/>
<line x1="80.0" y1="110.0" x2="420.0" y2="110.0" stroke="#d8d8d8" stroke-width="0.5"/>
<line x1="80.0" y1="88.0" x2="420.0" y2="88.0" stroke="#d8d8d8" stroke-width="0.5"/>
<line x1="80.0" y1="66.0" x2="420.0" y2="66.0" stroke="#d8d8d8" stroke-width="0.5"/>
<line x1="80.0" y1="44.0" x2="420.0" y2="44.0" stroke="#d8d8d8" stroke-width="0.5"/>
<line x1="74.0" y1="264.0" x2="428.0" y2="264.0" stroke="#000" stroke-width="1.3"/>
<line x1="428.0" y1="264.0" x2="422.6" y2="266.6" stroke="#000" stroke-width="1.3"/>
<line x1="428.0" y1="264.0" x2="422.6" y2="261.4" stroke="#000" stroke-width="1.3"/>
<line x1="80.0" y1="270.0" x2="80.0" y2="36.0" stroke="#000" stroke-width="1.3"/>
<line x1="80.0" y1="36.0" x2="82.6" y2="41.4" stroke="#000" stroke-width="1.3"/>
<line x1="80.0" y1="36.0" x2="77.4" y2="41.4" stroke="#000" stroke-width="1.3"/>
<text x="428.0" y="278.0" font-size="11" text-anchor="middle">x</text>
<text x="92.0" y="38.0" font-size="11" text-anchor="middle">y</text>
<line x1="148.0" y1="261.0" x2="148.0" y2="267.0" stroke="#000" stroke-width="1.0"/>
<text x="148.0" y="278.0" font-size="9.5" text-anchor="middle">2</text>
<line x1="216.0" y1="261.0" x2="216.0" y2="267.0" stroke="#000" stroke-width="1.0"/>
<text x="216.0" y="278.0" font-size="9.5" text-anchor="middle">4</text>
<line x1="284.0" y1="261.0" x2="284.0" y2="267.0" stroke="#000" stroke-width="1.0"/>
<text x="284.0" y="278.0" font-size="9.5" text-anchor="middle">6</text>
<line x1="352.0" y1="261.0" x2="352.0" y2="267.0" stroke="#000" stroke-width="1.0"/>
<text x="352.0" y="278.0" font-size="9.5" text-anchor="middle">8</text>
<line x1="420.0" y1="261.0" x2="420.0" y2="267.0" stroke="#000" stroke-width="1.0"/>
<text x="420.0" y="278.0" font-size="9.5" text-anchor="middle">10</text>
<line x1="77.0" y1="220.0" x2="83.0" y2="220.0" stroke="#000" stroke-width="1.0"/>
<text x="74.0" y="223.5" font-size="9.5" text-anchor="end">8</text>
<line x1="77.0" y1="176.0" x2="83.0" y2="176.0" stroke="#000" stroke-width="1.0"/>
<text x="74.0" y="179.5" font-size="9.5" text-anchor="end">16</text>
<line x1="77.0" y1="132.0" x2="83.0" y2="132.0" stroke="#000" stroke-width="1.0"/>
<text x="74.0" y="135.5" font-size="9.5" text-anchor="end">24</text>
<line x1="77.0" y1="88.0" x2="83.0" y2="88.0" stroke="#000" stroke-width="1.0"/>
<text x="74.0" y="91.5" font-size="9.5" text-anchor="end">32</text>
<line x1="77.0" y1="44.0" x2="83.0" y2="44.0" stroke="#000" stroke-width="1.0"/>
<text x="74.0" y="47.5" font-size="9.5" text-anchor="end">40</text>
<text x="74.0" y="277.0" font-size="10.5" text-anchor="end">O</text>
<line x1="80.0" y1="264.0" x2="420.0" y2="44.0" stroke="#000" stroke-width="2.6"/>
<text x="362.2" y="52.2" font-size="12" text-anchor="middle" font-weight="bold">y＝4x</text>
<text x="240.0" y="24.0" font-size="13" text-anchor="middle" font-weight="bold">練習——ろうそくが短くなるようす（y＝4x）</text>
<text x="240.0" y="306.0" font-size="11" text-anchor="middle">横軸: 燃えた時間x（分）／縦軸: 短くなった長さy（mm）</text>
<text x="240.0" y="324.0" font-size="11" text-anchor="middle">補助線は自分でかいて読み取ろう</text>
</svg>
