<svg xmlns="http://www.w3.org/2000/svg" viewBox="0 0 480 330" role="img">
<title>y＝20xのグラフと読み取りの補助線——交点(15, 300)</title>
<desc>L10主概念1ルート2の手つき図。y＝20xのグラフ（x軸0〜20・y軸0〜400、目盛りはx＝5きざみ・y＝100きざみ・方眼つき）に、y軸の300から水平の破線→グラフとの交点(15, 300)に丸印→そこから垂直の破線でx軸の15へ、の読み取りの補助線をかき、x軸側の読み取り値15を丸で強調した。「グラフで解く」の実際の手つき（指定のyに対するx座標を読む）を1枚にする。交点がy＝20x上・軸範囲内であることをassert検算済み。再現指示: 補助線は破線・交点のみ丸印・x軸の15を丸で強調。白黒のみ。</desc>
<!-- L10_fig1_graph_reading_route.svg | y＝20xのグラフと読み取りの補助線——交点(15, 300) -->
<!-- generated by assets_provenance/generate_figures.py on 2026-07-18 (コード来歴方式・AI再利用メタ情報つき・SVG直接編集禁止/スクリプト改修で再生成) -->
<rect x="0" y="0" width="480" height="330" fill="#fff"/>
<line x1="80.0" y1="44.0" x2="80.0" y2="274.0" stroke="#d8d8d8" stroke-width="0.5"/>
<line x1="165.0" y1="44.0" x2="165.0" y2="274.0" stroke="#d8d8d8" stroke-width="0.5"/>
<line x1="250.0" y1="44.0" x2="250.0" y2="274.0" stroke="#d8d8d8" stroke-width="0.5"/>
<line x1="335.0" y1="44.0" x2="335.0" y2="274.0" stroke="#d8d8d8" stroke-width="0.5"/>
<line x1="420.0" y1="44.0" x2="420.0" y2="274.0" stroke="#d8d8d8" stroke-width="0.5"/>
<line x1="80.0" y1="274.0" x2="420.0" y2="274.0" stroke="#d8d8d8" stroke-width="0.5"/>
<line x1="80.0" y1="216.5" x2="420.0" y2="216.5" stroke="#d8d8d8" stroke-width="0.5"/>
<line x1="80.0" y1="159.0" x2="420.0" y2="159.0" stroke="#d8d8d8" stroke-width="0.5"/>
<line x1="80.0" y1="101.5" x2="420.0" y2="101.5" stroke="#d8d8d8" stroke-width="0.5"/>
<line x1="80.0" y1="44.0" x2="420.0" y2="44.0" stroke="#d8d8d8" stroke-width="0.5"/>
<line x1="74.0" y1="274.0" x2="428.0" y2="274.0" stroke="#000" stroke-width="1.3"/>
<line x1="428.0" y1="274.0" x2="422.6" y2="276.6" stroke="#000" stroke-width="1.3"/>
<line x1="428.0" y1="274.0" x2="422.6" y2="271.4" stroke="#000" stroke-width="1.3"/>
<line x1="80.0" y1="280.0" x2="80.0" y2="36.0" stroke="#000" stroke-width="1.3"/>
<line x1="80.0" y1="36.0" x2="82.6" y2="41.4" stroke="#000" stroke-width="1.3"/>
<line x1="80.0" y1="36.0" x2="77.4" y2="41.4" stroke="#000" stroke-width="1.3"/>
<text x="428.0" y="288.0" font-size="11" text-anchor="middle">x</text>
<text x="92.0" y="38.0" font-size="11" text-anchor="middle">y</text>
<line x1="165.0" y1="271.0" x2="165.0" y2="277.0" stroke="#000" stroke-width="1.0"/>
<text x="165.0" y="288.0" font-size="9.5" text-anchor="middle">5</text>
<line x1="250.0" y1="271.0" x2="250.0" y2="277.0" stroke="#000" stroke-width="1.0"/>
<text x="250.0" y="288.0" font-size="9.5" text-anchor="middle">10</text>
<line x1="335.0" y1="271.0" x2="335.0" y2="277.0" stroke="#000" stroke-width="1.0"/>
<text x="335.0" y="288.0" font-size="9.5" text-anchor="middle">15</text>
<line x1="420.0" y1="271.0" x2="420.0" y2="277.0" stroke="#000" stroke-width="1.0"/>
<text x="420.0" y="288.0" font-size="9.5" text-anchor="middle">20</text>
<line x1="77.0" y1="216.5" x2="83.0" y2="216.5" stroke="#000" stroke-width="1.0"/>
<text x="74.0" y="220.0" font-size="9.5" text-anchor="end">100</text>
<line x1="77.0" y1="159.0" x2="83.0" y2="159.0" stroke="#000" stroke-width="1.0"/>
<text x="74.0" y="162.5" font-size="9.5" text-anchor="end">200</text>
<line x1="77.0" y1="101.5" x2="83.0" y2="101.5" stroke="#000" stroke-width="1.0"/>
<text x="74.0" y="105.0" font-size="9.5" text-anchor="end">300</text>
<line x1="77.0" y1="44.0" x2="83.0" y2="44.0" stroke="#000" stroke-width="1.0"/>
<text x="74.0" y="47.5" font-size="9.5" text-anchor="end">400</text>
<text x="74.0" y="287.0" font-size="10.5" text-anchor="end">O</text>
<line x1="80.0" y1="274.0" x2="420.0" y2="44.0" stroke="#000" stroke-width="2.6"/>
<text x="374.2" y="61.2" font-size="12" text-anchor="middle" font-weight="bold">y＝20x</text>
<line x1="80.0" y1="101.5" x2="335.0" y2="101.5" stroke="#333" stroke-width="1.1" stroke-dasharray="6 4"/>
<line x1="335.0" y1="101.5" x2="335.0" y2="274.0" stroke="#333" stroke-width="1.1" stroke-dasharray="6 4"/>
<circle cx="335.0" cy="101.5" r="5.5" fill="none" stroke="#000" stroke-width="1.8"/>
<circle cx="335.0" cy="288.0" r="9" fill="none" stroke="#000" stroke-width="1.3"/>
<text x="240.0" y="24.0" font-size="13" text-anchor="middle" font-weight="bold">グラフで解く——y＝300のときのxを読む</text>
<text x="240.0" y="310.0" font-size="11" text-anchor="middle">高さ300から横へ→グラフにぶつかったら真下へ→x軸の目盛りを読む</text>
</svg>
