<svg xmlns="http://www.w3.org/2000/svg" viewBox="0 0 480 300" role="img">
<title>「比例とみなす」手順3コマ図——実測・みなし・予測</title>
<desc>L11主概念の手順図。コマ1＝びんいっぱいのクリップの絵と「全部数えるのは大変…」の吹き出し。コマ2＝10個だけ取り出しはかりに載せた絵（表示5g）と、ミニ座標平面に実測点(10, 5)＋原点を通る破線の直線y＝0.5x（「比例とみなす」ラベル・みなした直線であることを実線と区別）。コマ3＝全体215gを代入してx＝430を求め「およそ430個」と報告する図。実測→みなし→予測の3手順の流れを1枚で示す。0.5＝5÷10・215＝0.5×430をassert検算済み。再現指示: 3コマ横並び・コマ2の直線は破線。白黒のみ。</desc>
<!-- L11_fig1_estimate_three_steps.svg | 「比例とみなす」手順3コマ図——実測・みなし・予測 -->
<!-- generated by assets_provenance/generate_figures.py on 2026-07-18 (コード来歴方式・AI再利用メタ情報つき・SVG直接編集禁止/スクリプト改修で再生成) -->
<rect x="0" y="0" width="480" height="300" fill="#fff"/>
<text x="240.0" y="22.0" font-size="13" text-anchor="middle" font-weight="bold">「比例とみなす」——実測→みなし→予測の3手順</text>
<rect x="20.0" y="40.0" width="130.0" height="210.0" rx="8" fill="none" stroke="#000" stroke-width="1.2"/>
<text x="85.0" y="60.0" font-size="11" text-anchor="middle" font-weight="bold">① 一部を実測</text>
<ellipse cx="85.0" cy="120.0" rx="30.0" ry="10.0" fill="none" stroke="#000" stroke-width="1.4"/>
<line x1="55.0" y1="120.0" x2="55.0" y2="190.0" stroke="#000" stroke-width="1.4"/>
<line x1="115.0" y1="120.0" x2="115.0" y2="190.0" stroke="#000" stroke-width="1.4"/>
<ellipse cx="85.0" cy="190.0" rx="30.0" ry="10.0" fill="none" stroke="#000" stroke-width="1.4"/>
<ellipse cx="71.0" cy="150.0" rx="6.0" ry="2.5" fill="none" stroke="#000" stroke-width="1.0"/>
<ellipse cx="85.0" cy="165.0" rx="6.0" ry="2.5" fill="none" stroke="#000" stroke-width="1.0"/>
<ellipse cx="97.0" cy="145.0" rx="6.0" ry="2.5" fill="none" stroke="#000" stroke-width="1.0"/>
<ellipse cx="79.0" cy="178.0" rx="6.0" ry="2.5" fill="none" stroke="#000" stroke-width="1.0"/>
<ellipse cx="93.0" cy="172.0" rx="6.0" ry="2.5" fill="none" stroke="#000" stroke-width="1.0"/>
<text x="85.0" y="222.0" font-size="9.5" text-anchor="middle">全部数えるのは</text>
<text x="85.0" y="236.0" font-size="9.5" text-anchor="middle">大変…</text>
<rect x="165.0" y="40.0" width="150.0" height="210.0" rx="8" fill="none" stroke="#000" stroke-width="1.2"/>
<text x="240.0" y="60.0" font-size="11" text-anchor="middle" font-weight="bold">② 比例とみなす</text>
<rect x="185.0" y="88.0" width="60.0" height="24.0" rx="3" fill="none" stroke="#000" stroke-width="1.3"/>
<text x="215.0" y="104.0" font-size="11" text-anchor="middle" font-weight="bold">5g</text>
<text x="215.0" y="128.0" font-size="9.5" text-anchor="middle">10個で5g</text>
<line x1="184.0" y1="224.0" x2="298.0" y2="224.0" stroke="#000" stroke-width="1.3"/>
<line x1="298.0" y1="224.0" x2="292.6" y2="226.6" stroke="#000" stroke-width="1.3"/>
<line x1="298.0" y1="224.0" x2="292.6" y2="221.4" stroke="#000" stroke-width="1.3"/>
<line x1="190.0" y1="230.0" x2="190.0" y2="132.0" stroke="#000" stroke-width="1.3"/>
<line x1="190.0" y1="132.0" x2="192.6" y2="137.4" stroke="#000" stroke-width="1.3"/>
<line x1="190.0" y1="132.0" x2="187.4" y2="137.4" stroke="#000" stroke-width="1.3"/>
<text x="298.0" y="238.0" font-size="11" text-anchor="middle">x</text>
<text x="202.0" y="134.0" font-size="11" text-anchor="middle">y</text>
<line x1="190.0" y1="224.0" x2="280.0" y2="148.4" stroke="#000" stroke-width="1.6" stroke-dasharray="4 3"/>
<circle cx="240.0" cy="182.0" r="2.8" fill="#000"/>
<text x="240.0" y="240.0" font-size="9" text-anchor="middle">y＝0.5x（比例とみなす）</text>
<rect x="330.0" y="40.0" width="130.0" height="210.0" rx="8" fill="none" stroke="#000" stroke-width="1.2"/>
<text x="395.0" y="60.0" font-size="11" text-anchor="middle" font-weight="bold">③ 式で予測</text>
<text x="395.0" y="92.0" font-size="10.5" text-anchor="middle">全体は 215g</text>
<text x="395.0" y="118.0" font-size="11" text-anchor="middle" font-weight="bold">215 ＝ 0.5x</text>
<line x1="395.0" y1="130.0" x2="395.0" y2="152.0" stroke="#000" stroke-width="1.2"/>
<line x1="395.0" y1="152.0" x2="391.9" y2="145.7" stroke="#000" stroke-width="1.2"/>
<line x1="395.0" y1="152.0" x2="398.1" y2="145.7" stroke="#000" stroke-width="1.2"/>
<text x="395.0" y="170.0" font-size="11" text-anchor="middle" font-weight="bold">x ＝ 430</text>
<text x="395.0" y="196.0" font-size="10.5" text-anchor="middle">およそ430個</text>
<text x="395.0" y="222.0" font-size="8.5" text-anchor="middle">（答えは「およそ」</text>
<text x="395.0" y="234.0" font-size="8.5" text-anchor="middle">但し書きつき）</text>
<text x="240.0" y="282.0" font-size="11" text-anchor="middle">数えたのは10個だけ——比例とみなせば全体の見当がつく</text>
</svg>
