<svg xmlns="http://www.w3.org/2000/svg" viewBox="0 0 480 300" role="img">
<title>単元の地図——三つの部屋（関数の意味・比例と反比例・使う）</title>
<desc>L12の総整理図。三つの部屋を3枚の札で横に並べ、①→②→③の矢印でつないだ。①関数の意味＝対応の矢印図ミニ版（数値なしの点と矢印・ただ一つ決まる）、②比例と反比例＝「商一定 y＝ax／積一定 y＝a/x」の対比と直線・二本曲線のミニグラフ（L09_fig1の対比の縮小版）、③使う＝「用いるもの＋用い方」の2部品の吹き出し。単元全体の構造を1枚で見渡し、自己チェックの部屋と対応させる。札数・矢印数・ミニグラフの構造をassert検算済み。再現指示: 3枚の角丸札＋2本の矢印・②はL09_fig1の縮小版を流用可。白黒のみ。</desc>
<!-- L12_fig1_unit_map_three_rooms.svg | 単元の地図——三つの部屋（関数の意味・比例と反比例・使う） -->
<!-- generated by assets_provenance/generate_figures.py on 2026-07-18 (コード来歴方式・AI再利用メタ情報つき・SVG直接編集禁止/スクリプト改修で再生成) -->
<rect x="0" y="0" width="480" height="300" fill="#fff"/>
<text x="240.0" y="24.0" font-size="13" text-anchor="middle" font-weight="bold">単元の地図——三つの部屋</text>
<rect x="20.0" y="44.0" width="130.0" height="200.0" rx="10" fill="none" stroke="#000" stroke-width="1.5"/>
<text x="85.0" y="68.0" font-size="11.5" text-anchor="middle" font-weight="bold">① 関数の意味</text>
<rect x="175.0" y="44.0" width="130.0" height="200.0" rx="10" fill="none" stroke="#000" stroke-width="1.5"/>
<text x="240.0" y="68.0" font-size="11.5" text-anchor="middle" font-weight="bold">② 比例と反比例</text>
<rect x="330.0" y="44.0" width="130.0" height="200.0" rx="10" fill="none" stroke="#000" stroke-width="1.5"/>
<text x="395.0" y="68.0" font-size="11.5" text-anchor="middle" font-weight="bold">③ 使う</text>
<line x1="152.0" y1="144.0" x2="173.0" y2="144.0" stroke="#000" stroke-width="1.6"/>
<line x1="173.0" y1="144.0" x2="166.7" y2="147.1" stroke="#000" stroke-width="1.6"/>
<line x1="173.0" y1="144.0" x2="166.7" y2="140.9" stroke="#000" stroke-width="1.6"/>
<line x1="307.0" y1="144.0" x2="328.0" y2="144.0" stroke="#000" stroke-width="1.6"/>
<line x1="328.0" y1="144.0" x2="321.7" y2="147.1" stroke="#000" stroke-width="1.6"/>
<line x1="328.0" y1="144.0" x2="321.7" y2="140.9" stroke="#000" stroke-width="1.6"/>
<circle cx="48.0" cy="100.0" r="3" fill="#000"/>
<circle cx="122.0" cy="100.0" r="3" fill="#000"/>
<line x1="56.0" y1="100.0" x2="114.0" y2="100.0" stroke="#000" stroke-width="1.1"/>
<line x1="114.0" y1="100.0" x2="107.7" y2="103.1" stroke="#000" stroke-width="1.1"/>
<line x1="114.0" y1="100.0" x2="107.7" y2="96.9" stroke="#000" stroke-width="1.1"/>
<circle cx="48.0" cy="130.0" r="3" fill="#000"/>
<circle cx="122.0" cy="130.0" r="3" fill="#000"/>
<line x1="56.0" y1="130.0" x2="114.0" y2="130.0" stroke="#000" stroke-width="1.1"/>
<line x1="114.0" y1="130.0" x2="107.7" y2="133.1" stroke="#000" stroke-width="1.1"/>
<line x1="114.0" y1="130.0" x2="107.7" y2="126.9" stroke="#000" stroke-width="1.1"/>
<circle cx="48.0" cy="160.0" r="3" fill="#000"/>
<circle cx="122.0" cy="160.0" r="3" fill="#000"/>
<line x1="56.0" y1="160.0" x2="114.0" y2="160.0" stroke="#000" stroke-width="1.1"/>
<line x1="114.0" y1="160.0" x2="107.7" y2="163.1" stroke="#000" stroke-width="1.1"/>
<line x1="114.0" y1="160.0" x2="107.7" y2="156.9" stroke="#000" stroke-width="1.1"/>
<text x="85.0" y="192.0" font-size="9" text-anchor="middle">xの値1つから</text>
<text x="85.0" y="205.0" font-size="9" text-anchor="middle">矢印ちょうど1本</text>
<text x="85.0" y="228.0" font-size="9" text-anchor="middle" font-weight="bold">＝ ただ一つ決まる</text>
<text x="240.0" y="92.0" font-size="9.5" text-anchor="middle" font-weight="bold">商一定 y＝ax</text>
<line x1="199.0" y1="123.0" x2="283.0" y2="123.0" stroke="#000" stroke-width="1.3"/>
<line x1="283.0" y1="123.0" x2="277.6" y2="125.6" stroke="#000" stroke-width="1.3"/>
<line x1="283.0" y1="123.0" x2="277.6" y2="120.4" stroke="#000" stroke-width="1.3"/>
<line x1="240.0" y1="152.0" x2="240.0" y2="92.0" stroke="#000" stroke-width="1.3"/>
<line x1="240.0" y1="92.0" x2="242.6" y2="97.4" stroke="#000" stroke-width="1.3"/>
<line x1="240.0" y1="92.0" x2="237.4" y2="97.4" stroke="#000" stroke-width="1.3"/>
<text x="283.0" y="137.0" font-size="11" text-anchor="middle"></text>
<text x="252.0" y="94.0" font-size="11" text-anchor="middle"></text>
<line x1="205.0" y1="146.0" x2="275.0" y2="100.0" stroke="#000" stroke-width="1.5"/>
<text x="240.0" y="168.0" font-size="9.5" text-anchor="middle" font-weight="bold">積一定 y＝a/x</text>
<line x1="199.0" y1="199.0" x2="283.0" y2="199.0" stroke="#000" stroke-width="1.3"/>
<line x1="283.0" y1="199.0" x2="277.6" y2="201.6" stroke="#000" stroke-width="1.3"/>
<line x1="283.0" y1="199.0" x2="277.6" y2="196.4" stroke="#000" stroke-width="1.3"/>
<line x1="240.0" y1="228.0" x2="240.0" y2="168.0" stroke="#000" stroke-width="1.3"/>
<line x1="240.0" y1="168.0" x2="242.6" y2="173.4" stroke="#000" stroke-width="1.3"/>
<line x1="240.0" y1="168.0" x2="237.4" y2="173.4" stroke="#000" stroke-width="1.3"/>
<text x="283.0" y="213.0" font-size="11" text-anchor="middle"></text>
<text x="252.0" y="170.0" font-size="11" text-anchor="middle"></text>
<polyline points="243.89,176.00 244.67,179.83 245.44,182.57 246.22,184.62 247.00,186.22 247.78,187.50 248.56,188.55 249.33,189.42 250.11,190.15 250.89,190.79 251.67,191.33 252.44,191.81 253.22,192.24 254.00,192.61 254.78,192.95 255.56,193.25 256.33,193.52 257.11,193.77 257.89,194.00 258.67,194.21 259.44,194.40 260.22,194.58 261.00,194.74 261.78,194.89 262.56,195.03 263.33,195.17 264.11,195.29 264.89,195.41 265.67,195.52 266.44,195.62 267.22,195.71 268.00,195.81 268.78,195.89 269.56,195.97 270.33,196.05 271.11,196.12 271.89,196.20 272.67,196.26 273.44,196.33 274.22,196.39 275.00,196.44" fill="none" stroke="#000" stroke-width="1.5" stroke-linejoin="round"/>
<polyline points="205.00,201.56 205.78,201.61 206.56,201.67 207.33,201.74 208.11,201.80 208.89,201.88 209.67,201.95 210.44,202.03 211.22,202.11 212.00,202.19 212.78,202.29 213.56,202.38 214.33,202.48 215.11,202.59 215.89,202.71 216.67,202.83 217.44,202.97 218.22,203.11 219.00,203.26 219.78,203.42 220.56,203.60 221.33,203.79 222.11,204.00 222.89,204.23 223.67,204.48 224.44,204.75 225.22,205.05 226.00,205.39 226.78,205.76 227.56,206.19 228.33,206.67 229.11,207.21 229.89,207.85 230.67,208.58 231.44,209.45 232.22,210.50 233.00,211.78 233.78,213.38 234.56,215.43 235.33,218.17 236.11,222.00" fill="none" stroke="#000" stroke-width="1.5" stroke-linejoin="round"/>
<text x="240.0" y="236.0" font-size="9" text-anchor="middle" font-weight="bold">判定は計算で</text>
<rect x="346.0" y="92.0" width="98.0" height="64.0" rx="10" fill="none" stroke="#000" stroke-width="1.2"/>
<line x1="370.0" y1="156.0" x2="362.0" y2="170.0" stroke="#000" stroke-width="1.2"/>
<text x="395.0" y="112.0" font-size="9.5" text-anchor="middle" font-weight="bold">用いるもの</text>
<text x="395.0" y="126.0" font-size="9.5" text-anchor="middle">＋</text>
<text x="395.0" y="140.0" font-size="9.5" text-anchor="middle" font-weight="bold">用い方</text>
<text x="395.0" y="190.0" font-size="9" text-anchor="middle">説明は2部品で</text>
<text x="395.0" y="210.0" font-size="9" text-anchor="middle">みなすときは</text>
<text x="395.0" y="223.0" font-size="9" text-anchor="middle">但し書きつき</text>
<text x="240.0" y="276.0" font-size="11" text-anchor="middle">答えられない部屋があったら、その部屋のレッスンに戻ればよい</text>
</svg>
