<svg xmlns="http://www.w3.org/2000/svg" viewBox="0 0 460 306">
<title>二つの表の共通の組（2x＋y＝7 と x＋y＝4 → (3,1)だけ）</title>
<desc>【この図の意図】主概念2の可視化。解の全数列挙と共通組の一意性はassertで検算。【主要な数値・設定】①2x＋y＝7・②x＋y＝4／自然数解を列挙し共通組(3,1)を楕円で強調。【AIに同じ種類の図を描かせるときの説明文】「二つの表の共通の組（2x＋y＝7 と x＋y＝4 → (3,1)だけ）。主概念2の可視化。解の全数列挙と共通組の一意性はassertで検算。数値・設定: ①2x＋y＝7・②x＋y＝4／自然数解を列挙し共通組(3,1)を楕円で強調。白黒印刷向けのシンプルな教材図（SVG）としてかいて。」——この説明文を生成AIに渡せば同型の図を描かせられる。数値を変えれば類題用の図も作れる。</desc>
<!-- L01_fig1_two_tables_common_pair.svg | 二つの表の共通の組（2x＋y＝7 と x＋y＝4 → (3,1)だけ） -->
<!-- generated by assets_provenance/generate_figures.py on 2026-07-18 (docs/SPEC_figures.md準拠・SVG直接編集禁止/スクリプト改修で再生成) -->
<rect x="0" y="0" width="460" height="306" fill="#fff"/>
<text x="208.0" y="34.0" font-size="13" text-anchor="middle" font-weight="bold">① 2x＋y＝7 の解（人数の条件）</text>
<rect x="76.0" y="44.0" width="44.0" height="26.0" fill="#eee" stroke="#000" stroke-width="1.1"/>
<text x="98.0" y="61.5" font-size="13" text-anchor="middle">x</text>
<rect x="76.0" y="70.0" width="44.0" height="26.0" fill="#eee" stroke="#000" stroke-width="1.1"/>
<text x="98.0" y="87.5" font-size="13" text-anchor="middle">y</text>
<rect x="120.0" y="44.0" width="44.0" height="26.0" fill="#fff" stroke="#000" stroke-width="1.1"/>
<rect x="120.0" y="70.0" width="44.0" height="26.0" fill="#fff" stroke="#000" stroke-width="1.1"/>
<text x="142.0" y="61.5" font-size="13" text-anchor="middle">1</text>
<text x="142.0" y="87.5" font-size="13" text-anchor="middle">5</text>
<rect x="164.0" y="44.0" width="44.0" height="26.0" fill="#fff" stroke="#000" stroke-width="1.1"/>
<rect x="164.0" y="70.0" width="44.0" height="26.0" fill="#fff" stroke="#000" stroke-width="1.1"/>
<text x="186.0" y="61.5" font-size="13" text-anchor="middle">2</text>
<text x="186.0" y="87.5" font-size="13" text-anchor="middle">3</text>
<rect x="208.0" y="44.0" width="44.0" height="26.0" fill="#fff" stroke="#000" stroke-width="1.1"/>
<rect x="208.0" y="70.0" width="44.0" height="26.0" fill="#fff" stroke="#000" stroke-width="1.1"/>
<text x="230.0" y="61.5" font-size="13" text-anchor="middle">3</text>
<text x="230.0" y="87.5" font-size="13" text-anchor="middle">1</text>
<polyline points="257.3,70.0 257.2,72.9 256.9,75.8 256.4,78.6 255.6,81.4 254.7,84.1 253.6,86.6 252.3,89.1 250.9,91.4 249.3,93.5 247.5,95.5 245.6,97.3 243.6,98.8 241.5,100.2 239.3,101.3 237.1,102.1 234.7,102.8 232.4,103.2 230.0,103.3 227.6,103.2 225.3,102.8 222.9,102.1 220.7,101.3 218.5,100.2 216.4,98.8 214.4,97.3 212.5,95.5 210.7,93.5 209.1,91.4 207.7,89.1 206.4,86.6 205.3,84.1 204.4,81.4 203.6,78.6 203.1,75.8 202.8,72.9 202.7,70.0 202.8,67.1 203.1,64.2 203.6,61.4 204.4,58.6 205.3,55.9 206.4,53.4 207.7,50.9 209.1,48.6 210.7,46.5 212.5,44.5 214.4,42.7 216.4,41.2 218.5,39.8 220.7,38.7 222.9,37.9 225.3,37.2 227.6,36.8 230.0,36.7 232.4,36.8 234.7,37.2 237.1,37.9 239.3,38.7 241.5,39.8 243.6,41.2 245.6,42.7 247.5,44.5 249.3,46.5 250.9,48.6 252.3,50.9 253.6,53.4 254.7,55.9 255.6,58.6 256.4,61.4 256.9,64.2 257.2,67.1 257.3,70.0" fill="none" stroke="#000" stroke-width="2.2399999999999998"/>
<text x="208.0" y="142.0" font-size="13" text-anchor="middle" font-weight="bold">② x＋y＝4 の解（艘数の条件）</text>
<rect x="76.0" y="152.0" width="44.0" height="26.0" fill="#eee" stroke="#000" stroke-width="1.1"/>
<text x="98.0" y="169.6" font-size="13" text-anchor="middle">x</text>
<rect x="76.0" y="178.0" width="44.0" height="26.0" fill="#eee" stroke="#000" stroke-width="1.1"/>
<text x="98.0" y="195.6" font-size="13" text-anchor="middle">y</text>
<rect x="120.0" y="152.0" width="44.0" height="26.0" fill="#fff" stroke="#000" stroke-width="1.1"/>
<rect x="120.0" y="178.0" width="44.0" height="26.0" fill="#fff" stroke="#000" stroke-width="1.1"/>
<text x="142.0" y="169.6" font-size="13" text-anchor="middle">1</text>
<text x="142.0" y="195.6" font-size="13" text-anchor="middle">3</text>
<rect x="164.0" y="152.0" width="44.0" height="26.0" fill="#fff" stroke="#000" stroke-width="1.1"/>
<rect x="164.0" y="178.0" width="44.0" height="26.0" fill="#fff" stroke="#000" stroke-width="1.1"/>
<text x="186.0" y="169.6" font-size="13" text-anchor="middle">2</text>
<text x="186.0" y="195.6" font-size="13" text-anchor="middle">2</text>
<rect x="208.0" y="152.0" width="44.0" height="26.0" fill="#fff" stroke="#000" stroke-width="1.1"/>
<rect x="208.0" y="178.0" width="44.0" height="26.0" fill="#fff" stroke="#000" stroke-width="1.1"/>
<text x="230.0" y="169.6" font-size="13" text-anchor="middle">3</text>
<text x="230.0" y="195.6" font-size="13" text-anchor="middle">1</text>
<polyline points="257.3,178.0 257.2,180.9 256.9,183.8 256.4,186.6 255.6,189.4 254.7,192.1 253.6,194.6 252.3,197.1 250.9,199.4 249.3,201.5 247.5,203.5 245.6,205.3 243.6,206.8 241.5,208.2 239.3,209.3 237.1,210.1 234.7,210.8 232.4,211.2 230.0,211.3 227.6,211.2 225.3,210.8 222.9,210.1 220.7,209.3 218.5,208.2 216.4,206.8 214.4,205.3 212.5,203.5 210.7,201.5 209.1,199.4 207.7,197.1 206.4,194.6 205.3,192.1 204.4,189.4 203.6,186.6 203.1,183.8 202.8,180.9 202.7,178.0 202.8,175.1 203.1,172.2 203.6,169.4 204.4,166.6 205.3,163.9 206.4,161.4 207.7,158.9 209.1,156.6 210.7,154.5 212.5,152.5 214.4,150.7 216.4,149.2 218.5,147.8 220.7,146.7 222.9,145.9 225.3,145.2 227.6,144.8 230.0,144.7 232.4,144.8 234.7,145.2 237.1,145.9 239.3,146.7 241.5,147.8 243.6,149.2 245.6,150.7 247.5,152.5 249.3,154.5 250.9,156.6 252.3,158.9 253.6,161.4 254.7,163.9 255.6,166.6 256.4,169.4 256.9,172.2 257.2,175.1 257.3,178.0" fill="none" stroke="#000" stroke-width="2.2399999999999998"/>
<rect x="316.0" y="88.0" width="132.0" height="96.0" rx="4" fill="#fff" stroke="#000" stroke-width="1.6"/>
<text x="382.0" y="115.9" font-size="12" text-anchor="middle" font-weight="bold">両方の表に</text>
<text x="382.0" y="132.1" font-size="12" text-anchor="middle">現れる組は</text>
<text x="382.0" y="148.3" font-size="12" text-anchor="middle">(3, 1) ただ1つ</text>
<text x="382.0" y="164.5" font-size="12" text-anchor="middle">＝連立方程式の解</text>
<line x1="260.0" y1="70.0" x2="306.7" y2="109.5" stroke="#000" stroke-width="1.4"/>
<polygon points="312.0,114.0 304.6,111.9 308.7,107.1" fill="#000"/>
<line x1="260.0" y1="178.0" x2="305.3" y2="164.1" stroke="#000" stroke-width="1.4"/>
<polygon points="312.0,162.0 306.2,167.1 304.4,161.0" fill="#000"/>
<text x="230.0" y="272.0" font-size="12" text-anchor="middle">表の同じ列（縦のならび）が1つの解。どちらか一方だけ満たす組は解ではない</text>
<text x="230.0" y="290.0" font-size="12" text-anchor="middle">（x, yは自然数の範囲で列挙——「同時に満たす」で組が1つに絞られる）</text>
</svg>
