<svg xmlns="http://www.w3.org/2000/svg" viewBox="0 0 460 268">
<title>天びん図（A＝B, C＝D なら A＋C＝B＋D）</title>
<desc>【この図の意図】主概念1「辺々の加減」の理由の可視化。記号のみで答えなし。【主要な数値・設定】A＝B・C＝D（斜線＝あとからのせた同じ量の組）／数値組3通りで恒等検算。【AIに同じ種類の図を描かせるときの説明文】「天びん図（A＝B, C＝D なら A＋C＝B＋D）。主概念1「辺々の加減」の理由の可視化。記号のみで答えなし。数値・設定: A＝B・C＝D（斜線＝あとからのせた同じ量の組）／数値組3通りで恒等検算。白黒印刷向けのシンプルな教材図（SVG）としてかいて。」——この説明文を生成AIに渡せば同型の図を描かせられる。数値を変えれば類題用の図も作れる。</desc>
<!-- L02_fig1_balance_add_equals.svg | 天びん図（A＝B, C＝D なら A＋C＝B＋D） -->
<!-- generated by assets_provenance/generate_figures.py on 2026-07-18 (docs/SPEC_figures.md準拠・SVG直接編集禁止/スクリプト改修で再生成) -->
<rect x="0" y="0" width="460" height="268" fill="#fff"/>
<defs><pattern id="h45" width="6" height="6" patternUnits="userSpaceOnUse" patternTransform="rotate(45)"><line x1="0" y1="0" x2="0" y2="6" stroke="#555" stroke-width="1.1"/></pattern><pattern id="h135" width="6" height="6" patternUnits="userSpaceOnUse" patternTransform="rotate(135)"><line x1="0" y1="0" x2="0" y2="6" stroke="#555" stroke-width="1.1"/></pattern></defs><polygon points="105.0,92.0 92.0,150.0 118.0,150.0" fill="#ccc" stroke="#000" stroke-width="1.6"/>
<line x1="27.0" y1="92.0" x2="183.0" y2="92.0" stroke="#000" stroke-width="2.2399999999999998"/>
<line x1="27.0" y1="92.0" x2="27.0" y2="104.0" stroke="#000" stroke-width="1.1"/>
<rect x="4.0" y="104.0" width="46.0" height="24.0" fill="#fff" stroke="#000" stroke-width="1.6"/>
<text x="27.0" y="120.5" font-size="13" text-anchor="middle" font-weight="bold">A</text>
<line x1="183.0" y1="92.0" x2="183.0" y2="104.0" stroke="#000" stroke-width="1.1"/>
<rect x="160.0" y="104.0" width="46.0" height="24.0" fill="#fff" stroke="#000" stroke-width="1.6"/>
<text x="183.0" y="120.5" font-size="13" text-anchor="middle" font-weight="bold">B</text>
<text x="105.0" y="172.0" font-size="12" text-anchor="middle">① A＝B（つり合っている）</text>
<line x1="206.0" y1="58.0" x2="242.0" y2="58.0" stroke="#000" stroke-width="1.6"/>
<polygon points="250.0,58.0 242.0,61.6 242.0,54.4" fill="#000"/>
<text x="228.0" y="40.0" font-size="11" text-anchor="middle">②C＝Dを</text>
<text x="228.0" y="78.0" font-size="10" text-anchor="middle">左にC・右にD</text>
<polygon points="350.0,92.0 337.0,150.0 363.0,150.0" fill="#ccc" stroke="#000" stroke-width="1.6"/>
<line x1="272.0" y1="92.0" x2="428.0" y2="92.0" stroke="#000" stroke-width="2.2399999999999998"/>
<line x1="272.0" y1="92.0" x2="272.0" y2="104.0" stroke="#000" stroke-width="1.1"/>
<rect x="249.0" y="104.0" width="46.0" height="24.0" fill="#fff" stroke="#000" stroke-width="1.6"/>
<text x="272.0" y="120.5" font-size="13" text-anchor="middle" font-weight="bold">A</text>
<rect x="249.0" y="131.0" width="46.0" height="24.0" fill="#fff" stroke="#000" stroke-width="1.6"/>
<rect x="249.0" y="131.0" width="46.0" height="24.0" fill="url(#h45)" stroke="#000" stroke-width="1.6"/>
<text x="272.0" y="147.6" font-size="13" text-anchor="middle" font-weight="bold">C</text>
<line x1="428.0" y1="92.0" x2="428.0" y2="104.0" stroke="#000" stroke-width="1.1"/>
<rect x="405.0" y="104.0" width="46.0" height="24.0" fill="#fff" stroke="#000" stroke-width="1.6"/>
<text x="428.0" y="120.5" font-size="13" text-anchor="middle" font-weight="bold">B</text>
<rect x="405.0" y="131.0" width="46.0" height="24.0" fill="#fff" stroke="#000" stroke-width="1.6"/>
<rect x="405.0" y="131.0" width="46.0" height="24.0" fill="url(#h45)" stroke="#000" stroke-width="1.6"/>
<text x="428.0" y="147.6" font-size="13" text-anchor="middle" font-weight="bold">D</text>
<text x="350.0" y="172.0" font-size="12" text-anchor="middle">A＋C＝B＋D（つり合ったまま）</text>
<text x="230.0" y="216.0" font-size="12" text-anchor="middle">CとDは名札がちがっても中身は同じ量（②C＝D）——だから天びんは崩れない</text>
<text x="230.0" y="236.0" font-size="12" text-anchor="middle">注意: 足すのは左辺どうしと右辺どうしの両方。片側だけにのせると等式が壊れる</text>
</svg>
