<svg xmlns="http://www.w3.org/2000/svg" viewBox="0 0 470 262">
<title>係数をそろえる（②×2→2xがそろい、引いて −y＝−2）</title>
<desc>【この図の意図】主概念1の流れの可視化。解の組は書かずassertで代入検算のみ。【主要な数値・設定】①2x＋3y＝12・②x＋2y＝7・②×2＝2x＋4y＝14／−y＝−2まで本文明示。【AIに同じ種類の図を描かせるときの説明文】「係数をそろえる（②×2→2xがそろい、引いて −y＝−2）。主概念1の流れの可視化。解の組は書かずassertで代入検算のみ。数値・設定: ①2x＋3y＝12・②x＋2y＝7・②×2＝2x＋4y＝14／−y＝−2まで本文明示。白黒印刷向けのシンプルな教材図（SVG）としてかいて。」——この説明文を生成AIに渡せば同型の図を描かせられる。数値を変えれば類題用の図も作れる。</desc>
<!-- L03_fig1_scale_coefficients_then_subtract.svg | 係数をそろえる（②×2→2xがそろい、引いて −y＝−2） -->
<!-- generated by assets_provenance/generate_figures.py on 2026-07-18 (docs/SPEC_figures.md準拠・SVG直接編集禁止/スクリプト改修で再生成) -->
<rect x="0" y="0" width="470" height="262" fill="#fff"/>
<text x="36.0" y="56.0" font-size="13" text-anchor="start">①</text>
<text x="160.0" y="56.0" font-size="16" text-anchor="end">2x＋3y＝12</text>
<text x="36.0" y="92.0" font-size="13" text-anchor="start">②</text>
<text x="160.0" y="92.0" font-size="16" text-anchor="end">x＋2y＝7</text>
<text x="96.0" y="126.0" font-size="11" text-anchor="middle">係数がそろって</text>
<text x="96.0" y="139.0" font-size="11" text-anchor="middle">いない…</text>
<line x1="170.0" y1="88.0" x2="219.0" y2="88.0" stroke="#000" stroke-width="1.4"/>
<polygon points="226.0,88.0 219.0,91.2 219.0,84.8" fill="#000"/>
<text x="198.0" y="76.0" font-size="12" text-anchor="middle" font-weight="bold">②×2</text>
<text x="198.0" y="104.0" font-size="10" text-anchor="middle">右辺も2倍</text>
<text x="258.0" y="66.0" font-size="13" text-anchor="start">①</text>
<text x="380.0" y="66.0" font-size="16" text-anchor="end">2x＋3y＝12</text>
<text x="236.0" y="102.0" font-size="15" text-anchor="middle" font-weight="bold">−)</text>
<text x="262.0" y="102.0" font-size="13" text-anchor="start">②×2</text>
<text x="380.0" y="102.0" font-size="16" text-anchor="end">2x＋4y＝14</text>
<line x1="248" y1="114" x2="388" y2="114" stroke="#000" stroke-width="1.6"/>
<text x="380.0" y="142.0" font-size="16" text-anchor="end" font-weight="bold">−y＝−2</text>
<text x="310.0" y="26.0" font-size="11" text-anchor="middle">2xがそろった！</text>
<text x="310.0" y="39.0" font-size="10" text-anchor="middle">（引けば消える）</text>
<line x1="303.0" y1="44.0" x2="303.0" y2="48.0" stroke="#000" stroke-width="1.1" stroke-dasharray="6 4"/>
<polygon points="303.0,54.0 300.3,48.0 305.7,48.0" fill="#000"/>
<text x="235.0" y="196.0" font-size="12" text-anchor="middle">等式の性質③「両辺に同じ数をかけてよい」で係数をそろえる。</text>
<text x="235.0" y="214.0" font-size="12" text-anchor="middle">宣言の型:「xを消す。係数を2にそろえて、辺々を引く」——同符号どうしなら引く</text>
</svg>
