<svg xmlns="http://www.w3.org/2000/svg" viewBox="0 0 450 240">
<title>代入法の置きかえ図（②のyをx＋3にまるごと置きかえ）</title>
<desc>【この図の意図】主概念1の急所（かっこ付き代入）の可視化。解は書かない。【主要な数値・設定】①y＝x＋3・②x＋2y＝12→x＋2(x＋3)＝12／かっこ有無の差はassertで数値確認。【AIに同じ種類の図を描かせるときの説明文】「代入法の置きかえ図（②のyをx＋3にまるごと置きかえ）。主概念1の急所（かっこ付き代入）の可視化。解は書かない。数値・設定: ①y＝x＋3・②x＋2y＝12→x＋2(x＋3)＝12／かっこ有無の差はassertで数値確認。白黒印刷向けのシンプルな教材図（SVG）としてかいて。」——この説明文を生成AIに渡せば同型の図を描かせられる。数値を変えれば類題用の図も作れる。</desc>
<!-- L04_fig1_substitution_replace_with_parentheses.svg | 代入法の置きかえ図（②のyをx＋3にまるごと置きかえ） -->
<!-- generated by assets_provenance/generate_figures.py on 2026-07-18 (docs/SPEC_figures.md準拠・SVG直接編集禁止/スクリプト改修で再生成) -->
<rect x="0" y="0" width="450" height="240" fill="#fff"/>
<text x="60.0" y="52.0" font-size="13" text-anchor="start">①</text>
<text x="96.0" y="52.0" font-size="17" text-anchor="start" font-weight="bold">y＝x＋3</text>
<polyline points="165.0,47.0 164.9,48.4 164.6,49.8 164.1,51.1 163.5,52.5 162.7,53.8 161.7,55.0 160.5,56.2 159.2,57.3 157.7,58.3 156.1,59.3 154.3,60.1 152.5,60.9 150.6,61.5 148.6,62.0 146.5,62.5 144.3,62.8 142.2,62.9 140.0,63.0 137.8,62.9 135.7,62.8 133.5,62.5 131.4,62.0 129.4,61.5 127.5,60.9 125.7,60.1 123.9,59.3 122.3,58.3 120.8,57.3 119.5,56.2 118.3,55.0 117.3,53.8 116.5,52.5 115.9,51.1 115.4,49.8 115.1,48.4 115.0,47.0 115.1,45.6 115.4,44.2 115.9,42.9 116.5,41.5 117.3,40.2 118.3,39.0 119.5,37.8 120.8,36.7 122.3,35.7 123.9,34.7 125.7,33.9 127.5,33.1 129.4,32.5 131.4,32.0 133.5,31.5 135.7,31.2 137.8,31.1 140.0,31.0 142.2,31.1 144.3,31.2 146.5,31.5 148.6,32.0 150.6,32.5 152.5,33.1 154.3,33.9 156.1,34.7 157.7,35.7 159.2,36.7 160.5,37.8 161.7,39.0 162.7,40.2 163.5,41.5 164.1,42.9 164.6,44.2 164.9,45.6 165.0,47.0" fill="none" stroke="#000" stroke-width="1.1" stroke-dasharray="6 4"/>
<text x="226.0" y="47.0" font-size="11" text-anchor="start">「yはx＋3と同じもの」</text>
<text x="60.0" y="110.0" font-size="13" text-anchor="start">②</text>
<text x="96.0" y="110.0" font-size="17" text-anchor="start">x＋2</text>
<rect x="140.0" y="94.0" width="26.0" height="24.0" rx="3" fill="#eee" stroke="#000" stroke-width="1.6"/>
<text x="153.0" y="111.0" font-size="17" text-anchor="middle" font-weight="bold">y</text>
<text x="170.0" y="110.0" font-size="17" text-anchor="start">＝12</text>
<line x1="142.0" y1="64.0" x2="149.1" y2="82.5" stroke="#000" stroke-width="1.6"/>
<polygon points="152.0,90.0 145.8,83.8 152.5,81.2" fill="#000"/>
<text x="196.0" y="80.0" font-size="11" text-anchor="start">まるごと置きかえ</text>
<line x1="130.0" y1="128.0" x2="130.0" y2="145.0" stroke="#000" stroke-width="1.4"/>
<polygon points="130.0,152.0 126.8,145.0 133.2,145.0" fill="#000"/>
<text x="96.0" y="174.0" font-size="17" text-anchor="start" font-weight="bold">x＋2(x＋3)＝12</text>
<polyline points="184.0,169.0 183.9,170.4 183.6,171.8 183.0,173.1 182.3,174.5 181.3,175.8 180.1,177.0 178.8,178.2 177.2,179.3 175.5,180.3 173.6,181.3 171.6,182.1 169.5,182.9 167.3,183.5 164.9,184.0 162.5,184.5 160.0,184.8 157.5,184.9 155.0,185.0 152.5,184.9 150.0,184.8 147.5,184.5 145.1,184.0 142.7,183.5 140.5,182.9 138.4,182.1 136.4,181.3 134.5,180.3 132.8,179.3 131.2,178.2 129.9,177.0 128.7,175.8 127.7,174.5 127.0,173.1 126.4,171.8 126.1,170.4 126.0,169.0 126.1,167.6 126.4,166.2 127.0,164.9 127.7,163.5 128.7,162.2 129.9,161.0 131.2,159.8 132.8,158.7 134.5,157.7 136.4,156.7 138.4,155.9 140.5,155.1 142.7,154.5 145.1,154.0 147.5,153.5 150.0,153.2 152.5,153.1 155.0,153.0 157.5,153.1 160.0,153.2 162.5,153.5 164.9,154.0 167.3,154.5 169.5,155.1 171.6,155.9 173.6,156.7 175.5,157.7 177.2,158.7 178.8,159.8 180.1,161.0 181.3,162.2 182.3,163.5 183.0,164.9 183.6,166.2 183.9,167.6 184.0,169.0" fill="none" stroke="#000" stroke-width="1.1" stroke-dasharray="6 4"/>
<text x="250.0" y="160.0" font-size="11" text-anchor="start">急所: 必ずかっこ付きで。</text>
<text x="250.0" y="174.0" font-size="11" text-anchor="start">2×x＋3 と書くと「全体の2倍」が</text>
<text x="250.0" y="188.0" font-size="11" text-anchor="start">「xだけ2倍」に化けてしまう</text>
<text x="225.0" y="218.0" font-size="12" text-anchor="middle">文字が1つ消えて一元一次方程式に帰着——ちがうのは消し方だけ</text>
</svg>
