<svg xmlns="http://www.w3.org/2000/svg" viewBox="0 0 480 330">
<title>帰着の見取図（4つの型→基本の形→いつもの解き方）</title>
<desc>【この図の意図】主概念（整理して基本の形へ）の地図。各型の例の解は書かない。【主要な数値・設定】型1〜4の例式は本文と同一／変形の同値性と各解はassertでのみ検算。【AIに同じ種類の図を描かせるときの説明文】「帰着の見取図（4つの型→基本の形→いつもの解き方）。主概念（整理して基本の形へ）の地図。各型の例の解は書かない。数値・設定: 型1〜4の例式は本文と同一／変形の同値性と各解はassertでのみ検算。白黒印刷向けのシンプルな教材図（SVG）としてかいて。」——この説明文を生成AIに渡せば同型の図を描かせられる。数値を変えれば類題用の図も作れる。</desc>
<!-- L05_fig1_reduce_to_basic_form.svg | 帰着の見取図（4つの型→基本の形→いつもの解き方） -->
<!-- generated by assets_provenance/generate_figures.py on 2026-07-18 (docs/SPEC_figures.md準拠・SVG直接編集禁止/スクリプト改修で再生成) -->
<rect x="0" y="0" width="480" height="330" fill="#fff"/>
<rect x="10.0" y="20.0" width="112.0" height="74.0" rx="4" fill="#fff" stroke="#000" stroke-width="1.6"/>
<text x="66.0" y="46.5" font-size="10.5" text-anchor="middle" font-weight="bold">型1 かっこ</text>
<text x="66.0" y="60.7" font-size="10.5" text-anchor="middle">2(x＋y)−y＝9</text>
<text x="66.0" y="74.9" font-size="10.5" text-anchor="middle">→展開して整理</text>
<rect x="130.0" y="20.0" width="112.0" height="74.0" rx="4" fill="#fff" stroke="#000" stroke-width="1.6"/>
<text x="186.0" y="46.5" font-size="10.5" text-anchor="middle" font-weight="bold">型2 小数</text>
<text x="186.0" y="60.7" font-size="10.5" text-anchor="middle">0.5x＋0.2y＝1.9</text>
<text x="186.0" y="74.9" font-size="10.5" text-anchor="middle">→両辺を10倍</text>
<rect x="250.0" y="20.0" width="112.0" height="74.0" rx="4" fill="#fff" stroke="#000" stroke-width="1.6"/>
<text x="306.0" y="46.5" font-size="10.5" text-anchor="middle" font-weight="bold">型3 分数</text>
<text x="306.0" y="60.7" font-size="10.5" text-anchor="middle">x/2＋y/3＝4</text>
<text x="306.0" y="74.9" font-size="10.5" text-anchor="middle">→両辺を6倍</text>
<rect x="370.0" y="20.0" width="104.0" height="74.0" rx="4" fill="#fff" stroke="#000" stroke-width="1.6"/>
<text x="422.0" y="46.5" font-size="10.5" text-anchor="middle" font-weight="bold">型4 A＝B＝C</text>
<text x="422.0" y="60.7" font-size="10.5" text-anchor="middle">2x＋y＝x＋3y＝10</text>
<text x="422.0" y="74.9" font-size="10.5" text-anchor="middle">→2本に分解</text>
<rect x="140.0" y="160.0" width="200.0" height="52.0" rx="4" fill="#fff" stroke="#000" stroke-width="1.92"/>
<text x="240.0" y="181.8" font-size="13" text-anchor="middle" font-weight="bold">基本の形</text>
<text x="240.0" y="199.3" font-size="13" text-anchor="middle">ax＋by＝c が2本</text>
<line x1="66.0" y1="96.0" x2="184.1" y2="153.0" stroke="#000" stroke-width="1.4"/>
<polygon points="190.4,156.0 182.8,155.8 185.5,150.1" fill="#000"/>
<line x1="186.0" y1="96.0" x2="220.3" y2="150.1" stroke="#000" stroke-width="1.4"/>
<polygon points="224.0,156.0 217.6,151.8 223.0,148.4" fill="#000"/>
<line x1="306.0" y1="96.0" x2="262.0" y2="150.5" stroke="#000" stroke-width="1.4"/>
<polygon points="257.6,156.0 259.6,148.6 264.5,152.5" fill="#000"/>
<line x1="422.0" y1="96.0" x2="297.6" y2="153.1" stroke="#000" stroke-width="1.4"/>
<polygon points="291.2,156.0 296.3,150.2 298.9,155.9" fill="#000"/>
<text x="240.0" y="138.0" font-size="11" text-anchor="middle">整理して戻す（右辺も同じ数をかける・その式の両辺だけ）</text>
<line x1="240.0" y1="216.0" x2="240.0" y2="240.0" stroke="#000" stroke-width="1.6"/>
<polygon points="240.0,248.0 236.4,240.0 243.6,240.0" fill="#000"/>
<rect x="140.0" y="252.0" width="200.0" height="40.0" rx="4" fill="#fff" stroke="#000" stroke-width="1.6"/>
<text x="240.0" y="268.1" font-size="12" text-anchor="middle" font-weight="bold">あとはいつもどおり</text>
<text x="240.0" y="284.3" font-size="12" text-anchor="middle">加減法・代入法（L02〜L04）</text>
<text x="240.0" y="310.0" font-size="12" text-anchor="middle">新しい解き方はゼロ——「知らない見た目→知っている形に戻す」</text>
<text x="240.0" y="326.0" font-size="12" text-anchor="middle">（検算は変形前の元の式で）</text>
</svg>
