<svg xmlns="http://www.w3.org/2000/svg" viewBox="0 0 560 260">
<title>数量の表→式2本（個数の行と代金の行がそのまま式になる）</title>
<desc>【この図の意図】主概念1ステップ2の可視化。解（それぞれの個数）は書かない。【主要な数値・設定】80円×x本・120円×y個・合計10個・920円（本文と同一）／解はassertのみ。【AIに同じ種類の図を描かせるときの説明文】「数量の表→式2本（個数の行と代金の行がそのまま式になる）。主概念1ステップ2の可視化。解（それぞれの個数）は書かない。数値・設定: 80円×x本・120円×y個・合計10個・920円（本文と同一）／解はassertのみ。白黒印刷向けのシンプルな教材図（SVG）としてかいて。」——この説明文を生成AIに渡せば同型の図を描かせられる。数値を変えれば類題用の図も作れる。</desc>
<!-- L06_fig1_table_to_two_equations.svg | 数量の表→式2本（個数の行と代金の行がそのまま式になる） -->
<!-- generated by assets_provenance/generate_figures.py on 2026-07-18 (docs/SPEC_figures.md準拠・SVG直接編集禁止/スクリプト改修で再生成) -->
<rect x="0" y="0" width="560" height="260" fill="#fff"/>
<rect x="48.0" y="46.0" width="74.0" height="30.0" fill="#fff" stroke="#000" stroke-width="1.1"/>
<rect x="122.0" y="46.0" width="74.0" height="30.0" fill="#eee" stroke="#000" stroke-width="1.1"/>
<text x="159.0" y="65.5" font-size="13" text-anchor="middle">飲み物</text>
<rect x="196.0" y="46.0" width="74.0" height="30.0" fill="#eee" stroke="#000" stroke-width="1.1"/>
<text x="233.0" y="65.5" font-size="13" text-anchor="middle">パン</text>
<rect x="270.0" y="46.0" width="74.0" height="30.0" fill="#eee" stroke="#000" stroke-width="1.1"/>
<text x="307.0" y="65.5" font-size="13" text-anchor="middle">合計</text>
<rect x="48.0" y="76.0" width="74.0" height="30.0" fill="#eee" stroke="#000" stroke-width="1.1"/>
<text x="85.0" y="95.5" font-size="11.5" text-anchor="middle">個数（個）</text>
<rect x="122.0" y="76.0" width="74.0" height="30.0" fill="#fff" stroke="#000" stroke-width="1.1"/>
<text x="159.0" y="95.5" font-size="13" text-anchor="middle">x</text>
<rect x="196.0" y="76.0" width="74.0" height="30.0" fill="#fff" stroke="#000" stroke-width="1.1"/>
<text x="233.0" y="95.5" font-size="13" text-anchor="middle">y</text>
<rect x="270.0" y="76.0" width="74.0" height="30.0" fill="#fff" stroke="#000" stroke-width="1.1"/>
<text x="307.0" y="95.5" font-size="13" text-anchor="middle">10</text>
<rect x="48.0" y="106.0" width="74.0" height="30.0" fill="#eee" stroke="#000" stroke-width="1.1"/>
<text x="85.0" y="125.5" font-size="11.5" text-anchor="middle">代金（円）</text>
<rect x="122.0" y="106.0" width="74.0" height="30.0" fill="#fff" stroke="#000" stroke-width="1.1"/>
<text x="159.0" y="125.5" font-size="13" text-anchor="middle">80x</text>
<rect x="196.0" y="106.0" width="74.0" height="30.0" fill="#fff" stroke="#000" stroke-width="1.1"/>
<text x="233.0" y="125.5" font-size="13" text-anchor="middle">120y</text>
<rect x="270.0" y="106.0" width="74.0" height="30.0" fill="#fff" stroke="#000" stroke-width="1.1"/>
<text x="307.0" y="125.5" font-size="13" text-anchor="middle">920</text>
<line x1="352.0" y1="91.0" x2="379.0" y2="91.0" stroke="#000" stroke-width="1.4"/>
<polygon points="386.0,91.0 379.0,94.2 379.0,87.8" fill="#000"/>
<text x="392.0" y="95.5" font-size="13.5" text-anchor="start" font-weight="bold">x＋y＝10</text>
<line x1="352.0" y1="121.0" x2="379.0" y2="121.0" stroke="#000" stroke-width="1.4"/>
<polygon points="386.0,121.0 379.0,124.2 379.0,117.8" fill="#000"/>
<text x="392.0" y="125.5" font-size="13.5" text-anchor="start" font-weight="bold">80x＋120y＝920</text>
<text x="66.0" y="178.0" font-size="11" text-anchor="start">「飲み物をx本、パンをy個とする」（ステップ1の宣言）</text>
<text x="280.0" y="210.0" font-size="12" text-anchor="middle">表の行ごとに式ができる——単位ごとに行を作ると「個数と円を足す」事故が防げる</text>
<text x="280.0" y="228.0" font-size="12" text-anchor="middle">（1本80円の飲み物と1個120円のパンをあわせて10個・代金920円の場面）</text>
</svg>
