<svg xmlns="http://www.w3.org/2000/svg" viewBox="0 0 480 342">
<title>「消して戻す」作戦の地図（2つの消し方が一元一次方程式に合流）</title>
<desc>【この図の意図】章末のふり返り地図。総合演習の答は書かずassertで両解法一致を検算。【主要な数値・設定】検算=総合演習1(1)(2)（代入法・加減法の一致）＋S1の係数比2倍。【AIに同じ種類の図を描かせるときの説明文】「「消して戻す」作戦の地図（2つの消し方が一元一次方程式に合流）。章末のふり返り地図。総合演習の答は書かずassertで両解法一致を検算。数値・設定: 検算=総合演習1(1)(2)（代入法・加減法の一致）＋S1の係数比2倍。白黒印刷向けのシンプルな教材図（SVG）としてかいて。」——この説明文を生成AIに渡せば同型の図を描かせられる。数値を変えれば類題用の図も作れる。</desc>
<!-- L08_fig1_elimination_reduction_map.svg | 「消して戻す」作戦の地図（2つの消し方が一元一次方程式に合流） -->
<!-- generated by assets_provenance/generate_figures.py on 2026-07-18 (docs/SPEC_figures.md準拠・SVG直接編集禁止/スクリプト改修で再生成) -->
<rect x="0" y="0" width="480" height="342" fill="#fff"/>
<rect x="150.0" y="14.0" width="180.0" height="46.0" rx="4" fill="#fff" stroke="#000" stroke-width="1.6"/>
<text x="240.0" y="33.1" font-size="12" text-anchor="middle" font-weight="bold">連立方程式</text>
<text x="240.0" y="49.3" font-size="12" text-anchor="middle">（文字が2つ・式が2本）</text>
<rect x="56.0" y="110.0" width="152.0" height="50.0" rx="4" fill="#fff" stroke="#000" stroke-width="1.6"/>
<text x="132.0" y="131.4" font-size="11" text-anchor="middle" font-weight="bold">加減法（L02〜L03）</text>
<text x="132.0" y="146.3" font-size="11" text-anchor="middle">そろえて、打ち消して消す</text>
<rect x="272.0" y="110.0" width="152.0" height="50.0" rx="4" fill="#fff" stroke="#000" stroke-width="1.6"/>
<text x="348.0" y="131.4" font-size="11" text-anchor="middle" font-weight="bold">代入法（L04）</text>
<text x="348.0" y="146.3" font-size="11" text-anchor="middle">まるごと置きかえて消す</text>
<line x1="200.0" y1="62.0" x2="145.6" y2="101.9" stroke="#000" stroke-width="1.4"/>
<polygon points="140.0,106.0 143.8,99.3 147.5,104.4" fill="#000"/>
<line x1="280.0" y1="62.0" x2="334.4" y2="101.9" stroke="#000" stroke-width="1.4"/>
<polygon points="340.0,106.0 332.5,104.4 336.2,99.3" fill="#000"/>
<text x="240.0" y="92.0" font-size="11" text-anchor="middle">文字を1つ消す（どちらでも答えは同じ）</text>
<rect x="150.0" y="208.0" width="180.0" height="46.0" rx="4" fill="#fff" stroke="#000" stroke-width="1.92"/>
<text x="240.0" y="227.1" font-size="12" text-anchor="middle" font-weight="bold">一元一次方程式</text>
<text x="240.0" y="243.3" font-size="12" text-anchor="middle">（中1で解ける形に帰着）</text>
<line x1="132.0" y1="164.0" x2="203.8" y2="200.8" stroke="#000" stroke-width="1.4"/>
<polygon points="210.0,204.0 202.3,203.6 205.2,198.0" fill="#000"/>
<line x1="348.0" y1="164.0" x2="276.2" y2="200.8" stroke="#000" stroke-width="1.4"/>
<polygon points="270.0,204.0 274.8,198.0 277.7,203.6" fill="#000"/>
<line x1="240.0" y1="258.0" x2="240.0" y2="277.0" stroke="#000" stroke-width="1.4"/>
<polygon points="240.0,284.0 236.8,277.0 243.2,277.0" fill="#000"/>
<rect x="96.0" y="288.0" width="288.0" height="34.0" rx="4" fill="#fff" stroke="#000" stroke-width="1.6"/>
<text x="240.0" y="308.9" font-size="11" text-anchor="middle">解（組）→ 代入検算・場面に戻して吟味（利用の4ステップ）</text>
<rect x="348.0" y="214.0" width="124.0" height="62.0" rx="4" fill="#fff" stroke="#000" stroke-width="1.1" stroke-dasharray="6 4"/>
<text x="410.0" y="234.5" font-size="10.5" text-anchor="middle" font-weight="bold">中3 二次方程式</text>
<text x="410.0" y="248.7" font-size="10.5" text-anchor="middle">「次数を減らして」</text>
<text x="410.0" y="262.9" font-size="10.5" text-anchor="middle">同じ作戦で帰着</text>
<line x1="410.0" y1="210.0" x2="341.6" y2="237.7" stroke="#000" stroke-width="1.1" stroke-dasharray="6 4"/>
<polygon points="336.0,240.0 340.5,235.2 342.6,240.2" fill="#000"/>
<text x="240.0" y="336.0" font-size="12" text-anchor="middle">「消して戻す」——この章の背骨。文字の種類を減らして、解ける形に帰る</text>
</svg>
