<svg xmlns="http://www.w3.org/2000/svg" viewBox="0 0 428 172">
<title>1辺1〜4cmの正方形——まわりの長さと面積</title>
<desc>【この図の意図】同じ正方形から「まわり=4x」「面積=x²」という2つのちがう増え方が生まれることを見せる導入図。【主要な数値・設定】1辺=1,2,3,4cm／まわり=4x／面積=x²（内部を1cm²方眼で区切り）。【AIに同じ種類の図を描かせるときの説明文】「1辺1〜4cmの正方形——まわりの長さと面積。同じ正方形から「まわり=4x」「面積=x²」という2つのちがう増え方が生まれることを見せる導入図。数値・設定: 1辺=1,2,3,4cm／まわり=4x／面積=x²（内部を1cm²方眼で区切り）。白黒印刷向けのシンプルな教材図（SVG）としてかいて。」——この説明文を生成AIに渡せば同型の図を描かせられる。数値を変えれば類題用の図も作れる。</desc>
<!-- L01_fig1_growing_squares.svg | 1辺1〜4cmの正方形——まわりの長さと面積 -->
<!-- generated by assets_provenance/generate_figures.py on 2026-07-17 (docs/SPEC_figures.md準拠（内部規約の要旨は同SPECに反映済み）・SVG直接編集禁止/スクリプト改修で再生成) -->
<rect x="0" y="0" width="428" height="172" fill="#fff"/>
<rect x="24.0" y="94.0" width="26.0" height="26.0" fill="none" stroke="#000" stroke-width="1.6"/>
<text x="37.0" y="89.0" font-size="11" text-anchor="middle">1辺1cm</text>
<text x="37.0" y="138.0" font-size="12" text-anchor="middle">まわり4cm</text>
<text x="37.0" y="154.0" font-size="12" text-anchor="middle">面積1cm²</text>
<rect x="90.0" y="68.0" width="52.0" height="52.0" fill="none" stroke="#000" stroke-width="1.6"/>
<line x1="116.0" y1="68.0" x2="116.0" y2="120.0" stroke="#bbb" stroke-width="0.8"/>
<line x1="90.0" y1="94.0" x2="142.0" y2="94.0" stroke="#bbb" stroke-width="0.8"/>
<text x="116.0" y="63.0" font-size="11" text-anchor="middle">1辺2cm</text>
<text x="116.0" y="138.0" font-size="12" text-anchor="middle">まわり8cm</text>
<text x="116.0" y="154.0" font-size="12" text-anchor="middle">面積4cm²</text>
<rect x="182.0" y="42.0" width="78.0" height="78.0" fill="none" stroke="#000" stroke-width="1.6"/>
<line x1="208.0" y1="42.0" x2="208.0" y2="120.0" stroke="#bbb" stroke-width="0.8"/>
<line x1="182.0" y1="68.0" x2="260.0" y2="68.0" stroke="#bbb" stroke-width="0.8"/>
<line x1="234.0" y1="42.0" x2="234.0" y2="120.0" stroke="#bbb" stroke-width="0.8"/>
<line x1="182.0" y1="94.0" x2="260.0" y2="94.0" stroke="#bbb" stroke-width="0.8"/>
<text x="221.0" y="37.0" font-size="11" text-anchor="middle">1辺3cm</text>
<text x="221.0" y="138.0" font-size="12" text-anchor="middle">まわり12cm</text>
<text x="221.0" y="154.0" font-size="12" text-anchor="middle">面積9cm²</text>
<rect x="300.0" y="16.0" width="104.0" height="104.0" fill="none" stroke="#000" stroke-width="1.6"/>
<line x1="326.0" y1="16.0" x2="326.0" y2="120.0" stroke="#bbb" stroke-width="0.8"/>
<line x1="300.0" y1="42.0" x2="404.0" y2="42.0" stroke="#bbb" stroke-width="0.8"/>
<line x1="352.0" y1="16.0" x2="352.0" y2="120.0" stroke="#bbb" stroke-width="0.8"/>
<line x1="300.0" y1="68.0" x2="404.0" y2="68.0" stroke="#bbb" stroke-width="0.8"/>
<line x1="378.0" y1="16.0" x2="378.0" y2="120.0" stroke="#bbb" stroke-width="0.8"/>
<line x1="300.0" y1="94.0" x2="404.0" y2="94.0" stroke="#bbb" stroke-width="0.8"/>
<text x="352.0" y="11.0" font-size="11" text-anchor="middle">1辺4cm</text>
<text x="352.0" y="138.0" font-size="12" text-anchor="middle">まわり16cm</text>
<text x="352.0" y="154.0" font-size="12" text-anchor="middle">面積16cm²</text>
</svg>
