<svg xmlns="http://www.w3.org/2000/svg" viewBox="0 0 380 339">
<title>y=x²の表の7点を打っただけの図（結ばない）</title>
<desc>【この図の意図】graph-as-picture対策——グラフは形の絵ではなく対応(x,y)の点の集まりだと見せる第1段。【主要な数値・設定】7点=(−3,9)〜(3,9)／例示列(2,4)→点(2,4)へ矢印／曲線・折れ線なし。【AIに同じ種類の図を描かせるときの説明文】「y=x²の表の7点を打っただけの図（結ばない）。graph-as-picture対策——グラフは形の絵ではなく対応(x,y)の点の集まりだと見せる第1段。数値・設定: 7点=(−3,9)〜(3,9)／例示列(2,4)→点(2,4)へ矢印／曲線・折れ線なし。白黒印刷向けのシンプルな教材図（SVG）としてかいて。」——この説明文を生成AIに渡せば同型の図を描かせられる。数値を変えれば類題用の図も作れる。</desc>
<!-- L04_fig1_seven_points.svg | y=x²の表の7点を打っただけの図（結ばない） -->
<!-- generated by assets_provenance/generate_figures.py on 2026-07-17 (docs/SPEC_figures.md準拠（内部規約の要旨は同SPECに反映済み）・SVG直接編集禁止/スクリプト改修で再生成) -->
<rect x="0" y="0" width="380" height="339" fill="#fff"/>
<line x1="36.0" y1="286.0" x2="253.0" y2="286.0" stroke="#000" stroke-width="1.2"/>
<polygon points="260.0,286.0 253.0,289.1 253.0,282.9" fill="#000"/>
<line x1="144.0" y1="313.0" x2="144.0" y2="15.0" stroke="#000" stroke-width="1.2"/>
<polygon points="144.0,8.0 147.2,15.0 140.8,15.0" fill="#000"/>
<text x="262.0" y="290.5" font-size="13" text-anchor="start">x</text>
<text x="151.0" y="10.0" font-size="13" text-anchor="start">y</text>
<line x1="36.0" y1="283.0" x2="36.0" y2="289.0" stroke="#000" stroke-width="1.0"/>
<line x1="63.0" y1="283.0" x2="63.0" y2="289.0" stroke="#000" stroke-width="1.0"/>
<line x1="90.0" y1="283.0" x2="90.0" y2="289.0" stroke="#000" stroke-width="1.0"/>
<line x1="117.0" y1="283.0" x2="117.0" y2="289.0" stroke="#000" stroke-width="1.0"/>
<line x1="171.0" y1="283.0" x2="171.0" y2="289.0" stroke="#000" stroke-width="1.0"/>
<line x1="198.0" y1="283.0" x2="198.0" y2="289.0" stroke="#000" stroke-width="1.0"/>
<line x1="225.0" y1="283.0" x2="225.0" y2="289.0" stroke="#000" stroke-width="1.0"/>
<line x1="252.0" y1="283.0" x2="252.0" y2="289.0" stroke="#000" stroke-width="1.0"/>
<line x1="141.0" y1="313.0" x2="147.0" y2="313.0" stroke="#000" stroke-width="1.0"/>
<line x1="141.0" y1="259.0" x2="147.0" y2="259.0" stroke="#000" stroke-width="1.0"/>
<line x1="141.0" y1="232.0" x2="147.0" y2="232.0" stroke="#000" stroke-width="1.0"/>
<line x1="141.0" y1="205.0" x2="147.0" y2="205.0" stroke="#000" stroke-width="1.0"/>
<line x1="141.0" y1="178.0" x2="147.0" y2="178.0" stroke="#000" stroke-width="1.0"/>
<line x1="141.0" y1="151.0" x2="147.0" y2="151.0" stroke="#000" stroke-width="1.0"/>
<line x1="141.0" y1="124.0" x2="147.0" y2="124.0" stroke="#000" stroke-width="1.0"/>
<line x1="141.0" y1="97.0" x2="147.0" y2="97.0" stroke="#000" stroke-width="1.0"/>
<line x1="141.0" y1="70.0" x2="147.0" y2="70.0" stroke="#000" stroke-width="1.0"/>
<line x1="141.0" y1="43.0" x2="147.0" y2="43.0" stroke="#000" stroke-width="1.0"/>
<line x1="141.0" y1="16.0" x2="147.0" y2="16.0" stroke="#000" stroke-width="1.0"/>
<text x="36.0" y="300.0" font-size="11" text-anchor="middle">−4</text>
<text x="90.0" y="300.0" font-size="11" text-anchor="middle">−2</text>
<text x="198.0" y="300.0" font-size="11" text-anchor="middle">2</text>
<text x="252.0" y="300.0" font-size="11" text-anchor="middle">4</text>
<text x="138.0" y="235.8" font-size="11" text-anchor="end">2</text>
<text x="138.0" y="181.8" font-size="11" text-anchor="end">4</text>
<text x="138.0" y="127.8" font-size="11" text-anchor="end">6</text>
<text x="138.0" y="73.8" font-size="11" text-anchor="end">8</text>
<text x="138.0" y="19.9" font-size="11" text-anchor="end">10</text>
<text x="139.0" y="300.0" font-size="11" text-anchor="end">O</text>
<circle cx="63.0" cy="43.0" r="3.0" fill="#000"/>
<circle cx="90.0" cy="178.0" r="3.0" fill="#000"/>
<circle cx="117.0" cy="259.0" r="3.0" fill="#000"/>
<circle cx="144.0" cy="286.0" r="3.0" fill="#000"/>
<circle cx="171.0" cy="259.0" r="3.0" fill="#000"/>
<circle cx="198.0" cy="178.0" r="3.0" fill="#000"/>
<circle cx="225.0" cy="43.0" r="3.0" fill="#000"/>
<rect x="278.0" y="70.0" width="26" height="22" fill="#eee" stroke="#000" stroke-width="1.0"/>
<rect x="304.0" y="70.0" width="26" height="22" fill="none" stroke="#000" stroke-width="1.0"/>
<text x="291.0" y="85.5" font-size="12" text-anchor="middle">x</text>
<text x="317.0" y="85.5" font-size="12" text-anchor="middle">2</text>
<rect x="278.0" y="92.0" width="26" height="22" fill="#eee" stroke="#000" stroke-width="1.0"/>
<rect x="304.0" y="92.0" width="26" height="22" fill="none" stroke="#000" stroke-width="1.0"/>
<text x="291.0" y="107.5" font-size="12" text-anchor="middle">y</text>
<text x="317.0" y="107.5" font-size="12" text-anchor="middle">4</text>
<text x="304.0" y="62.0" font-size="11" text-anchor="middle">表の1列</text>
<line x1="274.0" y1="92.0" x2="210.5" y2="166.7" stroke="#000" stroke-width="1.3"/>
<polygon points="206.0,172.0 208.1,164.6 212.9,168.7" fill="#000"/>
<text x="304.0" y="132.0" font-size="12" text-anchor="middle" font-weight="bold">表の1列＝</text>
<text x="304.0" y="147.0" font-size="12" text-anchor="middle" font-weight="bold">グラフの1点</text>
</svg>
