<svg xmlns="http://www.w3.org/2000/svg" viewBox="0 0 276 420">
<title>y=x²とy=−x²——x軸対称</title>
<desc>【この図の意図】aの符号でグラフの開く向きが逆になり、2曲線がx軸対称の位置に来ることを見せる。【主要な数値・設定】通過点±(x,x²) x=−3..3／破線(2,4)-(2,−4)／式ラベル2つ。【AIに同じ種類の図を描かせるときの説明文】「y=x²とy=−x²——x軸対称。aの符号でグラフの開く向きが逆になり、2曲線がx軸対称の位置に来ることを見せる。数値・設定: 通過点±(x,x²) x=−3..3／破線(2,4)-(2,−4)／式ラベル2つ。白黒印刷向けのシンプルな教材図（SVG）としてかいて。」——この説明文を生成AIに渡せば同型の図を描かせられる。数値を変えれば類題用の図も作れる。</desc>
<!-- L05_fig1_axis_symmetry.svg | y=x²とy=−x²——x軸対称 -->
<!-- generated by assets_provenance/generate_figures.py on 2026-07-17 (docs/SPEC_figures.md準拠（内部規約の要旨は同SPECに反映済み）・SVG直接編集禁止/スクリプト改修で再生成) -->
<rect x="0" y="0" width="276" height="420" fill="#fff"/>
<line x1="40.0" y1="205.0" x2="233.0" y2="205.0" stroke="#000" stroke-width="1.2"/>
<polygon points="240.0,205.0 233.0,208.2 233.0,201.8" fill="#000"/>
<line x1="136.0" y1="394.0" x2="136.0" y2="15.0" stroke="#000" stroke-width="1.2"/>
<polygon points="136.0,8.0 139.2,15.0 132.8,15.0" fill="#000"/>
<text x="242.0" y="209.5" font-size="13" text-anchor="start">x</text>
<text x="143.0" y="10.0" font-size="13" text-anchor="start">y</text>
<line x1="40.0" y1="202.0" x2="40.0" y2="208.0" stroke="#000" stroke-width="1.0"/>
<line x1="64.0" y1="202.0" x2="64.0" y2="208.0" stroke="#000" stroke-width="1.0"/>
<line x1="88.0" y1="202.0" x2="88.0" y2="208.0" stroke="#000" stroke-width="1.0"/>
<line x1="112.0" y1="202.0" x2="112.0" y2="208.0" stroke="#000" stroke-width="1.0"/>
<line x1="160.0" y1="202.0" x2="160.0" y2="208.0" stroke="#000" stroke-width="1.0"/>
<line x1="184.0" y1="202.0" x2="184.0" y2="208.0" stroke="#000" stroke-width="1.0"/>
<line x1="208.0" y1="202.0" x2="208.0" y2="208.0" stroke="#000" stroke-width="1.0"/>
<line x1="232.0" y1="202.0" x2="232.0" y2="208.0" stroke="#000" stroke-width="1.0"/>
<line x1="133.0" y1="394.0" x2="139.0" y2="394.0" stroke="#000" stroke-width="1.0"/>
<line x1="133.0" y1="373.0" x2="139.0" y2="373.0" stroke="#000" stroke-width="1.0"/>
<line x1="133.0" y1="352.0" x2="139.0" y2="352.0" stroke="#000" stroke-width="1.0"/>
<line x1="133.0" y1="331.0" x2="139.0" y2="331.0" stroke="#000" stroke-width="1.0"/>
<line x1="133.0" y1="310.0" x2="139.0" y2="310.0" stroke="#000" stroke-width="1.0"/>
<line x1="133.0" y1="289.0" x2="139.0" y2="289.0" stroke="#000" stroke-width="1.0"/>
<line x1="133.0" y1="268.0" x2="139.0" y2="268.0" stroke="#000" stroke-width="1.0"/>
<line x1="133.0" y1="247.0" x2="139.0" y2="247.0" stroke="#000" stroke-width="1.0"/>
<line x1="133.0" y1="226.0" x2="139.0" y2="226.0" stroke="#000" stroke-width="1.0"/>
<line x1="133.0" y1="184.0" x2="139.0" y2="184.0" stroke="#000" stroke-width="1.0"/>
<line x1="133.0" y1="163.0" x2="139.0" y2="163.0" stroke="#000" stroke-width="1.0"/>
<line x1="133.0" y1="142.0" x2="139.0" y2="142.0" stroke="#000" stroke-width="1.0"/>
<line x1="133.0" y1="121.0" x2="139.0" y2="121.0" stroke="#000" stroke-width="1.0"/>
<line x1="133.0" y1="100.0" x2="139.0" y2="100.0" stroke="#000" stroke-width="1.0"/>
<line x1="133.0" y1="79.0" x2="139.0" y2="79.0" stroke="#000" stroke-width="1.0"/>
<line x1="133.0" y1="58.0" x2="139.0" y2="58.0" stroke="#000" stroke-width="1.0"/>
<line x1="133.0" y1="37.0" x2="139.0" y2="37.0" stroke="#000" stroke-width="1.0"/>
<line x1="133.0" y1="16.0" x2="139.0" y2="16.0" stroke="#000" stroke-width="1.0"/>
<text x="40.0" y="219.0" font-size="11" text-anchor="middle">−4</text>
<text x="88.0" y="219.0" font-size="11" text-anchor="middle">−2</text>
<text x="232.0" y="219.0" font-size="11" text-anchor="middle">4</text>
<text x="130.0" y="397.9" font-size="11" text-anchor="end">−9</text>
<text x="130.0" y="334.9" font-size="11" text-anchor="end">−6</text>
<text x="130.0" y="271.9" font-size="11" text-anchor="end">−3</text>
<text x="130.0" y="145.8" font-size="11" text-anchor="end">3</text>
<text x="130.0" y="82.8" font-size="11" text-anchor="end">6</text>
<text x="130.0" y="19.9" font-size="11" text-anchor="end">9</text>
<text x="131.0" y="219.0" font-size="11" text-anchor="end">O</text>
<text x="179.0" y="219.0" font-size="11" text-anchor="end">2</text>
<polyline points="64.0,16.0 64.7,19.8 65.4,23.5 66.2,27.2 66.9,30.8 67.6,34.4 68.3,38.0 69.0,41.5 69.8,45.0 70.5,48.5 71.2,51.9 71.9,55.3 72.6,58.6 73.4,61.9 74.1,65.2 74.8,68.4 75.5,71.6 76.2,74.8 77.0,77.9 77.7,81.0 78.4,84.0 79.1,87.0 79.8,90.0 80.6,92.9 81.3,95.8 82.0,98.7 82.7,101.5 83.4,104.3 84.2,107.0 84.9,109.7 85.6,112.4 86.3,115.0 87.0,117.6 87.8,120.2 88.5,122.7 89.2,125.1 89.9,127.6 90.6,130.0 91.4,132.3 92.1,134.7 92.8,137.0 93.5,139.2 94.2,141.4 95.0,143.6 95.7,145.7 96.4,147.8 97.1,149.9 97.8,151.9 98.6,153.9 99.3,155.8 100.0,157.8 100.7,159.6 101.4,161.5 102.2,163.2 102.9,165.0 103.6,166.7 104.3,168.4 105.0,170.1 105.8,171.7 106.5,173.2 107.2,174.8 107.9,176.3 108.6,177.7 109.4,179.1 110.1,180.5 110.8,181.8 111.5,183.2 112.2,184.4 113.0,185.6 113.7,186.8 114.4,188.0 115.1,189.1 115.8,190.2 116.6,191.2 117.3,192.2 118.0,193.2 118.7,194.1 119.4,195.0 120.2,195.9 120.9,196.7 121.6,197.4 122.3,198.2 123.0,198.9 123.8,199.5 124.5,200.2 125.2,200.7 125.9,201.3 126.6,201.8 127.4,202.3 128.1,202.7 128.8,203.1 129.5,203.5 130.2,203.8 131.0,204.1 131.7,204.3 132.4,204.5 133.1,204.7 133.8,204.8 134.6,204.9 135.3,205.0 136.0,205.0 136.7,205.0 137.4,204.9 138.2,204.8 138.9,204.7 139.6,204.5 140.3,204.3 141.0,204.1 141.8,203.8 142.5,203.5 143.2,203.1 143.9,202.7 144.6,202.3 145.4,201.8 146.1,201.3 146.8,200.7 147.5,200.2 148.2,199.5 149.0,198.9 149.7,198.2 150.4,197.4 151.1,196.7 151.8,195.9 152.6,195.0 153.3,194.1 154.0,193.2 154.7,192.2 155.4,191.2 156.2,190.2 156.9,189.1 157.6,188.0 158.3,186.8 159.0,185.6 159.8,184.4 160.5,183.2 161.2,181.8 161.9,180.5 162.6,179.1 163.4,177.7 164.1,176.3 164.8,174.8 165.5,173.2 166.2,171.7 167.0,170.1 167.7,168.4 168.4,166.7 169.1,165.0 169.8,163.2 170.6,161.5 171.3,159.6 172.0,157.8 172.7,155.8 173.4,153.9 174.2,151.9 174.9,149.9 175.6,147.8 176.3,145.7 177.0,143.6 177.8,141.4 178.5,139.2 179.2,137.0 179.9,134.7 180.6,132.3 181.4,130.0 182.1,127.6 182.8,125.1 183.5,122.7 184.2,120.2 185.0,117.6 185.7,115.0 186.4,112.4 187.1,109.7 187.8,107.0 188.6,104.3 189.3,101.5 190.0,98.7 190.7,95.8 191.4,92.9 192.2,90.0 192.9,87.0 193.6,84.0 194.3,81.0 195.0,77.9 195.8,74.8 196.5,71.6 197.2,68.4 197.9,65.2 198.6,61.9 199.4,58.6 200.1,55.3 200.8,51.9 201.5,48.5 202.2,45.0 203.0,41.5 203.7,38.0 204.4,34.4 205.1,30.8 205.8,27.2 206.6,23.5 207.3,19.8 208.0,16.0" fill="none" stroke="#000" stroke-width="1.6" stroke-linejoin="round"/>
<polyline points="64.0,394.0 64.7,390.2 65.4,386.5 66.2,382.8 66.9,379.2 67.6,375.6 68.3,372.0 69.0,368.5 69.8,365.0 70.5,361.5 71.2,358.1 71.9,354.7 72.6,351.4 73.4,348.1 74.1,344.8 74.8,341.6 75.5,338.4 76.2,335.2 77.0,332.1 77.7,329.0 78.4,326.0 79.1,323.0 79.8,320.0 80.6,317.1 81.3,314.2 82.0,311.3 82.7,308.5 83.4,305.7 84.2,303.0 84.9,300.3 85.6,297.6 86.3,295.0 87.0,292.4 87.8,289.8 88.5,287.3 89.2,284.9 89.9,282.4 90.6,280.0 91.4,277.7 92.1,275.3 92.8,273.0 93.5,270.8 94.2,268.6 95.0,266.4 95.7,264.3 96.4,262.2 97.1,260.1 97.8,258.1 98.6,256.1 99.3,254.2 100.0,252.2 100.7,250.4 101.4,248.5 102.2,246.8 102.9,245.0 103.6,243.3 104.3,241.6 105.0,239.9 105.8,238.3 106.5,236.8 107.2,235.2 107.9,233.7 108.6,232.3 109.4,230.9 110.1,229.5 110.8,228.2 111.5,226.8 112.2,225.6 113.0,224.4 113.7,223.2 114.4,222.0 115.1,220.9 115.8,219.8 116.6,218.8 117.3,217.8 118.0,216.8 118.7,215.9 119.4,215.0 120.2,214.1 120.9,213.3 121.6,212.6 122.3,211.8 123.0,211.1 123.8,210.5 124.5,209.8 125.2,209.3 125.9,208.7 126.6,208.2 127.4,207.7 128.1,207.3 128.8,206.9 129.5,206.5 130.2,206.2 131.0,205.9 131.7,205.7 132.4,205.5 133.1,205.3 133.8,205.2 134.6,205.1 135.3,205.0 136.0,205.0 136.7,205.0 137.4,205.1 138.2,205.2 138.9,205.3 139.6,205.5 140.3,205.7 141.0,205.9 141.8,206.2 142.5,206.5 143.2,206.9 143.9,207.3 144.6,207.7 145.4,208.2 146.1,208.7 146.8,209.3 147.5,209.8 148.2,210.5 149.0,211.1 149.7,211.8 150.4,212.6 151.1,213.3 151.8,214.1 152.6,215.0 153.3,215.9 154.0,216.8 154.7,217.8 155.4,218.8 156.2,219.8 156.9,220.9 157.6,222.0 158.3,223.2 159.0,224.4 159.8,225.6 160.5,226.8 161.2,228.2 161.9,229.5 162.6,230.9 163.4,232.3 164.1,233.7 164.8,235.2 165.5,236.8 166.2,238.3 167.0,239.9 167.7,241.6 168.4,243.3 169.1,245.0 169.8,246.8 170.6,248.5 171.3,250.4 172.0,252.2 172.7,254.2 173.4,256.1 174.2,258.1 174.9,260.1 175.6,262.2 176.3,264.3 177.0,266.4 177.8,268.6 178.5,270.8 179.2,273.0 179.9,275.3 180.6,277.7 181.4,280.0 182.1,282.4 182.8,284.9 183.5,287.3 184.2,289.8 185.0,292.4 185.7,295.0 186.4,297.6 187.1,300.3 187.8,303.0 188.6,305.7 189.3,308.5 190.0,311.3 190.7,314.2 191.4,317.1 192.2,320.0 192.9,323.0 193.6,326.0 194.3,329.0 195.0,332.1 195.8,335.2 196.5,338.4 197.2,341.6 197.9,344.8 198.6,348.1 199.4,351.4 200.1,354.7 200.8,358.1 201.5,361.5 202.2,365.0 203.0,368.5 203.7,372.0 204.4,375.6 205.1,379.2 205.8,382.8 206.6,386.5 207.3,390.2 208.0,394.0" fill="none" stroke="#000" stroke-width="1.6" stroke-linejoin="round"/>
<line x1="184.0" y1="121.0" x2="184.0" y2="289.0" stroke="#000" stroke-width="1.1" stroke-dasharray="6 4"/>
<circle cx="184.0" cy="121.0" r="3.0" fill="#000"/>
<circle cx="184.0" cy="289.0" r="3.0" fill="#000"/>
<text x="211.6" y="37.0" font-size="13" text-anchor="start">y＝x²</text>
<text x="211.6" y="381.0" font-size="13" text-anchor="start">y＝−x²</text>
</svg>
