<svg xmlns="http://www.w3.org/2000/svg" viewBox="0 0 291 344">
<title>方眼なしの4本の放物線A〜D（練習2）</title>
<desc>【この図の意図】座標値なしでも向きと開き方（aの符号と絶対値）だけで式と対応づける練習用の図。【主要な数値・設定】A〜Dのa値はanswer_keyデザイン用注記どおり（対応が答えのため値は非表示）。【AIに同じ種類の図を描かせるときの説明文】「方眼なしの4本の放物線A〜D（練習2）。座標値なしでも向きと開き方（aの符号と絶対値）だけで式と対応づける練習用の図。数値・設定: A〜Dのa値はanswer_keyデザイン用注記どおり（対応が答えのため値は非表示）。白黒印刷向けのシンプルな教材図（SVG）としてかいて。」——この説明文を生成AIに渡せば同型の図を描かせられる。数値を変えれば類題用の図も作れる。</desc>
<!-- L05_fig3_four_parabolas_quiz.svg | 方眼なしの4本の放物線A〜D（練習2） -->
<!-- generated by assets_provenance/generate_figures.py on 2026-07-17 (docs/SPEC_figures.md準拠（内部規約の要旨は同SPECに反映済み）・SVG直接編集禁止/スクリプト改修で再生成) -->
<rect x="0" y="0" width="291" height="344" fill="#fff"/>
<line x1="30.0" y1="169.0" x2="262.2" y2="169.0" stroke="#000" stroke-width="1.2"/>
<polygon points="269.2,169.0 262.2,172.2 262.2,165.8" fill="#000"/>
<line x1="145.6" y1="322.0" x2="145.6" y2="15.0" stroke="#000" stroke-width="1.2"/>
<polygon points="145.6,8.0 148.8,15.0 142.4,15.0" fill="#000"/>
<text x="271.2" y="173.5" font-size="13" text-anchor="start">x</text>
<text x="152.6" y="10.0" font-size="13" text-anchor="start">y</text>
<text x="136.6" y="186.0" font-size="11" text-anchor="end">O</text>
<polyline points="105.4,26.7 105.8,29.5 106.2,32.3 106.6,35.1 107.0,37.9 107.5,40.6 107.9,43.3 108.3,45.9 108.7,48.6 109.1,51.2 109.5,53.7 109.9,56.3 110.3,58.8 110.7,61.3 111.1,63.8 111.5,66.2 111.9,68.6 112.3,71.0 112.7,73.3 113.1,75.6 113.5,77.9 113.9,80.2 114.3,82.4 114.7,84.6 115.1,86.8 115.5,89.0 115.9,91.1 116.3,93.2 116.7,95.2 117.1,97.3 117.5,99.3 117.9,101.3 118.3,103.2 118.7,105.1 119.1,107.0 119.5,108.9 119.9,110.7 120.3,112.5 120.7,114.3 121.1,116.1 121.5,117.8 121.9,119.5 122.3,121.1 122.7,122.8 123.1,124.4 123.5,126.0 123.9,127.5 124.3,129.0 124.7,130.5 125.1,132.0 125.5,133.4 125.9,134.8 126.3,136.2 126.7,137.6 127.1,138.9 127.5,140.2 127.9,141.5 128.3,142.7 128.7,143.9 129.1,145.1 129.5,146.2 129.9,147.4 130.3,148.5 130.7,149.5 131.1,150.6 131.5,151.6 131.9,152.6 132.3,153.5 132.7,154.4 133.2,155.3 133.6,156.2 134.0,157.0 134.4,157.8 134.8,158.6 135.2,159.4 135.6,160.1 136.0,160.8 136.4,161.5 136.8,162.1 137.2,162.7 137.6,163.3 138.0,163.9 138.4,164.4 138.8,164.9 139.2,165.4 139.6,165.8 140.0,166.2 140.4,166.6 140.8,167.0 141.2,167.3 141.6,167.6 142.0,167.8 142.4,168.1 142.8,168.3 143.2,168.5 143.6,168.6 144.0,168.8 144.4,168.9 144.8,168.9 145.2,169.0 145.6,169.0 146.0,169.0 146.4,168.9 146.8,168.9 147.2,168.8 147.6,168.6 148.0,168.5 148.4,168.3 148.8,168.1 149.2,167.8 149.6,167.6 150.0,167.3 150.4,167.0 150.8,166.6 151.2,166.2 151.6,165.8 152.0,165.4 152.4,164.9 152.8,164.4 153.2,163.9 153.6,163.3 154.0,162.7 154.4,162.1 154.8,161.5 155.2,160.8 155.6,160.1 156.0,159.4 156.4,158.6 156.8,157.8 157.2,157.0 157.6,156.2 158.0,155.3 158.5,154.4 158.9,153.5 159.3,152.6 159.7,151.6 160.1,150.6 160.5,149.5 160.9,148.5 161.3,147.4 161.7,146.2 162.1,145.1 162.5,143.9 162.9,142.7 163.3,141.5 163.7,140.2 164.1,138.9 164.5,137.6 164.9,136.2 165.3,134.8 165.7,133.4 166.1,132.0 166.5,130.5 166.9,129.0 167.3,127.5 167.7,126.0 168.1,124.4 168.5,122.8 168.9,121.1 169.3,119.5 169.7,117.8 170.1,116.1 170.5,114.3 170.9,112.5 171.3,110.7 171.7,108.9 172.1,107.0 172.5,105.1 172.9,103.2 173.3,101.3 173.7,99.3 174.1,97.3 174.5,95.2 174.9,93.2 175.3,91.1 175.7,89.0 176.1,86.8 176.5,84.6 176.9,82.4 177.3,80.2 177.7,77.9 178.1,75.6 178.5,73.3 178.9,71.0 179.3,68.6 179.7,66.2 180.1,63.8 180.5,61.3 180.9,58.8 181.3,56.3 181.7,53.7 182.1,51.2 182.5,48.6 182.9,45.9 183.3,43.3 183.7,40.6 184.2,37.9 184.6,35.1 185.0,32.3 185.4,29.5 185.8,26.7" fill="none" stroke="#000" stroke-width="1.6" stroke-linejoin="round"/>
<text x="188.6" y="49.4" font-size="13" text-anchor="start" font-weight="bold">A</text>
<polyline points="35.8,50.8 36.9,53.1 38.0,55.4 39.1,57.7 40.2,60.0 41.3,62.3 42.4,64.5 43.5,66.7 44.6,68.9 45.7,71.1 46.8,73.2 47.9,75.3 49.0,77.4 50.1,79.5 51.2,81.6 52.3,83.6 53.4,85.6 54.4,87.5 55.5,89.5 56.6,91.4 57.7,93.3 58.8,95.2 59.9,97.1 61.0,98.9 62.1,100.7 63.2,102.5 64.3,104.3 65.4,106.0 66.5,107.7 67.6,109.4 68.7,111.1 69.8,112.7 70.9,114.3 72.0,115.9 73.1,117.5 74.2,119.0 75.3,120.6 76.4,122.1 77.5,123.5 78.6,125.0 79.7,126.4 80.8,127.8 81.9,129.2 83.0,130.6 84.1,131.9 85.2,133.2 86.3,134.5 87.4,135.8 88.5,137.0 89.6,138.2 90.7,139.4 91.8,140.6 92.9,141.8 94.0,142.9 95.1,144.0 96.2,145.1 97.3,146.1 98.4,147.1 99.5,148.1 100.6,149.1 101.7,150.1 102.8,151.0 103.9,151.9 105.0,152.8 106.1,153.7 107.2,154.5 108.3,155.3 109.4,156.1 110.5,156.9 111.6,157.6 112.7,158.4 113.8,159.1 114.9,159.7 115.9,160.4 117.0,161.0 118.1,161.6 119.2,162.2 120.3,162.7 121.4,163.3 122.5,163.8 123.6,164.3 124.7,164.7 125.8,165.2 126.9,165.6 128.0,166.0 129.1,166.3 130.2,166.7 131.3,167.0 132.4,167.3 133.5,167.6 134.6,167.8 135.7,168.0 136.8,168.2 137.9,168.4 139.0,168.6 140.1,168.7 141.2,168.8 142.3,168.9 143.4,169.0 144.5,169.0 145.6,169.0 146.7,169.0 147.8,169.0 148.9,168.9 150.0,168.8 151.1,168.7 152.2,168.6 153.3,168.4 154.4,168.2 155.5,168.0 156.6,167.8 157.7,167.6 158.8,167.3 159.9,167.0 161.0,166.7 162.1,166.3 163.2,166.0 164.3,165.6 165.4,165.2 166.5,164.7 167.6,164.3 168.7,163.8 169.8,163.3 170.9,162.7 172.0,162.2 173.1,161.6 174.2,161.0 175.3,160.4 176.3,159.7 177.4,159.1 178.5,158.4 179.6,157.6 180.7,156.9 181.8,156.1 182.9,155.3 184.0,154.5 185.1,153.7 186.2,152.8 187.3,151.9 188.4,151.0 189.5,150.1 190.6,149.1 191.7,148.1 192.8,147.1 193.9,146.1 195.0,145.1 196.1,144.0 197.2,142.9 198.3,141.8 199.4,140.6 200.5,139.4 201.6,138.2 202.7,137.0 203.8,135.8 204.9,134.5 206.0,133.2 207.1,131.9 208.2,130.6 209.3,129.2 210.4,127.8 211.5,126.4 212.6,125.0 213.7,123.5 214.8,122.1 215.9,120.6 217.0,119.0 218.1,117.5 219.2,115.9 220.3,114.3 221.4,112.7 222.5,111.1 223.6,109.4 224.7,107.7 225.8,106.0 226.9,104.3 228.0,102.5 229.1,100.7 230.2,98.9 231.3,97.1 232.4,95.2 233.5,93.3 234.6,91.4 235.7,89.5 236.8,87.5 237.8,85.6 238.9,83.6 240.0,81.6 241.1,79.5 242.2,77.4 243.3,75.3 244.4,73.2 245.5,71.1 246.6,68.9 247.7,66.7 248.8,64.5 249.9,62.3 251.0,60.0 252.1,57.7 253.2,55.4 254.3,53.1 255.4,50.8" fill="none" stroke="#000" stroke-width="1.6" stroke-linejoin="round"/>
<text x="256.3" y="58.6" font-size="13" text-anchor="start" font-weight="bold">B</text>
<polyline points="76.0,311.3 76.7,308.5 77.4,305.7 78.1,302.9 78.8,300.1 79.5,297.4 80.2,294.7 80.9,292.1 81.6,289.4 82.3,286.8 83.0,284.3 83.7,281.7 84.4,279.2 85.1,276.7 85.8,274.2 86.5,271.8 87.2,269.4 87.9,267.0 88.6,264.7 89.3,262.4 90.0,260.1 90.7,257.8 91.3,255.6 92.0,253.4 92.7,251.2 93.4,249.0 94.1,246.9 94.8,244.8 95.5,242.8 96.2,240.7 96.9,238.7 97.6,236.7 98.3,234.8 99.0,232.9 99.7,231.0 100.4,229.1 101.1,227.3 101.8,225.5 102.5,223.7 103.2,221.9 103.9,220.2 104.6,218.5 105.3,216.9 106.0,215.2 106.6,213.6 107.3,212.0 108.0,210.5 108.7,209.0 109.4,207.5 110.1,206.0 110.8,204.6 111.5,203.2 112.2,201.8 112.9,200.4 113.6,199.1 114.3,197.8 115.0,196.5 115.7,195.3 116.4,194.1 117.1,192.9 117.8,191.8 118.5,190.6 119.2,189.5 119.9,188.5 120.6,187.4 121.3,186.4 122.0,185.4 122.6,184.5 123.3,183.6 124.0,182.7 124.7,181.8 125.4,181.0 126.1,180.2 126.8,179.4 127.5,178.6 128.2,177.9 128.9,177.2 129.6,176.5 130.3,175.9 131.0,175.3 131.7,174.7 132.4,174.1 133.1,173.6 133.8,173.1 134.5,172.6 135.2,172.2 135.9,171.8 136.6,171.4 137.3,171.0 137.9,170.7 138.6,170.4 139.3,170.2 140.0,169.9 140.7,169.7 141.4,169.5 142.1,169.4 142.8,169.2 143.5,169.1 144.2,169.1 144.9,169.0 145.6,169.0 146.3,169.0 147.0,169.1 147.7,169.1 148.4,169.2 149.1,169.4 149.8,169.5 150.5,169.7 151.2,169.9 151.9,170.2 152.6,170.4 153.3,170.7 153.9,171.0 154.6,171.4 155.3,171.8 156.0,172.2 156.7,172.6 157.4,173.1 158.1,173.6 158.8,174.1 159.5,174.7 160.2,175.3 160.9,175.9 161.6,176.5 162.3,177.2 163.0,177.9 163.7,178.6 164.4,179.4 165.1,180.2 165.8,181.0 166.5,181.8 167.2,182.7 167.9,183.6 168.6,184.5 169.2,185.4 169.9,186.4 170.6,187.4 171.3,188.5 172.0,189.5 172.7,190.6 173.4,191.8 174.1,192.9 174.8,194.1 175.5,195.3 176.2,196.5 176.9,197.8 177.6,199.1 178.3,200.4 179.0,201.8 179.7,203.2 180.4,204.6 181.1,206.0 181.8,207.5 182.5,209.0 183.2,210.5 183.9,212.0 184.6,213.6 185.2,215.2 185.9,216.9 186.6,218.5 187.3,220.2 188.0,221.9 188.7,223.7 189.4,225.5 190.1,227.3 190.8,229.1 191.5,231.0 192.2,232.9 192.9,234.8 193.6,236.7 194.3,238.7 195.0,240.7 195.7,242.8 196.4,244.8 197.1,246.9 197.8,249.0 198.5,251.2 199.2,253.4 199.9,255.6 200.5,257.8 201.2,260.1 201.9,262.4 202.6,264.7 203.3,267.0 204.0,269.4 204.7,271.8 205.4,274.2 206.1,276.7 206.8,279.2 207.5,281.7 208.2,284.3 208.9,286.8 209.6,289.4 210.3,292.1 211.0,294.7 211.7,297.4 212.4,300.1 213.1,302.9 213.8,305.7 214.5,308.5 215.2,311.3" fill="none" stroke="#000" stroke-width="1.6" stroke-linejoin="round"/>
<text x="72.3" y="311.3" font-size="13" text-anchor="end" font-weight="bold">C</text>
<polyline points="96.4,311.3 96.9,308.5 97.4,305.7 97.9,302.9 98.4,300.1 98.9,297.4 99.4,294.7 99.9,292.1 100.4,289.4 100.8,286.8 101.3,284.3 101.8,281.7 102.3,279.2 102.8,276.7 103.3,274.2 103.8,271.8 104.3,269.4 104.8,267.0 105.3,264.7 105.8,262.4 106.3,260.1 106.7,257.8 107.2,255.6 107.7,253.4 108.2,251.2 108.7,249.0 109.2,246.9 109.7,244.8 110.2,242.8 110.7,240.7 111.2,238.7 111.7,236.7 112.2,234.8 112.6,232.9 113.1,231.0 113.6,229.1 114.1,227.3 114.6,225.5 115.1,223.7 115.6,221.9 116.1,220.2 116.6,218.5 117.1,216.9 117.6,215.2 118.1,213.6 118.5,212.0 119.0,210.5 119.5,209.0 120.0,207.5 120.5,206.0 121.0,204.6 121.5,203.2 122.0,201.8 122.5,200.4 123.0,199.1 123.5,197.8 124.0,196.5 124.5,195.3 124.9,194.1 125.4,192.9 125.9,191.8 126.4,190.6 126.9,189.5 127.4,188.5 127.9,187.4 128.4,186.4 128.9,185.4 129.4,184.5 129.9,183.6 130.4,182.7 130.8,181.8 131.3,181.0 131.8,180.2 132.3,179.4 132.8,178.6 133.3,177.9 133.8,177.2 134.3,176.5 134.8,175.9 135.3,175.3 135.8,174.7 136.3,174.1 136.7,173.6 137.2,173.1 137.7,172.6 138.2,172.2 138.7,171.8 139.2,171.4 139.7,171.0 140.2,170.7 140.7,170.4 141.2,170.2 141.7,169.9 142.2,169.7 142.6,169.5 143.1,169.4 143.6,169.2 144.1,169.1 144.6,169.1 145.1,169.0 145.6,169.0 146.1,169.0 146.6,169.1 147.1,169.1 147.6,169.2 148.1,169.4 148.6,169.5 149.0,169.7 149.5,169.9 150.0,170.2 150.5,170.4 151.0,170.7 151.5,171.0 152.0,171.4 152.5,171.8 153.0,172.2 153.5,172.6 154.0,173.1 154.5,173.6 154.9,174.1 155.4,174.7 155.9,175.3 156.4,175.9 156.9,176.5 157.4,177.2 157.9,177.9 158.4,178.6 158.9,179.4 159.4,180.2 159.9,181.0 160.4,181.8 160.8,182.7 161.3,183.6 161.8,184.5 162.3,185.4 162.8,186.4 163.3,187.4 163.8,188.5 164.3,189.5 164.8,190.6 165.3,191.8 165.8,192.9 166.3,194.1 166.7,195.3 167.2,196.5 167.7,197.8 168.2,199.1 168.7,200.4 169.2,201.8 169.7,203.2 170.2,204.6 170.7,206.0 171.2,207.5 171.7,209.0 172.2,210.5 172.7,212.0 173.1,213.6 173.6,215.2 174.1,216.9 174.6,218.5 175.1,220.2 175.6,221.9 176.1,223.7 176.6,225.5 177.1,227.3 177.6,229.1 178.1,231.0 178.6,232.9 179.0,234.8 179.5,236.7 180.0,238.7 180.5,240.7 181.0,242.8 181.5,244.8 182.0,246.9 182.5,249.0 183.0,251.2 183.5,253.4 184.0,255.6 184.5,257.8 184.9,260.1 185.4,262.4 185.9,264.7 186.4,267.0 186.9,269.4 187.4,271.8 187.9,274.2 188.4,276.7 188.9,279.2 189.4,281.7 189.9,284.3 190.4,286.8 190.8,289.4 191.3,292.1 191.8,294.7 192.3,297.4 192.8,300.1 193.3,302.9 193.8,305.7 194.3,308.5 194.8,311.3" fill="none" stroke="#000" stroke-width="1.6" stroke-linejoin="round"/>
<text x="95.1" y="293.4" font-size="13" text-anchor="end" font-weight="bold">D</text>
</svg>
