<svg xmlns="http://www.w3.org/2000/svg" viewBox="0 0 332 276">
<title>y=2x²・y=x²・y=x²/2の開き具合</title>
<desc>【この図の意図】aの絶対値が開き具合を決める——同じxでyがa倍（縦方向a倍）になることを見せる。【主要な数値・設定】a=2,1,0.5／x=2の縦破線上に(2,2),(2,4),(2,8)を強調。【AIに同じ種類の図を描かせるときの説明文】「y=2x²・y=x²・y=x²/2の開き具合。aの絶対値が開き具合を決める——同じxでyがa倍（縦方向a倍）になることを見せる。数値・設定: a=2,1,0.5／x=2の縦破線上に(2,2),(2,4),(2,8)を強調。白黒印刷向けのシンプルな教材図（SVG）としてかいて。」——この説明文を生成AIに渡せば同型の図を描かせられる。数値を変えれば類題用の図も作れる。</desc>
<!-- L05_fig2_opening_width.svg | y=2x²・y=x²・y=x²/2の開き具合 -->
<!-- generated by assets_provenance/generate_figures.py on 2026-07-17 (docs/SPEC_figures.md準拠（内部規約の要旨は同SPECに反映済み）・SVG直接編集禁止/スクリプト改修で再生成) -->
<rect x="0" y="0" width="332" height="276" fill="#fff"/>
<line x1="36.0" y1="250.0" x2="229.0" y2="250.0" stroke="#000" stroke-width="1.2"/>
<polygon points="236.0,250.0 229.0,253.2 229.0,246.8" fill="#000"/>
<line x1="132.0" y1="250.0" x2="132.0" y2="15.0" stroke="#000" stroke-width="1.2"/>
<polygon points="132.0,8.0 135.2,15.0 128.8,15.0" fill="#000"/>
<text x="238.0" y="254.5" font-size="13" text-anchor="start">x</text>
<text x="139.0" y="10.0" font-size="13" text-anchor="start">y</text>
<line x1="36.0" y1="247.0" x2="36.0" y2="253.0" stroke="#000" stroke-width="1.0"/>
<line x1="68.0" y1="247.0" x2="68.0" y2="253.0" stroke="#000" stroke-width="1.0"/>
<line x1="100.0" y1="247.0" x2="100.0" y2="253.0" stroke="#000" stroke-width="1.0"/>
<line x1="164.0" y1="247.0" x2="164.0" y2="253.0" stroke="#000" stroke-width="1.0"/>
<line x1="196.0" y1="247.0" x2="196.0" y2="253.0" stroke="#000" stroke-width="1.0"/>
<line x1="228.0" y1="247.0" x2="228.0" y2="253.0" stroke="#000" stroke-width="1.0"/>
<line x1="129.0" y1="224.0" x2="135.0" y2="224.0" stroke="#000" stroke-width="1.0"/>
<line x1="129.0" y1="198.0" x2="135.0" y2="198.0" stroke="#000" stroke-width="1.0"/>
<line x1="129.0" y1="172.0" x2="135.0" y2="172.0" stroke="#000" stroke-width="1.0"/>
<line x1="129.0" y1="146.0" x2="135.0" y2="146.0" stroke="#000" stroke-width="1.0"/>
<line x1="129.0" y1="120.0" x2="135.0" y2="120.0" stroke="#000" stroke-width="1.0"/>
<line x1="129.0" y1="94.0" x2="135.0" y2="94.0" stroke="#000" stroke-width="1.0"/>
<line x1="129.0" y1="68.0" x2="135.0" y2="68.0" stroke="#000" stroke-width="1.0"/>
<line x1="129.0" y1="42.0" x2="135.0" y2="42.0" stroke="#000" stroke-width="1.0"/>
<line x1="129.0" y1="16.0" x2="135.0" y2="16.0" stroke="#000" stroke-width="1.0"/>
<text x="68.0" y="264.0" font-size="11" text-anchor="middle">−2</text>
<text x="100.0" y="264.0" font-size="11" text-anchor="middle">−1</text>
<text x="164.0" y="264.0" font-size="11" text-anchor="middle">1</text>
<text x="196.0" y="264.0" font-size="11" text-anchor="middle">2</text>
<text x="126.0" y="201.8" font-size="11" text-anchor="end">2</text>
<text x="126.0" y="149.8" font-size="11" text-anchor="end">4</text>
<text x="126.0" y="97.8" font-size="11" text-anchor="end">6</text>
<text x="126.0" y="45.9" font-size="11" text-anchor="end">8</text>
<text x="127.0" y="264.0" font-size="11" text-anchor="end">O</text>
<polyline points="64.1,16.0 64.8,20.7 65.5,25.3 66.2,29.8 66.8,34.3 67.5,38.8 68.2,43.2 68.9,47.6 69.5,51.9 70.2,56.2 70.9,60.5 71.6,64.6 72.3,68.8 72.9,72.9 73.6,76.9 74.3,80.9 75.0,84.9 75.7,88.8 76.3,92.7 77.0,96.5 77.7,100.2 78.4,104.0 79.1,107.6 79.7,111.3 80.4,114.8 81.1,118.4 81.8,121.9 82.4,125.3 83.1,128.7 83.8,132.0 84.5,135.3 85.2,138.6 85.8,141.8 86.5,145.0 87.2,148.1 87.9,151.1 88.6,154.2 89.2,157.1 89.9,160.1 90.6,162.9 91.3,165.8 91.9,168.5 92.6,171.3 93.3,174.0 94.0,176.6 94.7,179.2 95.3,181.8 96.0,184.3 96.7,186.7 97.4,189.1 98.1,191.5 98.7,193.8 99.4,196.1 100.1,198.3 100.8,200.5 101.5,202.6 102.1,204.7 102.8,206.7 103.5,208.7 104.2,210.7 104.8,212.6 105.5,214.4 106.2,216.2 106.9,218.0 107.6,219.7 108.2,221.3 108.9,222.9 109.6,224.5 110.3,226.0 111.0,227.5 111.6,228.9 112.3,230.3 113.0,231.7 113.7,232.9 114.4,234.2 115.0,235.4 115.7,236.5 116.4,237.6 117.1,238.7 117.7,239.7 118.4,240.6 119.1,241.6 119.8,242.4 120.5,243.2 121.1,244.0 121.8,244.7 122.5,245.4 123.2,246.0 123.9,246.6 124.5,247.2 125.2,247.7 125.9,248.1 126.6,248.5 127.2,248.9 127.9,249.2 128.6,249.4 129.3,249.6 130.0,249.8 130.6,249.9 131.3,250.0 132.0,250.0 132.7,250.0 133.4,249.9 134.0,249.8 134.7,249.6 135.4,249.4 136.1,249.2 136.8,248.9 137.4,248.5 138.1,248.1 138.8,247.7 139.5,247.2 140.1,246.6 140.8,246.0 141.5,245.4 142.2,244.7 142.9,244.0 143.5,243.2 144.2,242.4 144.9,241.6 145.6,240.6 146.3,239.7 146.9,238.7 147.6,237.6 148.3,236.5 149.0,235.4 149.6,234.2 150.3,232.9 151.0,231.7 151.7,230.3 152.4,228.9 153.0,227.5 153.7,226.0 154.4,224.5 155.1,222.9 155.8,221.3 156.4,219.7 157.1,218.0 157.8,216.2 158.5,214.4 159.2,212.6 159.8,210.7 160.5,208.7 161.2,206.7 161.9,204.7 162.5,202.6 163.2,200.5 163.9,198.3 164.6,196.1 165.3,193.8 165.9,191.5 166.6,189.1 167.3,186.7 168.0,184.3 168.7,181.8 169.3,179.2 170.0,176.6 170.7,174.0 171.4,171.3 172.1,168.5 172.7,165.8 173.4,162.9 174.1,160.1 174.8,157.1 175.4,154.2 176.1,151.1 176.8,148.1 177.5,145.0 178.2,141.8 178.8,138.6 179.5,135.3 180.2,132.0 180.9,128.7 181.6,125.3 182.2,121.9 182.9,118.4 183.6,114.8 184.3,111.3 184.9,107.6 185.6,104.0 186.3,100.2 187.0,96.5 187.7,92.7 188.3,88.8 189.0,84.9 189.7,80.9 190.4,76.9 191.1,72.9 191.7,68.8 192.4,64.6 193.1,60.5 193.8,56.2 194.5,51.9 195.1,47.6 195.8,43.2 196.5,38.8 197.2,34.3 197.8,29.8 198.5,25.3 199.2,20.7 199.9,16.0" fill="none" stroke="#000" stroke-width="1.6" stroke-linejoin="round"/>
<polyline points="36.0,16.0 37.0,20.7 37.9,25.3 38.9,29.8 39.8,34.3 40.8,38.8 41.8,43.2 42.7,47.6 43.7,51.9 44.6,56.2 45.6,60.5 46.6,64.6 47.5,68.8 48.5,72.9 49.4,76.9 50.4,80.9 51.4,84.9 52.3,88.8 53.3,92.7 54.2,96.5 55.2,100.2 56.2,104.0 57.1,107.6 58.1,111.3 59.0,114.8 60.0,118.4 61.0,121.9 61.9,125.3 62.9,128.7 63.8,132.0 64.8,135.3 65.8,138.6 66.7,141.8 67.7,145.0 68.6,148.1 69.6,151.1 70.6,154.2 71.5,157.1 72.5,160.1 73.4,162.9 74.4,165.8 75.4,168.5 76.3,171.3 77.3,174.0 78.2,176.6 79.2,179.2 80.2,181.8 81.1,184.3 82.1,186.7 83.0,189.1 84.0,191.5 85.0,193.8 85.9,196.1 86.9,198.3 87.8,200.5 88.8,202.6 89.8,204.7 90.7,206.7 91.7,208.7 92.6,210.7 93.6,212.6 94.6,214.4 95.5,216.2 96.5,218.0 97.4,219.7 98.4,221.3 99.4,222.9 100.3,224.5 101.3,226.0 102.2,227.5 103.2,228.9 104.2,230.3 105.1,231.7 106.1,232.9 107.0,234.2 108.0,235.4 109.0,236.5 109.9,237.6 110.9,238.7 111.8,239.7 112.8,240.6 113.8,241.6 114.7,242.4 115.7,243.2 116.6,244.0 117.6,244.7 118.6,245.4 119.5,246.0 120.5,246.6 121.4,247.2 122.4,247.7 123.4,248.1 124.3,248.5 125.3,248.9 126.2,249.2 127.2,249.4 128.2,249.6 129.1,249.8 130.1,249.9 131.0,250.0 132.0,250.0 133.0,250.0 133.9,249.9 134.9,249.8 135.8,249.6 136.8,249.4 137.8,249.2 138.7,248.9 139.7,248.5 140.6,248.1 141.6,247.7 142.6,247.2 143.5,246.6 144.5,246.0 145.4,245.4 146.4,244.7 147.4,244.0 148.3,243.2 149.3,242.4 150.2,241.6 151.2,240.6 152.2,239.7 153.1,238.7 154.1,237.6 155.0,236.5 156.0,235.4 157.0,234.2 157.9,232.9 158.9,231.7 159.8,230.3 160.8,228.9 161.8,227.5 162.7,226.0 163.7,224.5 164.6,222.9 165.6,221.3 166.6,219.7 167.5,218.0 168.5,216.2 169.4,214.4 170.4,212.6 171.4,210.7 172.3,208.7 173.3,206.7 174.2,204.7 175.2,202.6 176.2,200.5 177.1,198.3 178.1,196.1 179.0,193.8 180.0,191.5 181.0,189.1 181.9,186.7 182.9,184.3 183.8,181.8 184.8,179.2 185.8,176.6 186.7,174.0 187.7,171.3 188.6,168.5 189.6,165.8 190.6,162.9 191.5,160.1 192.5,157.1 193.4,154.2 194.4,151.1 195.4,148.1 196.3,145.0 197.3,141.8 198.2,138.6 199.2,135.3 200.2,132.0 201.1,128.7 202.1,125.3 203.0,121.9 204.0,118.4 205.0,114.8 205.9,111.3 206.9,107.6 207.8,104.0 208.8,100.2 209.8,96.5 210.7,92.7 211.7,88.8 212.6,84.9 213.6,80.9 214.6,76.9 215.5,72.9 216.5,68.8 217.4,64.6 218.4,60.5 219.4,56.2 220.3,51.9 221.3,47.6 222.2,43.2 223.2,38.8 224.2,34.3 225.1,29.8 226.1,25.3 227.0,20.7 228.0,16.0" fill="none" stroke="#000" stroke-width="1.6" stroke-linejoin="round"/>
<polyline points="36.0,133.0 37.0,135.3 37.9,137.6 38.9,139.9 39.8,142.2 40.8,144.4 41.8,146.6 42.7,148.8 43.7,151.0 44.6,153.1 45.6,155.2 46.6,157.3 47.5,159.4 48.5,161.4 49.4,163.5 50.4,165.5 51.4,167.4 52.3,169.4 53.3,171.3 54.2,173.2 55.2,175.1 56.2,177.0 57.1,178.8 58.1,180.6 59.0,182.4 60.0,184.2 61.0,185.9 61.9,187.7 62.9,189.3 63.8,191.0 64.8,192.7 65.8,194.3 66.7,195.9 67.7,197.5 68.6,199.0 69.6,200.6 70.6,202.1 71.5,203.6 72.5,205.0 73.4,206.5 74.4,207.9 75.4,209.3 76.3,210.6 77.3,212.0 78.2,213.3 79.2,214.6 80.2,215.9 81.1,217.1 82.1,218.4 83.0,219.6 84.0,220.8 85.0,221.9 85.9,223.0 86.9,224.2 87.8,225.2 88.8,226.3 89.8,227.3 90.7,228.4 91.7,229.4 92.6,230.3 93.6,231.3 94.6,232.2 95.5,233.1 96.5,234.0 97.4,234.8 98.4,235.7 99.4,236.5 100.3,237.3 101.3,238.0 102.2,238.8 103.2,239.5 104.2,240.2 105.1,240.8 106.1,241.5 107.0,242.1 108.0,242.7 109.0,243.3 109.9,243.8 110.9,244.3 111.8,244.8 112.8,245.3 113.8,245.8 114.7,246.2 115.7,246.6 116.6,247.0 117.6,247.4 118.6,247.7 119.5,248.0 120.5,248.3 121.4,248.6 122.4,248.8 123.4,249.1 124.3,249.3 125.3,249.4 126.2,249.6 127.2,249.7 128.2,249.8 129.1,249.9 130.1,250.0 131.0,250.0 132.0,250.0 133.0,250.0 133.9,250.0 134.9,249.9 135.8,249.8 136.8,249.7 137.8,249.6 138.7,249.4 139.7,249.3 140.6,249.1 141.6,248.8 142.6,248.6 143.5,248.3 144.5,248.0 145.4,247.7 146.4,247.4 147.4,247.0 148.3,246.6 149.3,246.2 150.2,245.8 151.2,245.3 152.2,244.8 153.1,244.3 154.1,243.8 155.0,243.3 156.0,242.7 157.0,242.1 157.9,241.5 158.9,240.8 159.8,240.2 160.8,239.5 161.8,238.8 162.7,238.0 163.7,237.3 164.6,236.5 165.6,235.7 166.6,234.8 167.5,234.0 168.5,233.1 169.4,232.2 170.4,231.3 171.4,230.3 172.3,229.4 173.3,228.4 174.2,227.3 175.2,226.3 176.2,225.2 177.1,224.2 178.1,223.0 179.0,221.9 180.0,220.8 181.0,219.6 181.9,218.4 182.9,217.1 183.8,215.9 184.8,214.6 185.8,213.3 186.7,212.0 187.7,210.6 188.6,209.3 189.6,207.9 190.6,206.5 191.5,205.0 192.5,203.6 193.4,202.1 194.4,200.6 195.4,199.0 196.3,197.5 197.3,195.9 198.2,194.3 199.2,192.7 200.2,191.0 201.1,189.3 202.1,187.7 203.0,185.9 204.0,184.2 205.0,182.4 205.9,180.6 206.9,178.8 207.8,177.0 208.8,175.1 209.8,173.2 210.7,171.3 211.7,169.4 212.6,167.4 213.6,165.5 214.6,163.5 215.5,161.4 216.5,159.4 217.4,157.3 218.4,155.2 219.4,153.1 220.3,151.0 221.3,148.8 222.2,146.6 223.2,144.4 224.2,142.2 225.1,139.9 226.1,137.6 227.0,135.3 228.0,133.0" fill="none" stroke="#000" stroke-width="1.6" stroke-linejoin="round"/>
<text x="167.9" y="11.0" font-size="13" text-anchor="start">y＝2x²</text>
<text x="233.0" y="20.0" font-size="13" text-anchor="start">y＝x²</text>
<text x="233.0" y="137.0" font-size="13" text-anchor="start">y＝x²/2</text>
<line x1="196.0" y1="250.0" x2="196.0" y2="26.4" stroke="#000" stroke-width="1.1" stroke-dasharray="6 4"/>
<circle cx="196.0" cy="198.0" r="3.2" fill="#000"/>
<circle cx="196.0" cy="146.0" r="3.2" fill="#000"/>
<circle cx="196.0" cy="42.0" r="3.2" fill="#000"/>
<text x="204.0" y="96.6" font-size="12" text-anchor="start">同じxで比べる</text>
</svg>
