<svg xmlns="http://www.w3.org/2000/svg" viewBox="0 0 316 339">
<title>y=x²の増減——減る／増える／境目</title>
<desc>【この図の意図】増えるか減るかが原点で切りかわることを、曲線に沿う矢印で見せる。【主要な数値・設定】矢印: x&lt;0側は右下向き・x&gt;0側は右上向き／原点に「境目」。【AIに同じ種類の図を描かせるときの説明文】「y=x²の増減——減る／増える／境目。増えるか減るかが原点で切りかわることを、曲線に沿う矢印で見せる。数値・設定: 矢印: x&lt;0側は右下向き・x&gt;0側は右上向き／原点に「境目」。白黒印刷向けのシンプルな教材図（SVG）としてかいて。」——この説明文を生成AIに渡せば同型の図を描かせられる。数値を変えれば類題用の図も作れる。</desc>
<!-- L06_fig1_increase_decrease.svg | y=x²の増減——減る／増える／境目 -->
<!-- generated by assets_provenance/generate_figures.py on 2026-07-17 (docs/SPEC_figures.md準拠（内部規約の要旨は同SPECに反映済み）・SVG直接編集禁止/スクリプト改修で再生成) -->
<rect x="0" y="0" width="316" height="339" fill="#fff"/>
<line x1="36.0" y1="286.0" x2="253.0" y2="286.0" stroke="#000" stroke-width="1.2"/>
<polygon points="260.0,286.0 253.0,289.1 253.0,282.9" fill="#000"/>
<line x1="144.0" y1="313.0" x2="144.0" y2="15.0" stroke="#000" stroke-width="1.2"/>
<polygon points="144.0,8.0 147.2,15.0 140.8,15.0" fill="#000"/>
<text x="262.0" y="290.5" font-size="13" text-anchor="start">x</text>
<text x="151.0" y="10.0" font-size="13" text-anchor="start">y</text>
<line x1="36.0" y1="283.0" x2="36.0" y2="289.0" stroke="#000" stroke-width="1.0"/>
<line x1="63.0" y1="283.0" x2="63.0" y2="289.0" stroke="#000" stroke-width="1.0"/>
<line x1="90.0" y1="283.0" x2="90.0" y2="289.0" stroke="#000" stroke-width="1.0"/>
<line x1="117.0" y1="283.0" x2="117.0" y2="289.0" stroke="#000" stroke-width="1.0"/>
<line x1="171.0" y1="283.0" x2="171.0" y2="289.0" stroke="#000" stroke-width="1.0"/>
<line x1="198.0" y1="283.0" x2="198.0" y2="289.0" stroke="#000" stroke-width="1.0"/>
<line x1="225.0" y1="283.0" x2="225.0" y2="289.0" stroke="#000" stroke-width="1.0"/>
<line x1="252.0" y1="283.0" x2="252.0" y2="289.0" stroke="#000" stroke-width="1.0"/>
<line x1="141.0" y1="313.0" x2="147.0" y2="313.0" stroke="#000" stroke-width="1.0"/>
<line x1="141.0" y1="259.0" x2="147.0" y2="259.0" stroke="#000" stroke-width="1.0"/>
<line x1="141.0" y1="232.0" x2="147.0" y2="232.0" stroke="#000" stroke-width="1.0"/>
<line x1="141.0" y1="205.0" x2="147.0" y2="205.0" stroke="#000" stroke-width="1.0"/>
<line x1="141.0" y1="178.0" x2="147.0" y2="178.0" stroke="#000" stroke-width="1.0"/>
<line x1="141.0" y1="151.0" x2="147.0" y2="151.0" stroke="#000" stroke-width="1.0"/>
<line x1="141.0" y1="124.0" x2="147.0" y2="124.0" stroke="#000" stroke-width="1.0"/>
<line x1="141.0" y1="97.0" x2="147.0" y2="97.0" stroke="#000" stroke-width="1.0"/>
<line x1="141.0" y1="70.0" x2="147.0" y2="70.0" stroke="#000" stroke-width="1.0"/>
<line x1="141.0" y1="43.0" x2="147.0" y2="43.0" stroke="#000" stroke-width="1.0"/>
<line x1="141.0" y1="16.0" x2="147.0" y2="16.0" stroke="#000" stroke-width="1.0"/>
<text x="36.0" y="300.0" font-size="11" text-anchor="middle">−4</text>
<text x="90.0" y="300.0" font-size="11" text-anchor="middle">−2</text>
<text x="198.0" y="300.0" font-size="11" text-anchor="middle">2</text>
<text x="252.0" y="300.0" font-size="11" text-anchor="middle">4</text>
<text x="138.0" y="235.8" font-size="11" text-anchor="end">2</text>
<text x="138.0" y="181.8" font-size="11" text-anchor="end">4</text>
<text x="138.0" y="127.8" font-size="11" text-anchor="end">6</text>
<text x="138.0" y="73.8" font-size="11" text-anchor="end">8</text>
<text x="138.0" y="19.9" font-size="11" text-anchor="end">10</text>
<text x="139.0" y="300.0" font-size="11" text-anchor="end">O</text>
<polyline points="58.6,16.0 59.5,21.4 60.3,26.7 61.2,32.0 62.0,37.2 62.9,42.3 63.7,47.4 64.6,52.5 65.4,57.5 66.3,62.4 67.2,67.3 68.0,72.1 68.9,76.9 69.7,81.6 70.6,86.3 71.4,90.9 72.3,95.5 73.1,100.0 74.0,104.5 74.8,108.9 75.7,113.2 76.5,117.5 77.4,121.7 78.3,125.9 79.1,130.0 80.0,134.1 80.8,138.1 81.7,142.1 82.5,146.0 83.4,149.9 84.2,153.7 85.1,157.5 85.9,161.2 86.8,164.8 87.6,168.4 88.5,171.9 89.4,175.4 90.2,178.8 91.1,182.2 91.9,185.5 92.8,188.8 93.6,192.0 94.5,195.2 95.3,198.3 96.2,201.3 97.0,204.3 97.9,207.3 98.7,210.2 99.6,213.0 100.5,215.8 101.3,218.5 102.2,221.2 103.0,223.8 103.9,226.4 104.7,228.9 105.6,231.3 106.4,233.7 107.3,236.1 108.1,238.4 109.0,240.6 109.8,242.8 110.7,244.9 111.6,247.0 112.4,249.0 113.3,251.0 114.1,252.9 115.0,254.8 115.8,256.6 116.7,258.4 117.5,260.1 118.4,261.7 119.2,263.3 120.1,264.8 120.9,266.3 121.8,267.7 122.7,269.1 123.5,270.4 124.4,271.7 125.2,272.9 126.1,274.1 126.9,275.2 127.8,276.3 128.6,277.3 129.5,278.2 130.3,279.1 131.2,279.9 132.0,280.7 132.9,281.4 133.8,282.1 134.6,282.7 135.5,283.3 136.3,283.8 137.2,284.3 138.0,284.7 138.9,285.0 139.7,285.3 140.6,285.6 141.4,285.8 142.3,285.9 143.1,286.0 144.0,286.0 144.9,286.0 145.7,285.9 146.6,285.8 147.4,285.6 148.3,285.3 149.1,285.0 150.0,284.7 150.8,284.3 151.7,283.8 152.5,283.3 153.4,282.7 154.2,282.1 155.1,281.4 156.0,280.7 156.8,279.9 157.7,279.1 158.5,278.2 159.4,277.3 160.2,276.3 161.1,275.2 161.9,274.1 162.8,272.9 163.6,271.7 164.5,270.4 165.3,269.1 166.2,267.7 167.1,266.3 167.9,264.8 168.8,263.3 169.6,261.7 170.5,260.1 171.3,258.4 172.2,256.6 173.0,254.8 173.9,252.9 174.7,251.0 175.6,249.0 176.4,247.0 177.3,244.9 178.2,242.8 179.0,240.6 179.9,238.4 180.7,236.1 181.6,233.7 182.4,231.3 183.3,228.9 184.1,226.4 185.0,223.8 185.8,221.2 186.7,218.5 187.5,215.8 188.4,213.0 189.3,210.2 190.1,207.3 191.0,204.3 191.8,201.3 192.7,198.3 193.5,195.2 194.4,192.0 195.2,188.8 196.1,185.5 196.9,182.2 197.8,178.8 198.6,175.4 199.5,171.9 200.4,168.4 201.2,164.8 202.1,161.2 202.9,157.5 203.8,153.7 204.6,149.9 205.5,146.0 206.3,142.1 207.2,138.1 208.0,134.1 208.9,130.0 209.7,125.9 210.6,121.7 211.5,117.5 212.3,113.2 213.2,108.9 214.0,104.5 214.9,100.0 215.7,95.5 216.6,90.9 217.4,86.3 218.3,81.6 219.1,76.9 220.0,72.1 220.8,67.3 221.7,62.4 222.6,57.5 223.4,52.5 224.3,47.4 225.1,42.3 226.0,37.2 226.8,32.0 227.7,26.7 228.5,21.4 229.4,16.0" fill="none" stroke="#000" stroke-width="1.6" stroke-linejoin="round"/>
<circle cx="144.0" cy="286.0" r="3.0" fill="#000"/>
<line x1="53.8" y1="81.8" x2="73.9" y2="176.5" stroke="#000" stroke-width="1.6"/>
<polygon points="75.3,183.3 70.8,177.1 77.0,175.8" fill="#000"/>
<text x="49.5" y="196.9" font-size="13" text-anchor="middle" font-weight="bold">減る</text>
<line x1="212.7" y1="183.3" x2="232.8" y2="88.7" stroke="#000" stroke-width="1.6"/>
<polygon points="234.2,81.8 235.9,89.3 229.7,88.0" fill="#000"/>
<text x="229.1" y="196.9" font-size="13" text-anchor="middle" font-weight="bold">増える</text>
<text x="170.0" y="278.0" font-size="12" text-anchor="start" font-weight="bold">境目</text>
<line x1="168.0" y1="275.0" x2="155.0" y2="280.8" stroke="#000" stroke-width="1.1"/>
<polygon points="150.0,283.0 154.0,278.5 156.0,283.0" fill="#000"/>
</svg>
