<svg xmlns="http://www.w3.org/2000/svg" viewBox="0 0 266 330">
<title>変域2≦x≦4のyの変域（単調な例）</title>
<desc>【この図の意図】変域がx&gt;0に収まるときは端の値だけで済むことを、曲線・x軸・y軸の3つの太線対応で見せる。【主要な数値・設定】y=x²／変域[2,4]を太線／変域両端の黒丸（y座標は答えのため非表示）／y軸数値は5,10,15のみ。【AIに同じ種類の図を描かせるときの説明文】「変域2≦x≦4のyの変域（単調な例）。変域がx&gt;0に収まるときは端の値だけで済むことを、曲線・x軸・y軸の3つの太線対応で見せる。数値・設定: y=x²／変域[2,4]を太線／変域両端の黒丸（y座標は答えのため非表示）／y軸数値は5,10,15のみ。白黒印刷向けのシンプルな教材図（SVG）としてかいて。」——この説明文を生成AIに渡せば同型の図を描かせられる。数値を変えれば類題用の図も作れる。</desc>
<!-- L07_fig1_domain_monotone.svg | 変域2≦x≦4のyの変域（単調な例） -->
<!-- generated by assets_provenance/generate_figures.py on 2026-07-17 (docs/SPEC_figures.md準拠（内部規約の要旨は同SPECに反映済み）・SVG直接編集禁止/スクリプト改修で再生成) -->
<rect x="0" y="0" width="266" height="330" fill="#fff"/>
<line x1="38.0" y1="288.0" x2="243.0" y2="288.0" stroke="#000" stroke-width="1.2"/>
<polygon points="250.0,288.0 243.0,291.1 243.0,284.9" fill="#000"/>
<line x1="72.0" y1="304.0" x2="72.0" y2="15.0" stroke="#000" stroke-width="1.2"/>
<polygon points="72.0,8.0 75.2,15.0 68.8,15.0" fill="#000"/>
<text x="252.0" y="292.5" font-size="13" text-anchor="start">x</text>
<text x="79.0" y="10.0" font-size="13" text-anchor="start">y</text>
<line x1="38.0" y1="285.0" x2="38.0" y2="291.0" stroke="#000" stroke-width="1.0"/>
<line x1="106.0" y1="285.0" x2="106.0" y2="291.0" stroke="#000" stroke-width="1.0"/>
<line x1="140.0" y1="285.0" x2="140.0" y2="291.0" stroke="#000" stroke-width="1.0"/>
<line x1="174.0" y1="285.0" x2="174.0" y2="291.0" stroke="#000" stroke-width="1.0"/>
<line x1="208.0" y1="285.0" x2="208.0" y2="291.0" stroke="#000" stroke-width="1.0"/>
<line x1="242.0" y1="285.0" x2="242.0" y2="291.0" stroke="#000" stroke-width="1.0"/>
<line x1="69.0" y1="304.0" x2="75.0" y2="304.0" stroke="#000" stroke-width="1.0"/>
<line x1="69.0" y1="272.0" x2="75.0" y2="272.0" stroke="#000" stroke-width="1.0"/>
<line x1="69.0" y1="256.0" x2="75.0" y2="256.0" stroke="#000" stroke-width="1.0"/>
<line x1="69.0" y1="240.0" x2="75.0" y2="240.0" stroke="#000" stroke-width="1.0"/>
<line x1="69.0" y1="224.0" x2="75.0" y2="224.0" stroke="#000" stroke-width="1.0"/>
<line x1="69.0" y1="208.0" x2="75.0" y2="208.0" stroke="#000" stroke-width="1.0"/>
<line x1="69.0" y1="192.0" x2="75.0" y2="192.0" stroke="#000" stroke-width="1.0"/>
<line x1="69.0" y1="176.0" x2="75.0" y2="176.0" stroke="#000" stroke-width="1.0"/>
<line x1="69.0" y1="160.0" x2="75.0" y2="160.0" stroke="#000" stroke-width="1.0"/>
<line x1="69.0" y1="144.0" x2="75.0" y2="144.0" stroke="#000" stroke-width="1.0"/>
<line x1="69.0" y1="128.0" x2="75.0" y2="128.0" stroke="#000" stroke-width="1.0"/>
<line x1="69.0" y1="112.0" x2="75.0" y2="112.0" stroke="#000" stroke-width="1.0"/>
<line x1="69.0" y1="96.0" x2="75.0" y2="96.0" stroke="#000" stroke-width="1.0"/>
<line x1="69.0" y1="80.0" x2="75.0" y2="80.0" stroke="#000" stroke-width="1.0"/>
<line x1="69.0" y1="64.0" x2="75.0" y2="64.0" stroke="#000" stroke-width="1.0"/>
<line x1="69.0" y1="48.0" x2="75.0" y2="48.0" stroke="#000" stroke-width="1.0"/>
<line x1="69.0" y1="32.0" x2="75.0" y2="32.0" stroke="#000" stroke-width="1.0"/>
<line x1="69.0" y1="16.0" x2="75.0" y2="16.0" stroke="#000" stroke-width="1.0"/>
<text x="106.0" y="302.0" font-size="11" text-anchor="middle">1</text>
<text x="140.0" y="302.0" font-size="11" text-anchor="middle">2</text>
<text x="174.0" y="302.0" font-size="11" text-anchor="middle">3</text>
<text x="208.0" y="302.0" font-size="11" text-anchor="middle">4</text>
<text x="66.0" y="211.8" font-size="11" text-anchor="end">5</text>
<text x="66.0" y="131.8" font-size="11" text-anchor="end">10</text>
<text x="66.0" y="51.9" font-size="11" text-anchor="end">15</text>
<text x="67.0" y="302.0" font-size="11" text-anchor="end">O</text>
<polyline points="38.0,272.0 38.8,272.7 39.6,273.5 40.4,274.2 41.2,274.8 42.0,275.5 42.8,276.2 43.5,276.8 44.3,277.4 45.1,278.0 45.9,278.6 46.7,279.1 47.5,279.7 48.3,280.2 49.1,280.7 49.9,281.2 50.7,281.7 51.5,282.2 52.3,282.6 53.0,283.0 53.8,283.4 54.6,283.8 55.4,284.2 56.2,284.5 57.0,284.9 57.8,285.2 58.6,285.5 59.4,285.8 60.2,286.1 61.0,286.3 61.8,286.5 62.5,286.8 63.3,287.0 64.1,287.1 64.9,287.3 65.7,287.5 66.5,287.6 67.3,287.7 68.1,287.8 68.9,287.9 69.7,287.9 70.5,288.0 71.3,288.0 72.0,288.0 72.8,288.0 73.6,288.0 74.4,287.9 75.2,287.9 76.0,287.8 76.8,287.7 77.6,287.6 78.4,287.4 79.2,287.3 80.0,287.1 80.8,286.9 81.5,286.7 82.3,286.5 83.1,286.3 83.9,286.0 84.7,285.8 85.5,285.5 86.3,285.2 87.1,284.8 87.9,284.5 88.7,284.2 89.5,283.8 90.3,283.4 91.0,283.0 91.8,282.6 92.6,282.1 93.4,281.6 94.2,281.2 95.0,280.7 95.8,280.2 96.6,279.6 97.4,279.1 98.2,278.5 99.0,277.9 99.8,277.3 100.5,276.7 101.3,276.1 102.1,275.4 102.9,274.8 103.7,274.1 104.5,273.4 105.3,272.7 106.1,271.9 106.9,271.2 107.7,270.4 108.5,269.6 109.3,268.8 110.0,268.0 110.8,267.1 111.6,266.3 112.4,265.4 113.2,264.5 114.0,263.6 114.8,262.6 115.6,261.7 116.4,260.7 117.2,259.8 118.0,258.8 118.8,257.7 119.6,256.7 120.3,255.7 121.1,254.6 121.9,253.5 122.7,252.4 123.5,251.3 124.3,250.1 125.1,249.0 125.9,247.8 126.7,246.6 127.5,245.4 128.3,244.2 129.1,242.9 129.8,241.7 130.6,240.4 131.4,239.1 132.2,237.8 133.0,236.5 133.8,235.1 134.6,233.8 135.4,232.4 136.2,231.0 137.0,229.6 137.8,228.1 138.6,226.7 139.3,225.2 140.1,223.7 140.9,222.2 141.7,220.7 142.5,219.2 143.3,217.6 144.1,216.1 144.9,214.5 145.7,212.9 146.5,211.2 147.3,209.6 148.1,207.9 148.8,206.3 149.6,204.6 150.4,202.9 151.2,201.1 152.0,199.4 152.8,197.6 153.6,195.8 154.4,194.1 155.2,192.2 156.0,190.4 156.8,188.6 157.6,186.7 158.3,184.8 159.1,182.9 159.9,181.0 160.7,179.1 161.5,177.1 162.3,175.1 163.1,173.1 163.9,171.1 164.7,169.1 165.5,167.1 166.3,165.0 167.1,162.9 167.8,160.8 168.6,158.7 169.4,156.6 170.2,154.5 171.0,152.3 171.8,150.1 172.6,147.9 173.4,145.7 174.2,143.5 175.0,141.2 175.8,139.0 176.6,136.7 177.3,134.4 178.1,132.1 178.9,129.7 179.7,127.4 180.5,125.0 181.3,122.6 182.1,120.2 182.9,117.8 183.7,115.4 184.5,112.9 185.3,110.4 186.1,107.9 186.8,105.4 187.6,102.9 188.4,100.4 189.2,97.8 190.0,95.2 190.8,92.6 191.6,90.0 192.4,87.4 193.2,84.7 194.0,82.1 194.8,79.4 195.6,76.7 196.4,74.0 197.1,71.2 197.9,68.5 198.7,65.7 199.5,62.9 200.3,60.1 201.1,57.3 201.9,54.5 202.7,51.6 203.5,48.7 204.3,45.9 205.1,42.9 205.9,40.0 206.6,37.1 207.4,34.1 208.2,31.1 209.0,28.2 209.8,25.1 210.6,22.1 211.4,19.1 212.2,16.0" fill="none" stroke="#000" stroke-width="1.6" stroke-linejoin="round"/>
<polyline points="140.0,224.0 140.6,222.9 141.1,221.8 141.7,220.8 142.3,219.7 142.8,218.6 143.4,217.4 144.0,216.3 144.5,215.2 145.1,214.0 145.7,212.9 146.2,211.7 146.8,210.6 147.4,209.4 147.9,208.2 148.5,207.0 149.1,205.8 149.6,204.6 150.2,203.4 150.8,202.1 151.3,200.9 151.9,199.6 152.5,198.4 153.0,197.1 153.6,195.8 154.2,194.6 154.7,193.3 155.3,192.0 155.9,190.6 156.4,189.3 157.0,188.0 157.6,186.7 158.1,185.3 158.7,184.0 159.3,182.6 159.8,181.2 160.4,179.8 161.0,178.4 161.5,177.0 162.1,175.6 162.7,174.2 163.2,172.8 163.8,171.4 164.4,169.9 164.9,168.5 165.5,167.0 166.1,165.5 166.6,164.0 167.2,162.6 167.8,161.1 168.3,159.6 168.9,158.0 169.5,156.5 170.0,155.0 170.6,153.4 171.2,151.9 171.7,150.3 172.3,148.8 172.9,147.2 173.4,145.6 174.0,144.0 174.6,142.4 175.1,140.8 175.7,139.2 176.3,137.5 176.8,135.9 177.4,134.2 178.0,132.6 178.5,130.9 179.1,129.2 179.7,127.6 180.2,125.9 180.8,124.2 181.4,122.4 181.9,120.7 182.5,119.0 183.1,117.3 183.6,115.5 184.2,113.8 184.8,112.0 185.3,110.2 185.9,108.4 186.5,106.6 187.0,104.8 187.6,103.0 188.2,101.2 188.7,99.4 189.3,97.6 189.9,95.7 190.4,93.9 191.0,92.0 191.6,90.1 192.1,88.2 192.7,86.4 193.3,84.5 193.8,82.6 194.4,80.6 195.0,78.7 195.5,76.8 196.1,74.8 196.7,72.9 197.2,70.9 197.8,69.0 198.4,67.0 198.9,65.0 199.5,63.0 200.1,61.0 200.6,59.0 201.2,57.0 201.8,54.9 202.3,52.9 202.9,50.8 203.5,48.8 204.0,46.7 204.6,44.6 205.2,42.6 205.7,40.5 206.3,38.4 206.9,36.2 207.4,34.1 208.0,32.0" fill="none" stroke="#000" stroke-width="3.2" stroke-linejoin="round"/>
<circle cx="140.0" cy="224.0" r="3.2" fill="#000"/>
<line x1="140.0" y1="288.0" x2="140.0" y2="224.0" stroke="#000" stroke-width="1.1" stroke-dasharray="6 4"/>
<line x1="72.0" y1="224.0" x2="140.0" y2="224.0" stroke="#000" stroke-width="1.1" stroke-dasharray="6 4"/>
<circle cx="208.0" cy="32.0" r="3.2" fill="#000"/>
<line x1="208.0" y1="288.0" x2="208.0" y2="32.0" stroke="#000" stroke-width="1.1" stroke-dasharray="6 4"/>
<line x1="72.0" y1="32.0" x2="208.0" y2="32.0" stroke="#000" stroke-width="1.1" stroke-dasharray="6 4"/>
<line x1="140.0" y1="288.0" x2="208.0" y2="288.0" stroke="#000" stroke-width="3.2"/>
<line x1="72.0" y1="224.0" x2="72.0" y2="32.0" stroke="#000" stroke-width="3.2"/>
</svg>
