<svg xmlns="http://www.w3.org/2000/svg" viewBox="0 0 264 224">
<title>変域−2≦x≦1のyの変域（x=0をまたぐ例）</title>
<desc>【この図の意図】変域が増減の境目x=0をまたぐと最小が端でなく頂点になる——落とし穴を目で確認する。【主要な数値・設定】y=x²／変域[−2,1]を太線／黒丸(−2,4),(0,0),(1,1)／原点に「！」。【AIに同じ種類の図を描かせるときの説明文】「変域−2≦x≦1のyの変域（x=0をまたぐ例）。変域が増減の境目x=0をまたぐと最小が端でなく頂点になる——落とし穴を目で確認する。数値・設定: y=x²／変域[−2,1]を太線／黒丸(−2,4),(0,0),(1,1)／原点に「！」。白黒印刷向けのシンプルな教材図（SVG）としてかいて。」——この説明文を生成AIに渡せば同型の図を描かせられる。数値を変えれば類題用の図も作れる。</desc>
<!-- L07_fig2_domain_trap.svg | 変域−2≦x≦1のyの変域（x=0をまたぐ例） -->
<!-- generated by assets_provenance/generate_figures.py on 2026-07-17 (docs/SPEC_figures.md準拠（内部規約の要旨は同SPECに反映済み）・SVG直接編集禁止/スクリプト改修で再生成) -->
<rect x="0" y="0" width="264" height="224" fill="#fff"/>
<line x1="36.0" y1="168.0" x2="241.0" y2="168.0" stroke="#000" stroke-width="1.2"/>
<polygon points="248.0,168.0 241.0,171.2 241.0,164.8" fill="#000"/>
<line x1="138.0" y1="198.0" x2="138.0" y2="17.0" stroke="#000" stroke-width="1.2"/>
<polygon points="138.0,10.0 141.2,17.0 134.8,17.0" fill="#000"/>
<text x="250.0" y="172.5" font-size="13" text-anchor="start">x</text>
<text x="145.0" y="12.0" font-size="13" text-anchor="start">y</text>
<line x1="36.0" y1="165.0" x2="36.0" y2="171.0" stroke="#000" stroke-width="1.0"/>
<line x1="70.0" y1="165.0" x2="70.0" y2="171.0" stroke="#000" stroke-width="1.0"/>
<line x1="104.0" y1="165.0" x2="104.0" y2="171.0" stroke="#000" stroke-width="1.0"/>
<line x1="172.0" y1="165.0" x2="172.0" y2="171.0" stroke="#000" stroke-width="1.0"/>
<line x1="206.0" y1="165.0" x2="206.0" y2="171.0" stroke="#000" stroke-width="1.0"/>
<line x1="240.0" y1="165.0" x2="240.0" y2="171.0" stroke="#000" stroke-width="1.0"/>
<line x1="135.0" y1="198.0" x2="141.0" y2="198.0" stroke="#000" stroke-width="1.0"/>
<line x1="135.0" y1="138.0" x2="141.0" y2="138.0" stroke="#000" stroke-width="1.0"/>
<line x1="135.0" y1="108.0" x2="141.0" y2="108.0" stroke="#000" stroke-width="1.0"/>
<line x1="135.0" y1="78.0" x2="141.0" y2="78.0" stroke="#000" stroke-width="1.0"/>
<line x1="135.0" y1="48.0" x2="141.0" y2="48.0" stroke="#000" stroke-width="1.0"/>
<line x1="135.0" y1="18.0" x2="141.0" y2="18.0" stroke="#000" stroke-width="1.0"/>
<text x="70.0" y="182.0" font-size="11" text-anchor="middle">−2</text>
<text x="104.0" y="182.0" font-size="11" text-anchor="middle">−1</text>
<text x="172.0" y="182.0" font-size="11" text-anchor="middle">1</text>
<text x="206.0" y="182.0" font-size="11" text-anchor="middle">2</text>
<text x="132.0" y="141.8" font-size="11" text-anchor="end">1</text>
<text x="132.0" y="111.8" font-size="11" text-anchor="end">2</text>
<text x="132.0" y="81.8" font-size="11" text-anchor="end">3</text>
<text x="132.0" y="51.9" font-size="11" text-anchor="end">4</text>
<text x="132.0" y="21.9" font-size="11" text-anchor="end">5</text>
<text x="133.0" y="182.0" font-size="11" text-anchor="end">O</text>
<polyline points="62.0,18.0 62.7,21.0 63.5,23.9 64.3,26.9 65.0,29.8 65.8,32.6 66.5,35.5 67.3,38.3 68.1,41.0 68.8,43.8 69.6,46.5 70.3,49.2 71.1,51.8 71.9,54.5 72.6,57.1 73.4,59.6 74.1,62.2 74.9,64.7 75.7,67.1 76.4,69.6 77.2,72.0 77.9,74.4 78.7,76.7 79.5,79.1 80.2,81.4 81.0,83.6 81.7,85.9 82.5,88.1 83.3,90.2 84.0,92.4 84.8,94.5 85.5,96.6 86.3,98.6 87.1,100.7 87.8,102.7 88.6,104.6 89.3,106.6 90.1,108.5 90.9,110.3 91.6,112.2 92.4,114.0 93.1,115.8 93.9,117.5 94.7,119.3 95.4,121.0 96.2,122.6 96.9,124.3 97.7,125.9 98.5,127.4 99.2,129.0 100.0,130.5 100.7,132.0 101.5,133.4 102.3,134.9 103.0,136.3 103.8,137.6 104.5,139.0 105.3,140.3 106.1,141.5 106.8,142.8 107.6,144.0 108.3,145.2 109.1,146.3 109.9,147.5 110.6,148.6 111.4,149.6 112.2,150.7 112.9,151.7 113.7,152.6 114.4,153.6 115.2,154.5 116.0,155.4 116.7,156.2 117.5,157.1 118.2,157.9 119.0,158.6 119.8,159.4 120.5,160.1 121.3,160.7 122.0,161.4 122.8,162.0 123.6,162.6 124.3,163.1 125.1,163.7 125.8,164.2 126.6,164.6 127.4,165.1 128.1,165.5 128.9,165.8 129.6,166.2 130.4,166.5 131.2,166.8 131.9,167.0 132.7,167.3 133.4,167.5 134.2,167.6 135.0,167.8 135.7,167.9 136.5,167.9 137.2,168.0 138.0,168.0 138.8,168.0 139.5,167.9 140.3,167.9 141.0,167.8 141.8,167.6 142.6,167.5 143.3,167.3 144.1,167.0 144.8,166.8 145.6,166.5 146.4,166.2 147.1,165.8 147.9,165.5 148.6,165.1 149.4,164.6 150.2,164.2 150.9,163.7 151.7,163.1 152.4,162.6 153.2,162.0 154.0,161.4 154.7,160.7 155.5,160.1 156.2,159.4 157.0,158.6 157.8,157.9 158.5,157.1 159.3,156.2 160.0,155.4 160.8,154.5 161.6,153.6 162.3,152.6 163.1,151.7 163.8,150.7 164.6,149.6 165.4,148.6 166.1,147.5 166.9,146.3 167.7,145.2 168.4,144.0 169.2,142.8 169.9,141.5 170.7,140.3 171.5,139.0 172.2,137.6 173.0,136.3 173.7,134.9 174.5,133.4 175.3,132.0 176.0,130.5 176.8,129.0 177.5,127.4 178.3,125.9 179.1,124.3 179.8,122.6 180.6,121.0 181.3,119.3 182.1,117.5 182.9,115.8 183.6,114.0 184.4,112.2 185.1,110.3 185.9,108.5 186.7,106.6 187.4,104.6 188.2,102.7 188.9,100.7 189.7,98.6 190.5,96.6 191.2,94.5 192.0,92.4 192.7,90.2 193.5,88.1 194.3,85.9 195.0,83.6 195.8,81.4 196.5,79.1 197.3,76.7 198.1,74.4 198.8,72.0 199.6,69.6 200.3,67.1 201.1,64.7 201.9,62.2 202.6,59.6 203.4,57.1 204.1,54.5 204.9,51.8 205.7,49.2 206.4,46.5 207.2,43.8 207.9,41.0 208.7,38.3 209.5,35.5 210.2,32.6 211.0,29.8 211.7,26.9 212.5,23.9 213.3,21.0 214.0,18.0" fill="none" stroke="#000" stroke-width="1.6" stroke-linejoin="round"/>
<polyline points="70.0,48.0 70.8,51.0 71.7,53.9 72.5,56.8 73.4,59.7 74.2,62.5 75.1,65.3 76.0,68.1 76.8,70.8 77.7,73.5 78.5,76.1 79.3,78.7 80.2,81.3 81.0,83.8 81.9,86.3 82.8,88.8 83.6,91.2 84.5,93.6 85.3,95.9 86.2,98.2 87.0,100.5 87.8,102.7 88.7,104.9 89.5,107.1 90.4,109.2 91.2,111.3 92.1,113.3 93.0,115.3 93.8,117.3 94.7,119.2 95.5,121.1 96.3,123.0 97.2,124.8 98.0,126.6 98.9,128.3 99.8,130.0 100.6,131.7 101.5,133.3 102.3,134.9 103.2,136.5 104.0,138.0 104.8,139.5 105.7,140.9 106.5,142.3 107.4,143.7 108.2,145.0 109.1,146.3 110.0,147.6 110.8,148.8 111.7,150.0 112.5,151.1 113.3,152.2 114.2,153.3 115.0,154.3 115.9,155.3 116.8,156.3 117.6,157.2 118.5,158.1 119.3,158.9 120.2,159.7 121.0,160.5 121.8,161.2 122.7,161.9 123.5,162.6 124.4,163.2 125.2,163.8 126.1,164.3 127.0,164.8 127.8,165.3 128.7,165.7 129.5,166.1 130.3,166.5 131.2,166.8 132.1,167.1 132.9,167.3 133.8,167.5 134.6,167.7 135.4,167.8 136.3,167.9 137.2,168.0 138.0,168.0 138.8,168.0 139.7,167.9 140.6,167.8 141.4,167.7 142.2,167.5 143.1,167.3 143.9,167.1 144.8,166.8 145.7,166.5 146.5,166.1 147.3,165.7 148.2,165.3 149.1,164.8 149.9,164.3 150.8,163.8 151.6,163.2 152.4,162.6 153.3,161.9 154.2,161.2 155.0,160.5 155.8,159.7 156.7,158.9 157.6,158.1 158.4,157.2 159.2,156.3 160.1,155.3 160.9,154.3 161.8,153.3 162.7,152.2 163.5,151.1 164.3,150.0 165.2,148.8 166.1,147.6 166.9,146.3 167.8,145.0 168.6,143.7 169.4,142.3 170.3,140.9 171.2,139.5 172.0,138.0" fill="none" stroke="#000" stroke-width="3.2" stroke-linejoin="round"/>
<circle cx="70.0" cy="48.0" r="3.2" fill="#000"/>
<circle cx="138.0" cy="168.0" r="3.2" fill="#000"/>
<circle cx="172.0" cy="138.0" r="3.2" fill="#000"/>
<text x="152.0" y="158.0" font-size="14" text-anchor="middle" font-weight="bold">！</text>
</svg>
