<svg xmlns="http://www.w3.org/2000/svg" viewBox="0 0 302 326">
<title>2点を結ぶ直線の傾き——区間でちがう変化の割合</title>
<desc>【この図の意図】変化の割合=2点を結ぶ直線の傾き。あとの区間ほど直線が立つことを見せる。【主要な数値・設定】実線(1,1)-(3,9)／破線(3,9)-(5,25)／2区間の傾きはassertのみ（値は図に書かない）。【AIに同じ種類の図を描かせるときの説明文】「2点を結ぶ直線の傾き——区間でちがう変化の割合。変化の割合=2点を結ぶ直線の傾き。あとの区間ほど直線が立つことを見せる。数値・設定: 実線(1,1)-(3,9)／破線(3,9)-(5,25)／2区間の傾きはassertのみ（値は図に書かない）。白黒印刷向けのシンプルな教材図（SVG）としてかいて。」——この説明文を生成AIに渡せば同型の図を描かせられる。数値を変えれば類題用の図も作れる。</desc>
<!-- L08_fig1_secant_slopes.svg | 2点を結ぶ直線の傾き——区間でちがう変化の割合 -->
<!-- generated by assets_provenance/generate_figures.py on 2026-07-17 (docs/SPEC_figures.md準拠（内部規約の要旨は同SPECに反映済み）・SVG直接編集禁止/スクリプト改修で再生成) -->
<rect x="0" y="0" width="302" height="326" fill="#fff"/>
<line x1="40.0" y1="289.0" x2="279.0" y2="289.0" stroke="#000" stroke-width="1.2"/>
<polygon points="286.0,289.0 279.0,292.1 279.0,285.9" fill="#000"/>
<line x1="74.0" y1="299.5" x2="74.0" y2="15.0" stroke="#000" stroke-width="1.2"/>
<polygon points="74.0,8.0 77.2,15.0 70.8,15.0" fill="#000"/>
<text x="288.0" y="293.5" font-size="13" text-anchor="start">x</text>
<text x="81.0" y="10.0" font-size="13" text-anchor="start">y</text>
<line x1="40.0" y1="286.0" x2="40.0" y2="292.0" stroke="#000" stroke-width="1.0"/>
<line x1="108.0" y1="286.0" x2="108.0" y2="292.0" stroke="#000" stroke-width="1.0"/>
<line x1="142.0" y1="286.0" x2="142.0" y2="292.0" stroke="#000" stroke-width="1.0"/>
<line x1="176.0" y1="286.0" x2="176.0" y2="292.0" stroke="#000" stroke-width="1.0"/>
<line x1="210.0" y1="286.0" x2="210.0" y2="292.0" stroke="#000" stroke-width="1.0"/>
<line x1="244.0" y1="286.0" x2="244.0" y2="292.0" stroke="#000" stroke-width="1.0"/>
<line x1="278.0" y1="286.0" x2="278.0" y2="292.0" stroke="#000" stroke-width="1.0"/>
<line x1="71.0" y1="299.5" x2="77.0" y2="299.5" stroke="#000" stroke-width="1.0"/>
<line x1="71.0" y1="278.5" x2="77.0" y2="278.5" stroke="#000" stroke-width="1.0"/>
<line x1="71.0" y1="268.0" x2="77.0" y2="268.0" stroke="#000" stroke-width="1.0"/>
<line x1="71.0" y1="257.5" x2="77.0" y2="257.5" stroke="#000" stroke-width="1.0"/>
<line x1="71.0" y1="247.0" x2="77.0" y2="247.0" stroke="#000" stroke-width="1.0"/>
<line x1="71.0" y1="236.5" x2="77.0" y2="236.5" stroke="#000" stroke-width="1.0"/>
<line x1="71.0" y1="226.0" x2="77.0" y2="226.0" stroke="#000" stroke-width="1.0"/>
<line x1="71.0" y1="215.5" x2="77.0" y2="215.5" stroke="#000" stroke-width="1.0"/>
<line x1="71.0" y1="205.0" x2="77.0" y2="205.0" stroke="#000" stroke-width="1.0"/>
<line x1="71.0" y1="194.5" x2="77.0" y2="194.5" stroke="#000" stroke-width="1.0"/>
<line x1="71.0" y1="184.0" x2="77.0" y2="184.0" stroke="#000" stroke-width="1.0"/>
<line x1="71.0" y1="173.5" x2="77.0" y2="173.5" stroke="#000" stroke-width="1.0"/>
<line x1="71.0" y1="163.0" x2="77.0" y2="163.0" stroke="#000" stroke-width="1.0"/>
<line x1="71.0" y1="152.5" x2="77.0" y2="152.5" stroke="#000" stroke-width="1.0"/>
<line x1="71.0" y1="142.0" x2="77.0" y2="142.0" stroke="#000" stroke-width="1.0"/>
<line x1="71.0" y1="131.5" x2="77.0" y2="131.5" stroke="#000" stroke-width="1.0"/>
<line x1="71.0" y1="121.0" x2="77.0" y2="121.0" stroke="#000" stroke-width="1.0"/>
<line x1="71.0" y1="110.5" x2="77.0" y2="110.5" stroke="#000" stroke-width="1.0"/>
<line x1="71.0" y1="100.0" x2="77.0" y2="100.0" stroke="#000" stroke-width="1.0"/>
<line x1="71.0" y1="89.5" x2="77.0" y2="89.5" stroke="#000" stroke-width="1.0"/>
<line x1="71.0" y1="79.0" x2="77.0" y2="79.0" stroke="#000" stroke-width="1.0"/>
<line x1="71.0" y1="68.5" x2="77.0" y2="68.5" stroke="#000" stroke-width="1.0"/>
<line x1="71.0" y1="58.0" x2="77.0" y2="58.0" stroke="#000" stroke-width="1.0"/>
<line x1="71.0" y1="47.5" x2="77.0" y2="47.5" stroke="#000" stroke-width="1.0"/>
<line x1="71.0" y1="37.0" x2="77.0" y2="37.0" stroke="#000" stroke-width="1.0"/>
<line x1="71.0" y1="26.5" x2="77.0" y2="26.5" stroke="#000" stroke-width="1.0"/>
<line x1="71.0" y1="16.0" x2="77.0" y2="16.0" stroke="#000" stroke-width="1.0"/>
<text x="108.0" y="303.0" font-size="11" text-anchor="middle">1</text>
<text x="142.0" y="303.0" font-size="11" text-anchor="middle">2</text>
<text x="176.0" y="303.0" font-size="11" text-anchor="middle">3</text>
<text x="210.0" y="303.0" font-size="11" text-anchor="middle">4</text>
<text x="244.0" y="303.0" font-size="11" text-anchor="middle">5</text>
<text x="68.0" y="271.9" font-size="11" text-anchor="end">2</text>
<text x="68.0" y="250.8" font-size="11" text-anchor="end">4</text>
<text x="68.0" y="229.8" font-size="11" text-anchor="end">6</text>
<text x="68.0" y="208.8" font-size="11" text-anchor="end">8</text>
<text x="68.0" y="187.8" font-size="11" text-anchor="end">10</text>
<text x="68.0" y="166.8" font-size="11" text-anchor="end">12</text>
<text x="68.0" y="145.8" font-size="11" text-anchor="end">14</text>
<text x="68.0" y="124.8" font-size="11" text-anchor="end">16</text>
<text x="68.0" y="103.8" font-size="11" text-anchor="end">18</text>
<text x="68.0" y="82.8" font-size="11" text-anchor="end">20</text>
<text x="68.0" y="61.9" font-size="11" text-anchor="end">22</text>
<text x="68.0" y="40.9" font-size="11" text-anchor="end">24</text>
<text x="68.0" y="19.9" font-size="11" text-anchor="end">26</text>
<text x="69.0" y="303.0" font-size="11" text-anchor="end">O</text>
<polyline points="40.0,278.5 40.9,279.0 41.7,279.5 42.6,280.0 43.5,280.5 44.3,281.0 45.2,281.5 46.0,281.9 46.9,282.3 47.8,282.8 48.6,283.2 49.5,283.5 50.4,283.9 51.2,284.3 52.1,284.6 53.0,285.0 53.8,285.3 54.7,285.6 55.6,285.9 56.4,286.2 57.3,286.5 58.1,286.7 59.0,287.0 59.9,287.2 60.7,287.4 61.6,287.6 62.5,287.8 63.3,288.0 64.2,288.1 65.1,288.3 65.9,288.4 66.8,288.5 67.6,288.6 68.5,288.7 69.4,288.8 70.2,288.9 71.1,288.9 72.0,289.0 72.8,289.0 73.7,289.0 74.6,289.0 75.4,289.0 76.3,289.0 77.2,288.9 78.0,288.9 78.9,288.8 79.7,288.7 80.6,288.6 81.5,288.5 82.3,288.4 83.2,288.2 84.1,288.1 84.9,287.9 85.8,287.7 86.7,287.5 87.5,287.3 88.4,287.1 89.2,286.9 90.1,286.6 91.0,286.4 91.8,286.1 92.7,285.8 93.6,285.5 94.4,285.2 95.3,284.9 96.2,284.5 97.0,284.2 97.9,283.8 98.8,283.4 99.6,283.0 100.5,282.6 101.3,282.2 102.2,281.8 103.1,281.3 103.9,280.9 104.8,280.4 105.7,279.9 106.5,279.4 107.4,278.9 108.3,278.3 109.1,277.8 110.0,277.2 110.9,276.7 111.7,276.1 112.6,275.5 113.4,274.9 114.3,274.2 115.2,273.6 116.0,273.0 116.9,272.3 117.8,271.6 118.6,270.9 119.5,270.2 120.4,269.5 121.2,268.7 122.1,268.0 122.9,267.2 123.8,266.5 124.7,265.7 125.5,264.9 126.4,264.1 127.3,263.2 128.1,262.4 129.0,261.5 129.9,260.7 130.7,259.8 131.6,258.9 132.5,258.0 133.3,257.0 134.2,256.1 135.0,255.2 135.9,254.2 136.8,253.2 137.6,252.2 138.5,251.2 139.4,250.2 140.2,249.2 141.1,248.1 142.0,247.1 142.8,246.0 143.7,244.9 144.5,243.8 145.4,242.7 146.3,241.6 147.1,240.4 148.0,239.3 148.9,238.1 149.7,236.9 150.6,235.7 151.5,234.5 152.3,233.3 153.2,232.0 154.1,230.8 154.9,229.5 155.8,228.3 156.6,227.0 157.5,225.7 158.4,224.3 159.2,223.0 160.1,221.7 161.0,220.3 161.8,218.9 162.7,217.6 163.6,216.2 164.4,214.7 165.3,213.3 166.1,211.9 167.0,210.4 167.9,209.0 168.7,207.5 169.6,206.0 170.5,204.5 171.3,203.0 172.2,201.4 173.1,199.9 173.9,198.3 174.8,196.7 175.7,195.1 176.5,193.5 177.4,191.9 178.2,190.3 179.1,188.7 180.0,187.0 180.8,185.3 181.7,183.6 182.6,181.9 183.4,180.2 184.3,178.5 185.2,176.8 186.0,175.0 186.9,173.3 187.7,171.5 188.6,169.7 189.5,167.9 190.3,166.1 191.2,164.2 192.1,162.4 192.9,160.5 193.8,158.6 194.7,156.8 195.5,154.9 196.4,152.9 197.3,151.0 198.1,149.1 199.0,147.1 199.8,145.2 200.7,143.2 201.6,141.2 202.4,139.2 203.3,137.1 204.2,135.1 205.0,133.1 205.9,131.0 206.8,128.9 207.6,126.8 208.5,124.7 209.3,122.6 210.2,120.5 211.1,118.3 211.9,116.2 212.8,114.0 213.7,111.8 214.5,109.6 215.4,107.4 216.3,105.2 217.1,102.9 218.0,100.7 218.9,98.4 219.7,96.1 220.6,93.8 221.4,91.5 222.3,89.2 223.2,86.9 224.0,84.5 224.9,82.2 225.8,79.8 226.6,77.4 227.5,75.0 228.4,72.6 229.2,70.2 230.1,67.7 231.0,65.3 231.8,62.8 232.7,60.3 233.5,57.8 234.4,55.3 235.3,52.8 236.1,50.2 237.0,47.7 237.9,45.1 238.7,42.5 239.6,39.9 240.5,37.3 241.3,34.7 242.2,32.1 243.0,29.4 243.9,26.8 244.8,24.1 245.6,21.4 246.5,18.7 247.4,16.0" fill="none" stroke="#000" stroke-width="1.6" stroke-linejoin="round"/>
<line x1="108.0" y1="278.5" x2="176.0" y2="194.5" stroke="#000" stroke-width="1.1"/>
<line x1="176.0" y1="194.5" x2="244.0" y2="26.5" stroke="#000" stroke-width="1.1" stroke-dasharray="6 4"/>
<circle cx="108.0" cy="278.5" r="3.2" fill="#000"/>
<circle cx="176.0" cy="194.5" r="3.2" fill="#000"/>
<circle cx="244.0" cy="26.5" r="3.2" fill="#000"/>
</svg>
