<svg xmlns="http://www.w3.org/2000/svg" viewBox="0 0 674 228">
<title>中学関数勢ぞろい——比例・反比例・一次関数・y=ax²</title>
<desc>【この図の意図】3年間の関数4種を1枚で見わたし、形はちがっても同じ「関数」の家族だと見せる。【主要な数値・設定】①y=2x ②y=6/x（2本1組）③y=x+2 ④y=x²／4パネル1ファイル統合。【AIに同じ種類の図を描かせるときの説明文】「中学関数勢ぞろい——比例・反比例・一次関数・y=ax²。3年間の関数4種を1枚で見わたし、形はちがっても同じ「関数」の家族だと見せる。数値・設定: ①y=2x ②y=6/x（2本1組）③y=x+2 ④y=x²／4パネル1ファイル統合。白黒印刷向けのシンプルな教材図（SVG）としてかいて。」——この説明文を生成AIに渡せば同型の図を描かせられる。数値を変えれば類題用の図も作れる。</desc>
<!-- L09_fig1_four_function_family.svg | 中学関数勢ぞろい——比例・反比例・一次関数・y=ax² -->
<!-- generated by assets_provenance/generate_figures.py on 2026-07-17 (docs/SPEC_figures.md準拠（内部規約の要旨は同SPECに反映済み）・SVG直接編集禁止/スクリプト改修で再生成) -->
<rect x="0" y="0" width="674" height="228" fill="#fff"/>
<line x1="36.2" y1="110.2" x2="146.8" y2="110.2" stroke="#000" stroke-width="1.2"/>
<polygon points="153.8,110.2 146.8,113.4 146.8,107.1" fill="#000"/>
<line x1="91.0" y1="165.0" x2="91.0" y2="18.0" stroke="#000" stroke-width="1.2"/>
<polygon points="91.0,11.0 94.2,18.0 87.8,18.0" fill="#000"/>
<text x="155.8" y="114.8" font-size="13" text-anchor="start">x</text>
<text x="98.0" y="13.0" font-size="13" text-anchor="start">y</text>
<line x1="36.2" y1="107.2" x2="36.2" y2="113.2" stroke="#000" stroke-width="1.0"/>
<line x1="54.5" y1="107.2" x2="54.5" y2="113.2" stroke="#000" stroke-width="1.0"/>
<line x1="72.8" y1="107.2" x2="72.8" y2="113.2" stroke="#000" stroke-width="1.0"/>
<line x1="109.2" y1="107.2" x2="109.2" y2="113.2" stroke="#000" stroke-width="1.0"/>
<line x1="127.5" y1="107.2" x2="127.5" y2="113.2" stroke="#000" stroke-width="1.0"/>
<line x1="145.8" y1="107.2" x2="145.8" y2="113.2" stroke="#000" stroke-width="1.0"/>
<line x1="88.0" y1="165.0" x2="94.0" y2="165.0" stroke="#000" stroke-width="1.0"/>
<line x1="88.0" y1="146.8" x2="94.0" y2="146.8" stroke="#000" stroke-width="1.0"/>
<line x1="88.0" y1="128.5" x2="94.0" y2="128.5" stroke="#000" stroke-width="1.0"/>
<line x1="88.0" y1="92.0" x2="94.0" y2="92.0" stroke="#000" stroke-width="1.0"/>
<line x1="88.0" y1="73.8" x2="94.0" y2="73.8" stroke="#000" stroke-width="1.0"/>
<line x1="88.0" y1="55.5" x2="94.0" y2="55.5" stroke="#000" stroke-width="1.0"/>
<line x1="88.0" y1="37.2" x2="94.0" y2="37.2" stroke="#000" stroke-width="1.0"/>
<line x1="88.0" y1="19.0" x2="94.0" y2="19.0" stroke="#000" stroke-width="1.0"/>
<polyline points="63.6,165.0 64.7,162.8 65.8,160.6 66.9,158.4 68.0,156.2 69.1,154.1 70.2,151.9 71.3,149.7 72.4,147.5 73.5,145.3 74.6,143.1 75.7,140.9 76.8,138.7 77.9,136.5 79.0,134.3 80.0,132.2 81.1,130.0 82.2,127.8 83.3,125.6 84.4,123.4 85.5,121.2 86.6,119.0 87.7,116.8 88.8,114.6 89.9,112.4 91.0,110.2 92.1,108.1 93.2,105.9 94.3,103.7 95.4,101.5 96.5,99.3 97.6,97.1 98.7,94.9 99.8,92.7 100.9,90.5 102.0,88.3 103.0,86.2 104.1,84.0 105.2,81.8 106.3,79.6 107.4,77.4 108.5,75.2 109.6,73.0 110.7,70.8 111.8,68.6 112.9,66.4 114.0,64.3 115.1,62.1 116.2,59.9 117.3,57.7 118.4,55.5 119.5,53.3 120.6,51.1 121.7,48.9 122.8,46.7 123.8,44.6 124.9,42.4 126.0,40.2 127.1,38.0 128.2,35.8 129.3,33.6 130.4,31.4 131.5,29.2 132.6,27.0 133.7,24.8 134.8,22.6 135.9,20.5" fill="none" stroke="#000" stroke-width="1.6" stroke-linejoin="round"/>
<text x="91.0" y="204.0" font-size="15" text-anchor="middle">y＝2x</text>
<line x1="192.0" y1="92.0" x2="319.0" y2="92.0" stroke="#000" stroke-width="1.2"/>
<polygon points="326.0,92.0 319.0,95.2 319.0,88.8" fill="#000"/>
<line x1="255.0" y1="155.0" x2="255.0" y2="28.0" stroke="#000" stroke-width="1.2"/>
<polygon points="255.0,21.0 258.1,28.0 251.8,28.0" fill="#000"/>
<text x="328.0" y="96.5" font-size="13" text-anchor="start">x</text>
<text x="262.0" y="23.0" font-size="13" text-anchor="start">y</text>
<line x1="192.0" y1="89.0" x2="192.0" y2="95.0" stroke="#000" stroke-width="1.0"/>
<line x1="201.0" y1="89.0" x2="201.0" y2="95.0" stroke="#000" stroke-width="1.0"/>
<line x1="210.0" y1="89.0" x2="210.0" y2="95.0" stroke="#000" stroke-width="1.0"/>
<line x1="219.0" y1="89.0" x2="219.0" y2="95.0" stroke="#000" stroke-width="1.0"/>
<line x1="228.0" y1="89.0" x2="228.0" y2="95.0" stroke="#000" stroke-width="1.0"/>
<line x1="237.0" y1="89.0" x2="237.0" y2="95.0" stroke="#000" stroke-width="1.0"/>
<line x1="246.0" y1="89.0" x2="246.0" y2="95.0" stroke="#000" stroke-width="1.0"/>
<line x1="264.0" y1="89.0" x2="264.0" y2="95.0" stroke="#000" stroke-width="1.0"/>
<line x1="273.0" y1="89.0" x2="273.0" y2="95.0" stroke="#000" stroke-width="1.0"/>
<line x1="282.0" y1="89.0" x2="282.0" y2="95.0" stroke="#000" stroke-width="1.0"/>
<line x1="291.0" y1="89.0" x2="291.0" y2="95.0" stroke="#000" stroke-width="1.0"/>
<line x1="300.0" y1="89.0" x2="300.0" y2="95.0" stroke="#000" stroke-width="1.0"/>
<line x1="309.0" y1="89.0" x2="309.0" y2="95.0" stroke="#000" stroke-width="1.0"/>
<line x1="318.0" y1="89.0" x2="318.0" y2="95.0" stroke="#000" stroke-width="1.0"/>
<line x1="252.0" y1="155.0" x2="258.0" y2="155.0" stroke="#000" stroke-width="1.0"/>
<line x1="252.0" y1="146.0" x2="258.0" y2="146.0" stroke="#000" stroke-width="1.0"/>
<line x1="252.0" y1="137.0" x2="258.0" y2="137.0" stroke="#000" stroke-width="1.0"/>
<line x1="252.0" y1="128.0" x2="258.0" y2="128.0" stroke="#000" stroke-width="1.0"/>
<line x1="252.0" y1="119.0" x2="258.0" y2="119.0" stroke="#000" stroke-width="1.0"/>
<line x1="252.0" y1="110.0" x2="258.0" y2="110.0" stroke="#000" stroke-width="1.0"/>
<line x1="252.0" y1="101.0" x2="258.0" y2="101.0" stroke="#000" stroke-width="1.0"/>
<line x1="252.0" y1="83.0" x2="258.0" y2="83.0" stroke="#000" stroke-width="1.0"/>
<line x1="252.0" y1="74.0" x2="258.0" y2="74.0" stroke="#000" stroke-width="1.0"/>
<line x1="252.0" y1="65.0" x2="258.0" y2="65.0" stroke="#000" stroke-width="1.0"/>
<line x1="252.0" y1="56.0" x2="258.0" y2="56.0" stroke="#000" stroke-width="1.0"/>
<line x1="252.0" y1="47.0" x2="258.0" y2="47.0" stroke="#000" stroke-width="1.0"/>
<line x1="252.0" y1="38.0" x2="258.0" y2="38.0" stroke="#000" stroke-width="1.0"/>
<line x1="252.0" y1="29.0" x2="258.0" y2="29.0" stroke="#000" stroke-width="1.0"/>
<polyline points="262.7,29.0 263.1,32.0 263.5,34.7 263.9,37.1 264.2,39.4 264.6,41.5 265.0,43.4 265.4,45.2 265.8,46.9 266.1,48.4 266.5,49.8 266.9,51.2 267.3,52.5 267.7,53.6 268.1,54.8 268.4,55.8 268.8,56.8 269.2,57.8 269.6,58.7 270.0,59.5 270.3,60.3 270.7,61.1 271.1,61.8 271.5,62.5 271.9,63.2 272.2,63.8 272.6,64.4 273.0,65.0 273.4,65.6 273.8,66.1 274.2,66.6 274.5,67.1 274.9,67.6 275.3,68.1 275.7,68.5 276.1,68.9 276.4,69.3 276.8,69.7 277.2,70.1 277.6,70.5 278.0,70.8 278.4,71.2 278.7,71.5 279.1,71.8 279.5,72.2 279.9,72.5 280.3,72.8 280.6,73.0 281.0,73.3 281.4,73.6 281.8,73.9 282.2,74.1 282.5,74.4 282.9,74.6 283.3,74.8 283.7,75.1 284.1,75.3 284.5,75.5 284.8,75.7 285.2,75.9 285.6,76.1 286.0,76.3 286.4,76.5 286.7,76.7 287.1,76.9 287.5,77.0 287.9,77.2 288.3,77.4 288.6,77.6 289.0,77.7 289.4,77.9 289.8,78.0 290.2,78.2 290.6,78.3 290.9,78.5 291.3,78.6 291.7,78.8 292.1,78.9 292.5,79.0 292.8,79.2 293.2,79.3 293.6,79.4 294.0,79.5 294.4,79.7 294.8,79.8 295.1,79.9 295.5,80.0 295.9,80.1 296.3,80.2 296.7,80.3 297.0,80.4 297.4,80.5 297.8,80.6 298.2,80.7 298.6,80.8 298.9,80.9 299.3,81.0 299.7,81.1 300.1,81.2 300.5,81.3 300.9,81.4 301.2,81.5 301.6,81.6 302.0,81.7 302.4,81.7 302.8,81.8 303.1,81.9 303.5,82.0 303.9,82.1 304.3,82.1 304.7,82.2 305.0,82.3 305.4,82.4 305.8,82.4 306.2,82.5 306.6,82.6 307.0,82.6 307.3,82.7 307.7,82.8 308.1,82.8 308.5,82.9 308.9,83.0 309.2,83.0 309.6,83.1 310.0,83.2 310.4,83.2 310.8,83.3 311.2,83.3 311.5,83.4 311.9,83.5 312.3,83.5 312.7,83.6 313.1,83.6 313.4,83.7 313.8,83.7 314.2,83.8 314.6,83.8 315.0,83.9 315.3,83.9 315.7,84.0 316.1,84.0" fill="none" stroke="#000" stroke-width="1.6" stroke-linejoin="round"/>
<polyline points="193.9,100.0 194.3,100.0 194.7,100.1 195.0,100.1 195.4,100.2 195.8,100.2 196.2,100.3 196.6,100.3 196.9,100.4 197.3,100.4 197.7,100.5 198.1,100.5 198.5,100.6 198.8,100.7 199.2,100.7 199.6,100.8 200.0,100.8 200.4,100.9 200.8,101.0 201.1,101.0 201.5,101.1 201.9,101.2 202.3,101.2 202.7,101.3 203.0,101.4 203.4,101.4 203.8,101.5 204.2,101.6 204.6,101.6 205.0,101.7 205.3,101.8 205.7,101.9 206.1,101.9 206.5,102.0 206.9,102.1 207.2,102.2 207.6,102.3 208.0,102.3 208.4,102.4 208.8,102.5 209.1,102.6 209.5,102.7 209.9,102.8 210.3,102.9 210.7,103.0 211.1,103.1 211.4,103.2 211.8,103.3 212.2,103.4 212.6,103.5 213.0,103.6 213.3,103.7 213.7,103.8 214.1,103.9 214.5,104.0 214.9,104.1 215.2,104.2 215.6,104.3 216.0,104.5 216.4,104.6 216.8,104.7 217.2,104.8 217.5,105.0 217.9,105.1 218.3,105.2 218.7,105.4 219.1,105.5 219.4,105.7 219.8,105.8 220.2,106.0 220.6,106.1 221.0,106.3 221.4,106.4 221.7,106.6 222.1,106.8 222.5,107.0 222.9,107.1 223.3,107.3 223.6,107.5 224.0,107.7 224.4,107.9 224.8,108.1 225.2,108.3 225.5,108.5 225.9,108.7 226.3,108.9 226.7,109.2 227.1,109.4 227.5,109.6 227.8,109.9 228.2,110.1 228.6,110.4 229.0,110.7 229.4,111.0 229.7,111.2 230.1,111.5 230.5,111.8 230.9,112.2 231.3,112.5 231.6,112.8 232.0,113.2 232.4,113.5 232.8,113.9 233.2,114.3 233.6,114.7 233.9,115.1 234.3,115.5 234.7,115.9 235.1,116.4 235.5,116.9 235.8,117.4 236.2,117.9 236.6,118.4 237.0,119.0 237.4,119.6 237.8,120.2 238.1,120.8 238.5,121.5 238.9,122.2 239.3,122.9 239.7,123.7 240.0,124.5 240.4,125.3 240.8,126.2 241.2,127.2 241.6,128.2 241.9,129.2 242.3,130.4 242.7,131.5 243.1,132.8 243.5,134.2 243.9,135.6 244.2,137.1 244.6,138.8 245.0,140.6 245.4,142.5 245.8,144.6 246.1,146.9 246.5,149.3 246.9,152.0 247.3,155.0" fill="none" stroke="#000" stroke-width="1.6" stroke-linejoin="round"/>
<text x="255.0" y="204.0" font-size="15" text-anchor="middle">y＝6/x</text>
<line x1="356.4" y1="123.3" x2="482.6" y2="123.3" stroke="#000" stroke-width="1.2"/>
<polygon points="489.6,123.3 482.6,126.4 482.6,120.1" fill="#000"/>
<line x1="419.0" y1="165.0" x2="419.0" y2="18.0" stroke="#000" stroke-width="1.2"/>
<polygon points="419.0,11.0 422.1,18.0 415.9,18.0" fill="#000"/>
<text x="491.6" y="127.8" font-size="13" text-anchor="start">x</text>
<text x="426.0" y="13.0" font-size="13" text-anchor="start">y</text>
<line x1="356.4" y1="120.3" x2="356.4" y2="126.3" stroke="#000" stroke-width="1.0"/>
<line x1="377.3" y1="120.3" x2="377.3" y2="126.3" stroke="#000" stroke-width="1.0"/>
<line x1="398.1" y1="120.3" x2="398.1" y2="126.3" stroke="#000" stroke-width="1.0"/>
<line x1="439.9" y1="120.3" x2="439.9" y2="126.3" stroke="#000" stroke-width="1.0"/>
<line x1="460.7" y1="120.3" x2="460.7" y2="126.3" stroke="#000" stroke-width="1.0"/>
<line x1="481.6" y1="120.3" x2="481.6" y2="126.3" stroke="#000" stroke-width="1.0"/>
<line x1="416.0" y1="165.0" x2="422.0" y2="165.0" stroke="#000" stroke-width="1.0"/>
<line x1="416.0" y1="144.1" x2="422.0" y2="144.1" stroke="#000" stroke-width="1.0"/>
<line x1="416.0" y1="102.4" x2="422.0" y2="102.4" stroke="#000" stroke-width="1.0"/>
<line x1="416.0" y1="81.6" x2="422.0" y2="81.6" stroke="#000" stroke-width="1.0"/>
<line x1="416.0" y1="60.7" x2="422.0" y2="60.7" stroke="#000" stroke-width="1.0"/>
<line x1="416.0" y1="39.9" x2="422.0" y2="39.9" stroke="#000" stroke-width="1.0"/>
<line x1="416.0" y1="19.0" x2="422.0" y2="19.0" stroke="#000" stroke-width="1.0"/>
<polyline points="356.4,144.1 357.7,142.9 358.9,141.6 360.2,140.4 361.4,139.1 362.7,137.9 363.9,136.6 365.2,135.4 366.4,134.1 367.7,132.9 368.9,131.6 370.2,130.4 371.4,129.1 372.7,127.9 373.9,126.6 375.2,125.4 376.5,124.1 377.7,122.9 379.0,121.6 380.2,120.4 381.5,119.1 382.7,117.9 384.0,116.6 385.2,115.4 386.5,114.1 387.7,112.9 389.0,111.6 390.2,110.4 391.5,109.1 392.7,107.9 394.0,106.6 395.2,105.3 396.5,104.1 397.7,102.8 399.0,101.6 400.2,100.3 401.5,99.1 402.7,97.8 404.0,96.6 405.2,95.3 406.5,94.1 407.7,92.8 409.0,91.6 410.2,90.3 411.5,89.1 412.7,87.8 414.0,86.6 415.2,85.3 416.5,84.1 417.7,82.8 419.0,81.6 420.3,80.3 421.5,79.1 422.8,77.8 424.0,76.6 425.3,75.3 426.5,74.1 427.8,72.8 429.0,71.6 430.3,70.3 431.5,69.1 432.8,67.8 434.0,66.6 435.3,65.3 436.5,64.1 437.8,62.8 439.0,61.5 440.3,60.3 441.5,59.0 442.8,57.8 444.0,56.5 445.3,55.3 446.5,54.0 447.8,52.8 449.0,51.5 450.3,50.3 451.5,49.0 452.8,47.8 454.0,46.5 455.3,45.3 456.5,44.0 457.8,42.8 459.0,41.5 460.3,40.3 461.5,39.0 462.8,37.8 464.1,36.5 465.3,35.3 466.6,34.0 467.8,32.8 469.1,31.5 470.3,30.3 471.6,29.0 472.8,27.8 474.1,26.5 475.3,25.3 476.6,24.0 477.8,22.8 479.1,21.5 480.3,20.3 481.6,19.0" fill="none" stroke="#000" stroke-width="1.6" stroke-linejoin="round"/>
<text x="419.0" y="204.0" font-size="15" text-anchor="middle">y＝x＋2</text>
<line x1="520.0" y1="134.0" x2="647.0" y2="134.0" stroke="#000" stroke-width="1.2"/>
<polygon points="654.0,134.0 647.0,137.2 647.0,130.8" fill="#000"/>
<line x1="583.0" y1="155.0" x2="583.0" y2="28.0" stroke="#000" stroke-width="1.2"/>
<polygon points="583.0,21.0 586.1,28.0 579.9,28.0" fill="#000"/>
<text x="656.0" y="138.5" font-size="13" text-anchor="start">x</text>
<text x="590.0" y="23.0" font-size="13" text-anchor="start">y</text>
<line x1="520.0" y1="131.0" x2="520.0" y2="137.0" stroke="#000" stroke-width="1.0"/>
<line x1="541.0" y1="131.0" x2="541.0" y2="137.0" stroke="#000" stroke-width="1.0"/>
<line x1="562.0" y1="131.0" x2="562.0" y2="137.0" stroke="#000" stroke-width="1.0"/>
<line x1="604.0" y1="131.0" x2="604.0" y2="137.0" stroke="#000" stroke-width="1.0"/>
<line x1="625.0" y1="131.0" x2="625.0" y2="137.0" stroke="#000" stroke-width="1.0"/>
<line x1="646.0" y1="131.0" x2="646.0" y2="137.0" stroke="#000" stroke-width="1.0"/>
<line x1="580.0" y1="155.0" x2="586.0" y2="155.0" stroke="#000" stroke-width="1.0"/>
<line x1="580.0" y1="113.0" x2="586.0" y2="113.0" stroke="#000" stroke-width="1.0"/>
<line x1="580.0" y1="92.0" x2="586.0" y2="92.0" stroke="#000" stroke-width="1.0"/>
<line x1="580.0" y1="71.0" x2="586.0" y2="71.0" stroke="#000" stroke-width="1.0"/>
<line x1="580.0" y1="50.0" x2="586.0" y2="50.0" stroke="#000" stroke-width="1.0"/>
<line x1="580.0" y1="29.0" x2="586.0" y2="29.0" stroke="#000" stroke-width="1.0"/>
<polyline points="536.0,29.0 536.8,32.5 537.6,35.9 538.4,39.2 539.2,42.5 540.0,45.8 540.7,49.0 541.5,52.1 542.3,55.1 543.1,58.1 543.9,61.1 544.7,64.0 545.4,66.8 546.2,69.6 547.0,72.3 547.8,74.9 548.6,77.5 549.3,80.1 550.1,82.5 550.9,85.0 551.7,87.3 552.5,89.6 553.3,91.9 554.0,94.1 554.8,96.2 555.6,98.3 556.4,100.3 557.2,102.2 558.0,104.1 558.7,106.0 559.5,107.8 560.3,109.5 561.1,111.1 561.9,112.7 562.7,114.3 563.4,115.8 564.2,117.2 565.0,118.6 565.8,119.9 566.6,121.1 567.3,122.3 568.1,123.5 568.9,124.5 569.7,125.6 570.5,126.5 571.3,127.4 572.0,128.3 572.8,129.1 573.6,129.8 574.4,130.5 575.2,131.1 576.0,131.6 576.7,132.1 577.5,132.6 578.3,132.9 579.1,133.3 579.9,133.5 580.7,133.7 581.4,133.9 582.2,134.0 583.0,134.0 583.8,134.0 584.6,133.9 585.3,133.7 586.1,133.5 586.9,133.3 587.7,132.9 588.5,132.6 589.3,132.1 590.0,131.6 590.8,131.1 591.6,130.5 592.4,129.8 593.2,129.1 594.0,128.3 594.7,127.4 595.5,126.5 596.3,125.6 597.1,124.5 597.9,123.5 598.7,122.3 599.4,121.1 600.2,119.9 601.0,118.6 601.8,117.2 602.6,115.8 603.3,114.3 604.1,112.7 604.9,111.1 605.7,109.5 606.5,107.8 607.3,106.0 608.0,104.1 608.8,102.2 609.6,100.3 610.4,98.3 611.2,96.2 612.0,94.1 612.7,91.9 613.5,89.6 614.3,87.3 615.1,85.0 615.9,82.5 616.7,80.1 617.4,77.5 618.2,74.9 619.0,72.3 619.8,69.6 620.6,66.8 621.3,64.0 622.1,61.1 622.9,58.1 623.7,55.1 624.5,52.1 625.3,49.0 626.0,45.8 626.8,42.5 627.6,39.2 628.4,35.9 629.2,32.5 630.0,29.0" fill="none" stroke="#000" stroke-width="1.6" stroke-linejoin="round"/>
<text x="583.0" y="204.0" font-size="15" text-anchor="middle">y＝x²</text>
<text x="337.0" y="222.0" font-size="11" text-anchor="middle">各図とも1目盛＝1</text>
</svg>
