<svg xmlns="http://www.w3.org/2000/svg" viewBox="0 0 386 324">
<title>y=x²/2のグラフ（0≦x≦6のみ）</title>
<desc>【この図の意図】式は先まで計算できてもグラフは場面が生きる0≦x≦6で終わる——変域が場面から決まることを見せる。【主要な数値・設定】y=x²/2／0≦x≦6のみ実線／両端(0,0),(6,18)を黒丸／右へ延ばさない。【AIに同じ種類の図を描かせるときの説明文】「y=x²/2のグラフ（0≦x≦6のみ）。式は先まで計算できてもグラフは場面が生きる0≦x≦6で終わる——変域が場面から決まることを見せる。数値・設定: y=x²/2／0≦x≦6のみ実線／両端(0,0),(6,18)を黒丸／右へ延ばさない。白黒印刷向けのシンプルな教材図（SVG）としてかいて。」——この説明文を生成AIに渡せば同型の図を描かせられる。数値を変えれば類題用の図も作れる。</desc>
<!-- L10_fig2_area_graph_bounded.svg | y=x²/2のグラフ（0≦x≦6のみ） -->
<!-- generated by assets_provenance/generate_figures.py on 2026-07-17 (docs/SPEC_figures.md準拠（内部規約の要旨は同SPECに反映済み）・SVG直接編集禁止/スクリプト改修で再生成) -->
<rect x="0" y="0" width="386" height="324" fill="#fff"/>
<line x1="42.0" y1="293.5" x2="337.0" y2="293.5" stroke="#000" stroke-width="1.2"/>
<polygon points="344.0,293.5 337.0,296.6 337.0,290.4" fill="#000"/>
<line x1="42.0" y1="293.5" x2="42.0" y2="17.0" stroke="#000" stroke-width="1.2"/>
<polygon points="42.0,10.0 45.1,17.0 38.9,17.0" fill="#000"/>
<text x="346.0" y="298.0" font-size="13" text-anchor="start">x（秒）</text>
<text x="49.0" y="12.0" font-size="13" text-anchor="start">y（cm²）</text>
<line x1="84.0" y1="290.5" x2="84.0" y2="296.5" stroke="#000" stroke-width="1.0"/>
<line x1="126.0" y1="290.5" x2="126.0" y2="296.5" stroke="#000" stroke-width="1.0"/>
<line x1="168.0" y1="290.5" x2="168.0" y2="296.5" stroke="#000" stroke-width="1.0"/>
<line x1="210.0" y1="290.5" x2="210.0" y2="296.5" stroke="#000" stroke-width="1.0"/>
<line x1="252.0" y1="290.5" x2="252.0" y2="296.5" stroke="#000" stroke-width="1.0"/>
<line x1="294.0" y1="290.5" x2="294.0" y2="296.5" stroke="#000" stroke-width="1.0"/>
<line x1="336.0" y1="290.5" x2="336.0" y2="296.5" stroke="#000" stroke-width="1.0"/>
<line x1="39.0" y1="279.0" x2="45.0" y2="279.0" stroke="#000" stroke-width="1.0"/>
<line x1="39.0" y1="264.5" x2="45.0" y2="264.5" stroke="#000" stroke-width="1.0"/>
<line x1="39.0" y1="250.0" x2="45.0" y2="250.0" stroke="#000" stroke-width="1.0"/>
<line x1="39.0" y1="235.5" x2="45.0" y2="235.5" stroke="#000" stroke-width="1.0"/>
<line x1="39.0" y1="221.0" x2="45.0" y2="221.0" stroke="#000" stroke-width="1.0"/>
<line x1="39.0" y1="206.5" x2="45.0" y2="206.5" stroke="#000" stroke-width="1.0"/>
<line x1="39.0" y1="192.0" x2="45.0" y2="192.0" stroke="#000" stroke-width="1.0"/>
<line x1="39.0" y1="177.5" x2="45.0" y2="177.5" stroke="#000" stroke-width="1.0"/>
<line x1="39.0" y1="163.0" x2="45.0" y2="163.0" stroke="#000" stroke-width="1.0"/>
<line x1="39.0" y1="148.5" x2="45.0" y2="148.5" stroke="#000" stroke-width="1.0"/>
<line x1="39.0" y1="134.0" x2="45.0" y2="134.0" stroke="#000" stroke-width="1.0"/>
<line x1="39.0" y1="119.5" x2="45.0" y2="119.5" stroke="#000" stroke-width="1.0"/>
<line x1="39.0" y1="105.0" x2="45.0" y2="105.0" stroke="#000" stroke-width="1.0"/>
<line x1="39.0" y1="90.5" x2="45.0" y2="90.5" stroke="#000" stroke-width="1.0"/>
<line x1="39.0" y1="76.0" x2="45.0" y2="76.0" stroke="#000" stroke-width="1.0"/>
<line x1="39.0" y1="61.5" x2="45.0" y2="61.5" stroke="#000" stroke-width="1.0"/>
<line x1="39.0" y1="47.0" x2="45.0" y2="47.0" stroke="#000" stroke-width="1.0"/>
<line x1="39.0" y1="32.5" x2="45.0" y2="32.5" stroke="#000" stroke-width="1.0"/>
<line x1="39.0" y1="18.0" x2="45.0" y2="18.0" stroke="#000" stroke-width="1.0"/>
<text x="84.0" y="307.5" font-size="11" text-anchor="middle">1</text>
<text x="126.0" y="307.5" font-size="11" text-anchor="middle">2</text>
<text x="168.0" y="307.5" font-size="11" text-anchor="middle">3</text>
<text x="210.0" y="307.5" font-size="11" text-anchor="middle">4</text>
<text x="252.0" y="307.5" font-size="11" text-anchor="middle">5</text>
<text x="294.0" y="307.5" font-size="11" text-anchor="middle">6</text>
<text x="336.0" y="307.5" font-size="11" text-anchor="middle">7</text>
<text x="36.0" y="268.4" font-size="11" text-anchor="end">2</text>
<text x="36.0" y="239.3" font-size="11" text-anchor="end">4</text>
<text x="36.0" y="210.3" font-size="11" text-anchor="end">6</text>
<text x="36.0" y="181.3" font-size="11" text-anchor="end">8</text>
<text x="36.0" y="152.3" font-size="11" text-anchor="end">10</text>
<text x="36.0" y="123.3" font-size="11" text-anchor="end">12</text>
<text x="36.0" y="94.3" font-size="11" text-anchor="end">14</text>
<text x="36.0" y="65.3" font-size="11" text-anchor="end">16</text>
<text x="36.0" y="36.4" font-size="11" text-anchor="end">18</text>
<text x="37.0" y="307.5" font-size="11" text-anchor="end">O</text>
<polyline points="42.0,293.5 43.3,293.5 44.5,293.5 45.8,293.4 47.0,293.4 48.3,293.3 49.6,293.3 50.8,293.2 52.1,293.1 53.3,293.0 54.6,292.8 55.9,292.7 57.1,292.6 58.4,292.4 59.6,292.2 60.9,292.0 62.2,291.8 63.4,291.6 64.7,291.4 65.9,291.1 67.2,290.9 68.5,290.6 69.7,290.3 71.0,290.0 72.2,289.7 73.5,289.4 74.8,289.1 76.0,288.7 77.3,288.4 78.5,288.0 79.8,287.6 81.1,287.2 82.3,286.8 83.6,286.4 84.8,286.0 86.1,285.5 87.4,285.0 88.6,284.6 89.9,284.1 91.1,283.6 92.4,283.1 93.7,282.5 94.9,282.0 96.2,281.4 97.4,280.9 98.7,280.3 100.0,279.7 101.2,279.1 102.5,278.5 103.7,277.8 105.0,277.2 106.3,276.5 107.5,275.9 108.8,275.2 110.0,274.5 111.3,273.8 112.6,273.0 113.8,272.3 115.1,271.5 116.3,270.8 117.6,270.0 118.9,269.2 120.1,268.4 121.4,267.6 122.6,266.8 123.9,265.9 125.2,265.1 126.4,264.2 127.7,263.3 128.9,262.4 130.2,261.5 131.5,260.6 132.7,259.7 134.0,258.7 135.2,257.8 136.5,256.8 137.8,255.8 139.0,254.8 140.3,253.8 141.5,252.8 142.8,251.7 144.1,250.7 145.3,249.6 146.6,248.5 147.8,247.5 149.1,246.4 150.4,245.2 151.6,244.1 152.9,243.0 154.1,241.8 155.4,240.6 156.7,239.5 157.9,238.3 159.2,237.1 160.4,235.8 161.7,234.6 163.0,233.4 164.2,232.1 165.5,230.8 166.7,229.5 168.0,228.2 169.3,226.9 170.5,225.6 171.8,224.3 173.0,222.9 174.3,221.6 175.6,220.2 176.8,218.8 178.1,217.4 179.3,216.0 180.6,214.5 181.9,213.1 183.1,211.7 184.4,210.2 185.6,208.7 186.9,207.2 188.2,205.7 189.4,204.2 190.7,202.6 191.9,201.1 193.2,199.5 194.5,198.0 195.7,196.4 197.0,194.8 198.2,193.2 199.5,191.5 200.8,189.9 202.0,188.3 203.3,186.6 204.5,184.9 205.8,183.2 207.1,181.5 208.3,179.8 209.6,178.1 210.8,176.3 212.1,174.6 213.4,172.8 214.6,171.0 215.9,169.2 217.1,167.4 218.4,165.6 219.7,163.8 220.9,161.9 222.2,160.1 223.4,158.2 224.7,156.3 226.0,154.4 227.2,152.5 228.5,150.6 229.7,148.6 231.0,146.7 232.3,144.7 233.5,142.7 234.8,140.8 236.0,138.8 237.3,136.7 238.6,134.7 239.8,132.7 241.1,130.6 242.3,128.5 243.6,126.5 244.9,124.4 246.1,122.3 247.4,120.1 248.6,118.0 249.9,115.9 251.2,113.7 252.4,111.5 253.7,109.3 254.9,107.1 256.2,104.9 257.5,102.7 258.7,100.5 260.0,98.2 261.2,95.9 262.5,93.7 263.8,91.4 265.0,89.1 266.3,86.8 267.5,84.4 268.8,82.1 270.1,79.7 271.3,77.4 272.6,75.0 273.8,72.6 275.1,70.2 276.4,67.8 277.6,65.3 278.9,62.9 280.1,60.4 281.4,57.9 282.7,55.5 283.9,53.0 285.2,50.5 286.4,47.9 287.7,45.4 289.0,42.8 290.2,40.3 291.5,37.7 292.7,35.1 294.0,32.5" fill="none" stroke="#000" stroke-width="1.6" stroke-linejoin="round"/>
<circle cx="42.0" cy="293.5" r="3.4" fill="#000"/>
<circle cx="294.0" cy="32.5" r="3.4" fill="#000"/>
</svg>
