<svg xmlns="http://www.w3.org/2000/svg" viewBox="0 0 320 285">
<title>正方形ABCDと動く点P・Q（2秒後の瞬間）</title>
<desc>【この図の意図】動く点の場面設定を1枚に固定——AP=AQ=2cmの瞬間と進行方向・速さを見せる。【主要な数値・設定】1辺6cm／AP=AQ=2cm／矢印P→B向き・Q→D向き／三角形APQ薄グレー。【AIに同じ種類の図を描かせるときの説明文】「正方形ABCDと動く点P・Q（2秒後の瞬間）。動く点の場面設定を1枚に固定——AP=AQ=2cmの瞬間と進行方向・速さを見せる。数値・設定: 1辺6cm／AP=AQ=2cm／矢印P→B向き・Q→D向き／三角形APQ薄グレー。白黒印刷向けのシンプルな教材図（SVG）としてかいて。」——この説明文を生成AIに渡せば同型の図を描かせられる。数値を変えれば類題用の図も作れる。</desc>
<!-- L10_fig1_moving_points_square.svg | 正方形ABCDと動く点P・Q（2秒後の瞬間） -->
<!-- generated by assets_provenance/generate_figures.py on 2026-07-17 (docs/SPEC_figures.md準拠（内部規約の要旨は同SPECに反映済み）・SVG直接編集禁止/スクリプト改修で再生成) -->
<rect x="0" y="0" width="320" height="285" fill="#fff"/>
<polygon points="88.0,232.0 148.0,232.0 88.0,172.0" fill="#ddd" stroke="none"/>
<polygon points="88.0,232.0 268.0,232.0 268.0,52.0 88.0,52.0" fill="none" stroke="#000" stroke-width="1.6" stroke-linejoin="round"/>
<line x1="148.0" y1="232.0" x2="88.0" y2="172.0" stroke="#000" stroke-width="1.6"/>
<text x="78.1" y="246.4" font-size="13" text-anchor="middle" font-weight="bold">A</text>
<text x="277.9" y="246.4" font-size="13" text-anchor="middle" font-weight="bold">B</text>
<text x="277.9" y="46.6" font-size="13" text-anchor="middle" font-weight="bold">C</text>
<text x="78.1" y="46.6" font-size="13" text-anchor="middle" font-weight="bold">D</text>
<circle cx="148.0" cy="232.0" r="3.0" fill="#000"/>
<circle cx="88.0" cy="172.0" r="3.0" fill="#000"/>
<text x="148.0" y="249.0" font-size="13" text-anchor="middle" font-weight="bold">P</text>
<text x="78.0" y="176.5" font-size="13" text-anchor="end" font-weight="bold">Q</text>
<line x1="155.5" y1="247.0" x2="184.5" y2="247.0" stroke="#000" stroke-width="1.6"/>
<polygon points="191.5,247.0 184.5,250.2 184.5,243.8" fill="#000"/>
<text x="173.5" y="263.0" font-size="11" text-anchor="middle">毎秒1cm</text>
<line x1="73.0" y1="164.5" x2="73.0" y2="135.5" stroke="#000" stroke-width="1.6"/>
<polygon points="73.0,128.5 76.2,135.5 69.8,135.5" fill="#000"/>
<text x="65.0" y="138.5" font-size="11" text-anchor="end">毎秒</text>
<text x="65.0" y="152.5" font-size="11" text-anchor="end">1cm</text>
<line x1="88.0" y1="272.5" x2="268.0" y2="272.5" stroke="#000" stroke-width="0.9"/>
<line x1="88.0" y1="268.5" x2="88.0" y2="276.5" stroke="#000" stroke-width="0.9"/>
<line x1="268.0" y1="268.5" x2="268.0" y2="276.5" stroke="#000" stroke-width="0.9"/>
<text x="178.0" y="285.1" font-size="11" text-anchor="middle">6cm</text>
</svg>
