<svg xmlns="http://www.w3.org/2000/svg" viewBox="0 0 448 288">
<title>宅配料金の階段グラフ（●○つき）</title>
<desc>【この図の意図】式に表しにくい関数もグラフにかける——境目の重さでも料金がただ1つに読める●○の約束を見せる。【主要な数値・設定】段=(k,k+1]で400+200k円（k=0..4）／左端○・右端●／凡例つき。【AIに同じ種類の図を描かせるときの説明文】「宅配料金の階段グラフ（●○つき）。式に表しにくい関数もグラフにかける——境目の重さでも料金がただ1つに読める●○の約束を見せる。数値・設定: 段=(k,k+1]で400+200k円（k=0..4）／左端○・右端●／凡例つき。白黒印刷向けのシンプルな教材図（SVG）としてかいて。」——この説明文を生成AIに渡せば同型の図を描かせられる。数値を変えれば類題用の図も作れる。</desc>
<!-- L12_fig1_step_fare_graph.svg | 宅配料金の階段グラフ（●○つき） -->
<!-- generated by assets_provenance/generate_figures.py on 2026-07-17 (docs/SPEC_figures.md準拠（内部規約の要旨は同SPECに反映済み）・SVG直接編集禁止/スクリプト改修で再生成) -->
<rect x="0" y="0" width="448" height="288" fill="#fff"/>
<line x1="52.0" y1="258.5" x2="383.0" y2="258.5" stroke="#000" stroke-width="1.2"/>
<polygon points="390.0,258.5 383.0,261.6 383.0,255.3" fill="#000"/>
<line x1="52.0" y1="258.5" x2="52.0" y2="17.0" stroke="#000" stroke-width="1.2"/>
<polygon points="52.0,10.0 55.1,17.0 48.9,17.0" fill="#000"/>
<text x="392.0" y="263.0" font-size="13" text-anchor="start">x（kg）</text>
<text x="59.0" y="12.0" font-size="13" text-anchor="start">y（円）</text>
<line x1="112.0" y1="255.5" x2="112.0" y2="261.5" stroke="#000" stroke-width="1.0"/>
<line x1="172.0" y1="255.5" x2="172.0" y2="261.5" stroke="#000" stroke-width="1.0"/>
<line x1="232.0" y1="255.5" x2="232.0" y2="261.5" stroke="#000" stroke-width="1.0"/>
<line x1="292.0" y1="255.5" x2="292.0" y2="261.5" stroke="#000" stroke-width="1.0"/>
<line x1="352.0" y1="255.5" x2="352.0" y2="261.5" stroke="#000" stroke-width="1.0"/>
<line x1="49.0" y1="221.5" x2="55.0" y2="221.5" stroke="#000" stroke-width="1.0"/>
<line x1="49.0" y1="184.5" x2="55.0" y2="184.5" stroke="#000" stroke-width="1.0"/>
<line x1="49.0" y1="147.5" x2="55.0" y2="147.5" stroke="#000" stroke-width="1.0"/>
<line x1="49.0" y1="110.5" x2="55.0" y2="110.5" stroke="#000" stroke-width="1.0"/>
<line x1="49.0" y1="73.5" x2="55.0" y2="73.5" stroke="#000" stroke-width="1.0"/>
<line x1="49.0" y1="36.5" x2="55.0" y2="36.5" stroke="#000" stroke-width="1.0"/>
<text x="112.0" y="272.5" font-size="11" text-anchor="middle">1</text>
<text x="172.0" y="272.5" font-size="11" text-anchor="middle">2</text>
<text x="232.0" y="272.5" font-size="11" text-anchor="middle">3</text>
<text x="292.0" y="272.5" font-size="11" text-anchor="middle">4</text>
<text x="352.0" y="272.5" font-size="11" text-anchor="middle">5</text>
<text x="46.0" y="225.3" font-size="11" text-anchor="end">200</text>
<text x="46.0" y="188.3" font-size="11" text-anchor="end">400</text>
<text x="46.0" y="151.3" font-size="11" text-anchor="end">600</text>
<text x="46.0" y="114.3" font-size="11" text-anchor="end">800</text>
<text x="46.0" y="77.3" font-size="11" text-anchor="end">1000</text>
<text x="46.0" y="40.4" font-size="11" text-anchor="end">1200</text>
<text x="47.0" y="272.5" font-size="11" text-anchor="end">O</text>
<line x1="52.0" y1="184.5" x2="112.0" y2="184.5" stroke="#000" stroke-width="2.0"/>
<line x1="112.0" y1="147.5" x2="172.0" y2="147.5" stroke="#000" stroke-width="2.0"/>
<line x1="172.0" y1="110.5" x2="232.0" y2="110.5" stroke="#000" stroke-width="2.0"/>
<line x1="232.0" y1="73.5" x2="292.0" y2="73.5" stroke="#000" stroke-width="2.0"/>
<line x1="292.0" y1="36.5" x2="352.0" y2="36.5" stroke="#000" stroke-width="2.0"/>
<circle cx="52.0" cy="184.5" r="3.4" fill="#fff" stroke="#000" stroke-width="1.4"/>
<circle cx="112.0" cy="184.5" r="3.4" fill="#000"/>
<circle cx="112.0" cy="147.5" r="3.4" fill="#fff" stroke="#000" stroke-width="1.4"/>
<circle cx="172.0" cy="147.5" r="3.4" fill="#000"/>
<circle cx="172.0" cy="110.5" r="3.4" fill="#fff" stroke="#000" stroke-width="1.4"/>
<circle cx="232.0" cy="110.5" r="3.4" fill="#000"/>
<circle cx="232.0" cy="73.5" r="3.4" fill="#fff" stroke="#000" stroke-width="1.4"/>
<circle cx="292.0" cy="73.5" r="3.4" fill="#000"/>
<circle cx="292.0" cy="36.5" r="3.4" fill="#fff" stroke="#000" stroke-width="1.4"/>
<circle cx="352.0" cy="36.5" r="3.4" fill="#000"/>
<text x="67.0" y="30.9" font-size="12" text-anchor="start">●…ふくむ　○…ふくまない</text>
</svg>
