<svg xmlns="http://www.w3.org/2000/svg" viewBox="0 0 440 252" role="img">
<title>全数調査と標本調査の対比（概念図）</title>
<desc>L01主概念1の概念図。左は全数調査＝集団（楕円内の十数個の点）の全員に点検の印がつく。右は標本調査＝集団のうち数個だけを破線の小円へ取り出して印をつけ、破線矢印で全体へ「推測」を返す。人数などの数値は意図的に入れていない。再現指示: 楕円を2つ並べ、左は内部の点すべてにチェック印を、右は内部の点のうち数個だけを塗りつぶして下の破線円へ実線矢印（ラベル「一部を取り出して調べる」）で移し、破線円から楕円へ破線矢印（ラベル「全体のようすを推測する」）を戻す。白黒のみ・数値なしで描くこと。</desc>
<!-- L01_fig1_census_vs_sample.svg | 全数調査と標本調査の対比（概念図） -->
<!-- generated by assets_provenance/generate_figures.py on 2026-07-17 (docs/SPEC_figures.md準拠（内部規約の要旨は同SPECに反映済み）・AI再利用メタ情報つき・SVG直接編集禁止/スクリプト改修で再生成) -->
<rect x="0" y="0" width="440" height="252" fill="#fff"/>
<text x="110.0" y="42.0" font-size="13" text-anchor="middle" font-weight="bold">全数調査</text>
<ellipse cx="110.0" cy="118.0" rx="78.0" ry="56.0" fill="none" stroke="#000" stroke-width="1.6"/>
<circle cx="71.0" cy="92.0" r="2.5" fill="#000"/>
<polyline points="73.9,86.5 76.6,89.4 81.1,83.3" fill="none" stroke="#000" stroke-width="1.2" stroke-linecap="round"/>
<circle cx="97.0" cy="92.0" r="2.5" fill="#000"/>
<polyline points="99.9,86.5 102.6,89.4 107.1,83.3" fill="none" stroke="#000" stroke-width="1.2" stroke-linecap="round"/>
<circle cx="123.0" cy="92.0" r="2.5" fill="#000"/>
<polyline points="125.9,86.5 128.6,89.4 133.1,83.3" fill="none" stroke="#000" stroke-width="1.2" stroke-linecap="round"/>
<circle cx="149.0" cy="92.0" r="2.5" fill="#000"/>
<polyline points="151.9,86.5 154.6,89.4 159.1,83.3" fill="none" stroke="#000" stroke-width="1.2" stroke-linecap="round"/>
<circle cx="71.0" cy="118.0" r="2.5" fill="#000"/>
<polyline points="73.9,112.5 76.6,115.4 81.1,109.3" fill="none" stroke="#000" stroke-width="1.2" stroke-linecap="round"/>
<circle cx="97.0" cy="118.0" r="2.5" fill="#000"/>
<polyline points="99.9,112.5 102.6,115.4 107.1,109.3" fill="none" stroke="#000" stroke-width="1.2" stroke-linecap="round"/>
<circle cx="123.0" cy="118.0" r="2.5" fill="#000"/>
<polyline points="125.9,112.5 128.6,115.4 133.1,109.3" fill="none" stroke="#000" stroke-width="1.2" stroke-linecap="round"/>
<circle cx="149.0" cy="118.0" r="2.5" fill="#000"/>
<polyline points="151.9,112.5 154.6,115.4 159.1,109.3" fill="none" stroke="#000" stroke-width="1.2" stroke-linecap="round"/>
<circle cx="71.0" cy="144.0" r="2.5" fill="#000"/>
<polyline points="73.9,138.5 76.6,141.4 81.1,135.3" fill="none" stroke="#000" stroke-width="1.2" stroke-linecap="round"/>
<circle cx="97.0" cy="144.0" r="2.5" fill="#000"/>
<polyline points="99.9,138.5 102.6,141.4 107.1,135.3" fill="none" stroke="#000" stroke-width="1.2" stroke-linecap="round"/>
<circle cx="123.0" cy="144.0" r="2.5" fill="#000"/>
<polyline points="125.9,138.5 128.6,141.4 133.1,135.3" fill="none" stroke="#000" stroke-width="1.2" stroke-linecap="round"/>
<circle cx="149.0" cy="144.0" r="2.5" fill="#000"/>
<polyline points="151.9,138.5 154.6,141.4 159.1,135.3" fill="none" stroke="#000" stroke-width="1.2" stroke-linecap="round"/>
<text x="110.0" y="198.0" font-size="12" text-anchor="middle">集団の全員を調べる</text>
<text x="322.0" y="42.0" font-size="13" text-anchor="middle" font-weight="bold">標本調査</text>
<ellipse cx="322.0" cy="108.0" rx="78.0" ry="50.0" fill="none" stroke="#000" stroke-width="1.6"/>
<circle cx="283.0" cy="82.0" r="2.5" fill="#fff" stroke="#000" stroke-width="1.2"/>
<circle cx="309.0" cy="82.0" r="2.5" fill="#000"/>
<circle cx="335.0" cy="82.0" r="2.5" fill="#fff" stroke="#000" stroke-width="1.2"/>
<circle cx="361.0" cy="82.0" r="2.5" fill="#fff" stroke="#000" stroke-width="1.2"/>
<circle cx="283.0" cy="108.0" r="2.5" fill="#fff" stroke="#000" stroke-width="1.2"/>
<circle cx="309.0" cy="108.0" r="2.5" fill="#fff" stroke="#000" stroke-width="1.2"/>
<circle cx="335.0" cy="108.0" r="2.5" fill="#000"/>
<circle cx="361.0" cy="108.0" r="2.5" fill="#fff" stroke="#000" stroke-width="1.2"/>
<circle cx="283.0" cy="134.0" r="2.5" fill="#fff" stroke="#000" stroke-width="1.2"/>
<circle cx="309.0" cy="134.0" r="2.5" fill="#fff" stroke="#000" stroke-width="1.2"/>
<circle cx="335.0" cy="134.0" r="2.5" fill="#fff" stroke="#000" stroke-width="1.2"/>
<circle cx="361.0" cy="134.0" r="2.5" fill="#000"/>
<circle cx="296.0" cy="205.0" r="24.0" fill="none" stroke="#000" stroke-width="1.1" stroke-dasharray="6 4"/>
<circle cx="285.0" cy="203.0" r="2.5" fill="#000"/>
<polyline points="286.5,198.0 288.8,200.4 292.5,195.3" fill="none" stroke="#000" stroke-width="1.1" stroke-linecap="round"/>
<circle cx="296.0" cy="208.0" r="2.5" fill="#000"/>
<polyline points="297.5,203.0 299.8,205.4 303.5,200.3" fill="none" stroke="#000" stroke-width="1.1" stroke-linecap="round"/>
<circle cx="307.0" cy="203.0" r="2.5" fill="#000"/>
<polyline points="308.5,198.0 310.8,200.4 314.5,195.3" fill="none" stroke="#000" stroke-width="1.1" stroke-linecap="round"/>
<line x1="292.0" y1="154.0" x2="282.0" y2="187.0" stroke="#000" stroke-width="1.4"/>
<line x1="282.0" y1="187.0" x2="280.9" y2="180.1" stroke="#000" stroke-width="1.4"/>
<line x1="282.0" y1="187.0" x2="286.8" y2="181.9" stroke="#000" stroke-width="1.4"/>
<text x="216.0" y="178.0" font-size="12" text-anchor="middle">一部を取り出して</text>
<text x="216.0" y="193.0" font-size="12" text-anchor="middle">調べる</text>
<line x1="320.0" y1="197.0" x2="366.0" y2="152.0" stroke="#000" stroke-width="1.4" stroke-dasharray="6 4"/>
<line x1="366.0" y1="152.0" x2="363.6" y2="158.6" stroke="#000" stroke-width="1.4"/>
<line x1="366.0" y1="152.0" x2="359.4" y2="154.2" stroke="#000" stroke-width="1.4"/>
<text x="398.0" y="196.0" font-size="12" text-anchor="middle">全体のようすを</text>
<text x="398.0" y="211.0" font-size="12" text-anchor="middle">推測する</text>
<text x="220.0" y="240.0" font-size="12" text-anchor="middle">（調べるのは一部——結果から全体を推測するのが標本調査）</text>
</svg>
