<svg xmlns="http://www.w3.org/2000/svg" viewBox="0 0 440 236" role="img">
<title>母集団から標本を抽出する模式図</title>
<desc>L02主概念1【ことば】の模式図。大きな楕円＝母集団（調べたい対象の全体・十数個の点）から、数個の点だけが取り出されて右の小さな円＝標本に移る。太い矢印に「抽出」のラベル。選ばれた点は黒丸、選ばれなかった点は白丸で、同じ要素が移ったことを細い点線で対応づける。個数の数値は意図的に入れていない。再現指示: 左に大きな楕円（ラベル「母集団」）、右に小さな円（ラベル「標本」）を描き、楕円内の点のうち数個を塗りつぶして小円内の点と点線で結び、楕円から小円へ太い矢印（ラベル「抽出」）を引く。白黒のみ・数値なし。</desc>
<!-- L02_fig1_population_sample.svg | 母集団から標本を抽出する模式図 -->
<!-- generated by assets_provenance/generate_figures.py on 2026-07-17 (docs/SPEC_figures.md準拠（内部規約の要旨は同SPECに反映済み）・AI再利用メタ情報つき・SVG直接編集禁止/スクリプト改修で再生成) -->
<rect x="0" y="0" width="440" height="236" fill="#fff"/>
<ellipse cx="138.0" cy="128.0" rx="105.0" ry="76.0" fill="none" stroke="#000" stroke-width="1.6"/>
<text x="138.0" y="30.0" font-size="13" text-anchor="middle" font-weight="bold">母集団</text>
<text x="138.0" y="226.0" font-size="12" text-anchor="middle">調べたい対象の全体</text>
<circle cx="76.0" cy="94.0" r="2.5" fill="#fff" stroke="#000" stroke-width="1.2"/>
<circle cx="118.0" cy="82.0" r="2.5" fill="#fff" stroke="#000" stroke-width="1.2"/>
<circle cx="164.0" cy="78.0" r="2.5" fill="#000"/>
<circle cx="200.0" cy="98.0" r="2.5" fill="#fff" stroke="#000" stroke-width="1.2"/>
<circle cx="60.0" cy="130.0" r="2.5" fill="#fff" stroke="#000" stroke-width="1.2"/>
<circle cx="100.0" cy="120.0" r="2.5" fill="#fff" stroke="#000" stroke-width="1.2"/>
<circle cx="142.0" cy="114.0" r="2.5" fill="#fff" stroke="#000" stroke-width="1.2"/>
<circle cx="182.0" cy="122.0" r="2.5" fill="#000"/>
<circle cx="214.0" cy="138.0" r="2.5" fill="#fff" stroke="#000" stroke-width="1.2"/>
<circle cx="80.0" cy="158.0" r="2.5" fill="#fff" stroke="#000" stroke-width="1.2"/>
<circle cx="122.0" cy="152.0" r="2.5" fill="#fff" stroke="#000" stroke-width="1.2"/>
<circle cx="162.0" cy="158.0" r="2.5" fill="#fff" stroke="#000" stroke-width="1.2"/>
<circle cx="198.0" cy="166.0" r="2.5" fill="#fff" stroke="#000" stroke-width="1.2"/>
<circle cx="98.0" cy="180.0" r="2.5" fill="#000"/>
<circle cx="146.0" cy="180.0" r="2.5" fill="#fff" stroke="#000" stroke-width="1.2"/>
<circle cx="370.0" cy="128.0" r="40.0" fill="none" stroke="#000" stroke-width="1.6"/>
<text x="370.0" y="66.0" font-size="13" text-anchor="middle" font-weight="bold">標本</text>
<text x="370.0" y="226.0" font-size="12" text-anchor="middle">取り出された一部分</text>
<circle cx="357.0" cy="119.0" r="2.5" fill="#000"/>
<circle cx="383.0" cy="122.0" r="2.5" fill="#000"/>
<circle cx="370.0" cy="141.0" r="2.5" fill="#000"/>
<line x1="164.0" y1="78.0" x2="357.0" y2="119.0" stroke="#888" stroke-width="0.8" stroke-dasharray="2 3"/>
<line x1="182.0" y1="122.0" x2="383.0" y2="122.0" stroke="#888" stroke-width="0.8" stroke-dasharray="2 3"/>
<line x1="98.0" y1="180.0" x2="370.0" y2="141.0" stroke="#888" stroke-width="0.8" stroke-dasharray="2 3"/>
<line x1="247.0" y1="128.0" x2="324.0" y2="128.0" stroke="#000" stroke-width="1.8"/>
<line x1="324.0" y1="128.0" x2="317.7" y2="131.1" stroke="#000" stroke-width="1.8"/>
<line x1="324.0" y1="128.0" x2="317.7" y2="124.9" stroke="#000" stroke-width="1.8"/>
<text x="286.5" y="116.0" font-size="13" text-anchor="middle" font-weight="bold">抽出</text>
</svg>
