<svg xmlns="http://www.w3.org/2000/svg" viewBox="0 0 440 150" role="img">
<title>標本A・B・Cの平均値の散らばり（数直線）</title>
<desc>L03の観察図。数直線（6.8〜7.4・0.1刻み）の上に、同じ母集団から無作為抽出した大きさ10の標本A・B・Cの平均値を3つの点で打った。標本Aの平均は7.10（本文で計算済み）。B・Cの平均値の数値は練習1の答えのため図には記載せず、位置のみ生データから厳密計算して打点してある。母集団の平均値の位置は本文指定により描かない。再現指示: 横の数直線に0.1刻みの目盛を打ち、6.8/7.0/7.2/7.4だけ数値ラベルを付け、3つの標本平均の位置に黒点と標本名ラベル（標本A・標本B・標本C）を置く。点に数値は書かない。白黒のみ。</desc>
<!-- L03_fig1_sample_means_scatter.svg | 標本A・B・Cの平均値の散らばり（数直線） -->
<!-- generated by assets_provenance/generate_figures.py on 2026-07-17 (docs/SPEC_figures.md準拠（内部規約の要旨は同SPECに反映済み）・AI再利用メタ情報つき・SVG直接編集禁止/スクリプト改修で再生成) -->
<rect x="0" y="0" width="440" height="150" fill="#fff"/>
<line x1="50.0" y1="96.0" x2="410.0" y2="96.0" stroke="#000" stroke-width="1.2"/>
<line x1="50.0" y1="90.0" x2="50.0" y2="102.0" stroke="#000" stroke-width="0.9"/>
<line x1="110.0" y1="90.0" x2="110.0" y2="102.0" stroke="#000" stroke-width="0.9"/>
<line x1="170.0" y1="90.0" x2="170.0" y2="102.0" stroke="#000" stroke-width="0.9"/>
<line x1="230.0" y1="90.0" x2="230.0" y2="102.0" stroke="#000" stroke-width="0.9"/>
<line x1="290.0" y1="90.0" x2="290.0" y2="102.0" stroke="#000" stroke-width="0.9"/>
<line x1="350.0" y1="90.0" x2="350.0" y2="102.0" stroke="#000" stroke-width="0.9"/>
<line x1="410.0" y1="90.0" x2="410.0" y2="102.0" stroke="#000" stroke-width="0.9"/>
<text x="50.0" y="113.0" font-size="11" text-anchor="middle">6.8</text>
<text x="170.0" y="113.0" font-size="11" text-anchor="middle">7.0</text>
<text x="290.0" y="113.0" font-size="11" text-anchor="middle">7.2</text>
<text x="410.0" y="113.0" font-size="11" text-anchor="middle">7.4</text>
<circle cx="110.0" cy="78.0" r="3.2" fill="#000"/>
<line x1="110.0" y1="78.0" x2="110.0" y2="92.0" stroke="#888" stroke-width="0.8" stroke-dasharray="2 3"/>
<text x="110.0" y="66.0" font-size="12" text-anchor="middle" font-weight="bold">標本C</text>
<circle cx="230.0" cy="78.0" r="3.2" fill="#000"/>
<line x1="230.0" y1="78.0" x2="230.0" y2="92.0" stroke="#888" stroke-width="0.8" stroke-dasharray="2 3"/>
<text x="230.0" y="66.0" font-size="12" text-anchor="middle" font-weight="bold">標本A</text>
<circle cx="350.0" cy="78.0" r="3.2" fill="#000"/>
<line x1="350.0" y1="78.0" x2="350.0" y2="92.0" stroke="#888" stroke-width="0.8" stroke-dasharray="2 3"/>
<text x="350.0" y="66.0" font-size="12" text-anchor="middle" font-weight="bold">標本B</text>
<text x="230.0" y="26.0" font-size="13" text-anchor="middle" font-weight="bold">3つの標本の平均値（単位: 時間）</text>
<text x="230.0" y="138.0" font-size="12" text-anchor="middle">（同じ母集団・同じ手順なのに、平均値は1か所に重ならない）</text>
</svg>
