<svg xmlns="http://www.w3.org/2000/svg" viewBox="0 0 480 210" role="img">
<title>大きさ10の記録の箱ひげ図（五数つき・本文の例示）</title>
<desc>L04の例示図。数直線（6.4〜8.1・0.1刻み）の上に、標本の大きさ10で20回くり返した標本平均の記録の箱ひげ図を1本描いた。五数は最小値6.5・第1四分位数7.0・中央値7.2・第3四分位数7.4・最大値8.0（生データ20個からスクリプトが再計算し本文と一致を検算済み）。範囲1.5・四分位範囲0.4。再現指示: 横の数直線（6.4〜8.1・0.1刻み）の上方に、箱=7.0〜7.4・中央線=7.2・ひげ=6.5〜8.0の箱ひげ図を描き、各五数の値を図中にラベルする。白黒のみ。</desc>
<!-- L04_fig1_boxplot_size10.svg | 大きさ10の記録の箱ひげ図（五数つき・本文の例示） -->
<!-- generated by assets_provenance/generate_figures.py on 2026-07-17 (docs/SPEC_figures.md準拠（内部規約の要旨は同SPECに反映済み）・AI再利用メタ情報つき・SVG直接編集禁止/スクリプト改修で再生成) -->
<rect x="0" y="0" width="480" height="210" fill="#fff"/>
<line x1="48.0" y1="156.0" x2="452.0" y2="156.0" stroke="#000" stroke-width="1.2"/>
<line x1="48.0" y1="150.0" x2="48.0" y2="162.0" stroke="#000" stroke-width="0.9"/>
<line x1="71.8" y1="150.0" x2="71.8" y2="162.0" stroke="#000" stroke-width="0.9"/>
<line x1="95.5" y1="150.0" x2="95.5" y2="162.0" stroke="#000" stroke-width="0.9"/>
<line x1="119.3" y1="150.0" x2="119.3" y2="162.0" stroke="#000" stroke-width="0.9"/>
<line x1="143.1" y1="150.0" x2="143.1" y2="162.0" stroke="#000" stroke-width="0.9"/>
<line x1="166.8" y1="150.0" x2="166.8" y2="162.0" stroke="#000" stroke-width="0.9"/>
<line x1="190.6" y1="150.0" x2="190.6" y2="162.0" stroke="#000" stroke-width="0.9"/>
<line x1="214.4" y1="150.0" x2="214.4" y2="162.0" stroke="#000" stroke-width="0.9"/>
<line x1="238.1" y1="150.0" x2="238.1" y2="162.0" stroke="#000" stroke-width="0.9"/>
<line x1="261.9" y1="150.0" x2="261.9" y2="162.0" stroke="#000" stroke-width="0.9"/>
<line x1="285.6" y1="150.0" x2="285.6" y2="162.0" stroke="#000" stroke-width="0.9"/>
<line x1="309.4" y1="150.0" x2="309.4" y2="162.0" stroke="#000" stroke-width="0.9"/>
<line x1="333.2" y1="150.0" x2="333.2" y2="162.0" stroke="#000" stroke-width="0.9"/>
<line x1="356.9" y1="150.0" x2="356.9" y2="162.0" stroke="#000" stroke-width="0.9"/>
<line x1="380.7" y1="150.0" x2="380.7" y2="162.0" stroke="#000" stroke-width="0.9"/>
<line x1="404.5" y1="150.0" x2="404.5" y2="162.0" stroke="#000" stroke-width="0.9"/>
<line x1="428.2" y1="150.0" x2="428.2" y2="162.0" stroke="#000" stroke-width="0.9"/>
<line x1="452.0" y1="150.0" x2="452.0" y2="162.0" stroke="#000" stroke-width="0.9"/>
<text x="71.8" y="173.0" font-size="11" text-anchor="middle">6.5</text>
<text x="190.6" y="173.0" font-size="11" text-anchor="middle">7.0</text>
<text x="309.4" y="173.0" font-size="11" text-anchor="middle">7.5</text>
<text x="428.2" y="173.0" font-size="11" text-anchor="middle">8.0</text>
<line x1="71.8" y1="100.0" x2="190.6" y2="100.0" stroke="#000" stroke-width="1.6"/>
<line x1="285.6" y1="100.0" x2="428.2" y2="100.0" stroke="#000" stroke-width="1.6"/>
<line x1="71.8" y1="90.4" x2="71.8" y2="109.6" stroke="#000" stroke-width="1.6"/>
<line x1="428.2" y1="90.4" x2="428.2" y2="109.6" stroke="#000" stroke-width="1.6"/>
<rect x="190.6" y="85.0" width="95.1" height="30.0" fill="none" stroke="#000" stroke-width="1.6"/>
<line x1="238.1" y1="85.0" x2="238.1" y2="115.0" stroke="#000" stroke-width="1.6"/>
<text x="71.8" y="71.0" font-size="12" text-anchor="middle">6.5</text>
<text x="190.6" y="71.0" font-size="12" text-anchor="middle">7.0</text>
<text x="238.1" y="61.0" font-size="12" text-anchor="middle" font-weight="bold">7.2</text>
<line x1="238.1" y1="65.0" x2="238.1" y2="81.0" stroke="#888" stroke-width="0.8" stroke-dasharray="2 3"/>
<text x="285.6" y="71.0" font-size="12" text-anchor="middle">7.4</text>
<text x="428.2" y="71.0" font-size="12" text-anchor="middle">8.0</text>
<text x="140.0" y="30.0" font-size="13" text-anchor="middle" font-weight="bold">標本の大きさ10・20回分の平均値</text>
<text x="250.0" y="196.0" font-size="11" text-anchor="middle">（単位: 時間。最小値6.5・第1四分位数7.0・中央値7.2・第3四分位数7.4・最大値8.0）</text>
</svg>
