<svg xmlns="http://www.w3.org/2000/svg" viewBox="0 0 480 300" role="img">
<title>箱ひげ図の作図用の枠（大きさ10・20・40）</title>
<desc>L04の作図ワーク図。数直線（6.4〜8.1・0.1刻み）の上に3段の枠があり、上段「大きさ10」だけ箱ひげ図の完成形が薄いグレーで入っている（五数は6.5・7.0・7.2・7.4・8.0）。中段「大きさ20」・下段「大きさ40」は空欄で、学習者が本文の記録から五数を求めて自分でかきこむ。20・40の五数の数値は答えにあたるため、この図にもこの説明にも記載しない。再現指示: 0.1刻みの薄い縦罫を通した横長の枠を3段に分け、最上段にだけグレーの箱ひげ図（箱7.0〜7.4・中央線7.2・ひげ6.5〜8.0）を描き、下2段は行ラベルのみ置いて空欄にする。枠の下に数直線（ラベルは6.5/7.0/7.5/8.0）。白黒のみ。</desc>
<!-- L04_fig2_boxplot_worksheet.svg | 箱ひげ図の作図用の枠（大きさ10・20・40） -->
<!-- generated by assets_provenance/generate_figures.py on 2026-07-17 (docs/SPEC_figures.md準拠（内部規約の要旨は同SPECに反映済み）・AI再利用メタ情報つき・SVG直接編集禁止/スクリプト改修で再生成) -->
<rect x="0" y="0" width="480" height="300" fill="#fff"/>
<line x1="108.0" y1="40.0" x2="108.0" y2="240.0" stroke="#bbb" stroke-width="0.7"/>
<line x1="128.2" y1="40.0" x2="128.2" y2="240.0" stroke="#bbb" stroke-width="0.7"/>
<line x1="148.5" y1="40.0" x2="148.5" y2="240.0" stroke="#bbb" stroke-width="0.7"/>
<line x1="168.7" y1="40.0" x2="168.7" y2="240.0" stroke="#bbb" stroke-width="0.7"/>
<line x1="188.9" y1="40.0" x2="188.9" y2="240.0" stroke="#bbb" stroke-width="0.7"/>
<line x1="209.2" y1="40.0" x2="209.2" y2="240.0" stroke="#bbb" stroke-width="0.7"/>
<line x1="229.4" y1="40.0" x2="229.4" y2="240.0" stroke="#bbb" stroke-width="0.7"/>
<line x1="249.6" y1="40.0" x2="249.6" y2="240.0" stroke="#bbb" stroke-width="0.7"/>
<line x1="269.9" y1="40.0" x2="269.9" y2="240.0" stroke="#bbb" stroke-width="0.7"/>
<line x1="290.1" y1="40.0" x2="290.1" y2="240.0" stroke="#bbb" stroke-width="0.7"/>
<line x1="310.4" y1="40.0" x2="310.4" y2="240.0" stroke="#bbb" stroke-width="0.7"/>
<line x1="330.6" y1="40.0" x2="330.6" y2="240.0" stroke="#bbb" stroke-width="0.7"/>
<line x1="350.8" y1="40.0" x2="350.8" y2="240.0" stroke="#bbb" stroke-width="0.7"/>
<line x1="371.1" y1="40.0" x2="371.1" y2="240.0" stroke="#bbb" stroke-width="0.7"/>
<line x1="391.3" y1="40.0" x2="391.3" y2="240.0" stroke="#bbb" stroke-width="0.7"/>
<line x1="411.5" y1="40.0" x2="411.5" y2="240.0" stroke="#bbb" stroke-width="0.7"/>
<line x1="431.8" y1="40.0" x2="431.8" y2="240.0" stroke="#bbb" stroke-width="0.7"/>
<line x1="452.0" y1="40.0" x2="452.0" y2="240.0" stroke="#bbb" stroke-width="0.7"/>
<rect x="108.0" y="40.0" width="344.0" height="200.0" fill="none" stroke="#000" stroke-width="1.0"/>
<text x="56.0" y="74.0" font-size="12" text-anchor="middle" font-weight="bold">大きさ10</text>
<line x1="108.0" y1="105.0" x2="452.0" y2="105.0" stroke="#bbb" stroke-width="0.7"/>
<text x="56.0" y="144.0" font-size="12" text-anchor="middle" font-weight="bold">大きさ20</text>
<line x1="108.0" y1="175.0" x2="452.0" y2="175.0" stroke="#bbb" stroke-width="0.7"/>
<text x="56.0" y="214.0" font-size="12" text-anchor="middle" font-weight="bold">大きさ40</text>
<line x1="128.2" y1="70.0" x2="229.4" y2="70.0" stroke="#999" stroke-width="1.3"/>
<line x1="310.4" y1="70.0" x2="431.8" y2="70.0" stroke="#999" stroke-width="1.3"/>
<line x1="128.2" y1="61.7" x2="128.2" y2="78.3" stroke="#999" stroke-width="1.3"/>
<line x1="431.8" y1="61.7" x2="431.8" y2="78.3" stroke="#999" stroke-width="1.3"/>
<rect x="229.4" y="57.0" width="80.9" height="26.0" fill="none" stroke="#999" stroke-width="1.3"/>
<line x1="269.9" y1="57.0" x2="269.9" y2="83.0" stroke="#999" stroke-width="1.3"/>
<line x1="108.0" y1="256.0" x2="452.0" y2="256.0" stroke="#000" stroke-width="1.2"/>
<line x1="108.0" y1="250.0" x2="108.0" y2="262.0" stroke="#000" stroke-width="0.9"/>
<line x1="128.2" y1="250.0" x2="128.2" y2="262.0" stroke="#000" stroke-width="0.9"/>
<line x1="148.5" y1="250.0" x2="148.5" y2="262.0" stroke="#000" stroke-width="0.9"/>
<line x1="168.7" y1="250.0" x2="168.7" y2="262.0" stroke="#000" stroke-width="0.9"/>
<line x1="188.9" y1="250.0" x2="188.9" y2="262.0" stroke="#000" stroke-width="0.9"/>
<line x1="209.2" y1="250.0" x2="209.2" y2="262.0" stroke="#000" stroke-width="0.9"/>
<line x1="229.4" y1="250.0" x2="229.4" y2="262.0" stroke="#000" stroke-width="0.9"/>
<line x1="249.6" y1="250.0" x2="249.6" y2="262.0" stroke="#000" stroke-width="0.9"/>
<line x1="269.9" y1="250.0" x2="269.9" y2="262.0" stroke="#000" stroke-width="0.9"/>
<line x1="290.1" y1="250.0" x2="290.1" y2="262.0" stroke="#000" stroke-width="0.9"/>
<line x1="310.4" y1="250.0" x2="310.4" y2="262.0" stroke="#000" stroke-width="0.9"/>
<line x1="330.6" y1="250.0" x2="330.6" y2="262.0" stroke="#000" stroke-width="0.9"/>
<line x1="350.8" y1="250.0" x2="350.8" y2="262.0" stroke="#000" stroke-width="0.9"/>
<line x1="371.1" y1="250.0" x2="371.1" y2="262.0" stroke="#000" stroke-width="0.9"/>
<line x1="391.3" y1="250.0" x2="391.3" y2="262.0" stroke="#000" stroke-width="0.9"/>
<line x1="411.5" y1="250.0" x2="411.5" y2="262.0" stroke="#000" stroke-width="0.9"/>
<line x1="431.8" y1="250.0" x2="431.8" y2="262.0" stroke="#000" stroke-width="0.9"/>
<line x1="452.0" y1="250.0" x2="452.0" y2="262.0" stroke="#000" stroke-width="0.9"/>
<text x="128.2" y="273.0" font-size="11" text-anchor="middle">6.5</text>
<text x="229.4" y="273.0" font-size="11" text-anchor="middle">7.0</text>
<text x="330.6" y="273.0" font-size="11" text-anchor="middle">7.5</text>
<text x="431.8" y="273.0" font-size="11" text-anchor="middle">8.0</text>
<text x="240.0" y="24.0" font-size="13" text-anchor="middle" font-weight="bold">箱ひげ図をかきこもう（大きさ20・40は自分で）</text>
<text x="240.0" y="290.0" font-size="11" text-anchor="middle">（単位: 時間。大きさ10は薄い完成形——20・40は自分で求めてかく）</text>
</svg>
