<svg xmlns="http://www.w3.org/2000/svg" viewBox="0 0 480 262" role="img">
<title>平均値×総数型の推定の流れ図（辞典980ページ）</title>
<desc>L05の流れ図。全980ページの辞典を表す横長の帯から、ばらばらの位置の20ページ（帯の中の縦線マーク）が無作為に抜き出され、「標本: 20ページ・1ページ平均61.2語」の箱にまとまり、「×980」の矢印で「全体の見出し語数 およそ？語」の破線箱へつながって帯（全体）へ戻る。最終の推定値は答えにあたるため図に入れない。再現指示: 横長の帯（ラベル「全980ページ」）に散在する縦線を20本打ち、そこから下の箱「標本:20ページ／1ページ平均61.2語」へ矢印を集め、太い矢印（ラベル「×980」）で右の破線箱「全体の見出し語数 およそ？語」へ、さらに破線矢印で帯へ戻す。白黒のみ。</desc>
<!-- L05_fig1_mean_times_total_flow.svg | 平均値×総数型の推定の流れ図（辞典980ページ） -->
<!-- generated by assets_provenance/generate_figures.py on 2026-07-17 (docs/SPEC_figures.md準拠（内部規約の要旨は同SPECに反映済み）・AI再利用メタ情報つき・SVG直接編集禁止/スクリプト改修で再生成) -->
<rect x="0" y="0" width="480" height="262" fill="#fff"/>
<rect x="46.0" y="46.0" width="388.0" height="34.0" fill="none" stroke="#000" stroke-width="1.6"/>
<text x="240.0" y="34.0" font-size="13" text-anchor="middle" font-weight="bold">みどり英和辞典 全980ページ</text>
<line x1="57.6" y1="49.0" x2="57.6" y2="77.0" stroke="#000" stroke-width="1.6"/>
<line x1="73.2" y1="49.0" x2="73.2" y2="77.0" stroke="#000" stroke-width="1.6"/>
<line x1="92.6" y1="49.0" x2="92.6" y2="77.0" stroke="#000" stroke-width="1.6"/>
<line x1="108.1" y1="49.0" x2="108.1" y2="77.0" stroke="#000" stroke-width="1.6"/>
<line x1="131.4" y1="49.0" x2="131.4" y2="77.0" stroke="#000" stroke-width="1.6"/>
<line x1="150.8" y1="49.0" x2="150.8" y2="77.0" stroke="#000" stroke-width="1.6"/>
<line x1="174.0" y1="49.0" x2="174.0" y2="77.0" stroke="#000" stroke-width="1.6"/>
<line x1="193.4" y1="49.0" x2="193.4" y2="77.0" stroke="#000" stroke-width="1.6"/>
<line x1="216.7" y1="49.0" x2="216.7" y2="77.0" stroke="#000" stroke-width="1.6"/>
<line x1="236.1" y1="49.0" x2="236.1" y2="77.0" stroke="#000" stroke-width="1.6"/>
<line x1="259.4" y1="49.0" x2="259.4" y2="77.0" stroke="#000" stroke-width="1.6"/>
<line x1="278.8" y1="49.0" x2="278.8" y2="77.0" stroke="#000" stroke-width="1.6"/>
<line x1="302.1" y1="49.0" x2="302.1" y2="77.0" stroke="#000" stroke-width="1.6"/>
<line x1="321.5" y1="49.0" x2="321.5" y2="77.0" stroke="#000" stroke-width="1.6"/>
<line x1="344.8" y1="49.0" x2="344.8" y2="77.0" stroke="#000" stroke-width="1.6"/>
<line x1="364.2" y1="49.0" x2="364.2" y2="77.0" stroke="#000" stroke-width="1.6"/>
<line x1="383.6" y1="49.0" x2="383.6" y2="77.0" stroke="#000" stroke-width="1.6"/>
<line x1="399.1" y1="49.0" x2="399.1" y2="77.0" stroke="#000" stroke-width="1.6"/>
<line x1="414.6" y1="49.0" x2="414.6" y2="77.0" stroke="#000" stroke-width="1.6"/>
<line x1="430.1" y1="49.0" x2="430.1" y2="77.0" stroke="#000" stroke-width="1.6"/>
<line x1="150.0" y1="84.0" x2="168.0" y2="104.0" stroke="#000" stroke-width="1.4"/>
<line x1="168.0" y1="104.0" x2="161.5" y2="101.4" stroke="#000" stroke-width="1.4"/>
<line x1="168.0" y1="104.0" x2="166.1" y2="97.3" stroke="#000" stroke-width="1.4"/>
<line x1="330.0" y1="84.0" x2="258.0" y2="104.0" stroke="#000" stroke-width="1.4"/>
<line x1="258.0" y1="104.0" x2="263.2" y2="99.4" stroke="#000" stroke-width="1.4"/>
<line x1="258.0" y1="104.0" x2="264.9" y2="105.3" stroke="#000" stroke-width="1.4"/>
<text x="238.0" y="124.0" font-size="12" text-anchor="middle">ばらばらの位置の20ページを無作為に抜き出す</text>
<rect x="96.0" y="138.0" width="156.0" height="46.0" fill="none" stroke="#000" stroke-width="1.6"/>
<text x="174.0" y="157.0" font-size="12" text-anchor="middle" font-weight="bold">標本: 20ページ</text>
<text x="174.0" y="175.0" font-size="12" text-anchor="middle">1ページ平均 61.2語</text>
<line x1="252.0" y1="161.0" x2="296.0" y2="161.0" stroke="#000" stroke-width="1.8"/>
<line x1="296.0" y1="161.0" x2="289.7" y2="164.1" stroke="#000" stroke-width="1.8"/>
<line x1="296.0" y1="161.0" x2="289.7" y2="157.9" stroke="#000" stroke-width="1.8"/>
<text x="276.0" y="151.0" font-size="13" text-anchor="middle" font-weight="bold">×980</text>
<rect x="300.0" y="138.0" width="150.0" height="46.0" fill="none" stroke="#000" stroke-width="1.6" stroke-dasharray="6 4"/>
<text x="375.0" y="157.0" font-size="12" text-anchor="middle" font-weight="bold">全体の見出し語数</text>
<text x="375.0" y="175.0" font-size="12" text-anchor="middle">およそ ？語</text>
<line x1="415.0" y1="132.0" x2="390.0" y2="86.0" stroke="#000" stroke-width="1.2" stroke-dasharray="6 4"/>
<line x1="390.0" y1="86.0" x2="395.7" y2="90.1" stroke="#000" stroke-width="1.2"/>
<line x1="390.0" y1="86.0" x2="390.3" y2="93.0" stroke="#000" stroke-width="1.2"/>
<text x="240.0" y="220.0" font-size="12" text-anchor="middle">標本で観察した平均値を、母集団の総数にかけて全体を見積もる</text>
<text x="240.0" y="242.0" font-size="11" text-anchor="middle">（かけ算の答えをどう言い表すかは本文——「およそ」を落とさない）</text>
</svg>
