<svg xmlns="http://www.w3.org/2000/svg" viewBox="0 0 480 262" role="img">
<title>標本と母集団の割合の帯グラフ（比例配分型）</title>
<desc>L06の比例配分図。上の帯＝標本30個（うち赤9個・左端の斜線ハッチング部分）、下の帯＝母集団600個。2本の帯は同じ長さで、赤の割合0.3の区切り位置を破線で上下に対応させ、母集団側の赤は「？個」と表記する（推定値の数は答えのため図にもこの説明にも入れない）。再現指示: 同じ長さの横帯を上下に2本描き、どちらも左から3割の位置に区切り線を入れ、左側を斜線ハッチングにする。上の帯に「赤 9個／白／全部で30個」、下の帯に「赤 ？個／白／全部で600個」とラベルし、区切り位置どうしを破線で結んで「同じ割合（0.3）とみなす」と添える。白黒のみ。</desc>
<!-- L06_fig1_ratio_band_graph.svg | 標本と母集団の割合の帯グラフ（比例配分型） -->
<!-- generated by assets_provenance/generate_figures.py on 2026-07-17 (docs/SPEC_figures.md準拠（内部規約の要旨は同SPECに反映済み）・AI再利用メタ情報つき・SVG直接編集禁止/スクリプト改修で再生成) -->
<rect x="0" y="0" width="480" height="262" fill="#fff"/>
<defs><pattern id="h45" width="6" height="6" patternUnits="userSpaceOnUse" patternTransform="rotate(45)"><line x1="0" y1="0" x2="0" y2="6" stroke="#555" stroke-width="1.1"/></pattern></defs><rect x="110.0" y="58.0" width="96.0" height="40.0" fill="url(#h45)" stroke="#000" stroke-width="0"/>
<rect x="110.0" y="58.0" width="320.0" height="40.0" fill="none" stroke="#000" stroke-width="1.6"/>
<line x1="206.0" y1="58.0" x2="206.0" y2="98.0" stroke="#000" stroke-width="1.6"/>
<text x="70.0" y="82.0" font-size="13" text-anchor="middle" font-weight="bold">標本</text>
<text x="158.0" y="50.0" font-size="12" text-anchor="middle">赤 9個</text>
<text x="318.0" y="50.0" font-size="12" text-anchor="middle">白</text>
<text x="430.0" y="114.0" font-size="12" text-anchor="end">全部で30個</text>
<rect x="110.0" y="168.0" width="96.0" height="40.0" fill="url(#h45)" stroke="#000" stroke-width="0"/>
<rect x="110.0" y="168.0" width="320.0" height="40.0" fill="none" stroke="#000" stroke-width="1.6"/>
<line x1="206.0" y1="168.0" x2="206.0" y2="208.0" stroke="#000" stroke-width="1.6"/>
<text x="70.0" y="192.0" font-size="13" text-anchor="middle" font-weight="bold">母集団</text>
<text x="158.0" y="160.0" font-size="12" text-anchor="middle" font-weight="bold">赤 ？個</text>
<text x="318.0" y="160.0" font-size="12" text-anchor="middle">白</text>
<text x="430.0" y="224.0" font-size="12" text-anchor="end">全部で600個</text>
<line x1="206.0" y1="98.0" x2="206.0" y2="168.0" stroke="#000" stroke-width="1.1" stroke-dasharray="6 4"/>
<line x1="110.0" y1="98.0" x2="110.0" y2="168.0" stroke="#888" stroke-width="0.8" stroke-dasharray="2 3"/>
<line x1="430.0" y1="98.0" x2="430.0" y2="168.0" stroke="#888" stroke-width="0.8" stroke-dasharray="2 3"/>
<text x="214.0" y="137.0" font-size="12" text-anchor="start">同じ割合（0.3）とみなす</text>
<text x="240.0" y="248.0" font-size="11" text-anchor="middle">（無作為な標本の割合は、母集団でも同じくらいのはず——比例配分型）</text>
</svg>
