<svg xmlns="http://www.w3.org/2000/svg" viewBox="0 0 440 312" role="img">
<title>市民全体・来館者・回答者の包含関係（一足飛びの結論）</title>
<desc>L07の批評図。いちばん外の大きな円＝市民全体、その内側の中くらいの円＝来館者（アンケート配布1000枚）、さらに内側の小さな円＝回答した200人、という包含関係を描き、最小の円から最大の円へ円をまたぐ太い矢印を伸ばして「記事の結論は一足飛び」と示す。図中の数値は配布1000・回収200のみで、アンケート結果の割合の数値は本文指定により入れない。再現指示: 大中小3つの円を入れ子に描いてそれぞれ「市民全体」「来館者（アンケート配布1000枚）」「回答した200人」とラベルし、最小円の縁から最大円の縁へ、中間の円を飛び越える弧状の太い矢印を1本描く。白黒のみ。</desc>
<!-- L07_fig1_nested_populations.svg | 市民全体・来館者・回答者の包含関係（一足飛びの結論） -->
<!-- generated by assets_provenance/generate_figures.py on 2026-07-17 (docs/SPEC_figures.md準拠（内部規約の要旨は同SPECに反映済み）・AI再利用メタ情報つき・SVG直接編集禁止/スクリプト改修で再生成) -->
<rect x="0" y="0" width="440" height="312" fill="#fff"/>
<circle cx="206.0" cy="148.0" r="128.0" fill="none" stroke="#000" stroke-width="1.6"/>
<text x="206.0" y="44.0" font-size="13" text-anchor="middle" font-weight="bold">市民全体</text>
<circle cx="206.0" cy="178.0" r="84.0" fill="none" stroke="#000" stroke-width="1.6"/>
<text x="206.0" y="114.0" font-size="12" text-anchor="middle" font-weight="bold">来館者</text>
<text x="206.0" y="130.0" font-size="10.5" text-anchor="middle">（アンケート配布1000枚）</text>
<circle cx="206.0" cy="206.0" r="44.0" fill="none" stroke="#000" stroke-width="1.6"/>
<text x="206.0" y="207.0" font-size="10.5" text-anchor="middle" font-weight="bold">回答した</text>
<text x="206.0" y="220.0" font-size="10.5" text-anchor="middle" font-weight="bold">200人</text>
<polyline points="237.7,236.8 249.8,241.8 261.2,246.4 271.8,250.5 281.6,254.1 290.7,257.2 299.0,259.9 306.6,262.1 313.3,263.8 319.3,265.1 324.6,265.9 329.1,266.2 332.8,266.0 335.7,265.4 337.9,264.3 339.3,262.7 339.9,260.7 339.8,258.2 338.9,255.2 337.2,251.7 334.8,247.8 331.6,243.4 327.6,238.5 322.9,233.2 317.4,227.4" fill="none" stroke="#000" stroke-width="3.2"/>
<line x1="317.4" y1="227.4" x2="326.7" y2="230.9" stroke="#000" stroke-width="3.2"/>
<line x1="317.4" y1="227.4" x2="320.4" y2="236.9" stroke="#000" stroke-width="3.2"/>
<text x="392.0" y="262.0" font-size="12" text-anchor="middle" font-weight="bold">記事の結論は</text>
<text x="392.0" y="277.0" font-size="12" text-anchor="middle" font-weight="bold">一足飛び</text>
<text x="220.0" y="302.0" font-size="11" text-anchor="middle">（回答した人の結果を、いちばん外の集団の意見として語っていないか）</text>
</svg>
