<svg xmlns="http://www.w3.org/2000/svg" viewBox="0 0 480 300" role="img">
<title>多数回の試行で相対度数が一定の値に近づく折れ線（例）</title>
<desc>L01主概念1のfigure-spec充足図。横軸=投げた回数（10〜200回・10回きざみ）、縦軸=横向きが出た相対度数（0〜1）。seed固定の擬似実験による見本の折れ線で、序盤は大きく上下し、回数が増えるほど振れ幅が小さくなり、破線で示した一定の値（例）の近くに落ち着いていく。近づく先の数値ラベルは意図的に付けない（値は学習者の実験ごとに異なるため）。再現指示: 相対度数の折れ線グラフを1本描き、水平の破線を添えて「落ち着いていく先の値（例）」とラベルし、全体に「例」であることを明記する。白黒のみ。</desc>
<!-- L01_fig1_relative_frequency_convergence.svg | 多数回の試行で相対度数が一定の値に近づく折れ線（例） -->
<!-- generated by assets_provenance/generate_figures.py on 2026-07-18 (docs/SPEC_figures.md準拠・AI再利用メタ情報つき・SVG直接編集禁止/スクリプト改修で再生成) -->
<rect x="0" y="0" width="480" height="300" fill="#fff"/>
<line x1="64.0" y1="236.0" x2="454.0" y2="236.0" stroke="#000" stroke-width="1.2"/>
<line x1="454.0" y1="236.0" x2="447.7" y2="239.1" stroke="#000" stroke-width="1.2"/>
<line x1="454.0" y1="236.0" x2="447.7" y2="232.9" stroke="#000" stroke-width="1.2"/>
<line x1="64.0" y1="236.0" x2="64.0" y2="46.0" stroke="#000" stroke-width="1.2"/>
<line x1="64.0" y1="46.0" x2="67.1" y2="52.3" stroke="#000" stroke-width="1.2"/>
<line x1="64.0" y1="46.0" x2="60.9" y2="52.3" stroke="#000" stroke-width="1.2"/>
<line x1="64.0" y1="236.0" x2="64.0" y2="240.0" stroke="#000" stroke-width="1.0"/>
<text x="64.0" y="254.0" font-size="11" text-anchor="middle">0</text>
<line x1="153.5" y1="236.0" x2="153.5" y2="240.0" stroke="#000" stroke-width="1.0"/>
<text x="153.5" y="254.0" font-size="11" text-anchor="middle">50</text>
<line x1="243.0" y1="236.0" x2="243.0" y2="240.0" stroke="#000" stroke-width="1.0"/>
<text x="243.0" y="254.0" font-size="11" text-anchor="middle">100</text>
<line x1="332.6" y1="236.0" x2="332.6" y2="240.0" stroke="#000" stroke-width="1.0"/>
<text x="332.6" y="254.0" font-size="11" text-anchor="middle">150</text>
<line x1="422.1" y1="236.0" x2="422.1" y2="240.0" stroke="#000" stroke-width="1.0"/>
<text x="422.1" y="254.0" font-size="11" text-anchor="middle">200</text>
<line x1="60.0" y1="236.0" x2="64.0" y2="236.0" stroke="#000" stroke-width="1.0"/>
<text x="56.0" y="240.0" font-size="11" text-anchor="end">0</text>
<line x1="60.0" y1="152.2" x2="64.0" y2="152.2" stroke="#000" stroke-width="1.0"/>
<text x="56.0" y="156.2" font-size="11" text-anchor="end">0.5</text>
<line x1="60.0" y1="68.4" x2="64.0" y2="68.4" stroke="#000" stroke-width="1.0"/>
<text x="56.0" y="72.4" font-size="11" text-anchor="end">1</text>
<text x="252.0" y="272.0" font-size="12" text-anchor="middle">投げた回数（回）</text>
<text x="56.0" y="38.0" font-size="12" text-anchor="start">横向きの相対度数</text>
<line x1="64.0" y1="202.5" x2="431.0" y2="202.5" stroke="#888" stroke-width="1.1" stroke-dasharray="6 4"/>
<text x="427.5" y="194.5" font-size="11" text-anchor="end">落ち着いていく先の値（例）</text>
<polyline points="81.9,169.0 99.8,160.6 117.7,185.7 135.6,194.1 153.5,192.4 171.4,196.9 189.3,200.1 207.2,200.4 225.1,200.6 243.0,204.2 261.0,205.5 278.9,205.3 296.8,205.1 314.7,202.5 332.6,200.2 350.5,201.4 368.4,203.5 386.3,202.5 404.2,200.7 422.1,200.8" fill="none" stroke="#000" stroke-width="1.6"/>
<circle cx="81.9" cy="169.0" r="2.2" fill="#000"/>
<circle cx="99.8" cy="160.6" r="2.2" fill="#000"/>
<circle cx="117.7" cy="185.7" r="2.2" fill="#000"/>
<circle cx="135.6" cy="194.1" r="2.2" fill="#000"/>
<circle cx="153.5" cy="192.4" r="2.2" fill="#000"/>
<circle cx="171.4" cy="196.9" r="2.2" fill="#000"/>
<circle cx="189.3" cy="200.1" r="2.2" fill="#000"/>
<circle cx="207.2" cy="200.4" r="2.2" fill="#000"/>
<circle cx="225.1" cy="200.6" r="2.2" fill="#000"/>
<circle cx="243.0" cy="204.2" r="2.2" fill="#000"/>
<circle cx="261.0" cy="205.5" r="2.2" fill="#000"/>
<circle cx="278.9" cy="205.3" r="2.2" fill="#000"/>
<circle cx="296.8" cy="205.1" r="2.2" fill="#000"/>
<circle cx="314.7" cy="202.5" r="2.2" fill="#000"/>
<circle cx="332.6" cy="200.2" r="2.2" fill="#000"/>
<circle cx="350.5" cy="201.4" r="2.2" fill="#000"/>
<circle cx="368.4" cy="203.5" r="2.2" fill="#000"/>
<circle cx="386.3" cy="202.5" r="2.2" fill="#000"/>
<circle cx="404.2" cy="200.7" r="2.2" fill="#000"/>
<circle cx="422.1" cy="200.8" r="2.2" fill="#000"/>
<text x="252.0" y="30.0" font-size="14" text-anchor="middle" font-weight="bold">相対度数の変化（見本・例）</text>
<text x="252.0" y="290.0" font-size="12" text-anchor="middle">（折れ線は一例——値もゆれ方も実験のたびに異なる）</text>
</svg>
