<svg xmlns="http://www.w3.org/2000/svg" viewBox="0 0 480 300" role="img">
<title>さいころの1の目の相対度数が1/6に近づく折れ線（例）</title>
<desc>L02主概念3の関連付け図。横軸=投げた回数（0〜1200回）、縦軸=1の目の相対度数。seed固定の擬似実験の見本折れ線が、水平の破線（高さ1/6・場合の数を基にして得られる確率）にまとわりつくように近づいていく。実験回数や回数の内訳の数値は図に入れない。再現指示: 相対度数の折れ線と、1/6の高さの水平破線（ラベル「1/6」）を重ねて描き、見本であることを明記する。白黒のみ。</desc>
<!-- L02_fig1_dice_relfreq_to_one_sixth.svg | さいころの1の目の相対度数が1/6に近づく折れ線（例） -->
<!-- generated by assets_provenance/generate_figures.py on 2026-07-18 (docs/SPEC_figures.md準拠・AI再利用メタ情報つき・SVG直接編集禁止/スクリプト改修で再生成) -->
<rect x="0" y="0" width="480" height="300" fill="#fff"/>
<line x1="64.0" y1="236.0" x2="454.0" y2="236.0" stroke="#000" stroke-width="1.2"/>
<line x1="454.0" y1="236.0" x2="447.7" y2="239.1" stroke="#000" stroke-width="1.2"/>
<line x1="454.0" y1="236.0" x2="447.7" y2="232.9" stroke="#000" stroke-width="1.2"/>
<line x1="64.0" y1="236.0" x2="64.0" y2="46.0" stroke="#000" stroke-width="1.2"/>
<line x1="64.0" y1="46.0" x2="67.1" y2="52.3" stroke="#000" stroke-width="1.2"/>
<line x1="64.0" y1="46.0" x2="60.9" y2="52.3" stroke="#000" stroke-width="1.2"/>
<line x1="64.0" y1="236.0" x2="64.0" y2="240.0" stroke="#000" stroke-width="1.0"/>
<text x="64.0" y="254.0" font-size="11" text-anchor="middle">0</text>
<line x1="153.5" y1="236.0" x2="153.5" y2="240.0" stroke="#000" stroke-width="1.0"/>
<text x="153.5" y="254.0" font-size="11" text-anchor="middle">300</text>
<line x1="243.0" y1="236.0" x2="243.0" y2="240.0" stroke="#000" stroke-width="1.0"/>
<text x="243.0" y="254.0" font-size="11" text-anchor="middle">600</text>
<line x1="332.6" y1="236.0" x2="332.6" y2="240.0" stroke="#000" stroke-width="1.0"/>
<text x="332.6" y="254.0" font-size="11" text-anchor="middle">900</text>
<line x1="422.1" y1="236.0" x2="422.1" y2="240.0" stroke="#000" stroke-width="1.0"/>
<text x="422.1" y="254.0" font-size="11" text-anchor="middle">1200</text>
<line x1="60.0" y1="236.0" x2="64.0" y2="236.0" stroke="#000" stroke-width="1.0"/>
<text x="56.0" y="240.0" font-size="11" text-anchor="end">0</text>
<line x1="60.0" y1="76.0" x2="64.0" y2="76.0" stroke="#000" stroke-width="1.0"/>
<text x="56.0" y="80.0" font-size="11" text-anchor="end">0.5</text>
<text x="252.0" y="272.0" font-size="12" text-anchor="middle">投げた回数（回）</text>
<text x="56.0" y="38.0" font-size="12" text-anchor="start">1の目の相対度数</text>
<line x1="64.0" y1="182.7" x2="431.0" y2="182.7" stroke="#888" stroke-width="1.1" stroke-dasharray="6 4"/>
<text x="429.6" y="174.7" font-size="12" text-anchor="end" font-weight="bold">1/6</text>
<polyline points="73.0,214.7 81.9,193.3 90.9,189.8 99.8,188.0 108.8,189.1 117.7,191.6 126.7,188.8 135.6,192.0 144.6,189.8 153.5,191.2 162.5,188.5 171.4,191.6 180.4,189.2 189.3,189.5 198.3,188.4 207.2,186.7 216.2,182.7 225.1,183.3 234.1,182.7 243.0,183.7 252.0,185.7 261.0,186.1 269.9,185.4 278.9,184.9 287.8,184.4 296.8,184.3 305.7,184.6 314.7,185.0 323.6,184.9 332.6,183.7 341.5,183.7 350.5,183.7 359.4,183.6 368.4,184.2 377.3,182.4 386.3,182.1 395.2,183.0 404.2,182.9 413.1,182.9 422.1,182.7" fill="none" stroke="#000" stroke-width="1.6"/>
<text x="252.0" y="30.0" font-size="14" text-anchor="middle" font-weight="bold">さいころの1の目の相対度数（見本・例）</text>
<text x="252.0" y="290.0" font-size="12" text-anchor="middle">（数え上げの1/6を、多数回の実験がなぞっていく）</text>
</svg>
