<svg xmlns="http://www.w3.org/2000/svg" viewBox="0 0 480 260" role="img">
<title>2枚の硬貨の樹形図（全部で4通り）</title>
<desc>L03主概念2の樹形図。硬貨A（1枚目）が表・裏に分かれ、それぞれから硬貨B（2枚目）の表・裏へ枝分かれして、結果は（表・表）（表・裏）（裏・表）（裏・裏）の4通り。（表・裏）と（裏・表）の2本を右側でかっこで束ね「『表と裏が1枚ずつ』には2通りふくまれる」と注記する。確率の値は図に入れない。再現指示: 2段の樹形図（各段は表・裏の2枝）をかき、末端4通りの結果ラベルを添え、中央の2本をかっこで束ねて注記する。白黒のみ。</desc>
<!-- L03_fig1_two_coins_tree.svg | 2枚の硬貨の樹形図（全部で4通り） -->
<!-- generated by assets_provenance/generate_figures.py on 2026-07-18 (docs/SPEC_figures.md準拠・AI再利用メタ情報つき・SVG直接編集禁止/スクリプト改修で再生成) -->
<rect x="0" y="0" width="480" height="260" fill="#fff"/>
<text x="120.0" y="50.0" font-size="12" text-anchor="middle" font-weight="bold">A（1枚目）</text>
<text x="220.0" y="50.0" font-size="12" text-anchor="middle" font-weight="bold">B（2枚目）</text>
<text x="286.0" y="50.0" font-size="12" text-anchor="middle" font-weight="bold">結果</text>
<text x="120.0" y="101.0" font-size="14" text-anchor="middle">表</text>
<text x="220.0" y="81.0" font-size="14" text-anchor="middle">表</text>
<line x1="138.0" y1="96.0" x2="202.0" y2="76.0" stroke="#000" stroke-width="1.1"/>
<text x="220.0" y="121.0" font-size="14" text-anchor="middle">裏</text>
<line x1="138.0" y1="96.0" x2="202.0" y2="116.0" stroke="#000" stroke-width="1.1"/>
<text x="120.0" y="181.0" font-size="14" text-anchor="middle">裏</text>
<text x="220.0" y="161.0" font-size="14" text-anchor="middle">表</text>
<line x1="138.0" y1="176.0" x2="202.0" y2="156.0" stroke="#000" stroke-width="1.1"/>
<text x="220.0" y="201.0" font-size="14" text-anchor="middle">裏</text>
<line x1="138.0" y1="176.0" x2="202.0" y2="196.0" stroke="#000" stroke-width="1.1"/>
<text x="286.0" y="81.0" font-size="12" text-anchor="start">（表・表）</text>
<text x="286.0" y="121.0" font-size="12" text-anchor="start">（表・裏）</text>
<text x="286.0" y="161.0" font-size="12" text-anchor="start">（裏・表）</text>
<text x="286.0" y="201.0" font-size="12" text-anchor="start">（裏・裏）</text>
<line x1="366.0" y1="108.0" x2="366.0" y2="164.0" stroke="#000" stroke-width="1.3"/>
<line x1="360.0" y1="108.0" x2="366.0" y2="108.0" stroke="#000" stroke-width="1.3"/>
<line x1="360.0" y1="164.0" x2="366.0" y2="164.0" stroke="#000" stroke-width="1.3"/>
<text x="376.0" y="133.0" font-size="11" text-anchor="start">「1枚ずつ」には</text>
<text x="376.0" y="149.0" font-size="11" text-anchor="start" font-weight="bold">2通りふくまれる</text>
<text x="240.0" y="34.0" font-size="14" text-anchor="middle" font-weight="bold">2枚の硬貨の樹形図——全部で4通り</text>
<text x="240.0" y="240.0" font-size="12" text-anchor="middle">（AとBを区別して枝をかくと、束ねる前の姿が見える）</text>
</svg>
