<svg xmlns="http://www.w3.org/2000/svg" viewBox="0 0 480 340" role="img">
<title>3枚の硬貨の樹形図（全部で8通り・★=ちょうど2枚が表）</title>
<desc>L04主概念1の樹形図。硬貨A→B→Cの順に表・裏の枝を3段かき切り、末端は（表表表）〜（裏裏裏）の8通り。ちょうど2枚が表の（表表裏）（表裏表）（裏表表）の3か所に★印。確率の値は図に入れない。再現指示: 3段の樹形図（各段は表・裏の2枝）をかき、末端8通りの結果ラベルと該当行の★印を添え、下にかけ算検算2×2×2=8を記す。白黒のみ。</desc>
<!-- L04_fig1_three_coins_tree.svg | 3枚の硬貨の樹形図（全部で8通り・★=ちょうど2枚が表） -->
<!-- generated by assets_provenance/generate_figures.py on 2026-07-18 (docs/SPEC_figures.md準拠・AI再利用メタ情報つき・SVG直接編集禁止/スクリプト改修で再生成) -->
<rect x="0" y="0" width="480" height="340" fill="#fff"/>
<text x="90.0" y="50.0" font-size="12" text-anchor="middle" font-weight="bold">A</text>
<text x="180.0" y="50.0" font-size="12" text-anchor="middle" font-weight="bold">B</text>
<text x="270.0" y="50.0" font-size="12" text-anchor="middle" font-weight="bold">C</text>
<text x="330.0" y="50.0" font-size="12" text-anchor="middle" font-weight="bold">結果</text>
<text x="90.0" y="123.9" font-size="14" text-anchor="middle">表</text>
<text x="180.0" y="95.3" font-size="14" text-anchor="middle">表</text>
<line x1="108.0" y1="118.9" x2="162.0" y2="90.3" stroke="#000" stroke-width="1.1"/>
<text x="270.0" y="81.0" font-size="14" text-anchor="middle">表</text>
<line x1="198.0" y1="90.3" x2="252.0" y2="76.0" stroke="#000" stroke-width="1.1"/>
<text x="270.0" y="109.6" font-size="14" text-anchor="middle">裏</text>
<line x1="198.0" y1="90.3" x2="252.0" y2="104.6" stroke="#000" stroke-width="1.1"/>
<text x="180.0" y="152.4" font-size="14" text-anchor="middle">裏</text>
<line x1="108.0" y1="118.9" x2="162.0" y2="147.4" stroke="#000" stroke-width="1.1"/>
<text x="270.0" y="138.1" font-size="14" text-anchor="middle">表</text>
<line x1="198.0" y1="147.4" x2="252.0" y2="133.1" stroke="#000" stroke-width="1.1"/>
<text x="270.0" y="166.7" font-size="14" text-anchor="middle">裏</text>
<line x1="198.0" y1="147.4" x2="252.0" y2="161.7" stroke="#000" stroke-width="1.1"/>
<text x="90.0" y="238.1" font-size="14" text-anchor="middle">裏</text>
<text x="180.0" y="209.6" font-size="14" text-anchor="middle">表</text>
<line x1="108.0" y1="233.1" x2="162.0" y2="204.6" stroke="#000" stroke-width="1.1"/>
<text x="270.0" y="195.3" font-size="14" text-anchor="middle">表</text>
<line x1="198.0" y1="204.6" x2="252.0" y2="190.3" stroke="#000" stroke-width="1.1"/>
<text x="270.0" y="223.9" font-size="14" text-anchor="middle">裏</text>
<line x1="198.0" y1="204.6" x2="252.0" y2="218.9" stroke="#000" stroke-width="1.1"/>
<text x="180.0" y="266.7" font-size="14" text-anchor="middle">裏</text>
<line x1="108.0" y1="233.1" x2="162.0" y2="261.7" stroke="#000" stroke-width="1.1"/>
<text x="270.0" y="252.4" font-size="14" text-anchor="middle">表</text>
<line x1="198.0" y1="261.7" x2="252.0" y2="247.4" stroke="#000" stroke-width="1.1"/>
<text x="270.0" y="281.0" font-size="14" text-anchor="middle">裏</text>
<line x1="198.0" y1="261.7" x2="252.0" y2="276.0" stroke="#000" stroke-width="1.1"/>
<text x="330.0" y="81.0" font-size="12" text-anchor="start">（表表表）</text>
<text x="330.0" y="109.6" font-size="12" text-anchor="start">（表表裏）</text>
<polygon points="316.0,98.6 317.5,102.5 321.7,102.7 318.4,105.4 319.5,109.4 316.0,107.1 312.5,109.4 313.6,105.4 310.3,102.7 314.5,102.5" fill="#000" stroke="none"/>
<text x="330.0" y="138.1" font-size="12" text-anchor="start">（表裏表）</text>
<polygon points="316.0,127.1 317.5,131.1 321.7,131.3 318.4,133.9 319.5,138.0 316.0,135.7 312.5,138.0 313.6,133.9 310.3,131.3 314.5,131.1" fill="#000" stroke="none"/>
<text x="330.0" y="166.7" font-size="12" text-anchor="start">（表裏裏）</text>
<text x="330.0" y="195.3" font-size="12" text-anchor="start">（裏表表）</text>
<polygon points="316.0,184.3 317.5,188.2 321.7,188.4 318.4,191.1 319.5,195.1 316.0,192.8 312.5,195.1 313.6,191.1 310.3,188.4 314.5,188.2" fill="#000" stroke="none"/>
<text x="330.0" y="223.9" font-size="12" text-anchor="start">（裏表裏）</text>
<text x="330.0" y="252.4" font-size="12" text-anchor="start">（裏裏表）</text>
<text x="330.0" y="281.0" font-size="12" text-anchor="start">（裏裏裏）</text>
<text x="240.0" y="34.0" font-size="14" text-anchor="middle" font-weight="bold">3枚の硬貨の樹形図——全部で8通り</text>
<text x="240.0" y="318.0" font-size="12" text-anchor="middle">（★＝ちょうど2枚が表: 3通り。かけ算検算 2×2×2＝8）</text>
</svg>
