<svg xmlns="http://www.w3.org/2000/svg" viewBox="0 0 480 300" role="img">
<title>3人の発表順の樹形図（全部で6通り・★=Aが1番目)</title>
<desc>L04主概念2の樹形図。1番目はA・B・Cの3枝、1番目が決まると2番目は残り2人、3番目は残り1人で、末端は6通りの並び。Aが1番目の（A,B,C）（A,C,B）に★印。確率の値は図に入れない。再現指示: 3段の樹形図をかき、段が進むごとに枝が3本→2本→1本と減る様子と、末端6通りの並びラベル・★印を添える。白黒のみ。</desc>
<!-- L04_fig2_order_lottery_tree.svg | 3人の発表順の樹形図（全部で6通り・★=Aが1番目) -->
<!-- generated by assets_provenance/generate_figures.py on 2026-07-18 (docs/SPEC_figures.md準拠・AI再利用メタ情報つき・SVG直接編集禁止/スクリプト改修で再生成) -->
<rect x="0" y="0" width="480" height="300" fill="#fff"/>
<text x="100.0" y="50.0" font-size="12" text-anchor="middle" font-weight="bold">1番目</text>
<text x="190.0" y="50.0" font-size="12" text-anchor="middle" font-weight="bold">2番目</text>
<text x="280.0" y="50.0" font-size="12" text-anchor="middle" font-weight="bold">3番目</text>
<text x="340.0" y="50.0" font-size="12" text-anchor="middle" font-weight="bold">結果</text>
<text x="100.0" y="97.0" font-size="14" text-anchor="middle">A</text>
<text x="190.0" y="81.0" font-size="14" text-anchor="middle">B</text>
<line x1="118.0" y1="92.0" x2="172.0" y2="76.0" stroke="#000" stroke-width="1.1"/>
<text x="280.0" y="81.0" font-size="14" text-anchor="middle">C</text>
<line x1="208.0" y1="76.0" x2="262.0" y2="76.0" stroke="#000" stroke-width="1.1"/>
<text x="190.0" y="113.0" font-size="14" text-anchor="middle">C</text>
<line x1="118.0" y1="92.0" x2="172.0" y2="108.0" stroke="#000" stroke-width="1.1"/>
<text x="280.0" y="113.0" font-size="14" text-anchor="middle">B</text>
<line x1="208.0" y1="108.0" x2="262.0" y2="108.0" stroke="#000" stroke-width="1.1"/>
<text x="100.0" y="161.0" font-size="14" text-anchor="middle">B</text>
<text x="190.0" y="145.0" font-size="14" text-anchor="middle">A</text>
<line x1="118.0" y1="156.0" x2="172.0" y2="140.0" stroke="#000" stroke-width="1.1"/>
<text x="280.0" y="145.0" font-size="14" text-anchor="middle">C</text>
<line x1="208.0" y1="140.0" x2="262.0" y2="140.0" stroke="#000" stroke-width="1.1"/>
<text x="190.0" y="177.0" font-size="14" text-anchor="middle">C</text>
<line x1="118.0" y1="156.0" x2="172.0" y2="172.0" stroke="#000" stroke-width="1.1"/>
<text x="280.0" y="177.0" font-size="14" text-anchor="middle">A</text>
<line x1="208.0" y1="172.0" x2="262.0" y2="172.0" stroke="#000" stroke-width="1.1"/>
<text x="100.0" y="225.0" font-size="14" text-anchor="middle">C</text>
<text x="190.0" y="209.0" font-size="14" text-anchor="middle">A</text>
<line x1="118.0" y1="220.0" x2="172.0" y2="204.0" stroke="#000" stroke-width="1.1"/>
<text x="280.0" y="209.0" font-size="14" text-anchor="middle">B</text>
<line x1="208.0" y1="204.0" x2="262.0" y2="204.0" stroke="#000" stroke-width="1.1"/>
<text x="190.0" y="241.0" font-size="14" text-anchor="middle">B</text>
<line x1="118.0" y1="220.0" x2="172.0" y2="236.0" stroke="#000" stroke-width="1.1"/>
<text x="280.0" y="241.0" font-size="14" text-anchor="middle">A</text>
<line x1="208.0" y1="236.0" x2="262.0" y2="236.0" stroke="#000" stroke-width="1.1"/>
<text x="340.0" y="81.0" font-size="12" text-anchor="start">（A,B,C）</text>
<polygon points="326.0,70.0 327.5,74.0 331.7,74.1 328.4,76.8 329.5,80.9 326.0,78.5 322.5,80.9 323.6,76.8 320.3,74.1 324.5,74.0" fill="#000" stroke="none"/>
<text x="340.0" y="113.0" font-size="12" text-anchor="start">（A,C,B）</text>
<polygon points="326.0,102.0 327.5,106.0 331.7,106.1 328.4,108.8 329.5,112.9 326.0,110.5 322.5,112.9 323.6,108.8 320.3,106.1 324.5,106.0" fill="#000" stroke="none"/>
<text x="340.0" y="145.0" font-size="12" text-anchor="start">（B,A,C）</text>
<text x="340.0" y="177.0" font-size="12" text-anchor="start">（B,C,A）</text>
<text x="340.0" y="209.0" font-size="12" text-anchor="start">（C,A,B）</text>
<text x="340.0" y="241.0" font-size="12" text-anchor="start">（C,B,A）</text>
<text x="240.0" y="34.0" font-size="14" text-anchor="middle" font-weight="bold">3人の発表順の樹形図——全部で6通り</text>
<text x="240.0" y="280.0" font-size="12" text-anchor="middle">（★＝Aさんが1番目: 2通り。決まった人は次の段に現れない）</text>
</svg>
