<svg xmlns="http://www.w3.org/2000/svg" viewBox="0 0 480 420" role="img">
<title>2つのさいころの和の二次元表（36マス・和7に斜線）</title>
<desc>L05主概念1の二次元表。縦=大きいさいころの目1〜6、横=小さいさいころの目1〜6、各マスに目の和（2〜12）。和が7の6マスだけ斜線ハッチングで、右上から左下への斜めラインとして浮かぶ。確率の値は図に入れない。再現指示: 6×6の表に和を書き込み、指定の和のマスだけハッチングして模様として見せる。白黒のみ。</desc>
<!-- L05_fig1_two_dice_sum_table.svg | 2つのさいころの和の二次元表（36マス・和7に斜線） -->
<!-- generated by assets_provenance/generate_figures.py on 2026-07-18 (docs/SPEC_figures.md準拠・AI再利用メタ情報つき・SVG直接編集禁止/スクリプト改修で再生成) -->
<rect x="0" y="0" width="480" height="420" fill="#fff"/>
<defs><pattern id="h45" width="6" height="6" patternUnits="userSpaceOnUse" patternTransform="rotate(45)"><line x1="0" y1="0" x2="0" y2="6" stroke="#555" stroke-width="1.1"/></pattern></defs><text x="70.0" y="56.0" font-size="12" text-anchor="middle" font-weight="bold">大＼小</text>
<text x="120.0" y="76.0" font-size="14" text-anchor="middle" font-weight="bold">1</text>
<text x="168.0" y="76.0" font-size="14" text-anchor="middle" font-weight="bold">2</text>
<text x="216.0" y="76.0" font-size="14" text-anchor="middle" font-weight="bold">3</text>
<text x="264.0" y="76.0" font-size="14" text-anchor="middle" font-weight="bold">4</text>
<text x="312.0" y="76.0" font-size="14" text-anchor="middle" font-weight="bold">5</text>
<text x="360.0" y="76.0" font-size="14" text-anchor="middle" font-weight="bold">6</text>
<text x="80.0" y="117.0" font-size="14" text-anchor="middle" font-weight="bold">1</text>
<text x="80.0" y="165.0" font-size="14" text-anchor="middle" font-weight="bold">2</text>
<text x="80.0" y="213.0" font-size="14" text-anchor="middle" font-weight="bold">3</text>
<text x="80.0" y="261.0" font-size="14" text-anchor="middle" font-weight="bold">4</text>
<text x="80.0" y="309.0" font-size="14" text-anchor="middle" font-weight="bold">5</text>
<text x="80.0" y="357.0" font-size="14" text-anchor="middle" font-weight="bold">6</text>
<rect x="96.0" y="88.0" width="48.0" height="48.0" fill="none" stroke="#000" stroke-width="1.0"/>
<text x="120.0" y="117.0" font-size="14" text-anchor="middle">2</text>
<rect x="144.0" y="88.0" width="48.0" height="48.0" fill="none" stroke="#000" stroke-width="1.0"/>
<text x="168.0" y="117.0" font-size="14" text-anchor="middle">3</text>
<rect x="192.0" y="88.0" width="48.0" height="48.0" fill="none" stroke="#000" stroke-width="1.0"/>
<text x="216.0" y="117.0" font-size="14" text-anchor="middle">4</text>
<rect x="240.0" y="88.0" width="48.0" height="48.0" fill="none" stroke="#000" stroke-width="1.0"/>
<text x="264.0" y="117.0" font-size="14" text-anchor="middle">5</text>
<rect x="288.0" y="88.0" width="48.0" height="48.0" fill="none" stroke="#000" stroke-width="1.0"/>
<text x="312.0" y="117.0" font-size="14" text-anchor="middle">6</text>
<rect x="336.0" y="88.0" width="48.0" height="48.0" fill="url(#h45)" stroke="#000" stroke-width="0"/>
<rect x="336.0" y="88.0" width="48.0" height="48.0" fill="none" stroke="#000" stroke-width="1.0"/>
<text x="360.0" y="117.0" font-size="14" text-anchor="middle" font-weight="bold">7</text>
<rect x="96.0" y="136.0" width="48.0" height="48.0" fill="none" stroke="#000" stroke-width="1.0"/>
<text x="120.0" y="165.0" font-size="14" text-anchor="middle">3</text>
<rect x="144.0" y="136.0" width="48.0" height="48.0" fill="none" stroke="#000" stroke-width="1.0"/>
<text x="168.0" y="165.0" font-size="14" text-anchor="middle">4</text>
<rect x="192.0" y="136.0" width="48.0" height="48.0" fill="none" stroke="#000" stroke-width="1.0"/>
<text x="216.0" y="165.0" font-size="14" text-anchor="middle">5</text>
<rect x="240.0" y="136.0" width="48.0" height="48.0" fill="none" stroke="#000" stroke-width="1.0"/>
<text x="264.0" y="165.0" font-size="14" text-anchor="middle">6</text>
<rect x="288.0" y="136.0" width="48.0" height="48.0" fill="url(#h45)" stroke="#000" stroke-width="0"/>
<rect x="288.0" y="136.0" width="48.0" height="48.0" fill="none" stroke="#000" stroke-width="1.0"/>
<text x="312.0" y="165.0" font-size="14" text-anchor="middle" font-weight="bold">7</text>
<rect x="336.0" y="136.0" width="48.0" height="48.0" fill="none" stroke="#000" stroke-width="1.0"/>
<text x="360.0" y="165.0" font-size="14" text-anchor="middle">8</text>
<rect x="96.0" y="184.0" width="48.0" height="48.0" fill="none" stroke="#000" stroke-width="1.0"/>
<text x="120.0" y="213.0" font-size="14" text-anchor="middle">4</text>
<rect x="144.0" y="184.0" width="48.0" height="48.0" fill="none" stroke="#000" stroke-width="1.0"/>
<text x="168.0" y="213.0" font-size="14" text-anchor="middle">5</text>
<rect x="192.0" y="184.0" width="48.0" height="48.0" fill="none" stroke="#000" stroke-width="1.0"/>
<text x="216.0" y="213.0" font-size="14" text-anchor="middle">6</text>
<rect x="240.0" y="184.0" width="48.0" height="48.0" fill="url(#h45)" stroke="#000" stroke-width="0"/>
<rect x="240.0" y="184.0" width="48.0" height="48.0" fill="none" stroke="#000" stroke-width="1.0"/>
<text x="264.0" y="213.0" font-size="14" text-anchor="middle" font-weight="bold">7</text>
<rect x="288.0" y="184.0" width="48.0" height="48.0" fill="none" stroke="#000" stroke-width="1.0"/>
<text x="312.0" y="213.0" font-size="14" text-anchor="middle">8</text>
<rect x="336.0" y="184.0" width="48.0" height="48.0" fill="none" stroke="#000" stroke-width="1.0"/>
<text x="360.0" y="213.0" font-size="14" text-anchor="middle">9</text>
<rect x="96.0" y="232.0" width="48.0" height="48.0" fill="none" stroke="#000" stroke-width="1.0"/>
<text x="120.0" y="261.0" font-size="14" text-anchor="middle">5</text>
<rect x="144.0" y="232.0" width="48.0" height="48.0" fill="none" stroke="#000" stroke-width="1.0"/>
<text x="168.0" y="261.0" font-size="14" text-anchor="middle">6</text>
<rect x="192.0" y="232.0" width="48.0" height="48.0" fill="url(#h45)" stroke="#000" stroke-width="0"/>
<rect x="192.0" y="232.0" width="48.0" height="48.0" fill="none" stroke="#000" stroke-width="1.0"/>
<text x="216.0" y="261.0" font-size="14" text-anchor="middle" font-weight="bold">7</text>
<rect x="240.0" y="232.0" width="48.0" height="48.0" fill="none" stroke="#000" stroke-width="1.0"/>
<text x="264.0" y="261.0" font-size="14" text-anchor="middle">8</text>
<rect x="288.0" y="232.0" width="48.0" height="48.0" fill="none" stroke="#000" stroke-width="1.0"/>
<text x="312.0" y="261.0" font-size="14" text-anchor="middle">9</text>
<rect x="336.0" y="232.0" width="48.0" height="48.0" fill="none" stroke="#000" stroke-width="1.0"/>
<text x="360.0" y="261.0" font-size="14" text-anchor="middle">10</text>
<rect x="96.0" y="280.0" width="48.0" height="48.0" fill="none" stroke="#000" stroke-width="1.0"/>
<text x="120.0" y="309.0" font-size="14" text-anchor="middle">6</text>
<rect x="144.0" y="280.0" width="48.0" height="48.0" fill="url(#h45)" stroke="#000" stroke-width="0"/>
<rect x="144.0" y="280.0" width="48.0" height="48.0" fill="none" stroke="#000" stroke-width="1.0"/>
<text x="168.0" y="309.0" font-size="14" text-anchor="middle" font-weight="bold">7</text>
<rect x="192.0" y="280.0" width="48.0" height="48.0" fill="none" stroke="#000" stroke-width="1.0"/>
<text x="216.0" y="309.0" font-size="14" text-anchor="middle">8</text>
<rect x="240.0" y="280.0" width="48.0" height="48.0" fill="none" stroke="#000" stroke-width="1.0"/>
<text x="264.0" y="309.0" font-size="14" text-anchor="middle">9</text>
<rect x="288.0" y="280.0" width="48.0" height="48.0" fill="none" stroke="#000" stroke-width="1.0"/>
<text x="312.0" y="309.0" font-size="14" text-anchor="middle">10</text>
<rect x="336.0" y="280.0" width="48.0" height="48.0" fill="none" stroke="#000" stroke-width="1.0"/>
<text x="360.0" y="309.0" font-size="14" text-anchor="middle">11</text>
<rect x="96.0" y="328.0" width="48.0" height="48.0" fill="url(#h45)" stroke="#000" stroke-width="0"/>
<rect x="96.0" y="328.0" width="48.0" height="48.0" fill="none" stroke="#000" stroke-width="1.0"/>
<text x="120.0" y="357.0" font-size="14" text-anchor="middle" font-weight="bold">7</text>
<rect x="144.0" y="328.0" width="48.0" height="48.0" fill="none" stroke="#000" stroke-width="1.0"/>
<text x="168.0" y="357.0" font-size="14" text-anchor="middle">8</text>
<rect x="192.0" y="328.0" width="48.0" height="48.0" fill="none" stroke="#000" stroke-width="1.0"/>
<text x="216.0" y="357.0" font-size="14" text-anchor="middle">9</text>
<rect x="240.0" y="328.0" width="48.0" height="48.0" fill="none" stroke="#000" stroke-width="1.0"/>
<text x="264.0" y="357.0" font-size="14" text-anchor="middle">10</text>
<rect x="288.0" y="328.0" width="48.0" height="48.0" fill="none" stroke="#000" stroke-width="1.0"/>
<text x="312.0" y="357.0" font-size="14" text-anchor="middle">11</text>
<rect x="336.0" y="328.0" width="48.0" height="48.0" fill="none" stroke="#000" stroke-width="1.0"/>
<text x="360.0" y="357.0" font-size="14" text-anchor="middle">12</text>
<text x="240.0" y="34.0" font-size="14" text-anchor="middle" font-weight="bold">2つのさいころ——目の和の36マス</text>
<text x="240.0" y="404.0" font-size="12" text-anchor="middle">（斜線＝和が7のマス: 6通り。斜めのラインの模様で数えられる）</text>
</svg>
