<svg xmlns="http://www.w3.org/2000/svg" viewBox="0 0 480 400" role="img">
<title>積が12になるマスの位置（36マスのうち4通り）</title>
<desc>L05主概念2の図。6×6=36マスの枠（マスの中は空欄）のうち、積が12になる4マスだけをハッチングして「12」と記入。和の斜めラインとちがう場所に散る様子で「同じ36マスでも、ことがらによって場合の数はちがう」を見せる。確率の値・他のマスの積の値は図に入れない。再現指示: 空欄の6×6の表に、指定の積になるマスだけハッチングと値の記入をする。白黒のみ。</desc>
<!-- L05_fig2_two_dice_product12_cells.svg | 積が12になるマスの位置（36マスのうち4通り） -->
<!-- generated by assets_provenance/generate_figures.py on 2026-07-18 (docs/SPEC_figures.md準拠・AI再利用メタ情報つき・SVG直接編集禁止/スクリプト改修で再生成) -->
<rect x="0" y="0" width="480" height="400" fill="#fff"/>
<defs><pattern id="h45" width="6" height="6" patternUnits="userSpaceOnUse" patternTransform="rotate(45)"><line x1="0" y1="0" x2="0" y2="6" stroke="#555" stroke-width="1.1"/></pattern></defs><text x="70.0" y="56.0" font-size="12" text-anchor="middle" font-weight="bold">大＼小</text>
<text x="118.0" y="76.0" font-size="14" text-anchor="middle" font-weight="bold">1</text>
<text x="162.0" y="76.0" font-size="14" text-anchor="middle" font-weight="bold">2</text>
<text x="206.0" y="76.0" font-size="14" text-anchor="middle" font-weight="bold">3</text>
<text x="250.0" y="76.0" font-size="14" text-anchor="middle" font-weight="bold">4</text>
<text x="294.0" y="76.0" font-size="14" text-anchor="middle" font-weight="bold">5</text>
<text x="338.0" y="76.0" font-size="14" text-anchor="middle" font-weight="bold">6</text>
<text x="80.0" y="115.0" font-size="14" text-anchor="middle" font-weight="bold">1</text>
<text x="80.0" y="159.0" font-size="14" text-anchor="middle" font-weight="bold">2</text>
<text x="80.0" y="203.0" font-size="14" text-anchor="middle" font-weight="bold">3</text>
<text x="80.0" y="247.0" font-size="14" text-anchor="middle" font-weight="bold">4</text>
<text x="80.0" y="291.0" font-size="14" text-anchor="middle" font-weight="bold">5</text>
<text x="80.0" y="335.0" font-size="14" text-anchor="middle" font-weight="bold">6</text>
<rect x="96.0" y="88.0" width="44.0" height="44.0" fill="none" stroke="#000" stroke-width="1.0"/>
<rect x="140.0" y="88.0" width="44.0" height="44.0" fill="none" stroke="#000" stroke-width="1.0"/>
<rect x="184.0" y="88.0" width="44.0" height="44.0" fill="none" stroke="#000" stroke-width="1.0"/>
<rect x="228.0" y="88.0" width="44.0" height="44.0" fill="none" stroke="#000" stroke-width="1.0"/>
<rect x="272.0" y="88.0" width="44.0" height="44.0" fill="none" stroke="#000" stroke-width="1.0"/>
<rect x="316.0" y="88.0" width="44.0" height="44.0" fill="none" stroke="#000" stroke-width="1.0"/>
<rect x="96.0" y="132.0" width="44.0" height="44.0" fill="none" stroke="#000" stroke-width="1.0"/>
<rect x="140.0" y="132.0" width="44.0" height="44.0" fill="none" stroke="#000" stroke-width="1.0"/>
<rect x="184.0" y="132.0" width="44.0" height="44.0" fill="none" stroke="#000" stroke-width="1.0"/>
<rect x="228.0" y="132.0" width="44.0" height="44.0" fill="none" stroke="#000" stroke-width="1.0"/>
<rect x="272.0" y="132.0" width="44.0" height="44.0" fill="none" stroke="#000" stroke-width="1.0"/>
<rect x="316.0" y="132.0" width="44.0" height="44.0" fill="url(#h45)" stroke="#000" stroke-width="0"/>
<rect x="316.0" y="132.0" width="44.0" height="44.0" fill="none" stroke="#000" stroke-width="1.0"/>
<text x="338.0" y="159.0" font-size="12" text-anchor="middle" font-weight="bold">12</text>
<rect x="96.0" y="176.0" width="44.0" height="44.0" fill="none" stroke="#000" stroke-width="1.0"/>
<rect x="140.0" y="176.0" width="44.0" height="44.0" fill="none" stroke="#000" stroke-width="1.0"/>
<rect x="184.0" y="176.0" width="44.0" height="44.0" fill="none" stroke="#000" stroke-width="1.0"/>
<rect x="228.0" y="176.0" width="44.0" height="44.0" fill="url(#h45)" stroke="#000" stroke-width="0"/>
<rect x="228.0" y="176.0" width="44.0" height="44.0" fill="none" stroke="#000" stroke-width="1.0"/>
<text x="250.0" y="203.0" font-size="12" text-anchor="middle" font-weight="bold">12</text>
<rect x="272.0" y="176.0" width="44.0" height="44.0" fill="none" stroke="#000" stroke-width="1.0"/>
<rect x="316.0" y="176.0" width="44.0" height="44.0" fill="none" stroke="#000" stroke-width="1.0"/>
<rect x="96.0" y="220.0" width="44.0" height="44.0" fill="none" stroke="#000" stroke-width="1.0"/>
<rect x="140.0" y="220.0" width="44.0" height="44.0" fill="none" stroke="#000" stroke-width="1.0"/>
<rect x="184.0" y="220.0" width="44.0" height="44.0" fill="url(#h45)" stroke="#000" stroke-width="0"/>
<rect x="184.0" y="220.0" width="44.0" height="44.0" fill="none" stroke="#000" stroke-width="1.0"/>
<text x="206.0" y="247.0" font-size="12" text-anchor="middle" font-weight="bold">12</text>
<rect x="228.0" y="220.0" width="44.0" height="44.0" fill="none" stroke="#000" stroke-width="1.0"/>
<rect x="272.0" y="220.0" width="44.0" height="44.0" fill="none" stroke="#000" stroke-width="1.0"/>
<rect x="316.0" y="220.0" width="44.0" height="44.0" fill="none" stroke="#000" stroke-width="1.0"/>
<rect x="96.0" y="264.0" width="44.0" height="44.0" fill="none" stroke="#000" stroke-width="1.0"/>
<rect x="140.0" y="264.0" width="44.0" height="44.0" fill="none" stroke="#000" stroke-width="1.0"/>
<rect x="184.0" y="264.0" width="44.0" height="44.0" fill="none" stroke="#000" stroke-width="1.0"/>
<rect x="228.0" y="264.0" width="44.0" height="44.0" fill="none" stroke="#000" stroke-width="1.0"/>
<rect x="272.0" y="264.0" width="44.0" height="44.0" fill="none" stroke="#000" stroke-width="1.0"/>
<rect x="316.0" y="264.0" width="44.0" height="44.0" fill="none" stroke="#000" stroke-width="1.0"/>
<rect x="96.0" y="308.0" width="44.0" height="44.0" fill="none" stroke="#000" stroke-width="1.0"/>
<rect x="140.0" y="308.0" width="44.0" height="44.0" fill="url(#h45)" stroke="#000" stroke-width="0"/>
<rect x="140.0" y="308.0" width="44.0" height="44.0" fill="none" stroke="#000" stroke-width="1.0"/>
<text x="162.0" y="335.0" font-size="12" text-anchor="middle" font-weight="bold">12</text>
<rect x="184.0" y="308.0" width="44.0" height="44.0" fill="none" stroke="#000" stroke-width="1.0"/>
<rect x="228.0" y="308.0" width="44.0" height="44.0" fill="none" stroke="#000" stroke-width="1.0"/>
<rect x="272.0" y="308.0" width="44.0" height="44.0" fill="none" stroke="#000" stroke-width="1.0"/>
<rect x="316.0" y="308.0" width="44.0" height="44.0" fill="none" stroke="#000" stroke-width="1.0"/>
<text x="240.0" y="34.0" font-size="14" text-anchor="middle" font-weight="bold">同じ36マスで「積が12」を数える</text>
<text x="240.0" y="380.0" font-size="12" text-anchor="middle">（斜線＝積が12のマス: 4通り。同じ地図でも、ことがらがちがえば模様もちがう）</text>
</svg>
