<svg xmlns="http://www.w3.org/2000/svg" viewBox="0 0 480 250" role="img">
<title>「少なくとも1枚は表」の二分図（8通り=7通り+1通り）</title>
<desc>L06主概念2の二分図。3枚の硬貨の8通り（表表表〜裏裏裏）を横一列の箱で並べ、「少なくとも1枚は表」の7通りと「3枚とも裏」の1通り（斜線ハッチング）を上のかっこで二分して束ねる。起こる+起こらない=全部の構造を見せる図で、確率の分数は入れない。再現指示: 全8通りを箱の列でかき切り、補集合側のただ1つの箱だけハッチングして、二分のかっこと個数ラベルを添える。白黒のみ。</desc>
<!-- L06_fig1_at_least_one_head_partition.svg | 「少なくとも1枚は表」の二分図（8通り=7通り+1通り） -->
<!-- generated by assets_provenance/generate_figures.py on 2026-07-18 (docs/SPEC_figures.md準拠・AI再利用メタ情報つき・SVG直接編集禁止/スクリプト改修で再生成) -->
<rect x="0" y="0" width="480" height="250" fill="#fff"/>
<defs><pattern id="h45" width="6" height="6" patternUnits="userSpaceOnUse" patternTransform="rotate(45)"><line x1="0" y1="0" x2="0" y2="6" stroke="#555" stroke-width="1.1"/></pattern></defs><rect x="32.0" y="92.0" width="52.0" height="56.0" fill="none" stroke="#000" stroke-width="1.0"/>
<text x="58.0" y="108.0" font-size="11" text-anchor="middle">表</text>
<text x="58.0" y="123.0" font-size="11" text-anchor="middle">表</text>
<text x="58.0" y="138.0" font-size="11" text-anchor="middle">表</text>
<rect x="84.0" y="92.0" width="52.0" height="56.0" fill="none" stroke="#000" stroke-width="1.0"/>
<text x="110.0" y="108.0" font-size="11" text-anchor="middle">表</text>
<text x="110.0" y="123.0" font-size="11" text-anchor="middle">表</text>
<text x="110.0" y="138.0" font-size="11" text-anchor="middle">裏</text>
<rect x="136.0" y="92.0" width="52.0" height="56.0" fill="none" stroke="#000" stroke-width="1.0"/>
<text x="162.0" y="108.0" font-size="11" text-anchor="middle">表</text>
<text x="162.0" y="123.0" font-size="11" text-anchor="middle">裏</text>
<text x="162.0" y="138.0" font-size="11" text-anchor="middle">表</text>
<rect x="188.0" y="92.0" width="52.0" height="56.0" fill="none" stroke="#000" stroke-width="1.0"/>
<text x="214.0" y="108.0" font-size="11" text-anchor="middle">表</text>
<text x="214.0" y="123.0" font-size="11" text-anchor="middle">裏</text>
<text x="214.0" y="138.0" font-size="11" text-anchor="middle">裏</text>
<rect x="240.0" y="92.0" width="52.0" height="56.0" fill="none" stroke="#000" stroke-width="1.0"/>
<text x="266.0" y="108.0" font-size="11" text-anchor="middle">裏</text>
<text x="266.0" y="123.0" font-size="11" text-anchor="middle">表</text>
<text x="266.0" y="138.0" font-size="11" text-anchor="middle">表</text>
<rect x="292.0" y="92.0" width="52.0" height="56.0" fill="none" stroke="#000" stroke-width="1.0"/>
<text x="318.0" y="108.0" font-size="11" text-anchor="middle">裏</text>
<text x="318.0" y="123.0" font-size="11" text-anchor="middle">表</text>
<text x="318.0" y="138.0" font-size="11" text-anchor="middle">裏</text>
<rect x="344.0" y="92.0" width="52.0" height="56.0" fill="none" stroke="#000" stroke-width="1.0"/>
<text x="370.0" y="108.0" font-size="11" text-anchor="middle">裏</text>
<text x="370.0" y="123.0" font-size="11" text-anchor="middle">裏</text>
<text x="370.0" y="138.0" font-size="11" text-anchor="middle">表</text>
<rect x="396.0" y="92.0" width="52.0" height="56.0" fill="url(#h45)" stroke="#000" stroke-width="0"/>
<rect x="396.0" y="92.0" width="52.0" height="56.0" fill="none" stroke="#000" stroke-width="1.2"/>
<text x="422.0" y="108.0" font-size="11" text-anchor="middle">裏</text>
<text x="422.0" y="123.0" font-size="11" text-anchor="middle">裏</text>
<text x="422.0" y="138.0" font-size="11" text-anchor="middle">裏</text>
<line x1="32.0" y1="78.0" x2="392.0" y2="78.0" stroke="#000" stroke-width="1.3"/>
<line x1="32.0" y1="78.0" x2="32.0" y2="86.0" stroke="#000" stroke-width="1.3"/>
<line x1="392.0" y1="78.0" x2="392.0" y2="86.0" stroke="#000" stroke-width="1.3"/>
<text x="214.0" y="68.0" font-size="12" text-anchor="middle" font-weight="bold">少なくとも1枚は表（7通り）</text>
<line x1="400.0" y1="78.0" x2="448.0" y2="78.0" stroke="#000" stroke-width="1.3"/>
<line x1="400.0" y1="78.0" x2="400.0" y2="86.0" stroke="#000" stroke-width="1.3"/>
<line x1="448.0" y1="78.0" x2="448.0" y2="86.0" stroke="#000" stroke-width="1.3"/>
<text x="426.0" y="68.0" font-size="10.5" text-anchor="middle" font-weight="bold">3枚とも裏</text>
<text x="426.0" y="54.0" font-size="10.5" text-anchor="middle">（1通り）</text>
<text x="240.0" y="34.0" font-size="14" text-anchor="middle" font-weight="bold">3枚の硬貨の8通りを二分する</text>
<text x="240.0" y="176.0" font-size="12" text-anchor="middle">（起こる7通り＋起こらない1通り＝全部の8通り——だから1から引ける）</text>
<text x="240.0" y="196.0" font-size="11" text-anchor="middle">（斜線＝「少なくとも1枚は表」が起こらないただ1つの場合）</text>
</svg>
