<svg xmlns="http://www.w3.org/2000/svg" viewBox="0 0 480 400" role="img">
<title>4本中当たり2本のくじの二次元表（12通り・×は同じくじ）</title>
<desc>L07主概念3の二次元表。縦=Aの引くくじ（当1・当2・は1・は2）、横=Bの引くくじ。同じくじの対角4マスは×（引けない）で、残り12マスが全部の場合。各マスに当たる人（A・B・A・B・—）を記し、Aの当たりが6マス・Bの当たりが6マスで等しいことを見せる。確率の分数は図に入れない。再現指示: 4×4の表の対角を×にし、残りマスへ当たり判定の記号を書き込む。白黒のみ。</desc>
<!-- L07_fig2_lottery_two_winners_table.svg | 4本中当たり2本のくじの二次元表（12通り・×は同じくじ） -->
<!-- generated by assets_provenance/generate_figures.py on 2026-07-18 (docs/SPEC_figures.md準拠・AI再利用メタ情報つき・SVG直接編集禁止/スクリプト改修で再生成) -->
<rect x="0" y="0" width="480" height="400" fill="#fff"/>
<text x="94.0" y="60.0" font-size="12" text-anchor="middle" font-weight="bold">A＼B</text>
<text x="162.0" y="86.0" font-size="12" text-anchor="middle" font-weight="bold">当1</text>
<text x="226.0" y="86.0" font-size="12" text-anchor="middle" font-weight="bold">当2</text>
<text x="290.0" y="86.0" font-size="12" text-anchor="middle" font-weight="bold">は1</text>
<text x="354.0" y="86.0" font-size="12" text-anchor="middle" font-weight="bold">は2</text>
<text x="108.0" y="136.0" font-size="12" text-anchor="middle" font-weight="bold">当1</text>
<text x="108.0" y="200.0" font-size="12" text-anchor="middle" font-weight="bold">当2</text>
<text x="108.0" y="264.0" font-size="12" text-anchor="middle" font-weight="bold">は1</text>
<text x="108.0" y="328.0" font-size="12" text-anchor="middle" font-weight="bold">は2</text>
<rect x="130.0" y="100.0" width="64.0" height="64.0" fill="none" stroke="#000" stroke-width="1.0"/>
<line x1="153.0" y1="123.0" x2="171.0" y2="141.0" stroke="#888" stroke-width="1.4"/>
<line x1="153.0" y1="141.0" x2="171.0" y2="123.0" stroke="#888" stroke-width="1.4"/>
<rect x="194.0" y="100.0" width="64.0" height="64.0" fill="none" stroke="#000" stroke-width="1.0"/>
<text x="226.0" y="137.0" font-size="12" text-anchor="middle" font-weight="bold">A・B</text>
<rect x="258.0" y="100.0" width="64.0" height="64.0" fill="none" stroke="#000" stroke-width="1.0"/>
<text x="290.0" y="137.0" font-size="12" text-anchor="middle" font-weight="bold">A</text>
<rect x="322.0" y="100.0" width="64.0" height="64.0" fill="none" stroke="#000" stroke-width="1.0"/>
<text x="354.0" y="137.0" font-size="12" text-anchor="middle" font-weight="bold">A</text>
<rect x="130.0" y="164.0" width="64.0" height="64.0" fill="none" stroke="#000" stroke-width="1.0"/>
<text x="162.0" y="201.0" font-size="12" text-anchor="middle" font-weight="bold">A・B</text>
<rect x="194.0" y="164.0" width="64.0" height="64.0" fill="none" stroke="#000" stroke-width="1.0"/>
<line x1="217.0" y1="187.0" x2="235.0" y2="205.0" stroke="#888" stroke-width="1.4"/>
<line x1="217.0" y1="205.0" x2="235.0" y2="187.0" stroke="#888" stroke-width="1.4"/>
<rect x="258.0" y="164.0" width="64.0" height="64.0" fill="none" stroke="#000" stroke-width="1.0"/>
<text x="290.0" y="201.0" font-size="12" text-anchor="middle" font-weight="bold">A</text>
<rect x="322.0" y="164.0" width="64.0" height="64.0" fill="none" stroke="#000" stroke-width="1.0"/>
<text x="354.0" y="201.0" font-size="12" text-anchor="middle" font-weight="bold">A</text>
<rect x="130.0" y="228.0" width="64.0" height="64.0" fill="none" stroke="#000" stroke-width="1.0"/>
<text x="162.0" y="265.0" font-size="12" text-anchor="middle" font-weight="bold">B</text>
<rect x="194.0" y="228.0" width="64.0" height="64.0" fill="none" stroke="#000" stroke-width="1.0"/>
<text x="226.0" y="265.0" font-size="12" text-anchor="middle" font-weight="bold">B</text>
<rect x="258.0" y="228.0" width="64.0" height="64.0" fill="none" stroke="#000" stroke-width="1.0"/>
<line x1="281.0" y1="251.0" x2="299.0" y2="269.0" stroke="#888" stroke-width="1.4"/>
<line x1="281.0" y1="269.0" x2="299.0" y2="251.0" stroke="#888" stroke-width="1.4"/>
<rect x="322.0" y="228.0" width="64.0" height="64.0" fill="none" stroke="#000" stroke-width="1.0"/>
<text x="354.0" y="265.0" font-size="12" text-anchor="middle">—</text>
<rect x="130.0" y="292.0" width="64.0" height="64.0" fill="none" stroke="#000" stroke-width="1.0"/>
<text x="162.0" y="329.0" font-size="12" text-anchor="middle" font-weight="bold">B</text>
<rect x="194.0" y="292.0" width="64.0" height="64.0" fill="none" stroke="#000" stroke-width="1.0"/>
<text x="226.0" y="329.0" font-size="12" text-anchor="middle" font-weight="bold">B</text>
<rect x="258.0" y="292.0" width="64.0" height="64.0" fill="none" stroke="#000" stroke-width="1.0"/>
<text x="290.0" y="329.0" font-size="12" text-anchor="middle">—</text>
<rect x="322.0" y="292.0" width="64.0" height="64.0" fill="none" stroke="#000" stroke-width="1.0"/>
<line x1="345.0" y1="315.0" x2="363.0" y2="333.0" stroke="#888" stroke-width="1.4"/>
<line x1="345.0" y1="333.0" x2="363.0" y2="315.0" stroke="#888" stroke-width="1.4"/>
<text x="240.0" y="34.0" font-size="14" text-anchor="middle" font-weight="bold">4本中当たり2本のくじ（戻さない）——12通り</text>
<text x="240.0" y="384.0" font-size="10.5" text-anchor="middle">（×＝同じくじは2回引けない。マスの記号＝当たる人。Aの当たり6マス・Bの当たり6マス）</text>
</svg>
