<svg xmlns="http://www.w3.org/2000/svg" viewBox="0 0 480 300" role="img">
<title>戻さないくじ引きの樹形図（6通り・A当たり2通り/B当たり2通り）</title>
<desc>L07主概念2の樹形図。くじは当・は1・は2の3本。Aの枝3本から、引いたくじを除いた2本へBの枝が出て、末端は6通り。Aが当たる（当,は1）（当,は2）とBが当たる（は1,当）（は2,当）がそれぞれ2通りずつあることを★と行ラベルで示す。確率の分数は図に入れない。再現指示: 枝の本数が3本→2本と減る2段の樹形図をかき、6通りの結果と当たりの行ラベルを添える。白黒のみ。</desc>
<!-- L07_fig1_lottery_no_return_tree.svg | 戻さないくじ引きの樹形図（6通り・A当たり2通り/B当たり2通り） -->
<!-- generated by assets_provenance/generate_figures.py on 2026-07-18 (docs/SPEC_figures.md準拠・AI再利用メタ情報つき・SVG直接編集禁止/スクリプト改修で再生成) -->
<rect x="0" y="0" width="480" height="300" fill="#fff"/>
<text x="110.0" y="50.0" font-size="12" text-anchor="middle" font-weight="bold">A</text>
<text x="210.0" y="50.0" font-size="12" text-anchor="middle" font-weight="bold">B</text>
<text x="274.0" y="50.0" font-size="12" text-anchor="middle" font-weight="bold">結果</text>
<text x="110.0" y="97.0" font-size="14" text-anchor="middle">当</text>
<text x="210.0" y="81.0" font-size="14" text-anchor="middle">は1</text>
<line x1="128.0" y1="92.0" x2="192.0" y2="76.0" stroke="#000" stroke-width="1.1"/>
<text x="210.0" y="113.0" font-size="14" text-anchor="middle">は2</text>
<line x1="128.0" y1="92.0" x2="192.0" y2="108.0" stroke="#000" stroke-width="1.1"/>
<text x="110.0" y="161.0" font-size="14" text-anchor="middle">は1</text>
<text x="210.0" y="145.0" font-size="14" text-anchor="middle">当</text>
<line x1="128.0" y1="156.0" x2="192.0" y2="140.0" stroke="#000" stroke-width="1.1"/>
<text x="210.0" y="177.0" font-size="14" text-anchor="middle">は2</text>
<line x1="128.0" y1="156.0" x2="192.0" y2="172.0" stroke="#000" stroke-width="1.1"/>
<text x="110.0" y="225.0" font-size="14" text-anchor="middle">は2</text>
<text x="210.0" y="209.0" font-size="14" text-anchor="middle">当</text>
<line x1="128.0" y1="220.0" x2="192.0" y2="204.0" stroke="#000" stroke-width="1.1"/>
<text x="210.0" y="241.0" font-size="14" text-anchor="middle">は1</text>
<line x1="128.0" y1="220.0" x2="192.0" y2="236.0" stroke="#000" stroke-width="1.1"/>
<text x="274.0" y="81.0" font-size="12" text-anchor="start">（当, は1）Aが当たり</text>
<polygon points="260.0,70.0 261.5,74.0 265.7,74.1 262.4,76.8 263.5,80.9 260.0,78.5 256.5,80.9 257.6,76.8 254.3,74.1 258.5,74.0" fill="#000" stroke="none"/>
<text x="274.0" y="113.0" font-size="12" text-anchor="start">（当, は2）Aが当たり</text>
<polygon points="260.0,102.0 261.5,106.0 265.7,106.1 262.4,108.8 263.5,112.9 260.0,110.5 256.5,112.9 257.6,108.8 254.3,106.1 258.5,106.0" fill="#000" stroke="none"/>
<text x="274.0" y="145.0" font-size="12" text-anchor="start">（は1, 当）Bが当たり</text>
<polygon points="260.0,134.0 261.5,138.0 265.7,138.1 262.4,140.8 263.5,144.9 260.0,142.5 256.5,144.9 257.6,140.8 254.3,138.1 258.5,138.0" fill="#000" stroke="none"/>
<text x="274.0" y="177.0" font-size="12" text-anchor="start">（は1, は2）</text>
<text x="274.0" y="209.0" font-size="12" text-anchor="start">（は2, 当）Bが当たり</text>
<polygon points="260.0,198.0 261.5,202.0 265.7,202.1 262.4,204.8 263.5,208.9 260.0,206.5 256.5,208.9 257.6,204.8 254.3,202.1 258.5,202.0" fill="#000" stroke="none"/>
<text x="274.0" y="241.0" font-size="12" text-anchor="start">（は2, は1）</text>
<text x="240.0" y="34.0" font-size="14" text-anchor="middle" font-weight="bold">くじ引き（3本中当たり1本・戻さない）——全部で6通り</text>
<text x="240.0" y="280.0" font-size="12" text-anchor="middle">（★＝当たりが出る場合。Aの当たりもBの当たりも2通りずつ）</text>
</svg>
