<svg xmlns="http://www.w3.org/2000/svg" viewBox="0 0 480 250" role="img">
<title>「そろえば勝ち」ゲームの8通り仕分け図（2通り対6通り）</title>
<desc>L08主概念2の仕分け図。3枚の硬貨の8通りを箱の列でかき切り、3枚とも同じ面（表表表・裏裏裏＝ハッチング）の2通りと、そろわない6通りを上のかっこで仕分ける。『勝ち負けは2通りだから五分五分』という主張が、ふくまれる場合の数2対6で崩れることを見せる。確率の分数は図に入れない。再現指示: 全8通りを箱の列でかき、条件に合う箱だけハッチングして二分のかっこと個数を添える。白黒のみ。</desc>
<!-- L08_fig2_all_same_game_partition.svg | 「そろえば勝ち」ゲームの8通り仕分け図（2通り対6通り） -->
<!-- generated by assets_provenance/generate_figures.py on 2026-07-18 (docs/SPEC_figures.md準拠・AI再利用メタ情報つき・SVG直接編集禁止/スクリプト改修で再生成) -->
<rect x="0" y="0" width="480" height="250" fill="#fff"/>
<defs><pattern id="h45" width="6" height="6" patternUnits="userSpaceOnUse" patternTransform="rotate(45)"><line x1="0" y1="0" x2="0" y2="6" stroke="#555" stroke-width="1.1"/></pattern></defs><rect x="32.0" y="92.0" width="52.0" height="56.0" fill="url(#h45)" stroke="#000" stroke-width="0"/>
<rect x="32.0" y="92.0" width="52.0" height="56.0" fill="none" stroke="#000" stroke-width="1.2"/>
<text x="58.0" y="108.0" font-size="11" text-anchor="middle">表</text>
<text x="58.0" y="123.0" font-size="11" text-anchor="middle">表</text>
<text x="58.0" y="138.0" font-size="11" text-anchor="middle">表</text>
<rect x="84.0" y="92.0" width="52.0" height="56.0" fill="url(#h45)" stroke="#000" stroke-width="0"/>
<rect x="84.0" y="92.0" width="52.0" height="56.0" fill="none" stroke="#000" stroke-width="1.2"/>
<text x="110.0" y="108.0" font-size="11" text-anchor="middle">裏</text>
<text x="110.0" y="123.0" font-size="11" text-anchor="middle">裏</text>
<text x="110.0" y="138.0" font-size="11" text-anchor="middle">裏</text>
<rect x="136.0" y="92.0" width="52.0" height="56.0" fill="none" stroke="#000" stroke-width="1.0"/>
<text x="162.0" y="108.0" font-size="11" text-anchor="middle">表</text>
<text x="162.0" y="123.0" font-size="11" text-anchor="middle">表</text>
<text x="162.0" y="138.0" font-size="11" text-anchor="middle">裏</text>
<rect x="188.0" y="92.0" width="52.0" height="56.0" fill="none" stroke="#000" stroke-width="1.0"/>
<text x="214.0" y="108.0" font-size="11" text-anchor="middle">表</text>
<text x="214.0" y="123.0" font-size="11" text-anchor="middle">裏</text>
<text x="214.0" y="138.0" font-size="11" text-anchor="middle">表</text>
<rect x="240.0" y="92.0" width="52.0" height="56.0" fill="none" stroke="#000" stroke-width="1.0"/>
<text x="266.0" y="108.0" font-size="11" text-anchor="middle">表</text>
<text x="266.0" y="123.0" font-size="11" text-anchor="middle">裏</text>
<text x="266.0" y="138.0" font-size="11" text-anchor="middle">裏</text>
<rect x="292.0" y="92.0" width="52.0" height="56.0" fill="none" stroke="#000" stroke-width="1.0"/>
<text x="318.0" y="108.0" font-size="11" text-anchor="middle">裏</text>
<text x="318.0" y="123.0" font-size="11" text-anchor="middle">表</text>
<text x="318.0" y="138.0" font-size="11" text-anchor="middle">表</text>
<rect x="344.0" y="92.0" width="52.0" height="56.0" fill="none" stroke="#000" stroke-width="1.0"/>
<text x="370.0" y="108.0" font-size="11" text-anchor="middle">裏</text>
<text x="370.0" y="123.0" font-size="11" text-anchor="middle">表</text>
<text x="370.0" y="138.0" font-size="11" text-anchor="middle">裏</text>
<rect x="396.0" y="92.0" width="52.0" height="56.0" fill="none" stroke="#000" stroke-width="1.0"/>
<text x="422.0" y="108.0" font-size="11" text-anchor="middle">裏</text>
<text x="422.0" y="123.0" font-size="11" text-anchor="middle">裏</text>
<text x="422.0" y="138.0" font-size="11" text-anchor="middle">表</text>
<line x1="32.0" y1="78.0" x2="132.0" y2="78.0" stroke="#000" stroke-width="1.3"/>
<line x1="32.0" y1="78.0" x2="32.0" y2="86.0" stroke="#000" stroke-width="1.3"/>
<line x1="132.0" y1="78.0" x2="132.0" y2="86.0" stroke="#000" stroke-width="1.3"/>
<text x="84.0" y="54.0" font-size="10.5" text-anchor="middle" font-weight="bold">そろう</text>
<text x="84.0" y="68.0" font-size="10.5" text-anchor="middle">（2通り）</text>
<line x1="140.0" y1="78.0" x2="448.0" y2="78.0" stroke="#000" stroke-width="1.3"/>
<line x1="140.0" y1="78.0" x2="140.0" y2="86.0" stroke="#000" stroke-width="1.3"/>
<line x1="448.0" y1="78.0" x2="448.0" y2="86.0" stroke="#000" stroke-width="1.3"/>
<text x="292.0" y="68.0" font-size="12" text-anchor="middle" font-weight="bold">そろわない（6通り）</text>
<text x="240.0" y="34.0" font-size="14" text-anchor="middle" font-weight="bold">「3枚とも同じ面なら勝ち」を8通りで仕分ける</text>
<text x="240.0" y="176.0" font-size="12" text-anchor="middle">（「2通りだから五分五分」ではない——ふくまれる場合の数は2対6）</text>
</svg>
