<svg xmlns="http://www.w3.org/2000/svg" viewBox="0 0 480 262" role="img">
<title>袋Aと袋Bの赤玉の確率の通分比較（10/15と9/15）</title>
<desc>L08主概念1の比較図。同じ長さの帯2本をどちらも15等分し、袋A（赤の確率2/3=10/15）は10目盛、袋B（3/5=9/15）は9目盛をハッチング。区切り位置を破線で上下対応させ、1目盛だけ袋Aが長いことを見せる。再現指示: 等長の帯を2本、共通の分母の目盛で刻み、それぞれの分子ぶんをハッチングして端の位置を破線で比べる。白黒のみ。</desc>
<!-- L08_fig1_bag_probability_compare.svg | 袋Aと袋Bの赤玉の確率の通分比較（10/15と9/15） -->
<!-- generated by assets_provenance/generate_figures.py on 2026-07-18 (docs/SPEC_figures.md準拠・AI再利用メタ情報つき・SVG直接編集禁止/スクリプト改修で再生成) -->
<rect x="0" y="0" width="480" height="262" fill="#fff"/>
<defs><pattern id="h45" width="6" height="6" patternUnits="userSpaceOnUse" patternTransform="rotate(45)"><line x1="0" y1="0" x2="0" y2="6" stroke="#555" stroke-width="1.1"/></pattern></defs><rect x="110.0" y="66.0" width="220.0" height="40.0" fill="url(#h45)" stroke="#000" stroke-width="0"/>
<rect x="110.0" y="66.0" width="330.0" height="40.0" fill="none" stroke="#000" stroke-width="1.6"/>
<line x1="132.0" y1="66.0" x2="132.0" y2="106.0" stroke="#bbb" stroke-width="0.5"/>
<line x1="154.0" y1="66.0" x2="154.0" y2="106.0" stroke="#bbb" stroke-width="0.5"/>
<line x1="176.0" y1="66.0" x2="176.0" y2="106.0" stroke="#bbb" stroke-width="0.5"/>
<line x1="198.0" y1="66.0" x2="198.0" y2="106.0" stroke="#bbb" stroke-width="0.5"/>
<line x1="220.0" y1="66.0" x2="220.0" y2="106.0" stroke="#bbb" stroke-width="0.5"/>
<line x1="242.0" y1="66.0" x2="242.0" y2="106.0" stroke="#bbb" stroke-width="0.5"/>
<line x1="264.0" y1="66.0" x2="264.0" y2="106.0" stroke="#bbb" stroke-width="0.5"/>
<line x1="286.0" y1="66.0" x2="286.0" y2="106.0" stroke="#bbb" stroke-width="0.5"/>
<line x1="308.0" y1="66.0" x2="308.0" y2="106.0" stroke="#bbb" stroke-width="0.5"/>
<line x1="330.0" y1="66.0" x2="330.0" y2="106.0" stroke="#bbb" stroke-width="0.5"/>
<line x1="352.0" y1="66.0" x2="352.0" y2="106.0" stroke="#bbb" stroke-width="0.5"/>
<line x1="374.0" y1="66.0" x2="374.0" y2="106.0" stroke="#bbb" stroke-width="0.5"/>
<line x1="396.0" y1="66.0" x2="396.0" y2="106.0" stroke="#bbb" stroke-width="0.5"/>
<line x1="418.0" y1="66.0" x2="418.0" y2="106.0" stroke="#bbb" stroke-width="0.5"/>
<line x1="330.0" y1="66.0" x2="330.0" y2="106.0" stroke="#000" stroke-width="1.6"/>
<text x="64.0" y="91.0" font-size="14" text-anchor="middle" font-weight="bold">袋A</text>
<text x="220.0" y="58.0" font-size="12" text-anchor="middle" font-weight="bold">赤 2/3 ＝ 10/15</text>
<text x="440.0" y="122.0" font-size="10.5" text-anchor="end">全体を15とみる</text>
<rect x="110.0" y="166.0" width="198.0" height="40.0" fill="url(#h45)" stroke="#000" stroke-width="0"/>
<rect x="110.0" y="166.0" width="330.0" height="40.0" fill="none" stroke="#000" stroke-width="1.6"/>
<line x1="132.0" y1="166.0" x2="132.0" y2="206.0" stroke="#bbb" stroke-width="0.5"/>
<line x1="154.0" y1="166.0" x2="154.0" y2="206.0" stroke="#bbb" stroke-width="0.5"/>
<line x1="176.0" y1="166.0" x2="176.0" y2="206.0" stroke="#bbb" stroke-width="0.5"/>
<line x1="198.0" y1="166.0" x2="198.0" y2="206.0" stroke="#bbb" stroke-width="0.5"/>
<line x1="220.0" y1="166.0" x2="220.0" y2="206.0" stroke="#bbb" stroke-width="0.5"/>
<line x1="242.0" y1="166.0" x2="242.0" y2="206.0" stroke="#bbb" stroke-width="0.5"/>
<line x1="264.0" y1="166.0" x2="264.0" y2="206.0" stroke="#bbb" stroke-width="0.5"/>
<line x1="286.0" y1="166.0" x2="286.0" y2="206.0" stroke="#bbb" stroke-width="0.5"/>
<line x1="308.0" y1="166.0" x2="308.0" y2="206.0" stroke="#bbb" stroke-width="0.5"/>
<line x1="330.0" y1="166.0" x2="330.0" y2="206.0" stroke="#bbb" stroke-width="0.5"/>
<line x1="352.0" y1="166.0" x2="352.0" y2="206.0" stroke="#bbb" stroke-width="0.5"/>
<line x1="374.0" y1="166.0" x2="374.0" y2="206.0" stroke="#bbb" stroke-width="0.5"/>
<line x1="396.0" y1="166.0" x2="396.0" y2="206.0" stroke="#bbb" stroke-width="0.5"/>
<line x1="418.0" y1="166.0" x2="418.0" y2="206.0" stroke="#bbb" stroke-width="0.5"/>
<line x1="308.0" y1="166.0" x2="308.0" y2="206.0" stroke="#000" stroke-width="1.6"/>
<text x="64.0" y="191.0" font-size="14" text-anchor="middle" font-weight="bold">袋B</text>
<text x="209.0" y="158.0" font-size="12" text-anchor="middle" font-weight="bold">赤 3/5 ＝ 9/15</text>
<text x="440.0" y="222.0" font-size="10.5" text-anchor="end">全体を15とみる</text>
<line x1="330.0" y1="106.0" x2="330.0" y2="166.0" stroke="#000" stroke-width="1.1" stroke-dasharray="6 4"/>
<line x1="308.0" y1="106.0" x2="308.0" y2="166.0" stroke="#888" stroke-width="0.8" stroke-dasharray="2 3"/>
<text x="240.0" y="246.0" font-size="12" text-anchor="middle">（同じものさし（分母15）にそろえると、1目盛だけ袋Aが長い）</text>
</svg>
