<svg xmlns="http://www.w3.org/2000/svg" viewBox="0 0 420 262">
<title>正方形→長方形（縦＋1cm・横−1cm で面積24cm²）</title>
<desc>【この図の意図】主概念1の場面図。xの値（答え）は書かず、与件24cm²のみ記載。【主要な数値・設定】正解のxの縦横比で描画（ラベルはx表記）／縦x＋1・横x−1／面積24。【AIに同じ種類の図を描かせるときの説明文】「正方形→長方形（縦＋1cm・横−1cm で面積24cm²）。主概念1の場面図。xの値（答え）は書かず、与件24cm²のみ記載。数値・設定: 正解のxの縦横比で描画（ラベルはx表記）／縦x＋1・横x−1／面積24。白黒印刷向けのシンプルな教材図（SVG）としてかいて。」——この説明文を生成AIに渡せば同型の図を描かせられる。数値を変えれば類題用の図も作れる。</desc>
<!-- L01_fig1_square_to_rectangle_24.svg | 正方形→長方形（縦＋1cm・横−1cm で面積24cm²） -->
<!-- generated by assets_provenance/generate_figures.py on 2026-07-17 (docs/SPEC_figures.md準拠（内部規約の要旨は同SPECに反映済み）・SVG直接編集禁止/スクリプト改修で再生成) -->
<rect x="0" y="0" width="420" height="262" fill="#fff"/>
<polygon points="52.0,196.0 137.0,196.0 137.0,111.0 52.0,111.0" fill="none" stroke="#000" stroke-width="1.6" stroke-linejoin="round"/>
<line x1="52.0" y1="101.7" x2="137.0" y2="101.7" stroke="#000" stroke-width="0.9"/>
<line x1="52.0" y1="97.7" x2="52.0" y2="105.7" stroke="#000" stroke-width="0.9"/>
<line x1="137.0" y1="97.7" x2="137.0" y2="105.7" stroke="#000" stroke-width="0.9"/>
<text x="94.5" y="93.2" font-size="13" text-anchor="middle">x cm</text>
<line x1="42.6" y1="196.0" x2="42.6" y2="111.0" stroke="#000" stroke-width="0.9"/>
<line x1="38.6" y1="196.0" x2="46.6" y2="196.0" stroke="#000" stroke-width="0.9"/>
<line x1="38.6" y1="111.0" x2="46.6" y2="111.0" stroke="#000" stroke-width="0.9"/>
<text x="29.6" y="158.1" font-size="13" text-anchor="end">x cm</text>
<line x1="147.0" y1="153.5" x2="184.7" y2="153.5" stroke="#000" stroke-width="1.4"/>
<polygon points="191.7,153.5 184.7,156.7 184.7,150.3" fill="#000"/>
<text x="169.3" y="127.5" font-size="11" text-anchor="middle">縦＋1cm</text>
<text x="169.3" y="141.5" font-size="11" text-anchor="middle">横−1cm</text>
<polygon points="198.2,204.5 266.2,204.5 266.2,102.5 198.2,102.5" fill="none" stroke="#000" stroke-width="1.6" stroke-linejoin="round"/>
<line x1="198.2" y1="93.2" x2="266.2" y2="93.2" stroke="#000" stroke-width="0.9"/>
<line x1="198.2" y1="89.2" x2="198.2" y2="97.2" stroke="#000" stroke-width="0.9"/>
<line x1="266.2" y1="89.2" x2="266.2" y2="97.2" stroke="#000" stroke-width="0.9"/>
<text x="232.2" y="84.7" font-size="13" text-anchor="middle">(x−1)cm</text>
<line x1="275.6" y1="204.5" x2="275.6" y2="102.5" stroke="#000" stroke-width="0.9"/>
<line x1="271.6" y1="204.5" x2="279.6" y2="204.5" stroke="#000" stroke-width="0.9"/>
<line x1="271.6" y1="102.5" x2="279.6" y2="102.5" stroke="#000" stroke-width="0.9"/>
<text x="288.6" y="158.1" font-size="13" text-anchor="start">(x＋1)cm</text>
<text x="232.2" y="158.1" font-size="13" text-anchor="middle" font-weight="bold">面積 24cm²</text>
<text x="210.0" y="230.0" font-size="12" text-anchor="middle">一方の辺を1cm長く・他方の辺を1cm短くしたら、面積が24cm²になった</text>
<text x="210.0" y="248.0" font-size="12" text-anchor="middle">（もとの正方形の1辺 x cm は？——面積の関係から方程式をつくる）</text>
</svg>
