<svg xmlns="http://www.w3.org/2000/svg" viewBox="0 0 460 322">
<title>平方完成の面積図（x²＋6x＋9＝(x＋3)²）</title>
<desc>【この図の意図】主概念の意味理解図。方程式の解の値は書かない（9は本文明示の解説値）。【主要な数値・設定】p=6・半分h=3・x=5比で描画／帯2枚とすき間はshoelaceで面積検算。【AIに同じ種類の図を描かせるときの説明文】「平方完成の面積図（x²＋6x＋9＝(x＋3)²）。主概念の意味理解図。方程式の解の値は書かない（9は本文明示の解説値）。数値・設定: p=6・半分h=3・x=5比で描画／帯2枚とすき間はshoelaceで面積検算。白黒印刷向けのシンプルな教材図（SVG）としてかいて。」——この説明文を生成AIに渡せば同型の図を描かせられる。数値を変えれば類題用の図も作れる。</desc>
<!-- L03_fig1_completing_square_area.svg | 平方完成の面積図（x²＋6x＋9＝(x＋3)²） -->
<!-- generated by assets_provenance/generate_figures.py on 2026-07-17 (docs/SPEC_figures.md準拠（内部規約の要旨は同SPECに反映済み）・SVG直接編集禁止/スクリプト改修で再生成) -->
<rect x="0" y="0" width="460" height="322" fill="#fff"/>
<defs><pattern id="h45" width="6" height="6" patternUnits="userSpaceOnUse" patternTransform="rotate(45)"><line x1="0" y1="0" x2="0" y2="6" stroke="#555" stroke-width="1.1"/></pattern><pattern id="h135" width="6" height="6" patternUnits="userSpaceOnUse" patternTransform="rotate(135)"><line x1="0" y1="0" x2="0" y2="6" stroke="#555" stroke-width="1.1"/></pattern></defs><polygon points="30.0,250.0 105.0,250.0 105.0,175.0 30.0,175.0" fill="none" stroke="#000" stroke-width="1.6" stroke-linejoin="round"/>
<text x="67.5" y="217.8" font-size="15" text-anchor="middle" font-weight="bold">x²</text>
<line x1="30.0" y1="167.5" x2="105.0" y2="167.5" stroke="#000" stroke-width="0.9"/>
<line x1="30.0" y1="163.5" x2="30.0" y2="171.5" stroke="#000" stroke-width="0.9"/>
<line x1="105.0" y1="163.5" x2="105.0" y2="171.5" stroke="#000" stroke-width="0.9"/>
<text x="67.5" y="159.1" font-size="13" text-anchor="middle">x</text>
<line x1="22.5" y1="250.0" x2="22.5" y2="175.0" stroke="#000" stroke-width="0.9"/>
<line x1="18.5" y1="250.0" x2="26.5" y2="250.0" stroke="#000" stroke-width="0.9"/>
<line x1="18.5" y1="175.0" x2="26.5" y2="175.0" stroke="#000" stroke-width="0.9"/>
<text x="9.5" y="217.1" font-size="13" text-anchor="end">x</text>
<polygon points="120.0,250.0 165.0,250.0 165.0,175.0 120.0,175.0" fill="url(#h45)" stroke="none"/>
<polygon points="165.0,250.0 210.0,250.0 210.0,175.0 165.0,175.0" fill="url(#h135)" stroke="none"/>
<polygon points="120.0,250.0 210.0,250.0 210.0,175.0 120.0,175.0" fill="none" stroke="#000" stroke-width="1.6" stroke-linejoin="round"/>
<line x1="165.0" y1="250.0" x2="165.0" y2="175.0" stroke="#000" stroke-width="1.1" stroke-dasharray="6 4"/>
<line x1="120.0" y1="167.5" x2="165.0" y2="167.5" stroke="#000" stroke-width="0.9"/>
<line x1="120.0" y1="163.5" x2="120.0" y2="171.5" stroke="#000" stroke-width="0.9"/>
<line x1="165.0" y1="163.5" x2="165.0" y2="171.5" stroke="#000" stroke-width="0.9"/>
<text x="142.5" y="159.1" font-size="13" text-anchor="middle">3</text>
<line x1="165.0" y1="167.5" x2="210.0" y2="167.5" stroke="#000" stroke-width="0.9"/>
<line x1="165.0" y1="163.5" x2="165.0" y2="171.5" stroke="#000" stroke-width="0.9"/>
<line x1="210.0" y1="163.5" x2="210.0" y2="171.5" stroke="#000" stroke-width="0.9"/>
<text x="187.5" y="159.1" font-size="13" text-anchor="middle">3</text>
<text x="165.0" y="131.0" font-size="12" text-anchor="middle">横6を半分に切る</text>
<text x="149.5" y="271.5" font-size="13" text-anchor="middle" font-weight="bold">x²＋6x</text>
<line x1="219.0" y1="212.5" x2="246.0" y2="212.5" stroke="#000" stroke-width="1.4"/>
<polygon points="253.0,212.5 246.0,215.7 246.0,209.3" fill="#000"/>
<text x="236.0" y="200.5" font-size="11" text-anchor="middle">はり付け</text>
<polygon points="342.0,205.0 387.0,205.0 387.0,130.0 342.0,130.0" fill="url(#h45)" stroke="none"/>
<polygon points="267.0,250.0 342.0,250.0 342.0,205.0 267.0,205.0" fill="url(#h135)" stroke="none"/>
<polygon points="267.0,205.0 342.0,205.0 342.0,130.0 267.0,130.0" fill="none" stroke="#000" stroke-width="1.6" stroke-linejoin="round"/>
<polygon points="342.0,205.0 387.0,205.0 387.0,130.0 342.0,130.0" fill="none" stroke="#000" stroke-width="1.6" stroke-linejoin="round"/>
<polygon points="267.0,250.0 342.0,250.0 342.0,205.0 267.0,205.0" fill="none" stroke="#000" stroke-width="1.6" stroke-linejoin="round"/>
<polygon points="342.0,250.0 387.0,250.0 387.0,205.0 342.0,205.0" fill="none" stroke="#000" stroke-width="1.1" stroke-dasharray="6 4" stroke-linejoin="round"/>
<text x="304.5" y="172.8" font-size="15" text-anchor="middle" font-weight="bold">x²</text>
<text x="364.5" y="232.1" font-size="13" text-anchor="middle" font-weight="bold">3²</text>
<line x1="267.0" y1="122.5" x2="342.0" y2="122.5" stroke="#000" stroke-width="0.9"/>
<line x1="267.0" y1="118.5" x2="267.0" y2="126.5" stroke="#000" stroke-width="0.9"/>
<line x1="342.0" y1="118.5" x2="342.0" y2="126.5" stroke="#000" stroke-width="0.9"/>
<text x="304.5" y="114.0" font-size="13" text-anchor="middle">x</text>
<line x1="342.0" y1="122.5" x2="387.0" y2="122.5" stroke="#000" stroke-width="0.9"/>
<line x1="342.0" y1="118.5" x2="342.0" y2="126.5" stroke="#000" stroke-width="0.9"/>
<line x1="387.0" y1="118.5" x2="387.0" y2="126.5" stroke="#000" stroke-width="0.9"/>
<text x="364.5" y="114.0" font-size="13" text-anchor="middle">3</text>
<line x1="394.5" y1="205.0" x2="394.5" y2="130.0" stroke="#000" stroke-width="0.9"/>
<line x1="390.5" y1="205.0" x2="398.5" y2="205.0" stroke="#000" stroke-width="0.9"/>
<line x1="390.5" y1="130.0" x2="398.5" y2="130.0" stroke="#000" stroke-width="0.9"/>
<text x="407.5" y="172.1" font-size="13" text-anchor="start">x</text>
<line x1="394.5" y1="250.0" x2="394.5" y2="205.0" stroke="#000" stroke-width="0.9"/>
<line x1="390.5" y1="250.0" x2="398.5" y2="250.0" stroke="#000" stroke-width="0.9"/>
<line x1="390.5" y1="205.0" x2="398.5" y2="205.0" stroke="#000" stroke-width="0.9"/>
<text x="407.5" y="232.1" font-size="13" text-anchor="start">3</text>
<text x="230.0" y="292.0" font-size="12" text-anchor="middle">右下に1辺3の正方形のすき間（破線）。すき間＝3²＝9 を埋めると</text>
<text x="230.0" y="309.0" font-size="12" text-anchor="middle">大きな正方形 (x＋3)² が完成する——「係数6の半分の2乗」の正体</text>
</svg>
