<svg xmlns="http://www.w3.org/2000/svg" viewBox="0 0 460 336">
<title>箱の問題（厚紙の展開図→ふたなしの箱・容積72cm³）</title>
<desc>【この図の意図】例1の場面図。答え（xと底面の値）は書かず、与件2cm/72cm³のみ記載。【主要な数値・設定】正解のxの比で描画（ラベルはx表記）／切り取り2cm／体積はassertで72と照合。【AIに同じ種類の図を描かせるときの説明文】「箱の問題（厚紙の展開図→ふたなしの箱・容積72cm³）。例1の場面図。答え（xと底面の値）は書かず、与件2cm/72cm³のみ記載。数値・設定: 正解のxの比で描画（ラベルはx表記）／切り取り2cm／体積はassertで72と照合。白黒印刷向けのシンプルな教材図（SVG）としてかいて。」——この説明文を生成AIに渡せば同型の図を描かせられる。数値を変えれば類題用の図も作れる。</desc>
<!-- L09_fig1_box_from_square_sheet.svg | 箱の問題（厚紙の展開図→ふたなしの箱・容積72cm³） -->
<!-- generated by assets_provenance/generate_figures.py on 2026-07-17 (docs/SPEC_figures.md準拠（内部規約の要旨は同SPECに反映済み）・SVG直接編集禁止/スクリプト改修で再生成) -->
<rect x="0" y="0" width="460" height="336" fill="#fff"/>
<defs><pattern id="h45" width="6" height="6" patternUnits="userSpaceOnUse" patternTransform="rotate(45)"><line x1="0" y1="0" x2="0" y2="6" stroke="#555" stroke-width="1.1"/></pattern><pattern id="h135" width="6" height="6" patternUnits="userSpaceOnUse" patternTransform="rotate(135)"><line x1="0" y1="0" x2="0" y2="6" stroke="#555" stroke-width="1.1"/></pattern></defs><polygon points="84.0,268.0 224.0,268.0 224.0,128.0 84.0,128.0" fill="none" stroke="#000" stroke-width="1.6" stroke-linejoin="round"/>
<polygon points="84.0,268.0 112.0,268.0 112.0,240.0 84.0,240.0" fill="url(#h45)" stroke="none"/>
<polygon points="84.0,268.0 112.0,268.0 112.0,240.0 84.0,240.0" fill="none" stroke="#000" stroke-width="1.1" stroke-linejoin="round"/>
<polygon points="196.0,268.0 224.0,268.0 224.0,240.0 196.0,240.0" fill="url(#h45)" stroke="none"/>
<polygon points="196.0,268.0 224.0,268.0 224.0,240.0 196.0,240.0" fill="none" stroke="#000" stroke-width="1.1" stroke-linejoin="round"/>
<polygon points="84.0,156.0 112.0,156.0 112.0,128.0 84.0,128.0" fill="url(#h45)" stroke="none"/>
<polygon points="84.0,156.0 112.0,156.0 112.0,128.0 84.0,128.0" fill="none" stroke="#000" stroke-width="1.1" stroke-linejoin="round"/>
<polygon points="196.0,156.0 224.0,156.0 224.0,128.0 196.0,128.0" fill="url(#h45)" stroke="none"/>
<polygon points="196.0,156.0 224.0,156.0 224.0,128.0 196.0,128.0" fill="none" stroke="#000" stroke-width="1.1" stroke-linejoin="round"/>
<line x1="112.0" y1="240.0" x2="196.0" y2="240.0" stroke="#000" stroke-width="1.1" stroke-dasharray="6 4"/>
<line x1="112.0" y1="156.0" x2="196.0" y2="156.0" stroke="#000" stroke-width="1.1" stroke-dasharray="6 4"/>
<line x1="112.0" y1="240.0" x2="112.0" y2="156.0" stroke="#000" stroke-width="1.1" stroke-dasharray="6 4"/>
<line x1="196.0" y1="240.0" x2="196.0" y2="156.0" stroke="#000" stroke-width="1.1" stroke-dasharray="6 4"/>
<line x1="75.6" y1="268.0" x2="75.6" y2="128.0" stroke="#000" stroke-width="0.9"/>
<line x1="71.6" y1="268.0" x2="79.6" y2="268.0" stroke="#000" stroke-width="0.9"/>
<line x1="71.6" y1="128.0" x2="79.6" y2="128.0" stroke="#000" stroke-width="0.9"/>
<text x="62.6" y="202.6" font-size="13" text-anchor="end">x cm</text>
<line x1="196.0" y1="119.6" x2="224.0" y2="119.6" stroke="#000" stroke-width="0.9"/>
<line x1="196.0" y1="115.6" x2="196.0" y2="123.6" stroke="#000" stroke-width="0.9"/>
<line x1="224.0" y1="115.6" x2="224.0" y2="123.6" stroke="#000" stroke-width="0.9"/>
<text x="210.0" y="110.4" font-size="11" text-anchor="middle">2cm</text>
<text x="154.0" y="300.0" font-size="12" text-anchor="middle">斜線＝切り取る4すみ／点線＝折り目</text>
<line x1="231.0" y1="198.0" x2="263.0" y2="198.0" stroke="#000" stroke-width="1.6"/>
<polygon points="271.0,198.0 263.0,201.6 263.0,194.4" fill="#000"/>
<text x="259.0" y="186.0" font-size="11" text-anchor="middle">組み立てる</text>
<line x1="337.8" y1="197.7" x2="433.8" y2="197.7" stroke="#000" stroke-width="1.1" stroke-dasharray="6 4"/>
<line x1="433.8" y1="197.7" x2="381.0" y2="238.0" stroke="#000" stroke-width="1.1" stroke-dasharray="6 4"/>
<line x1="337.8" y1="197.7" x2="337.8" y2="165.7" stroke="#000" stroke-width="1.1" stroke-dasharray="6 4"/>
<line x1="285.0" y1="238.0" x2="381.0" y2="238.0" stroke="#000" stroke-width="1.6"/>
<line x1="285.0" y1="238.0" x2="337.8" y2="197.7" stroke="#000" stroke-width="1.6"/>
<line x1="285.0" y1="238.0" x2="285.0" y2="206.0" stroke="#000" stroke-width="1.6"/>
<line x1="381.0" y1="238.0" x2="381.0" y2="206.0" stroke="#000" stroke-width="1.6"/>
<line x1="433.8" y1="197.7" x2="433.8" y2="165.7" stroke="#000" stroke-width="1.6"/>
<polygon points="285.0,206.0 381.0,206.0 433.8,165.7 337.8,165.7" fill="none" stroke="#000" stroke-width="1.6" stroke-linejoin="round"/>
<line x1="389.8" y1="238.0" x2="389.8" y2="206.0" stroke="#000" stroke-width="0.9"/>
<line x1="385.8" y1="238.0" x2="393.8" y2="238.0" stroke="#000" stroke-width="0.9"/>
<line x1="385.8" y1="206.0" x2="393.8" y2="206.0" stroke="#000" stroke-width="0.9"/>
<text x="402.8" y="226.6" font-size="13" text-anchor="start">2cm</text>
<text x="368.2" y="262.0" font-size="13" text-anchor="middle" font-weight="bold">容積 72cm³</text>
<text x="368.2" y="282.0" font-size="12" text-anchor="middle">ふたのない深さ2cmの箱</text>
<text x="230.0" y="326.0" font-size="12" text-anchor="middle">（例1: もとの厚紙の1辺 x cm を求める。x＞4 が場面の条件）</text>
</svg>
