<svg xmlns="http://www.w3.org/2000/svg" viewBox="0 0 480 402">
<title>解法系統図（3本の道＋時短ルートが一次方程式に合流）</title>
<desc>【この図の意図】章末の地図。具体的な解の数値は書かず、3経路一致はassertで検算。【主要な数値・設定】経路検算=x²＋x−20/x²−64/(x＋3)²＝0＋係数4組（数値は図に書かない）。【AIに同じ種類の図を描かせるときの説明文】「解法系統図（3本の道＋時短ルートが一次方程式に合流）。章末の地図。具体的な解の数値は書かず、3経路一致はassertで検算。数値・設定: 経路検算=x²＋x−20/x²−64/(x＋3)²＝0＋係数4組（数値は図に書かない）。白黒印刷向けのシンプルな教材図（SVG）としてかいて。」——この説明文を生成AIに渡せば同型の図を描かせられる。数値を変えれば類題用の図も作れる。</desc>
<!-- L10_fig1_solution_method_map.svg | 解法系統図（3本の道＋時短ルートが一次方程式に合流） -->
<!-- generated by assets_provenance/generate_figures.py on 2026-07-17 (docs/SPEC_figures.md準拠（内部規約の要旨は同SPECに反映済み）・SVG直接編集禁止/スクリプト改修で再生成) -->
<rect x="0" y="0" width="480" height="402" fill="#fff"/>
<rect x="140.0" y="16.0" width="200.0" height="34.0" rx="4" fill="#fff" stroke="#000" stroke-width="1.6"/>
<text x="240.0" y="37.5" font-size="13" text-anchor="middle" font-weight="bold">二次方程式 ax²＋bx＋c＝0</text>
<rect x="12.0" y="96.0" width="148.0" height="62.0" rx="4" fill="#fff" stroke="#000" stroke-width="1.6"/>
<text x="86.0" y="115.0" font-size="12" text-anchor="middle" font-weight="bold">平方根の考え</text>
<text x="86.0" y="131.2" font-size="12" text-anchor="middle">x²＝k・(x＋m)²＝n</text>
<text x="86.0" y="147.4" font-size="12" text-anchor="middle">の形（L02）</text>
<rect x="172.0" y="96.0" width="136.0" height="62.0" rx="4" fill="#fff" stroke="#000" stroke-width="1.6"/>
<text x="240.0" y="115.0" font-size="12" text-anchor="middle" font-weight="bold">平方の形に変形</text>
<text x="240.0" y="131.2" font-size="12" text-anchor="middle">→平方根の考え</text>
<text x="240.0" y="147.4" font-size="12" text-anchor="middle">（L03）</text>
<rect x="318.0" y="96.0" width="150.0" height="62.0" rx="4" fill="#fff" stroke="#000" stroke-width="1.6"/>
<text x="393.0" y="115.0" font-size="12" text-anchor="middle" font-weight="bold">因数分解（L05）</text>
<text x="393.0" y="131.2" font-size="12" text-anchor="middle">AB＝0ならば</text>
<text x="393.0" y="147.4" font-size="12" text-anchor="middle">A＝0またはB＝0</text>
<line x1="240.0" y1="50.0" x2="92.8" y2="90.2" stroke="#000" stroke-width="1.4"/>
<polygon points="86.0,92.0 91.9,87.1 93.6,93.2" fill="#000"/>
<line x1="240.0" y1="50.0" x2="240.0" y2="85.0" stroke="#000" stroke-width="1.4"/>
<polygon points="240.0,92.0 236.8,85.0 243.2,85.0" fill="#000"/>
<line x1="240.0" y1="50.0" x2="386.2" y2="90.1" stroke="#000" stroke-width="1.4"/>
<polygon points="393.0,92.0 385.4,93.2 387.1,87.1" fill="#000"/>
<rect x="140.0" y="226.0" width="200.0" height="36.0" rx="4" fill="#fff" stroke="#000" stroke-width="1.6"/>
<text x="240.0" y="248.6" font-size="13" text-anchor="middle" font-weight="bold">一次方程式（1本または2本）</text>
<line x1="86.0" y1="158.0" x2="184.0" y2="218.3" stroke="#000" stroke-width="1.4"/>
<polygon points="190.0,222.0 182.4,221.0 185.7,215.6" fill="#000"/>
<line x1="240.0" y1="158.0" x2="240.0" y2="215.0" stroke="#000" stroke-width="1.4"/>
<polygon points="240.0,222.0 236.8,215.0 243.2,215.0" fill="#000"/>
<line x1="393.0" y1="158.0" x2="295.9" y2="218.3" stroke="#000" stroke-width="1.4"/>
<polygon points="290.0,222.0 294.3,215.6 297.6,221.0" fill="#000"/>
<text x="285.0" y="200.0" font-size="11" text-anchor="middle">次数を下げる</text>
<line x1="240.0" y1="262.0" x2="240.0" y2="289.0" stroke="#000" stroke-width="1.4"/>
<polygon points="240.0,296.0 236.8,289.0 243.2,289.0" fill="#000"/>
<rect x="206.0" y="300.0" width="68.0" height="32.0" rx="4" fill="#fff" stroke="#000" stroke-width="1.6"/>
<text x="240.0" y="320.6" font-size="13" text-anchor="middle" font-weight="bold">解</text>
<rect x="316.0" y="272.0" width="152.0" height="66.0" rx="4" fill="#fff" stroke="#000" stroke-width="1.1" stroke-dasharray="6 4"/>
<text x="392.0" y="294.0" font-size="11" text-anchor="middle" font-weight="bold">解の公式（L04）</text>
<text x="392.0" y="308.9" font-size="11" text-anchor="middle">＝平方の形に変形の手順を</text>
<text x="392.0" y="323.7" font-size="11" text-anchor="middle">一般化した時短ルート</text>
<line x1="392.0" y1="268.0" x2="313.4" y2="154.9" stroke="#000" stroke-width="1.1" stroke-dasharray="6 4"/>
<polygon points="310.0,150.0 315.6,153.4 311.2,156.5" fill="#000"/>
<text x="16.0" y="282.0" font-size="11" text-anchor="start">※解が1つに重なるとき</text>
<text x="16.0" y="296.0" font-size="11" text-anchor="start">（(かたまり)²＝0 の形・L05）は，</text>
<text x="16.0" y="310.0" font-size="11" text-anchor="start">合流する一次方程式が1本になる</text>
<text x="240.0" y="362.0" font-size="12" text-anchor="middle">道は3本＋時短ルート1本。行き先の駅は1つ——一次方程式。</text>
<text x="240.0" y="380.0" font-size="12" text-anchor="middle">（連立方程式は「文字を減らして」、二次方程式は「次数を減らして」同じ駅へ）</text>
</svg>
