<svg xmlns="http://www.w3.org/2000/svg" viewBox="0 0 440 262">
<title>積の表し方の約束（a×4→4a・b×a→ab・1×a→a・(−1)×a→−a）</title>
<desc>【この図の意図】主概念1の可視化。4つの書き替えを対応矢印で並べ、「省く×・前に出る数・消える1」の3点を図解。練習1の答は書かない。【主要な数値・設定】a×4→4a／b×a→ab／1×a→a／(−1)×a→−a（係数4・1・−1）。【AIに同じ種類の図を描かせるときの説明文】「積の表し方の約束（a×4→4a・b×a→ab・1×a→a・(−1)×a→−a）。主概念1の可視化。4つの書き替えを対応矢印で並べ、「省く×・前に出る数・消える1」の3点を図解。練習1の答は書かない。数値・設定: a×4→4a／b×a→ab／1×a→a／(−1)×a→−a（係数4・1・−1）。白黒印刷向けのシンプルな教材図（SVG）としてかいて。」——この説明文を生成AIに渡せば同型の図を描かせられる。数値を変えれば類題用の図も作れる。</desc>
<!-- L02_fig1_product_notation_rules.svg | 積の表し方の約束（a×4→4a・b×a→ab・1×a→a・(−1)×a→−a） -->
<!-- generated by assets_provenance/generate_figures.py on 2026-07-18 (docs/SPEC_figures.md準拠・SVG直接編集禁止/スクリプト改修で再生成) -->
<rect x="0" y="0" width="440" height="262" fill="#fff"/>
<text x="220.0" y="32.0" font-size="13" text-anchor="middle" font-weight="bold">積の表し方——×を省く約束</text>
<text x="96.0" y="72.0" font-size="17" text-anchor="middle">a×4</text>
<line x1="148.0" y1="67.0" x2="189.0" y2="67.0" stroke="#000" stroke-width="1.4"/>
<polygon points="196.0,67.0 189.0,70.2 189.0,63.9" fill="#000"/>
<text x="232.0" y="72.0" font-size="17" text-anchor="middle" font-weight="bold">4a</text>
<text x="272.0" y="72.0" font-size="11" text-anchor="start">×をはぶき、数を文字の前に</text>
<text x="96.0" y="117.0" font-size="17" text-anchor="middle">b×a</text>
<line x1="148.0" y1="112.0" x2="189.0" y2="112.0" stroke="#000" stroke-width="1.4"/>
<polygon points="196.0,112.0 189.0,115.2 189.0,108.8" fill="#000"/>
<text x="232.0" y="117.0" font-size="17" text-anchor="middle" font-weight="bold">ab</text>
<text x="272.0" y="117.0" font-size="11" text-anchor="start">ふつうアルファベット順に</text>
<text x="96.0" y="162.0" font-size="17" text-anchor="middle">1×a</text>
<line x1="148.0" y1="157.0" x2="189.0" y2="157.0" stroke="#000" stroke-width="1.4"/>
<polygon points="196.0,157.0 189.0,160.2 189.0,153.8" fill="#000"/>
<text x="232.0" y="162.0" font-size="17" text-anchor="middle" font-weight="bold">a</text>
<text x="272.0" y="162.0" font-size="11" text-anchor="start">1は書かない</text>
<text x="96.0" y="207.0" font-size="17" text-anchor="middle">(−1)×a</text>
<line x1="148.0" y1="202.0" x2="189.0" y2="202.0" stroke="#000" stroke-width="1.4"/>
<polygon points="196.0,202.0 189.0,205.2 189.0,198.8" fill="#000"/>
<text x="232.0" y="207.0" font-size="17" text-anchor="middle" font-weight="bold">−a</text>
<text x="272.0" y="207.0" font-size="11" text-anchor="start">−1の1も書かない（−は残る）</text>
<text x="220.0" y="248.0" font-size="12" text-anchor="middle">省けるのはかけ算の×だけ。a＋4 の＋は省けない</text>
</svg>
