<svg xmlns="http://www.w3.org/2000/svg" viewBox="0 0 440 268">
<title>言葉の式を橋にする三段変換（代金＝1個の値段×個数→a×5→5a円）</title>
<desc>【この図の意図】主概念1の可視化。言葉の式の席にaと5が入り、約束どおり5a（円）になる流れを図解。練習の答は書かない。【主要な数値・設定】代金＝1個の値段×個数／席にaと5／a×5→5a（円）／検算a＝100で500円。【AIに同じ種類の図を描かせるときの説明文】「言葉の式を橋にする三段変換（代金＝1個の値段×個数→a×5→5a円）。主概念1の可視化。言葉の式の席にaと5が入り、約束どおり5a（円）になる流れを図解。練習の答は書かない。数値・設定: 代金＝1個の値段×個数／席にaと5／a×5→5a（円）／検算a＝100で500円。白黒印刷向けのシンプルな教材図（SVG）としてかいて。」——この説明文を生成AIに渡せば同型の図を描かせられる。数値を変えれば類題用の図も作れる。</desc>
<!-- L04_fig1_word_formula_bridge.svg | 言葉の式を橋にする三段変換（代金＝1個の値段×個数→a×5→5a円） -->
<!-- generated by assets_provenance/generate_figures.py on 2026-07-18 (docs/SPEC_figures.md準拠・SVG直接編集禁止/スクリプト改修で再生成) -->
<rect x="0" y="0" width="440" height="268" fill="#fff"/>
<text x="220.0" y="26.0" font-size="13" text-anchor="middle" font-weight="bold">言葉の式を橋にする</text>
<rect x="36.0" y="40.0" width="78.0" height="32.0" rx="4" fill="#fff" stroke="#000" stroke-width="1.6"/>
<text x="75.0" y="60.5" font-size="13" text-anchor="middle">代金</text>
<text x="128.0" y="61.0" font-size="15" text-anchor="middle">＝</text>
<rect x="146.0" y="40.0" width="110.0" height="32.0" rx="4" fill="#fff" stroke="#000" stroke-width="1.6"/>
<text x="201.0" y="60.5" font-size="13" text-anchor="middle">1個の値段</text>
<text x="272.0" y="61.0" font-size="15" text-anchor="middle">×</text>
<rect x="290.0" y="40.0" width="78.0" height="32.0" rx="4" fill="#fff" stroke="#000" stroke-width="1.6"/>
<text x="329.0" y="60.5" font-size="13" text-anchor="middle">個数</text>
<line x1="201.0" y1="78.0" x2="201.0" y2="95.0" stroke="#000" stroke-width="1.2"/>
<polygon points="201.0,102.0 197.8,95.0 204.2,95.0" fill="#000"/>
<line x1="329.0" y1="78.0" x2="329.0" y2="95.0" stroke="#000" stroke-width="1.2"/>
<polygon points="329.0,102.0 325.9,95.0 332.1,95.0" fill="#000"/>
<text x="120.0" y="126.0" font-size="11" text-anchor="middle">席に入れる →</text>
<rect x="146.0" y="106.0" width="110.0" height="32.0" rx="4" fill="#fff" stroke="#000" stroke-width="1.6" stroke-dasharray="6 4"/>
<text x="201.0" y="127.6" font-size="16" text-anchor="middle" font-weight="bold">a</text>
<text x="272.0" y="127.0" font-size="15" text-anchor="middle">×</text>
<rect x="290.0" y="106.0" width="78.0" height="32.0" rx="4" fill="#fff" stroke="#000" stroke-width="1.6" stroke-dasharray="6 4"/>
<text x="329.0" y="127.6" font-size="16" text-anchor="middle" font-weight="bold">5</text>
<line x1="240.0" y1="144.0" x2="240.0" y2="161.0" stroke="#000" stroke-width="1.4"/>
<polygon points="240.0,168.0 236.8,161.0 243.2,161.0" fill="#000"/>
<text x="220.0" y="192.0" font-size="16" text-anchor="middle" font-weight="bold">a×5　→（約束どおりに書く）→　5a（円）</text>
<text x="220.0" y="226.0" font-size="12" text-anchor="middle">①言葉の式 ②席に文字と数を入れる ③約束どおりに書く</text>
<text x="220.0" y="248.0" font-size="12" text-anchor="middle">検算: a＝100 なら 5×100＝500円——場面の常識と一致 ✓</text>
</svg>
