<svg xmlns="http://www.w3.org/2000/svg" viewBox="0 0 440 250">
<title>「配って残る」の構造分解（a本から3本×5人＝15本→残りa−15本）</title>
<desc>【この図の意図】主概念3の可視化。はじめの束と配った分の2部品に分解する構造を図解。練習3の答は書かない。【主要な数値・設定】3本×5人＝15本／残りa−15本／検算a＝20で5本。【AIに同じ種類の図を描かせるときの説明文】「「配って残る」の構造分解（a本から3本×5人＝15本→残りa−15本）。主概念3の可視化。はじめの束と配った分の2部品に分解する構造を図解。練習3の答は書かない。数値・設定: 3本×5人＝15本／残りa−15本／検算a＝20で5本。白黒印刷向けのシンプルな教材図（SVG）としてかいて。」——この説明文を生成AIに渡せば同型の図を描かせられる。数値を変えれば類題用の図も作れる。</desc>
<!-- L05_fig2_distribute_and_remain.svg | 「配って残る」の構造分解（a本から3本×5人＝15本→残りa−15本） -->
<!-- generated by assets_provenance/generate_figures.py on 2026-07-18 (docs/SPEC_figures.md準拠・SVG直接編集禁止/スクリプト改修で再生成) -->
<rect x="0" y="0" width="440" height="250" fill="#fff"/>
<defs><pattern id="h45" width="6" height="6" patternUnits="userSpaceOnUse" patternTransform="rotate(45)"><line x1="0" y1="0" x2="0" y2="6" stroke="#555" stroke-width="1.1"/></pattern><pattern id="h135" width="6" height="6" patternUnits="userSpaceOnUse" patternTransform="rotate(135)"><line x1="0" y1="0" x2="0" y2="6" stroke="#555" stroke-width="1.1"/></pattern></defs><text x="220.0" y="28.0" font-size="13" text-anchor="middle" font-weight="bold">配って残る＝はじめ − 配った分</text>
<rect x="36.0" y="48.0" width="110.0" height="84.0" rx="6" fill="#fff" stroke="#000" stroke-width="1.6"/>
<line x1="52" y1="60" x2="52" y2="104" stroke="#000" stroke-width="1.1"/>
<line x1="65" y1="60" x2="65" y2="104" stroke="#000" stroke-width="1.1"/>
<line x1="78" y1="60" x2="78" y2="104" stroke="#000" stroke-width="1.1"/>
<line x1="91" y1="60" x2="91" y2="104" stroke="#000" stroke-width="1.1"/>
<line x1="104" y1="60" x2="104" y2="104" stroke="#000" stroke-width="1.1"/>
<line x1="117" y1="60" x2="117" y2="104" stroke="#000" stroke-width="1.1"/>
<text x="91.0" y="122.0" font-size="12" text-anchor="middle" font-weight="bold">はじめ a 本</text>
<line x1="152.0" y1="88.0" x2="185.7" y2="71.1" stroke="#000" stroke-width="1.4"/>
<polygon points="192.0,68.0 187.1,73.9 184.3,68.3" fill="#000"/>
<text x="172.0" y="52.0" font-size="11" text-anchor="middle">5人に3本ずつ配る</text>
<rect x="200.0" y="60.0" width="38.0" height="34.0" rx="4" fill="url(#h45)" stroke="#000" stroke-width="1.1"/>
<text x="219.0" y="82.0" font-size="11" text-anchor="middle">3本</text>
<rect x="246.0" y="60.0" width="38.0" height="34.0" rx="4" fill="url(#h45)" stroke="#000" stroke-width="1.1"/>
<text x="265.0" y="82.0" font-size="11" text-anchor="middle">3本</text>
<rect x="292.0" y="60.0" width="38.0" height="34.0" rx="4" fill="url(#h45)" stroke="#000" stroke-width="1.1"/>
<text x="311.0" y="82.0" font-size="11" text-anchor="middle">3本</text>
<rect x="338.0" y="60.0" width="38.0" height="34.0" rx="4" fill="url(#h45)" stroke="#000" stroke-width="1.1"/>
<text x="357.0" y="82.0" font-size="11" text-anchor="middle">3本</text>
<rect x="384.0" y="60.0" width="38.0" height="34.0" rx="4" fill="url(#h45)" stroke="#000" stroke-width="1.1"/>
<text x="403.0" y="82.0" font-size="11" text-anchor="middle">3本</text>
<text x="314.0" y="116.0" font-size="12" text-anchor="middle" font-weight="bold">配った分 3×5＝15（本）</text>
<line x1="220.0" y1="138.0" x2="220.0" y2="155.0" stroke="#000" stroke-width="1.4"/>
<polygon points="220.0,162.0 216.8,155.0 223.2,155.0" fill="#000"/>
<text x="220.0" y="188.0" font-size="17" text-anchor="middle" font-weight="bold">残り ＝ a − 15（本）</text>
<text x="220.0" y="222.0" font-size="12" text-anchor="middle">検算: a＝20 なら 20−15＝5本——場面と一致 ✓</text>
</svg>
