<svg xmlns="http://www.w3.org/2000/svg" viewBox="0 0 440 268">
<title>かっこ付き代入の型（2x＋7のxの席に(−3)→2×(−3)＋7＝−6＋7＝1）</title>
<desc>【この図の意図】主概念2の可視化。xの席に(−3)がかっこごとはまり、計算が流れる型を図解。練習の答は書かない（1は本文明示の解説値）。【主要な数値・設定】式2x＋7／x＝−3／2×(−3)＋7＝−6＋7＝1。【AIに同じ種類の図を描かせるときの説明文】「かっこ付き代入の型（2x＋7のxの席に(−3)→2×(−3)＋7＝−6＋7＝1）。主概念2の可視化。xの席に(−3)がかっこごとはまり、計算が流れる型を図解。練習の答は書かない（1は本文明示の解説値）。数値・設定: 式2x＋7／x＝−3／2×(−3)＋7＝−6＋7＝1。白黒印刷向けのシンプルな教材図（SVG）としてかいて。」——この説明文を生成AIに渡せば同型の図を描かせられる。数値を変えれば類題用の図も作れる。</desc>
<!-- L06_fig1_substitute_with_parentheses.svg | かっこ付き代入の型（2x＋7のxの席に(−3)→2×(−3)＋7＝−6＋7＝1） -->
<!-- generated by assets_provenance/generate_figures.py on 2026-07-18 (docs/SPEC_figures.md準拠・SVG直接編集禁止/スクリプト改修で再生成) -->
<rect x="0" y="0" width="440" height="268" fill="#fff"/>
<rect x="166.0" y="10.0" width="56.0" height="28.0" rx="4" fill="#fff" stroke="#000" stroke-width="1.6"/>
<text x="194.0" y="29.2" font-size="15" text-anchor="middle" font-weight="bold">(−3)</text>
<text x="236.0" y="24.0" font-size="11" text-anchor="start">かっこごと席に入れる</text>
<line x1="194.0" y1="42.0" x2="194.0" y2="51.0" stroke="#000" stroke-width="1.4"/>
<polygon points="194.0,58.0 190.8,51.0 197.2,51.0" fill="#000"/>
<text x="148.0" y="84.0" font-size="18" text-anchor="middle" font-weight="bold">2×</text>
<rect x="170.0" y="62.0" width="48.0" height="30.0" rx="4" fill="#fff" stroke="#000" stroke-width="1.6" stroke-dasharray="6 4"/>
<text x="246.0" y="84.0" font-size="18" text-anchor="middle" font-weight="bold">＋7</text>
<text x="194.0" y="110.0" font-size="10" text-anchor="middle">x の席（空欄）</text>
<text x="220.0" y="148.0" font-size="17" text-anchor="middle" font-weight="bold">2×(−3)＋7</text>
<line x1="220.0" y1="158.0" x2="220.0" y2="165.0" stroke="#000" stroke-width="1.2"/>
<polygon points="220.0,172.0 216.8,165.0 223.2,165.0" fill="#000"/>
<text x="220.0" y="190.0" font-size="15" text-anchor="middle">＝ −6＋7</text>
<line x1="220.0" y1="198.0" x2="220.0" y2="205.0" stroke="#000" stroke-width="1.2"/>
<polygon points="220.0,212.0 216.8,205.0 223.2,205.0" fill="#000"/>
<text x="220.0" y="230.0" font-size="17" text-anchor="middle" font-weight="bold">＝ 1</text>
<text x="220.0" y="256.0" font-size="12" text-anchor="middle">負の数は「かっこ付きで席に着く」——符号の置き忘れを防ぐ型</text>
</svg>
