<svg xmlns="http://www.w3.org/2000/svg" viewBox="0 0 440 276">
<title>式→場面の翻訳（4b−3＝袋4つ分のあめから食べた3個を除いた残り）</title>
<desc>【この図の意図】主概念2の可視化。4bと−3の部品を場面の絵に対応させる構造読みを図解。練習の答は書かない。【主要な数値・設定】袋4つ×b個＝4b／食べた3個＝−3／全体＝残っているあめの個数。【AIに同じ種類の図を描かせるときの説明文】「式→場面の翻訳（4b−3＝袋4つ分のあめから食べた3個を除いた残り）。主概念2の可視化。4bと−3の部品を場面の絵に対応させる構造読みを図解。練習の答は書かない。数値・設定: 袋4つ×b個＝4b／食べた3個＝−3／全体＝残っているあめの個数。白黒印刷向けのシンプルな教材図（SVG）としてかいて。」——この説明文を生成AIに渡せば同型の図を描かせられる。数値を変えれば類題用の図も作れる。</desc>
<!-- L07_fig1_expression_to_scene.svg | 式→場面の翻訳（4b−3＝袋4つ分のあめから食べた3個を除いた残り） -->
<!-- generated by assets_provenance/generate_figures.py on 2026-07-18 (docs/SPEC_figures.md準拠・SVG直接編集禁止/スクリプト改修で再生成) -->
<rect x="0" y="0" width="440" height="276" fill="#fff"/>
<defs><pattern id="h45" width="6" height="6" patternUnits="userSpaceOnUse" patternTransform="rotate(45)"><line x1="0" y1="0" x2="0" y2="6" stroke="#555" stroke-width="1.1"/></pattern><pattern id="h135" width="6" height="6" patternUnits="userSpaceOnUse" patternTransform="rotate(135)"><line x1="0" y1="0" x2="0" y2="6" stroke="#555" stroke-width="1.1"/></pattern></defs><rect x="150.0" y="24.0" width="60.0" height="34.0" rx="4" fill="url(#h45)" stroke="#000" stroke-width="1.6"/>
<text x="180.0" y="46.0" font-size="17" text-anchor="middle" font-weight="bold">4b</text>
<rect x="230.0" y="24.0" width="60.0" height="34.0" rx="4" fill="#fff" stroke="#000" stroke-width="1.6"/>
<text x="260.0" y="47.0" font-size="17" text-anchor="middle" font-weight="bold">−3</text>
<line x1="180.0" y1="64.0" x2="122.2" y2="94.7" stroke="#000" stroke-width="1.2"/>
<polygon points="116.0,98.0 120.7,91.9 123.7,97.5" fill="#000"/>
<line x1="260.0" y1="64.0" x2="323.7" y2="94.9" stroke="#000" stroke-width="1.2"/>
<polygon points="330.0,98.0 322.3,97.8 325.1,92.1" fill="#000"/>
<rect x="40.0" y="104.0" width="38.0" height="44.0" rx="8" fill="url(#h45)" stroke="#000" stroke-width="1.6"/>
<text x="59.0" y="130.0" font-size="11" text-anchor="middle">b個</text>
<rect x="86.0" y="104.0" width="38.0" height="44.0" rx="8" fill="url(#h45)" stroke="#000" stroke-width="1.6"/>
<text x="105.0" y="130.0" font-size="11" text-anchor="middle">b個</text>
<rect x="132.0" y="104.0" width="38.0" height="44.0" rx="8" fill="url(#h45)" stroke="#000" stroke-width="1.6"/>
<text x="151.0" y="130.0" font-size="11" text-anchor="middle">b個</text>
<rect x="178.0" y="104.0" width="38.0" height="44.0" rx="8" fill="url(#h45)" stroke="#000" stroke-width="1.6"/>
<text x="197.0" y="130.0" font-size="11" text-anchor="middle">b個</text>
<text x="129.0" y="168.0" font-size="12" text-anchor="middle" font-weight="bold">袋4つ分のあめ＝4b個</text>
<circle cx="306" cy="126" r="8" fill="#fff" stroke="#000" stroke-width="1.4"/>
<circle cx="332" cy="126" r="8" fill="#fff" stroke="#000" stroke-width="1.4"/>
<circle cx="358" cy="126" r="8" fill="#fff" stroke="#000" stroke-width="1.4"/>
<line x1="292" y1="142" x2="372" y2="110" stroke="#000" stroke-width="2.0"/>
<text x="332.0" y="168.0" font-size="12" text-anchor="middle" font-weight="bold">食べた3個を除く＝−3</text>
<text x="220.0" y="212.0" font-size="16" text-anchor="middle" font-weight="bold">4b−3 ＝ 残っているあめの個数</text>
<text x="220.0" y="240.0" font-size="12" text-anchor="middle">①部品が場面の何か ②演算がどんな操作か ③全体を1文の日本語に</text>
<text x="220.0" y="262.0" font-size="11" text-anchor="middle">（式→場面の逆向きの翻訳。部品ごとに場面の言葉へ戻す）</text>
</svg>
