<svg xmlns="http://www.w3.org/2000/svg" viewBox="0 0 440 300">
<title>碁石の数え方3通り（1辺n個・例n＝5で外側16個）</title>
<desc>【この図の意図】「数え方が違えば式も違う」の可視化。同じ16個を3通りの色分けで数える図3枚。式の展開・S1の答は書かない。【主要な数値・設定】n＝5／外側16個／①(n−1)個×4組 ②4辺×n個−角4個 ③上下n個・左右(n−2)個。【AIに同じ種類の図を描かせるときの説明文】「碁石の数え方3通り（1辺n個・例n＝5で外側16個）。「数え方が違えば式も違う」の可視化。同じ16個を3通りの色分けで数える図3枚。式の展開・S1の答は書かない。数値・設定: n＝5／外側16個／①(n−1)個×4組 ②4辺×n個−角4個 ③上下n個・左右(n−2)個。白黒印刷向けのシンプルな教材図（SVG）としてかいて。」——この説明文を生成AIに渡せば同型の図を描かせられる。数値を変えれば類題用の図も作れる。</desc>
<!-- L07_fig2_stones_three_countings.svg | 碁石の数え方3通り（1辺n個・例n＝5で外側16個） -->
<!-- generated by assets_provenance/generate_figures.py on 2026-07-18 (docs/SPEC_figures.md準拠・SVG直接編集禁止/スクリプト改修で再生成) -->
<rect x="0" y="0" width="440" height="300" fill="#fff"/>
<text x="220.0" y="26.0" font-size="13" text-anchor="middle" font-weight="bold">1辺 n 個（例: n＝5）の碁石——3通りの数え方</text>
<circle cx="48.0" cy="56.0" r="4.5" fill="#000"/>
<circle cx="48.0" cy="78.0" r="4.5" fill="#fff" stroke="#000" stroke-width="1.3"/>
<circle cx="48.0" cy="100.0" r="4.5" fill="#fff" stroke="#000" stroke-width="1.3"/>
<circle cx="48.0" cy="122.0" r="4.5" fill="#fff" stroke="#000" stroke-width="1.3"/>
<circle cx="48.0" cy="144.0" r="4.5" fill="#fff" stroke="#000" stroke-width="1.3"/>
<circle cx="70.0" cy="56.0" r="4.5" fill="#000"/>
<circle cx="70.0" cy="144.0" r="4.5" fill="#000"/>
<circle cx="92.0" cy="56.0" r="4.5" fill="#000"/>
<circle cx="92.0" cy="144.0" r="4.5" fill="#000"/>
<circle cx="114.0" cy="56.0" r="4.5" fill="#000"/>
<circle cx="114.0" cy="144.0" r="4.5" fill="#000"/>
<circle cx="136.0" cy="56.0" r="4.5" fill="#fff" stroke="#000" stroke-width="1.3"/>
<circle cx="136.0" cy="78.0" r="4.5" fill="#fff" stroke="#000" stroke-width="1.3"/>
<circle cx="136.0" cy="100.0" r="4.5" fill="#fff" stroke="#000" stroke-width="1.3"/>
<circle cx="136.0" cy="122.0" r="4.5" fill="#fff" stroke="#000" stroke-width="1.3"/>
<circle cx="136.0" cy="144.0" r="4.5" fill="#000"/>
<rect x="39.0" y="47.0" width="84.0" height="18.0" rx="8" fill="none" stroke="#000" stroke-width="1.1" stroke-dasharray="6 4"/>
<rect x="127.0" y="47.0" width="18.0" height="84.0" rx="8" fill="none" stroke="#000" stroke-width="1.1" stroke-dasharray="6 4"/>
<rect x="61.0" y="135.0" width="84.0" height="18.0" rx="8" fill="none" stroke="#000" stroke-width="1.1" stroke-dasharray="6 4"/>
<rect x="39.0" y="69.0" width="18.0" height="84.0" rx="8" fill="none" stroke="#000" stroke-width="1.1" stroke-dasharray="6 4"/>
<text x="92.0" y="172.0" font-size="10" text-anchor="middle" font-weight="bold">① (n−1)個×4組</text>
<circle cx="196.0" cy="56.0" r="4.5" fill="#000"/>
<circle cx="196.0" cy="56.0" r="8" fill="none" stroke="#000" stroke-width="1.3"/>
<circle cx="196.0" cy="78.0" r="4.5" fill="#000"/>
<circle cx="196.0" cy="100.0" r="4.5" fill="#000"/>
<circle cx="196.0" cy="122.0" r="4.5" fill="#000"/>
<circle cx="196.0" cy="144.0" r="4.5" fill="#000"/>
<circle cx="196.0" cy="144.0" r="8" fill="none" stroke="#000" stroke-width="1.3"/>
<circle cx="218.0" cy="56.0" r="4.5" fill="#000"/>
<circle cx="218.0" cy="144.0" r="4.5" fill="#000"/>
<circle cx="240.0" cy="56.0" r="4.5" fill="#000"/>
<circle cx="240.0" cy="144.0" r="4.5" fill="#000"/>
<circle cx="262.0" cy="56.0" r="4.5" fill="#000"/>
<circle cx="262.0" cy="144.0" r="4.5" fill="#000"/>
<circle cx="284.0" cy="56.0" r="4.5" fill="#000"/>
<circle cx="284.0" cy="56.0" r="8" fill="none" stroke="#000" stroke-width="1.3"/>
<circle cx="284.0" cy="78.0" r="4.5" fill="#000"/>
<circle cx="284.0" cy="100.0" r="4.5" fill="#000"/>
<circle cx="284.0" cy="122.0" r="4.5" fill="#000"/>
<circle cx="284.0" cy="144.0" r="4.5" fill="#000"/>
<circle cx="284.0" cy="144.0" r="8" fill="none" stroke="#000" stroke-width="1.3"/>
<text x="240.0" y="172.0" font-size="10" text-anchor="middle" font-weight="bold">② 4辺×n個−二重の角4個</text>
<circle cx="344.0" cy="56.0" r="4.5" fill="#000"/>
<circle cx="344.0" cy="78.0" r="4.5" fill="#fff" stroke="#000" stroke-width="1.3"/>
<circle cx="344.0" cy="100.0" r="4.5" fill="#fff" stroke="#000" stroke-width="1.3"/>
<circle cx="344.0" cy="122.0" r="4.5" fill="#fff" stroke="#000" stroke-width="1.3"/>
<circle cx="344.0" cy="144.0" r="4.5" fill="#000"/>
<circle cx="366.0" cy="56.0" r="4.5" fill="#000"/>
<circle cx="366.0" cy="144.0" r="4.5" fill="#000"/>
<circle cx="388.0" cy="56.0" r="4.5" fill="#000"/>
<circle cx="388.0" cy="144.0" r="4.5" fill="#000"/>
<circle cx="410.0" cy="56.0" r="4.5" fill="#000"/>
<circle cx="410.0" cy="144.0" r="4.5" fill="#000"/>
<circle cx="432.0" cy="56.0" r="4.5" fill="#000"/>
<circle cx="432.0" cy="78.0" r="4.5" fill="#fff" stroke="#000" stroke-width="1.3"/>
<circle cx="432.0" cy="100.0" r="4.5" fill="#fff" stroke="#000" stroke-width="1.3"/>
<circle cx="432.0" cy="122.0" r="4.5" fill="#fff" stroke="#000" stroke-width="1.3"/>
<circle cx="432.0" cy="144.0" r="4.5" fill="#000"/>
<text x="436.0" y="172.0" font-size="10" text-anchor="end" font-weight="bold">③ 上下n個・左右(n−2)個</text>
<text x="220.0" y="244.0" font-size="13" text-anchor="middle" font-weight="bold">どの数え方でも合計は同じ（n＝5 なら16個）</text>
<text x="220.0" y="266.0" font-size="11" text-anchor="middle">●・○・破線の枠は数え方のグループ分け（石の種類の違いではない）。</text>
<text x="220.0" y="284.0" font-size="11" text-anchor="middle">数え方の違いが、そのまま式の形の違いになる</text>
</svg>
