<svg xmlns="http://www.w3.org/2000/svg" viewBox="0 0 440 300">
<title>境界の数100の含む/含まない（≧・≦は●、＞・＜は○の4本の数直線）</title>
<desc>【この図の意図】主概念1の可視化。境界100を含む（●）か含まない（○）かを4本の数直線で対比。練習の答は書かない。【主要な数値・設定】境界100／x≧100・x≦100＝●含む／x＞100・x＜100＝○含まない。【AIに同じ種類の図を描かせるときの説明文】「境界の数100の含む/含まない（≧・≦は●、＞・＜は○の4本の数直線）。主概念1の可視化。境界100を含む（●）か含まない（○）かを4本の数直線で対比。練習の答は書かない。数値・設定: 境界100／x≧100・x≦100＝●含む／x＞100・x＜100＝○含まない。白黒印刷向けのシンプルな教材図（SVG）としてかいて。」——この説明文を生成AIに渡せば同型の図を描かせられる。数値を変えれば類題用の図も作れる。</desc>
<!-- L09_fig1_boundary_number_lines.svg | 境界の数100の含む/含まない（≧・≦は●、＞・＜は○の4本の数直線） -->
<!-- generated by assets_provenance/generate_figures.py on 2026-07-18 (docs/SPEC_figures.md準拠・SVG直接編集禁止/スクリプト改修で再生成) -->
<rect x="0" y="0" width="440" height="300" fill="#fff"/>
<text x="220.0" y="26.0" font-size="13" text-anchor="middle" font-weight="bold">境界の数 100 を「含む」か「含まない」か</text>
<text x="16.0" y="60.0" font-size="12" text-anchor="start">100以上　x≧100</text>
<text x="16.0" y="78.0" font-size="10" text-anchor="start">含む ●</text>
<line x1="196" y1="62" x2="416" y2="62" stroke="#000" stroke-width="1.1"/>
<line x1="408.0" y1="62.0" x2="410.0" y2="62.0" stroke="#000" stroke-width="1.1"/>
<polygon points="416.0,62.0 410.0,64.7 410.0,59.3" fill="#000"/>
<line x1="300" y1="57" x2="300" y2="67" stroke="#000" stroke-width="1.1"/>
<text x="300.0" y="84.0" font-size="11" text-anchor="middle">100</text>
<line x1="300" y1="62" x2="402" y2="62" stroke="#000" stroke-width="3.2"/>
<line x1="351.0" y1="62.0" x2="393.0" y2="62.0" stroke="#000" stroke-width="3.2"/>
<polygon points="402.0,62.0 393.0,66.0 393.0,58.0" fill="#000"/>
<circle cx="300" cy="62" r="5.5" fill="#000"/>
<text x="16.0" y="116.0" font-size="12" text-anchor="start">100以下　x≦100</text>
<text x="16.0" y="134.0" font-size="10" text-anchor="start">含む ●</text>
<line x1="196" y1="118" x2="416" y2="118" stroke="#000" stroke-width="1.1"/>
<line x1="408.0" y1="118.0" x2="410.0" y2="118.0" stroke="#000" stroke-width="1.1"/>
<polygon points="416.0,118.0 410.0,120.7 410.0,115.3" fill="#000"/>
<line x1="300" y1="113" x2="300" y2="123" stroke="#000" stroke-width="1.1"/>
<text x="300.0" y="140.0" font-size="11" text-anchor="middle">100</text>
<line x1="300" y1="118" x2="202" y2="118" stroke="#000" stroke-width="3.2"/>
<line x1="251.0" y1="118.0" x2="211.0" y2="118.0" stroke="#000" stroke-width="3.2"/>
<polygon points="202.0,118.0 211.0,114.0 211.0,122.0" fill="#000"/>
<circle cx="300" cy="118" r="5.5" fill="#000"/>
<text x="16.0" y="172.0" font-size="12" text-anchor="start">100より大きい　x＞100</text>
<text x="16.0" y="190.0" font-size="10" text-anchor="start">含まない ○</text>
<line x1="196" y1="174" x2="416" y2="174" stroke="#000" stroke-width="1.1"/>
<line x1="408.0" y1="174.0" x2="410.0" y2="174.0" stroke="#000" stroke-width="1.1"/>
<polygon points="416.0,174.0 410.0,176.7 410.0,171.3" fill="#000"/>
<line x1="300" y1="169" x2="300" y2="179" stroke="#000" stroke-width="1.1"/>
<text x="300.0" y="196.0" font-size="11" text-anchor="middle">100</text>
<line x1="300" y1="174" x2="402" y2="174" stroke="#000" stroke-width="3.2"/>
<line x1="351.0" y1="174.0" x2="393.0" y2="174.0" stroke="#000" stroke-width="3.2"/>
<polygon points="402.0,174.0 393.0,178.1 393.0,169.9" fill="#000"/>
<circle cx="300" cy="174" r="5.5" fill="#fff" stroke="#000" stroke-width="1.6"/>
<text x="16.0" y="228.0" font-size="12" text-anchor="start">100未満　x＜100</text>
<text x="16.0" y="246.0" font-size="10" text-anchor="start">含まない ○</text>
<line x1="196" y1="230" x2="416" y2="230" stroke="#000" stroke-width="1.1"/>
<line x1="408.0" y1="230.0" x2="410.0" y2="230.0" stroke="#000" stroke-width="1.1"/>
<polygon points="416.0,230.0 410.0,232.7 410.0,227.3" fill="#000"/>
<line x1="300" y1="225" x2="300" y2="235" stroke="#000" stroke-width="1.1"/>
<text x="300.0" y="252.0" font-size="11" text-anchor="middle">100</text>
<line x1="300" y1="230" x2="202" y2="230" stroke="#000" stroke-width="3.2"/>
<line x1="251.0" y1="230.0" x2="211.0" y2="230.0" stroke="#000" stroke-width="3.2"/>
<polygon points="202.0,230.0 211.0,225.9 211.0,234.1" fill="#000"/>
<circle cx="300" cy="230" r="5.5" fill="#fff" stroke="#000" stroke-width="1.6"/>
<text x="220.0" y="288.0" font-size="12" text-anchor="middle">「以上・以下」＝●で境界を含む、「より大きい・未満」＝○で含まない</text>
</svg>
