<svg xmlns="http://www.w3.org/2000/svg" viewBox="0 0 440 262">
<title>符号ごと切り取る（2x−3→2x・−3／5−4x＋1→5・−4x・＋1）</title>
<desc>【この図の意図】主概念1の可視化。＋・−の直前の切り取り位置と符号ごとの項カードを図解。練習の答は書かない。【主要な数値・設定】2x−3→項2個（2x・−3）／5−4x＋1→項3個（5・−4x・＋1）。【AIに同じ種類の図を描かせるときの説明文】「符号ごと切り取る（2x−3→2x・−3／5−4x＋1→5・−4x・＋1）。主概念1の可視化。＋・−の直前の切り取り位置と符号ごとの項カードを図解。練習の答は書かない。数値・設定: 2x−3→項2個（2x・−3）／5−4x＋1→項3個（5・−4x・＋1）。白黒印刷向けのシンプルな教材図（SVG）としてかいて。」——この説明文を生成AIに渡せば同型の図を描かせられる。数値を変えれば類題用の図も作れる。</desc>
<!-- L10_fig1_terms_cut_by_sign.svg | 符号ごと切り取る（2x−3→2x・−3／5−4x＋1→5・−4x・＋1） -->
<!-- generated by assets_provenance/generate_figures.py on 2026-07-18 (docs/SPEC_figures.md準拠・SVG直接編集禁止/スクリプト改修で再生成) -->
<rect x="0" y="0" width="440" height="262" fill="#fff"/>
<defs><pattern id="h45" width="6" height="6" patternUnits="userSpaceOnUse" patternTransform="rotate(45)"><line x1="0" y1="0" x2="0" y2="6" stroke="#555" stroke-width="1.1"/></pattern><pattern id="h135" width="6" height="6" patternUnits="userSpaceOnUse" patternTransform="rotate(135)"><line x1="0" y1="0" x2="0" y2="6" stroke="#555" stroke-width="1.1"/></pattern></defs><text x="220.0" y="28.0" font-size="13" text-anchor="middle" font-weight="bold">ハサミを入れるのは、いつも ＋・− の直前</text>
<text x="80.0" y="66.0" font-size="18" text-anchor="middle" font-weight="bold">2x − 3</text>
<line x1="86" y1="46" x2="86" y2="78" stroke="#000" stroke-width="1.1" stroke-dasharray="6 4"/>
<line x1="138.0" y1="60.0" x2="173.0" y2="60.0" stroke="#000" stroke-width="1.4"/>
<polygon points="180.0,60.0 173.0,63.1 173.0,56.9" fill="#000"/>
<rect x="192.0" y="44.0" width="54.0" height="32.0" rx="4" fill="url(#h45)" stroke="#000" stroke-width="1.6"/>
<text x="219.0" y="65.0" font-size="15" text-anchor="middle" font-weight="bold">2x</text>
<rect x="258.0" y="44.0" width="54.0" height="32.0" rx="4" fill="#fff" stroke="#000" stroke-width="1.6"/>
<text x="285.0" y="65.2" font-size="15" text-anchor="middle" font-weight="bold">−3</text>
<text x="330.0" y="65.0" font-size="11" text-anchor="start">項は2つ</text>
<text x="88.0" y="140.0" font-size="18" text-anchor="middle" font-weight="bold">5 − 4x ＋ 1</text>
<line x1="66" y1="120" x2="66" y2="152" stroke="#000" stroke-width="1.1" stroke-dasharray="6 4"/>
<line x1="122" y1="120" x2="122" y2="152" stroke="#000" stroke-width="1.1" stroke-dasharray="6 4"/>
<line x1="152.0" y1="134.0" x2="173.0" y2="134.0" stroke="#000" stroke-width="1.4"/>
<polygon points="180.0,134.0 173.0,137.2 173.0,130.8" fill="#000"/>
<rect x="192.0" y="118.0" width="44.0" height="32.0" rx="4" fill="#fff" stroke="#000" stroke-width="1.6"/>
<text x="214.0" y="139.2" font-size="15" text-anchor="middle" font-weight="bold">5</text>
<rect x="246.0" y="118.0" width="58.0" height="32.0" rx="4" fill="url(#h45)" stroke="#000" stroke-width="1.6"/>
<text x="275.0" y="139.0" font-size="15" text-anchor="middle" font-weight="bold">−4x</text>
<rect x="314.0" y="118.0" width="44.0" height="32.0" rx="4" fill="#fff" stroke="#000" stroke-width="1.6"/>
<text x="336.0" y="139.2" font-size="15" text-anchor="middle" font-weight="bold">＋1</text>
<text x="372.0" y="139.0" font-size="11" text-anchor="start">項は3つ</text>
<text x="220.0" y="188.0" font-size="13" text-anchor="middle" font-weight="bold">2x−3 ＝ 2x＋(−3)——＋で結ばれた一つひとつの部品が項</text>
<text x="220.0" y="214.0" font-size="12" text-anchor="middle">−は「ひき算の記号」ではなく、項の一部として符号ごと切り取る</text>
<text x="220.0" y="240.0" font-size="11" text-anchor="middle">斜線＝文字の項　白＝数の項</text>
</svg>
