<svg xmlns="http://www.w3.org/2000/svg" viewBox="0 0 440 316">
<title>3手順の流れ図（4x−1−2x＋5→符号ごと分解→仕分け→2x＋4）</title>
<desc>【この図の意図】主概念1の可視化。①分解②仕分け③まとめるの3手順を項カードと箱で図解。練習の答は書かない（2x＋4は本文明示の解説値）。【主要な数値・設定】式4x−1−2x＋5／文字の項4x・−2x→2x／数の項−1・＋5→＋4／結果2x＋4。【AIに同じ種類の図を描かせるときの説明文】「3手順の流れ図（4x−1−2x＋5→符号ごと分解→仕分け→2x＋4）。主概念1の可視化。①分解②仕分け③まとめるの3手順を項カードと箱で図解。練習の答は書かない（2x＋4は本文明示の解説値）。数値・設定: 式4x−1−2x＋5／文字の項4x・−2x→2x／数の項−1・＋5→＋4／結果2x＋4。白黒印刷向けのシンプルな教材図（SVG）としてかいて。」——この説明文を生成AIに渡せば同型の図を描かせられる。数値を変えれば類題用の図も作れる。</desc>
<!-- L11_fig1_sort_and_combine_flow.svg | 3手順の流れ図（4x−1−2x＋5→符号ごと分解→仕分け→2x＋4） -->
<!-- generated by assets_provenance/generate_figures.py on 2026-07-18 (docs/SPEC_figures.md準拠・SVG直接編集禁止/スクリプト改修で再生成) -->
<rect x="0" y="0" width="440" height="316" fill="#fff"/>
<defs><pattern id="h45" width="6" height="6" patternUnits="userSpaceOnUse" patternTransform="rotate(45)"><line x1="0" y1="0" x2="0" y2="6" stroke="#555" stroke-width="1.1"/></pattern><pattern id="h135" width="6" height="6" patternUnits="userSpaceOnUse" patternTransform="rotate(135)"><line x1="0" y1="0" x2="0" y2="6" stroke="#555" stroke-width="1.1"/></pattern></defs><text x="220.0" y="38.0" font-size="19" text-anchor="middle" font-weight="bold">4x − 1 − 2x ＋ 5</text>
<line x1="176" y1="18" x2="176" y2="50" stroke="#000" stroke-width="1.1" stroke-dasharray="6 4"/>
<line x1="224" y1="18" x2="224" y2="50" stroke="#000" stroke-width="1.1" stroke-dasharray="6 4"/>
<line x1="286" y1="18" x2="286" y2="50" stroke="#000" stroke-width="1.1" stroke-dasharray="6 4"/>
<rect x="38.0" y="72.0" width="70.0" height="34.0" rx="4" fill="url(#h45)" stroke="#000" stroke-width="1.6"/>
<text x="73.0" y="94.0" font-size="15" text-anchor="middle" font-weight="bold">4x</text>
<rect x="130.0" y="72.0" width="70.0" height="34.0" rx="4" fill="#fff" stroke="#000" stroke-width="1.6"/>
<text x="165.0" y="94.2" font-size="15" text-anchor="middle" font-weight="bold">−1</text>
<rect x="222.0" y="72.0" width="70.0" height="34.0" rx="4" fill="url(#h45)" stroke="#000" stroke-width="1.6"/>
<text x="257.0" y="94.0" font-size="15" text-anchor="middle" font-weight="bold">−2x</text>
<rect x="314.0" y="72.0" width="70.0" height="34.0" rx="4" fill="#fff" stroke="#000" stroke-width="1.6"/>
<text x="349.0" y="94.2" font-size="15" text-anchor="middle" font-weight="bold">＋5</text>
<text x="220.0" y="128.0" font-size="11" text-anchor="middle">①符号ごと項に分解（斜線＝文字の項・白＝数の項）</text>
<line x1="73.0" y1="132.0" x2="105.0" y2="163.1" stroke="#000" stroke-width="1.4"/>
<polygon points="110.0,168.0 102.8,165.4 107.2,160.9" fill="#000"/>
<line x1="257.0" y1="132.0" x2="152.7" y2="165.8" stroke="#000" stroke-width="1.4"/>
<polygon points="146.0,168.0 151.7,162.8 153.6,168.8" fill="#000"/>
<line x1="165.0" y1="132.0" x2="287.3" y2="166.1" stroke="#000" stroke-width="1.4"/>
<polygon points="294.0,168.0 286.4,169.2 288.1,163.1" fill="#000"/>
<line x1="349.0" y1="132.0" x2="333.3" y2="161.8" stroke="#000" stroke-width="1.4"/>
<polygon points="330.0,168.0 330.5,160.3 336.1,163.3" fill="#000"/>
<rect x="48.0" y="172.0" width="160.0" height="66.0" rx="6" fill="url(#h45)" stroke="#000" stroke-width="1.6"/>
<text x="128.0" y="192.0" font-size="12" text-anchor="middle" font-weight="bold">文字の項</text>
<text x="128.0" y="214.0" font-size="14" text-anchor="middle" font-weight="bold">4x　−2x　→ 2x</text>
<rect x="232.0" y="172.0" width="160.0" height="66.0" rx="6" fill="#fff" stroke="#000" stroke-width="1.6"/>
<text x="312.0" y="192.0" font-size="12" text-anchor="middle" font-weight="bold">数の項</text>
<text x="312.0" y="214.0" font-size="14" text-anchor="middle" font-weight="bold">−1　＋5　→ ＋4</text>
<text x="220.0" y="258.0" font-size="11" text-anchor="middle">②文字の項・数の項に仕分け ③それぞれまとめる</text>
<text x="220.0" y="286.0" font-size="17" text-anchor="middle" font-weight="bold">4x−1−2x＋5 ＝ 2x＋4</text>
<text x="220.0" y="308.0" font-size="11" text-anchor="middle">文字の項と数の項は、種類が違うのでこれ以上まとめられない</text>
</svg>
