<svg xmlns="http://www.w3.org/2000/svg" viewBox="0 0 440 248">
<title>分配の矢印図（2(3x＋4)→6x＋8——全員に配る）</title>
<desc>【この図の意図】主概念1の可視化。係数2からかっこの中の各項への矢印で「全員に配る」を図解。練習の答は書かない（6x＋8は本文明示の解説値）。【主要な数値・設定】2(3x＋4)／2×3x＝6x・2×4＝8／結果6x＋8／検算x＝10で68。【AIに同じ種類の図を描かせるときの説明文】「分配の矢印図（2(3x＋4)→6x＋8——全員に配る）。主概念1の可視化。係数2からかっこの中の各項への矢印で「全員に配る」を図解。練習の答は書かない（6x＋8は本文明示の解説値）。数値・設定: 2(3x＋4)／2×3x＝6x・2×4＝8／結果6x＋8／検算x＝10で68。白黒印刷向けのシンプルな教材図（SVG）としてかいて。」——この説明文を生成AIに渡せば同型の図を描かせられる。数値を変えれば類題用の図も作れる。</desc>
<!-- L12_fig1_distribute_arrows.svg | 分配の矢印図（2(3x＋4)→6x＋8——全員に配る） -->
<!-- generated by assets_provenance/generate_figures.py on 2026-07-18 (docs/SPEC_figures.md準拠・SVG直接編集禁止/スクリプト改修で再生成) -->
<rect x="0" y="0" width="440" height="248" fill="#fff"/>
<text x="220.0" y="32.0" font-size="13" text-anchor="middle" font-weight="bold">数×一次式——かっこの中の全員に配る</text>
<text x="120.0" y="108.0" font-size="20" text-anchor="middle" font-weight="bold">2(3x＋4)</text>
<path d="M 84 88 Q 114 66 132 86" fill="none" stroke="#000" stroke-width="1.2"/>
<line x1="130.0" y1="82.0" x2="130.7" y2="83.0" stroke="#000" stroke-width="1.2"/>
<polygon points="134.0,88.0 128.4,84.5 132.9,81.5" fill="#000"/>
<path d="M 84 88 Q 140 52 176 86" fill="none" stroke="#000" stroke-width="1.2"/>
<line x1="174.0" y1="80.0" x2="175.3" y2="82.6" stroke="#000" stroke-width="1.2"/>
<polygon points="178.0,88.0 172.9,83.8 177.7,81.4" fill="#000"/>
<line x1="196.0" y1="102.0" x2="241.0" y2="102.0" stroke="#000" stroke-width="1.6"/>
<polygon points="248.0,102.0 241.0,105.2 241.0,98.8" fill="#000"/>
<text x="310.0" y="108.0" font-size="20" text-anchor="middle" font-weight="bold">6x＋8</text>
<text x="220.0" y="148.0" font-size="13" text-anchor="middle">2×3x＝6x　　2×4＝8</text>
<text x="220.0" y="182.0" font-size="12" text-anchor="middle">矢印の本数＝かっこの中の項の数。先頭だけに配る事故を矢印で防ぐ</text>
<text x="220.0" y="208.0" font-size="12" text-anchor="middle">検算: x＝10 なら元の式は 2×34＝68、6x＋8 も 68 で一致 ✓</text>
<text x="220.0" y="232.0" font-size="11" text-anchor="middle">（(3x＋4)＋(3x＋4)、つまり「(3x＋4)の2個分」と数えても同じ）</text>
</svg>
