<svg xmlns="http://www.w3.org/2000/svg" viewBox="0 0 640 372">
<title>立体の顔ぶれ一覧（柱の仲間・錐の仲間・球）</title>
<desc>【この図の意図】本単元で扱う7つの立体の見取図を3グループに分けて提示。底面を薄いグレーで塗り、隠れ線は破線。【主要な数値・設定】底面=三角形/四角形/円・高さ共通1.05（相対値）・斜投影（奥行き1/2）。【AIに同じ種類の図を描かせるときの説明文】「立体の顔ぶれ一覧（柱の仲間・錐の仲間・球）。本単元で扱う7つの立体の見取図を3グループに分けて提示。底面を薄いグレーで塗り、隠れ線は破線。数値・設定: 底面=三角形/四角形/円・高さ共通1.05（相対値）・斜投影（奥行き1/2）。白黒印刷向けのシンプルな教材図(SVG)としてかいて。」——この説明文を生成AIに渡せば同型の図を描かせられる。数値を変えれば類題用の図も作れる。</desc>
<!-- L01_fig1_solids_family.svg | 立体の顔ぶれ一覧（柱の仲間・錐の仲間・球） -->
<!-- generated by assets_provenance/generate_figures.py on 2026-07-18 (コード来歴方式・SVG直接編集禁止/スクリプト改修で再生成) -->
<rect x="0" y="0" width="640" height="372" fill="#fff"/>
<text x="26.0" y="34.0" font-size="13" text-anchor="start" font-weight="bold">柱の仲間（柱体）</text>
<polygon points="40.0,128.0 92.0,128.0 84.2,112.4" fill="#e6e6e6" stroke="none" stroke-width="0.0001" stroke-linejoin="round"/>
<line x1="40.0" y1="128.0" x2="92.0" y2="128.0" stroke="#000" stroke-width="1.6"/>
<line x1="40.0" y1="73.4" x2="92.0" y2="73.4" stroke="#000" stroke-width="1.6"/>
<line x1="92.0" y1="128.0" x2="84.2" y2="112.4" stroke="#000" stroke-width="1.1" stroke-dasharray="6 4"/>
<line x1="92.0" y1="73.4" x2="84.2" y2="57.8" stroke="#000" stroke-width="1.6"/>
<line x1="84.2" y1="112.4" x2="40.0" y2="128.0" stroke="#000" stroke-width="1.1" stroke-dasharray="6 4"/>
<line x1="84.2" y1="57.8" x2="40.0" y2="73.4" stroke="#000" stroke-width="1.6"/>
<line x1="40.0" y1="128.0" x2="40.0" y2="73.4" stroke="#000" stroke-width="1.6"/>
<line x1="92.0" y1="128.0" x2="92.0" y2="73.4" stroke="#000" stroke-width="1.6"/>
<line x1="84.2" y1="112.4" x2="84.2" y2="57.8" stroke="#000" stroke-width="1.1" stroke-dasharray="6 4"/>
<text x="74.0" y="158.0" font-size="12" text-anchor="middle">三角柱</text>
<polygon points="150.0,128.0 202.0,128.0 217.6,112.4 165.6,112.4" fill="#e6e6e6" stroke="none" stroke-width="0.0001" stroke-linejoin="round"/>
<line x1="150.0" y1="128.0" x2="202.0" y2="128.0" stroke="#000" stroke-width="1.6"/>
<line x1="150.0" y1="73.4" x2="202.0" y2="73.4" stroke="#000" stroke-width="1.6"/>
<line x1="202.0" y1="128.0" x2="217.6" y2="112.4" stroke="#000" stroke-width="1.6"/>
<line x1="202.0" y1="73.4" x2="217.6" y2="57.8" stroke="#000" stroke-width="1.6"/>
<line x1="217.6" y1="112.4" x2="165.6" y2="112.4" stroke="#000" stroke-width="1.1" stroke-dasharray="6 4"/>
<line x1="217.6" y1="57.8" x2="165.6" y2="57.8" stroke="#000" stroke-width="1.6"/>
<line x1="165.6" y1="112.4" x2="150.0" y2="128.0" stroke="#000" stroke-width="1.1" stroke-dasharray="6 4"/>
<line x1="165.6" y1="57.8" x2="150.0" y2="73.4" stroke="#000" stroke-width="1.6"/>
<line x1="150.0" y1="128.0" x2="150.0" y2="73.4" stroke="#000" stroke-width="1.6"/>
<line x1="202.0" y1="128.0" x2="202.0" y2="73.4" stroke="#000" stroke-width="1.6"/>
<line x1="217.6" y1="112.4" x2="217.6" y2="57.8" stroke="#000" stroke-width="1.6"/>
<line x1="165.6" y1="112.4" x2="165.6" y2="57.8" stroke="#000" stroke-width="1.1" stroke-dasharray="6 4"/>
<text x="184.0" y="158.0" font-size="12" text-anchor="middle">四角柱</text>
<ellipse cx="294.0" cy="132.0" rx="30.0" ry="9.6" fill="#e6e6e6" stroke="none" stroke-width="0.0001"/>
<line x1="264.0" y1="77.4" x2="264.0" y2="132.0" stroke="#000" stroke-width="1.6"/>
<line x1="324.0" y1="77.4" x2="324.0" y2="132.0" stroke="#000" stroke-width="1.6"/>
<ellipse cx="294.0" cy="77.4" rx="30.0" ry="9.6" fill="none" stroke="#000" stroke-width="1.6"/>
<path d="M 264.0 132.0 A 30.0 9.6 0 0 0 324.0 132.0" fill="none" stroke="#000" stroke-width="1.6"/>
<path d="M 264.0 132.0 A 30.0 9.6 0 0 1 324.0 132.0" fill="none" stroke="#000" stroke-width="1.1" stroke-dasharray="6 4"/>
<text x="294.0" y="158.0" font-size="12" text-anchor="middle">円柱</text>
<text x="26.0" y="196.0" font-size="13" text-anchor="start" font-weight="bold">錐の仲間（錐体）</text>
<polygon points="40.0,296.0 92.0,296.0 84.2,280.4" fill="#e6e6e6" stroke="none" stroke-width="0.0001" stroke-linejoin="round"/>
<line x1="40.0" y1="296.0" x2="92.0" y2="296.0" stroke="#000" stroke-width="1.6"/>
<line x1="92.0" y1="296.0" x2="84.2" y2="280.4" stroke="#000" stroke-width="1.1" stroke-dasharray="6 4"/>
<line x1="84.2" y1="280.4" x2="40.0" y2="296.0" stroke="#000" stroke-width="1.1" stroke-dasharray="6 4"/>
<line x1="40.0" y1="296.0" x2="72.1" y2="236.2" stroke="#000" stroke-width="1.6"/>
<line x1="92.0" y1="296.0" x2="72.1" y2="236.2" stroke="#000" stroke-width="1.6"/>
<line x1="84.2" y1="280.4" x2="72.1" y2="236.2" stroke="#000" stroke-width="1.1" stroke-dasharray="6 4"/>
<text x="74.0" y="326.0" font-size="12" text-anchor="middle">三角錐</text>
<polygon points="150.0,296.0 202.0,296.0 217.6,280.4 165.6,280.4" fill="#e6e6e6" stroke="none" stroke-width="0.0001" stroke-linejoin="round"/>
<line x1="150.0" y1="296.0" x2="202.0" y2="296.0" stroke="#000" stroke-width="1.6"/>
<line x1="202.0" y1="296.0" x2="217.6" y2="280.4" stroke="#000" stroke-width="1.6"/>
<line x1="217.6" y1="280.4" x2="165.6" y2="280.4" stroke="#000" stroke-width="1.1" stroke-dasharray="6 4"/>
<line x1="165.6" y1="280.4" x2="150.0" y2="296.0" stroke="#000" stroke-width="1.1" stroke-dasharray="6 4"/>
<line x1="150.0" y1="296.0" x2="183.8" y2="233.6" stroke="#000" stroke-width="1.6"/>
<line x1="202.0" y1="296.0" x2="183.8" y2="233.6" stroke="#000" stroke-width="1.6"/>
<line x1="217.6" y1="280.4" x2="183.8" y2="233.6" stroke="#000" stroke-width="1.6"/>
<line x1="165.6" y1="280.4" x2="183.8" y2="233.6" stroke="#000" stroke-width="1.1" stroke-dasharray="6 4"/>
<text x="184.0" y="326.0" font-size="12" text-anchor="middle">四角錐</text>
<ellipse cx="294.0" cy="300.0" rx="30.0" ry="9.6" fill="#e6e6e6" stroke="none" stroke-width="0.0001"/>
<line x1="294.0" y1="245.4" x2="264.0" y2="300.0" stroke="#000" stroke-width="1.6"/>
<line x1="294.0" y1="245.4" x2="324.0" y2="300.0" stroke="#000" stroke-width="1.6"/>
<path d="M 264.0 300.0 A 30.0 9.6 0 0 0 324.0 300.0" fill="none" stroke="#000" stroke-width="1.6"/>
<path d="M 264.0 300.0 A 30.0 9.6 0 0 1 324.0 300.0" fill="none" stroke="#000" stroke-width="1.1" stroke-dasharray="6 4"/>
<text x="294.0" y="326.0" font-size="12" text-anchor="middle">円錐</text>
<text x="452.0" y="196.0" font-size="13" text-anchor="start" font-weight="bold">球</text>
<circle cx="500.0" cy="252.0" r="42.0" fill="none" stroke="#000" stroke-width="1.6"/>
<path d="M 458.0 252.0 A 42.0 13.4 0 0 0 542.0 252.0" fill="none" stroke="#000" stroke-width="1.1"/>
<path d="M 458.0 252.0 A 42.0 13.4 0 0 1 542.0 252.0" fill="none" stroke="#000" stroke-width="1.1" stroke-dasharray="6 4"/>
<text x="500.0" y="326.0" font-size="12" text-anchor="middle">球</text>
<text x="320.0" y="356.0" font-size="12" text-anchor="middle">底面（薄く塗った面）の形が、そのまま名前になる</text>
</svg>
