<svg xmlns="http://www.w3.org/2000/svg" viewBox="0 0 430 270">
<title>直方体ABCD-EFGHの見取図（辺のなぞり用）</title>
<desc>【この図の意図】L04まで共通で使う判定練習の舞台。頂点A〜H・上面ABCD・下面EFGH・AはEの真上・隠れ線は破線・対角線は描かない。【主要な数値・設定】幅2.3×高さ1.5×奥行き1.35（相対値）・斜投影。【AIに同じ種類の図を描かせるときの説明文】「直方体ABCD-EFGHの見取図（辺のなぞり用）。L04まで共通で使う判定練習の舞台。頂点A〜H・上面ABCD・下面EFGH・AはEの真上・隠れ線は破線・対角線は描かない。数値・設定: 幅2.3×高さ1.5×奥行き1.35（相対値）・斜投影。白黒印刷向けのシンプルな教材図(SVG)としてかいて。」——この説明文を生成AIに渡せば同型の図を描かせられる。数値を変えれば類題用の図も作れる。</desc>
<!-- L03_fig1_cuboid_ABCD_EFGH.svg | 直方体ABCD-EFGHの見取図（辺のなぞり用） -->
<!-- generated by assets_provenance/generate_figures.py on 2026-07-18 (コード来歴方式・SVG直接編集禁止/スクリプト改修で再生成) -->
<rect x="0" y="0" width="430" height="270" fill="#fff"/>
<line x1="95.0" y1="82.0" x2="306.6" y2="82.0" stroke="#000" stroke-width="1.6"/>
<line x1="306.6" y1="82.0" x2="350.5" y2="38.1" stroke="#000" stroke-width="1.6"/>
<line x1="350.5" y1="38.1" x2="138.9" y2="38.1" stroke="#000" stroke-width="1.6"/>
<line x1="138.9" y1="38.1" x2="95.0" y2="82.0" stroke="#000" stroke-width="1.6"/>
<line x1="95.0" y1="220.0" x2="306.6" y2="220.0" stroke="#000" stroke-width="1.6"/>
<line x1="306.6" y1="220.0" x2="350.5" y2="176.1" stroke="#000" stroke-width="1.6"/>
<line x1="350.5" y1="176.1" x2="138.9" y2="176.1" stroke="#000" stroke-width="1.2800000000000002" stroke-dasharray="6 4"/>
<line x1="138.9" y1="176.1" x2="95.0" y2="220.0" stroke="#000" stroke-width="1.2800000000000002" stroke-dasharray="6 4"/>
<line x1="95.0" y1="82.0" x2="95.0" y2="220.0" stroke="#000" stroke-width="1.6"/>
<line x1="306.6" y1="82.0" x2="306.6" y2="220.0" stroke="#000" stroke-width="1.6"/>
<line x1="350.5" y1="38.1" x2="350.5" y2="176.1" stroke="#000" stroke-width="1.6"/>
<line x1="138.9" y1="38.1" x2="138.9" y2="176.1" stroke="#000" stroke-width="1.2800000000000002" stroke-dasharray="6 4"/>
<text x="82.8" y="82.1" font-size="13" text-anchor="middle" font-weight="bold">A</text>
<text x="317.9" y="80.2" font-size="13" text-anchor="middle" font-weight="bold">B</text>
<text x="361.1" y="35.1" font-size="13" text-anchor="middle" font-weight="bold">C</text>
<text x="130.1" y="33.1" font-size="13" text-anchor="middle" font-weight="bold">D</text>
<text x="84.4" y="232.1" font-size="13" text-anchor="middle" font-weight="bold">E</text>
<text x="315.4" y="234.1" font-size="13" text-anchor="middle" font-weight="bold">F</text>
<text x="362.7" y="185.1" font-size="13" text-anchor="middle" font-weight="bold">G</text>
<text x="127.6" y="187.0" font-size="13" text-anchor="middle" font-weight="bold">H</text>
<text x="215.0" y="256.0" font-size="12" text-anchor="middle">見えない辺は破線。この頂点配置をL04まで使い回す</text>
</svg>
