<svg xmlns="http://www.w3.org/2000/svg" viewBox="0 0 480 300">
<title>辺ABに対する12辺の分類塗り分け図</title>
<desc>【この図の意図】消去法による判定手順の視覚化。辺ABを最太、交わる/平行/ねじれを濃淡と線幅で塗り分け（凡例つき・白黒両立）。【主要な数値・設定】L03-1と同一の直方体・分類は3Dベクトル判定（共有点/方向平行/非共面）。【AIに同じ種類の図を描かせるときの説明文】「辺ABに対する12辺の分類塗り分け図。消去法による判定手順の視覚化。辺ABを最太、交わる/平行/ねじれを濃淡と線幅で塗り分け（凡例つき・白黒両立）。数値・設定: L03-1と同一の直方体・分類は3Dベクトル判定（共有点/方向平行/非共面）。白黒印刷向けのシンプルな教材図(SVG)としてかいて。」——この説明文を生成AIに渡せば同型の図を描かせられる。数値を変えれば類題用の図も作れる。</desc>
<!-- L03_fig2_edge_AB_classify.svg | 辺ABに対する12辺の分類塗り分け図 -->
<!-- generated by assets_provenance/generate_figures.py on 2026-07-18 (コード来歴方式・SVG直接編集禁止/スクリプト改修で再生成) -->
<rect x="0" y="0" width="480" height="300" fill="#fff"/>
<line x1="95.0" y1="78.0" x2="297.4" y2="78.0" stroke="#000" stroke-width="4.2"/>
<line x1="297.4" y1="78.0" x2="339.4" y2="36.0" stroke="#c0c0c0" stroke-width="2.2"/>
<line x1="339.4" y1="36.0" x2="137.0" y2="36.0" stroke="#7a7a7a" stroke-width="1.5"/>
<line x1="137.0" y1="36.0" x2="95.0" y2="78.0" stroke="#c0c0c0" stroke-width="2.2"/>
<line x1="95.0" y1="210.0" x2="297.4" y2="210.0" stroke="#7a7a7a" stroke-width="1.5"/>
<line x1="297.4" y1="210.0" x2="339.4" y2="168.0" stroke="#3a3a3a" stroke-width="3.2"/>
<line x1="339.4" y1="168.0" x2="137.0" y2="168.0" stroke="#7a7a7a" stroke-width="1.2000000000000002" stroke-dasharray="6 4"/>
<line x1="137.0" y1="168.0" x2="95.0" y2="210.0" stroke="#3a3a3a" stroke-width="2.5600000000000005" stroke-dasharray="6 4"/>
<line x1="95.0" y1="78.0" x2="95.0" y2="210.0" stroke="#c0c0c0" stroke-width="2.2"/>
<line x1="297.4" y1="78.0" x2="297.4" y2="210.0" stroke="#c0c0c0" stroke-width="2.2"/>
<line x1="339.4" y1="36.0" x2="339.4" y2="168.0" stroke="#3a3a3a" stroke-width="3.2"/>
<line x1="137.0" y1="36.0" x2="137.0" y2="168.0" stroke="#3a3a3a" stroke-width="2.5600000000000005" stroke-dasharray="6 4"/>
<text x="82.8" y="78.1" font-size="13" text-anchor="middle" font-weight="bold">A</text>
<text x="308.7" y="76.2" font-size="13" text-anchor="middle" font-weight="bold">B</text>
<text x="350.0" y="33.0" font-size="13" text-anchor="middle" font-weight="bold">C</text>
<text x="128.2" y="31.0" font-size="13" text-anchor="middle" font-weight="bold">D</text>
<text x="84.4" y="222.1" font-size="13" text-anchor="middle" font-weight="bold">E</text>
<text x="306.2" y="224.1" font-size="13" text-anchor="middle" font-weight="bold">F</text>
<text x="351.6" y="177.0" font-size="13" text-anchor="middle" font-weight="bold">G</text>
<text x="125.7" y="178.9" font-size="13" text-anchor="middle" font-weight="bold">H</text>
<line x1="30.0" y1="246.0" x2="60.0" y2="246.0" stroke="#000" stroke-width="4.2"/>
<text x="66.0" y="250.0" font-size="11" text-anchor="start">辺AB</text>
<line x1="109.0" y1="246.0" x2="139.0" y2="246.0" stroke="#c0c0c0" stroke-width="2.2"/>
<text x="145.0" y="250.0" font-size="11" text-anchor="start">交わる</text>
<line x1="188.0" y1="246.0" x2="218.0" y2="246.0" stroke="#7a7a7a" stroke-width="1.5"/>
<text x="224.0" y="250.0" font-size="11" text-anchor="start">平行</text>
<line x1="256.0" y1="246.0" x2="286.0" y2="246.0" stroke="#3a3a3a" stroke-width="3.2"/>
<text x="292.0" y="250.0" font-size="11" text-anchor="start">ねじれの位置</text>
<text x="240.0" y="282.0" font-size="12" text-anchor="middle">交わる・平行を先に消して、残りがねじれ（消去法）</text>
</svg>
