<svg xmlns="http://www.w3.org/2000/svg" viewBox="0 0 480 290">
<title>直線と平面の垂直・点と平面の距離</title>
<desc>【この図の意図】垂直の定義（O通過の2直線との直角2つ）と、点Aから垂線の足Hまでの距離AHの視覚化。数値は載せない。【主要な数値・設定】平面y=0・ℓ方向(0,1,0)・2直線の方向(1,0,0)/(0.18,0,1)・A=(0.95,1.02,0.55)。【AIに同じ種類の図を描かせるときの説明文】「直線と平面の垂直・点と平面の距離。垂直の定義（O通過の2直線との直角2つ）と、点Aから垂線の足Hまでの距離AHの視覚化。数値は載せない。数値・設定: 平面y=0・ℓ方向(0,1,0)・2直線の方向(1,0,0)/(0.18,0,1)・A=(0.95,1.02,0.55)。白黒印刷向けのシンプルな教材図(SVG)としてかいて。」——この説明文を生成AIに渡せば同型の図を描かせられる。数値を変えれば類題用の図も作れる。</desc>
<!-- L04_fig2_perp_and_distance.svg | 直線と平面の垂直・点と平面の距離 -->
<!-- generated by assets_provenance/generate_figures.py on 2026-07-18 (コード来歴方式・SVG直接編集禁止/スクリプト改修で再生成) -->
<rect x="0" y="0" width="480" height="290" fill="#fff"/>
<polygon points="81.2,205.0 378.8,205.0 426.3,157.5 128.7,157.5" fill="#e6e6e6" stroke="#000" stroke-width="1.6" stroke-linejoin="round"/>
<text x="91.2" y="221.0" font-size="13" text-anchor="start" font-weight="bold">P</text>
<line x1="124.4" y1="181.9" x2="280.0" y2="181.9" stroke="#000" stroke-width="1.1"/>
<line x1="153.2" y1="202.3" x2="214.7" y2="161.6" stroke="#000" stroke-width="1.1"/>
<line x1="184.0" y1="181.9" x2="184.0" y2="68.6" stroke="#000" stroke-width="1.6"/>
<line x1="184.0" y1="181.9" x2="184.0" y2="203.0" stroke="#000" stroke-width="1.1" stroke-dasharray="6 4"/>
<text x="194.0" y="70.6" font-size="13" text-anchor="start" font-weight="bold">ℓ</text>
<circle cx="184.0" cy="181.9" r="2.8" fill="#000"/>
<text x="172.0" y="195.9" font-size="13" text-anchor="middle" font-weight="bold">O</text>
<polyline points="184.0,173.9 192.0,173.9 192.0,181.9" fill="none" stroke="#000" stroke-width="1.2"/>
<polyline points="184.0,173.9 190.6,169.5 190.6,177.5" fill="none" stroke="#000" stroke-width="1.2"/>
<line x1="339.9" y1="88.4" x2="339.9" y2="186.3" stroke="#000" stroke-width="1.6"/>
<line x1="322.5" y1="197.9" x2="357.3" y2="174.8" stroke="#000" stroke-width="1.1"/>
<polyline points="339.9,178.3 346.5,173.9 346.5,181.9" fill="none" stroke="#000" stroke-width="1.2"/>
<circle cx="339.9" cy="88.4" r="3.0" fill="#000"/>
<text x="341.9" y="78.4" font-size="13" text-anchor="middle" font-weight="bold">A</text>
<text x="352.9" y="199.3" font-size="13" text-anchor="middle" font-weight="bold">H</text>
<text x="365.9" y="141.4" font-size="11" text-anchor="middle">距離</text>
<text x="240.0" y="276.0" font-size="12" text-anchor="middle">ℓはOを通るP上の2直線と垂直 → Pに垂直。AHが点AとPの距離</text>
</svg>
