<svg xmlns="http://www.w3.org/2000/svg" viewBox="0 0 560 300">
<title>面の平行移動でできる柱体（積み重ねの図）</title>
<desc>【この図の意図】「動かした跡」としての柱体の視覚化。左=長方形カード＋上向き矢印→四角柱、右=円板の積み重ね→円柱。【主要な数値・設定】カード1.15×0.85・高さ1.05（相対値）・円板4枚・半径30px。【AIに同じ種類の図を描かせるときの説明文】「面の平行移動でできる柱体（積み重ねの図）。「動かした跡」としての柱体の視覚化。左=長方形カード＋上向き矢印→四角柱、右=円板の積み重ね→円柱。数値・設定: カード1.15×0.85・高さ1.05（相対値）・円板4枚・半径30px。白黒印刷向けのシンプルな教材図(SVG)としてかいて。」——この説明文を生成AIに渡せば同型の図を描かせられる。数値を変えれば類題用の図も作れる。</desc>
<!-- L05_fig1_translate_prisms.svg | 面の平行移動でできる柱体（積み重ねの図） -->
<!-- generated by assets_provenance/generate_figures.py on 2026-07-18 (コード来歴方式・SVG直接編集禁止/スクリプト改修で再生成) -->
<rect x="0" y="0" width="560" height="300" fill="#fff"/>
<polygon points="36.0,232.0 100.4,232.0 117.2,215.2 52.8,215.2" fill="#e6e6e6" stroke="#000" stroke-width="1.6" stroke-linejoin="round"/>
<line x1="76.2" y1="215.7" x2="76.2" y2="164.7" stroke="#000" stroke-width="2.0"/>
<polygon points="76.2,157.7 79.4,164.7 73.1,164.7" fill="#000"/>
<text x="76.0" y="268.0" font-size="11" text-anchor="middle">長方形カードを</text>
<text x="76.0" y="282.0" font-size="11" text-anchor="middle">上へ動かす</text>
<polygon points="150.0,232.0 214.4,232.0 231.2,215.2 166.8,215.2" fill="#e6e6e6" stroke="none" stroke-width="0.0001" stroke-linejoin="round"/>
<line x1="150.0" y1="232.0" x2="214.4" y2="232.0" stroke="#000" stroke-width="1.6"/>
<line x1="150.0" y1="173.2" x2="214.4" y2="173.2" stroke="#000" stroke-width="1.6"/>
<line x1="214.4" y1="232.0" x2="231.2" y2="215.2" stroke="#000" stroke-width="1.6"/>
<line x1="214.4" y1="173.2" x2="231.2" y2="156.4" stroke="#000" stroke-width="1.6"/>
<line x1="231.2" y1="215.2" x2="166.8" y2="215.2" stroke="#000" stroke-width="1.1" stroke-dasharray="6 4"/>
<line x1="231.2" y1="156.4" x2="166.8" y2="156.4" stroke="#000" stroke-width="1.6"/>
<line x1="166.8" y1="215.2" x2="150.0" y2="232.0" stroke="#000" stroke-width="1.1" stroke-dasharray="6 4"/>
<line x1="166.8" y1="156.4" x2="150.0" y2="173.2" stroke="#000" stroke-width="1.6"/>
<line x1="150.0" y1="232.0" x2="150.0" y2="173.2" stroke="#000" stroke-width="1.6"/>
<line x1="214.4" y1="232.0" x2="214.4" y2="173.2" stroke="#000" stroke-width="1.6"/>
<line x1="231.2" y1="215.2" x2="231.2" y2="156.4" stroke="#000" stroke-width="1.6"/>
<line x1="166.8" y1="215.2" x2="166.8" y2="156.4" stroke="#000" stroke-width="1.1" stroke-dasharray="6 4"/>
<text x="192.0" y="268.0" font-size="12" text-anchor="middle" font-weight="bold">四角柱</text>
<ellipse cx="340.0" cy="220.0" rx="30.0" ry="9.6" fill="#f2f2f2" stroke="#000" stroke-width="1.6"/>
<ellipse cx="340.0" cy="205.0" rx="30.0" ry="9.6" fill="#f2f2f2" stroke="#000" stroke-width="1.6"/>
<ellipse cx="340.0" cy="190.0" rx="30.0" ry="9.6" fill="#f2f2f2" stroke="#000" stroke-width="1.6"/>
<ellipse cx="340.0" cy="175.0" rx="30.0" ry="9.6" fill="#f2f2f2" stroke="#000" stroke-width="1.6"/>
<text x="340.0" y="268.0" font-size="11" text-anchor="middle">円板を</text>
<text x="340.0" y="282.0" font-size="11" text-anchor="middle">積み重ねる</text>
<ellipse cx="460.0" cy="232.0" rx="30.0" ry="9.6" fill="#e6e6e6" stroke="none" stroke-width="0.0001"/>
<line x1="430.0" y1="173.2" x2="430.0" y2="232.0" stroke="#000" stroke-width="1.6"/>
<line x1="490.0" y1="173.2" x2="490.0" y2="232.0" stroke="#000" stroke-width="1.6"/>
<ellipse cx="460.0" cy="173.2" rx="30.0" ry="9.6" fill="none" stroke="#000" stroke-width="1.6"/>
<path d="M 430.0 232.0 A 30.0 9.6 0 0 0 490.0 232.0" fill="none" stroke="#000" stroke-width="1.6"/>
<path d="M 430.0 232.0 A 30.0 9.6 0 0 1 490.0 232.0" fill="none" stroke="#000" stroke-width="1.1" stroke-dasharray="6 4"/>
<text x="460.0" y="268.0" font-size="12" text-anchor="middle" font-weight="bold">円柱</text>
<text x="280.0" y="34.0" font-size="13" text-anchor="middle" font-weight="bold">面を動かした跡＝立体</text>
</svg>
