<svg xmlns="http://www.w3.org/2000/svg" viewBox="0 0 620 310">
<title>回転体の代表3つ（もとの図形＋軸＋できる立体）</title>
<desc>【この図の意図】回転体の生成の視覚化。もとの平面図形は塗り・軸は一点鎖線・できる立体は薄い見取図で重ねる（3組）。【主要な数値・設定】長方形46×92px→円柱・直角三角形52×96px→円錐・半円r=52px→球（幅=半径を厳密一致）。【AIに同じ種類の図を描かせるときの説明文】「回転体の代表3つ（もとの図形＋軸＋できる立体）。回転体の生成の視覚化。もとの平面図形は塗り・軸は一点鎖線・できる立体は薄い見取図で重ねる（3組）。数値・設定: 長方形46×92px→円柱・直角三角形52×96px→円錐・半円r=52px→球（幅=半径を厳密一致）。白黒印刷向けのシンプルな教材図(SVG)としてかいて。」——この説明文を生成AIに渡せば同型の図を描かせられる。数値を変えれば類題用の図も作れる。</desc>
<!-- L05_fig2_revolution_solids.svg | 回転体の代表3つ（もとの図形＋軸＋できる立体） -->
<!-- generated by assets_provenance/generate_figures.py on 2026-07-18 (コード来歴方式・SVG直接編集禁止/スクリプト改修で再生成) -->
<rect x="0" y="0" width="620" height="310" fill="#fff"/>
<line x1="64.0" y1="126.0" x2="64.0" y2="218.0" stroke="#8a8a8a" stroke-width="1.1"/>
<line x1="156.0" y1="126.0" x2="156.0" y2="218.0" stroke="#8a8a8a" stroke-width="1.1"/>
<ellipse cx="110.0" cy="126.0" rx="46.0" ry="14.7" fill="none" stroke="#8a8a8a" stroke-width="1.1"/>
<path d="M 64.0 218.0 A 46.0 14.7 0 0 0 156.0 218.0" fill="none" stroke="#8a8a8a" stroke-width="1.1"/>
<path d="M 64.0 218.0 A 46.0 14.7 0 0 1 156.0 218.0" fill="none" stroke="#8a8a8a" stroke-width="1.1" stroke-dasharray="6 4"/>
<polygon points="110.0,218.0 156.0,218.0 156.0,126.0 110.0,126.0" fill="#bdbdbd" fill-opacity="0.85" stroke="#000" stroke-width="1.6" stroke-linejoin="round"/>
<line x1="110.0" y1="244.0" x2="110.0" y2="100.0" stroke="#000" stroke-width="1.2" stroke-dasharray="9 3 2 3"/>
<text x="116.0" y="96.0" font-size="11" text-anchor="start">軸</text>
<line x1="310.0" y1="122.0" x2="258.0" y2="218.0" stroke="#8a8a8a" stroke-width="1.1"/>
<line x1="310.0" y1="122.0" x2="362.0" y2="218.0" stroke="#8a8a8a" stroke-width="1.1"/>
<path d="M 258.0 218.0 A 52.0 16.6 0 0 0 362.0 218.0" fill="none" stroke="#8a8a8a" stroke-width="1.1"/>
<path d="M 258.0 218.0 A 52.0 16.6 0 0 1 362.0 218.0" fill="none" stroke="#8a8a8a" stroke-width="1.1" stroke-dasharray="6 4"/>
<polygon points="310.0,218.0 362.0,218.0 310.0,122.0" fill="#bdbdbd" fill-opacity="0.85" stroke="#000" stroke-width="1.6" stroke-linejoin="round"/>
<polyline points="317.0,218.0 317.0,211.0 310.0,211.0" fill="none" stroke="#000" stroke-width="1.2"/>
<line x1="310.0" y1="244.0" x2="310.0" y2="100.0" stroke="#000" stroke-width="1.2" stroke-dasharray="9 3 2 3"/>
<circle cx="508.0" cy="166.0" r="52.0" fill="none" stroke="#8a8a8a" stroke-width="1.1"/>
<path d="M 456.0 166.0 A 52.0 16.6 0 0 0 560.0 166.0" fill="none" stroke="#8a8a8a" stroke-width="1.1"/>
<path d="M 456.0 166.0 A 52.0 16.6 0 0 1 560.0 166.0" fill="none" stroke="#8a8a8a" stroke-width="1.1" stroke-dasharray="6 4"/>
<path d="M 508.0 114.0 A 52.0 52.0 0 0 1 508.0 218.0 Z" fill="#bdbdbd" fill-opacity="0.85" stroke="#000" stroke-width="1.6"/>
<line x1="508.0" y1="244.0" x2="508.0" y2="92.0" stroke="#000" stroke-width="1.2" stroke-dasharray="9 3 2 3"/>
<text x="110.0" y="262.0" font-size="12" text-anchor="middle" font-weight="bold">長方形 → 円柱</text>
<text x="310.0" y="262.0" font-size="12" text-anchor="middle" font-weight="bold">直角三角形 → 円錐</text>
<text x="510.0" y="262.0" font-size="12" text-anchor="middle" font-weight="bold">半円 → 球</text>
<text x="310.0" y="292.0" font-size="12" text-anchor="middle">塗った平面図形を、一点鎖線の軸のまわりに1回転させる</text>
</svg>
