<svg xmlns="http://www.w3.org/2000/svg" viewBox="0 0 620 350">
<title>円柱・円錐・球の投影図の並置</title>
<desc>【この図の意図】投影図の型の提示と照合訓練。3立体それぞれの見取図と投影図（上=立面図・下=平面図・仕切り横線）を対に並べる。【主要な数値・設定】円柱r22/h56・円錐r24/h60・球r26（px）・立面図の幅=平面図の直径=2rを厳密一致。【AIに同じ種類の図を描かせるときの説明文】「円柱・円錐・球の投影図の並置。投影図の型の提示と照合訓練。3立体それぞれの見取図と投影図（上=立面図・下=平面図・仕切り横線）を対に並べる。数値・設定: 円柱r22/h56・円錐r24/h60・球r26（px）・立面図の幅=平面図の直径=2rを厳密一致。白黒印刷向けのシンプルな教材図(SVG)としてかいて。」——この説明文を生成AIに渡せば同型の図を描かせられる。数値を変えれば類題用の図も作れる。</desc>
<!-- L06_fig3_projections_trio.svg | 円柱・円錐・球の投影図の並置 -->
<!-- generated by assets_provenance/generate_figures.py on 2026-07-18 (コード来歴方式・SVG直接編集禁止/スクリプト改修で再生成) -->
<rect x="0" y="0" width="620" height="350" fill="#fff"/>
<text x="120.0" y="26.0" font-size="13" text-anchor="middle" font-weight="bold">円柱</text>
<line x1="98.0" y1="50.0" x2="98.0" y2="106.0" stroke="#000" stroke-width="1.6"/>
<line x1="142.0" y1="50.0" x2="142.0" y2="106.0" stroke="#000" stroke-width="1.6"/>
<ellipse cx="120.0" cy="50.0" rx="22.0" ry="7.0" fill="none" stroke="#000" stroke-width="1.6"/>
<path d="M 98.0 106.0 A 22.0 7.0 0 0 0 142.0 106.0" fill="none" stroke="#000" stroke-width="1.6"/>
<path d="M 98.0 106.0 A 22.0 7.0 0 0 1 142.0 106.0" fill="none" stroke="#000" stroke-width="1.1" stroke-dasharray="6 4"/>
<rect x="98" y="144" width="44" height="56" fill="none" stroke="#000" stroke-width="1.6"/>
<line x1="82.0" y1="212.0" x2="158.0" y2="212.0" stroke="#000" stroke-width="1.0"/>
<circle cx="120.0" cy="248.0" r="22.0" fill="none" stroke="#000" stroke-width="1.6"/>
<text x="315.0" y="26.0" font-size="13" text-anchor="middle" font-weight="bold">円錐</text>
<line x1="315.0" y1="48.0" x2="291.0" y2="108.0" stroke="#000" stroke-width="1.6"/>
<line x1="315.0" y1="48.0" x2="339.0" y2="108.0" stroke="#000" stroke-width="1.6"/>
<path d="M 291.0 108.0 A 24.0 7.7 0 0 0 339.0 108.0" fill="none" stroke="#000" stroke-width="1.6"/>
<path d="M 291.0 108.0 A 24.0 7.7 0 0 1 339.0 108.0" fill="none" stroke="#000" stroke-width="1.1" stroke-dasharray="6 4"/>
<polygon points="291.0,200.0 339.0,200.0 315.0,140.0" fill="none" stroke="#000" stroke-width="1.6" stroke-linejoin="round"/>
<line x1="275.0" y1="212.0" x2="355.0" y2="212.0" stroke="#000" stroke-width="1.0"/>
<circle cx="315.0" cy="250.0" r="24.0" fill="none" stroke="#000" stroke-width="1.6"/>
<text x="510.0" y="26.0" font-size="13" text-anchor="middle" font-weight="bold">球</text>
<circle cx="510.0" cy="80.0" r="26.0" fill="none" stroke="#000" stroke-width="1.6"/>
<path d="M 484.0 80.0 A 26.0 8.3 0 0 0 536.0 80.0" fill="none" stroke="#000" stroke-width="1.1"/>
<path d="M 484.0 80.0 A 26.0 8.3 0 0 1 536.0 80.0" fill="none" stroke="#000" stroke-width="1.1" stroke-dasharray="6 4"/>
<circle cx="510.0" cy="174.0" r="26.0" fill="none" stroke="#000" stroke-width="1.6"/>
<line x1="468.0" y1="212.0" x2="552.0" y2="212.0" stroke="#000" stroke-width="1.0"/>
<circle cx="510.0" cy="252.0" r="26.0" fill="none" stroke="#000" stroke-width="1.6"/>
<text x="56.0" y="200.0" font-size="11" text-anchor="middle">立面図</text>
<text x="56.0" y="262.0" font-size="11" text-anchor="middle">平面図</text>
<text x="56.0" y="100.0" font-size="11" text-anchor="middle">見取図</text>
<text x="310.0" y="336.0" font-size="12" text-anchor="middle">上に立面図（真正面）・下に平面図（真上）・間を横線で仕切る</text>
</svg>
