<svg xmlns="http://www.w3.org/2000/svg" viewBox="0 0 520 290">
<title>立方体の見取図で「等しいのに等しく見えない」箇所の指摘図</title>
<desc>【この図の意図】見取図の限界の明示。実際は等しい2辺（正面と奥行き）にティック、直角に見えない角に弧と注記。【主要な数値・設定】立方体1辺1.6（相対値）・斜投影で奥行きは1/2に写る（図上135°/実際90°）。【AIに同じ種類の図を描かせるときの説明文】「立方体の見取図で「等しいのに等しく見えない」箇所の指摘図。見取図の限界の明示。実際は等しい2辺（正面と奥行き）にティック、直角に見えない角に弧と注記。数値・設定: 立方体1辺1.6（相対値）・斜投影で奥行きは1/2に写る（図上135°/実際90°）。白黒印刷向けのシンプルな教材図(SVG)としてかいて。」——この説明文を生成AIに渡せば同型の図を描かせられる。数値を変えれば類題用の図も作れる。</desc>
<!-- L06_fig1_oblique_limits.svg | 立方体の見取図で「等しいのに等しく見えない」箇所の指摘図 -->
<!-- generated by assets_provenance/generate_figures.py on 2026-07-18 (コード来歴方式・SVG直接編集禁止/スクリプト改修で再生成) -->
<rect x="0" y="0" width="520" height="290" fill="#fff"/>
<line x1="108.0" y1="111.6" x2="226.4" y2="111.6" stroke="#000" stroke-width="1.6"/>
<line x1="226.4" y1="111.6" x2="268.3" y2="69.7" stroke="#000" stroke-width="1.6"/>
<line x1="268.3" y1="69.7" x2="149.9" y2="69.7" stroke="#000" stroke-width="1.6"/>
<line x1="149.9" y1="69.7" x2="108.0" y2="111.6" stroke="#000" stroke-width="1.6"/>
<line x1="108.0" y1="230.0" x2="226.4" y2="230.0" stroke="#000" stroke-width="1.6"/>
<line x1="226.4" y1="230.0" x2="268.3" y2="188.1" stroke="#000" stroke-width="1.6"/>
<line x1="268.3" y1="188.1" x2="149.9" y2="188.1" stroke="#000" stroke-width="1.2800000000000002" stroke-dasharray="6 4"/>
<line x1="149.9" y1="188.1" x2="108.0" y2="230.0" stroke="#000" stroke-width="1.2800000000000002" stroke-dasharray="6 4"/>
<line x1="108.0" y1="111.6" x2="108.0" y2="230.0" stroke="#000" stroke-width="1.6"/>
<line x1="226.4" y1="111.6" x2="226.4" y2="230.0" stroke="#000" stroke-width="1.6"/>
<line x1="268.3" y1="69.7" x2="268.3" y2="188.1" stroke="#000" stroke-width="1.6"/>
<line x1="149.9" y1="69.7" x2="149.9" y2="188.1" stroke="#000" stroke-width="1.2800000000000002" stroke-dasharray="6 4"/>
<line x1="167.2" y1="225.5" x2="167.2" y2="234.5" stroke="#000" stroke-width="1.4"/>
<line x1="244.1" y1="205.9" x2="250.5" y2="212.3" stroke="#000" stroke-width="1.4"/>
<polyline points="237.0,219.4 235.7,218.2 234.2,217.2 232.7,216.4 231.0,215.7 229.3,215.3 227.6,215.0 225.8,215.0 224.1,215.2 222.3,215.6 220.7,216.1 219.1,216.9 217.6,217.9 216.2,219.0 215.0,220.3 213.9,221.7 213.0,223.2 212.3,224.8 211.8,226.5 211.5,228.2 211.4,230.0" fill="none" stroke="#000" stroke-width="1.2"/>
<text x="316.0" y="232.0" font-size="11" text-anchor="start">印の2辺は、</text>
<text x="316.0" y="246.0" font-size="11" text-anchor="start">実際はどちらも同じ長さ</text>
<line x1="312.0" y1="234.0" x2="263.9" y2="217.4" stroke="#000" stroke-width="1.1"/>
<polygon points="257.3,215.1 265.0,214.4 262.9,220.3" fill="#000"/>
<text x="316.0" y="126.0" font-size="11" text-anchor="start">この角は、実際は90°</text>
<line x1="314.0" y1="132.0" x2="248.9" y2="210.6" stroke="#000" stroke-width="1.1"/>
<polygon points="244.4,216.0 246.4,208.6 251.3,212.6" fill="#000"/>
<text x="240.0" y="278.0" font-size="12" text-anchor="middle">見取図では、長さと角の実際の大きさは読み取れない</text>
</svg>
