<svg xmlns="http://www.w3.org/2000/svg" viewBox="0 0 620 320">
<title>円柱の展開図（側面の長方形の横＝底面の円周）</title>
<desc>【この図の意図】円柱の展開図と対応関係の明示。長方形の横の辺と底面円の円周を太線で強調（数値なし・白黒両立）。【主要な数値・設定】半径25px・高さ78px・長方形の横は2πr=157.1pxを厳密反映。【AIに同じ種類の図を描かせるときの説明文】「円柱の展開図（側面の長方形の横＝底面の円周）。円柱の展開図と対応関係の明示。長方形の横の辺と底面円の円周を太線で強調（数値なし・白黒両立）。数値・設定: 半径25px・高さ78px・長方形の横は2πr=157.1pxを厳密反映。白黒印刷向けのシンプルな教材図(SVG)としてかいて。」——この説明文を生成AIに渡せば同型の図を描かせられる。数値を変えれば類題用の図も作れる。</desc>
<!-- L06_fig2_cylinder_net.svg | 円柱の展開図（側面の長方形の横＝底面の円周） -->
<!-- generated by assets_provenance/generate_figures.py on 2026-07-18 (コード来歴方式・SVG直接編集禁止/スクリプト改修で再生成) -->
<rect x="0" y="0" width="620" height="320" fill="#fff"/>
<line x1="65.0" y1="122.0" x2="65.0" y2="200.0" stroke="#000" stroke-width="1.6"/>
<line x1="115.0" y1="122.0" x2="115.0" y2="200.0" stroke="#000" stroke-width="1.6"/>
<ellipse cx="90.0" cy="122.0" rx="25.0" ry="8.0" fill="none" stroke="#000" stroke-width="1.6"/>
<path d="M 65.0 200.0 A 25.0 8.0 0 0 0 115.0 200.0" fill="none" stroke="#000" stroke-width="1.6"/>
<path d="M 65.0 200.0 A 25.0 8.0 0 0 1 115.0 200.0" fill="none" stroke="#000" stroke-width="1.1" stroke-dasharray="6 4"/>
<text x="90.0" y="232.0" font-size="12" text-anchor="middle">円柱</text>
<line x1="138.0" y1="160.0" x2="189.0" y2="160.0" stroke="#000" stroke-width="1.6"/>
<polygon points="196.0,160.0 189.0,163.2 189.0,156.8" fill="#000"/>
<text x="167.0" y="148.0" font-size="11" text-anchor="middle">切り開く</text>
<circle cx="360.0" cy="121.0" r="25.0" fill="none" stroke="#000" stroke-width="1.6"/>
<rect x="281.5" y="158.0" width="157.1" height="78" fill="none" stroke="#000" stroke-width="1.6"/>
<circle cx="360.0" cy="273.0" r="25.0" fill="none" stroke="#000" stroke-width="3.2"/>
<line x1="281.5" y1="236.0" x2="438.5" y2="236.0" stroke="#000" stroke-width="3.2"/>
<text x="360.0" y="80.0" font-size="12" text-anchor="middle">展開図</text>
<text x="452.5" y="201.0" font-size="11" text-anchor="start">縦＝高さ</text>
<text x="360.0" y="320.0" font-size="12" text-anchor="middle" font-weight="bold">太線どうしは長さが等しい（横＝底面の円周）</text>
</svg>
