<svg xmlns="http://www.w3.org/2000/svg" viewBox="0 0 560 310">
<title>円の切り分けと扇形（中心角と「円全体の何分のいくつ」）</title>
<desc>【この図の意図】比例の見方の視覚化。中心角90°と120°の扇形を切り分け、全体の1/4・1/3にあたることを示す。半径・弧・中心角の名称ラベルつき。【主要な数値・設定】半径78px・中心角90°/120°（90×4=360・120×3=360を検算）。【AIに同じ種類の図を描かせるときの説明文】「円の切り分けと扇形（中心角と「円全体の何分のいくつ」）。比例の見方の視覚化。中心角90°と120°の扇形を切り分け、全体の1/4・1/3にあたることを示す。半径・弧・中心角の名称ラベルつき。数値・設定: 半径78px・中心角90°/120°（90×4=360・120×3=360を検算）。白黒印刷向けのシンプルな教材図(SVG)としてかいて。」——この説明文を生成AIに渡せば同型の図を描かせられる。数値を変えれば類題用の図も作れる。</desc>
<!-- L07_fig1_sector_fraction.svg | 円の切り分けと扇形（中心角と「円全体の何分のいくつ」） -->
<!-- generated by assets_provenance/generate_figures.py on 2026-07-18 (コード来歴方式・SVG直接編集禁止/スクリプト改修で再生成) -->
<rect x="0" y="0" width="560" height="310" fill="#fff"/>
<circle cx="150.0" cy="140.0" r="78.0" fill="none" stroke="#000" stroke-width="1.1"/>
<path d="M 150.0 140.0 L 150.0 62.0 A 78.0 78.0 0 0 0 72.0 140.0 Z" fill="#e6e6e6" stroke="#000" stroke-width="1.6" stroke-linejoin="round"/>
<polyline points="150.0,123.0 148.7,123.1 147.3,123.2 146.0,123.5 144.7,123.8 143.5,124.3 142.3,124.9 141.1,125.5 140.0,126.2 139.0,127.1 138.0,128.0 137.1,129.0 136.2,130.0 135.5,131.1 134.9,132.3 134.3,133.5 133.8,134.7 133.5,136.0 133.2,137.3 133.1,138.7 133.0,140.0" fill="none" stroke="#000" stroke-width="1.2"/>
<text x="150.0" y="250.0" font-size="13" text-anchor="middle">全体の90/360＝1/4</text>
<text x="176.0" y="107.2" font-size="11" text-anchor="start">半径</text>
<text x="138.0" y="112.0" font-size="11" text-anchor="end">中心角</text>
<text x="78.7" y="72.7" font-size="11" text-anchor="middle">弧</text>
<circle cx="400.0" cy="140.0" r="78.0" fill="none" stroke="#000" stroke-width="1.1"/>
<path d="M 400.0 140.0 L 400.0 62.0 A 78.0 78.0 0 0 0 332.5 179.0 Z" fill="#e6e6e6" stroke="#000" stroke-width="1.6" stroke-linejoin="round"/>
<polyline points="400.0,123.0 398.2,123.1 396.5,123.4 394.7,123.8 393.1,124.5 391.5,125.3 390.0,126.2 388.6,127.4 387.4,128.6 386.2,130.0 385.3,131.5 384.5,133.1 383.8,134.7 383.4,136.5 383.1,138.2 383.0,140.0 383.1,141.8 383.4,143.5 383.8,145.3 384.5,146.9 385.3,148.5" fill="none" stroke="#000" stroke-width="1.2"/>
<text x="400.0" y="250.0" font-size="13" text-anchor="middle">全体の120/360＝1/3</text>
<text x="280.0" y="296.0" font-size="12" text-anchor="middle">扇形は円のひと切れ。中心角が全体の何分のいくつかを決める</text>
</svg>
