<svg xmlns="http://www.w3.org/2000/svg" viewBox="0 0 560 360">
<title>円錐の展開図（弧＝底面の円周・中心角120°）（例題4）</title>
<desc>【この図の意図】「逆向きに考える」型の視覚化。半径9のおうぎ形の弧と半径3の底面円の円周を太線で対応づける（面積の答えは載せない）。【主要な数値・設定】例題4: 底面の半径3cm・母線9cm・中心角=360×3/9=120°を厳密反映・1cm=12px。【AIに同じ種類の図を描かせるときの説明文】「円錐の展開図（弧＝底面の円周・中心角120°）（例題4）。「逆向きに考える」型の視覚化。半径9のおうぎ形の弧と半径3の底面円の円周を太線で対応づける（面積の答えは載せない）。数値・設定: 例題4: 底面の半径3cm・母線9cm・中心角=360×3/9=120°を厳密反映・1cm=12px。白黒印刷向けのシンプルな教材図(SVG)としてかいて。」——この説明文を生成AIに渡せば同型の図を描かせられる。数値を変えれば類題用の図も作れる。</desc>
<!-- L08_fig2_cone_net_120.svg | 円錐の展開図（弧＝底面の円周・中心角120°）（例題4） -->
<!-- generated by assets_provenance/generate_figures.py on 2026-07-18 (コード来歴方式・SVG直接編集禁止/スクリプト改修で再生成) -->
<rect x="0" y="0" width="560" height="360" fill="#fff"/>
<line x1="92.0" y1="92.0" x2="46.0" y2="200.0" stroke="#000" stroke-width="1.6"/>
<line x1="92.0" y1="92.0" x2="138.0" y2="200.0" stroke="#000" stroke-width="1.6"/>
<path d="M 46.0 200.0 A 46.0 14.7 0 0 0 138.0 200.0" fill="none" stroke="#000" stroke-width="1.6"/>
<path d="M 46.0 200.0 A 46.0 14.7 0 0 1 138.0 200.0" fill="none" stroke="#000" stroke-width="1.1" stroke-dasharray="6 4"/>
<text x="66.0" y="138.0" font-size="11" text-anchor="end">母線9</text>
<line x1="92.0" y1="200.0" x2="138.0" y2="200.0" stroke="#000" stroke-width="0.9"/>
<text x="148.0" y="198.0" font-size="11" text-anchor="start">半径3</text>
<text x="92.0" y="240.0" font-size="12" text-anchor="middle">円錐</text>
<line x1="360.0" y1="62.0" x2="266.5" y2="116.0" stroke="#000" stroke-width="1.6"/>
<line x1="360.0" y1="62.0" x2="453.5" y2="116.0" stroke="#000" stroke-width="1.6"/>
<path d="M 266.5 116.0 A 108.0 108.0 0 0 0 453.5 116.0" fill="none" stroke="#000" stroke-width="3.2"/>
<polyline points="346.1,70.0 347.1,71.4 348.1,72.7 349.3,73.9 350.6,74.9 352.0,75.9 353.5,76.6 355.1,77.2 356.7,77.7 358.3,77.9 360.0,78.0 361.7,77.9 363.3,77.7 364.9,77.2 366.5,76.6 368.0,75.9 369.4,74.9 370.7,73.9 371.9,72.7 372.9,71.4 373.9,70.0" fill="none" stroke="#000" stroke-width="1.2"/>
<text x="360.0" y="96.0" font-size="11" text-anchor="middle">中心角120°</text>
<text x="420.8" y="89.0" font-size="11" text-anchor="start">9</text>
<circle cx="360.0" cy="224.0" r="36.0" fill="none" stroke="#000" stroke-width="3.2"/>
<line x1="360.0" y1="224.0" x2="396.0" y2="224.0" stroke="#000" stroke-width="0.9"/>
<text x="378.0" y="218.0" font-size="11" text-anchor="middle">3</text>
<text x="360.0" y="282.0" font-size="12" text-anchor="middle" font-weight="bold">太線どうしは長さが等しい（どちらも6π）</text>
</svg>
