<svg xmlns="http://www.w3.org/2000/svg" viewBox="0 0 620 330">
<title>円柱の展開図と各部品の寸法書きこみ（例題2）</title>
<desc>【この図の意図】表面積の型（展開→部品→合計）の視覚化。半径4・縦5・横=円周8πの寸法と部品の面積（合計72πは載せない）。【主要な数値・設定】例題2: 底面の半径4cm・高さ5cm・1cm=9px・長方形の横=2πrを厳密反映。【AIに同じ種類の図を描かせるときの説明文】「円柱の展開図と各部品の寸法書きこみ（例題2）。表面積の型（展開→部品→合計）の視覚化。半径4・縦5・横=円周8πの寸法と部品の面積（合計72πは載せない）。数値・設定: 例題2: 底面の半径4cm・高さ5cm・1cm=9px・長方形の横=2πrを厳密反映。白黒印刷向けのシンプルな教材図(SVG)としてかいて。」——この説明文を生成AIに渡せば同型の図を描かせられる。数値を変えれば類題用の図も作れる。</desc>
<!-- L08_fig1_cylinder_net_dims.svg | 円柱の展開図と各部品の寸法書きこみ（例題2） -->
<!-- generated by assets_provenance/generate_figures.py on 2026-07-18 (コード来歴方式・SVG直接編集禁止/スクリプト改修で再生成) -->
<rect x="0" y="0" width="620" height="330" fill="#fff"/>
<line x1="46.0" y1="145.0" x2="46.0" y2="190.0" stroke="#000" stroke-width="1.6"/>
<line x1="118.0" y1="145.0" x2="118.0" y2="190.0" stroke="#000" stroke-width="1.6"/>
<ellipse cx="82.0" cy="145.0" rx="36.0" ry="11.5" fill="none" stroke="#000" stroke-width="1.6"/>
<path d="M 46.0 190.0 A 36.0 11.5 0 0 0 118.0 190.0" fill="none" stroke="#000" stroke-width="1.6"/>
<path d="M 46.0 190.0 A 36.0 11.5 0 0 1 118.0 190.0" fill="none" stroke="#000" stroke-width="1.1" stroke-dasharray="6 4"/>
<text x="82.0" y="220.0" font-size="12" text-anchor="middle">円柱</text>
<circle cx="380.0" cy="92.0" r="36.0" fill="none" stroke="#000" stroke-width="1.6"/>
<line x1="380.0" y1="92.0" x2="416.0" y2="92.0" stroke="#000" stroke-width="0.9"/>
<text x="398.0" y="86.0" font-size="11" text-anchor="middle">半径4</text>
<rect x="266.9" y="140.0" width="226.2" height="45.0" fill="none" stroke="#000" stroke-width="1.6"/>
<circle cx="380.0" cy="253.0" r="36.0" fill="none" stroke="#000" stroke-width="1.6"/>
<text x="503.1" y="166.5" font-size="11" text-anchor="start">縦5</text>
<text x="380.0" y="201.0" font-size="11" text-anchor="middle">横＝円周8π</text>
<text x="428.0" y="96.0" font-size="11" text-anchor="start">底面積16π（が2枚）</text>
<text x="256.9" y="166.5" font-size="11" text-anchor="end">側面積8π×5＝40π</text>
<text x="310.0" y="316.0" font-size="12" text-anchor="middle">展開図をかく → 部品ごとに面積 → 合計する（単位はcm）</text>
</svg>
