<svg xmlns="http://www.w3.org/2000/svg" viewBox="0 0 620 300">
<title>円錐の容器から円柱の容器へ水を3回移す実験の図</title>
<desc>【この図の意図】「予想→実験で1/3を認める」導入の紙上再現。3コマで水位1/3→2/3→満杯（証明めいた図式は描かない）。【主要な数値・設定】円錐・円柱とも半径30px・高さ84px（同一）・水位はh/3刻みで厳密。【AIに同じ種類の図を描かせるときの説明文】「円錐の容器から円柱の容器へ水を3回移す実験の図。「予想→実験で1/3を認める」導入の紙上再現。3コマで水位1/3→2/3→満杯（証明めいた図式は描かない）。数値・設定: 円錐・円柱とも半径30px・高さ84px（同一）・水位はh/3刻みで厳密。白黒印刷向けのシンプルな教材図(SVG)としてかいて。」——この説明文を生成AIに渡せば同型の図を描かせられる。数値を変えれば類題用の図も作れる。</desc>
<!-- L09_fig1_pour_three_times.svg | 円錐の容器から円柱の容器へ水を3回移す実験の図 -->
<!-- generated by assets_provenance/generate_figures.py on 2026-07-18 (コード来歴方式・SVG直接編集禁止/スクリプト改修で再生成) -->
<rect x="0" y="0" width="620" height="300" fill="#fff"/>
<text x="132.0" y="32.0" font-size="13" text-anchor="middle" font-weight="bold">1杯め</text>
<path d="M 40 148 L 70 232 L 100 148" fill="#e6e6e6" stroke="#000" stroke-width="1.6"/>
<ellipse cx="70.0" cy="148.0" rx="30.0" ry="9.6" fill="#f7f7f7" stroke="#000" stroke-width="1.6"/>
<line x1="104.0" y1="158.0" x2="137.0" y2="158.0" stroke="#000" stroke-width="1.6"/>
<polygon points="144.0,158.0 137.0,161.2 137.0,154.8" fill="#000"/>
<rect x="148" y="204.0" width="60" height="28.0" fill="#e6e6e6"/>
<path d="M 148.0 232.0 A 30.0 9.6 0 0 0 208.0 232.0" fill="none" stroke="#000" stroke-width="1.6"/>
<line x1="148.0" y1="232.0" x2="148.0" y2="148.0" stroke="#000" stroke-width="1.6"/>
<line x1="208.0" y1="232.0" x2="208.0" y2="148.0" stroke="#000" stroke-width="1.6"/>
<ellipse cx="178.0" cy="148.0" rx="30.0" ry="9.6" fill="none" stroke="#000" stroke-width="1.6"/>
<ellipse cx="178.0" cy="204.0" rx="30.0" ry="9.6" fill="#e6e6e6" stroke="#000" stroke-width="1.2"/>
<line x1="148.0" y1="204.0" x2="208.0" y2="204.0" stroke="#000" stroke-width="0.8" stroke-dasharray="3 3"/>
<line x1="148.0" y1="176.0" x2="208.0" y2="176.0" stroke="#000" stroke-width="0.8" stroke-dasharray="3 3"/>
<text x="178.0" y="254.0" font-size="11" text-anchor="middle">水位 1/3</text>
<text x="332.0" y="32.0" font-size="13" text-anchor="middle" font-weight="bold">2杯め</text>
<path d="M 240 148 L 270 232 L 300 148" fill="#e6e6e6" stroke="#000" stroke-width="1.6"/>
<ellipse cx="270.0" cy="148.0" rx="30.0" ry="9.6" fill="#f7f7f7" stroke="#000" stroke-width="1.6"/>
<line x1="304.0" y1="158.0" x2="337.0" y2="158.0" stroke="#000" stroke-width="1.6"/>
<polygon points="344.0,158.0 337.0,161.2 337.0,154.8" fill="#000"/>
<rect x="348" y="176.0" width="60" height="56.0" fill="#e6e6e6"/>
<path d="M 348.0 232.0 A 30.0 9.6 0 0 0 408.0 232.0" fill="none" stroke="#000" stroke-width="1.6"/>
<line x1="348.0" y1="232.0" x2="348.0" y2="148.0" stroke="#000" stroke-width="1.6"/>
<line x1="408.0" y1="232.0" x2="408.0" y2="148.0" stroke="#000" stroke-width="1.6"/>
<ellipse cx="378.0" cy="148.0" rx="30.0" ry="9.6" fill="none" stroke="#000" stroke-width="1.6"/>
<ellipse cx="378.0" cy="176.0" rx="30.0" ry="9.6" fill="#e6e6e6" stroke="#000" stroke-width="1.2"/>
<line x1="348.0" y1="204.0" x2="408.0" y2="204.0" stroke="#000" stroke-width="0.8" stroke-dasharray="3 3"/>
<line x1="348.0" y1="176.0" x2="408.0" y2="176.0" stroke="#000" stroke-width="0.8" stroke-dasharray="3 3"/>
<text x="378.0" y="254.0" font-size="11" text-anchor="middle">水位 2/3</text>
<text x="532.0" y="32.0" font-size="13" text-anchor="middle" font-weight="bold">3杯め</text>
<path d="M 440 148 L 470 232 L 500 148" fill="#e6e6e6" stroke="#000" stroke-width="1.6"/>
<ellipse cx="470.0" cy="148.0" rx="30.0" ry="9.6" fill="#f7f7f7" stroke="#000" stroke-width="1.6"/>
<line x1="504.0" y1="158.0" x2="537.0" y2="158.0" stroke="#000" stroke-width="1.6"/>
<polygon points="544.0,158.0 537.0,161.2 537.0,154.8" fill="#000"/>
<rect x="548" y="148.0" width="60" height="84.0" fill="#e6e6e6"/>
<path d="M 548.0 232.0 A 30.0 9.6 0 0 0 608.0 232.0" fill="none" stroke="#000" stroke-width="1.6"/>
<line x1="548.0" y1="232.0" x2="548.0" y2="148.0" stroke="#000" stroke-width="1.6"/>
<line x1="608.0" y1="232.0" x2="608.0" y2="148.0" stroke="#000" stroke-width="1.6"/>
<ellipse cx="578.0" cy="148.0" rx="30.0" ry="9.6" fill="none" stroke="#000" stroke-width="1.6"/>
<ellipse cx="578.0" cy="148.0" rx="30.0" ry="9.6" fill="#e6e6e6" stroke="#000" stroke-width="1.2"/>
<line x1="548.0" y1="204.0" x2="608.0" y2="204.0" stroke="#000" stroke-width="0.8" stroke-dasharray="3 3"/>
<line x1="548.0" y1="176.0" x2="608.0" y2="176.0" stroke="#000" stroke-width="0.8" stroke-dasharray="3 3"/>
<text x="578.0" y="254.0" font-size="11" text-anchor="middle">満杯</text>
<text x="310.0" y="284.0" font-size="12" text-anchor="middle">同じ底面・同じ高さの円錐と円柱。円錐3杯分でちょうど満杯</text>
</svg>
