<svg xmlns="http://www.w3.org/2000/svg" viewBox="0 0 430 330">
<title>円柱にぴったり入った球（半径r・高さ2r）</title>
<desc>【この図の意図】比較の土台の視覚化。半径rの球が底面の半径r・高さ2rの円柱に内接（数値は載せない・文字rのみ）。【主要な数値・設定】r=74px・高さ=2r=148pxを厳密一致（内接）。【AIに同じ種類の図を描かせるときの説明文】「円柱にぴったり入った球（半径r・高さ2r）。比較の土台の視覚化。半径rの球が底面の半径r・高さ2rの円柱に内接（数値は載せない・文字rのみ）。数値・設定: r=74px・高さ=2r=148pxを厳密一致（内接）。白黒印刷向けのシンプルな教材図(SVG)としてかいて。」——この説明文を生成AIに渡せば同型の図を描かせられる。数値を変えれば類題用の図も作れる。</desc>
<!-- L10_fig1_sphere_in_cylinder.svg | 円柱にぴったり入った球（半径r・高さ2r） -->
<!-- generated by assets_provenance/generate_figures.py on 2026-07-18 (コード来歴方式・SVG直接編集禁止/スクリプト改修で再生成) -->
<rect x="0" y="0" width="430" height="330" fill="#fff"/>
<line x1="106.0" y1="120.0" x2="106.0" y2="268.0" stroke="#000" stroke-width="1.6"/>
<line x1="254.0" y1="120.0" x2="254.0" y2="268.0" stroke="#000" stroke-width="1.6"/>
<ellipse cx="180.0" cy="120.0" rx="74.0" ry="23.7" fill="none" stroke="#000" stroke-width="1.6"/>
<path d="M 106.0 268.0 A 74.0 23.7 0 0 0 254.0 268.0" fill="none" stroke="#000" stroke-width="1.6"/>
<path d="M 106.0 268.0 A 74.0 23.7 0 0 1 254.0 268.0" fill="none" stroke="#000" stroke-width="1.1" stroke-dasharray="6 4"/>
<circle cx="180.0" cy="194.0" r="74.0" fill="none" stroke="#000" stroke-width="2.0"/>
<path d="M 106.0 194.0 A 74.0 22.2 0 0 0 254.0 194.0" fill="none" stroke="#000" stroke-width="1.1"/>
<path d="M 106.0 194.0 A 74.0 22.2 0 0 1 254.0 194.0" fill="none" stroke="#000" stroke-width="1.1" stroke-dasharray="6 4"/>
<line x1="180.0" y1="268.0" x2="254.0" y2="268.0" stroke="#000" stroke-width="0.9"/>
<circle cx="180.0" cy="268.0" r="2.2" fill="#000"/>
<text x="217.0" y="286.0" font-size="13" text-anchor="middle">r</text>
<line x1="280.0" y1="268.0" x2="280.0" y2="120.0" stroke="#000" stroke-width="0.9"/>
<line x1="276.0" y1="268.0" x2="284.0" y2="268.0" stroke="#000" stroke-width="0.9"/>
<line x1="276.0" y1="120.0" x2="284.0" y2="120.0" stroke="#000" stroke-width="0.9"/>
<text x="293.0" y="198.2" font-size="12" text-anchor="middle">2r</text>
<text x="215.0" y="316.0" font-size="12" text-anchor="middle">横にも上下にもすき間なし</text>
</svg>
