<svg xmlns="http://www.w3.org/2000/svg" viewBox="0 0 640 330">
<title>単元の道具マップ（見る→表す→測る）</title>
<desc>【この図の意図】単元全体の構造の一覧化。3ブロックを矢印でつなぎ、相手はだれ？チェックを共通の帯として配置（学習時間・進度は載せない）。【主要な数値・設定】ブロック=見るL02-L04/表すL05-L06/測るL07-L10・道具名はlesson_11一覧表から転記。【AIに同じ種類の図を描かせるときの説明文】「単元の道具マップ（見る→表す→測る）。単元全体の構造の一覧化。3ブロックを矢印でつなぎ、相手はだれ？チェックを共通の帯として配置（学習時間・進度は載せない）。数値・設定: ブロック=見るL02-L04/表すL05-L06/測るL07-L10・道具名はlesson_11一覧表から転記。白黒印刷向けのシンプルな教材図(SVG)としてかいて。」——この説明文を生成AIに渡せば同型の図を描かせられる。数値を変えれば類題用の図も作れる。</desc>
<!-- L11_fig1_tool_map.svg | 単元の道具マップ（見る→表す→測る） -->
<!-- generated by assets_provenance/generate_figures.py on 2026-07-18 (コード来歴方式・SVG直接編集禁止/スクリプト改修で再生成) -->
<rect x="0" y="0" width="640" height="330" fill="#fff"/>
<text x="320.0" y="30.0" font-size="15" text-anchor="middle" font-weight="bold">「空間図形」の道具マップ</text>
<rect x="20" y="56" width="190" height="150" rx="8" fill="#e6e6e6" stroke="#000" stroke-width="1.6"/>
<text x="115.0" y="80.0" font-size="13" text-anchor="middle" font-weight="bold">見る（L02〜L04）</text>
<text x="34.0" y="106.0" font-size="11" text-anchor="start">・平面の決定</text>
<text x="34.0" y="128.0" font-size="11" text-anchor="start">・2直線の3分類</text>
<text x="34.0" y="150.0" font-size="11" text-anchor="start">・直線と平面・2平面の分類</text>
<line x1="212.0" y1="131.0" x2="221.0" y2="131.0" stroke="#000" stroke-width="2.0"/>
<polygon points="228.0,131.0 221.0,134.2 221.0,127.8" fill="#000"/>
<rect x="230" y="56" width="190" height="150" rx="8" fill="#e6e6e6" stroke="#000" stroke-width="1.6"/>
<text x="325.0" y="80.0" font-size="13" text-anchor="middle" font-weight="bold">表す（L05〜L06）</text>
<text x="244.0" y="106.0" font-size="11" text-anchor="start">・動かしてつくる見方・回転体</text>
<text x="244.0" y="128.0" font-size="11" text-anchor="start">・見取図・展開図・投影図</text>
<line x1="422.0" y1="131.0" x2="431.0" y2="131.0" stroke="#000" stroke-width="2.0"/>
<polygon points="438.0,131.0 431.0,134.2 431.0,127.8" fill="#000"/>
<rect x="440" y="56" width="190" height="150" rx="8" fill="#e6e6e6" stroke="#000" stroke-width="1.6"/>
<text x="535.0" y="80.0" font-size="13" text-anchor="middle" font-weight="bold">測る（L07〜L10）</text>
<text x="454.0" y="106.0" font-size="11" text-anchor="start">・πと扇形</text>
<text x="454.0" y="128.0" font-size="11" text-anchor="start">・表面積の型</text>
<text x="454.0" y="150.0" font-size="11" text-anchor="start">・柱体・錐体の体積</text>
<text x="454.0" y="172.0" font-size="11" text-anchor="start">・球の公式</text>
<rect x="20" y="240" width="610" height="40" rx="8" fill="none" stroke="#000" stroke-width="2.2399999999999998"/>
<text x="325.0" y="265.0" font-size="13" text-anchor="middle" font-weight="bold">相手はだれ？チェック（L01〜 全レッスン共通の構え）</text>
<line x1="115.0" y1="206.0" x2="115.0" y2="240.0" stroke="#000" stroke-width="1.0" stroke-dasharray="3 3"/>
<line x1="325.0" y1="206.0" x2="325.0" y2="240.0" stroke="#000" stroke-width="1.0" stroke-dasharray="3 3"/>
<line x1="535.0" y1="206.0" x2="535.0" y2="240.0" stroke="#000" stroke-width="1.0" stroke-dasharray="3 3"/>
<text x="320.0" y="316.0" font-size="12" text-anchor="middle">見る（位置関係）→ 表す（図にする）→ 測る（計量）</text>
</svg>
