<svg xmlns="http://www.w3.org/2000/svg" viewBox="0 0 420 320">
<title>数直線3段の挟み撃ち（1↔2 → 1.4↔1.5 → 1.41↔1.42）</title>
<desc>【この図の意図】主概念1の図。目盛りは厳密な等間隔・√2の正確な位置の点は打たない。【主要な数値・設定】3段=(0〜3,1刻み)(1.0〜2.0,0.1刻み)(1.40〜1.50,0.01刻み)・網かけ=(1,2)(1.4,1.5)(1.41,1.42)。【AIに同じ種類の図を描かせるときの説明文】「数直線3段の挟み撃ち（1↔2 → 1.4↔1.5 → 1.41↔1.42）。主概念1の図。目盛りは厳密な等間隔・√2の正確な位置の点は打たない。数値・設定: 3段=(0〜3,1刻み)(1.0〜2.0,0.1刻み)(1.40〜1.50,0.01刻み)・網かけ=(1,2)(1.4,1.5)(1.41,1.42)。白黒印刷向けのシンプルな教材図（SVG）としてかいて。」——この説明文を生成AIに渡せば同型の図を描かせられる。数値を変えれば類題用の図も作れる。</desc>
<!-- L02_fig1_squeeze_numberline_3levels.svg | 数直線3段の挟み撃ち（1↔2 → 1.4↔1.5 → 1.41↔1.42） -->
<!-- generated by assets_provenance/generate_figures.py on 2026-07-17 (docs/SPEC_figures.md準拠（内部規約の要旨は同SPECに反映済み）・SVG直接編集禁止/スクリプト改修で再生成) -->
<rect x="0" y="0" width="420" height="320" fill="#fff"/>
<defs><pattern id="h45" width="6" height="6" patternUnits="userSpaceOnUse" patternTransform="rotate(45)"><line x1="0" y1="0" x2="0" y2="6" stroke="#555" stroke-width="1.1"/></pattern><pattern id="h135" width="6" height="6" patternUnits="userSpaceOnUse" patternTransform="rotate(135)"><line x1="0" y1="0" x2="0" y2="6" stroke="#555" stroke-width="1.1"/></pattern></defs><rect x="158.3" y="49.0" width="113.3" height="18.0" fill="url(#h45)" stroke="#000" stroke-width="0.6"/>
<line x1="37.0" y1="58.0" x2="393.0" y2="58.0" stroke="#000" stroke-width="1.6"/>
<line x1="45.0" y1="53.0" x2="45.0" y2="63.0" stroke="#000" stroke-width="1.2"/>
<line x1="158.3" y1="53.0" x2="158.3" y2="63.0" stroke="#000" stroke-width="1.2"/>
<line x1="271.7" y1="53.0" x2="271.7" y2="63.0" stroke="#000" stroke-width="1.2"/>
<line x1="385.0" y1="53.0" x2="385.0" y2="63.0" stroke="#000" stroke-width="1.2"/>
<text x="45.0" y="77.0" font-size="12" text-anchor="middle">0</text>
<text x="158.3" y="77.0" font-size="12" text-anchor="middle">1</text>
<text x="271.7" y="77.0" font-size="12" text-anchor="middle">2</text>
<text x="385.0" y="77.0" font-size="12" text-anchor="middle">3</text>
<text x="37.0" y="42.0" font-size="11" text-anchor="start">整数の目盛り</text>
<rect x="181.0" y="149.0" width="34.0" height="18.0" fill="url(#h45)" stroke="#000" stroke-width="0.6"/>
<line x1="37.0" y1="158.0" x2="393.0" y2="158.0" stroke="#000" stroke-width="1.6"/>
<line x1="45.0" y1="153.0" x2="45.0" y2="163.0" stroke="#000" stroke-width="1.2"/>
<line x1="79.0" y1="153.0" x2="79.0" y2="163.0" stroke="#000" stroke-width="1.2"/>
<line x1="113.0" y1="153.0" x2="113.0" y2="163.0" stroke="#000" stroke-width="1.2"/>
<line x1="147.0" y1="153.0" x2="147.0" y2="163.0" stroke="#000" stroke-width="1.2"/>
<line x1="181.0" y1="153.0" x2="181.0" y2="163.0" stroke="#000" stroke-width="1.2"/>
<line x1="215.0" y1="153.0" x2="215.0" y2="163.0" stroke="#000" stroke-width="1.2"/>
<line x1="249.0" y1="153.0" x2="249.0" y2="163.0" stroke="#000" stroke-width="1.2"/>
<line x1="283.0" y1="153.0" x2="283.0" y2="163.0" stroke="#000" stroke-width="1.2"/>
<line x1="317.0" y1="153.0" x2="317.0" y2="163.0" stroke="#000" stroke-width="1.2"/>
<line x1="351.0" y1="153.0" x2="351.0" y2="163.0" stroke="#000" stroke-width="1.2"/>
<line x1="385.0" y1="153.0" x2="385.0" y2="163.0" stroke="#000" stroke-width="1.2"/>
<text x="45.0" y="177.0" font-size="12" text-anchor="middle">1.0</text>
<text x="181.0" y="177.0" font-size="12" text-anchor="middle">1.4</text>
<text x="215.0" y="177.0" font-size="12" text-anchor="middle">1.5</text>
<text x="385.0" y="177.0" font-size="12" text-anchor="middle">2.0</text>
<text x="37.0" y="142.0" font-size="11" text-anchor="start">0.1刻み</text>
<rect x="79.0" y="249.0" width="34.0" height="18.0" fill="url(#h45)" stroke="#000" stroke-width="0.6"/>
<line x1="37.0" y1="258.0" x2="393.0" y2="258.0" stroke="#000" stroke-width="1.6"/>
<line x1="45.0" y1="253.0" x2="45.0" y2="263.0" stroke="#000" stroke-width="1.2"/>
<line x1="79.0" y1="253.0" x2="79.0" y2="263.0" stroke="#000" stroke-width="1.2"/>
<line x1="113.0" y1="253.0" x2="113.0" y2="263.0" stroke="#000" stroke-width="1.2"/>
<line x1="147.0" y1="253.0" x2="147.0" y2="263.0" stroke="#000" stroke-width="1.2"/>
<line x1="181.0" y1="253.0" x2="181.0" y2="263.0" stroke="#000" stroke-width="1.2"/>
<line x1="215.0" y1="253.0" x2="215.0" y2="263.0" stroke="#000" stroke-width="1.2"/>
<line x1="249.0" y1="253.0" x2="249.0" y2="263.0" stroke="#000" stroke-width="1.2"/>
<line x1="283.0" y1="253.0" x2="283.0" y2="263.0" stroke="#000" stroke-width="1.2"/>
<line x1="317.0" y1="253.0" x2="317.0" y2="263.0" stroke="#000" stroke-width="1.2"/>
<line x1="351.0" y1="253.0" x2="351.0" y2="263.0" stroke="#000" stroke-width="1.2"/>
<line x1="385.0" y1="253.0" x2="385.0" y2="263.0" stroke="#000" stroke-width="1.2"/>
<text x="45.0" y="277.0" font-size="12" text-anchor="middle">1.40</text>
<text x="79.0" y="277.0" font-size="12" text-anchor="middle">1.41</text>
<text x="113.0" y="277.0" font-size="12" text-anchor="middle">1.42</text>
<text x="385.0" y="277.0" font-size="12" text-anchor="middle">1.50</text>
<text x="37.0" y="242.0" font-size="11" text-anchor="start">0.01刻み</text>
<line x1="158.3" y1="82.0" x2="45.0" y2="132.0" stroke="#000" stroke-width="1.1" stroke-dasharray="6 4"/>
<line x1="271.7" y1="82.0" x2="385.0" y2="132.0" stroke="#000" stroke-width="1.1" stroke-dasharray="6 4"/>
<line x1="181.0" y1="182.0" x2="45.0" y2="232.0" stroke="#000" stroke-width="1.1" stroke-dasharray="6 4"/>
<line x1="215.0" y1="182.0" x2="385.0" y2="232.0" stroke="#000" stroke-width="1.1" stroke-dasharray="6 4"/>
<text x="210.0" y="300.0" font-size="12" text-anchor="middle">網かけの部分に√2がいる——目盛りを細かくするほど、</text>
<text x="210.0" y="316.0" font-size="12" text-anchor="middle">居場所が両側から挟み撃ちで絞られていく</text>
</svg>
