<svg xmlns="http://www.w3.org/2000/svg" viewBox="0 0 460 190">
<title>−3〜3の数直線と？矢印（−√2・√2・√5を置く活動用）</title>
<desc>【この図の意図】主概念2の活動図。矢印は厳密位置・ラベルは？のみ・答えの点は打たない。【主要な数値・設定】範囲=−3〜3（1刻み）・矢印x=−√2, √2, √5（座標は厳密値）。【AIに同じ種類の図を描かせるときの説明文】「−3〜3の数直線と？矢印（−√2・√2・√5を置く活動用）。主概念2の活動図。矢印は厳密位置・ラベルは？のみ・答えの点は打たない。数値・設定: 範囲=−3〜3（1刻み）・矢印x=−√2, √2, √5（座標は厳密値）。白黒印刷向けのシンプルな教材図（SVG）としてかいて。」——この説明文を生成AIに渡せば同型の図を描かせられる。数値を変えれば類題用の図も作れる。</desc>
<!-- L02_fig2_place_roots_numberline.svg | −3〜3の数直線と？矢印（−√2・√2・√5を置く活動用） -->
<!-- generated by assets_provenance/generate_figures.py on 2026-07-17 (docs/SPEC_figures.md準拠（内部規約の要旨は同SPECに反映済み）・SVG直接編集禁止/スクリプト改修で再生成) -->
<rect x="0" y="0" width="460" height="190" fill="#fff"/>
<line x1="32.0" y1="110.0" x2="428.0" y2="110.0" stroke="#000" stroke-width="1.6"/>
<line x1="40.0" y1="105.0" x2="40.0" y2="115.0" stroke="#000" stroke-width="1.2"/>
<line x1="103.3" y1="105.0" x2="103.3" y2="115.0" stroke="#000" stroke-width="1.2"/>
<line x1="166.7" y1="105.0" x2="166.7" y2="115.0" stroke="#000" stroke-width="1.2"/>
<line x1="230.0" y1="105.0" x2="230.0" y2="115.0" stroke="#000" stroke-width="1.2"/>
<line x1="293.3" y1="105.0" x2="293.3" y2="115.0" stroke="#000" stroke-width="1.2"/>
<line x1="356.7" y1="105.0" x2="356.7" y2="115.0" stroke="#000" stroke-width="1.2"/>
<line x1="420.0" y1="105.0" x2="420.0" y2="115.0" stroke="#000" stroke-width="1.2"/>
<text x="40.0" y="129.0" font-size="12" text-anchor="middle">−3</text>
<text x="103.3" y="129.0" font-size="12" text-anchor="middle">−2</text>
<text x="166.7" y="129.0" font-size="12" text-anchor="middle">−1</text>
<text x="230.0" y="129.0" font-size="12" text-anchor="middle">0</text>
<text x="293.3" y="129.0" font-size="12" text-anchor="middle">1</text>
<text x="356.7" y="129.0" font-size="12" text-anchor="middle">2</text>
<text x="420.0" y="129.0" font-size="12" text-anchor="middle">3</text>
<line x1="140.4" y1="68.0" x2="140.4" y2="93.0" stroke="#000" stroke-width="1.6"/>
<polygon points="140.4,101.0 136.8,93.0 144.0,93.0" fill="#000"/>
<text x="140.4" y="60.0" font-size="15" text-anchor="middle" font-weight="bold">？</text>
<line x1="319.6" y1="68.0" x2="319.6" y2="93.0" stroke="#000" stroke-width="1.6"/>
<polygon points="319.6,101.0 316.0,93.0 323.2,93.0" fill="#000"/>
<text x="319.6" y="60.0" font-size="15" text-anchor="middle" font-weight="bold">？</text>
<line x1="371.6" y1="68.0" x2="371.6" y2="93.0" stroke="#000" stroke-width="1.6"/>
<polygon points="371.6,101.0 368.0,93.0 375.2,93.0" fill="#000"/>
<text x="371.6" y="60.0" font-size="15" text-anchor="middle" font-weight="bold">？</text>
<text x="230.0" y="158.0" font-size="12" text-anchor="middle">−√2、√2、√5 は、それぞれどの「？」の位置に入るだろう</text>
<text x="230.0" y="175.0" font-size="12" text-anchor="middle">（数直線に自分で置いてみよう。負の数は0のどちら側？）</text>
</svg>
