<svg xmlns="http://www.w3.org/2000/svg" viewBox="0 0 470 330">
<title>√72の変形の手順図（樹形図・ペアの丸囲み・外＝□中＝□）</title>
<desc>【この図の意図】主概念1の手順図。最終形は書かず空欄□（本文指定の答え分離）。【主要な数値・設定】72=2³×3²・樹形図4段・ペア=(2,2)(3,3)・外へ2×3=6・中に2。【AIに同じ種類の図を描かせるときの説明文】「√72の変形の手順図（樹形図・ペアの丸囲み・外＝□中＝□）。主概念1の手順図。最終形は書かず空欄□（本文指定の答え分離）。数値・設定: 72=2³×3²・樹形図4段・ペア=(2,2)(3,3)・外へ2×3=6・中に2。白黒印刷向けのシンプルな教材図（SVG）としてかいて。」——この説明文を生成AIに渡せば同型の図を描かせられる。数値を変えれば類題用の図も作れる。</desc>
<!-- L06_fig1_sqrt72_factor_tree.svg | √72の変形の手順図（樹形図・ペアの丸囲み・外＝□中＝□） -->
<!-- generated by assets_provenance/generate_figures.py on 2026-07-17 (docs/SPEC_figures.md準拠（内部規約の要旨は同SPECに反映済み）・SVG直接編集禁止/スクリプト改修で再生成) -->
<rect x="0" y="0" width="470" height="330" fill="#fff"/>
<line x1="90.0" y1="50.0" x2="48.0" y2="80.0" stroke="#000" stroke-width="1.2"/>
<line x1="90.0" y1="50.0" x2="132.0" y2="80.0" stroke="#000" stroke-width="1.2"/>
<line x1="132.0" y1="102.0" x2="90.0" y2="132.0" stroke="#000" stroke-width="1.2"/>
<line x1="132.0" y1="102.0" x2="174.0" y2="132.0" stroke="#000" stroke-width="1.2"/>
<line x1="174.0" y1="154.0" x2="132.0" y2="184.0" stroke="#000" stroke-width="1.2"/>
<line x1="174.0" y1="154.0" x2="216.0" y2="184.0" stroke="#000" stroke-width="1.2"/>
<line x1="216.0" y1="206.0" x2="174.0" y2="236.0" stroke="#000" stroke-width="1.2"/>
<line x1="216.0" y1="206.0" x2="258.0" y2="236.0" stroke="#000" stroke-width="1.2"/>
<text x="90.0" y="45.0" font-size="14" text-anchor="middle">72</text>
<text x="48.0" y="97.0" font-size="14" text-anchor="middle" font-weight="bold">2</text>
<text x="132.0" y="97.0" font-size="14" text-anchor="middle">36</text>
<text x="90.0" y="149.0" font-size="14" text-anchor="middle" font-weight="bold">2</text>
<text x="174.0" y="149.0" font-size="14" text-anchor="middle">18</text>
<text x="132.0" y="201.0" font-size="14" text-anchor="middle" font-weight="bold">2</text>
<text x="216.0" y="201.0" font-size="14" text-anchor="middle">9</text>
<text x="174.0" y="253.0" font-size="14" text-anchor="middle" font-weight="bold">3</text>
<text x="258.0" y="253.0" font-size="14" text-anchor="middle" font-weight="bold">3</text>
<text x="90.0" y="22.0" font-size="12" text-anchor="start">素因数分解の樹形図</text>
<text x="348.0" y="40.0" font-size="13" text-anchor="middle" font-weight="bold">72＝2×2×2×3×3</text>
<text x="280.0" y="89.0" font-size="15" text-anchor="middle" font-weight="bold">2</text>
<text x="314.0" y="89.0" font-size="15" text-anchor="middle" font-weight="bold">2</text>
<text x="348.0" y="89.0" font-size="15" text-anchor="middle" font-weight="bold">2</text>
<text x="382.0" y="89.0" font-size="15" text-anchor="middle" font-weight="bold">3</text>
<text x="416.0" y="89.0" font-size="15" text-anchor="middle" font-weight="bold">3</text>
<ellipse cx="297.0" cy="84.0" rx="34.0" ry="16.0" fill="none" stroke="#000" stroke-width="1.3"/>
<ellipse cx="399.0" cy="84.0" rx="34.0" ry="16.0" fill="none" stroke="#000" stroke-width="1.3"/>
<line x1="297.0" y1="104.0" x2="297.0" y2="123.0" stroke="#000" stroke-width="1.4"/>
<polygon points="297.0,130.0 293.9,123.0 300.1,123.0" fill="#000"/>
<line x1="399.0" y1="104.0" x2="399.0" y2="123.0" stroke="#000" stroke-width="1.4"/>
<polygon points="399.0,130.0 395.9,123.0 402.1,123.0" fill="#000"/>
<line x1="348.0" y1="104.0" x2="348.0" y2="123.0" stroke="#000" stroke-width="1.4"/>
<polygon points="348.0,130.0 344.9,123.0 351.1,123.0" fill="#000"/>
<text x="297.0" y="146.0" font-size="11" text-anchor="middle" font-weight="bold">2が外へ</text>
<text x="348.0" y="146.0" font-size="11" text-anchor="middle">中に残る</text>
<text x="399.0" y="146.0" font-size="11" text-anchor="middle" font-weight="bold">3が外へ</text>
<text x="348.0" y="172.0" font-size="11" text-anchor="middle">ペア1組につき1つ、√の外へ出る</text>
<text x="348.0" y="192.0" font-size="13" text-anchor="middle" font-weight="bold">外に出た数は 2×3＝6</text>
<text x="348.0" y="212.0" font-size="11" text-anchor="middle">ペアにならない2は√の中に残る</text>
<rect x="125.0" y="288.0" width="220.0" height="30.0" rx="4" fill="none" stroke="#000" stroke-width="1.2"/>
<text x="235.0" y="308.0" font-size="13" text-anchor="middle" font-weight="bold">√72 → √の外＝□、中＝□</text>
</svg>
