<svg xmlns="http://www.w3.org/2000/svg" viewBox="0 0 500 258">
<title>相似な2三角形と対応（△ABC∽△DEF）</title>
<desc>【この図の意図】∽の対応順・対応する頂点/辺/角のマーク規約の提示（練習1の数値）。【主要な数値・設定】AB=5,BC=7,CA=9 / 相似比k=2 → DE=10,EF=14,FD=18。【AIに同じ種類の図を描かせるときの説明文】「相似な2三角形と対応（△ABC∽△DEF）。∽の対応順・対応する頂点/辺/角のマーク規約の提示（練習1の数値）。数値・設定: AB=5,BC=7,CA=9 / 相似比k=2 → DE=10,EF=14,FD=18。白黒印刷向けのシンプルな教材図（SVG）としてかいて。」——この説明文を生成AIに渡せば同型の図を描かせられる。数値を変えれば類題用の図も作れる。</desc>
<!-- L01_fig1_similar_triangles.svg | 相似な2三角形と対応（△ABC∽△DEF） -->
<!-- generated by assets_provenance/generate_figures.py on 2026-07-17 (docs/SPEC_figures.md準拠（内部規約の要旨は同SPECに反映済み）・SVG直接編集禁止/スクリプト改修で再生成) -->
<rect x="0" y="0" width="500" height="258" fill="#fff"/>
<polygon points="47.0,120.4 55.0,200.0 167.0,200.0" fill="none" stroke="#000" stroke-width="1.6" stroke-linejoin="round"/>
<text x="37.6" y="113.3" font-size="13" text-anchor="middle" font-weight="bold">A</text>
<text x="43.1" y="213.7" font-size="13" text-anchor="middle" font-weight="bold">B</text>
<text x="181.2" y="209.4" font-size="13" text-anchor="middle" font-weight="bold">C</text>
<polyline points="48.4,134.3 49.0,134.3 49.6,134.2 50.2,134.0 50.8,133.9 51.4,133.7 52.0,133.5 52.6,133.2 53.1,133.0 53.7,132.7 54.2,132.4 54.8,132.1 55.3,131.7 55.8,131.3 56.2,130.9 56.7,130.5 57.1,130.1 57.5,129.6 57.9,129.1 58.3,128.6 58.7,128.1" fill="none" stroke="#000" stroke-width="1.2"/>
<polyline points="69.0,200.0 69.0,198.8 68.8,197.7 68.6,196.5 68.2,195.4 67.8,194.3 67.3,193.3 66.7,192.3 66.0,191.3 65.2,190.4 64.4,189.6 63.5,188.9 62.5,188.2 61.5,187.6 60.5,187.1 59.4,186.7 58.2,186.4 57.1,186.2 55.9,186.0 54.8,186.0 53.6,186.1" fill="none" stroke="#000" stroke-width="1.2"/>
<polyline points="72.5,200.0 72.4,198.5 72.3,197.1 72.0,195.7 71.5,194.3 71.0,192.9 70.3,191.6 69.6,190.3 68.7,189.2 67.8,188.0 66.7,187.0 65.6,186.1 64.4,185.2 63.2,184.5 61.8,183.9 60.5,183.4 59.1,183.0 57.6,182.7 56.2,182.5 54.7,182.5 53.2,182.6" fill="none" stroke="#000" stroke-width="1.2"/>
<polyline points="155.3,192.3 155.1,192.6 154.9,193.0 154.7,193.3 154.5,193.7 154.3,194.0 154.2,194.4 154.0,194.8 153.9,195.2 153.7,195.6 153.6,196.0 153.5,196.4 153.4,196.8 153.3,197.2 153.2,197.6 153.1,198.0 153.1,198.4 153.1,198.8 153.0,199.2 153.0,199.6 153.0,200.0" fill="none" stroke="#000" stroke-width="1.2"/>
<polyline points="152.4,190.3 152.1,190.8 151.9,191.2 151.6,191.6 151.4,192.1 151.2,192.6 151.0,193.0 150.8,193.5 150.6,194.0 150.4,194.5 150.2,194.9 150.1,195.4 150.0,195.9 149.9,196.4 149.8,196.9 149.7,197.4 149.6,198.0 149.6,198.5 149.5,199.0 149.5,199.5 149.5,200.0" fill="none" stroke="#000" stroke-width="1.2"/>
<polyline points="149.5,188.4 149.2,188.9 148.9,189.4 148.5,190.0 148.3,190.5 148.0,191.1 147.7,191.6 147.5,192.2 147.3,192.8 147.1,193.4 146.9,193.9 146.7,194.5 146.6,195.1 146.4,195.7 146.3,196.3 146.2,196.9 146.1,197.5 146.1,198.2 146.0,198.8 146.0,199.4 146.0,200.0" fill="none" stroke="#000" stroke-width="1.2"/>
<line x1="55.5" y1="159.8" x2="46.5" y2="160.7" stroke="#000" stroke-width="1.4"/>
<line x1="109.2" y1="195.5" x2="109.2" y2="204.5" stroke="#000" stroke-width="1.4"/>
<line x1="112.8" y1="195.5" x2="112.8" y2="204.5" stroke="#000" stroke-width="1.4"/>
<line x1="107.4" y1="165.9" x2="112.4" y2="158.4" stroke="#000" stroke-width="1.4"/>
<line x1="104.5" y1="164.0" x2="109.5" y2="156.5" stroke="#000" stroke-width="1.4"/>
<line x1="101.6" y1="162.0" x2="106.6" y2="154.5" stroke="#000" stroke-width="1.4"/>
<text x="31.1" y="157.6" font-size="12" text-anchor="middle">5cm</text>
<text x="124.2" y="220.6" font-size="12" text-anchor="middle">7cm</text>
<text x="123.7" y="151.6" font-size="12" text-anchor="middle">9cm</text>
<polygon points="224.0,40.8 240.0,200.0 464.0,200.0" fill="none" stroke="#000" stroke-width="1.6" stroke-linejoin="round"/>
<text x="214.6" y="33.7" font-size="13" text-anchor="middle" font-weight="bold">D</text>
<text x="228.1" y="213.7" font-size="13" text-anchor="middle" font-weight="bold">E</text>
<text x="478.2" y="209.4" font-size="13" text-anchor="middle" font-weight="bold">F</text>
<polyline points="225.4,54.7 226.0,54.7 226.6,54.6 227.2,54.4 227.8,54.3 228.4,54.1 229.0,53.9 229.6,53.6 230.1,53.4 230.7,53.1 231.2,52.8 231.8,52.5 232.3,52.1 232.8,51.7 233.2,51.3 233.7,50.9 234.1,50.5 234.5,50.0 234.9,49.5 235.3,49.0 235.7,48.5" fill="none" stroke="#000" stroke-width="1.2"/>
<polyline points="254.0,200.0 254.0,198.8 253.8,197.7 253.6,196.5 253.2,195.4 252.8,194.3 252.3,193.3 251.7,192.3 251.0,191.3 250.2,190.4 249.4,189.6 248.5,188.9 247.5,188.2 246.5,187.6 245.5,187.1 244.4,186.7 243.2,186.4 242.1,186.2 240.9,186.0 239.8,186.0 238.6,186.1" fill="none" stroke="#000" stroke-width="1.2"/>
<polyline points="257.5,200.0 257.4,198.5 257.3,197.1 257.0,195.7 256.5,194.3 256.0,192.9 255.3,191.6 254.6,190.3 253.7,189.2 252.8,188.0 251.7,187.0 250.6,186.1 249.4,185.2 248.2,184.5 246.8,183.9 245.5,183.4 244.1,183.0 242.6,182.7 241.2,182.5 239.7,182.5 238.2,182.6" fill="none" stroke="#000" stroke-width="1.2"/>
<polyline points="452.3,192.3 452.1,192.6 451.9,193.0 451.7,193.3 451.5,193.7 451.3,194.0 451.2,194.4 451.0,194.8 450.9,195.2 450.7,195.6 450.6,196.0 450.5,196.4 450.4,196.8 450.3,197.2 450.2,197.6 450.1,198.0 450.1,198.4 450.1,198.8 450.0,199.2 450.0,199.6 450.0,200.0" fill="none" stroke="#000" stroke-width="1.2"/>
<polyline points="449.4,190.3 449.1,190.8 448.9,191.2 448.6,191.6 448.4,192.1 448.2,192.6 448.0,193.0 447.8,193.5 447.6,194.0 447.4,194.5 447.2,194.9 447.1,195.4 447.0,195.9 446.9,196.4 446.8,196.9 446.7,197.4 446.6,198.0 446.6,198.5 446.5,199.0 446.5,199.5 446.5,200.0" fill="none" stroke="#000" stroke-width="1.2"/>
<polyline points="446.5,188.4 446.2,188.9 445.9,189.4 445.5,190.0 445.3,190.5 445.0,191.1 444.7,191.6 444.5,192.2 444.3,192.8 444.1,193.4 443.9,193.9 443.7,194.5 443.6,195.1 443.4,195.7 443.3,196.3 443.2,196.9 443.1,197.5 443.1,198.2 443.0,198.8 443.0,199.4 443.0,200.0" fill="none" stroke="#000" stroke-width="1.2"/>
<line x1="236.5" y1="120.0" x2="227.5" y2="120.9" stroke="#000" stroke-width="1.4"/>
<line x1="350.2" y1="195.5" x2="350.2" y2="204.5" stroke="#000" stroke-width="1.4"/>
<line x1="353.8" y1="195.5" x2="353.8" y2="204.5" stroke="#000" stroke-width="1.4"/>
<line x1="344.4" y1="126.1" x2="349.4" y2="118.6" stroke="#000" stroke-width="1.4"/>
<line x1="341.5" y1="124.2" x2="346.5" y2="116.7" stroke="#000" stroke-width="1.4"/>
<line x1="338.6" y1="122.2" x2="343.6" y2="114.7" stroke="#000" stroke-width="1.4"/>
<text x="210.2" y="117.1" font-size="12" text-anchor="middle">10cm</text>
<text x="366.4" y="222.1" font-size="12" text-anchor="middle">14cm</text>
<text x="362.3" y="110.6" font-size="12" text-anchor="middle">18cm</text>
<text x="250.0" y="232.0" font-size="14" text-anchor="middle" font-weight="bold">△ABC ∽ △DEF（相似比は？）</text>
<text x="250.0" y="250.0" font-size="12" text-anchor="middle">同じ本数の弧＝対応する角，同じ本数のティック＝対応する辺</text>
</svg>
