<svg xmlns="http://www.w3.org/2000/svg" viewBox="0 0 560 300">
<title>相似比と対応する辺・角の求値（△ABC∽△DEF）</title>
<desc>【この図の意図】例題1の図。∽の並び順から対応を読み、相似比→EF・∠Dへ（問う値は？表記）。【主要な数値・設定】AB=8,BC=10,∠A=70°,DE=12（ACは厳密解9.33を計算）・k=DE/AB（相似比は答えのため値非表示）。【AIに同じ種類の図を描かせるときの説明文】「相似比と対応する辺・角の求値（△ABC∽△DEF）。例題1の図。∽の並び順から対応を読み、相似比→EF・∠Dへ（問う値は？表記）。数値・設定: AB=8,BC=10,∠A=70°,DE=12（ACは厳密解9.33を計算）・k=DE/AB（相似比は答えのため値非表示）。白黒印刷向けのシンプルな教材図（SVG）としてかいて。」——この説明文を生成AIに渡せば同型の図を描かせられる。数値を変えれば類題用の図も作れる。</desc>
<!-- L02_fig1_similarity_ratio.svg | 相似比と対応する辺・角の求値（△ABC∽△DEF） -->
<!-- generated by assets_provenance/generate_figures.py on 2026-07-17 (docs/SPEC_figures.md準拠（内部規約の要旨は同SPECに反映済み）・SVG直接編集禁止/スクリプト改修で再生成) -->
<rect x="0" y="0" width="560" height="300" fill="#fff"/>
<polygon points="55.0,218.0 151.0,218.0 93.3,112.8" fill="none" stroke="#000" stroke-width="1.6" stroke-linejoin="round"/>
<text x="43.2" y="231.8" font-size="13" text-anchor="middle" font-weight="bold">A</text>
<text x="163.4" y="231.0" font-size="13" text-anchor="middle" font-weight="bold">B</text>
<text x="91.9" y="102.4" font-size="13" text-anchor="middle" font-weight="bold">C</text>
<polyline points="69.0,218.0 69.0,217.1 68.9,216.3 68.8,215.4 68.6,214.6 68.4,213.8 68.1,213.0 67.7,212.2 67.4,211.4 66.9,210.7 66.5,210.0 66.0,209.3 65.4,208.6 64.8,208.0 64.2,207.4 63.5,206.9 62.8,206.4 62.1,205.9 61.4,205.5 60.6,205.2 59.8,204.8" fill="none" stroke="#000" stroke-width="1.2"/>
<polyline points="144.3,205.7 143.6,206.1 143.0,206.5 142.4,207.0 141.8,207.4 141.3,207.9 140.7,208.5 140.2,209.0 139.8,209.6 139.4,210.2 139.0,210.9 138.6,211.5 138.3,212.2 138.0,212.9 137.7,213.6 137.5,214.3 137.3,215.0 137.2,215.8 137.1,216.5 137.0,217.3 137.0,218.0" fill="none" stroke="#000" stroke-width="1.2"/>
<polyline points="142.6,202.7 141.8,203.1 141.0,203.6 140.2,204.2 139.5,204.8 138.8,205.4 138.2,206.1 137.6,206.8 137.0,207.5 136.4,208.3 135.9,209.1 135.5,209.9 135.1,210.7 134.7,211.6 134.4,212.5 134.1,213.4 133.9,214.3 133.7,215.2 133.6,216.1 133.5,217.1 133.5,218.0" fill="none" stroke="#000" stroke-width="1.2"/>
<polyline points="88.5,125.9 89.1,126.1 89.6,126.3 90.2,126.4 90.8,126.6 91.4,126.7 92.0,126.7 92.6,126.8 93.2,126.8 93.8,126.8 94.4,126.7 95.0,126.7 95.5,126.6 96.1,126.5 96.7,126.4 97.3,126.2 97.9,126.0 98.4,125.8 99.0,125.6 99.5,125.3 100.0,125.1" fill="none" stroke="#000" stroke-width="1.2"/>
<polyline points="87.3,129.2 88.0,129.5 88.7,129.7 89.5,129.9 90.2,130.0 90.9,130.1 91.7,130.2 92.4,130.3 93.1,130.3 93.9,130.3 94.6,130.2 95.4,130.2 96.1,130.1 96.8,129.9 97.6,129.8 98.3,129.6 99.0,129.3 99.7,129.1 100.4,128.8 101.1,128.5 101.7,128.1" fill="none" stroke="#000" stroke-width="1.2"/>
<polyline points="86.1,132.5 87.0,132.8 87.8,133.1 88.7,133.3 89.6,133.5 90.4,133.6 91.3,133.7 92.2,133.8 93.1,133.8 94.0,133.8 94.9,133.7 95.8,133.6 96.7,133.5 97.5,133.4 98.4,133.2 99.3,132.9 100.1,132.6 101.0,132.3 101.8,132.0 102.6,131.6 103.4,131.2" fill="none" stroke="#000" stroke-width="1.2"/>
<line x1="103.0" y1="213.5" x2="103.0" y2="222.5" stroke="#000" stroke-width="1.4"/>
<line x1="119.0" y1="169.1" x2="126.9" y2="164.8" stroke="#000" stroke-width="1.4"/>
<line x1="117.4" y1="166.0" x2="125.3" y2="161.7" stroke="#000" stroke-width="1.4"/>
<line x1="79.6" y1="163.6" x2="71.1" y2="160.6" stroke="#000" stroke-width="1.4"/>
<line x1="78.4" y1="166.9" x2="69.9" y2="163.9" stroke="#000" stroke-width="1.4"/>
<line x1="77.2" y1="170.2" x2="68.7" y2="167.1" stroke="#000" stroke-width="1.4"/>
<text x="104.9" y="243.1" font-size="12" text-anchor="middle">8cm</text>
<text x="138.7" y="156.6" font-size="12" text-anchor="middle">10cm</text>
<text x="79.6" y="205.0" font-size="12" text-anchor="middle">70°</text>
<polygon points="250.0,218.0 394.0,218.0 307.4,60.2" fill="none" stroke="#000" stroke-width="1.6" stroke-linejoin="round"/>
<text x="238.2" y="231.8" font-size="13" text-anchor="middle" font-weight="bold">D</text>
<text x="406.4" y="231.0" font-size="13" text-anchor="middle" font-weight="bold">E</text>
<text x="306.1" y="49.8" font-size="13" text-anchor="middle" font-weight="bold">F</text>
<polyline points="264.0,218.0 264.0,217.1 263.9,216.3 263.8,215.4 263.6,214.6 263.4,213.8 263.1,213.0 262.7,212.2 262.4,211.4 261.9,210.7 261.5,210.0 261.0,209.3 260.4,208.6 259.8,208.0 259.2,207.4 258.5,206.9 257.8,206.4 257.1,205.9 256.4,205.5 255.6,205.2 254.8,204.8" fill="none" stroke="#000" stroke-width="1.2"/>
<polyline points="387.3,205.7 386.6,206.1 386.0,206.5 385.4,207.0 384.8,207.4 384.3,207.9 383.7,208.5 383.2,209.0 382.8,209.6 382.4,210.2 382.0,210.9 381.6,211.5 381.3,212.2 381.0,212.9 380.7,213.6 380.5,214.3 380.3,215.0 380.2,215.8 380.1,216.5 380.0,217.3 380.0,218.0" fill="none" stroke="#000" stroke-width="1.2"/>
<polyline points="385.6,202.7 384.8,203.1 384.0,203.6 383.2,204.2 382.5,204.8 381.8,205.4 381.2,206.1 380.6,206.8 380.0,207.5 379.4,208.3 378.9,209.1 378.5,209.9 378.1,210.7 377.7,211.6 377.4,212.5 377.1,213.4 376.9,214.3 376.7,215.2 376.6,216.1 376.5,217.1 376.5,218.0" fill="none" stroke="#000" stroke-width="1.2"/>
<polyline points="302.7,73.3 303.2,73.5 303.8,73.7 304.4,73.8 305.0,74.0 305.5,74.0 306.1,74.1 306.7,74.2 307.3,74.2 307.9,74.2 308.5,74.1 309.1,74.1 309.7,74.0 310.3,73.9 310.9,73.8 311.4,73.6 312.0,73.4 312.6,73.2 313.1,73.0 313.6,72.7 314.2,72.5" fill="none" stroke="#000" stroke-width="1.2"/>
<polyline points="301.5,76.6 302.2,76.9 302.9,77.1 303.6,77.3 304.3,77.4 305.1,77.5 305.8,77.6 306.5,77.7 307.3,77.7 308.0,77.7 308.8,77.6 309.5,77.6 310.3,77.5 311.0,77.3 311.7,77.1 312.4,77.0 313.1,76.7 313.8,76.5 314.5,76.2 315.2,75.9 315.9,75.5" fill="none" stroke="#000" stroke-width="1.2"/>
<polyline points="300.3,79.9 301.1,80.2 302.0,80.5 302.8,80.7 303.7,80.8 304.6,81.0 305.5,81.1 306.4,81.2 307.3,81.2 308.2,81.2 309.0,81.1 309.9,81.0 310.8,80.9 311.7,80.7 312.6,80.5 313.4,80.3 314.3,80.0 315.1,79.7 315.9,79.4 316.7,79.0 317.5,78.6" fill="none" stroke="#000" stroke-width="1.2"/>
<line x1="322.0" y1="213.5" x2="322.0" y2="222.5" stroke="#000" stroke-width="1.4"/>
<line x1="347.6" y1="142.8" x2="355.5" y2="138.5" stroke="#000" stroke-width="1.4"/>
<line x1="345.9" y1="139.7" x2="353.8" y2="135.4" stroke="#000" stroke-width="1.4"/>
<line x1="284.1" y1="137.3" x2="275.7" y2="134.3" stroke="#000" stroke-width="1.4"/>
<line x1="282.9" y1="140.6" x2="274.5" y2="137.5" stroke="#000" stroke-width="1.4"/>
<line x1="281.8" y1="143.9" x2="273.3" y2="140.8" stroke="#000" stroke-width="1.4"/>
<text x="324.1" y="245.1" font-size="12" text-anchor="middle">12cm</text>
<text x="368.8" y="129.1" font-size="12" text-anchor="middle">？</text>
<text x="276.2" y="203.8" font-size="12" text-anchor="middle">？</text>
<text x="280.0" y="274.0" font-size="12" text-anchor="middle">△ABC∽△DEF，AB=8cm，BC=10cm，∠A=70°，DE=12cm</text>
<text x="280.0" y="291.0" font-size="12" text-anchor="middle">（例題1: (1)相似比 (2)EF (3)∠D を求める——図の「？」）</text>
</svg>
