<svg xmlns="http://www.w3.org/2000/svg" viewBox="0 0 680 285">
<title>相似の判定 例題1（3組の並置）</title>
<desc>【この図の意図】例題1(1)(2)(3)の与件図。判定・条件名が答えのため対応マークなし。【主要な数値・設定】(1)4,6,8/6,9,12 (2)5,8,45°/7.5,12,45° (3)50°70°/50°60°（角は厳密配置）。【AIに同じ種類の図を描かせるときの説明文】「相似の判定 例題1（3組の並置）。例題1(1)(2)(3)の与件図。判定・条件名が答えのため対応マークなし。数値・設定: (1)4,6,8/6,9,12 (2)5,8,45°/7.5,12,45° (3)50°70°/50°60°（角は厳密配置）。白黒印刷向けのシンプルな教材図（SVG）としてかいて。」——この説明文を生成AIに渡せば同型の図を描かせられる。数値を変えれば類題用の図も作れる。</desc>
<!-- L03_fig1_similarity_test_examples.svg | 相似の判定 例題1（3組の並置） -->
<!-- generated by assets_provenance/generate_figures.py on 2026-07-17 (docs/SPEC_figures.md準拠（内部規約の要旨は同SPECに反映済み）・SVG直接編集禁止/スクリプト改修で再生成) -->
<rect x="0" y="0" width="680" height="285" fill="#fff"/>
<polygon points="46.5,67.1 55.0,100.0 106.0,100.0" fill="none" stroke="#000" stroke-width="1.6" stroke-linejoin="round"/>
<text x="37.9" y="62.9" font-size="12" text-anchor="middle" font-weight="bold">A</text>
<text x="45.5" y="111.5" font-size="12" text-anchor="middle" font-weight="bold">B</text>
<text x="117.5" y="107.6" font-size="12" text-anchor="middle" font-weight="bold">C</text>
<text x="36.4" y="83.1" font-size="11" text-anchor="middle">4cm</text>
<text x="91.3" y="114.3" font-size="11" text-anchor="middle">6cm</text>
<text x="88.1" y="78.2" font-size="11" text-anchor="middle">8cm</text>
<polygon points="42.2,155.6 55.0,205.0 131.5,205.0" fill="none" stroke="#000" stroke-width="1.6" stroke-linejoin="round"/>
<text x="33.6" y="151.5" font-size="12" text-anchor="middle" font-weight="bold">D</text>
<text x="45.5" y="216.5" font-size="12" text-anchor="middle" font-weight="bold">E</text>
<text x="143.0" y="212.6" font-size="12" text-anchor="middle" font-weight="bold">F</text>
<text x="34.2" y="179.9" font-size="11" text-anchor="middle">6cm</text>
<text x="104.0" y="219.3" font-size="11" text-anchor="middle">9cm</text>
<text x="98.7" y="175.0" font-size="11" text-anchor="middle">12cm</text>
<polygon points="280.0,100.0 322.5,100.0 328.1,51.9" fill="none" stroke="#000" stroke-width="1.6" stroke-linejoin="round"/>
<text x="269.4" y="109.8" font-size="12" text-anchor="middle" font-weight="bold">A</text>
<text x="329.8" y="113.7" font-size="12" text-anchor="middle" font-weight="bold">B</text>
<text x="333.9" y="45.6" font-size="12" text-anchor="middle" font-weight="bold">C</text>
<polyline points="294.0,100.0 294.0,99.5 294.0,98.9 293.9,98.4 293.8,97.8 293.7,97.3 293.6,96.7 293.5,96.2 293.3,95.7 293.1,95.2 292.9,94.6 292.7,94.1 292.5,93.6 292.2,93.2 291.9,92.7 291.6,92.2 291.3,91.8 291.0,91.3 290.6,90.9 290.3,90.5 289.9,90.1" fill="none" stroke="#000" stroke-width="1.2"/>
<text x="299.4" y="95.8" font-size="11" text-anchor="middle">45°</text>
<text x="293.9" y="116.9" font-size="11" text-anchor="middle">5cm</text>
<text x="294.9" y="67.9" font-size="11" text-anchor="middle">8cm</text>
<polygon points="280.0,205.0 343.8,205.0 352.1,132.9" fill="none" stroke="#000" stroke-width="1.6" stroke-linejoin="round"/>
<text x="269.4" y="214.8" font-size="12" text-anchor="middle" font-weight="bold">D</text>
<text x="351.1" y="218.7" font-size="12" text-anchor="middle" font-weight="bold">E</text>
<text x="358.0" y="126.6" font-size="12" text-anchor="middle" font-weight="bold">F</text>
<polyline points="294.0,205.0 294.0,204.5 294.0,203.9 293.9,203.4 293.8,202.8 293.7,202.3 293.6,201.7 293.5,201.2 293.3,200.7 293.1,200.2 292.9,199.6 292.7,199.1 292.5,198.6 292.2,198.2 291.9,197.7 291.6,197.2 291.3,196.8 291.0,196.3 290.6,195.9 290.3,195.5 289.9,195.1" fill="none" stroke="#000" stroke-width="1.2"/>
<text x="299.4" y="200.8" font-size="11" text-anchor="middle">45°</text>
<text x="304.6" y="221.9" font-size="11" text-anchor="middle">7.5cm</text>
<text x="306.9" y="160.9" font-size="11" text-anchor="middle">12cm</text>
<polygon points="510.0,100.0 567.2,100.0 549.9,52.5" fill="none" stroke="#000" stroke-width="1.6" stroke-linejoin="round"/>
<text x="499.2" y="109.5" font-size="12" text-anchor="middle" font-weight="bold">A</text>
<text x="577.3" y="110.7" font-size="12" text-anchor="middle" font-weight="bold">B</text>
<text x="552.7" y="45.0" font-size="12" text-anchor="middle" font-weight="bold">C</text>
<polyline points="524.0,100.0 524.0,99.4 523.9,98.8 523.9,98.2 523.8,97.6 523.7,97.0 523.5,96.4 523.4,95.8 523.2,95.2 522.9,94.6 522.7,94.1 522.4,93.5 522.1,93.0 521.8,92.5 521.5,92.0 521.1,91.5 520.7,91.0 520.3,90.5 519.9,90.1 519.5,89.7 519.0,89.3" fill="none" stroke="#000" stroke-width="1.2"/>
<text x="529.0" y="95.0" font-size="11" text-anchor="middle">50°</text>
<polyline points="562.4,86.8 561.6,87.2 560.8,87.5 560.1,87.9 559.4,88.4 558.7,88.9 558.0,89.4 557.4,90.0 556.8,90.6 556.2,91.3 555.7,92.0 555.3,92.7 554.8,93.4 554.5,94.2 554.1,95.0 553.8,95.8 553.6,96.6 553.4,97.4 553.3,98.3 553.2,99.1 553.2,100.0" fill="none" stroke="#000" stroke-width="1.2"/>
<text x="550.0" y="91.8" font-size="11" text-anchor="middle">70°</text>
<polygon points="510.0,205.0 584.8,205.0 554.3,152.2" fill="none" stroke="#000" stroke-width="1.6" stroke-linejoin="round"/>
<text x="499.0" y="214.1" font-size="12" text-anchor="middle" font-weight="bold">D</text>
<text x="595.5" y="214.6" font-size="12" text-anchor="middle" font-weight="bold">E</text>
<text x="555.9" y="144.5" font-size="12" text-anchor="middle" font-weight="bold">F</text>
<polyline points="524.0,205.0 524.0,204.4 523.9,203.8 523.9,203.2 523.8,202.6 523.7,202.0 523.5,201.4 523.4,200.8 523.2,200.2 522.9,199.6 522.7,199.1 522.4,198.5 522.1,198.0 521.8,197.5 521.5,197.0 521.1,196.5 520.7,196.0 520.3,195.5 519.9,195.1 519.5,194.7 519.0,194.3" fill="none" stroke="#000" stroke-width="1.2"/>
<text x="529.0" y="200.0" font-size="11" text-anchor="middle">50°</text>
<polyline points="577.8,192.9 577.2,193.3 576.6,193.7 576.0,194.1 575.4,194.6 574.9,195.1 574.4,195.6 573.9,196.2 573.5,196.8 573.1,197.4 572.7,198.0 572.3,198.6 572.0,199.3 571.7,200.0 571.5,200.7 571.3,201.4 571.1,202.1 571.0,202.8 570.9,203.5 570.8,204.3 570.8,205.0" fill="none" stroke="#000" stroke-width="1.2"/>
<text x="566.6" y="198.3" font-size="11" text-anchor="middle">60°</text>
<text x="110.0" y="246.0" font-size="12" text-anchor="middle" font-weight="bold">(1)</text>
<text x="335.0" y="246.0" font-size="12" text-anchor="middle" font-weight="bold">(2)</text>
<text x="555.0" y="246.0" font-size="12" text-anchor="middle" font-weight="bold">(3)</text>
<text x="340.0" y="24.0" font-size="14" text-anchor="middle" font-weight="bold">例題1: 各組の三角形は相似といえるか（いえる場合は使った条件も）</text>
<text x="340.0" y="268.0" font-size="12" text-anchor="middle">判定が問われているので、対応を示すマーク（同数のティック・弧）は付けていない——対応を探すのも問題の一部</text>
</svg>
