<svg xmlns="http://www.w3.org/2000/svg" viewBox="0 0 470 235">
<title>証明の構想② 重なる配置（∠AED=∠ABC）</title>
<desc>【この図の意図】例題2の与件図。共通角∠Aが答えのため∠Aにはマークなし。【主要な数値・設定】AB=7,CA=5.6,BC=8,k=0.62（∠AED=∠ABCを厳密に満たす内分点）。【AIに同じ種類の図を描かせるときの説明文】「証明の構想② 重なる配置（∠AED=∠ABC）。例題2の与件図。共通角∠Aが答えのため∠Aにはマークなし。数値・設定: AB=7,CA=5.6,BC=8,k=0.62（∠AED=∠ABCを厳密に満たす内分点）。白黒印刷向けのシンプルな教材図（SVG）としてかいて。」——この説明文を生成AIに渡せば同型の図を描かせられる。数値を変えれば類題用の図も作れる。</desc>
<!-- L04_fig2_overlapping_triangles.svg | 証明の構想② 重なる配置（∠AED=∠ABC） -->
<!-- generated by assets_provenance/generate_figures.py on 2026-07-17 (docs/SPEC_figures.md準拠（内部規約の要旨は同SPECに反映済み）・SVG直接編集禁止/スクリプト改修で再生成) -->
<rect x="0" y="0" width="470" height="235" fill="#fff"/>
<polygon points="247.7,35.4 115.0,160.0 323.0,160.0" fill="none" stroke="#000" stroke-width="1.6" stroke-linejoin="round"/>
<line x1="181.9" y1="97.2" x2="306.0" y2="132.0" stroke="#000" stroke-width="1.6"/>
<text x="251.0" y="25.3" font-size="13" text-anchor="middle" font-weight="bold">A</text>
<text x="100.9" y="169.7" font-size="13" text-anchor="middle" font-weight="bold">B</text>
<text x="336.7" y="170.6" font-size="13" text-anchor="middle" font-weight="bold">C</text>
<circle cx="181.9" cy="97.2" r="2.5" fill="#000"/>
<text x="168.9" y="97.2" font-size="13" text-anchor="middle" font-weight="bold">D</text>
<circle cx="306.0" cy="132.0" r="2.5" fill="#000"/>
<text x="319.0" y="144.0" font-size="13" text-anchor="middle" font-weight="bold">E</text>
<polyline points="298.8,120.0 298.4,120.3 297.9,120.6 297.5,120.9 297.1,121.2 296.7,121.6 296.3,121.9 295.9,122.3 295.6,122.7 295.2,123.1 294.9,123.5 294.6,123.9 294.3,124.4 294.0,124.8 293.8,125.3 293.5,125.7 293.3,126.2 293.1,126.7 292.9,127.2 292.7,127.7 292.6,128.2" fill="none" stroke="#000" stroke-width="1.2"/>
<polyline points="125.2,150.4 125.6,150.8 125.9,151.2 126.2,151.6 126.5,152.1 126.8,152.5 127.1,152.9 127.4,153.4 127.6,153.9 127.8,154.4 128.0,154.8 128.2,155.3 128.4,155.8 128.5,156.3 128.6,156.9 128.8,157.4 128.8,157.9 128.9,158.4 129.0,158.9 129.0,159.5 129.0,160.0" fill="none" stroke="#000" stroke-width="1.2"/>
<text x="235.0" y="199.0" font-size="12" text-anchor="middle">辺AB上に点D，辺AC上に点E，∠AED＝∠ABC（同じ弧＝等しい角・仮定）</text>
<text x="235.0" y="216.0" font-size="12" text-anchor="middle">（例題2: △ADE∽△ACBの方針メモ——2組目の等しい角はどこから？）</text>
</svg>
