<svg xmlns="http://www.w3.org/2000/svg" viewBox="0 0 660 226">
<title>三角形の相似条件3つの並置</title>
<desc>【この図の意図】L05の証明で根拠に使う相似条件の一覧図。太線・ティック・弧=条件で使う要素。【主要な数値・設定】基準三角形(3.4,4.4,3.0)・相似比k=1.55（概念図・比のみ厳密）。【AIに同じ種類の図を描かせるときの説明文】「三角形の相似条件3つの並置。L05の証明で根拠に使う相似条件の一覧図。太線・ティック・弧=条件で使う要素。数値・設定: 基準三角形(3.4,4.4,3.0)・相似比k=1.55（概念図・比のみ厳密）。白黒印刷向けのシンプルな教材図（SVG）としてかいて。」——この説明文を生成AIに渡せば同型の図を描かせられる。数値を変えれば類題用の図も作れる。</desc>
<!-- L05_fig1_similarity_conditions.svg | 三角形の相似条件3つの並置 -->
<!-- generated by assets_provenance/generate_figures.py on 2026-07-17 (docs/SPEC_figures.md準拠（内部規約の要旨は同SPECに反映済み）・SVG直接編集禁止/スクリプト改修で再生成) -->
<rect x="0" y="0" width="660" height="226" fill="#fff"/>
<line x1="67.4" y1="43.3" x2="30.0" y2="78.0" stroke="#000" stroke-width="3.2"/>
<line x1="30.0" y1="78.0" x2="96.0" y2="78.0" stroke="#000" stroke-width="3.2"/>
<line x1="96.0" y1="78.0" x2="67.4" y2="43.3" stroke="#000" stroke-width="3.2"/>
<line x1="51.7" y1="63.9" x2="45.6" y2="57.3" stroke="#000" stroke-width="1.4"/>
<line x1="61.2" y1="73.5" x2="61.2" y2="82.5" stroke="#000" stroke-width="1.4"/>
<line x1="64.8" y1="73.5" x2="64.8" y2="82.5" stroke="#000" stroke-width="1.4"/>
<line x1="80.4" y1="66.2" x2="87.4" y2="60.5" stroke="#000" stroke-width="1.4"/>
<line x1="78.2" y1="63.5" x2="85.2" y2="57.8" stroke="#000" stroke-width="1.4"/>
<line x1="76.0" y1="60.8" x2="82.9" y2="55.1" stroke="#000" stroke-width="1.4"/>
<line x1="87.9" y1="114.2" x2="30.0" y2="168.0" stroke="#000" stroke-width="3.2"/>
<line x1="30.0" y1="168.0" x2="132.3" y2="168.0" stroke="#000" stroke-width="3.2"/>
<line x1="132.3" y1="168.0" x2="87.9" y2="114.2" stroke="#000" stroke-width="3.2"/>
<line x1="62.0" y1="144.4" x2="55.9" y2="137.8" stroke="#000" stroke-width="1.4"/>
<line x1="79.4" y1="163.5" x2="79.4" y2="172.5" stroke="#000" stroke-width="1.4"/>
<line x1="82.9" y1="163.5" x2="82.9" y2="172.5" stroke="#000" stroke-width="1.4"/>
<line x1="108.9" y1="146.7" x2="115.8" y2="140.9" stroke="#000" stroke-width="1.4"/>
<line x1="106.6" y1="144.0" x2="113.6" y2="138.2" stroke="#000" stroke-width="1.4"/>
<line x1="104.4" y1="141.3" x2="111.4" y2="135.5" stroke="#000" stroke-width="1.4"/>
<text x="81.0" y="190.0" font-size="12" text-anchor="middle">① 対応する3組の辺の比が</text>
<text x="81.0" y="206.0" font-size="12" text-anchor="middle">すべて等しい</text>
<line x1="282.4" y1="43.3" x2="245.0" y2="78.0" stroke="#000" stroke-width="3.2"/>
<line x1="245.0" y1="78.0" x2="311.0" y2="78.0" stroke="#000" stroke-width="1.6"/>
<line x1="311.0" y1="78.0" x2="282.4" y2="43.3" stroke="#000" stroke-width="3.2"/>
<line x1="266.7" y1="63.9" x2="260.6" y2="57.3" stroke="#000" stroke-width="1.4"/>
<line x1="294.3" y1="64.9" x2="301.3" y2="59.1" stroke="#000" stroke-width="1.4"/>
<line x1="292.1" y1="62.2" x2="299.0" y2="56.4" stroke="#000" stroke-width="1.4"/>
<polyline points="272.1,52.8 272.9,53.6 273.7,54.3 274.5,54.9 275.4,55.4 276.3,55.9 277.3,56.3 278.3,56.7 279.3,57.0 280.4,57.1 281.4,57.3 282.5,57.3 283.6,57.2 284.6,57.1 285.6,56.9 286.7,56.6 287.7,56.3 288.6,55.8 289.5,55.3 290.4,54.7 291.3,54.1" fill="none" stroke="#000" stroke-width="1.2"/>
<line x1="302.9" y1="114.2" x2="245.0" y2="168.0" stroke="#000" stroke-width="3.2"/>
<line x1="245.0" y1="168.0" x2="347.3" y2="168.0" stroke="#000" stroke-width="1.6"/>
<line x1="347.3" y1="168.0" x2="302.9" y2="114.2" stroke="#000" stroke-width="3.2"/>
<line x1="277.0" y1="144.4" x2="270.9" y2="137.8" stroke="#000" stroke-width="1.4"/>
<line x1="322.7" y1="145.3" x2="329.7" y2="139.6" stroke="#000" stroke-width="1.4"/>
<line x1="320.5" y1="142.6" x2="327.5" y2="136.9" stroke="#000" stroke-width="1.4"/>
<polyline points="292.7,123.7 293.4,124.5 294.2,125.2 295.1,125.8 296.0,126.3 296.9,126.8 297.9,127.3 298.9,127.6 299.9,127.9 300.9,128.1 302.0,128.2 303.0,128.2 304.1,128.1 305.2,128.0 306.2,127.8 307.2,127.5 308.2,127.2 309.2,126.7 310.1,126.2 311.0,125.6 311.8,125.0" fill="none" stroke="#000" stroke-width="1.2"/>
<text x="296.0" y="190.0" font-size="12" text-anchor="middle">② 対応する2組の辺の比と</text>
<text x="296.0" y="206.0" font-size="12" text-anchor="middle">その間の角がそれぞれ等しい</text>
<line x1="497.4" y1="43.3" x2="460.0" y2="78.0" stroke="#000" stroke-width="1.6"/>
<line x1="460.0" y1="78.0" x2="526.0" y2="78.0" stroke="#000" stroke-width="1.6"/>
<line x1="526.0" y1="78.0" x2="497.4" y2="43.3" stroke="#000" stroke-width="1.6"/>
<polyline points="474.0,78.0 474.0,77.5 474.0,77.0 473.9,76.4 473.8,75.9 473.8,75.4 473.6,74.9 473.5,74.4 473.4,73.9 473.2,73.4 473.0,72.9 472.8,72.4 472.6,71.9 472.4,71.5 472.1,71.0 471.9,70.5 471.6,70.1 471.3,69.7 470.9,69.3 470.6,68.9 470.3,68.5" fill="none" stroke="#000" stroke-width="1.2"/>
<polyline points="517.1,67.2 516.6,67.6 516.2,68.0 515.7,68.5 515.3,68.9 514.9,69.4 514.6,69.9 514.2,70.4 513.9,70.9 513.6,71.5 513.3,72.0 513.1,72.6 512.9,73.2 512.7,73.8 512.5,74.3 512.3,74.9 512.2,75.5 512.1,76.2 512.1,76.8 512.0,77.4 512.0,78.0" fill="none" stroke="#000" stroke-width="1.2"/>
<polyline points="514.9,64.5 514.3,65.0 513.7,65.5 513.2,66.1 512.7,66.7 512.2,67.3 511.7,67.9 511.3,68.5 510.9,69.2 510.5,69.8 510.2,70.5 509.9,71.2 509.6,72.0 509.3,72.7 509.1,73.4 508.9,74.2 508.8,74.9 508.7,75.7 508.6,76.5 508.5,77.2 508.5,78.0" fill="none" stroke="#000" stroke-width="1.2"/>
<line x1="517.9" y1="114.2" x2="460.0" y2="168.0" stroke="#000" stroke-width="1.6"/>
<line x1="460.0" y1="168.0" x2="562.3" y2="168.0" stroke="#000" stroke-width="1.6"/>
<line x1="562.3" y1="168.0" x2="517.9" y2="114.2" stroke="#000" stroke-width="1.6"/>
<polyline points="474.0,168.0 474.0,167.5 474.0,167.0 473.9,166.4 473.8,165.9 473.8,165.4 473.6,164.9 473.5,164.4 473.4,163.9 473.2,163.4 473.0,162.9 472.8,162.4 472.6,161.9 472.4,161.5 472.1,161.0 471.9,160.5 471.6,160.1 471.3,159.7 470.9,159.3 470.6,158.9 470.3,158.5" fill="none" stroke="#000" stroke-width="1.2"/>
<polyline points="553.4,157.2 552.9,157.6 552.5,158.0 552.0,158.5 551.6,158.9 551.2,159.4 550.9,159.9 550.5,160.4 550.2,160.9 549.9,161.5 549.6,162.0 549.4,162.6 549.2,163.2 549.0,163.8 548.8,164.3 548.6,164.9 548.5,165.5 548.4,166.2 548.4,166.8 548.3,167.4 548.3,168.0" fill="none" stroke="#000" stroke-width="1.2"/>
<polyline points="551.2,154.5 550.6,155.0 550.0,155.5 549.5,156.1 549.0,156.7 548.5,157.3 548.0,157.9 547.6,158.5 547.2,159.2 546.8,159.8 546.5,160.5 546.2,161.2 545.9,162.0 545.6,162.7 545.4,163.4 545.2,164.2 545.1,164.9 545.0,165.7 544.9,166.5 544.8,167.2 544.8,168.0" fill="none" stroke="#000" stroke-width="1.2"/>
<text x="511.0" y="190.0" font-size="12" text-anchor="middle">③ 対応する2組の角が</text>
<text x="511.0" y="206.0" font-size="12" text-anchor="middle">それぞれ等しい</text>
<text x="330.0" y="24.0" font-size="14" text-anchor="middle" font-weight="bold">三角形の相似条件（どれか1つが言えれば相似）</text>
</svg>
