<svg xmlns="http://www.w3.org/2000/svg" viewBox="0 0 660 268">
<title>延長上の2配置（Aの反対側／B・Cの外側）</title>
<desc>【この図の意図】例題1・例題2の並置図。式が辺上と同じになる2つの延長配置。【主要な数値・設定】例題1: 8,4,10,12（t=1/2）／例題2: 8,10,12,8（t=5/4）。【AIに同じ種類の図を描かせるときの説明文】「延長上の2配置（Aの反対側／B・Cの外側）。例題1・例題2の並置図。式が辺上と同じになる2つの延長配置。数値・設定: 例題1: 8,4,10,12（t=1/2）／例題2: 8,10,12,8（t=5/4）。白黒印刷向けのシンプルな教材図（SVG）としてかいて。」——この説明文を生成AIに渡せば同型の図を描かせられる。数値を変えれば類題用の図も作れる。</desc>
<!-- L07_fig1_extension_two_cases.svg | 延長上の2配置（Aの反対側／B・Cの外側） -->
<!-- generated by assets_provenance/generate_figures.py on 2026-07-17 (docs/SPEC_figures.md準拠（内部規約の要旨は同SPECに反映済み）・SVG直接編集禁止/スクリプト改修で再生成) -->
<rect x="0" y="0" width="660" height="268" fill="#fff"/>
<polygon points="99.0,110.6 45.0,190.0 189.0,190.0" fill="none" stroke="#000" stroke-width="1.6" stroke-linejoin="round"/>
<line x1="99.0" y1="110.6" x2="126.0" y2="70.9" stroke="#000" stroke-width="1.6"/>
<line x1="99.0" y1="110.6" x2="54.0" y2="70.9" stroke="#000" stroke-width="1.6"/>
<line x1="126.0" y1="70.9" x2="54.0" y2="70.9" stroke="#000" stroke-width="1.6"/>
<line x1="93.5" y1="65.9" x2="85.5" y2="70.9" stroke="#000" stroke-width="1.4"/>
<line x1="93.5" y1="75.9" x2="85.5" y2="70.9" stroke="#000" stroke-width="1.4"/>
<line x1="113.5" y1="195.0" x2="121.5" y2="190.0" stroke="#000" stroke-width="1.4"/>
<line x1="113.5" y1="185.0" x2="121.5" y2="190.0" stroke="#000" stroke-width="1.4"/>
<circle cx="126.0" cy="70.9" r="2.5" fill="#000"/>
<circle cx="54.0" cy="70.9" r="2.5" fill="#000"/>
<text x="116.0" y="119.6" font-size="13" text-anchor="middle" font-weight="bold">A</text>
<text x="33.0" y="207.0" font-size="13" text-anchor="middle" font-weight="bold">B</text>
<text x="203.0" y="207.0" font-size="13" text-anchor="middle" font-weight="bold">C</text>
<text x="131.0" y="62.9" font-size="13" text-anchor="middle" font-weight="bold">P</text>
<text x="46.0" y="62.9" font-size="13" text-anchor="middle" font-weight="bold">Q</text>
<text x="64.1" y="100.0" font-size="12" text-anchor="middle">？</text>
<text x="90.0" y="63.1" font-size="12" text-anchor="middle">？</text>
<text x="82.7" y="161.5" font-size="11" text-anchor="middle">8cm</text>
<text x="123.2" y="101.9" font-size="11" text-anchor="middle">4cm</text>
<text x="117.0" y="206.8" font-size="11" text-anchor="middle">12cm</text>
<polygon points="373.0,54.8 385.0,150.0 481.0,150.0" fill="none" stroke="#000" stroke-width="1.6" stroke-linejoin="round"/>
<line x1="373.0" y1="54.8" x2="388.0" y2="173.8" stroke="#000" stroke-width="1.6"/>
<line x1="373.0" y1="54.8" x2="508.0" y2="173.8" stroke="#000" stroke-width="1.6"/>
<line x1="388.0" y1="173.8" x2="508.0" y2="173.8" stroke="#000" stroke-width="1.6"/>
<line x1="444.5" y1="178.8" x2="452.5" y2="173.8" stroke="#000" stroke-width="1.4"/>
<line x1="444.5" y1="168.8" x2="452.5" y2="173.8" stroke="#000" stroke-width="1.4"/>
<line x1="429.5" y1="155.0" x2="437.5" y2="150.0" stroke="#000" stroke-width="1.4"/>
<line x1="429.5" y1="145.0" x2="437.5" y2="150.0" stroke="#000" stroke-width="1.4"/>
<circle cx="388.0" cy="173.8" r="2.5" fill="#000"/>
<circle cx="508.0" cy="173.8" r="2.5" fill="#000"/>
<text x="365.0" y="48.8" font-size="13" text-anchor="middle" font-weight="bold">A</text>
<text x="371.0" y="152.0" font-size="13" text-anchor="middle" font-weight="bold">B</text>
<text x="488.0" y="141.0" font-size="13" text-anchor="middle" font-weight="bold">C</text>
<text x="382.0" y="192.8" font-size="13" text-anchor="middle" font-weight="bold">P</text>
<text x="522.0" y="186.8" font-size="13" text-anchor="middle" font-weight="bold">Q</text>
<text x="507.1" y="159.9" font-size="12" text-anchor="middle">？</text>
<text x="448.0" y="190.0" font-size="12" text-anchor="middle">？</text>
<text x="366.1" y="107.9" font-size="11" text-anchor="middle">8cm</text>
<text x="418.6" y="141.8" font-size="11" text-anchor="middle">8cm</text>
<text x="150.0" y="28.0" font-size="13" text-anchor="middle" font-weight="bold">例題1（P・QはAの反対側）</text>
<text x="480.0" y="28.0" font-size="13" text-anchor="middle" font-weight="bold">例題2（P・QはB・Cの外側）</text>
<text x="150.0" y="232.0" font-size="12" text-anchor="middle">AB=8cm，AP=4cm，AC=10cm，BC=12cm</text>
<text x="150.0" y="249.0" font-size="12" text-anchor="middle">PQ∥BC。AQとPQを求める（？）</text>
<text x="480.0" y="232.0" font-size="12" text-anchor="middle">AB=8cm，AP=10cm，AC=12cm，BC=8cm</text>
<text x="480.0" y="249.0" font-size="12" text-anchor="middle">PQ∥BC。AQとPQを求める（？）</text>
</svg>
