<svg xmlns="http://www.w3.org/2000/svg" viewBox="0 0 460 260">
<title>平行な3直線が2直線を切り取る線分の比</title>
<desc>【この図の意図】主概念＋例題1の図。AB:BC=A′B′:B′C′。【主要な数値・設定】間隔比2:3（=6:9）・斜線2本は傾き別（0.5 / −0.9）で比の不変を見せる。【AIに同じ種類の図を描かせるときの説明文】「平行な3直線が2直線を切り取る線分の比。主概念＋例題1の図。AB:BC=A′B′:B′C′。数値・設定: 間隔比2:3（=6:9）・斜線2本は傾き別（0.5 / −0.9）で比の不変を見せる。白黒印刷向けのシンプルな教材図（SVG）としてかいて。」——この説明文を生成AIに渡せば同型の図を描かせられる。数値を変えれば類題用の図も作れる。</desc>
<!-- L08_fig1_three_parallel_lines.svg | 平行な3直線が2直線を切り取る線分の比 -->
<!-- generated by assets_provenance/generate_figures.py on 2026-07-17 (docs/SPEC_figures.md準拠（内部規約の要旨は同SPECに反映済み）・SVG直接編集禁止/スクリプト改修で再生成) -->
<rect x="0" y="0" width="460" height="260" fill="#fff"/>
<line x1="30.0" y1="20.0" x2="421.0" y2="20.0" stroke="#000" stroke-width="1.6"/>
<line x1="394.0" y1="25.0" x2="402.0" y2="20.0" stroke="#000" stroke-width="1.4"/>
<line x1="394.0" y1="15.0" x2="402.0" y2="20.0" stroke="#000" stroke-width="1.4"/>
<text x="16.4" y="24.6" font-size="13" text-anchor="end">ℓ</text>
<line x1="30.0" y1="88.0" x2="421.0" y2="88.0" stroke="#000" stroke-width="1.6"/>
<line x1="394.0" y1="93.0" x2="402.0" y2="88.0" stroke="#000" stroke-width="1.4"/>
<line x1="394.0" y1="83.0" x2="402.0" y2="88.0" stroke="#000" stroke-width="1.4"/>
<text x="16.4" y="92.5" font-size="13" text-anchor="end">m</text>
<line x1="30.0" y1="190.0" x2="421.0" y2="190.0" stroke="#000" stroke-width="1.6"/>
<line x1="394.0" y1="195.0" x2="402.0" y2="190.0" stroke="#000" stroke-width="1.4"/>
<line x1="394.0" y1="185.0" x2="402.0" y2="190.0" stroke="#000" stroke-width="1.4"/>
<text x="16.4" y="194.6" font-size="13" text-anchor="end">n</text>
<line x1="87.8" y1="-0.4" x2="193.2" y2="210.4" stroke="#000" stroke-width="1.6"/>
<line x1="388.4" y1="-0.4" x2="198.6" y2="210.4" stroke="#000" stroke-width="1.6"/>
<circle cx="98.0" cy="20.0" r="2.5" fill="#000"/>
<text x="85.0" y="13.0" font-size="13" text-anchor="middle" font-weight="bold">A</text>
<circle cx="132.0" cy="88.0" r="2.5" fill="#000"/>
<text x="119.0" y="81.0" font-size="13" text-anchor="middle" font-weight="bold">B</text>
<circle cx="183.0" cy="190.0" r="2.5" fill="#000"/>
<text x="170.0" y="183.0" font-size="13" text-anchor="middle" font-weight="bold">C</text>
<circle cx="370.0" cy="20.0" r="2.5" fill="#000"/>
<text x="386.0" y="13.0" font-size="13" text-anchor="middle" font-weight="bold">A′</text>
<circle cx="308.8" cy="88.0" r="2.5" fill="#000"/>
<text x="324.8" y="81.0" font-size="13" text-anchor="middle" font-weight="bold">B′</text>
<circle cx="217.0" cy="190.0" r="2.5" fill="#000"/>
<text x="233.0" y="183.0" font-size="13" text-anchor="middle" font-weight="bold">C′</text>
<text x="85.0" y="58.0" font-size="13" text-anchor="middle">6cm</text>
<text x="127.5" y="143.0" font-size="13" text-anchor="middle">9cm</text>
<text x="369.4" y="58.0" font-size="13" text-anchor="middle">8cm</text>
<text x="292.9" y="143.0" font-size="13" text-anchor="middle">x cm</text>
<text x="230.0" y="232.0" font-size="12" text-anchor="middle">ℓ∥m∥n，AB=6cm，BC=9cm，A′B′=8cm，B′C′=x cm</text>
<text x="230.0" y="249.0" font-size="12" text-anchor="middle">（例題1: xを求める。対応は 6↔8，9↔x）</text>
</svg>
