<svg xmlns="http://www.w3.org/2000/svg" viewBox="0 0 380 246">
<title>中点連結定理（MN∥BC・MN=½BC）</title>
<desc>【この図の意図】例題1の図。中点2つ→平行と半分。【主要な数値・設定】B=(0,0),C=(14,0),A=(5,9)・M,Nは厳密中点。【AIに同じ種類の図を描かせるときの説明文】「中点連結定理（MN∥BC・MN=½BC）。例題1の図。中点2つ→平行と半分。数値・設定: B=(0,0),C=(14,0),A=(5,9)・M,Nは厳密中点。白黒印刷向けのシンプルな教材図（SVG）としてかいて。」——この説明文を生成AIに渡せば同型の図を描かせられる。数値を変えれば類題用の図も作れる。</desc>
<!-- L10_fig1_midsegment_theorem.svg | 中点連結定理（MN∥BC・MN=½BC） -->
<!-- generated by assets_provenance/generate_figures.py on 2026-07-17 (docs/SPEC_figures.md準拠（内部規約の要旨は同SPECに反映済み）・SVG直接編集禁止/スクリプト改修で再生成) -->
<rect x="0" y="0" width="380" height="246" fill="#fff"/>
<polygon points="150.0,15.0 55.0,186.0 321.0,186.0" fill="none" stroke="#000" stroke-width="1.6" stroke-linejoin="round"/>
<line x1="102.5" y1="100.5" x2="235.5" y2="100.5" stroke="#000" stroke-width="1.6"/>
<text x="146.7" y="4.9" font-size="13" text-anchor="middle" font-weight="bold">A</text>
<text x="41.4" y="197.0" font-size="13" text-anchor="middle" font-weight="bold">B</text>
<text x="335.0" y="196.0" font-size="13" text-anchor="middle" font-weight="bold">C</text>
<circle cx="102.5" cy="100.5" r="2.5" fill="#000"/>
<text x="88.5" y="105.0" font-size="13" text-anchor="middle" font-weight="bold">M</text>
<circle cx="235.5" cy="100.5" r="2.5" fill="#000"/>
<text x="249.5" y="105.0" font-size="13" text-anchor="middle" font-weight="bold">N</text>
<line x1="130.2" y1="59.9" x2="122.3" y2="55.6" stroke="#000" stroke-width="1.4"/>
<line x1="82.7" y1="145.4" x2="74.8" y2="141.1" stroke="#000" stroke-width="1.4"/>
<line x1="194.7" y1="53.3" x2="188.3" y2="59.7" stroke="#000" stroke-width="1.4"/>
<line x1="197.2" y1="55.8" x2="190.8" y2="62.2" stroke="#000" stroke-width="1.4"/>
<line x1="280.2" y1="138.8" x2="273.8" y2="145.2" stroke="#000" stroke-width="1.4"/>
<line x1="282.7" y1="141.3" x2="276.3" y2="147.7" stroke="#000" stroke-width="1.4"/>
<line x1="172.2" y1="105.5" x2="180.2" y2="100.5" stroke="#000" stroke-width="1.4"/>
<line x1="172.2" y1="95.5" x2="180.2" y2="100.5" stroke="#000" stroke-width="1.4"/>
<line x1="197.8" y1="191.0" x2="205.8" y2="186.0" stroke="#000" stroke-width="1.4"/>
<line x1="197.8" y1="181.0" x2="205.8" y2="186.0" stroke="#000" stroke-width="1.4"/>
<text x="188.0" y="206.2" font-size="12" text-anchor="middle">14cm</text>
<text x="145.1" y="90.7" font-size="12" text-anchor="middle">MN=？</text>
<text x="190.0" y="220.0" font-size="12" text-anchor="middle">M・NはそれぞれAB・ACの中点，BC=14cm</text>
<text x="190.0" y="237.0" font-size="12" text-anchor="middle">（例題1: MNを求める。同ティック=等長，矢羽=平行）</text>
</svg>
