<svg xmlns="http://www.w3.org/2000/svg" viewBox="0 0 430 235">
<title>中点四角形EFGH（対角線AC・BDは補助線）</title>
<desc>【この図の意図】主概念+例題の図。中点連結定理を対角線2本で2回使う構造。【主要な数値・設定】A(0,0),B(3,-4),C(12,0),D(10,√51−4)——AC=12・BD=10を厳密に満たす。【AIに同じ種類の図を描かせるときの説明文】「中点四角形EFGH（対角線AC・BDは補助線）。主概念+例題の図。中点連結定理を対角線2本で2回使う構造。数値・設定: A(0,0),B(3,-4),C(12,0),D(10,√51−4)——AC=12・BD=10を厳密に満たす。白黒印刷向けのシンプルな教材図（SVG）としてかいて。」——この説明文を生成AIに渡せば同型の図を描かせられる。数値を変えれば類題用の図も作れる。</desc>
<!-- L11_fig1_midpoint_quadrilateral.svg | 中点四角形EFGH（対角線AC・BDは補助線） -->
<!-- generated by assets_provenance/generate_figures.py on 2026-07-17 (docs/SPEC_figures.md準拠（内部規約の要旨は同SPECに反映済み）・SVG直接編集禁止/スクリプト改修で再生成) -->
<rect x="0" y="0" width="430" height="235" fill="#fff"/>
<polygon points="75.0,100.0 126.0,168.0 279.0,100.0 245.0,46.6" fill="none" stroke="#000" stroke-width="1.6" stroke-linejoin="round"/>
<line x1="75.0" y1="100.0" x2="279.0" y2="100.0" stroke="#000" stroke-width="1.1" stroke-dasharray="6 4"/>
<line x1="126.0" y1="168.0" x2="245.0" y2="46.6" stroke="#000" stroke-width="1.1" stroke-dasharray="6 4"/>
<polygon points="100.5,134.0 202.5,134.0 262.0,73.3 160.0,73.3" fill="none" stroke="#000" stroke-width="1.6" stroke-linejoin="round"/>
<text x="60.0" y="104.0" font-size="13" text-anchor="middle" font-weight="bold">A</text>
<text x="116.2" y="183.9" font-size="13" text-anchor="middle" font-weight="bold">B</text>
<text x="294.0" y="104.0" font-size="13" text-anchor="middle" font-weight="bold">C</text>
<text x="256.2" y="41.1" font-size="13" text-anchor="middle" font-weight="bold">D</text>
<circle cx="100.5" cy="134.0" r="2.5" fill="#000"/>
<text x="87.4" y="143.5" font-size="13" text-anchor="middle" font-weight="bold">E</text>
<circle cx="202.5" cy="134.0" r="2.5" fill="#000"/>
<text x="210.5" y="150.0" font-size="13" text-anchor="middle" font-weight="bold">F</text>
<circle cx="262.0" cy="73.3" r="2.5" fill="#000"/>
<text x="275.1" y="72.9" font-size="13" text-anchor="middle" font-weight="bold">G</text>
<circle cx="160.0" cy="73.3" r="2.5" fill="#000"/>
<text x="152.0" y="66.4" font-size="13" text-anchor="middle" font-weight="bold">H</text>
<text x="124.0" y="113.8" font-size="11" text-anchor="middle">12cm</text>
<text x="158.3" y="154.8" font-size="11" text-anchor="middle">10cm</text>
<text x="210.2" y="121.5" font-size="13" text-anchor="middle">周＝？</text>
<text x="215.0" y="201.0" font-size="12" text-anchor="middle">E・F・G・Hは各辺の中点。対角線AC=12cm，BD=10cm（破線＝補助線）</text>
<text x="215.0" y="218.0" font-size="12" text-anchor="middle">（例題: 中点四角形EFGHの周の長さを求める）</text>
</svg>
