<svg xmlns="http://www.w3.org/2000/svg" viewBox="0 0 420 268">
<title>方眼で数える面積比（相似比1:2→面積比1:4）</title>
<desc>【この図の意図】主概念1の対比ワーク図。予想「2倍」への反例を数え上げで見せる。【主要な数値・設定】A=3×2マス，B=6×4マス，縦だけ2倍=3×4マス（塗り分け=ハッチング/濃淡）。【AIに同じ種類の図を描かせるときの説明文】「方眼で数える面積比（相似比1:2→面積比1:4）。主概念1の対比ワーク図。予想「2倍」への反例を数え上げで見せる。数値・設定: A=3×2マス，B=6×4マス，縦だけ2倍=3×4マス（塗り分け=ハッチング/濃淡）。白黒印刷向けのシンプルな教材図（SVG）としてかいて。」——この説明文を生成AIに渡せば同型の図を描かせられる。数値を変えれば類題用の図も作れる。</desc>
<!-- L12_fig1_area_ratio_grid.svg | 方眼で数える面積比（相似比1:2→面積比1:4） -->
<!-- generated by assets_provenance/generate_figures.py on 2026-07-17 (docs/SPEC_figures.md準拠（内部規約の要旨は同SPECに反映済み）・SVG直接編集禁止/スクリプト改修で再生成) -->
<rect x="0" y="0" width="420" height="268" fill="#fff"/>
<defs><pattern id="h45" width="6" height="6" patternUnits="userSpaceOnUse" patternTransform="rotate(45)"><line x1="0" y1="0" x2="0" y2="6" stroke="#555" stroke-width="1.1"/></pattern><pattern id="h135" width="6" height="6" patternUnits="userSpaceOnUse" patternTransform="rotate(135)"><line x1="0" y1="0" x2="0" y2="6" stroke="#555" stroke-width="1.1"/></pattern></defs><line x1="30" y1="40" x2="30" y2="150" stroke="#bbb" stroke-width="0.6"/>
<line x1="52" y1="40" x2="52" y2="150" stroke="#bbb" stroke-width="0.6"/>
<line x1="74" y1="40" x2="74" y2="150" stroke="#bbb" stroke-width="0.6"/>
<line x1="96" y1="40" x2="96" y2="150" stroke="#bbb" stroke-width="0.6"/>
<line x1="118" y1="40" x2="118" y2="150" stroke="#bbb" stroke-width="0.6"/>
<line x1="140" y1="40" x2="140" y2="150" stroke="#bbb" stroke-width="0.6"/>
<line x1="162" y1="40" x2="162" y2="150" stroke="#bbb" stroke-width="0.6"/>
<line x1="184" y1="40" x2="184" y2="150" stroke="#bbb" stroke-width="0.6"/>
<line x1="206" y1="40" x2="206" y2="150" stroke="#bbb" stroke-width="0.6"/>
<line x1="228" y1="40" x2="228" y2="150" stroke="#bbb" stroke-width="0.6"/>
<line x1="250" y1="40" x2="250" y2="150" stroke="#bbb" stroke-width="0.6"/>
<line x1="272" y1="40" x2="272" y2="150" stroke="#bbb" stroke-width="0.6"/>
<line x1="294" y1="40" x2="294" y2="150" stroke="#bbb" stroke-width="0.6"/>
<line x1="316" y1="40" x2="316" y2="150" stroke="#bbb" stroke-width="0.6"/>
<line x1="338" y1="40" x2="338" y2="150" stroke="#bbb" stroke-width="0.6"/>
<line x1="360" y1="40" x2="360" y2="150" stroke="#bbb" stroke-width="0.6"/>
<line x1="30" y1="40" x2="360" y2="40" stroke="#bbb" stroke-width="0.6"/>
<line x1="30" y1="62" x2="360" y2="62" stroke="#bbb" stroke-width="0.6"/>
<line x1="30" y1="84" x2="360" y2="84" stroke="#bbb" stroke-width="0.6"/>
<line x1="30" y1="106" x2="360" y2="106" stroke="#bbb" stroke-width="0.6"/>
<line x1="30" y1="128" x2="360" y2="128" stroke="#bbb" stroke-width="0.6"/>
<line x1="30" y1="150" x2="360" y2="150" stroke="#bbb" stroke-width="0.6"/>
<rect x="30" y="106" width="66" height="44" fill="url(#h45)" stroke="#000" stroke-width="1.6"/>
<rect x="118" y="62" width="66" height="88" fill="url(#h135)" stroke="#000" stroke-width="1.6"/>
<rect x="206" y="62" width="132" height="88" fill="#ddd" stroke="#000" stroke-width="1.6"/>
<text x="63.0" y="170.0" font-size="12" text-anchor="middle" font-weight="bold">A：2×3＝6マス</text>
<text x="151.0" y="187.0" font-size="12" text-anchor="middle">縦だけ2倍：4×3＝12マス</text>
<text x="272.0" y="170.0" font-size="12" text-anchor="middle" font-weight="bold">B：4×6＝24マス</text>
<text x="210.0" y="24.0" font-size="14" text-anchor="middle" font-weight="bold">相似比1:2の長方形A・B——面積は何倍？</text>
<text x="210.0" y="209.0" font-size="12" text-anchor="middle">AとBは相似（相似比1:2）。面積比は 6:24＝1:4（＝1:2²）</text>
<text x="210.0" y="226.0" font-size="12" text-anchor="middle">「縦だけ2倍」は12マス＝2倍どまり——相似では縦も横も2倍になる</text>
</svg>
