<svg xmlns="http://www.w3.org/2000/svg" viewBox="0 0 500 268">
<title>相似な直方体P・Q（相似比1:2）</title>
<desc>【この図の意図】主概念1の図。立体の相似=全対応辺が同比。表面積計算（主概念2）の土台。【主要な数値・設定】P=2×3×4cm, Q=4×6×8cm（キャビネット投影・隠れ線は破線）。【AIに同じ種類の図を描かせるときの説明文】「相似な直方体P・Q（相似比1:2）。主概念1の図。立体の相似=全対応辺が同比。表面積計算（主概念2）の土台。数値・設定: P=2×3×4cm, Q=4×6×8cm（キャビネット投影・隠れ線は破線）。白黒印刷向けのシンプルな教材図（SVG）としてかいて。」——この説明文を生成AIに渡せば同型の図を描かせられる。数値を変えれば類題用の図も作れる。</desc>
<!-- L13_fig1_similar_cuboids.svg | 相似な直方体P・Q（相似比1:2） -->
<!-- generated by assets_provenance/generate_figures.py on 2026-07-17 (docs/SPEC_figures.md準拠（内部規約の要旨は同SPECに反映済み）・SVG直接編集禁止/スクリプト改修で再生成) -->
<rect x="0" y="0" width="500" height="268" fill="#fff"/>
<rect x="90.0" y="160.0" width="30.0" height="40.0" fill="none" stroke="#000" stroke-width="1.6"/>
<polygon points="90.0,160.0 97.1,152.9 127.1,152.9 120.0,160.0" fill="none" stroke="#000" stroke-width="1.6"/>
<polygon points="120.0,160.0 127.1,152.9 127.1,192.9 120.0,200.0" fill="none" stroke="#000" stroke-width="1.6"/>
<line x1="97.1" y1="192.9" x2="97.1" y2="152.9" stroke="#000" stroke-width="1.1" stroke-dasharray="6 4"/>
<line x1="97.1" y1="192.9" x2="90.0" y2="200.0" stroke="#000" stroke-width="1.1" stroke-dasharray="6 4"/>
<line x1="97.1" y1="192.9" x2="127.1" y2="192.9" stroke="#000" stroke-width="1.1" stroke-dasharray="6 4"/>
<text x="105.0" y="216.0" font-size="12" text-anchor="middle">横3cm</text>
<text x="84.0" y="184.0" font-size="12" text-anchor="end">高さ4cm</text>
<text x="129.5" y="208.5" font-size="12" text-anchor="start">縦2cm</text>
<text x="110.0" y="130.0" font-size="15" text-anchor="middle" font-weight="bold">P</text>
<rect x="280.0" y="120.0" width="60.0" height="80.0" fill="none" stroke="#000" stroke-width="1.6"/>
<polygon points="280.0,120.0 294.1,105.9 354.1,105.9 340.0,120.0" fill="none" stroke="#000" stroke-width="1.6"/>
<polygon points="340.0,120.0 354.1,105.9 354.1,185.9 340.0,200.0" fill="none" stroke="#000" stroke-width="1.6"/>
<line x1="294.1" y1="185.9" x2="294.1" y2="105.9" stroke="#000" stroke-width="1.1" stroke-dasharray="6 4"/>
<line x1="294.1" y1="185.9" x2="280.0" y2="200.0" stroke="#000" stroke-width="1.1" stroke-dasharray="6 4"/>
<line x1="294.1" y1="185.9" x2="354.1" y2="185.9" stroke="#000" stroke-width="1.1" stroke-dasharray="6 4"/>
<text x="310.0" y="216.0" font-size="12" text-anchor="middle">横6cm</text>
<text x="274.0" y="164.0" font-size="12" text-anchor="end">高さ8cm</text>
<text x="353.1" y="204.9" font-size="12" text-anchor="start">縦4cm</text>
<text x="315.0" y="90.0" font-size="15" text-anchor="middle" font-weight="bold">Q</text>
<text x="250.0" y="240.0" font-size="12" text-anchor="middle">直方体P（縦2×横3×高さ4cm）と直方体Q（縦4×横6×高さ8cm）</text>
<text x="250.0" y="257.0" font-size="12" text-anchor="middle">3組の辺の比がすべて等しい→相似比1:2。表面積の比は主概念2で確かめる</text>
</svg>
