<svg xmlns="http://www.w3.org/2000/svg" viewBox="0 0 430 260">
<title>積み木の数え上げ（1辺1cm→2cm）</title>
<desc>【この図の意図】主概念1の対比ワーク図。L12方眼の3次元版——高さの分だけ倍が増える。【主要な数値・設定】立方体1cm/2cm・継ぎ目線=見える3面の中央線（キャビネット投影）。【AIに同じ種類の図を描かせるときの説明文】「積み木の数え上げ（1辺1cm→2cm）。主概念1の対比ワーク図。L12方眼の3次元版——高さの分だけ倍が増える。数値・設定: 立方体1cm/2cm・継ぎ目線=見える3面の中央線（キャビネット投影）。白黒印刷向けのシンプルな教材図（SVG）としてかいて。」——この説明文を生成AIに渡せば同型の図を描かせられる。数値を変えれば類題用の図も作れる。</desc>
<!-- L14_fig1_volume_blocks.svg | 積み木の数え上げ（1辺1cm→2cm） -->
<!-- generated by assets_provenance/generate_figures.py on 2026-07-17 (docs/SPEC_figures.md準拠（内部規約の要旨は同SPECに反映済み）・SVG直接編集禁止/スクリプト改修で再生成) -->
<rect x="0" y="0" width="430" height="260" fill="#fff"/>
<rect x="80.0" y="148.0" width="32.0" height="32.0" fill="none" stroke="#000" stroke-width="1.6"/>
<polygon points="80.0,148.0 91.3,136.7 123.3,136.7 112.0,148.0" fill="none" stroke="#000" stroke-width="1.6"/>
<polygon points="112.0,148.0 123.3,136.7 123.3,168.7 112.0,180.0" fill="none" stroke="#000" stroke-width="1.6"/>
<text x="96.0" y="196.0" font-size="12" text-anchor="middle">1辺1cm（積み木）</text>
<rect x="230.0" y="116.0" width="64.0" height="64.0" fill="none" stroke="#000" stroke-width="1.6"/>
<polygon points="230.0,116.0 252.6,93.4 316.6,93.4 294.0,116.0" fill="none" stroke="#000" stroke-width="1.6"/>
<polygon points="294.0,116.0 316.6,93.4 316.6,157.4 294.0,180.0" fill="none" stroke="#000" stroke-width="1.6"/>
<line x1="262.0" y1="180.0" x2="262.0" y2="116.0" stroke="#000" stroke-width="0.9"/>
<line x1="230.0" y1="148.0" x2="294.0" y2="148.0" stroke="#000" stroke-width="0.9"/>
<line x1="262.0" y1="116.0" x2="284.6" y2="93.4" stroke="#000" stroke-width="0.9"/>
<line x1="241.3" y1="104.7" x2="305.3" y2="104.7" stroke="#000" stroke-width="0.9"/>
<line x1="294.0" y1="148.0" x2="316.6" y2="125.4" stroke="#000" stroke-width="0.9"/>
<line x1="305.3" y1="168.7" x2="305.3" y2="104.7" stroke="#000" stroke-width="0.9"/>
<text x="262.0" y="196.0" font-size="12" text-anchor="middle">1辺2cm（相似比1:2）</text>
<text x="215.0" y="30.0" font-size="14" text-anchor="middle" font-weight="bold">積み木で立方体を組む——主概念1</text>
<text x="215.0" y="222.0" font-size="12" text-anchor="middle">1辺2cmの立方体は，1辺1cmの積み木を縦2個×横2個×高さ2個</text>
<text x="215.0" y="239.0" font-size="12" text-anchor="middle">（導入: 体積は何倍になるか，数える前に予想を書く）</text>
</svg>
