<svg xmlns="http://www.w3.org/2000/svg" viewBox="0 0 400 282">
<title>縮図による測量①木の高さ（10m・35°・目の高さ1.5m）</title>
<desc>【この図の意図】主概念1の場面図。目の高さを最後に足す構造を可視化。【主要な数値・設定】D=10m, 角=35°, 目の高さ=1.5m（tanで先端座標を厳密計算・実寸比）。【AIに同じ種類の図を描かせるときの説明文】「縮図による測量①木の高さ（10m・35°・目の高さ1.5m）。主概念1の場面図。目の高さを最後に足す構造を可視化。数値・設定: D=10m, 角=35°, 目の高さ=1.5m（tanで先端座標を厳密計算・実寸比）。白黒印刷向けのシンプルな教材図（SVG）としてかいて。」——この説明文を生成AIに渡せば同型の図を描かせられる。数値を変えれば類題用の図も作れる。</desc>
<!-- L15_fig1_tree_height_survey.svg | 縮図による測量①木の高さ（10m・35°・目の高さ1.5m） -->
<!-- generated by assets_provenance/generate_figures.py on 2026-07-17 (docs/SPEC_figures.md準拠（内部規約の要旨は同SPECに反映済み）・SVG直接編集禁止/スクリプト改修で再生成) -->
<rect x="0" y="0" width="400" height="282" fill="#fff"/>
<line x1="15.2" y1="218.0" x2="305.6" y2="218.0" stroke="#000" stroke-width="1.6"/>
<line x1="46.0" y1="218.0" x2="46.0" y2="187.6" stroke="#000" stroke-width="1.6"/>
<circle cx="46.0" cy="181.0" r="5.5" fill="none" stroke="#000" stroke-width="1.4"/>
<circle cx="46.0" cy="185.0" r="2.2" fill="#000"/>
<line x1="266.0" y1="218.0" x2="266.0" y2="68.4" stroke="#000" stroke-width="3.2"/>
<polygon points="266.0,31.0 249.5,70.6 282.5,70.6" fill="none" stroke="#000" stroke-width="1.4" stroke-linejoin="round"/>
<line x1="46.0" y1="185.0" x2="266.0" y2="31.0" stroke="#000" stroke-width="1.1"/>
<line x1="46.0" y1="185.0" x2="266.0" y2="185.0" stroke="#000" stroke-width="1.1" stroke-dasharray="6 4"/>
<polyline points="257.0,185.0 257.0,176.0 266.0,176.0" fill="none" stroke="#000" stroke-width="1.2"/>
<polyline points="72.0,185.0 72.0,184.2 72.0,183.4 71.9,182.6 71.8,181.8 71.7,181.0 71.6,180.3 71.4,179.5 71.2,178.7 71.0,177.9 70.8,177.2 70.5,176.4 70.3,175.7 70.0,174.9 69.7,174.2 69.3,173.5 69.0,172.8 68.6,172.1 68.2,171.4 67.7,170.7 67.3,170.1" fill="none" stroke="#000" stroke-width="1.2"/>
<text x="80.1" y="171.4" font-size="13" text-anchor="middle">35°</text>
<text x="31.0" y="235.0" font-size="13" text-anchor="middle" font-weight="bold">P</text>
<text x="280.0" y="33.0" font-size="13" text-anchor="middle" font-weight="bold">A</text>
<line x1="46.0" y1="231.6" x2="266.0" y2="231.6" stroke="#000" stroke-width="0.9"/>
<line x1="46.0" y1="227.6" x2="46.0" y2="235.6" stroke="#000" stroke-width="0.9"/>
<line x1="266.0" y1="227.6" x2="266.0" y2="235.6" stroke="#000" stroke-width="0.9"/>
<text x="156.0" y="246.6" font-size="13" text-anchor="middle">10m</text>
<line x1="33.9" y1="218.0" x2="33.9" y2="185.0" stroke="#000" stroke-width="0.9"/>
<line x1="29.9" y1="218.0" x2="37.9" y2="218.0" stroke="#000" stroke-width="0.9"/>
<line x1="29.9" y1="185.0" x2="37.9" y2="185.0" stroke="#000" stroke-width="0.9"/>
<text x="33.9" y="194.3" font-size="13" text-anchor="middle"></text>
<text x="27.5" y="205.5" font-size="12" text-anchor="end">1.5m</text>
<line x1="291.3" y1="218.0" x2="291.3" y2="31.0" stroke="#000" stroke-width="0.9"/>
<line x1="287.3" y1="218.0" x2="295.3" y2="218.0" stroke="#000" stroke-width="0.9"/>
<line x1="287.3" y1="31.0" x2="295.3" y2="31.0" stroke="#000" stroke-width="0.9"/>
<text x="291.3" y="117.3" font-size="13" text-anchor="middle"></text>
<text x="297.3" y="124.5" font-size="12" text-anchor="start">木の高さ</text>
<text x="297.3" y="139.5" font-size="12" text-anchor="start">＝？</text>
<text x="200.0" y="262.0" font-size="12" text-anchor="middle">水平距離10m・見上げる角35°・目の高さ1.5m（主概念1・実寸比）</text>
<text x="200.0" y="279.0" font-size="12" text-anchor="middle">破線＝目の高さの水平線。縮図は目の高さから上の直角三角形で作る</text>
</svg>
