<svg xmlns="http://www.w3.org/2000/svg" viewBox="0 0 400 300">
<title>縮図による測量②池ごしの距離（18m・24m・60°）</title>
<desc>【この図の意図】主概念2の場面図。測れる2辺と間の角から縮図を作る構造。【主要な数値・設定】CA=18m, CB=24m, ∠C=60°（ABは余弦定理で検算・実寸比）。【AIに同じ種類の図を描かせるときの説明文】「縮図による測量②池ごしの距離（18m・24m・60°）。主概念2の場面図。測れる2辺と間の角から縮図を作る構造。数値・設定: CA=18m, CB=24m, ∠C=60°（ABは余弦定理で検算・実寸比）。白黒印刷向けのシンプルな教材図（SVG）としてかいて。」——この説明文を生成AIに渡せば同型の図を描かせられる。数値を変えれば類題用の図も作れる。</desc>
<!-- L15_fig2_pond_distance_survey.svg | 縮図による測量②池ごしの距離（18m・24m・60°） -->
<!-- generated by assets_provenance/generate_figures.py on 2026-07-17 (docs/SPEC_figures.md準拠（内部規約の要旨は同SPECに反映済み）・SVG直接編集禁止/スクリプト改修で再生成) -->
<rect x="0" y="0" width="400" height="300" fill="#fff"/>
<ellipse cx="200.1" cy="69.0" rx="87.4" ry="32.0" transform="rotate(-13.9 200.1 69.0)" fill="#e6e6e6" stroke="#888" stroke-width="1"/>
<text x="200.1" y="73.0" font-size="12" text-anchor="middle">池</text>
<line x1="186.0" y1="240.0" x2="101.4" y2="93.5" stroke="#000" stroke-width="1.6"/>
<line x1="186.0" y1="240.0" x2="298.8" y2="44.6" stroke="#000" stroke-width="1.6"/>
<line x1="101.4" y1="93.5" x2="298.8" y2="44.6" stroke="#000" stroke-width="1.1" stroke-dasharray="6 4"/>
<polyline points="176.0,222.7 176.9,222.2 177.9,221.7 178.8,221.3 179.8,221.0 180.8,220.7 181.8,220.4 182.9,220.2 183.9,220.1 185.0,220.0 186.0,220.0 187.0,220.0 188.1,220.1 189.1,220.2 190.2,220.4 191.2,220.7 192.2,221.0 193.2,221.3 194.1,221.7 195.1,222.2 196.0,222.7" fill="none" stroke="#000" stroke-width="1.2"/>
<text x="186.0" y="205.9" font-size="13" text-anchor="middle">60°</text>
<circle cx="101.4" cy="93.5" r="2.5" fill="#000"/>
<text x="87.4" y="98.0" font-size="13" text-anchor="middle" font-weight="bold">A</text>
<circle cx="298.8" cy="44.6" r="2.5" fill="#000"/>
<text x="313.8" y="49.1" font-size="13" text-anchor="middle" font-weight="bold">B</text>
<circle cx="186.0" cy="240.0" r="2.5" fill="#000"/>
<text x="186.0" y="262.5" font-size="13" text-anchor="middle" font-weight="bold">C</text>
<text x="115.5" y="163.4" font-size="13" text-anchor="middle">18m</text>
<text x="274.0" y="136.5" font-size="13" text-anchor="middle">24m</text>
<text x="202.1" y="33.0" font-size="13" text-anchor="middle">AB＝？</text>
<text x="200.0" y="276.0" font-size="12" text-anchor="middle">CA=18m，CB=24m，∠ACB=60°（主概念2・実寸比）</text>
<text x="200.0" y="293.0" font-size="12" text-anchor="middle">実線＝測った辺・破線＝求める距離。縮尺1/300の縮図をかいて求める</text>
</svg>
