<svg xmlns="http://www.w3.org/2000/svg" viewBox="0 0 440 258">
<title>読み取り誤差の拡大（縮尺1/200の縮図）</title>
<desc>【この図の意図】例題の場面図。縮図上の小さなずれが答えに拡大される構造（答は？）。【主要な数値・設定】水平5cm・35°・縦≈3.5cm（L15の縮図と同一）・ずれ0.1cmは誇張表示。【AIに同じ種類の図を描かせるときの説明文】「読み取り誤差の拡大（縮尺1/200の縮図）。例題の場面図。縮図上の小さなずれが答えに拡大される構造（答は？）。数値・設定: 水平5cm・35°・縦≈3.5cm（L15の縮図と同一）・ずれ0.1cmは誇張表示。白黒印刷向けのシンプルな教材図（SVG）としてかいて。」——この説明文を生成AIに渡せば同型の図を描かせられる。数値を変えれば類題用の図も作れる。</desc>
<!-- L16_fig1_reading_error_scale.svg | 読み取り誤差の拡大（縮尺1/200の縮図） -->
<!-- generated by assets_provenance/generate_figures.py on 2026-07-17 (docs/SPEC_figures.md準拠（内部規約の要旨は同SPECに反映済み）・SVG直接編集禁止/スクリプト改修で再生成) -->
<rect x="0" y="0" width="440" height="258" fill="#fff"/>
<polygon points="45,188 175.0,188 175.0,97.0" fill="none" stroke="#000" stroke-width="1.6"/>
<polyline points="166.0,188 166.0,179 175.0,179" fill="none" stroke="#000" stroke-width="1.2"/>
<polyline points="75.0,188.0 75.0,187.1 74.9,186.2 74.9,185.3 74.8,184.3 74.7,183.4 74.5,182.5 74.3,181.6 74.1,180.7 73.9,179.9 73.6,179.0 73.3,178.1 73.0,177.2 72.7,176.4 72.3,175.6 71.9,174.7 71.5,173.9 71.0,173.1 70.6,172.3 70.1,171.6 69.6,170.8" fill="none" stroke="#000" stroke-width="1.2"/>
<text x="87.0" y="178.0" font-size="13" text-anchor="middle">35°</text>
<text x="110.0" y="205.0" font-size="13" text-anchor="middle">5cm</text>
<text x="110.0" y="222.0" font-size="12" text-anchor="middle">縮尺 1/200 の縮図</text>
<text x="183.0" y="146.5" font-size="12" text-anchor="start">縦を読む</text>
<circle cx="175.0" cy="97.0" r="9" fill="none" stroke="#000" stroke-width="1.1" stroke-dasharray="6 4"/>
<circle cx="335" cy="90" r="42" fill="none" stroke="#000" stroke-width="1.1" stroke-dasharray="6 4"/>
<line x1="180.4" y1="89.8" x2="303.5" y2="62.3" stroke="#000" stroke-width="0.8" stroke-dasharray="2 3"/>
<line x1="180.4" y1="104.2" x2="303.5" y2="117.7" stroke="#000" stroke-width="0.8" stroke-dasharray="2 3"/>
<line x1="335" y1="126" x2="335" y2="80" stroke="#000" stroke-width="1.6"/>
<line x1="321" y1="80" x2="349" y2="80" stroke="#000" stroke-width="1.1"/>
<line x1="321" y1="64" x2="349" y2="64" stroke="#000" stroke-width="1.1" stroke-dasharray="6 4"/>
<line x1="355.0" y1="60.0" x2="355.0" y2="59.5" stroke="#000" stroke-width="1.0"/>
<polygon points="355.0,64.0 353.0,59.5 357.0,59.5" fill="#000"/>
<line x1="355.0" y1="84.0" x2="355.0" y2="84.5" stroke="#000" stroke-width="1.0"/>
<polygon points="355.0,80.0 357.0,84.5 353.0,84.5" fill="#000"/>
<text x="335.0" y="148.0" font-size="11" text-anchor="middle">読み取りのずれ 0.1cm</text>
<text x="340.0" y="178.0" font-size="13" text-anchor="middle">実際の長さでは</text>
<text x="340.0" y="196.0" font-size="13" text-anchor="middle" font-weight="bold">ずれ＝？</text>
<text x="220.0" y="246.0" font-size="12" text-anchor="middle">（例題: 0.1cmの読み違いは，実際の長さで何cmのずれになる？）</text>
</svg>
