<svg xmlns="http://www.w3.org/2000/svg" viewBox="0 0 420 240">
<title>統合演習の共通図（PQ∥BC）</title>
<desc>【この図の意図】問1〜5を1つの図で貫く章末の共通図。問う値はすべて？表記。【主要な数値・設定】AP=4,PB=2,AQ=6,BC=9,△APQ=12cm²（AC=9は比から従属決定）。【AIに同じ種類の図を描かせるときの説明文】「統合演習の共通図（PQ∥BC）。問1〜5を1つの図で貫く章末の共通図。問う値はすべて？表記。数値・設定: AP=4,PB=2,AQ=6,BC=9,△APQ=12cm²（AC=9は比から従属決定）。白黒印刷向けのシンプルな教材図（SVG）としてかいて。」——この説明文を生成AIに渡せば同型の図を描かせられる。数値を変えれば類題用の図も作れる。</desc>
<!-- L17_fig1_review_common_figure.svg | 統合演習の共通図（PQ∥BC） -->
<!-- generated by assets_provenance/generate_figures.py on 2026-07-17 (docs/SPEC_figures.md準拠（内部規約の要旨は同SPECに反映済み）・SVG直接編集禁止/スクリプト改修で再生成) -->
<rect x="0" y="0" width="420" height="240" fill="#fff"/>
<polygon points="138.0,29.2 90.0,165.0 306.0,165.0" fill="none" stroke="#000" stroke-width="1.6" stroke-linejoin="round"/>
<line x1="106.0" y1="119.7" x2="250.0" y2="119.7" stroke="#000" stroke-width="1.6"/>
<text x="131.9" y="20.1" font-size="13" text-anchor="middle" font-weight="bold">A</text>
<text x="76.7" y="176.4" font-size="13" text-anchor="middle" font-weight="bold">B</text>
<text x="320.1" y="174.6" font-size="13" text-anchor="middle" font-weight="bold">C</text>
<circle cx="106.0" cy="119.7" r="2.5" fill="#000"/>
<text x="92.0" y="124.3" font-size="13" text-anchor="middle" font-weight="bold">P</text>
<circle cx="250.0" cy="119.7" r="2.5" fill="#000"/>
<text x="264.0" y="124.3" font-size="13" text-anchor="middle" font-weight="bold">Q</text>
<line x1="188.9" y1="124.7" x2="196.9" y2="119.7" stroke="#000" stroke-width="1.4"/>
<line x1="188.9" y1="114.7" x2="196.9" y2="119.7" stroke="#000" stroke-width="1.4"/>
<line x1="216.1" y1="170.0" x2="224.1" y2="165.0" stroke="#000" stroke-width="1.4"/>
<line x1="216.1" y1="160.0" x2="224.1" y2="165.0" stroke="#000" stroke-width="1.4"/>
<text x="109.7" y="74.0" font-size="11" text-anchor="middle">4cm</text>
<text x="85.7" y="141.9" font-size="11" text-anchor="middle">2cm</text>
<text x="201.5" y="69.0" font-size="11" text-anchor="middle">6cm</text>
<text x="285.5" y="136.9" font-size="11" text-anchor="middle">？</text>
<text x="198.0" y="181.8" font-size="11" text-anchor="middle">9cm</text>
<text x="160.7" y="136.6" font-size="11" text-anchor="middle">？</text>
<text x="150.0" y="107.7" font-size="11" text-anchor="middle">12cm²</text>
<text x="210.0" y="205.0" font-size="12" text-anchor="middle">PQ∥BC，AP=4cm，PB=2cm，AQ=6cm，BC=9cm，△APQ=12cm²</text>
<text x="210.0" y="222.0" font-size="12" text-anchor="middle">（統合演習 問1〜5の共通図: 相似比・QC・PQ・△ABCの面積を求める）</text>
</svg>
