<svg xmlns="http://www.w3.org/2000/svg" viewBox="0 0 480 352" role="img">
<title>紹介の順序——モデル自己紹介の設計図（名前→出身・所属→好き→していること→ひとこと）</title>
<desc>L01導入の順序図。左に日本語ラベルの箱（名前→出身・所属→好きなこと→していること→ひとこと）を矢印でつなぎ、右に対応するモデル英文（架空の教員 Tanaka Yui の自己紹介）を1文ずつ並べる。最上段と最下段は破線枠で「あいさつ Hello, everyone.」「しめ Thank you.」。図の英文をつなぐと本文のモデルスクリプトと一字一句一致することを生成時に検算済み。英文本文はL01のレッスン本文のモデルスクリプトと同一（本文参照）。再現指示: 縦のフローチャート（日本語ラベル5箱＋下向き矢印）の右列に、本文のモデルスクリプトの英文を1文ずつ左揃えで配置し、冒頭あいさつ・末尾のしめだけ破線の角丸箱にする。白黒のみ・人物イラストなし。</desc>
<!-- L01_fig1_intro_order_flow.svg | 紹介の順序——モデル自己紹介の設計図（名前→出身・所属→好き→していること→ひとこと） -->
<!-- generated by assets_provenance/generate_figures.py on 2026-07-17 (docs/SPEC_figures.md準拠（内部規約の要旨は同SPECに反映済み）・AI再利用メタ情報つき・SVG直接編集禁止/スクリプト改修で再生成) -->
<rect x="0" y="0" width="480" height="352" fill="#fff"/>
<text x="240.0" y="26.0" font-size="14" text-anchor="middle" font-weight="bold">紹介の順序——モデルの設計図</text>
<rect x="158.0" y="30.0" width="132.5" height="28.0" rx="5" fill="none" stroke="#000" stroke-width="1.1" stroke-dasharray="6 4"/>
<text x="224.2" y="48.5" font-size="13" text-anchor="middle">Hello, everyone.</text>
<text x="304.5" y="48.0" font-size="10.5" text-anchor="start">あいさつ</text>
<rect x="34.0" y="78.0" width="104.0" height="28.0" rx="6" fill="none" stroke="#000" stroke-width="1.6"/>
<text x="86.0" y="96.5" font-size="13" text-anchor="middle" font-weight="bold">名前</text>
<line x1="86.0" y1="106.0" x2="86.0" y2="122.0" stroke="#000" stroke-width="1.4"/>
<line x1="86.0" y1="122.0" x2="82.9" y2="115.7" stroke="#000" stroke-width="1.4"/>
<line x1="86.0" y1="122.0" x2="89.1" y2="115.7" stroke="#000" stroke-width="1.4"/>
<text x="158.0" y="96.5" font-size="13" text-anchor="start">I&#x27;m Tanaka Yui.</text>
<rect x="34.0" y="122.0" width="104.0" height="28.0" rx="6" fill="none" stroke="#000" stroke-width="1.6"/>
<text x="86.0" y="140.5" font-size="13" text-anchor="middle" font-weight="bold">出身・所属</text>
<line x1="86.0" y1="150.0" x2="86.0" y2="166.0" stroke="#000" stroke-width="1.4"/>
<line x1="86.0" y1="166.0" x2="82.9" y2="159.7" stroke="#000" stroke-width="1.4"/>
<line x1="86.0" y1="166.0" x2="89.1" y2="159.7" stroke="#000" stroke-width="1.4"/>
<text x="158.0" y="140.5" font-size="13" text-anchor="start">I&#x27;m from Kagawa.</text>
<rect x="34.0" y="166.0" width="104.0" height="28.0" rx="6" fill="none" stroke="#000" stroke-width="1.6"/>
<text x="86.0" y="184.5" font-size="13" text-anchor="middle" font-weight="bold">好きなこと</text>
<line x1="86.0" y1="194.0" x2="86.0" y2="210.0" stroke="#000" stroke-width="1.4"/>
<line x1="86.0" y1="210.0" x2="82.9" y2="203.7" stroke="#000" stroke-width="1.4"/>
<line x1="86.0" y1="210.0" x2="89.1" y2="203.7" stroke="#000" stroke-width="1.4"/>
<text x="158.0" y="184.5" font-size="13" text-anchor="start">I like cooking,</text>
<rect x="34.0" y="210.0" width="104.0" height="28.0" rx="6" fill="none" stroke="#000" stroke-width="1.6"/>
<text x="86.0" y="228.5" font-size="13" text-anchor="middle" font-weight="bold">していること</text>
<line x1="86.0" y1="238.0" x2="86.0" y2="254.0" stroke="#000" stroke-width="1.4"/>
<line x1="86.0" y1="254.0" x2="82.9" y2="247.7" stroke="#000" stroke-width="1.4"/>
<line x1="86.0" y1="254.0" x2="89.1" y2="247.7" stroke="#000" stroke-width="1.4"/>
<text x="158.0" y="228.5" font-size="13" text-anchor="start">and I make curry every Sunday.</text>
<rect x="34.0" y="254.0" width="104.0" height="28.0" rx="6" fill="none" stroke="#000" stroke-width="1.6"/>
<text x="86.0" y="272.5" font-size="13" text-anchor="middle" font-weight="bold">ひとこと</text>
<text x="158.0" y="272.5" font-size="13" text-anchor="start">My curry is spicy!</text>
<rect x="158.0" y="296.0" width="88.8" height="28.0" rx="5" fill="none" stroke="#000" stroke-width="1.1" stroke-dasharray="6 4"/>
<text x="202.4" y="314.5" font-size="13" text-anchor="middle">Thank you.</text>
<text x="260.8" y="314.0" font-size="10.5" text-anchor="start">しめ</text>
<text x="240.0" y="344.0" font-size="10.5" text-anchor="middle">（モデル話者 Tanaka Yui は架空の教員。この順番だと、初めて聞く人にも像が結びやすい）</text>
</svg>
