<svg xmlns="http://www.w3.org/2000/svg" viewBox="0 0 480 330" role="img">
<title>-s/-es の音の仕分けチャート（分類前の6語と /s/・/z/・/ɪz/ の空の置き場＋保留）</title>
<desc>L04展開1の仕分けゲーム盤面図（分類前）。上部に分類前の動詞カード6枚（likes・wants・plays・lives・watches・teaches——本文の文字カードと一致）が並び、下に空の置き場3つ（/s/ すっと消える音・/z/ のどが震える音・/ɪz/ イズと聞こえる音）と破線の「保留」枠がある。どのカードがどの置き場に入るかは図に示さない（授業で耳で聞いて決める活動——結果の照合は解答編）。stretchの答えになる語は載せない。再現指示: 中央に動詞カードの小箱6つを2行で並べ、下向き矢印の先に発音記号と日本語ヒントだけを書いた空の枠3つ、下中央に破線の保留枠を描く。カードは枠の中に入れない。白黒のみ。</desc>
<!-- L04_fig1_sound_sorting_bins.svg | -s/-es の音の仕分けチャート（分類前の6語と /s/・/z/・/ɪz/ の空の置き場＋保留） -->
<!-- generated by assets_provenance/generate_figures.py on 2026-07-17 (docs/SPEC_figures.md準拠（内部規約の要旨は同SPECに反映済み）・AI再利用メタ情報つき・SVG直接編集禁止/スクリプト改修で再生成) -->
<rect x="0" y="0" width="480" height="330" fill="#fff"/>
<text x="240.0" y="26.0" font-size="14" text-anchor="middle" font-weight="bold">語尾の音で仕分けよう（3つの置き場）</text>
<text x="240.0" y="48.0" font-size="10.5" text-anchor="middle">動詞カード（まだ仕分けていない）</text>
<rect x="46.0" y="58.0" width="120.0" height="26.0" rx="5" fill="none" stroke="#000" stroke-width="1.1"/>
<text x="106.0" y="75.5" font-size="13" text-anchor="middle">likes</text>
<rect x="180.0" y="58.0" width="120.0" height="26.0" rx="5" fill="none" stroke="#000" stroke-width="1.1"/>
<text x="240.0" y="75.5" font-size="13" text-anchor="middle">wants</text>
<rect x="314.0" y="58.0" width="120.0" height="26.0" rx="5" fill="none" stroke="#000" stroke-width="1.1"/>
<text x="374.0" y="75.5" font-size="13" text-anchor="middle">plays</text>
<rect x="46.0" y="92.0" width="120.0" height="26.0" rx="5" fill="none" stroke="#000" stroke-width="1.1"/>
<text x="106.0" y="109.5" font-size="13" text-anchor="middle">lives</text>
<rect x="180.0" y="92.0" width="120.0" height="26.0" rx="5" fill="none" stroke="#000" stroke-width="1.1"/>
<text x="240.0" y="109.5" font-size="13" text-anchor="middle">watches</text>
<rect x="314.0" y="92.0" width="120.0" height="26.0" rx="5" fill="none" stroke="#000" stroke-width="1.1"/>
<text x="374.0" y="109.5" font-size="13" text-anchor="middle">teaches</text>
<line x1="240.0" y1="130.0" x2="240.0" y2="146.0" stroke="#000" stroke-width="1.4"/>
<line x1="240.0" y1="146.0" x2="236.9" y2="139.7" stroke="#000" stroke-width="1.4"/>
<line x1="240.0" y1="146.0" x2="243.1" y2="139.7" stroke="#000" stroke-width="1.4"/>
<text x="258.0" y="141.0" font-size="10.5" text-anchor="start">耳で聞いて決める</text>
<rect x="26.0" y="152.0" width="132.0" height="96.0" rx="8" fill="none" stroke="#000" stroke-width="2.0"/>
<text x="92.0" y="178.0" font-size="17" text-anchor="middle" font-weight="bold">/s/</text>
<text x="92.0" y="198.0" font-size="10.5" text-anchor="middle">すっと消える音</text>
<line x1="38.0" y1="208.0" x2="146.0" y2="208.0" stroke="#888" stroke-width="0.8"/>
<text x="92.0" y="230.0" font-size="10" text-anchor="middle" fill="#888">（ここに置く）</text>
<rect x="174.0" y="152.0" width="132.0" height="96.0" rx="8" fill="none" stroke="#000" stroke-width="2.0"/>
<text x="240.0" y="178.0" font-size="17" text-anchor="middle" font-weight="bold">/z/</text>
<text x="240.0" y="198.0" font-size="10.5" text-anchor="middle">のどが震える音</text>
<line x1="186.0" y1="208.0" x2="294.0" y2="208.0" stroke="#888" stroke-width="0.8"/>
<text x="240.0" y="230.0" font-size="10" text-anchor="middle" fill="#888">（ここに置く）</text>
<rect x="322.0" y="152.0" width="132.0" height="96.0" rx="8" fill="none" stroke="#000" stroke-width="2.0"/>
<text x="388.0" y="178.0" font-size="17" text-anchor="middle" font-weight="bold">/ɪz/</text>
<text x="388.0" y="198.0" font-size="10.5" text-anchor="middle">イズと聞こえる音</text>
<line x1="334.0" y1="208.0" x2="442.0" y2="208.0" stroke="#888" stroke-width="0.8"/>
<text x="388.0" y="230.0" font-size="10" text-anchor="middle" fill="#888">（ここに置く）</text>
<rect x="132.0" y="262.0" width="216.0" height="36.0" rx="8" fill="none" stroke="#000" stroke-width="1.1" stroke-dasharray="6 4"/>
<text x="240.0" y="278.0" font-size="12" text-anchor="middle" font-weight="bold">保留（迷った語はここへ）</text>
<text x="240.0" y="292.0" font-size="10.5" text-anchor="middle">→ あとでもう一度声に出して聞き直す</text>
<text x="240.0" y="320.0" font-size="10.5" text-anchor="middle">（耳で決める→理由をつぶやく。のどに指を当てると /s/ と /z/ を自分で判定できる）</text>
</svg>
