<svg xmlns="http://www.w3.org/2000/svg" viewBox="0 0 480 330" role="img">
<title>-s/-es 3つの音の判定順フローチャート（まずシューッ→次に響き→残りは/s/）</title>
<desc>L04「ここでの説明」のフローチャート。開始箱「動詞の最後の音を声に出す」から、判定順に3段: まず「シューッと終わる語？（例: watch・teach）」→はいなら /ɪz/（綴りは多くが -es）、次に「響いて終わる語？（例: play・live）」→はいなら /z/（綴りは -s）、残りは「静かに終わる語（例: like・want）」で /s/（綴りは -s）。下部の注記に watch→watches・use→uses・study→studies（発展の窓）の綴り例。判定順・例語とも本文と一致（検算済み）。再現指示: 縦に並ぶ質問箱3つと右の結果箱3つを「はい」矢印で結び、いいえは下の質問へ落とす。順序を示す「まず／次に／残りは」を左に添える。白黒のみ。</desc>
<!-- L04_fig2_ses_decision_flow.svg | -s/-es 3つの音の判定順フローチャート（まずシューッ→次に響き→残りは/s/） -->
<!-- generated by assets_provenance/generate_figures.py on 2026-07-17 (docs/SPEC_figures.md準拠（内部規約の要旨は同SPECに反映済み）・AI再利用メタ情報つき・SVG直接編集禁止/スクリプト改修で再生成) -->
<rect x="0" y="0" width="480" height="330" fill="#fff"/>
<text x="240.0" y="26.0" font-size="14" text-anchor="middle" font-weight="bold">どの音になる？——判定は この順番 で</text>
<rect x="130.0" y="42.0" width="220.0" height="30.0" rx="8" fill="none" stroke="#000" stroke-width="1.6"/>
<text x="240.0" y="62.0" font-size="13" text-anchor="middle">動詞の最後の音を声に出す</text>
<rect x="60.0" y="90.0" width="230.0" height="46.0" rx="8" fill="none" stroke="#000" stroke-width="1.6"/>
<text x="175.0" y="109.0" font-size="13" text-anchor="middle" font-weight="bold">シューッと終わる語？</text>
<text x="175.0" y="126.0" font-size="10.5" text-anchor="middle">（例: watch・teach）</text>
<text x="52.0" y="117.0" font-size="12" text-anchor="end" font-weight="bold">まず</text>
<rect x="356.0" y="92.0" width="96.0" height="42.0" rx="8" fill="none" stroke="#000" stroke-width="2.4"/>
<text x="404.0" y="110.0" font-size="16" text-anchor="middle" font-weight="bold">/ɪz/</text>
<text x="404.0" y="126.0" font-size="10" text-anchor="middle">綴りは多くが -es</text>
<line x1="290.0" y1="113.0" x2="352.0" y2="113.0" stroke="#000" stroke-width="1.4"/>
<line x1="352.0" y1="113.0" x2="345.7" y2="116.1" stroke="#000" stroke-width="1.4"/>
<line x1="352.0" y1="113.0" x2="345.7" y2="109.9" stroke="#000" stroke-width="1.4"/>
<text x="323.0" y="105.0" font-size="10.5" text-anchor="middle">はい</text>
<line x1="175.0" y1="136.0" x2="175.0" y2="166.0" stroke="#000" stroke-width="1.4"/>
<line x1="175.0" y1="166.0" x2="171.9" y2="159.7" stroke="#000" stroke-width="1.4"/>
<line x1="175.0" y1="166.0" x2="178.1" y2="159.7" stroke="#000" stroke-width="1.4"/>
<text x="201.0" y="154.0" font-size="10.5" text-anchor="middle">いいえ</text>
<rect x="60.0" y="166.0" width="230.0" height="46.0" rx="8" fill="none" stroke="#000" stroke-width="1.6"/>
<text x="175.0" y="185.0" font-size="13" text-anchor="middle" font-weight="bold">響いて終わる語？</text>
<text x="175.0" y="202.0" font-size="10.5" text-anchor="middle">（例: play・live）</text>
<text x="52.0" y="193.0" font-size="12" text-anchor="end" font-weight="bold">次に</text>
<rect x="356.0" y="168.0" width="96.0" height="42.0" rx="8" fill="none" stroke="#000" stroke-width="2.4"/>
<text x="404.0" y="186.0" font-size="16" text-anchor="middle" font-weight="bold">/z/</text>
<text x="404.0" y="202.0" font-size="10" text-anchor="middle">綴りは -s</text>
<line x1="290.0" y1="189.0" x2="352.0" y2="189.0" stroke="#000" stroke-width="1.4"/>
<line x1="352.0" y1="189.0" x2="345.7" y2="192.1" stroke="#000" stroke-width="1.4"/>
<line x1="352.0" y1="189.0" x2="345.7" y2="185.9" stroke="#000" stroke-width="1.4"/>
<text x="323.0" y="181.0" font-size="10.5" text-anchor="middle">はい</text>
<line x1="175.0" y1="212.0" x2="175.0" y2="242.0" stroke="#000" stroke-width="1.4"/>
<line x1="175.0" y1="242.0" x2="171.9" y2="235.7" stroke="#000" stroke-width="1.4"/>
<line x1="175.0" y1="242.0" x2="178.1" y2="235.7" stroke="#000" stroke-width="1.4"/>
<text x="201.0" y="230.0" font-size="10.5" text-anchor="middle">いいえ</text>
<rect x="60.0" y="242.0" width="230.0" height="46.0" rx="8" fill="none" stroke="#000" stroke-width="1.6"/>
<text x="175.0" y="261.0" font-size="13" text-anchor="middle" font-weight="bold">静かに終わる語なら…</text>
<text x="175.0" y="278.0" font-size="10.5" text-anchor="middle">（例: like・want）</text>
<text x="52.0" y="269.0" font-size="12" text-anchor="end" font-weight="bold">残りは</text>
<rect x="356.0" y="244.0" width="96.0" height="42.0" rx="8" fill="none" stroke="#000" stroke-width="2.4"/>
<text x="404.0" y="262.0" font-size="16" text-anchor="middle" font-weight="bold">/s/</text>
<text x="404.0" y="278.0" font-size="10" text-anchor="middle">綴りは -s</text>
<line x1="290.0" y1="265.0" x2="352.0" y2="265.0" stroke="#000" stroke-width="1.4"/>
<line x1="352.0" y1="265.0" x2="345.7" y2="268.1" stroke="#000" stroke-width="1.4"/>
<line x1="352.0" y1="265.0" x2="345.7" y2="261.9" stroke="#000" stroke-width="1.4"/>
<line x1="240.0" y1="72.0" x2="240.0" y2="86.0" stroke="#000" stroke-width="1.4"/>
<line x1="240.0" y1="86.0" x2="236.9" y2="79.7" stroke="#000" stroke-width="1.4"/>
<line x1="240.0" y1="86.0" x2="243.1" y2="79.7" stroke="#000" stroke-width="1.4"/>
<text x="240.0" y="306.0" font-size="10.5" text-anchor="middle">綴りは音の記録: 多くは -s、/ɪz/ の仲間は多くが -es（watch → watches）。</text>
<text x="240.0" y="321.0" font-size="10.5" text-anchor="middle">e で終わる語は s を足すだけ（use → uses）。発展の窓: study → studies（y → ies）</text>
</svg>
