<svg xmlns="http://www.w3.org/2000/svg" viewBox="0 0 480 352" role="img">
<title>does の「仕事の引き受け」箱図（-s はどこへ行った？）</title>
<desc>L05展開2の文構造の箱図。上段は She plays the flute. を単語の箱で並べ、動詞の -s を小さな太枠で独立させる。その -s から疑問文 Does she play the flute? の Does へ弧の矢印を引き「合図の仕事を does が引き受ける」「動詞は元の形にもどる」と注記。下段は He makes breakfast. → He doesn&#x27;t make breakfast. で同じ引き受けを示し「合図は1つの動詞に1つ」と添える。例文は本文の対比ペアと一致（検算済み）。再現指示: 単語ごとの角丸箱の列を上下に並べ、肯定文の -s 箱から疑問・否定文の does/doesn&#x27;t 箱へ弧矢印を引く。does/doesn&#x27;t と -s だけ太枠にする。白黒のみ。</desc>
<!-- L05_fig1_does_takeover.svg | does の「仕事の引き受け」箱図（-s はどこへ行った？） -->
<!-- generated by assets_provenance/generate_figures.py on 2026-07-17 (docs/SPEC_figures.md準拠（内部規約の要旨は同SPECに反映済み）・AI再利用メタ情報つき・SVG直接編集禁止/スクリプト改修で再生成) -->
<rect x="0" y="0" width="480" height="352" fill="#fff"/>
<text x="240.0" y="26.0" font-size="14" text-anchor="middle" font-weight="bold">-s はどこへ行った？——does が仕事を引き受ける</text>
<rect x="40.0" y="58.0" width="33.8" height="24.0" rx="5" fill="none" stroke="#000" stroke-width="1.6"/>
<text x="56.9" y="74.4" font-size="13" text-anchor="middle">She</text>
<rect x="79.8" y="58.0" width="41.1" height="24.0" rx="5" fill="none" stroke="#000" stroke-width="1.6"/>
<text x="100.4" y="74.4" font-size="13" text-anchor="middle">play</text>
<rect x="122.0" y="58.0" width="15.3" height="24.0" rx="5" fill="none" stroke="#000" stroke-width="2.4"/>
<text x="129.6" y="74.4" font-size="13" text-anchor="middle" font-weight="bold">s</text>
<rect x="143.2" y="58.0" width="84.8" height="24.0" rx="5" fill="none" stroke="#000" stroke-width="1.6"/>
<text x="185.6" y="74.4" font-size="13" text-anchor="middle">the flute.</text>
<text x="40.0" y="44.0" font-size="10.5" text-anchor="start">ふつうの文</text>
<rect x="40.0" y="128.0" width="41.1" height="24.0" rx="5" fill="none" stroke="#000" stroke-width="2.4"/>
<text x="60.6" y="144.4" font-size="13" text-anchor="middle" font-weight="bold">Does</text>
<rect x="87.1" y="128.0" width="33.8" height="24.0" rx="5" fill="none" stroke="#000" stroke-width="1.6"/>
<text x="104.0" y="144.4" font-size="13" text-anchor="middle">she</text>
<rect x="127.0" y="128.0" width="41.1" height="24.0" rx="5" fill="none" stroke="#000" stroke-width="1.6"/>
<text x="147.5" y="144.4" font-size="13" text-anchor="middle">play</text>
<rect x="174.1" y="128.0" width="84.8" height="24.0" rx="5" fill="none" stroke="#000" stroke-width="1.6"/>
<text x="216.5" y="144.4" font-size="13" text-anchor="middle">the flute?</text>
<text x="40.0" y="178.0" font-size="10.5" text-anchor="start">質問の文</text>
<polyline points="129.6,84.0 139.9,85.8 149.1,87.5 157.2,89.2 164.2,91.0 170.1,92.8 174.9,94.5 178.6,96.2 181.3,98.0 182.8,99.8 183.2,101.5 182.6,103.3 180.8,105.0 178.0,106.8 174.1,108.5 169.0,110.2 162.9,112.0 155.7,113.8 147.4,115.5 138.0,117.2 127.5,119.0 115.9,120.8 103.2,122.5 89.4,124.3 74.6,126.0" fill="none" stroke="#000" stroke-width="1.8"/>
<line x1="74.6" y1="126.0" x2="80.4" y2="122.2" stroke="#000" stroke-width="1.8"/>
<line x1="74.6" y1="126.0" x2="81.2" y2="128.3" stroke="#000" stroke-width="1.8"/>
<text x="259.6" y="100.0" font-size="10.5" text-anchor="start">合図の仕事を does が引き受ける</text>
<text x="147.5" y="168.0" font-size="10.5" text-anchor="middle">↑ 動詞は元の形にもどる</text>
<rect x="40.0" y="224.0" width="26.6" height="24.0" rx="5" fill="none" stroke="#000" stroke-width="1.6"/>
<text x="53.3" y="240.4" font-size="13" text-anchor="middle">He</text>
<rect x="72.6" y="224.0" width="41.1" height="24.0" rx="5" fill="none" stroke="#000" stroke-width="1.6"/>
<text x="93.1" y="240.4" font-size="13" text-anchor="middle">make</text>
<rect x="114.7" y="224.0" width="15.3" height="24.0" rx="5" fill="none" stroke="#000" stroke-width="2.4"/>
<text x="122.3" y="240.4" font-size="13" text-anchor="middle" font-weight="bold">s</text>
<rect x="136.0" y="224.0" width="84.8" height="24.0" rx="5" fill="none" stroke="#000" stroke-width="1.6"/>
<text x="178.4" y="240.4" font-size="13" text-anchor="middle">breakfast.</text>
<rect x="40.0" y="292.0" width="26.6" height="24.0" rx="5" fill="none" stroke="#000" stroke-width="1.6"/>
<text x="53.3" y="308.4" font-size="13" text-anchor="middle">He</text>
<rect x="72.6" y="292.0" width="63.0" height="24.0" rx="5" fill="none" stroke="#000" stroke-width="2.4"/>
<text x="104.0" y="308.4" font-size="13" text-anchor="middle" font-weight="bold">doesn&#x27;t</text>
<rect x="141.5" y="292.0" width="41.1" height="24.0" rx="5" fill="none" stroke="#000" stroke-width="1.6"/>
<text x="162.1" y="308.4" font-size="13" text-anchor="middle">make</text>
<rect x="188.6" y="292.0" width="84.8" height="24.0" rx="5" fill="none" stroke="#000" stroke-width="1.6"/>
<text x="231.0" y="308.4" font-size="13" text-anchor="middle">breakfast.</text>
<text x="40.0" y="210.0" font-size="10.5" text-anchor="start">ふつうの文</text>
<text x="40.0" y="337.0" font-size="10.5" text-anchor="start">否定の文</text>
<polyline points="122.3,250.0 131.9,251.7 140.6,253.3 148.4,255.0 155.4,256.7 161.5,258.3 166.8,260.0 171.2,261.7 174.7,263.3 177.4,265.0 179.2,266.7 180.2,268.3 180.2,270.0 179.5,271.7 177.8,273.3 175.3,275.0 172.0,276.7 167.7,278.3 162.7,280.0 156.7,281.7 149.9,283.3 142.2,285.0 133.7,286.7 124.3,288.3 114.0,290.0" fill="none" stroke="#000" stroke-width="1.8"/>
<line x1="114.0" y1="290.0" x2="119.8" y2="286.0" stroke="#000" stroke-width="1.8"/>
<line x1="114.0" y1="290.0" x2="120.7" y2="292.0" stroke="#000" stroke-width="1.8"/>
<text x="244.3" y="268.0" font-size="10.5" text-anchor="start">合図は1つの動詞に1つ</text>
</svg>
