<svg xmlns="http://www.w3.org/2000/svg" viewBox="0 0 480 240" role="img">
<title>do / does の相棒選び図（主語で決まる）</title>
<desc>L05「ここでの説明」の整理図。上段: 主語が he／she／1人の名前（Sora など）→ 相棒は does。下段: 主語が I／you／2人以上（they など）→ 相棒は do。矢印に「相棒」、下に「することの文（一般動詞）の質問・否定で使う」と注記。対応は本文説明と一致（検算済み）。再現指示: 主語グループの角丸箱2つから右の太枠箱（does／do）へ矢印を引くだけの2行の対応図。白黒のみ。</desc>
<!-- L05_fig2_do_does_partner.svg | do / does の相棒選び図（主語で決まる） -->
<!-- generated by assets_provenance/generate_figures.py on 2026-07-17 (docs/SPEC_figures.md準拠（内部規約の要旨は同SPECに反映済み）・AI再利用メタ情報つき・SVG直接編集禁止/スクリプト改修で再生成) -->
<rect x="0" y="0" width="480" height="240" fill="#fff"/>
<text x="240.0" y="28.0" font-size="14" text-anchor="middle" font-weight="bold">質問・否定の「相棒」は主語で決まる</text>
<rect x="40.0" y="66.0" width="268.0" height="48.0" rx="8" fill="none" stroke="#000" stroke-width="1.6"/>
<text x="174.0" y="88.0" font-size="10.5" text-anchor="middle">主語が</text>
<text x="174.0" y="105.0" font-size="13" text-anchor="middle" font-weight="bold">he ／ she ／ 1人の名前（Sora など）</text>
<line x1="308.0" y1="90.0" x2="358.0" y2="90.0" stroke="#000" stroke-width="1.8"/>
<line x1="358.0" y1="90.0" x2="351.7" y2="93.1" stroke="#000" stroke-width="1.8"/>
<line x1="358.0" y1="90.0" x2="351.7" y2="86.9" stroke="#000" stroke-width="1.8"/>
<text x="333.0" y="80.0" font-size="10.5" text-anchor="middle">相棒</text>
<rect x="362.0" y="70.0" width="84.0" height="40.0" rx="8" fill="none" stroke="#000" stroke-width="2.4"/>
<text x="404.0" y="96.0" font-size="17" text-anchor="middle" font-weight="bold">does</text>
<rect x="40.0" y="140.0" width="268.0" height="48.0" rx="8" fill="none" stroke="#000" stroke-width="1.6"/>
<text x="174.0" y="162.0" font-size="10.5" text-anchor="middle">主語が</text>
<text x="174.0" y="179.0" font-size="13" text-anchor="middle" font-weight="bold">I ／ you ／ 2人以上（they など）</text>
<line x1="308.0" y1="164.0" x2="358.0" y2="164.0" stroke="#000" stroke-width="1.8"/>
<line x1="358.0" y1="164.0" x2="351.7" y2="167.1" stroke="#000" stroke-width="1.8"/>
<line x1="358.0" y1="164.0" x2="351.7" y2="160.9" stroke="#000" stroke-width="1.8"/>
<text x="333.0" y="154.0" font-size="10.5" text-anchor="middle">相棒</text>
<rect x="362.0" y="144.0" width="84.0" height="40.0" rx="8" fill="none" stroke="#000" stroke-width="2.4"/>
<text x="404.0" y="170.0" font-size="17" text-anchor="middle" font-weight="bold">do</text>
<text x="240.0" y="226.0" font-size="10.5" text-anchor="middle">（することの文（一般動詞）の質問・否定で使う。相棒選びは主語で決まる）</text>
</svg>
