<svg xmlns="http://www.w3.org/2000/svg" viewBox="0 0 500 356" role="img">
<title>誌上インタビュー→メモ（語句だけ）→He/She に組み替えて発表の流れ図</title>
<desc>L06の手順フロー図。①誌上インタビュー: 吹き出し2つで Do you like the stars?（質問役）と Yes, I do. I like the stars.（本人役は I で答える）。②メモ: 破線チップで science club／stars／telescope——語句・絵だけで文を書かない。③発表: This is Haruto. He likes the stars, ... と、順序ガイドの帯（名前→関係・所属→すること・好きなこと→ひとこと）。②の語句と③の英文は本文のモデル発表・種明かしと一致（検算済み）。再現指示: 縦3段の角丸箱を矢印でつなぎ、1段目に吹き出し2つ、2段目に語句チップ3つ、3段目に発表文と順序帯を置く。矢印脇に「主語を He に替えて（-s の合図）」。白黒のみ。</desc>
<!-- L06_fig2_interview_to_intro_flow.svg | 誌上インタビュー→メモ（語句だけ）→He/She に組み替えて発表の流れ図 -->
<!-- generated by assets_provenance/generate_figures.py on 2026-07-17 (docs/SPEC_figures.md準拠（内部規約の要旨は同SPECに反映済み）・AI再利用メタ情報つき・SVG直接編集禁止/スクリプト改修で再生成) -->
<rect x="0" y="0" width="500" height="356" fill="#fff"/>
<text x="250.0" y="26.0" font-size="14" text-anchor="middle" font-weight="bold">誌上インタビューから発表まで（メモは語句だけ）</text>
<rect x="30.0" y="46.0" width="440.0" height="92.0" rx="8" fill="none" stroke="#000" stroke-width="1.6"/>
<text x="40.0" y="64.0" font-size="12" text-anchor="start" font-weight="bold">① 誌上インタビュー（一人二役）</text>
<rect x="46.0" y="74.0" width="178.2" height="28.0" rx="9" fill="none" stroke="#000" stroke-width="1.6"/>
<line x1="80.2" y1="102.0" x2="85.2" y2="120.0" stroke="#000" stroke-width="1.6"/>
<line x1="92.2" y1="102.0" x2="85.2" y2="120.0" stroke="#000" stroke-width="1.6"/>
<polygon points="81.2,101.0 91.2,101.0 85.2,120.0" fill="#fff" stroke="none"/>
<text x="135.1" y="92.0" font-size="13" text-anchor="middle">Do you like the stars?</text>
<text x="97.2" y="130.0" font-size="10.5" text-anchor="middle">質問役</text>
<rect x="232.2" y="74.0" width="221.8" height="28.0" rx="9" fill="none" stroke="#000" stroke-width="1.6"/>
<line x1="276.0" y1="102.0" x2="281.0" y2="120.0" stroke="#000" stroke-width="1.6"/>
<line x1="288.0" y1="102.0" x2="281.0" y2="120.0" stroke="#000" stroke-width="1.6"/>
<polygon points="277.0,101.0 287.0,101.0 281.0,120.0" fill="#fff" stroke="none"/>
<text x="343.1" y="92.0" font-size="13" text-anchor="middle">Yes, I do. I like the stars.</text>
<text x="303.0" y="130.0" font-size="10.5" text-anchor="middle">本人役は I で答える</text>
<line x1="250.0" y1="138.0" x2="250.0" y2="158.0" stroke="#000" stroke-width="1.6"/>
<line x1="250.0" y1="158.0" x2="246.9" y2="151.7" stroke="#000" stroke-width="1.6"/>
<line x1="250.0" y1="158.0" x2="253.1" y2="151.7" stroke="#000" stroke-width="1.6"/>
<rect x="100.0" y="162.0" width="300.0" height="56.0" rx="8" fill="none" stroke="#000" stroke-width="1.6"/>
<text x="110.0" y="180.0" font-size="12" text-anchor="start" font-weight="bold">② メモは語句・絵だけ（文を書かない）</text>
<rect x="120.0" y="188.0" width="103.4" height="22.0" rx="4" fill="none" stroke="#000" stroke-width="1.1" stroke-dasharray="4 3"/>
<text x="171.7" y="203.0" font-size="12" text-anchor="middle">science club</text>
<rect x="237.4" y="188.0" width="52.4" height="22.0" rx="4" fill="none" stroke="#000" stroke-width="1.1" stroke-dasharray="4 3"/>
<text x="263.6" y="203.0" font-size="12" text-anchor="middle">stars</text>
<rect x="303.8" y="188.0" width="81.5" height="22.0" rx="4" fill="none" stroke="#000" stroke-width="1.1" stroke-dasharray="4 3"/>
<text x="344.5" y="203.0" font-size="12" text-anchor="middle">telescope</text>
<line x1="250.0" y1="218.0" x2="250.0" y2="238.0" stroke="#000" stroke-width="1.6"/>
<line x1="250.0" y1="238.0" x2="246.9" y2="231.7" stroke="#000" stroke-width="1.6"/>
<line x1="250.0" y1="238.0" x2="253.1" y2="231.7" stroke="#000" stroke-width="1.6"/>
<text x="262.0" y="232.0" font-size="10.5" text-anchor="start">主語を He に替えて（-s の合図）</text>
<rect x="30.0" y="242.0" width="440.0" height="88.0" rx="8" fill="none" stroke="#000" stroke-width="2.0"/>
<text x="40.0" y="260.0" font-size="12" text-anchor="start" font-weight="bold">③ 順序をつけて口頭で紹介</text>
<text x="40.0" y="282.0" font-size="13" text-anchor="start">This is Haruto.  He likes the stars, ...</text>
<rect x="40.0" y="296.0" width="37.4" height="22.0" rx="4" fill="none" stroke="#000" stroke-width="1.1"/>
<text x="58.7" y="311.0" font-size="10.5" text-anchor="middle">名前</text>
<line x1="79.4" y1="307.0" x2="89.4" y2="307.0" stroke="#000" stroke-width="1.1"/>
<line x1="89.4" y1="307.0" x2="85.4" y2="309.0" stroke="#000" stroke-width="1.1"/>
<line x1="89.4" y1="307.0" x2="85.4" y2="305.0" stroke="#000" stroke-width="1.1"/>
<rect x="92.4" y="296.0" width="72.5" height="22.0" rx="4" fill="none" stroke="#000" stroke-width="1.1"/>
<text x="128.7" y="311.0" font-size="10.5" text-anchor="middle">関係・所属</text>
<line x1="166.9" y1="307.0" x2="176.9" y2="307.0" stroke="#000" stroke-width="1.1"/>
<line x1="176.9" y1="307.0" x2="172.9" y2="309.0" stroke="#000" stroke-width="1.1"/>
<line x1="176.9" y1="307.0" x2="172.9" y2="305.0" stroke="#000" stroke-width="1.1"/>
<rect x="179.9" y="296.0" width="131.0" height="22.0" rx="4" fill="none" stroke="#000" stroke-width="1.1"/>
<text x="245.4" y="311.0" font-size="10.5" text-anchor="middle">すること・好きなこと</text>
<line x1="313.0" y1="307.0" x2="323.0" y2="307.0" stroke="#000" stroke-width="1.1"/>
<line x1="323.0" y1="307.0" x2="318.9" y2="309.0" stroke="#000" stroke-width="1.1"/>
<line x1="323.0" y1="307.0" x2="318.9" y2="305.0" stroke="#000" stroke-width="1.1"/>
<rect x="326.0" y="296.0" width="60.8" height="22.0" rx="4" fill="none" stroke="#000" stroke-width="1.1"/>
<text x="356.4" y="311.0" font-size="10.5" text-anchor="middle">ひとこと</text>
<text x="250.0" y="348.0" font-size="10.5" text-anchor="middle">（聞いたときは I の文——紹介する瞬間、主語は He/She、動詞に合図の -s）</text>
</svg>
