<svg xmlns="http://www.w3.org/2000/svg" viewBox="0 0 440 300" role="img">
<title>架空プロフィールカードの実物図（Haruto・代名詞欄つき）</title>
<desc>L06導入・誌上インタビュー用の教材カードの実物図。角丸カードにヘッダ「プロフィールカード／※架空の人物」、記号的な人物アイコン、名前 Haruto、部活 science club、好きなこと the stars、メモ the night sky／a big telescope、破線枠の「よぶとき（代名詞） he／him」欄。語句は本文のモデル発表（He is in the science club. He likes the stars...）と一致（検算済み）。再現指示: L03のカードと同じ名刺型レイアウトで、フィールド値だけHaruto の語句に替え、代名詞欄は he／him とする。顔イラストは描かない。白黒のみ。</desc>
<!-- L06_fig1_haruto_profile_card.svg | 架空プロフィールカードの実物図（Haruto・代名詞欄つき） -->
<!-- generated by assets_provenance/generate_figures.py on 2026-07-17 (docs/SPEC_figures.md準拠（内部規約の要旨は同SPECに反映済み）・AI再利用メタ情報つき・SVG直接編集禁止/スクリプト改修で再生成) -->
<rect x="0" y="0" width="440" height="300" fill="#fff"/>
<rect x="50.0" y="40.0" width="340.0" height="192.0" rx="10" fill="none" stroke="#000" stroke-width="2.0"/>
<line x1="50.0" y1="70.0" x2="390.0" y2="70.0" stroke="#000" stroke-width="1.2"/>
<text x="64.0" y="60.0" font-size="13" text-anchor="start" font-weight="bold">プロフィールカード</text>
<text x="376.0" y="60.0" font-size="10.5" text-anchor="end">※架空の人物</text>
<circle cx="356.0" cy="92.8" r="8.1" fill="none" stroke="#000" stroke-width="1.4"/>
<polyline points="343.0,112.3 343.4,109.8 344.7,107.5 346.8,105.5 349.5,103.9 352.6,102.9 356.0,102.6 359.4,102.9 362.5,103.9 365.2,105.5 367.3,107.5 368.6,109.8 369.0,112.3" fill="none" stroke="#000" stroke-width="1.4"/>
<text x="64.0" y="96.0" font-size="11" text-anchor="start" font-weight="bold">名前</text>
<text x="110.0" y="96.0" font-size="15" text-anchor="start" font-weight="bold">Haruto</text>
<line x1="60.0" y1="106.0" x2="326.0" y2="106.0" stroke="#888" stroke-width="0.8"/>
<text x="64.0" y="130.0" font-size="11" text-anchor="start" font-weight="bold">部活</text>
<text x="168.0" y="130.0" font-size="13" text-anchor="start">science club</text>
<line x1="60.0" y1="138.0" x2="380.0" y2="138.0" stroke="#bbb" stroke-width="0.6"/>
<text x="64.0" y="154.0" font-size="11" text-anchor="start" font-weight="bold">好きなこと</text>
<text x="168.0" y="154.0" font-size="13" text-anchor="start">the stars</text>
<line x1="60.0" y1="162.0" x2="380.0" y2="162.0" stroke="#bbb" stroke-width="0.6"/>
<text x="64.0" y="178.0" font-size="11" text-anchor="start" font-weight="bold">メモ</text>
<text x="168.0" y="178.0" font-size="13" text-anchor="start">the night sky ／ a big telescope</text>
<line x1="60.0" y1="186.0" x2="380.0" y2="186.0" stroke="#bbb" stroke-width="0.6"/>
<rect x="60.0" y="189.0" width="320.0" height="24.0" rx="6" fill="none" stroke="#000" stroke-width="1.2" stroke-dasharray="4 3"/>
<text x="64.0" y="206.0" font-size="11" text-anchor="start" font-weight="bold">よぶとき（代名詞）</text>
<text x="372.0" y="206.0" font-size="13" text-anchor="end" font-weight="bold">he ／ him</text>
<text x="220.0" y="24.0" font-size="14" text-anchor="middle" font-weight="bold">架空プロフィールカード（例: Haruto）</text>
<text x="220.0" y="262.0" font-size="10.5" text-anchor="middle">誌上インタビューでは、このカードの情報の範囲で本人役が I で答える</text>
<text x="220.0" y="280.0" font-size="10.5" text-anchor="middle">紹介するときは「よぶとき（代名詞）」欄の he / him を使う</text>
</svg>
