<svg xmlns="http://www.w3.org/2000/svg" viewBox="0 0 480 344" role="img">
<title>2軸セルフレビューの手順図（軸1 伝わるか → 軸2 形が正確か）</title>
<desc>L07展開2の手順フロー図。下書き（3〜5文）→（少し時間を置いてから）→軸1「伝わるか」＝初めて読む人のつもりで黙読し「どんな人か」を日本語で言えるか（付箋: 青＝伝わった／？＝迷った）→（軸1が終わってから）→軸2「形が正確か」＝観点は2つだけ（He/She の動詞に -s／否定・疑問に does・doesn&#x27;t）（付箋: 黄・場所を指すだけ）→修正メモ（直すのは次時・破線枠）。左端に「先／後」の順序ラベル。再現指示: 縦4段のフローチャートで、軸1と軸2の大きな箱に観点と付箋の凡例を書き、間の矢印に「軸1が終わってから」と明記する。白黒のみ。</desc>
<!-- L07_fig1_two_axis_self_review.svg | 2軸セルフレビューの手順図（軸1 伝わるか → 軸2 形が正確か） -->
<!-- generated by assets_provenance/generate_figures.py on 2026-07-17 (docs/SPEC_figures.md準拠（内部規約の要旨は同SPECに反映済み）・AI再利用メタ情報つき・SVG直接編集禁止/スクリプト改修で再生成) -->
<rect x="0" y="0" width="480" height="344" fill="#fff"/>
<text x="240.0" y="26.0" font-size="14" text-anchor="middle" font-weight="bold">読み直しは2軸の順で（順序を逆にしない）</text>
<rect x="160.0" y="44.0" width="160.0" height="34.0" rx="8" fill="none" stroke="#000" stroke-width="1.6"/>
<text x="240.0" y="66.0" font-size="13" text-anchor="middle" font-weight="bold">下書き（3〜5文）</text>
<line x1="240.0" y1="78.0" x2="240.0" y2="96.0" stroke="#000" stroke-width="1.6"/>
<line x1="240.0" y1="96.0" x2="236.9" y2="89.7" stroke="#000" stroke-width="1.6"/>
<line x1="240.0" y1="96.0" x2="243.1" y2="89.7" stroke="#000" stroke-width="1.6"/>
<text x="252.0" y="92.0" font-size="10.5" text-anchor="start">少し時間を置いてから</text>
<rect x="60.0" y="100.0" width="360.0" height="74.0" rx="8" fill="none" stroke="#000" stroke-width="2.0"/>
<text x="74.0" y="122.0" font-size="13" text-anchor="start" font-weight="bold">軸1　伝わるか</text>
<text x="74.0" y="140.0" font-size="10.5" text-anchor="start">初めて読む人のつもりで黙読→「どんな人か」を言えるか</text>
<text x="74.0" y="160.0" font-size="10.5" text-anchor="start">付箋: 青＝伝わった ／ ？＝迷った（どこで迷ったか一言）</text>
<rect x="380.0" y="108.0" width="30.0" height="18.0" fill="none" stroke="#000" stroke-width="1.1"/>
<text x="395.0" y="121.0" font-size="10" text-anchor="middle">青</text>
<rect x="380.0" y="132.0" width="30.0" height="18.0" fill="none" stroke="#000" stroke-width="1.1"/>
<text x="395.0" y="145.0" font-size="10" text-anchor="middle">？</text>
<line x1="240.0" y1="174.0" x2="240.0" y2="196.0" stroke="#000" stroke-width="1.6"/>
<line x1="240.0" y1="196.0" x2="236.9" y2="189.7" stroke="#000" stroke-width="1.6"/>
<line x1="240.0" y1="196.0" x2="243.1" y2="189.7" stroke="#000" stroke-width="1.6"/>
<text x="252.0" y="190.0" font-size="10.5" text-anchor="start" font-weight="bold">軸1が終わってから</text>
<rect x="60.0" y="200.0" width="360.0" height="74.0" rx="8" fill="none" stroke="#000" stroke-width="2.0"/>
<text x="74.0" y="222.0" font-size="13" text-anchor="start" font-weight="bold">軸2　形が正確か（観点は今日この2つだけ）</text>
<text x="74.0" y="240.0" font-size="10.5" text-anchor="start">・He/She の文の動詞に -s はあるか</text>
<text x="74.0" y="258.0" font-size="10.5" text-anchor="start">・否定・疑問に does / doesn&#x27;t が使えているか</text>
<rect x="380.0" y="216.0" width="30.0" height="18.0" fill="none" stroke="#000" stroke-width="1.1"/>
<text x="395.0" y="229.0" font-size="10" text-anchor="middle">黄</text>
<text x="395.0" y="246.0" font-size="8.5" text-anchor="middle">場所を指す</text>
<text x="395.0" y="256.0" font-size="8.5" text-anchor="middle">だけ</text>
<line x1="240.0" y1="274.0" x2="240.0" y2="292.0" stroke="#000" stroke-width="1.6"/>
<line x1="240.0" y1="292.0" x2="236.9" y2="285.7" stroke="#000" stroke-width="1.6"/>
<line x1="240.0" y1="292.0" x2="243.1" y2="285.7" stroke="#000" stroke-width="1.6"/>
<rect x="130.0" y="296.0" width="220.0" height="34.0" rx="8" fill="none" stroke="#000" stroke-width="1.6" stroke-dasharray="6 4"/>
<text x="240.0" y="314.0" font-size="12" text-anchor="middle" font-weight="bold">修正メモ（直すのは次時）</text>
<text x="56.0" y="137.0" font-size="12" text-anchor="end" font-weight="bold">先</text>
<text x="56.0" y="237.0" font-size="12" text-anchor="end" font-weight="bold">後</text>
</svg>
