<svg xmlns="http://www.w3.org/2000/svg" viewBox="0 0 460 302">
<title>やってみようの作図見本（1・2マス／2・3マス）</title>
<desc>【この図の意図】囲んで引く手順の見本2連。面積の値は本文指定により図に書かない。【主要な数値・設定】ケース(1,2)と(2,3)／囲む正方形は1辺3と1辺5。【AIに同じ種類の図を描かせるときの説明文】「やってみようの作図見本（1・2マス／2・3マス）。囲んで引く手順の見本2連。面積の値は本文指定により図に書かない。数値・設定: ケース(1,2)と(2,3)／囲む正方形は1辺3と1辺5。白黒印刷向けのシンプルな教材図（SVG）としてかいて。」——この説明文を生成AIに渡せば同型の図を描かせられる。数値を変えれば類題用の図も作れる。</desc>
<!-- L01_fig3_tilted_square_examples.svg | やってみようの作図見本（1・2マス／2・3マス） -->
<!-- generated by assets_provenance/generate_figures.py on 2026-07-17 (docs/SPEC_figures.md準拠（内部規約の要旨は同SPECに反映済み）・SVG直接編集禁止/スクリプト改修で再生成) -->
<rect x="0" y="0" width="460" height="302" fill="#fff"/>
<defs><pattern id="h45" width="6" height="6" patternUnits="userSpaceOnUse" patternTransform="rotate(45)"><line x1="0" y1="0" x2="0" y2="6" stroke="#555" stroke-width="1.1"/></pattern><pattern id="h135" width="6" height="6" patternUnits="userSpaceOnUse" patternTransform="rotate(135)"><line x1="0" y1="0" x2="0" y2="6" stroke="#555" stroke-width="1.1"/></pattern></defs><line x1="60.0" y1="210.0" x2="60.0" y2="132.0" stroke="#bbb" stroke-width="0.6"/>
<line x1="86.0" y1="210.0" x2="86.0" y2="132.0" stroke="#bbb" stroke-width="0.6"/>
<line x1="112.0" y1="210.0" x2="112.0" y2="132.0" stroke="#bbb" stroke-width="0.6"/>
<line x1="138.0" y1="210.0" x2="138.0" y2="132.0" stroke="#bbb" stroke-width="0.6"/>
<line x1="60.0" y1="210.0" x2="138.0" y2="210.0" stroke="#bbb" stroke-width="0.6"/>
<line x1="60.0" y1="184.0" x2="138.0" y2="184.0" stroke="#bbb" stroke-width="0.6"/>
<line x1="60.0" y1="158.0" x2="138.0" y2="158.0" stroke="#bbb" stroke-width="0.6"/>
<line x1="60.0" y1="132.0" x2="138.0" y2="132.0" stroke="#bbb" stroke-width="0.6"/>
<polygon points="60.0,210.0 86.0,210.0 60.0,158.0" fill="url(#h45)" stroke="none"/>
<polygon points="138.0,210.0 138.0,184.0 86.0,210.0" fill="url(#h45)" stroke="none"/>
<polygon points="138.0,132.0 112.0,132.0 138.0,184.0" fill="url(#h45)" stroke="none"/>
<polygon points="60.0,132.0 60.0,158.0 112.0,132.0" fill="url(#h45)" stroke="none"/>
<polygon points="60.0,210.0 138.0,210.0 138.0,132.0 60.0,132.0" fill="none" stroke="#000" stroke-width="1.6" stroke-linejoin="round"/>
<polygon points="86.0,210.0 138.0,184.0 112.0,132.0 60.0,158.0" fill="#fff" stroke="#000" stroke-width="1.6" stroke-linejoin="round"/>
<text x="73.0" y="227.2" font-size="12" text-anchor="middle">1</text>
<text x="112.0" y="227.2" font-size="12" text-anchor="middle">2</text>
<text x="99.0" y="240.0" font-size="12" text-anchor="middle" font-weight="bold">1．2辺が1マスと2マス</text>
<line x1="260.0" y1="210.0" x2="260.0" y2="80.0" stroke="#bbb" stroke-width="0.6"/>
<line x1="286.0" y1="210.0" x2="286.0" y2="80.0" stroke="#bbb" stroke-width="0.6"/>
<line x1="312.0" y1="210.0" x2="312.0" y2="80.0" stroke="#bbb" stroke-width="0.6"/>
<line x1="338.0" y1="210.0" x2="338.0" y2="80.0" stroke="#bbb" stroke-width="0.6"/>
<line x1="364.0" y1="210.0" x2="364.0" y2="80.0" stroke="#bbb" stroke-width="0.6"/>
<line x1="390.0" y1="210.0" x2="390.0" y2="80.0" stroke="#bbb" stroke-width="0.6"/>
<line x1="260.0" y1="210.0" x2="390.0" y2="210.0" stroke="#bbb" stroke-width="0.6"/>
<line x1="260.0" y1="184.0" x2="390.0" y2="184.0" stroke="#bbb" stroke-width="0.6"/>
<line x1="260.0" y1="158.0" x2="390.0" y2="158.0" stroke="#bbb" stroke-width="0.6"/>
<line x1="260.0" y1="132.0" x2="390.0" y2="132.0" stroke="#bbb" stroke-width="0.6"/>
<line x1="260.0" y1="106.0" x2="390.0" y2="106.0" stroke="#bbb" stroke-width="0.6"/>
<line x1="260.0" y1="80.0" x2="390.0" y2="80.0" stroke="#bbb" stroke-width="0.6"/>
<polygon points="260.0,210.0 312.0,210.0 260.0,132.0" fill="url(#h45)" stroke="none"/>
<polygon points="390.0,210.0 390.0,158.0 312.0,210.0" fill="url(#h45)" stroke="none"/>
<polygon points="390.0,80.0 338.0,80.0 390.0,158.0" fill="url(#h45)" stroke="none"/>
<polygon points="260.0,80.0 260.0,132.0 338.0,80.0" fill="url(#h45)" stroke="none"/>
<polygon points="260.0,210.0 390.0,210.0 390.0,80.0 260.0,80.0" fill="none" stroke="#000" stroke-width="1.6" stroke-linejoin="round"/>
<polygon points="312.0,210.0 390.0,158.0 338.0,80.0 260.0,132.0" fill="#fff" stroke="#000" stroke-width="1.6" stroke-linejoin="round"/>
<text x="286.0" y="227.2" font-size="12" text-anchor="middle">2</text>
<text x="351.0" y="227.2" font-size="12" text-anchor="middle">3</text>
<text x="325.0" y="240.0" font-size="12" text-anchor="middle" font-weight="bold">2．2辺が2マスと3マス</text>
<text x="230.0" y="270.0" font-size="12" text-anchor="middle">見本: 傾いた正方形を，マス目に沿った正方形で囲む</text>
<text x="230.0" y="287.0" font-size="12" text-anchor="middle">（面積＝囲む正方形 − 四すみの直角三角形4つ分。値は表で求めよう）</text>
</svg>
