<svg xmlns="http://www.w3.org/2000/svg" viewBox="0 0 400 316">
<title>囲んで引く（1辺7の正方形−三角形4つ＝25）</title>
<desc>【この図の意図】主概念1の手順図。本文の計算 49−24＝25 をそのまま添える（本文が直後に示す値）。【主要な数値・設定】a=3,b=4／囲む正方形1辺7／傾いた正方形の頂点(3,0)(7,3)(4,7)(0,4)。【AIに同じ種類の図を描かせるときの説明文】「囲んで引く（1辺7の正方形−三角形4つ＝25）。主概念1の手順図。本文の計算 49−24＝25 をそのまま添える（本文が直後に示す値）。数値・設定: a=3,b=4／囲む正方形1辺7／傾いた正方形の頂点(3,0)(7,3)(4,7)(0,4)。白黒印刷向けのシンプルな教材図（SVG）としてかいて。」——この説明文を生成AIに渡せば同型の図を描かせられる。数値を変えれば類題用の図も作れる。</desc>
<!-- L01_fig2_enclose_and_subtract.svg | 囲んで引く（1辺7の正方形−三角形4つ＝25） -->
<!-- generated by assets_provenance/generate_figures.py on 2026-07-17 (docs/SPEC_figures.md準拠（内部規約の要旨は同SPECに反映済み）・SVG直接編集禁止/スクリプト改修で再生成) -->
<rect x="0" y="0" width="400" height="316" fill="#fff"/>
<defs><pattern id="h45" width="6" height="6" patternUnits="userSpaceOnUse" patternTransform="rotate(45)"><line x1="0" y1="0" x2="0" y2="6" stroke="#555" stroke-width="1.1"/></pattern><pattern id="h135" width="6" height="6" patternUnits="userSpaceOnUse" patternTransform="rotate(135)"><line x1="0" y1="0" x2="0" y2="6" stroke="#555" stroke-width="1.1"/></pattern></defs><line x1="40.0" y1="212.0" x2="40.0" y2="30.0" stroke="#bbb" stroke-width="0.6"/>
<line x1="66.0" y1="212.0" x2="66.0" y2="30.0" stroke="#bbb" stroke-width="0.6"/>
<line x1="92.0" y1="212.0" x2="92.0" y2="30.0" stroke="#bbb" stroke-width="0.6"/>
<line x1="118.0" y1="212.0" x2="118.0" y2="30.0" stroke="#bbb" stroke-width="0.6"/>
<line x1="144.0" y1="212.0" x2="144.0" y2="30.0" stroke="#bbb" stroke-width="0.6"/>
<line x1="170.0" y1="212.0" x2="170.0" y2="30.0" stroke="#bbb" stroke-width="0.6"/>
<line x1="196.0" y1="212.0" x2="196.0" y2="30.0" stroke="#bbb" stroke-width="0.6"/>
<line x1="222.0" y1="212.0" x2="222.0" y2="30.0" stroke="#bbb" stroke-width="0.6"/>
<line x1="40.0" y1="212.0" x2="222.0" y2="212.0" stroke="#bbb" stroke-width="0.6"/>
<line x1="40.0" y1="186.0" x2="222.0" y2="186.0" stroke="#bbb" stroke-width="0.6"/>
<line x1="40.0" y1="160.0" x2="222.0" y2="160.0" stroke="#bbb" stroke-width="0.6"/>
<line x1="40.0" y1="134.0" x2="222.0" y2="134.0" stroke="#bbb" stroke-width="0.6"/>
<line x1="40.0" y1="108.0" x2="222.0" y2="108.0" stroke="#bbb" stroke-width="0.6"/>
<line x1="40.0" y1="82.0" x2="222.0" y2="82.0" stroke="#bbb" stroke-width="0.6"/>
<line x1="40.0" y1="56.0" x2="222.0" y2="56.0" stroke="#bbb" stroke-width="0.6"/>
<line x1="40.0" y1="30.0" x2="222.0" y2="30.0" stroke="#bbb" stroke-width="0.6"/>
<polygon points="40.0,212.0 118.0,212.0 40.0,108.0" fill="url(#h45)" stroke="none"/>
<polygon points="222.0,212.0 222.0,134.0 118.0,212.0" fill="url(#h45)" stroke="none"/>
<polygon points="222.0,30.0 144.0,30.0 222.0,134.0" fill="url(#h45)" stroke="none"/>
<polygon points="40.0,30.0 40.0,108.0 144.0,30.0" fill="url(#h45)" stroke="none"/>
<polygon points="40.0,212.0 222.0,212.0 222.0,30.0 40.0,30.0" fill="none" stroke="#000" stroke-width="1.6" stroke-linejoin="round"/>
<polygon points="118.0,212.0 222.0,134.0 144.0,30.0 40.0,108.0" fill="#fff" stroke="#000" stroke-width="1.6" stroke-linejoin="round"/>
<text x="79.0" y="230.2" font-size="12" text-anchor="middle">3</text>
<text x="170.0" y="230.2" font-size="12" text-anchor="middle">4</text>
<text x="236.0" y="177.2" font-size="12" text-anchor="middle">3</text>
<text x="236.0" y="86.2" font-size="12" text-anchor="middle">4</text>
<text x="131.0" y="126.6" font-size="16" text-anchor="middle" font-weight="bold">？</text>
<text x="250.0" y="60.0" font-size="12" text-anchor="start">大きい正方形</text>
<text x="250.0" y="77.0" font-size="13" text-anchor="start" font-weight="bold">7×7＝49</text>
<text x="250.0" y="106.0" font-size="12" text-anchor="start">四すみの直角三角形</text>
<text x="250.0" y="123.0" font-size="13" text-anchor="start" font-weight="bold">3×4÷2＝6 → 4つで24</text>
<text x="250.0" y="152.0" font-size="12" text-anchor="start">傾いた正方形</text>
<text x="250.0" y="169.0" font-size="13" text-anchor="start" font-weight="bold">49−24＝25</text>
<text x="200.0" y="286.0" font-size="12" text-anchor="middle">「囲んで引く」——マス目に沿った正方形で囲み，</text>
<text x="200.0" y="303.0" font-size="12" text-anchor="middle">四すみの三角形（斜線部）を引く</text>
</svg>
