<svg xmlns="http://www.w3.org/2000/svg" viewBox="0 0 330 344">
<title>3辺の上の3つの正方形（方眼・3マスと4マス）</title>
<desc>【この図の意図】導入の発見用の図。塗り分けはハッチング2種+薄グレー。面積値は書かない。【主要な数値・設定】直角をはさむ2辺=3,4マス／斜辺の正方形は格子点(0,3)(4,0)(7,4)(3,7)。【AIに同じ種類の図を描かせるときの説明文】「3辺の上の3つの正方形（方眼・3マスと4マス）。導入の発見用の図。塗り分けはハッチング2種+薄グレー。面積値は書かない。数値・設定: 直角をはさむ2辺=3,4マス／斜辺の正方形は格子点(0,3)(4,0)(7,4)(3,7)。白黒印刷向けのシンプルな教材図（SVG）としてかいて。」——この説明文を生成AIに渡せば同型の図を描かせられる。数値を変えれば類題用の図も作れる。</desc>
<!-- L01_fig1_three_squares_on_grid.svg | 3辺の上の3つの正方形（方眼・3マスと4マス） -->
<!-- generated by assets_provenance/generate_figures.py on 2026-07-17 (docs/SPEC_figures.md準拠（内部規約の要旨は同SPECに反映済み）・SVG直接編集禁止/スクリプト改修で再生成) -->
<rect x="0" y="0" width="330" height="344" fill="#fff"/>
<defs><pattern id="h45" width="6" height="6" patternUnits="userSpaceOnUse" patternTransform="rotate(45)"><line x1="0" y1="0" x2="0" y2="6" stroke="#555" stroke-width="1.1"/></pattern><pattern id="h135" width="6" height="6" patternUnits="userSpaceOnUse" patternTransform="rotate(135)"><line x1="0" y1="0" x2="0" y2="6" stroke="#555" stroke-width="1.1"/></pattern></defs><line x1="28.0" y1="288.0" x2="28.0" y2="24.0" stroke="#bbb" stroke-width="0.6"/>
<line x1="52.0" y1="288.0" x2="52.0" y2="24.0" stroke="#bbb" stroke-width="0.6"/>
<line x1="76.0" y1="288.0" x2="76.0" y2="24.0" stroke="#bbb" stroke-width="0.6"/>
<line x1="100.0" y1="288.0" x2="100.0" y2="24.0" stroke="#bbb" stroke-width="0.6"/>
<line x1="124.0" y1="288.0" x2="124.0" y2="24.0" stroke="#bbb" stroke-width="0.6"/>
<line x1="148.0" y1="288.0" x2="148.0" y2="24.0" stroke="#bbb" stroke-width="0.6"/>
<line x1="172.0" y1="288.0" x2="172.0" y2="24.0" stroke="#bbb" stroke-width="0.6"/>
<line x1="196.0" y1="288.0" x2="196.0" y2="24.0" stroke="#bbb" stroke-width="0.6"/>
<line x1="220.0" y1="288.0" x2="220.0" y2="24.0" stroke="#bbb" stroke-width="0.6"/>
<line x1="244.0" y1="288.0" x2="244.0" y2="24.0" stroke="#bbb" stroke-width="0.6"/>
<line x1="268.0" y1="288.0" x2="268.0" y2="24.0" stroke="#bbb" stroke-width="0.6"/>
<line x1="28.0" y1="288.0" x2="268.0" y2="288.0" stroke="#bbb" stroke-width="0.6"/>
<line x1="28.0" y1="264.0" x2="268.0" y2="264.0" stroke="#bbb" stroke-width="0.6"/>
<line x1="28.0" y1="240.0" x2="268.0" y2="240.0" stroke="#bbb" stroke-width="0.6"/>
<line x1="28.0" y1="216.0" x2="268.0" y2="216.0" stroke="#bbb" stroke-width="0.6"/>
<line x1="28.0" y1="192.0" x2="268.0" y2="192.0" stroke="#bbb" stroke-width="0.6"/>
<line x1="28.0" y1="168.0" x2="268.0" y2="168.0" stroke="#bbb" stroke-width="0.6"/>
<line x1="28.0" y1="144.0" x2="268.0" y2="144.0" stroke="#bbb" stroke-width="0.6"/>
<line x1="28.0" y1="120.0" x2="268.0" y2="120.0" stroke="#bbb" stroke-width="0.6"/>
<line x1="28.0" y1="96.0" x2="268.0" y2="96.0" stroke="#bbb" stroke-width="0.6"/>
<line x1="28.0" y1="72.0" x2="268.0" y2="72.0" stroke="#bbb" stroke-width="0.6"/>
<line x1="28.0" y1="48.0" x2="268.0" y2="48.0" stroke="#bbb" stroke-width="0.6"/>
<line x1="28.0" y1="24.0" x2="268.0" y2="24.0" stroke="#bbb" stroke-width="0.6"/>
<polygon points="100.0,192.0 100.0,120.0 28.0,120.0 28.0,192.0" fill="url(#h45)" stroke="none"/>
<polygon points="100.0,192.0 196.0,192.0 196.0,288.0 100.0,288.0" fill="url(#h135)" stroke="none"/>
<polygon points="100.0,120.0 196.0,192.0 268.0,96.0 172.0,24.0" fill="#ddd" stroke="none"/>
<polygon points="100.0,192.0 100.0,120.0 28.0,120.0 28.0,192.0" fill="none" stroke="#000" stroke-width="1.6" stroke-linejoin="round"/>
<polygon points="100.0,192.0 196.0,192.0 196.0,288.0 100.0,288.0" fill="none" stroke="#000" stroke-width="1.6" stroke-linejoin="round"/>
<polygon points="100.0,120.0 196.0,192.0 268.0,96.0 172.0,24.0" fill="none" stroke="#000" stroke-width="1.6" stroke-linejoin="round"/>
<polygon points="100.0,192.0 196.0,192.0 100.0,120.0" fill="#fff" stroke="#000" stroke-width="1.6" stroke-linejoin="round"/>
<polyline points="109.0,192.0 109.0,183.0 100.0,183.0" fill="none" stroke="#000" stroke-width="1.2"/>
<text x="116.0" y="160.2" font-size="12" text-anchor="middle" font-weight="bold">3マス</text>
<text x="148.0" y="180.2" font-size="12" text-anchor="middle" font-weight="bold">4マス</text>
<text x="165.0" y="310.0" font-size="12" text-anchor="middle">直角三角形の3つの辺の上に，外側に正方形を3つかく</text>
<text x="165.0" y="327.0" font-size="12" text-anchor="middle">（3つの正方形の面積の間に，何か関係はないだろうか？）</text>
</svg>
