<svg xmlns="http://www.w3.org/2000/svg" viewBox="0 0 440 300">
<title>証明のアイデア（風車の4枚並べ）</title>
<desc>【この図の意図】主概念2の証明図。囲んで引くがそのまま証明になる対応を注記。【主要な数値・設定】形はa=3,b=4比（ラベルは文字a,b,c）・中央の正方形は厳密に正方形。【AIに同じ種類の図を描かせるときの説明文】「証明のアイデア（風車の4枚並べ）。主概念2の証明図。囲んで引くがそのまま証明になる対応を注記。数値・設定: 形はa=3,b=4比（ラベルは文字a,b,c）・中央の正方形は厳密に正方形。白黒印刷向けのシンプルな教材図（SVG）としてかいて。」——この説明文を生成AIに渡せば同型の図を描かせられる。数値を変えれば類題用の図も作れる。</desc>
<!-- L02_fig2_pinwheel_proof_idea.svg | 証明のアイデア（風車の4枚並べ） -->
<!-- generated by assets_provenance/generate_figures.py on 2026-07-17 (docs/SPEC_figures.md準拠（内部規約の要旨は同SPECに反映済み）・SVG直接編集禁止/スクリプト改修で再生成) -->
<rect x="0" y="0" width="440" height="300" fill="#fff"/>
<defs><pattern id="h45" width="6" height="6" patternUnits="userSpaceOnUse" patternTransform="rotate(45)"><line x1="0" y1="0" x2="0" y2="6" stroke="#555" stroke-width="1.1"/></pattern><pattern id="h135" width="6" height="6" patternUnits="userSpaceOnUse" patternTransform="rotate(135)"><line x1="0" y1="0" x2="0" y2="6" stroke="#555" stroke-width="1.1"/></pattern></defs><polygon points="40.0,244.0 130.0,244.0 40.0,124.0" fill="url(#h45)" stroke="none"/>
<polygon points="40.0,244.0 130.0,244.0 40.0,124.0" fill="none" stroke="#000" stroke-width="1.0" stroke-linejoin="round"/>
<polygon points="250.0,244.0 250.0,154.0 130.0,244.0" fill="url(#h45)" stroke="none"/>
<polygon points="250.0,244.0 250.0,154.0 130.0,244.0" fill="none" stroke="#000" stroke-width="1.0" stroke-linejoin="round"/>
<polygon points="250.0,34.0 160.0,34.0 250.0,154.0" fill="url(#h45)" stroke="none"/>
<polygon points="250.0,34.0 160.0,34.0 250.0,154.0" fill="none" stroke="#000" stroke-width="1.0" stroke-linejoin="round"/>
<polygon points="40.0,34.0 40.0,124.0 160.0,34.0" fill="url(#h45)" stroke="none"/>
<polygon points="40.0,34.0 40.0,124.0 160.0,34.0" fill="none" stroke="#000" stroke-width="1.0" stroke-linejoin="round"/>
<polygon points="40.0,244.0 250.0,244.0 250.0,34.0 40.0,34.0" fill="none" stroke="#000" stroke-width="1.6" stroke-linejoin="round"/>
<polygon points="130.0,244.0 250.0,154.0 160.0,34.0 40.0,124.0" fill="#fff" stroke="#000" stroke-width="1.6" stroke-linejoin="round"/>
<text x="85.0" y="262.9" font-size="14" text-anchor="middle">a</text>
<text x="190.0" y="262.9" font-size="14" text-anchor="middle">b</text>
<text x="264.0" y="203.9" font-size="14" text-anchor="middle">a</text>
<text x="264.0" y="98.9" font-size="14" text-anchor="middle">b</text>
<text x="182.2" y="193.5" font-size="14" text-anchor="middle">c</text>
<text x="145.0" y="144.6" font-size="16" text-anchor="middle" font-weight="bold">c²</text>
<text x="290.0" y="76.0" font-size="12" text-anchor="start">1辺(a＋b)の正方形に</text>
<text x="290.0" y="93.0" font-size="12" text-anchor="start">合同な直角三角形4枚を</text>
<text x="290.0" y="110.0" font-size="12" text-anchor="start">風車のように並べる</text>
<text x="290.0" y="145.0" font-size="13" text-anchor="start" font-weight="bold">全体 (a＋b)²</text>
<text x="290.0" y="167.0" font-size="13" text-anchor="start" font-weight="bold">− 三角形4枚</text>
<text x="290.0" y="189.0" font-size="13" text-anchor="start" font-weight="bold">＝ 真ん中の c²</text>
<text x="220.0" y="288.0" font-size="12" text-anchor="middle">（斜線部＝合同な直角三角形4枚。真ん中に1辺cの正方形が残る）</text>
</svg>
