<svg xmlns="http://www.w3.org/2000/svg" viewBox="0 0 460 300">
<title>定理の逆（3・4・5→直角）と分度器×・ものさし○の対比</title>
<desc>【この図の意図】主概念の図。角度を測らず3辺で直角が決まることをアイコン対比で示す。【主要な数値・設定】3辺=3,4,5・直角の頂点は長さ5の辺の向かい。【AIに同じ種類の図を描かせるときの説明文】「定理の逆（3・4・5→直角）と分度器×・ものさし○の対比。主概念の図。角度を測らず3辺で直角が決まることをアイコン対比で示す。数値・設定: 3辺=3,4,5・直角の頂点は長さ5の辺の向かい。白黒印刷向けのシンプルな教材図（SVG）としてかいて。」——この説明文を生成AIに渡せば同型の図を描かせられる。数値を変えれば類題用の図も作れる。</desc>
<!-- L03_fig1_converse_345.svg | 定理の逆（3・4・5→直角）と分度器×・ものさし○の対比 -->
<!-- generated by assets_provenance/generate_figures.py on 2026-07-17 (docs/SPEC_figures.md準拠（内部規約の要旨は同SPECに反映済み）・SVG直接編集禁止/スクリプト改修で再生成) -->
<rect x="0" y="0" width="460" height="300" fill="#fff"/>
<polygon points="40.0,226.0 200.0,226.0 200.0,106.0" fill="none" stroke="#000" stroke-width="1.6" stroke-linejoin="round"/>
<polyline points="191.0,226.0 191.0,217.0 200.0,217.0" fill="none" stroke="#000" stroke-width="1.2"/>
<text x="120.0" y="245.2" font-size="15" text-anchor="middle">4</text>
<text x="214.0" y="171.2" font-size="15" text-anchor="middle">3</text>
<text x="111.6" y="160.1" font-size="15" text-anchor="middle">5</text>
<text x="60.0" y="56.0" font-size="13" text-anchor="start">ここが直角になる</text>
<line x1="128.0" y1="62.0" x2="187.5" y2="204.0" stroke="#000" stroke-width="1.2"/>
<polygon points="190.0,210.0 184.8,205.1 190.2,202.9" fill="#000"/>
<polyline points="296.0,96.0 296.4,90.7 297.7,85.5 299.7,80.6 302.5,76.0 306.0,72.0 310.0,68.5 314.6,65.7 319.5,63.7 324.7,62.4 330.0,62.0 335.3,62.4 340.5,63.7 345.4,65.7 350.0,68.5 354.0,72.0 357.5,76.0 360.3,80.6 362.3,85.5 363.6,90.7 364.0,96.0" fill="none" stroke="#000" stroke-width="1.3"/>
<line x1="296" y1="96" x2="364" y2="96" stroke="#000" stroke-width="1.3"/>
<line x1="364.0" y1="96.0" x2="358.0" y2="96.0" stroke="#000" stroke-width="0.9"/>
<line x1="359.4" y1="79.0" x2="354.2" y2="82.0" stroke="#000" stroke-width="0.9"/>
<line x1="347.0" y1="66.6" x2="344.0" y2="71.8" stroke="#000" stroke-width="0.9"/>
<line x1="330.0" y1="62.0" x2="330.0" y2="68.0" stroke="#000" stroke-width="0.9"/>
<line x1="313.0" y1="66.6" x2="316.0" y2="71.8" stroke="#000" stroke-width="0.9"/>
<line x1="300.6" y1="79.0" x2="305.8" y2="82.0" stroke="#000" stroke-width="0.9"/>
<line x1="296.0" y1="96.0" x2="302.0" y2="96.0" stroke="#000" stroke-width="0.9"/>
<line x1="316" y1="68" x2="344" y2="92" stroke="#000" stroke-width="2.6"/>
<line x1="316" y1="92" x2="344" y2="68" stroke="#000" stroke-width="2.6"/>
<text x="330.0" y="114.0" font-size="11" text-anchor="middle">角度を測らなくても</text>
<rect x="296" y="158" width="68" height="20" fill="none" stroke="#000" stroke-width="1.3"/>
<line x1="305.7" y1="158" x2="305.7" y2="165" stroke="#000" stroke-width="0.9"/>
<line x1="315.4" y1="158" x2="315.4" y2="165" stroke="#000" stroke-width="0.9"/>
<line x1="325.1" y1="158" x2="325.1" y2="165" stroke="#000" stroke-width="0.9"/>
<line x1="334.9" y1="158" x2="334.9" y2="165" stroke="#000" stroke-width="0.9"/>
<line x1="344.6" y1="158" x2="344.6" y2="165" stroke="#000" stroke-width="0.9"/>
<line x1="354.3" y1="158" x2="354.3" y2="165" stroke="#000" stroke-width="0.9"/>
<circle cx="330" cy="168" r="17" fill="none" stroke="#000" stroke-width="2.6"/>
<text x="330.0" y="200.0" font-size="11" text-anchor="middle">3辺の長さだけで</text>
<text x="230.0" y="268.0" font-size="12" text-anchor="middle">3辺が3・4・5なら 3²＋4²＝5² → 長さ5の辺を斜辺とする直角三角形</text>
<text x="230.0" y="285.0" font-size="12" text-anchor="middle">（三平方の定理の逆: 辺の長さが角の情報を握っている）</text>
</svg>
