<svg xmlns="http://www.w3.org/2000/svg" viewBox="0 0 500 292">
<title>三角定規の3辺の比（1:1:√2／1:2:√3）</title>
<desc>【この図の意図】主概念2の一覧図。角と向かいの辺の対応を両パネルで明示。【主要な数値・設定】左=直角二等辺(1,1,√2)・右=30°60°90°(1,√3,2)・座標は厳密値。【AIに同じ種類の図を描かせるときの説明文】「三角定規の3辺の比（1:1:√2／1:2:√3）。主概念2の一覧図。角と向かいの辺の対応を両パネルで明示。数値・設定: 左=直角二等辺(1,1,√2)・右=30°60°90°(1,√3,2)・座標は厳密値。白黒印刷向けのシンプルな教材図（SVG）としてかいて。」——この説明文を生成AIに渡せば同型の図を描かせられる。数値を変えれば類題用の図も作れる。</desc>
<!-- L04_fig2_set_square_ratios.svg | 三角定規の3辺の比（1:1:√2／1:2:√3） -->
<!-- generated by assets_provenance/generate_figures.py on 2026-07-17 (docs/SPEC_figures.md準拠（内部規約の要旨は同SPECに反映済み）・SVG直接編集禁止/スクリプト改修で再生成) -->
<rect x="0" y="0" width="500" height="292" fill="#fff"/>
<polygon points="55.0,82.0 163.0,190.0 55.0,190.0" fill="none" stroke="#000" stroke-width="1.6" stroke-linejoin="round"/>
<polyline points="55.0,181.0 64.0,181.0 64.0,190.0" fill="none" stroke="#000" stroke-width="1.2"/>
<polyline points="55.0,98.0 55.6,98.0 56.3,98.0 56.9,97.9 57.5,97.8 58.1,97.7 58.7,97.6 59.3,97.4 59.9,97.2 60.5,97.0 61.1,96.8 61.7,96.5 62.3,96.3 62.8,96.0 63.4,95.6 63.9,95.3 64.4,94.9 64.9,94.6 65.4,94.2 65.9,93.7 66.3,93.3" fill="none" stroke="#000" stroke-width="1.2"/>
<polyline points="147.0,190.0 147.0,189.4 147.0,188.7 147.1,188.1 147.2,187.5 147.3,186.9 147.4,186.3 147.6,185.7 147.8,185.1 148.0,184.5 148.2,183.9 148.5,183.3 148.7,182.7 149.0,182.2 149.4,181.6 149.7,181.1 150.1,180.6 150.4,180.1 150.8,179.6 151.3,179.1 151.7,178.7" fill="none" stroke="#000" stroke-width="1.2"/>
<text x="71.0" y="106.0" font-size="12" text-anchor="middle">45°</text>
<text x="139.0" y="178.0" font-size="12" text-anchor="middle">45°</text>
<text x="109.0" y="209.2" font-size="15" text-anchor="middle">1</text>
<text x="42.0" y="141.2" font-size="15" text-anchor="middle">1</text>
<text x="121.0" y="129.2" font-size="15" text-anchor="middle">√2</text>
<text x="109.0" y="226.0" font-size="13" text-anchor="middle" font-weight="bold">45°・45°・90°</text>
<text x="109.0" y="244.0" font-size="13" text-anchor="middle" font-weight="bold">1 : 1 : √2</text>
<text x="109.0" y="262.0" font-size="11" text-anchor="middle">45°の向かい＝1，90°の向かい＝√2</text>
<polygon points="260.0,82.0 447.1,190.0 260.0,190.0" fill="none" stroke="#000" stroke-width="1.6" stroke-linejoin="round"/>
<polyline points="260.0,181.0 269.0,181.0 269.0,190.0" fill="none" stroke="#000" stroke-width="1.2"/>
<polyline points="425.1,190.0 425.1,189.4 425.1,188.8 425.1,188.3 425.2,187.7 425.2,187.1 425.3,186.6 425.4,186.0 425.5,185.4 425.7,184.9 425.8,184.3 426.0,183.8 426.1,183.2 426.3,182.7 426.5,182.1 426.7,181.6 427.0,181.1 427.2,180.5 427.5,180.0 427.7,179.5 428.0,179.0" fill="none" stroke="#000" stroke-width="1.2"/>
<polyline points="260.0,96.0 260.7,96.0 261.5,95.9 262.2,95.8 262.9,95.7 263.6,95.5 264.3,95.3 265.0,95.1 265.7,94.8 266.4,94.5 267.0,94.1 267.6,93.7 268.2,93.3 268.8,92.9 269.4,92.4 269.9,91.9 270.4,91.4 270.9,90.8 271.3,90.2 271.7,89.6 272.1,89.0" fill="none" stroke="#000" stroke-width="1.2"/>
<text x="407.1" y="180.0" font-size="12" text-anchor="middle">30°</text>
<text x="280.0" y="108.0" font-size="12" text-anchor="middle">60°</text>
<text x="353.5" y="209.2" font-size="15" text-anchor="middle">√3</text>
<text x="247.0" y="141.2" font-size="15" text-anchor="middle">1</text>
<text x="361.0" y="128.3" font-size="15" text-anchor="middle">2</text>
<text x="353.5" y="226.0" font-size="13" text-anchor="middle" font-weight="bold">30°・60°・90°</text>
<text x="353.5" y="244.0" font-size="13" text-anchor="middle" font-weight="bold">1 : 2 : √3（短:斜辺:中間）</text>
<text x="353.5" y="262.0" font-size="11" text-anchor="middle">30°の向かい＝1，90°の向かい＝2，60°の向かい＝√3</text>
<text x="250.0" y="284.0" font-size="12" text-anchor="middle">（2種類の三角定規——角の向かいにどの辺が来るかで比を読む）</text>
</svg>
