<svg xmlns="http://www.w3.org/2000/svg" viewBox="0 0 400 322">
<title>座標平面上の2点間の距離（A(1,2)・B(4,6)）</title>
<desc>【この図の意図】例題3の図。補助の直角三角形は破線。答えの値は？表記。【主要な数値・設定】A=(1,2),B=(4,6),C=(4,2)・ずれ3と4。【AIに同じ種類の図を描かせるときの説明文】「座標平面上の2点間の距離（A(1,2)・B(4,6)）。例題3の図。補助の直角三角形は破線。答えの値は？表記。数値・設定: A=(1,2),B=(4,6),C=(4,2)・ずれ3と4。白黒印刷向けのシンプルな教材図（SVG）としてかいて。」——この説明文を生成AIに渡せば同型の図を描かせられる。数値を変えれば類題用の図も作れる。</desc>
<!-- L05_fig3_coordinate_distance.svg | 座標平面上の2点間の距離（A(1,2)・B(4,6)） -->
<!-- generated by assets_provenance/generate_figures.py on 2026-07-17 (docs/SPEC_figures.md準拠（内部規約の要旨は同SPECに反映済み）・SVG直接編集禁止/スクリプト改修で再生成) -->
<rect x="0" y="0" width="400" height="322" fill="#fff"/>
<line x1="60.0" y1="262.0" x2="60.0" y2="24.0" stroke="#bbb" stroke-width="0.6"/>
<line x1="94.0" y1="262.0" x2="94.0" y2="24.0" stroke="#bbb" stroke-width="0.6"/>
<line x1="128.0" y1="262.0" x2="128.0" y2="24.0" stroke="#bbb" stroke-width="0.6"/>
<line x1="162.0" y1="262.0" x2="162.0" y2="24.0" stroke="#bbb" stroke-width="0.6"/>
<line x1="196.0" y1="262.0" x2="196.0" y2="24.0" stroke="#bbb" stroke-width="0.6"/>
<line x1="230.0" y1="262.0" x2="230.0" y2="24.0" stroke="#bbb" stroke-width="0.6"/>
<line x1="264.0" y1="262.0" x2="264.0" y2="24.0" stroke="#bbb" stroke-width="0.6"/>
<line x1="60.0" y1="262.0" x2="264.0" y2="262.0" stroke="#bbb" stroke-width="0.6"/>
<line x1="60.0" y1="228.0" x2="264.0" y2="228.0" stroke="#bbb" stroke-width="0.6"/>
<line x1="60.0" y1="194.0" x2="264.0" y2="194.0" stroke="#bbb" stroke-width="0.6"/>
<line x1="60.0" y1="160.0" x2="264.0" y2="160.0" stroke="#bbb" stroke-width="0.6"/>
<line x1="60.0" y1="126.0" x2="264.0" y2="126.0" stroke="#bbb" stroke-width="0.6"/>
<line x1="60.0" y1="92.0" x2="264.0" y2="92.0" stroke="#bbb" stroke-width="0.6"/>
<line x1="60.0" y1="58.0" x2="264.0" y2="58.0" stroke="#bbb" stroke-width="0.6"/>
<line x1="60.0" y1="24.0" x2="264.0" y2="24.0" stroke="#bbb" stroke-width="0.6"/>
<line x1="43.0" y1="262.0" x2="277.6" y2="262.0" stroke="#000" stroke-width="1.2"/>
<line x1="60.0" y1="279.0" x2="60.0" y2="13.8" stroke="#000" stroke-width="1.2"/>
<line x1="267.6" y1="262.0" x2="275.6" y2="262.0" stroke="#000" stroke-width="1.2"/>
<polygon points="281.6,262.0 275.6,264.7 275.6,259.3" fill="#000"/>
<line x1="60.0" y1="23.8" x2="60.0" y2="15.8" stroke="#000" stroke-width="1.2"/>
<polygon points="60.0,9.8 62.7,15.8 57.3,15.8" fill="#000"/>
<text x="52.0" y="277.0" font-size="12" text-anchor="middle">O</text>
<text x="275.9" y="278.0" font-size="12" text-anchor="middle">x</text>
<text x="48.0" y="19.5" font-size="12" text-anchor="middle">y</text>
<text x="94.0" y="277.0" font-size="11" text-anchor="middle">1</text>
<text x="196.0" y="277.0" font-size="11" text-anchor="middle">4</text>
<text x="50.0" y="198.0" font-size="11" text-anchor="end">2</text>
<text x="50.0" y="62.0" font-size="11" text-anchor="end">6</text>
<line x1="94.0" y1="194.0" x2="196.0" y2="58.0" stroke="#000" stroke-width="1.6"/>
<line x1="94.0" y1="194.0" x2="196.0" y2="194.0" stroke="#000" stroke-width="1.1" stroke-dasharray="6 4"/>
<line x1="196.0" y1="194.0" x2="196.0" y2="58.0" stroke="#000" stroke-width="1.1" stroke-dasharray="6 4"/>
<polyline points="187.0,194.0 187.0,185.0 196.0,185.0" fill="none" stroke="#000" stroke-width="1.2"/>
<circle cx="94.0" cy="194.0" r="2.5" fill="#000"/>
<circle cx="196.0" cy="58.0" r="2.5" fill="#000"/>
<circle cx="196.0" cy="194.0" r="2.5" fill="#000"/>
<text x="86.0" y="212.0" font-size="13" text-anchor="middle" font-weight="bold">A(1, 2)</text>
<text x="198.0" y="48.0" font-size="13" text-anchor="middle" font-weight="bold">B(4, 6)</text>
<text x="218.0" y="208.0" font-size="13" text-anchor="middle" font-weight="bold">C(4, 2)</text>
<text x="145.0" y="211.9" font-size="14" text-anchor="middle">3</text>
<text x="182.0" y="130.9" font-size="14" text-anchor="middle">4</text>
<text x="134.6" y="123.5" font-size="15" text-anchor="middle" font-weight="bold">？</text>
<text x="200.0" y="292.0" font-size="12" text-anchor="middle">ABを斜辺に，横の線と縦の線で直角三角形ABCを作る（破線）</text>
<text x="200.0" y="309.0" font-size="12" text-anchor="middle">（例題3: 2点A・B間の距離を求める）</text>
</svg>
