<svg xmlns="http://www.w3.org/2000/svg" viewBox="0 0 400 320">
<title>円の弦と中心からの距離（半径5cm・OH=3cm）</title>
<desc>【この図の意図】例題2の図。太線=自分で引く半径。△OAH薄グレー強調。答えのABは？表記。【主要な数値・設定】r=5,OH=3・A,Bは円周上厳密（AHの途中値は非表示）。【AIに同じ種類の図を描かせるときの説明文】「円の弦と中心からの距離（半径5cm・OH=3cm）。例題2の図。太線=自分で引く半径。△OAH薄グレー強調。答えのABは？表記。数値・設定: r=5,OH=3・A,Bは円周上厳密（AHの途中値は非表示）。白黒印刷向けのシンプルな教材図（SVG）としてかいて。」——この説明文を生成AIに渡せば同型の図を描かせられる。数値を変えれば類題用の図も作れる。</desc>
<!-- L05_fig2_circle_chord_distance.svg | 円の弦と中心からの距離（半径5cm・OH=3cm） -->
<!-- generated by assets_provenance/generate_figures.py on 2026-07-17 (docs/SPEC_figures.md準拠（内部規約の要旨は同SPECに反映済み）・SVG直接編集禁止/スクリプト改修で再生成) -->
<rect x="0" y="0" width="400" height="320" fill="#fff"/>
<circle cx="200.0" cy="128.0" r="110.0" fill="none" stroke="#000" stroke-width="1.6"/>
<polygon points="200.0,128.0 112.0,194.0 200.0,194.0" fill="#e6e6e6" stroke="none"/>
<line x1="112.0" y1="194.0" x2="288.0" y2="194.0" stroke="#000" stroke-width="1.6"/>
<line x1="200.0" y1="128.0" x2="200.0" y2="194.0" stroke="#000" stroke-width="1.6"/>
<line x1="200.0" y1="128.0" x2="112.0" y2="194.0" stroke="#000" stroke-width="3.2"/>
<polyline points="200.0,185.0 191.0,185.0 191.0,194.0" fill="none" stroke="#000" stroke-width="1.2"/>
<circle cx="200.0" cy="128.0" r="2.5" fill="#000"/>
<circle cx="112.0" cy="194.0" r="2.5" fill="#000"/>
<circle cx="288.0" cy="194.0" r="2.5" fill="#000"/>
<circle cx="200.0" cy="194.0" r="2.5" fill="#000"/>
<text x="204.0" y="118.0" font-size="13" text-anchor="middle" font-weight="bold">O</text>
<text x="98.0" y="199.0" font-size="13" text-anchor="middle" font-weight="bold">A</text>
<text x="302.0" y="199.0" font-size="13" text-anchor="middle" font-weight="bold">B</text>
<text x="206.0" y="211.0" font-size="13" text-anchor="middle" font-weight="bold">H</text>
<text x="160.6" y="180.5" font-size="12" text-anchor="middle">5cm</text>
<text x="214.0" y="165.2" font-size="12" text-anchor="middle">3cm</text>
<line x1="156.0" y1="189.5" x2="156.0" y2="198.5" stroke="#000" stroke-width="1.4"/>
<line x1="244.0" y1="189.5" x2="244.0" y2="198.5" stroke="#000" stroke-width="1.4"/>
<text x="200.0" y="230.0" font-size="14" text-anchor="middle" font-weight="bold">AB＝？</text>
<text x="200.0" y="288.0" font-size="12" text-anchor="middle">中心Oから弦ABへ垂線OH（3cm）＋半径OA（5cm）→直角三角形OAH</text>
<text x="200.0" y="305.0" font-size="12" text-anchor="middle">垂線は弦を2等分する（AH＝HB・同ティック）</text>
</svg>
