<svg xmlns="http://www.w3.org/2000/svg" viewBox="0 0 430 270">
<title>数直線上に√2を作図（手順①〜④）</title>
<desc>【この図の意図】主概念2の手順図。弧は折れ線サンプリング。①〜④を図中対応。【主要な数値・設定】O=0,垂線位置=1,高さ=1→OP=√2・交点x=√2厳密。【AIに同じ種類の図を描かせるときの説明文】「数直線上に√2を作図（手順①〜④）。主概念2の手順図。弧は折れ線サンプリング。①〜④を図中対応。数値・設定: O=0,垂線位置=1,高さ=1→OP=√2・交点x=√2厳密。白黒印刷向けのシンプルな教材図（SVG）としてかいて。」——この説明文を生成AIに渡せば同型の図を描かせられる。数値を変えれば類題用の図も作れる。</desc>
<!-- L06_fig2_sqrt2_on_numberline.svg | 数直線上に√2を作図（手順①〜④） -->
<!-- generated by assets_provenance/generate_figures.py on 2026-07-17 (docs/SPEC_figures.md準拠（内部規約の要旨は同SPECに反映済み）・SVG直接編集禁止/スクリプト改修で再生成) -->
<rect x="0" y="0" width="430" height="270" fill="#fff"/>
<line x1="21.5" y1="180.0" x2="329.5" y2="180.0" stroke="#000" stroke-width="1.4"/>
<line x1="319.5" y1="180.0" x2="327.0" y2="180.0" stroke="#000" stroke-width="1.4"/>
<polygon points="333.5,180.0 327.0,182.9 327.0,177.1" fill="#000"/>
<line x1="60.0" y1="184.9" x2="60.0" y2="175.1" stroke="#000" stroke-width="1.3"/>
<text x="60.0" y="202.0" font-size="13" text-anchor="middle">0</text>
<line x1="170.0" y1="184.9" x2="170.0" y2="175.1" stroke="#000" stroke-width="1.3"/>
<text x="170.0" y="202.0" font-size="13" text-anchor="middle">1</text>
<line x1="280.0" y1="184.9" x2="280.0" y2="175.1" stroke="#000" stroke-width="1.3"/>
<text x="280.0" y="202.0" font-size="13" text-anchor="middle">2</text>
<line x1="170.0" y1="180.0" x2="170.0" y2="50.2" stroke="#000" stroke-width="1.1" stroke-dasharray="6 4"/>
<line x1="170.0" y1="180.0" x2="170.0" y2="70.0" stroke="#000" stroke-width="1.6"/>
<polyline points="161.0,180.0 161.0,171.0 170.0,171.0" fill="none" stroke="#000" stroke-width="1.2"/>
<circle cx="170.0" cy="70.0" r="2.5" fill="#000"/>
<text x="184.0" y="64.0" font-size="13" text-anchor="middle" font-weight="bold">P</text>
<line x1="60.0" y1="180.0" x2="170.0" y2="70.0" stroke="#000" stroke-width="1.6"/>
<circle cx="60.0" cy="180.0" r="2.5" fill="#000"/>
<text x="54.0" y="170.0" font-size="13" text-anchor="middle" font-weight="bold">O</text>
<text x="109.9" y="113.8" font-size="14" text-anchor="middle">√2</text>
<text x="183.0" y="129.6" font-size="13" text-anchor="middle">1</text>
<polyline points="170.0,70.0 171.8,71.8 173.5,73.7 175.3,75.5 177.0,77.4 178.6,79.4 180.3,81.3 181.9,83.3 183.4,85.3 184.9,87.3 186.4,89.4 187.9,91.5 189.3,93.6 190.7,95.7 192.1,97.9 193.4,100.0 194.7,102.2 196.0,104.4 197.2,106.7 198.4,108.9 199.5,111.2 200.6,113.5 201.7,115.8 202.7,118.1 203.7,120.5 204.7,122.8 205.6,125.2 206.5,127.6 207.3,130.0 208.1,132.4 208.9,134.8 209.6,137.3 210.3,139.7 210.9,142.2 211.5,144.7 212.1,147.2 212.6,149.7 213.1,152.2 213.5,154.7 213.9,157.2 214.2,159.7 214.5,162.2 214.8,164.8 215.0,167.3 215.2,169.8 215.4,172.4 215.5,174.9 215.5,177.5 215.6,180.0" fill="none" stroke="#000" stroke-width="1.6"/>
<circle cx="215.6" cy="180.0" r="2.5" fill="#000"/>
<text x="219.6" y="202.0" font-size="13" text-anchor="middle" font-weight="bold">√2</text>
<text x="109.5" y="220.0" font-size="11" text-anchor="middle">①数直線に0と1</text>
<text x="168.0" y="42.2" font-size="11" text-anchor="middle">②1の点から垂線</text>
<text x="20.0" y="66.0" font-size="11" text-anchor="start">③高さ1の点P・斜辺OP</text>
<text x="225.5" y="97.5" font-size="11" text-anchor="start">④Oを中心に半径OPの弧</text>
<text x="215.0" y="252.0" font-size="12" text-anchor="middle">（コンパスで斜辺OPの長さ√2を数直線の上へ写し取る）</text>
</svg>
