<svg xmlns="http://www.w3.org/2000/svg" viewBox="0 0 430 240">
<title>練習3の作図例（2の位置から高さ1→点x）</title>
<desc>【この図の意図】練習3の与件図。xの正体は書かない。【主要な数値・設定】垂線位置=2,高さ=1→斜辺は厳密作図（値は答えのため非表示）・交点はx表記のみ。【AIに同じ種類の図を描かせるときの説明文】「練習3の作図例（2の位置から高さ1→点x）。練習3の与件図。xの正体は書かない。数値・設定: 垂線位置=2,高さ=1→斜辺は厳密作図（値は答えのため非表示）・交点はx表記のみ。白黒印刷向けのシンプルな教材図（SVG）としてかいて。」——この説明文を生成AIに渡せば同型の図を描かせられる。数値を変えれば類題用の図も作れる。</desc>
<!-- L06_fig3_practice_point_x.svg | 練習3の作図例（2の位置から高さ1→点x） -->
<!-- generated by assets_provenance/generate_figures.py on 2026-07-17 (docs/SPEC_figures.md準拠（内部規約の要旨は同SPECに反映済み）・SVG直接編集禁止/スクリプト改修で再生成) -->
<rect x="0" y="0" width="430" height="240" fill="#fff"/>
<line x1="22.4" y1="160.0" x2="303.0" y2="160.0" stroke="#000" stroke-width="1.4"/>
<line x1="293.0" y1="160.0" x2="300.5" y2="160.0" stroke="#000" stroke-width="1.4"/>
<polygon points="307.0,160.0 300.5,162.9 300.5,157.1" fill="#000"/>
<line x1="50.0" y1="164.6" x2="50.0" y2="155.4" stroke="#000" stroke-width="1.3"/>
<text x="50.0" y="182.0" font-size="13" text-anchor="middle">0</text>
<line x1="142.0" y1="164.6" x2="142.0" y2="155.4" stroke="#000" stroke-width="1.3"/>
<text x="142.0" y="182.0" font-size="13" text-anchor="middle">1</text>
<line x1="234.0" y1="164.6" x2="234.0" y2="155.4" stroke="#000" stroke-width="1.3"/>
<text x="234.0" y="182.0" font-size="13" text-anchor="middle">2</text>
<line x1="234.0" y1="160.0" x2="234.0" y2="55.1" stroke="#000" stroke-width="1.1" stroke-dasharray="6 4"/>
<line x1="234.0" y1="160.0" x2="234.0" y2="68.0" stroke="#000" stroke-width="1.6"/>
<polyline points="225.0,160.0 225.0,151.0 234.0,151.0" fill="none" stroke="#000" stroke-width="1.2"/>
<circle cx="234.0" cy="68.0" r="2.5" fill="#000"/>
<text x="248.0" y="62.0" font-size="13" text-anchor="middle" font-weight="bold">P</text>
<line x1="50.0" y1="160.0" x2="234.0" y2="68.0" stroke="#000" stroke-width="1.6"/>
<circle cx="50.0" cy="160.0" r="2.5" fill="#000"/>
<text x="44.0" y="150.0" font-size="13" text-anchor="middle" font-weight="bold">O</text>
<text x="221.0" y="118.5" font-size="13" text-anchor="middle">1</text>
<polyline points="234.0,68.0 234.9,69.8 235.7,71.6 236.6,73.4 237.4,75.2 238.2,77.0 239.0,78.8 239.8,80.6 240.6,82.5 241.3,84.3 242.0,86.2 242.7,88.0 243.4,89.9 244.1,91.8 244.7,93.6 245.4,95.5 246.0,97.4 246.6,99.3 247.1,101.2 247.7,103.1 248.2,105.0 248.8,107.0 249.3,108.9 249.7,110.8 250.2,112.7 250.7,114.7 251.1,116.6 251.5,118.6 251.9,120.5 252.3,122.5 252.6,124.4 253.0,126.4 253.3,128.3 253.6,130.3 253.8,132.3 254.1,134.2 254.3,136.2 254.6,138.2 254.8,140.2 254.9,142.1 255.1,144.1 255.2,146.1 255.4,148.1 255.5,150.1 255.6,152.1 255.6,154.0 255.7,156.0 255.7,158.0 255.7,160.0" fill="none" stroke="#000" stroke-width="1.6"/>
<circle cx="255.7" cy="160.0" r="2.5" fill="#000"/>
<text x="265.7" y="182.0" font-size="15" text-anchor="middle" font-weight="bold">x</text>
<text x="215.0" y="222.0" font-size="11" text-anchor="middle">（練習3: 2の位置から高さ1の垂線→斜辺を弧で数直線に写した点x。xはどんな数？）</text>
</svg>
