<svg xmlns="http://www.w3.org/2000/svg" viewBox="0 0 470 300">
<title>平面に取り出す2枚（底面ABCD→直角三角形ACG）</title>
<desc>【この図の意図】例題1手順②の図。1プレースホルダ=2パネル+流れ矢印で統合。【主要な数値・設定】底面4×3・CG=5・右パネル底辺AC=5は長さのみ厳密（値表記なし）。【AIに同じ種類の図を描かせるときの説明文】「平面に取り出す2枚（底面ABCD→直角三角形ACG）。例題1手順②の図。1プレースホルダ=2パネル+流れ矢印で統合。数値・設定: 底面4×3・CG=5・右パネル底辺AC=5は長さのみ厳密（値表記なし）。白黒印刷向けのシンプルな教材図（SVG）としてかいて。」——この説明文を生成AIに渡せば同型の図を描かせられる。数値を変えれば類題用の図も作れる。</desc>
<!-- L07_fig2_extracted_planes.svg | 平面に取り出す2枚（底面ABCD→直角三角形ACG） -->
<!-- generated by assets_provenance/generate_figures.py on 2026-07-17 (docs/SPEC_figures.md準拠（内部規約の要旨は同SPECに反映済み）・SVG直接編集禁止/スクリプト改修で再生成) -->
<rect x="0" y="0" width="470" height="300" fill="#fff"/>
<polygon points="40.0,200.0 160.0,200.0 160.0,110.0 40.0,110.0" fill="none" stroke="#000" stroke-width="1.6" stroke-linejoin="round"/>
<line x1="40.0" y1="200.0" x2="160.0" y2="110.0" stroke="#000" stroke-width="1.6"/>
<polyline points="151.0,200.0 151.0,191.0 160.0,191.0" fill="none" stroke="#000" stroke-width="1.2"/>
<text x="28.0" y="213.6" font-size="13" text-anchor="middle" font-weight="bold">A</text>
<text x="172.0" y="213.6" font-size="13" text-anchor="middle" font-weight="bold">B</text>
<text x="172.0" y="105.5" font-size="13" text-anchor="middle" font-weight="bold">C</text>
<text x="28.0" y="105.5" font-size="13" text-anchor="middle" font-weight="bold">D</text>
<text x="100.0" y="219.2" font-size="12" text-anchor="middle">4cm</text>
<text x="177.0" y="159.2" font-size="12" text-anchor="middle">3cm</text>
<text x="104.2" y="140.2" font-size="13" text-anchor="middle">AC</text>
<text x="100.0" y="250.0" font-size="12" text-anchor="middle" font-weight="bold">①底面を取り出す</text>
<text x="100.0" y="267.0" font-size="11" text-anchor="middle">（まずACを求める）</text>
<line x1="185.0" y1="150.0" x2="236.0" y2="150.0" stroke="#000" stroke-width="1.8"/>
<polygon points="245.0,150.0 236.0,154.1 236.0,145.9" fill="#000"/>
<text x="215.0" y="136.0" font-size="11" text-anchor="middle">次に</text>
<polygon points="270.0,222.0 400.0,222.0 400.0,92.0" fill="none" stroke="#000" stroke-width="1.6" stroke-linejoin="round"/>
<polyline points="391.0,222.0 391.0,213.0 400.0,213.0" fill="none" stroke="#000" stroke-width="1.2"/>
<text x="258.0" y="240.0" font-size="13" text-anchor="middle" font-weight="bold">A</text>
<text x="414.0" y="240.0" font-size="13" text-anchor="middle" font-weight="bold">C</text>
<text x="412.0" y="90.0" font-size="13" text-anchor="middle" font-weight="bold">G</text>
<text x="335.0" y="240.6" font-size="13" text-anchor="middle">AC</text>
<text x="384.0" y="161.2" font-size="12" text-anchor="middle">5cm</text>
<text x="325.1" y="152.4" font-size="15" text-anchor="middle" font-weight="bold">？</text>
<text x="335.0" y="266.0" font-size="12" text-anchor="middle" font-weight="bold">②直角三角形ACGを取り出す</text>
<text x="235.0" y="292.0" font-size="12" text-anchor="middle">（見取図から平面を2枚取り出す——三平方の定理を2回使う）</text>
</svg>
