<svg xmlns="http://www.w3.org/2000/svg" viewBox="0 0 430 358">
<title>直方体の対角線AG（見取図・平行投影）</title>
<desc>【この図の意図】例題1の見取図。隠線破線・AG太線・AC点線。AC・AGの値は非表示。【主要な数値・設定】AB=4,AD=3,AE=5・平行投影(奥行き係数0.55,0.42)。【AIに同じ種類の図を描かせるときの説明文】「直方体の対角線AG（見取図・平行投影）。例題1の見取図。隠線破線・AG太線・AC点線。AC・AGの値は非表示。数値・設定: AB=4,AD=3,AE=5・平行投影(奥行き係数0.55,0.42)。白黒印刷向けのシンプルな教材図（SVG）としてかいて。」——この説明文を生成AIに渡せば同型の図を描かせられる。数値を変えれば類題用の図も作れる。</desc>
<!-- L07_fig1_cuboid_diagonal.svg | 直方体の対角線AG（見取図・平行投影） -->
<!-- generated by assets_provenance/generate_figures.py on 2026-07-17 (docs/SPEC_figures.md準拠（内部規約の要旨は同SPECに反映済み）・SVG直接編集禁止/スクリプト改修で再生成) -->
<rect x="0" y="0" width="430" height="358" fill="#fff"/>
<line x1="70.0" y1="290.0" x2="139.3" y2="237.1" stroke="#000" stroke-width="1.1" stroke-dasharray="6 4"/>
<line x1="139.3" y1="237.1" x2="307.3" y2="237.1" stroke="#000" stroke-width="1.1" stroke-dasharray="6 4"/>
<line x1="139.3" y1="237.1" x2="139.3" y2="27.1" stroke="#000" stroke-width="1.1" stroke-dasharray="6 4"/>
<line x1="70.0" y1="290.0" x2="238.0" y2="290.0" stroke="#000" stroke-width="1.6"/>
<line x1="238.0" y1="290.0" x2="307.3" y2="237.1" stroke="#000" stroke-width="1.6"/>
<line x1="70.0" y1="290.0" x2="70.0" y2="80.0" stroke="#000" stroke-width="1.6"/>
<line x1="238.0" y1="290.0" x2="238.0" y2="80.0" stroke="#000" stroke-width="1.6"/>
<line x1="307.3" y1="237.1" x2="307.3" y2="27.1" stroke="#000" stroke-width="1.6"/>
<line x1="70.0" y1="80.0" x2="238.0" y2="80.0" stroke="#000" stroke-width="1.6"/>
<line x1="238.0" y1="80.0" x2="307.3" y2="27.1" stroke="#000" stroke-width="1.6"/>
<line x1="307.3" y1="27.1" x2="139.3" y2="27.1" stroke="#000" stroke-width="1.6"/>
<line x1="139.3" y1="27.1" x2="70.0" y2="80.0" stroke="#000" stroke-width="1.6"/>
<line x1="70.0" y1="290.0" x2="307.3" y2="237.1" stroke="#000" stroke-width="1.1" stroke-dasharray="3 3"/>
<line x1="70.0" y1="290.0" x2="307.3" y2="27.1" stroke="#000" stroke-width="3.2"/>
<text x="58.0" y="308.0" font-size="13" text-anchor="middle" font-weight="bold">A</text>
<text x="250.0" y="308.0" font-size="13" text-anchor="middle" font-weight="bold">B</text>
<text x="323.3" y="249.1" font-size="13" text-anchor="middle" font-weight="bold">C</text>
<text x="123.3" y="239.1" font-size="13" text-anchor="middle" font-weight="bold">D</text>
<text x="58.0" y="78.0" font-size="13" text-anchor="middle" font-weight="bold">E</text>
<text x="238.0" y="71.0" font-size="13" text-anchor="middle" font-weight="bold">F</text>
<text x="321.3" y="25.1" font-size="13" text-anchor="middle" font-weight="bold">G</text>
<text x="135.3" y="21.1" font-size="13" text-anchor="middle" font-weight="bold">H</text>
<text x="154.0" y="309.2" font-size="12" text-anchor="middle">4cm</text>
<text x="283.0" y="281.3" font-size="12" text-anchor="middle">3cm</text>
<text x="290.3" y="136.3" font-size="12" text-anchor="middle">5cm</text>
<text x="197.5" y="123.4" font-size="13" text-anchor="middle" font-weight="bold">AG＝？</text>
<text x="215.0" y="324.0" font-size="12" text-anchor="middle">対角線AG（太線）。底面の対角線AC（点線）が2つ目の三角形を作る</text>
<text x="215.0" y="341.0" font-size="12" text-anchor="middle">（例題1: 縦3cm・横4cm・高さ5cm。△ABCと△ACGの2階建て）</text>
</svg>
