<svg xmlns="http://www.w3.org/2000/svg" viewBox="0 0 460 330">
<title>円錐の高さ（半径3cm・母線9cm）</title>
<desc>【この図の意図】例題2の図。見取図+抜き出し平面図の併記（本文指定）。答えの高さは？表記。【主要な数値・設定】r=3,母線=9→高さは厳密実寸（値は答えのため非表示）・底面楕円の奥半分は破線。【AIに同じ種類の図を描かせるときの説明文】「円錐の高さ（半径3cm・母線9cm）。例題2の図。見取図+抜き出し平面図の併記（本文指定）。答えの高さは？表記。数値・設定: r=3,母線=9→高さは厳密実寸（値は答えのため非表示）・底面楕円の奥半分は破線。白黒印刷向けのシンプルな教材図（SVG）としてかいて。」——この説明文を生成AIに渡せば同型の図を描かせられる。数値を変えれば類題用の図も作れる。</desc>
<!-- L08_fig3_cone_height.svg | 円錐の高さ（半径3cm・母線9cm） -->
<!-- generated by assets_provenance/generate_figures.py on 2026-07-17 (docs/SPEC_figures.md準拠（内部規約の要旨は同SPECに反映済み）・SVG直接編集禁止/スクリプト改修で再生成) -->
<rect x="0" y="0" width="460" height="330" fill="#fff"/>
<polyline points="38.0,260.0 38.4,262.6 39.6,265.1 41.5,267.6 44.2,270.0 47.6,272.2 51.8,274.4 56.5,276.4 61.8,278.2 67.7,279.8 74.0,281.2 80.7,282.4 87.8,283.3 95.0,283.9 102.5,284.3 110.0,284.5 117.5,284.3 125.0,283.9 132.2,283.3 139.3,282.4 146.0,281.2 152.3,279.8 158.2,278.2 163.5,276.4 168.2,274.4 172.4,272.2 175.8,270.0 178.5,267.6 180.4,265.1 181.6,262.6 182.0,260.0" fill="none" stroke="#000" stroke-width="1.6"/>
<polyline points="182.0,260.0 181.6,257.4 180.4,254.9 178.5,252.4 175.8,250.0 172.4,247.8 168.2,245.6 163.5,243.6 158.2,241.8 152.3,240.2 146.0,238.8 139.3,237.6 132.2,236.7 125.0,236.1 117.5,235.7 110.0,235.5 102.5,235.7 95.0,236.1 87.8,236.7 80.7,237.6 74.0,238.8 67.7,240.2 61.8,241.8 56.5,243.6 51.8,245.6 47.6,247.8 44.2,250.0 41.5,252.4 39.6,254.9 38.4,257.4 38.0,260.0" fill="none" stroke="#000" stroke-width="1.1" stroke-dasharray="6 4"/>
<line x1="110.0" y1="56.4" x2="38.0" y2="260.0" stroke="#000" stroke-width="1.6"/>
<line x1="110.0" y1="56.4" x2="182.0" y2="260.0" stroke="#000" stroke-width="1.6"/>
<line x1="110.0" y1="56.4" x2="110.0" y2="260.0" stroke="#000" stroke-width="1.1" stroke-dasharray="6 4"/>
<line x1="110.0" y1="260.0" x2="182.0" y2="260.0" stroke="#000" stroke-width="1.6"/>
<polyline points="117.5,260.0 117.5,252.5 110.0,252.5" fill="none" stroke="#000" stroke-width="1.2"/>
<circle cx="110.0" cy="260.0" r="2.2" fill="#000"/>
<text x="146.0" y="279.2" font-size="12" text-anchor="middle">3cm</text>
<text x="157.5" y="146.9" font-size="12" text-anchor="middle">9cm</text>
<text x="98.0" y="148.0" font-size="13" text-anchor="end" font-weight="bold">高さ＝？</text>
<text x="110.0" y="296.0" font-size="12" text-anchor="middle">高さ⊥半径・斜辺＝母線</text>
<line x1="218.0" y1="150.0" x2="259.0" y2="150.0" stroke="#000" stroke-width="1.8"/>
<polygon points="268.0,150.0 259.0,154.1 259.0,145.9" fill="#000"/>
<polygon points="300.0,260.0 366.0,260.0 300.0,73.3" fill="none" stroke="#000" stroke-width="1.6" stroke-linejoin="round"/>
<polyline points="307.5,260.0 307.5,252.5 300.0,252.5" fill="none" stroke="#000" stroke-width="1.2"/>
<text x="333.0" y="279.2" font-size="12" text-anchor="middle">3cm</text>
<text x="351.4" y="174.9" font-size="12" text-anchor="middle">9cm</text>
<text x="287.0" y="171.9" font-size="15" text-anchor="middle" font-weight="bold">？</text>
<text x="343.0" y="296.0" font-size="12" text-anchor="middle">取り出した平面図</text>
<text x="230.0" y="320.0" font-size="12" text-anchor="middle">（例題2: 底面の半径3cm・母線9cmの円錐。高さを求める）</text>
</svg>
