<svg xmlns="http://www.w3.org/2000/svg" viewBox="0 0 470 312">
<title>平面に取り出す2枚（底面6cm→直角三角形OHA）</title>
<desc>【この図の意図】例題1手順②の図。1プレースホルダ=2パネル統合。答えのOHは？表記。【主要な数値・設定】底面1辺6・AC=6√2・AH=3√2・OA=5（OHの値は非表示・実寸）。【AIに同じ種類の図を描かせるときの説明文】「平面に取り出す2枚（底面6cm→直角三角形OHA）。例題1手順②の図。1プレースホルダ=2パネル統合。答えのOHは？表記。数値・設定: 底面1辺6・AC=6√2・AH=3√2・OA=5（OHの値は非表示・実寸）。白黒印刷向けのシンプルな教材図（SVG）としてかいて。」——この説明文を生成AIに渡せば同型の図を描かせられる。数値を変えれば類題用の図も作れる。</desc>
<!-- L08_fig2_pyramid_extracted_planes.svg | 平面に取り出す2枚（底面6cm→直角三角形OHA） -->
<!-- generated by assets_provenance/generate_figures.py on 2026-07-17 (docs/SPEC_figures.md準拠（内部規約の要旨は同SPECに反映済み）・SVG直接編集禁止/スクリプト改修で再生成) -->
<rect x="0" y="0" width="470" height="312" fill="#fff"/>
<polygon points="40.0,216.0 184.0,216.0 184.0,72.0 40.0,72.0" fill="none" stroke="#000" stroke-width="1.6" stroke-linejoin="round"/>
<line x1="40.0" y1="216.0" x2="184.0" y2="72.0" stroke="#000" stroke-width="1.6"/>
<line x1="184.0" y1="216.0" x2="40.0" y2="72.0" stroke="#000" stroke-width="1.1" stroke-dasharray="3 3"/>
<circle cx="112.0" cy="144.0" r="2.5" fill="#000"/>
<text x="29.4" y="231.2" font-size="13" text-anchor="middle" font-weight="bold">A</text>
<text x="194.6" y="231.2" font-size="13" text-anchor="middle" font-weight="bold">B</text>
<text x="194.6" y="65.9" font-size="13" text-anchor="middle" font-weight="bold">C</text>
<text x="29.4" y="65.9" font-size="13" text-anchor="middle" font-weight="bold">D</text>
<text x="126.0" y="156.0" font-size="13" text-anchor="middle" font-weight="bold">H</text>
<line x1="72.8" y1="176.8" x2="79.2" y2="183.2" stroke="#000" stroke-width="1.4"/>
<line x1="144.8" y1="104.8" x2="151.2" y2="111.2" stroke="#000" stroke-width="1.4"/>
<text x="112.0" y="235.2" font-size="12" text-anchor="middle">6cm</text>
<text x="58.2" y="180.4" font-size="11" text-anchor="middle">3√2cm</text>
<text x="130.2" y="108.4" font-size="11" text-anchor="middle">AC＝6√2cm</text>
<text x="112.0" y="260.0" font-size="12" text-anchor="middle" font-weight="bold">①底面を取り出す</text>
<text x="112.0" y="277.0" font-size="11" text-anchor="middle">（AH＝ACの半分＝3√2cm）</text>
<line x1="205.0" y1="140.0" x2="251.0" y2="140.0" stroke="#000" stroke-width="1.8"/>
<polygon points="260.0,140.0 251.0,144.1 251.0,135.9" fill="#000"/>
<polygon points="285.0,216.0 412.3,216.0 285.0,136.6" fill="none" stroke="#000" stroke-width="1.6" stroke-linejoin="round"/>
<polyline points="294.0,216.0 294.0,207.0 285.0,207.0" fill="none" stroke="#000" stroke-width="1.2"/>
<text x="273.0" y="234.0" font-size="13" text-anchor="middle" font-weight="bold">H</text>
<text x="424.3" y="234.0" font-size="13" text-anchor="middle" font-weight="bold">A</text>
<text x="273.0" y="134.6" font-size="13" text-anchor="middle" font-weight="bold">O</text>
<text x="348.6" y="235.2" font-size="12" text-anchor="middle">3√2cm</text>
<text x="340.2" y="194.1" font-size="12" text-anchor="middle">5cm</text>
<text x="298.0" y="181.6" font-size="15" text-anchor="middle" font-weight="bold">？</text>
<text x="348.6" y="260.0" font-size="12" text-anchor="middle" font-weight="bold">②直角三角形OHAを取り出す</text>
<text x="348.6" y="277.0" font-size="11" text-anchor="middle">（斜辺5cm・底辺3√2cm・高さOH）</text>
<text x="235.0" y="302.0" font-size="12" text-anchor="middle">（例題1手順②: 底面→直角三角形の2枚。OHを求める）</text>
</svg>
