<svg xmlns="http://www.w3.org/2000/svg" viewBox="0 0 430 330">
<title>正四角錐O-ABCD（底面6cm・側辺5cm）</title>
<desc>【この図の意図】例題1の見取図。h=√7の実寸で作図（低い錐が正しい姿）。OHは？。【主要な数値・設定】底面1辺6・OA=5→h=√7を3D厳密計算・平行投影。【AIに同じ種類の図を描かせるときの説明文】「正四角錐O-ABCD（底面6cm・側辺5cm）。例題1の見取図。h=√7の実寸で作図（低い錐が正しい姿）。OHは？。数値・設定: 底面1辺6・OA=5→h=√7を3D厳密計算・平行投影。白黒印刷向けのシンプルな教材図（SVG）としてかいて。」——この説明文を生成AIに渡せば同型の図を描かせられる。数値を変えれば類題用の図も作れる。</desc>
<!-- L08_fig1_square_pyramid.svg | 正四角錐O-ABCD（底面6cm・側辺5cm） -->
<!-- generated by assets_provenance/generate_figures.py on 2026-07-17 (docs/SPEC_figures.md準拠（内部規約の要旨は同SPECに反映済み）・SVG直接編集禁止/スクリプト改修で再生成) -->
<rect x="0" y="0" width="430" height="330" fill="#fff"/>
<line x1="70.0" y1="250.0" x2="182.2" y2="164.3" stroke="#000" stroke-width="1.1" stroke-dasharray="6 4"/>
<line x1="182.2" y1="164.3" x2="386.2" y2="164.3" stroke="#000" stroke-width="1.1" stroke-dasharray="6 4"/>
<line x1="228.1" y1="117.2" x2="182.2" y2="164.3" stroke="#000" stroke-width="1.1" stroke-dasharray="6 4"/>
<line x1="70.0" y1="250.0" x2="386.2" y2="164.3" stroke="#000" stroke-width="1.1" stroke-dasharray="3 3"/>
<line x1="228.1" y1="117.2" x2="228.1" y2="207.2" stroke="#000" stroke-width="1.1" stroke-dasharray="6 4"/>
<line x1="70.0" y1="250.0" x2="274.0" y2="250.0" stroke="#000" stroke-width="1.6"/>
<line x1="274.0" y1="250.0" x2="386.2" y2="164.3" stroke="#000" stroke-width="1.6"/>
<line x1="228.1" y1="117.2" x2="70.0" y2="250.0" stroke="#000" stroke-width="1.6"/>
<line x1="228.1" y1="117.2" x2="274.0" y2="250.0" stroke="#000" stroke-width="1.6"/>
<line x1="228.1" y1="117.2" x2="386.2" y2="164.3" stroke="#000" stroke-width="1.6"/>
<polyline points="228.1,199.7 220.9,201.6 220.9,209.1" fill="none" stroke="#000" stroke-width="1.2"/>
<circle cx="228.1" cy="207.2" r="2.2" fill="#000"/>
<text x="58.0" y="268.0" font-size="13" text-anchor="middle" font-weight="bold">A</text>
<text x="286.0" y="268.0" font-size="13" text-anchor="middle" font-weight="bold">B</text>
<text x="402.2" y="172.3" font-size="13" text-anchor="middle" font-weight="bold">C</text>
<text x="168.2" y="168.3" font-size="13" text-anchor="middle" font-weight="bold">D</text>
<text x="241.1" y="223.2" font-size="13" text-anchor="middle" font-weight="bold">H</text>
<text x="228.1" y="109.2" font-size="13" text-anchor="middle" font-weight="bold">O</text>
<text x="172.0" y="269.2" font-size="12" text-anchor="middle">6cm</text>
<text x="123.3" y="227.7" font-size="12" text-anchor="middle">5cm</text>
<text x="286.1" y="185.2" font-size="13" text-anchor="middle" font-weight="bold">OH＝？</text>
<text x="215.0" y="296.0" font-size="12" text-anchor="middle">高さOH（点線）：OH⊥底面，Hは対角線の交点＝ACの中点</text>
<text x="215.0" y="313.0" font-size="12" text-anchor="middle">（例題1: 底面1辺6cm・側面の辺5cmの正四角錐。実寸比の見取図）</text>
</svg>
