<svg xmlns="http://www.w3.org/2000/svg" viewBox="0 0 430 348">
<title>見渡せる距離（地球の断面と接線PT）</title>
<desc>【この図の意図】例題1の翻訳図。数値検算は実値6400/6402で実施。答えの距離は？表記。【主要な数値・設定】R=6400km,h=2km（表示はh誇張の模式図・接線関係は表示座標でも厳密）。【AIに同じ種類の図を描かせるときの説明文】「見渡せる距離（地球の断面と接線PT）。例題1の翻訳図。数値検算は実値6400/6402で実施。答えの距離は？表記。数値・設定: R=6400km,h=2km（表示はh誇張の模式図・接線関係は表示座標でも厳密）。白黒印刷向けのシンプルな教材図（SVG）としてかいて。」——この説明文を生成AIに渡せば同型の図を描かせられる。数値を変えれば類題用の図も作れる。</desc>
<!-- L09_fig1_horizon_tangent.svg | 見渡せる距離（地球の断面と接線PT） -->
<!-- generated by assets_provenance/generate_figures.py on 2026-07-17 (docs/SPEC_figures.md準拠（内部規約の要旨は同SPECに反映済み）・SVG直接編集禁止/スクリプト改修で再生成) -->
<rect x="0" y="0" width="430" height="348" fill="#fff"/>
<circle cx="175.0" cy="210.0" r="108.0" fill="none" stroke="#000" stroke-width="1.6"/>
<polyline points="149.0,105.2 165.0,78.0 175.0,52.0 187.0,84.0 201.0,107.5" fill="none" stroke="#000" stroke-width="1.2"/>
<line x1="175.0" y1="210.0" x2="175.0" y2="52.0" stroke="#000" stroke-width="1.1"/>
<line x1="175.0" y1="210.0" x2="253.8" y2="136.2" stroke="#000" stroke-width="1.6"/>
<line x1="175.0" y1="52.0" x2="253.8" y2="136.2" stroke="#000" stroke-width="1.1" stroke-dasharray="6 4"/>
<polyline points="248.0,141.6 242.5,135.8 248.4,130.3" fill="none" stroke="#000" stroke-width="1.2"/>
<circle cx="175.0" cy="210.0" r="2.5" fill="#000"/>
<text x="163.0" y="228.0" font-size="13" text-anchor="middle" font-weight="bold">O</text>
<circle cx="175.0" cy="52.0" r="2.5" fill="#000"/>
<text x="163.0" y="52.0" font-size="13" text-anchor="middle" font-weight="bold">P</text>
<circle cx="253.8" cy="136.2" r="2.5" fill="#000"/>
<text x="266.8" y="132.2" font-size="13" text-anchor="middle" font-weight="bold">T</text>
<text x="224.9" y="185.3" font-size="12" text-anchor="middle">6400km</text>
<text x="224.6" y="89.4" font-size="14" text-anchor="middle" font-weight="bold">d＝？</text>
<text x="141.0" y="84.0" font-size="11" text-anchor="end">高さ</text>
<text x="141.0" y="97.0" font-size="11" text-anchor="end">h＝2km</text>
<text x="167.0" y="143.6" font-size="11" text-anchor="end">OP＝6400＋2</text>
<text x="167.0" y="157.6" font-size="11" text-anchor="end">＝6402km</text>
<text x="215.0" y="330.0" font-size="12" text-anchor="middle">接線⊥半径（∠T＝90°）。見渡せる限界＝視線が地表をかすめる接点T</text>
<text x="215.0" y="347.0" font-size="11" text-anchor="middle">（例題1: d＝PTを求める。縮尺どおりではない——高さhを誇張した模式図）</text>
</svg>
