<svg xmlns="http://www.w3.org/2000/svg" viewBox="0 0 480 176" role="img">
<title>同訓異字・同音異義語を選ぶ共通手順①〜④のフローチャート</title>
<desc>L01主概念1（この単元の全レッスンで反復する共通手順）の流れ図。①文脈の意味を捉える→②同じ訓・同じ音の候補を思い浮かべる→③字の意味で見分ける→④辞書・用例で確かめる、の4つの箱を矢印でつなぎ、最後の④だけ太枠で強調してある。具体的な漢字の例は意図的に入れていない（設問の答えに触れないため）。同型図の描き方: 横一列に4つの角丸の箱を並べ、①〜④の手順文を入れて左から右へ矢印でつなぎ、④の箱だけ線を太くする。下にキャプション2行。白黒のみ・漢字の例は入れない。</desc>
<!-- L01_fig1_four_step_flow.svg | 同訓異字・同音異義語を選ぶ共通手順①〜④のフローチャート -->
<!-- generated by assets_provenance/generate_figures.py on 2026-07-17 (docs/SPEC_figures.md準拠（内部規約の要旨は同SPECに反映済み）・AI再利用メタ情報つき・SVG直接編集禁止/スクリプト改修で再生成) -->
<rect x="0" y="0" width="480" height="176" fill="#fff"/>
<text x="240.0" y="26.0" font-size="13" text-anchor="middle" font-weight="bold">同じ訓・同じ音のことばを選ぶ手順（毎回この型で）</text>
<rect x="4.0" y="52.0" width="108.0" height="54.0" rx="6" fill="#fff" stroke="#000" stroke-width="1.6"/>
<text x="58.0" y="73.4" font-size="10.5" text-anchor="middle">① 文脈の意味を</text>
<text x="58.0" y="87.9" font-size="10.5" text-anchor="middle">捉える</text>
<rect x="127.0" y="52.0" width="108.0" height="54.0" rx="6" fill="#fff" stroke="#000" stroke-width="1.6"/>
<text x="181.0" y="73.4" font-size="10.5" text-anchor="middle">② 同じ訓・同じ音の</text>
<text x="181.0" y="87.9" font-size="10.5" text-anchor="middle">候補を思い浮かべる</text>
<line x1="113.0" y1="79.0" x2="126.0" y2="79.0" stroke="#000" stroke-width="1.6"/>
<line x1="126.0" y1="79.0" x2="119.7" y2="82.1" stroke="#000" stroke-width="1.6"/>
<line x1="126.0" y1="79.0" x2="119.7" y2="75.9" stroke="#000" stroke-width="1.6"/>
<rect x="250.0" y="52.0" width="108.0" height="54.0" rx="6" fill="#fff" stroke="#000" stroke-width="1.6"/>
<text x="304.0" y="73.4" font-size="10.5" text-anchor="middle">③ 字の意味で</text>
<text x="304.0" y="87.9" font-size="10.5" text-anchor="middle">見分ける</text>
<line x1="236.0" y1="79.0" x2="249.0" y2="79.0" stroke="#000" stroke-width="1.6"/>
<line x1="249.0" y1="79.0" x2="242.7" y2="82.1" stroke="#000" stroke-width="1.6"/>
<line x1="249.0" y1="79.0" x2="242.7" y2="75.9" stroke="#000" stroke-width="1.6"/>
<rect x="373.0" y="52.0" width="108.0" height="54.0" rx="6" fill="#fff" stroke="#000" stroke-width="3.2"/>
<text x="427.0" y="73.4" font-size="10.5" text-anchor="middle" font-weight="bold">④ 辞書・用例で</text>
<text x="427.0" y="87.9" font-size="10.5" text-anchor="middle" font-weight="bold">確かめる</text>
<line x1="359.0" y1="79.0" x2="372.0" y2="79.0" stroke="#000" stroke-width="1.6"/>
<line x1="372.0" y1="79.0" x2="365.7" y2="82.1" stroke="#000" stroke-width="1.6"/>
<line x1="372.0" y1="79.0" x2="365.7" y2="75.9" stroke="#000" stroke-width="1.6"/>
<text x="240.0" y="134.0" font-size="12" text-anchor="middle">迷ったとき・決めきれないときほど④へ——確かめてから確定する</text>
<text x="240.0" y="158.0" font-size="10.5" text-anchor="middle">（選ぶときも、書くときも、読み直して直すときも、手順は同じ）</text>
</svg>
