<svg xmlns="http://www.w3.org/2000/svg" viewBox="0 0 480 224" role="img">
<title>音訓の対応図——熟語をほどく・編む（着席⇔席に着く）</title>
<desc>L02主概念2の双方向図。左列に音読みの熟語（着席・満足）、右列に訓読みの言い方（席に着く・満ちる/足りる）を箱で置き、右向き矢印「ほどく」と左向き矢印「編む」で結んで、音⇔訓の行き来を示す。例は本文の2組のみで、活動2の設問の答え（ほどく・編む問題で答えとなる語）は使っていない。同型図の描き方: 左右2列の箱を2段に並べ、各段を上下2本の逆向き矢印（上=ほどく・下=編む）でつなぎ、列見出しに「音読みの熟語」「訓読みの言い方」を置く。白黒のみ。</desc>
<!-- L02_fig2_on_kun_bridge.svg | 音訓の対応図——熟語をほどく・編む（着席⇔席に着く） -->
<!-- generated by assets_provenance/generate_figures.py on 2026-07-17 (docs/SPEC_figures.md準拠（内部規約の要旨は同SPECに反映済み）・AI再利用メタ情報つき・SVG直接編集禁止/スクリプト改修で再生成) -->
<rect x="0" y="0" width="480" height="224" fill="#fff"/>
<text x="122.0" y="30.0" font-size="11" text-anchor="middle" font-weight="bold">音読みの熟語</text>
<text x="365.0" y="30.0" font-size="11" text-anchor="middle" font-weight="bold">訓読みの言い方</text>
<rect x="57.0" y="52.0" width="130.0" height="42.0" rx="6" fill="#fff" stroke="#000" stroke-width="1.6"/>
<text x="122.0" y="76.2" font-size="15" text-anchor="middle" font-weight="bold">着席</text>
<rect x="275.0" y="52.0" width="180.0" height="42.0" rx="6" fill="#fff" stroke="#000" stroke-width="1.6"/>
<text x="365.0" y="75.9" font-size="14" text-anchor="middle">席に着く</text>
<line x1="193.0" y1="65.0" x2="269.0" y2="65.0" stroke="#000" stroke-width="1.4"/>
<line x1="269.0" y1="65.0" x2="262.7" y2="68.1" stroke="#000" stroke-width="1.4"/>
<line x1="269.0" y1="65.0" x2="262.7" y2="61.9" stroke="#000" stroke-width="1.4"/>
<line x1="269.0" y1="81.0" x2="193.0" y2="81.0" stroke="#000" stroke-width="1.4"/>
<line x1="193.0" y1="81.0" x2="199.3" y2="77.9" stroke="#000" stroke-width="1.4"/>
<line x1="193.0" y1="81.0" x2="199.3" y2="84.1" stroke="#000" stroke-width="1.4"/>
<text x="231.0" y="59.0" font-size="10.5" text-anchor="middle">ほどく</text>
<text x="231.0" y="95.0" font-size="10.5" text-anchor="middle">編む</text>
<rect x="57.0" y="118.0" width="130.0" height="42.0" rx="6" fill="#fff" stroke="#000" stroke-width="1.6"/>
<text x="122.0" y="142.2" font-size="15" text-anchor="middle" font-weight="bold">満足</text>
<rect x="275.0" y="118.0" width="180.0" height="42.0" rx="6" fill="#fff" stroke="#000" stroke-width="1.6"/>
<text x="365.0" y="141.9" font-size="14" text-anchor="middle">満ちる・足りる</text>
<line x1="193.0" y1="131.0" x2="269.0" y2="131.0" stroke="#000" stroke-width="1.4"/>
<line x1="269.0" y1="131.0" x2="262.7" y2="134.1" stroke="#000" stroke-width="1.4"/>
<line x1="269.0" y1="131.0" x2="262.7" y2="127.9" stroke="#000" stroke-width="1.4"/>
<line x1="269.0" y1="147.0" x2="193.0" y2="147.0" stroke="#000" stroke-width="1.4"/>
<line x1="193.0" y1="147.0" x2="199.3" y2="143.9" stroke="#000" stroke-width="1.4"/>
<line x1="193.0" y1="147.0" x2="199.3" y2="150.1" stroke="#000" stroke-width="1.4"/>
<text x="240.0" y="196.0" font-size="12" text-anchor="middle">音と訓を行き来できると、知っている言葉が網の目のようにつながる</text>
</svg>
