<svg xmlns="http://www.w3.org/2000/svg" viewBox="0 0 480 232" role="img">
<title>二字熟語・組み立ての五つの型（岩石・左右・温水・着席・国営）</title>
<desc>L02主概念1のパネル図。5枚のパネルに、①似た意味を重ねる（岩≒石）②対の意味を並べる（左⇔右）③上が下を説明する（温→水・温かい水）④下が上の対象になる（着←席・席に着く）⑤主語と述語の関係（国｜営・国が営む）を、漢字2字の箱＋関係記号＋短い説明で並置した。例語は本文の5語のみで、活動1の設問語（型当ての答え）は使っていない。冒頭に「呼び名や分け方は本によって少し異なる」の留保つき。同型図の描き方: 横に5枚の角丸パネルを並べ、各パネルに型名2行・漢字1字ずつの小箱2つとその間の関係記号（≒・⇔・→・←・｜）・下に組み立ての言い換えを置く。字はテキストで組み、字形を図形で描かない。白黒のみ。</desc>
<!-- L02_fig1_jukugo_five_types.svg | 二字熟語・組み立ての五つの型（岩石・左右・温水・着席・国営） -->
<!-- generated by assets_provenance/generate_figures.py on 2026-07-17 (docs/SPEC_figures.md準拠（内部規約の要旨は同SPECに反映済み）・AI再利用メタ情報つき・SVG直接編集禁止/スクリプト改修で再生成) -->
<rect x="0" y="0" width="480" height="232" fill="#fff"/>
<text x="240.0" y="24.0" font-size="13" text-anchor="middle" font-weight="bold">二字熟語・組み立ての五つの型</text>
<text x="240.0" y="42.0" font-size="10.5" text-anchor="middle">（呼び名や分け方は本によって少し異なる）</text>
<rect x="6.0" y="56.0" width="88.0" height="130.0" rx="6" fill="none" stroke="#000" stroke-width="1.6"/>
<text x="50.0" y="74.0" font-size="10.5" text-anchor="middle">① 似た意味を</text>
<text x="50.0" y="88.0" font-size="10.5" text-anchor="middle">重ねる</text>
<rect x="14.0" y="110.0" width="28.0" height="28.0" fill="none" stroke="#000" stroke-width="1.2"/>
<text x="28.0" y="130.0" font-size="17" text-anchor="middle" font-weight="bold">岩</text>
<text x="50.0" y="129.0" font-size="14" text-anchor="middle">≒</text>
<rect x="58.0" y="110.0" width="28.0" height="28.0" fill="none" stroke="#000" stroke-width="1.2"/>
<text x="72.0" y="130.0" font-size="17" text-anchor="middle" font-weight="bold">石</text>
<text x="50.0" y="168.0" font-size="10.5" text-anchor="middle">どちらも近い意味</text>
<rect x="101.0" y="56.0" width="88.0" height="130.0" rx="6" fill="none" stroke="#000" stroke-width="1.6"/>
<text x="145.0" y="74.0" font-size="10.5" text-anchor="middle">② 対の意味を</text>
<text x="145.0" y="88.0" font-size="10.5" text-anchor="middle">並べる</text>
<rect x="109.0" y="110.0" width="28.0" height="28.0" fill="none" stroke="#000" stroke-width="1.2"/>
<text x="123.0" y="130.0" font-size="17" text-anchor="middle" font-weight="bold">左</text>
<text x="145.0" y="129.0" font-size="14" text-anchor="middle">⇔</text>
<rect x="153.0" y="110.0" width="28.0" height="28.0" fill="none" stroke="#000" stroke-width="1.2"/>
<text x="167.0" y="130.0" font-size="17" text-anchor="middle" font-weight="bold">右</text>
<text x="145.0" y="168.0" font-size="10.5" text-anchor="middle">反対どうし</text>
<rect x="196.0" y="56.0" width="88.0" height="130.0" rx="6" fill="none" stroke="#000" stroke-width="1.6"/>
<text x="240.0" y="74.0" font-size="10.5" text-anchor="middle">③ 上が下を</text>
<text x="240.0" y="88.0" font-size="10.5" text-anchor="middle">説明する</text>
<rect x="204.0" y="110.0" width="28.0" height="28.0" fill="none" stroke="#000" stroke-width="1.2"/>
<text x="218.0" y="130.0" font-size="17" text-anchor="middle" font-weight="bold">温</text>
<text x="240.0" y="129.0" font-size="14" text-anchor="middle">→</text>
<rect x="248.0" y="110.0" width="28.0" height="28.0" fill="none" stroke="#000" stroke-width="1.2"/>
<text x="262.0" y="130.0" font-size="17" text-anchor="middle" font-weight="bold">水</text>
<text x="240.0" y="168.0" font-size="10.5" text-anchor="middle">温かい水</text>
<rect x="291.0" y="56.0" width="88.0" height="130.0" rx="6" fill="none" stroke="#000" stroke-width="1.6"/>
<text x="335.0" y="74.0" font-size="10.5" text-anchor="middle">④ 下が上の</text>
<text x="335.0" y="88.0" font-size="10.5" text-anchor="middle">対象になる</text>
<rect x="299.0" y="110.0" width="28.0" height="28.0" fill="none" stroke="#000" stroke-width="1.2"/>
<text x="313.0" y="130.0" font-size="17" text-anchor="middle" font-weight="bold">着</text>
<text x="335.0" y="129.0" font-size="14" text-anchor="middle">←</text>
<rect x="343.0" y="110.0" width="28.0" height="28.0" fill="none" stroke="#000" stroke-width="1.2"/>
<text x="357.0" y="130.0" font-size="17" text-anchor="middle" font-weight="bold">席</text>
<text x="335.0" y="168.0" font-size="10.5" text-anchor="middle">席に着く</text>
<rect x="386.0" y="56.0" width="88.0" height="130.0" rx="6" fill="none" stroke="#000" stroke-width="1.6"/>
<text x="430.0" y="74.0" font-size="10.5" text-anchor="middle">⑤ 主語と述語</text>
<text x="430.0" y="88.0" font-size="10.5" text-anchor="middle">の関係</text>
<rect x="394.0" y="110.0" width="28.0" height="28.0" fill="none" stroke="#000" stroke-width="1.2"/>
<text x="408.0" y="130.0" font-size="17" text-anchor="middle" font-weight="bold">国</text>
<text x="430.0" y="129.0" font-size="14" text-anchor="middle">｜</text>
<rect x="438.0" y="110.0" width="28.0" height="28.0" fill="none" stroke="#000" stroke-width="1.2"/>
<text x="452.0" y="130.0" font-size="17" text-anchor="middle" font-weight="bold">営</text>
<text x="430.0" y="168.0" font-size="10.5" text-anchor="middle">国が営む</text>
<text x="240.0" y="214.0" font-size="12" text-anchor="middle">型が分かれば、初めて見る熟語も組み立てから意味を推理できる</text>
</svg>
