<svg xmlns="http://www.w3.org/2000/svg" viewBox="0 0 480 258" role="img">
<title>漢字の部品（へん・つくり）分解図——部品は思い出すヒント</title>
<desc>L04主概念2の図。上段は氵（さんずい・水に関わる字が多い）で、氵＋永→泳、氵＋也→池。下段は扌（てへん・手の動作に関わる字が多い）で、扌＋寺→持、扌＋丁→打。部品と字はすべてテキスト要素の組み合わせで置き、字形を図形で自作していない（docs/SPEC_figures.md）。下の破線枠に「部品はヒント・例外もある・部品だけで決めつけない・仕上げは辞書」の注記。例字は本単元の設問の答えの字（あける・かえす・うつす・なおす等の書き分けの題材）を避けて選んである。同型図の描き方: 2段のカード（部品の大きな字＋名前＋『〜が多い』の傾向）と、右側に『部品＋部品→字』の小箱の式を2つずつ並べ、最下部に破線枠の注記を置く。字はすべてテキストで組む。白黒のみ・断定表現禁止。</desc>
<!-- L04_fig1_parts_hint.svg | 漢字の部品（へん・つくり）分解図——部品は思い出すヒント -->
<!-- generated by assets_provenance/generate_figures.py on 2026-07-17 (docs/SPEC_figures.md準拠（内部規約の要旨は同SPECに反映済み）・AI再利用メタ情報つき・SVG直接編集禁止/スクリプト改修で再生成) -->
<rect x="0" y="0" width="480" height="258" fill="#fff"/>
<text x="240.0" y="26.0" font-size="13" text-anchor="middle" font-weight="bold">字の部品は「思い出すヒント」</text>
<rect x="12.0" y="38.0" width="140.0" height="62.0" rx="6" fill="none" stroke="#000" stroke-width="1.6"/>
<text x="46.0" y="68.0" font-size="24" text-anchor="middle" font-weight="bold">氵</text>
<text x="100.0" y="60.0" font-size="10.5" text-anchor="middle">（さんずい）</text>
<text x="82.0" y="86.0" font-size="10.5" text-anchor="middle">水に関わる字が多い</text>
<rect x="166.0" y="47.0" width="28.0" height="28.0" fill="none" stroke="#000" stroke-width="1.2"/>
<text x="180.0" y="68.0" font-size="16" text-anchor="middle">氵</text>
<text x="205.0" y="66.0" font-size="13" text-anchor="middle">＋</text>
<rect x="216.0" y="47.0" width="28.0" height="28.0" fill="none" stroke="#000" stroke-width="1.2"/>
<text x="230.0" y="68.0" font-size="16" text-anchor="middle">永</text>
<line x1="250.0" y1="61.0" x2="266.0" y2="61.0" stroke="#000" stroke-width="1.3"/>
<line x1="266.0" y1="61.0" x2="261.1" y2="63.4" stroke="#000" stroke-width="1.3"/>
<line x1="266.0" y1="61.0" x2="261.1" y2="58.6" stroke="#000" stroke-width="1.3"/>
<rect x="270.0" y="43.0" width="36.0" height="36.0" fill="none" stroke="#000" stroke-width="3.2"/>
<text x="288.0" y="70.0" font-size="20" text-anchor="middle" font-weight="bold">泳</text>
<rect x="336.0" y="47.0" width="28.0" height="28.0" fill="none" stroke="#000" stroke-width="1.2"/>
<text x="350.0" y="68.0" font-size="16" text-anchor="middle">氵</text>
<text x="375.0" y="66.0" font-size="13" text-anchor="middle">＋</text>
<rect x="386.0" y="47.0" width="28.0" height="28.0" fill="none" stroke="#000" stroke-width="1.2"/>
<text x="400.0" y="68.0" font-size="16" text-anchor="middle">也</text>
<line x1="420.0" y1="61.0" x2="436.0" y2="61.0" stroke="#000" stroke-width="1.3"/>
<line x1="436.0" y1="61.0" x2="431.1" y2="63.4" stroke="#000" stroke-width="1.3"/>
<line x1="436.0" y1="61.0" x2="431.1" y2="58.6" stroke="#000" stroke-width="1.3"/>
<rect x="440.0" y="43.0" width="36.0" height="36.0" fill="none" stroke="#000" stroke-width="3.2"/>
<text x="458.0" y="70.0" font-size="20" text-anchor="middle" font-weight="bold">池</text>
<rect x="12.0" y="120.0" width="140.0" height="62.0" rx="6" fill="none" stroke="#000" stroke-width="1.6"/>
<text x="46.0" y="150.0" font-size="24" text-anchor="middle" font-weight="bold">扌</text>
<text x="100.0" y="142.0" font-size="10.5" text-anchor="middle">（てへん）</text>
<text x="82.0" y="168.0" font-size="10.5" text-anchor="middle">手の動作に関わる字が多い</text>
<rect x="166.0" y="129.0" width="28.0" height="28.0" fill="none" stroke="#000" stroke-width="1.2"/>
<text x="180.0" y="150.0" font-size="16" text-anchor="middle">扌</text>
<text x="205.0" y="148.0" font-size="13" text-anchor="middle">＋</text>
<rect x="216.0" y="129.0" width="28.0" height="28.0" fill="none" stroke="#000" stroke-width="1.2"/>
<text x="230.0" y="150.0" font-size="16" text-anchor="middle">寺</text>
<line x1="250.0" y1="143.0" x2="266.0" y2="143.0" stroke="#000" stroke-width="1.3"/>
<line x1="266.0" y1="143.0" x2="261.1" y2="145.4" stroke="#000" stroke-width="1.3"/>
<line x1="266.0" y1="143.0" x2="261.1" y2="140.6" stroke="#000" stroke-width="1.3"/>
<rect x="270.0" y="125.0" width="36.0" height="36.0" fill="none" stroke="#000" stroke-width="3.2"/>
<text x="288.0" y="152.0" font-size="20" text-anchor="middle" font-weight="bold">持</text>
<rect x="336.0" y="129.0" width="28.0" height="28.0" fill="none" stroke="#000" stroke-width="1.2"/>
<text x="350.0" y="150.0" font-size="16" text-anchor="middle">扌</text>
<text x="375.0" y="148.0" font-size="13" text-anchor="middle">＋</text>
<rect x="386.0" y="129.0" width="28.0" height="28.0" fill="none" stroke="#000" stroke-width="1.2"/>
<text x="400.0" y="150.0" font-size="16" text-anchor="middle">丁</text>
<line x1="420.0" y1="143.0" x2="436.0" y2="143.0" stroke="#000" stroke-width="1.3"/>
<line x1="436.0" y1="143.0" x2="431.1" y2="145.4" stroke="#000" stroke-width="1.3"/>
<line x1="436.0" y1="143.0" x2="431.1" y2="140.6" stroke="#000" stroke-width="1.3"/>
<rect x="440.0" y="125.0" width="36.0" height="36.0" fill="none" stroke="#000" stroke-width="3.2"/>
<text x="458.0" y="152.0" font-size="20" text-anchor="middle" font-weight="bold">打</text>
<rect x="10.0" y="196.0" width="460.0" height="44.0" rx="6" fill="none" stroke="#000" stroke-width="1.1" stroke-dasharray="6 4"/>
<text x="240.0" y="214.0" font-size="10.5" text-anchor="middle">※部品は、候補を思い出す・意味を確かめるためのヒント。例外もあるので、</text>
<text x="240.0" y="230.0" font-size="10.5" text-anchor="middle">部品だけで字を決めつけない。仕上げはいつも辞書。</text>
</svg>
