<svg xmlns="http://www.w3.org/2000/svg" viewBox="0 0 440 252" role="img">
<title>熟語ネットワーク——核の字「決」からの枝分かれ</title>
<desc>L05主概念1のネットワーク図。中央の太枠の円に核の字「決」と核の意味「きめる・きまる」、そこから4本の枝が決定・決心・解決・多数決の箱へ伸びる（いずれも本文に明記された例語のみ）。上下への破線の枝と「…」で、枝がまだ増やせることを示す。問2・問3で扱う別の核の字のネットワークは、答えにあたるため描いていない。同型図の描き方: 中央に太枠の円（核の字＋かなの核の意味）、四隅へ実線の枝と語の箱、上下に破線の枝と三点リーダを描く。白黒のみ。</desc>
<!-- L05_fig1_kaku_network.svg | 熟語ネットワーク——核の字「決」からの枝分かれ -->
<!-- generated by assets_provenance/generate_figures.py on 2026-07-17 (docs/SPEC_figures.md準拠（内部規約の要旨は同SPECに反映済み）・AI再利用メタ情報つき・SVG直接編集禁止/スクリプト改修で再生成) -->
<rect x="0" y="0" width="440" height="252" fill="#fff"/>
<line x1="220.0" y1="128.0" x2="84.0" y2="56.0" stroke="#000" stroke-width="1.3"/>
<rect x="38.0" y="39.0" width="92.0" height="34.0" rx="6" fill="#fff" stroke="#000" stroke-width="1.6"/>
<text x="84.0" y="58.9" font-size="14" text-anchor="middle" font-weight="bold">決定</text>
<line x1="220.0" y1="128.0" x2="356.0" y2="56.0" stroke="#000" stroke-width="1.3"/>
<rect x="310.0" y="39.0" width="92.0" height="34.0" rx="6" fill="#fff" stroke="#000" stroke-width="1.6"/>
<text x="356.0" y="58.9" font-size="14" text-anchor="middle" font-weight="bold">決心</text>
<line x1="220.0" y1="128.0" x2="84.0" y2="200.0" stroke="#000" stroke-width="1.3"/>
<rect x="38.0" y="183.0" width="92.0" height="34.0" rx="6" fill="#fff" stroke="#000" stroke-width="1.6"/>
<text x="84.0" y="202.9" font-size="14" text-anchor="middle" font-weight="bold">解決</text>
<line x1="220.0" y1="128.0" x2="356.0" y2="200.0" stroke="#000" stroke-width="1.3"/>
<rect x="310.0" y="183.0" width="92.0" height="34.0" rx="6" fill="#fff" stroke="#000" stroke-width="1.6"/>
<text x="356.0" y="202.9" font-size="14" text-anchor="middle" font-weight="bold">多数決</text>
<line x1="220.0" y1="128.0" x2="220.0" y2="202.0" stroke="#777" stroke-width="1.1" stroke-dasharray="4 4"/>
<text x="220.0" y="214.0" font-size="14" text-anchor="middle">…</text>
<line x1="220.0" y1="128.0" x2="220.0" y2="54.0" stroke="#777" stroke-width="1.1" stroke-dasharray="4 4"/>
<text x="220.0" y="48.0" font-size="14" text-anchor="middle">…</text>
<circle cx="220" cy="128" r="40" fill="#fff" stroke="#000" stroke-width="3.2"/>
<text x="220.0" y="130.0" font-size="24" text-anchor="middle" font-weight="bold">決</text>
<text x="220.0" y="150.0" font-size="9.5" text-anchor="middle">きめる・きまる</text>
<text x="220.0" y="240.0" font-size="10.5" text-anchor="middle">どの枝にも核の意味の芯が通っている——語彙は一語ずつでなく網ごと増やす</text>
</svg>
