<svg xmlns="http://www.w3.org/2000/svg" viewBox="0 0 440 248" role="img">
<title>和語・漢語・外来語の三層図（昼ごはん・昼食・ランチ）</title>
<desc>L05主概念2（と中3出口）の三層図。和語（昔から日本にある言い方・例: 昼ごはん——『ごはん』は漢語由来を含むため厳密には混種語とする考え方もある）、漢語（漢字の音で読む言い方・例: 昼食）、外来語（外国の言葉から取り入れた言い方・例: ランチ）を3段の帯で並べ、例語どうしを両向き矢印でつないで「近い内容の別の言い方」であることを示す。下に「調子や場面は変わることが多い・どれか一つだけが正しいわけではない」の留保。例はstretch S1の設問文にすでに例示されている1組のみで、解答例の組は使っていない。同型図の描き方: 3段×3列（層の名前／説明／例語）の帯を描き、例語の列を縦の両向き矢印でつなぎ、最下部に留保のキャプション2行を置く。白黒のみ・断定表現禁止。</desc>
<!-- L05_fig2_sanso_three_layers.svg | 和語・漢語・外来語の三層図（昼ごはん・昼食・ランチ） -->
<!-- generated by assets_provenance/generate_figures.py on 2026-07-17 (docs/SPEC_figures.md準拠（内部規約の要旨は同SPECに反映済み）・AI再利用メタ情報つき・SVG直接編集禁止/スクリプト改修で再生成) -->
<rect x="0" y="0" width="440" height="248" fill="#fff"/>
<text x="220.0" y="24.0" font-size="13" text-anchor="middle" font-weight="bold">近い内容の三つの言い方——和語・漢語・外来語</text>
<rect x="16.0" y="44.0" width="96.0" height="44.0" rx="6" fill="none" stroke="#000" stroke-width="1.6"/>
<text x="64.0" y="71.0" font-size="14" text-anchor="middle" font-weight="bold">和語</text>
<rect x="120.0" y="44.0" width="196.0" height="44.0" rx="6" fill="none" stroke="#000" stroke-width="1.2"/>
<text x="218.0" y="70.0" font-size="10.5" text-anchor="middle">昔から日本にある言い方</text>
<rect x="324.0" y="44.0" width="100.0" height="44.0" rx="6" fill="none" stroke="#000" stroke-width="1.6"/>
<text x="374.0" y="71.0" font-size="13" text-anchor="middle" font-weight="bold">昼ごはん</text>
<rect x="16.0" y="102.0" width="96.0" height="44.0" rx="6" fill="none" stroke="#000" stroke-width="1.6"/>
<text x="64.0" y="129.0" font-size="14" text-anchor="middle" font-weight="bold">漢語</text>
<rect x="120.0" y="102.0" width="196.0" height="44.0" rx="6" fill="none" stroke="#000" stroke-width="1.2"/>
<text x="218.0" y="128.0" font-size="10.5" text-anchor="middle">漢字の音で読む言い方</text>
<rect x="324.0" y="102.0" width="100.0" height="44.0" rx="6" fill="none" stroke="#000" stroke-width="1.6"/>
<text x="374.0" y="129.0" font-size="13" text-anchor="middle" font-weight="bold">昼食</text>
<line x1="374.0" y1="90.0" x2="374.0" y2="100.0" stroke="#000" stroke-width="1.3"/>
<line x1="374.0" y1="100.0" x2="371.8" y2="95.5" stroke="#000" stroke-width="1.3"/>
<line x1="374.0" y1="100.0" x2="376.2" y2="95.5" stroke="#000" stroke-width="1.3"/>
<line x1="374.0" y1="90.0" x2="376.2" y2="94.5" stroke="#000" stroke-width="1.3"/>
<line x1="374.0" y1="90.0" x2="371.8" y2="94.5" stroke="#000" stroke-width="1.3"/>
<rect x="16.0" y="160.0" width="96.0" height="44.0" rx="6" fill="none" stroke="#000" stroke-width="1.6"/>
<text x="64.0" y="187.0" font-size="14" text-anchor="middle" font-weight="bold">外来語</text>
<rect x="120.0" y="160.0" width="196.0" height="44.0" rx="6" fill="none" stroke="#000" stroke-width="1.2"/>
<text x="218.0" y="186.0" font-size="10.5" text-anchor="middle">外国の言葉から取り入れた言い方</text>
<rect x="324.0" y="160.0" width="100.0" height="44.0" rx="6" fill="none" stroke="#000" stroke-width="1.6"/>
<text x="374.0" y="187.0" font-size="13" text-anchor="middle" font-weight="bold">ランチ</text>
<line x1="374.0" y1="148.0" x2="374.0" y2="158.0" stroke="#000" stroke-width="1.3"/>
<line x1="374.0" y1="158.0" x2="371.8" y2="153.5" stroke="#000" stroke-width="1.3"/>
<line x1="374.0" y1="158.0" x2="376.2" y2="153.5" stroke="#000" stroke-width="1.3"/>
<line x1="374.0" y1="148.0" x2="376.2" y2="152.5" stroke="#000" stroke-width="1.3"/>
<line x1="374.0" y1="148.0" x2="371.8" y2="152.5" stroke="#000" stroke-width="1.3"/>
<text x="220.0" y="224.0" font-size="10.5" text-anchor="middle">内容は近くても、文の調子や使われやすい場面は変わることが多い。</text>
<text x="220.0" y="240.0" font-size="10.5" text-anchor="middle">どれか一つだけが正しいわけではない——場面に合わせて選ぶ。</text>
</svg>
