<svg xmlns="http://www.w3.org/2000/svg" viewBox="0 0 480 216" role="img">
<title>「知っている語」を「使える語」へ——産出と辞書用例の段階図</title>
<desc>L06主概念2の段階図。「知っている語（読める・意味が分かる）」から「自分の文で一度使う」の矢印を経て「使える語（必要なとき思い出せる・太枠）」へ進み、破線の矢印で「使い慣れる（中3の目標へ）」につながる。下から「辞書の用例＝使われ方のお手本」の箱が点線で「使える語」を支える（書いたら用例と見比べる）。設問の答えに触れないよう、図には具体的な語例を置いていない。同型図の描き方: 横一列の3つの箱（2つ目を太枠・3つ目を破線枠）を矢印でつなぎ、矢印ラベルに「自分の文で一度使う」、下に用例の箱と上向き点線矢印を置く。白黒のみ・語例なし。</desc>
<!-- L06_fig1_know_to_use.svg | 「知っている語」を「使える語」へ——産出と辞書用例の段階図 -->
<!-- generated by assets_provenance/generate_figures.py on 2026-07-17 (docs/SPEC_figures.md準拠（内部規約の要旨は同SPECに反映済み）・AI再利用メタ情報つき・SVG直接編集禁止/スクリプト改修で再生成) -->
<rect x="0" y="0" width="480" height="216" fill="#fff"/>
<text x="240.0" y="26.0" font-size="13" text-anchor="middle" font-weight="bold">「知っている」から「使える」へ</text>
<rect x="6.0" y="56.0" width="136.0" height="62.0" rx="6" fill="#fff" stroke="#000" stroke-width="1.6"/>
<text x="74.0" y="74.2" font-size="10.5" text-anchor="middle">知っている語</text>
<text x="74.0" y="88.7" font-size="10.5" text-anchor="middle">（読める・</text>
<text x="74.0" y="103.2" font-size="10.5" text-anchor="middle">意味が分かる）</text>
<line x1="144.0" y1="87.0" x2="198.0" y2="87.0" stroke="#000" stroke-width="1.6"/>
<line x1="198.0" y1="87.0" x2="191.7" y2="90.1" stroke="#000" stroke-width="1.6"/>
<line x1="198.0" y1="87.0" x2="191.7" y2="83.9" stroke="#000" stroke-width="1.6"/>
<text x="171.0" y="75.0" font-size="10.5" text-anchor="middle">自分の文で</text>
<text x="171.0" y="111.0" font-size="10.5" text-anchor="middle">一度使う</text>
<rect x="200.0" y="56.0" width="128.0" height="62.0" rx="6" fill="#fff" stroke="#000" stroke-width="3.2"/>
<text x="264.0" y="74.2" font-size="10.5" text-anchor="middle" font-weight="bold">使える語</text>
<text x="264.0" y="88.7" font-size="10.5" text-anchor="middle" font-weight="bold">（必要なとき</text>
<text x="264.0" y="103.2" font-size="10.5" text-anchor="middle" font-weight="bold">思い出せる）</text>
<line x1="330.0" y1="87.0" x2="378.0" y2="87.0" stroke="#000" stroke-width="1.4" stroke-dasharray="6 4"/>
<line x1="378.0" y1="87.0" x2="371.7" y2="90.1" stroke="#000" stroke-width="1.4"/>
<line x1="378.0" y1="87.0" x2="371.7" y2="83.9" stroke="#000" stroke-width="1.4"/>
<rect x="382.0" y="56.0" width="92.0" height="62.0" rx="6" fill="#fff" stroke="#000" stroke-width="1.6" stroke-dasharray="6 4"/>
<text x="428.0" y="81.4" font-size="10.5" text-anchor="middle">使い慣れる</text>
<text x="428.0" y="95.9" font-size="10.5" text-anchor="middle">（中3の目標へ）</text>
<rect x="162.0" y="152.0" width="204.0" height="34.0" rx="6" fill="#fff" stroke="#000" stroke-width="1.6"/>
<text x="264.0" y="170.7" font-size="10.5" text-anchor="middle">辞書の用例＝使われ方のお手本</text>
<line x1="264.0" y1="150.0" x2="264.0" y2="120.0" stroke="#000" stroke-width="1.3" stroke-dasharray="3 3"/>
<line x1="264.0" y1="120.0" x2="267.1" y2="126.3" stroke="#000" stroke-width="1.3"/>
<line x1="264.0" y1="120.0" x2="260.9" y2="126.3" stroke="#000" stroke-width="1.3"/>
<text x="240.0" y="206.0" font-size="10.5" text-anchor="middle">書いたら用例と見比べる——生活の文脈に一度のせた語は思い出しやすい</text>
</svg>
