<svg xmlns="http://www.w3.org/2000/svg" viewBox="0 0 480 258" role="img">
<title>読み直し点検のフローチャート——点検の目3つと結論</title>
<desc>L07主概念1の流れ図。「書いた文」から破線枠のコンテナ「点検の目（3つ）」へ進む。中身は①同じ訓・同じ音の語がひそんでいないか探す②その字の意味が文脈と合っているか確かめる③迷ったら辞書を引く。出口は太枠の箱「直す または『誤りなし』と判断」で、どちらの結論でも理由を言えることを添える（活動1は誤りがあるとは限らない設計のため、『誤りなし』も正当な結論として描く）。校正問題の答えの字は図に入れていない。同型図の描き方: 左から「書いた文」の箱→破線の大枠（中に点検項目の箱3つを縦に並べる）→太枠の結論の箱を矢印でつなぐ。白黒のみ・具体的な字例なし。</desc>
<!-- L07_fig1_proofread_checklist.svg | 読み直し点検のフローチャート——点検の目3つと結論 -->
<!-- generated by assets_provenance/generate_figures.py on 2026-07-17 (docs/SPEC_figures.md準拠（内部規約の要旨は同SPECに反映済み）・AI再利用メタ情報つき・SVG直接編集禁止/スクリプト改修で再生成) -->
<rect x="0" y="0" width="480" height="258" fill="#fff"/>
<text x="240.0" y="24.0" font-size="13" text-anchor="middle" font-weight="bold">書いたら読み直す——点検の目</text>
<rect x="8.0" y="96.0" width="84.0" height="52.0" rx="6" fill="#fff" stroke="#000" stroke-width="1.6"/>
<text x="50.0" y="123.8" font-size="11" text-anchor="middle">書いた文</text>
<line x1="94.0" y1="122.0" x2="108.0" y2="122.0" stroke="#000" stroke-width="1.6"/>
<line x1="108.0" y1="122.0" x2="101.7" y2="125.1" stroke="#000" stroke-width="1.6"/>
<line x1="108.0" y1="122.0" x2="101.7" y2="118.9" stroke="#000" stroke-width="1.6"/>
<rect x="112.0" y="42.0" width="258.0" height="168.0" rx="8" fill="none" stroke="#000" stroke-width="1.1" stroke-dasharray="6 4"/>
<text x="241.0" y="60.0" font-size="10.5" text-anchor="middle" font-weight="bold">点検の目（3つ）</text>
<rect x="122.0" y="68.0" width="238.0" height="40.0" rx="5" fill="#fff" stroke="#000" stroke-width="1.6"/>
<text x="241.0" y="82.4" font-size="10.5" text-anchor="middle">① 同じ訓・同じ音の語が</text>
<text x="241.0" y="96.9" font-size="10.5" text-anchor="middle">ひそんでいないか探す</text>
<rect x="122.0" y="114.0" width="238.0" height="40.0" rx="5" fill="#fff" stroke="#000" stroke-width="1.6"/>
<text x="241.0" y="128.4" font-size="10.5" text-anchor="middle">② その字の意味が文脈と</text>
<text x="241.0" y="142.9" font-size="10.5" text-anchor="middle">合っているか確かめる</text>
<rect x="122.0" y="160.0" width="238.0" height="30.0" rx="5" fill="#fff" stroke="#000" stroke-width="1.6"/>
<text x="241.0" y="176.7" font-size="10.5" text-anchor="middle">③ 迷ったら辞書を引く</text>
<line x1="372.0" y1="122.0" x2="386.0" y2="122.0" stroke="#000" stroke-width="1.6"/>
<line x1="386.0" y1="122.0" x2="379.7" y2="125.1" stroke="#000" stroke-width="1.6"/>
<line x1="386.0" y1="122.0" x2="379.7" y2="118.9" stroke="#000" stroke-width="1.6"/>
<rect x="388.0" y="84.0" width="86.0" height="76.0" rx="6" fill="#fff" stroke="#000" stroke-width="3.2"/>
<text x="431.0" y="109.2" font-size="10.5" text-anchor="middle" font-weight="bold">直す　または</text>
<text x="431.0" y="123.7" font-size="10.5" text-anchor="middle" font-weight="bold">「誤りなし」</text>
<text x="431.0" y="138.2" font-size="10.5" text-anchor="middle" font-weight="bold">と判断</text>
<text x="431.0" y="176.0" font-size="10.5" text-anchor="middle">どちらの結論でも</text>
<text x="431.0" y="190.0" font-size="10.5" text-anchor="middle">理由を言えること</text>
<text x="240.0" y="232.0" font-size="10.5" text-anchor="middle">誤りを自分で見つけて直せる目は、はじめから正しく書ける手と同じくらい価値がある</text>
</svg>
