<svg xmlns="http://www.w3.org/2000/svg" viewBox="0 0 480 300" role="img">
<title>的当てスコアのヒストグラム（階級幅2点・山が2つ）</title>
<desc>L05主概念1の前半図。40人の的当てスコア（架空の練習用データ）を階級幅2点で整理したヒストグラム。横軸0〜20点・縦軸度数。山が2つあり、あいだの階級がへこんでいる——2つのグループがありそうだと読みたくなる形。度数は40個の生データから再集計して本文の表と一致をassert検算済み。同じ生データから幅8の図（L05_fig2）も生成しており、2枚は同一データである。再現指示: 幅2の柱をすき間なく並べ、2つの頂上とあいだの谷が見える形にする。棒は薄いグレー塗り＋黒枠。白黒のみ。</desc>
<!-- L05_fig1_hist_width2.svg | 的当てスコアのヒストグラム（階級幅2点・山が2つ） -->
<!-- generated by assets_provenance/generate_figures.py on 2026-07-18 (quartiles-boxplot単元と同一様式・AI再利用メタ情報つき・SVG直接編集禁止/スクリプト改修で再生成) -->
<rect x="0" y="0" width="480" height="300" fill="#fff"/>
<line x1="60.0" y1="240.0" x2="450.0" y2="240.0" stroke="#000" stroke-width="1.2"/>
<line x1="60.0" y1="234.0" x2="60.0" y2="246.0" stroke="#000" stroke-width="0.9"/>
<line x1="99.0" y1="234.0" x2="99.0" y2="246.0" stroke="#000" stroke-width="0.9"/>
<line x1="138.0" y1="234.0" x2="138.0" y2="246.0" stroke="#000" stroke-width="0.9"/>
<line x1="177.0" y1="234.0" x2="177.0" y2="246.0" stroke="#000" stroke-width="0.9"/>
<line x1="216.0" y1="234.0" x2="216.0" y2="246.0" stroke="#000" stroke-width="0.9"/>
<line x1="255.0" y1="234.0" x2="255.0" y2="246.0" stroke="#000" stroke-width="0.9"/>
<line x1="294.0" y1="234.0" x2="294.0" y2="246.0" stroke="#000" stroke-width="0.9"/>
<line x1="333.0" y1="234.0" x2="333.0" y2="246.0" stroke="#000" stroke-width="0.9"/>
<line x1="372.0" y1="234.0" x2="372.0" y2="246.0" stroke="#000" stroke-width="0.9"/>
<line x1="411.0" y1="234.0" x2="411.0" y2="246.0" stroke="#000" stroke-width="0.9"/>
<line x1="450.0" y1="234.0" x2="450.0" y2="246.0" stroke="#000" stroke-width="0.9"/>
<text x="60.0" y="257.0" font-size="10.5" text-anchor="middle">0</text>
<text x="99.0" y="257.0" font-size="10.5" text-anchor="middle">2</text>
<text x="138.0" y="257.0" font-size="10.5" text-anchor="middle">4</text>
<text x="177.0" y="257.0" font-size="10.5" text-anchor="middle">6</text>
<text x="216.0" y="257.0" font-size="10.5" text-anchor="middle">8</text>
<text x="255.0" y="257.0" font-size="10.5" text-anchor="middle">10</text>
<text x="294.0" y="257.0" font-size="10.5" text-anchor="middle">12</text>
<text x="333.0" y="257.0" font-size="10.5" text-anchor="middle">14</text>
<text x="372.0" y="257.0" font-size="10.5" text-anchor="middle">16</text>
<text x="411.0" y="257.0" font-size="10.5" text-anchor="middle">18</text>
<text x="450.0" y="257.0" font-size="10.5" text-anchor="middle">20</text>
<line x1="60.0" y1="240.0" x2="60.0" y2="70.0" stroke="#000" stroke-width="1.2"/>
<line x1="56.0" y1="240.0" x2="60.0" y2="240.0" stroke="#000" stroke-width="0.9"/>
<text x="52.0" y="244.0" font-size="10.5" text-anchor="end">0</text>
<line x1="56.0" y1="206.0" x2="60.0" y2="206.0" stroke="#000" stroke-width="0.9"/>
<text x="52.0" y="210.0" font-size="10.5" text-anchor="end">2</text>
<line x1="56.0" y1="172.0" x2="60.0" y2="172.0" stroke="#000" stroke-width="0.9"/>
<text x="52.0" y="176.0" font-size="10.5" text-anchor="end">4</text>
<line x1="56.0" y1="138.0" x2="60.0" y2="138.0" stroke="#000" stroke-width="0.9"/>
<text x="52.0" y="142.0" font-size="10.5" text-anchor="end">6</text>
<line x1="56.0" y1="104.0" x2="60.0" y2="104.0" stroke="#000" stroke-width="0.9"/>
<text x="52.0" y="108.0" font-size="10.5" text-anchor="end">8</text>
<line x1="56.0" y1="70.0" x2="60.0" y2="70.0" stroke="#000" stroke-width="0.9"/>
<text x="52.0" y="74.0" font-size="10.5" text-anchor="end">10</text>
<rect x="60.0" y="223.0" width="39.0" height="17.0" fill="#e6e6e6" stroke="#000" stroke-width="1.3"/>
<rect x="99.0" y="206.0" width="39.0" height="34.0" fill="#e6e6e6" stroke="#000" stroke-width="1.3"/>
<rect x="138.0" y="155.0" width="39.0" height="85.0" fill="#e6e6e6" stroke="#000" stroke-width="1.3"/>
<rect x="177.0" y="104.0" width="39.0" height="136.0" fill="#e6e6e6" stroke="#000" stroke-width="1.3"/>
<rect x="216.0" y="189.0" width="39.0" height="51.0" fill="#e6e6e6" stroke="#000" stroke-width="1.3"/>
<rect x="255.0" y="172.0" width="39.0" height="68.0" fill="#e6e6e6" stroke="#000" stroke-width="1.3"/>
<rect x="294.0" y="104.0" width="39.0" height="136.0" fill="#e6e6e6" stroke="#000" stroke-width="1.3"/>
<rect x="333.0" y="155.0" width="39.0" height="85.0" fill="#e6e6e6" stroke="#000" stroke-width="1.3"/>
<rect x="372.0" y="189.0" width="39.0" height="51.0" fill="#e6e6e6" stroke="#000" stroke-width="1.3"/>
<rect x="411.0" y="223.0" width="39.0" height="17.0" fill="#e6e6e6" stroke="#000" stroke-width="1.3"/>
<text x="66.0" y="58.0" font-size="10.5" text-anchor="start">度数（人）</text>
<text x="240.0" y="26.0" font-size="13" text-anchor="middle" font-weight="bold">的当てスコアのヒストグラム——階級の幅2点</text>
<text x="240.0" y="282.0" font-size="11" text-anchor="middle">横軸: スコア（点）・40人（架空の練習用データ）</text>
</svg>
