<svg xmlns="http://www.w3.org/2000/svg" viewBox="0 0 480 440" role="img">
<title>累積度数の積み上げ模式図（下から順に積んで最後は総度数）</title>
<desc>L07主概念1の動きの可視化図。1年生40人のけん玉の度数を、最小の階級からブロックとして下から順に積み上げ、各段の上端の右に累積度数を示した。最上段の累積度数は総度数40人に一致する——「途中の階級を飛ばさずに積む」動きと検算の型を1枚で見せる。累積度数は度数列から再計算して本文の表と一致をassert検算済み（度数はL06と同一の1年生の表）。再現指示: 度数に比例した高さのブロックを1本の柱として下から積み、各段の上端右に累積の値・最上段に総度数一致の注記を添える。白黒のみ。</desc>
<!-- L07_fig1_cumulative_stack.svg | 累積度数の積み上げ模式図（下から順に積んで最後は総度数） -->
<!-- generated by assets_provenance/generate_figures.py on 2026-07-18 (quartiles-boxplot単元と同一様式・AI再利用メタ情報つき・SVG直接編集禁止/スクリプト改修で再生成) -->
<rect x="0" y="0" width="480" height="440" fill="#fff"/>
<line x1="124.0" y1="380.0" x2="124.0" y2="76.0" stroke="#000" stroke-width="1.2"/>
<line x1="120.0" y1="380.0" x2="124.0" y2="380.0" stroke="#000" stroke-width="0.9"/>
<text x="116.0" y="384.0" font-size="10.5" text-anchor="end">0</text>
<line x1="120.0" y1="304.0" x2="124.0" y2="304.0" stroke="#000" stroke-width="0.9"/>
<text x="116.0" y="308.0" font-size="10.5" text-anchor="end">10</text>
<line x1="120.0" y1="228.0" x2="124.0" y2="228.0" stroke="#000" stroke-width="0.9"/>
<text x="116.0" y="232.0" font-size="10.5" text-anchor="end">20</text>
<line x1="120.0" y1="152.0" x2="124.0" y2="152.0" stroke="#000" stroke-width="0.9"/>
<text x="116.0" y="156.0" font-size="10.5" text-anchor="end">30</text>
<line x1="120.0" y1="76.0" x2="124.0" y2="76.0" stroke="#000" stroke-width="0.9"/>
<text x="116.0" y="80.0" font-size="10.5" text-anchor="end">40</text>
<text x="124.0" y="62.0" font-size="10.5" text-anchor="middle">人数の積み上がり（人）</text>
<rect x="150.0" y="349.6" width="150.0" height="30.4" fill="#ececec" stroke="#000" stroke-width="1.4"/>
<text x="225.0" y="368.8" font-size="10" text-anchor="middle">0以上 4未満（4人）</text>
<line x1="300.0" y1="349.6" x2="316.0" y2="349.6" stroke="#888" stroke-width="0.9" stroke-dasharray="2 3"/>
<text x="322.0" y="353.6" font-size="11.5" text-anchor="start" font-weight="bold">4</text>
<rect x="150.0" y="273.6" width="150.0" height="76.0" fill="#fff" stroke="#000" stroke-width="1.4"/>
<text x="225.0" y="315.6" font-size="10" text-anchor="middle">4以上 8未満（10人）</text>
<line x1="300.0" y1="273.6" x2="316.0" y2="273.6" stroke="#888" stroke-width="0.9" stroke-dasharray="2 3"/>
<text x="322.0" y="277.6" font-size="11.5" text-anchor="start" font-weight="bold">14</text>
<rect x="150.0" y="182.4" width="150.0" height="91.2" fill="#ececec" stroke="#000" stroke-width="1.4"/>
<text x="225.0" y="232.0" font-size="10" text-anchor="middle">8以上12未満（12人）</text>
<line x1="300.0" y1="182.4" x2="316.0" y2="182.4" stroke="#888" stroke-width="0.9" stroke-dasharray="2 3"/>
<text x="322.0" y="186.4" font-size="11.5" text-anchor="start" font-weight="bold">26</text>
<rect x="150.0" y="121.6" width="150.0" height="60.8" fill="#fff" stroke="#000" stroke-width="1.4"/>
<text x="225.0" y="156.0" font-size="10" text-anchor="middle">12以上16未満（8人）</text>
<line x1="300.0" y1="121.6" x2="316.0" y2="121.6" stroke="#888" stroke-width="0.9" stroke-dasharray="2 3"/>
<text x="322.0" y="125.6" font-size="11.5" text-anchor="start" font-weight="bold">34</text>
<rect x="150.0" y="76.0" width="150.0" height="45.6" fill="#ececec" stroke="#000" stroke-width="1.4"/>
<text x="225.0" y="102.8" font-size="10" text-anchor="middle">16以上20未満（6人）</text>
<line x1="300.0" y1="76.0" x2="316.0" y2="76.0" stroke="#888" stroke-width="0.9" stroke-dasharray="2 3"/>
<text x="322.0" y="80.0" font-size="11.5" text-anchor="start" font-weight="bold">40</text>
<text x="350.0" y="80.0" font-size="10.5" text-anchor="start">＝総度数（40人）と一致</text>
<text x="346.0" y="354.0" font-size="10" text-anchor="start">← 各段の右の数が</text>
<text x="358.0" y="367.0" font-size="10" text-anchor="start">累積度数（人）</text>
<text x="240.0" y="26.0" font-size="13" text-anchor="middle" font-weight="bold">下から順に、飛ばさずに積む——累積度数</text>
<text x="240.0" y="424.0" font-size="11" text-anchor="middle">1年生40人のけん玉の成功回数（架空の練習用データ）</text>
</svg>
