<svg xmlns="http://www.w3.org/2000/svg" viewBox="0 0 480 330" role="img">
<title>同じデータの2通りの棒グラフ（縦軸の始点操作による誇張の実験）</title>
<desc>L08主概念2の実験図。飲み物販売のA班105本・B班98本という同一のデータを、左は縦軸0〜120の棒グラフ、右は縦軸95〜106（途中省略・波線マークつき）の棒グラフで描いた。左では2本の柱はほとんど同じ高さだが、右では縦軸の切り取りだけでA班の柱がB班の2倍以上の高さに見える。差7本・柱の高さの比（左は1.1倍未満・右は2倍以上）をassert検算済み。グラフを見たらまず軸の目盛りを確かめる、の教材図。再現指示: 同じ2値の棒グラフを2枚並べ、右だけ縦軸の始点を上げて波線の省略マークを付ける。白黒のみ。</desc>
<!-- L08_fig1_axis_trick_bars.svg | 同じデータの2通りの棒グラフ（縦軸の始点操作による誇張の実験） -->
<!-- generated by assets_provenance/generate_figures.py on 2026-07-18 (quartiles-boxplot単元と同一様式・AI再利用メタ情報つき・SVG直接編集禁止/スクリプト改修で再生成) -->
<rect x="0" y="0" width="480" height="330" fill="#fff"/>
<line x1="70.0" y1="260.0" x2="70.0" y2="74.0" stroke="#000" stroke-width="1.2"/>
<line x1="66.0" y1="260.0" x2="70.0" y2="260.0" stroke="#000" stroke-width="0.9"/>
<text x="62.0" y="264.0" font-size="10" text-anchor="end">0</text>
<line x1="66.0" y1="215.0" x2="70.0" y2="215.0" stroke="#000" stroke-width="0.9"/>
<text x="62.0" y="219.0" font-size="10" text-anchor="end">30</text>
<line x1="66.0" y1="170.0" x2="70.0" y2="170.0" stroke="#000" stroke-width="0.9"/>
<text x="62.0" y="174.0" font-size="10" text-anchor="end">60</text>
<line x1="66.0" y1="125.0" x2="70.0" y2="125.0" stroke="#000" stroke-width="0.9"/>
<text x="62.0" y="129.0" font-size="10" text-anchor="end">90</text>
<line x1="66.0" y1="80.0" x2="70.0" y2="80.0" stroke="#000" stroke-width="0.9"/>
<text x="62.0" y="84.0" font-size="10" text-anchor="end">120</text>
<line x1="70.0" y1="260.0" x2="210.0" y2="260.0" stroke="#000" stroke-width="1.2"/>
<rect x="100.0" y="102.5" width="36.0" height="157.5" fill="#e6e6e6" stroke="#000" stroke-width="1.3"/>
<text x="118.0" y="276.0" font-size="11" text-anchor="middle">A班</text>
<text x="118.0" y="96.5" font-size="10.5" text-anchor="middle">105</text>
<rect x="155.0" y="113.0" width="36.0" height="147.0" fill="#e6e6e6" stroke="#000" stroke-width="1.3"/>
<text x="173.0" y="276.0" font-size="11" text-anchor="middle">B班</text>
<text x="173.0" y="107.0" font-size="10.5" text-anchor="middle">98</text>
<text x="140.0" y="62.0" font-size="12" text-anchor="middle" font-weight="bold">縦軸が0から</text>
<line x1="300.0" y1="246.0" x2="300.0" y2="74.0" stroke="#000" stroke-width="1.2"/>
<polyline points="294.0,260.0 306.0,256.0 294.0,251.0 306.0,246.0" fill="none" stroke="#000" stroke-width="1.2"/>
<line x1="296.0" y1="260.0" x2="300.0" y2="260.0" stroke="#000" stroke-width="0.9"/>
<text x="292.0" y="264.0" font-size="10" text-anchor="end">95</text>
<line x1="296.0" y1="178.2" x2="300.0" y2="178.2" stroke="#000" stroke-width="0.9"/>
<text x="292.0" y="182.2" font-size="10" text-anchor="end">100</text>
<line x1="296.0" y1="96.4" x2="300.0" y2="96.4" stroke="#000" stroke-width="0.9"/>
<text x="292.0" y="100.4" font-size="10" text-anchor="end">105</text>
<line x1="300.0" y1="260.0" x2="440.0" y2="260.0" stroke="#000" stroke-width="1.2"/>
<rect x="330.0" y="96.4" width="36.0" height="163.6" fill="#e6e6e6" stroke="#000" stroke-width="1.3"/>
<text x="348.0" y="276.0" font-size="11" text-anchor="middle">A班</text>
<text x="348.0" y="90.4" font-size="10.5" text-anchor="middle">105</text>
<rect x="385.0" y="210.9" width="36.0" height="49.1" fill="#e6e6e6" stroke="#000" stroke-width="1.3"/>
<text x="403.0" y="276.0" font-size="11" text-anchor="middle">B班</text>
<text x="403.0" y="204.9" font-size="10.5" text-anchor="middle">98</text>
<text x="370.0" y="62.0" font-size="12" text-anchor="middle" font-weight="bold">縦軸が95から（途中を省略）</text>
<text x="240.0" y="26.0" font-size="13" text-anchor="middle" font-weight="bold">同じデータ、2通りの棒グラフ</text>
<text x="240.0" y="306.0" font-size="11" text-anchor="middle">縦軸: 販売数（本）。データは2枚とも同一（架空の練習用データ）</text>
</svg>
