<svg xmlns="http://www.w3.org/2000/svg" viewBox="0 0 318 265">
<title>y=x²の放物線と軸・頂点</title>
<desc>【この図の意図】単元全体で使う「放物線・軸・頂点」の3語を1枚に固定し、左右対称も破線の2点で見せる復習図。【主要な数値・設定】y=x²／軸=直線x=0（y軸）／頂点=(0,0)／対称の例(−2,4)と(2,4)を破線で結ぶ。【AIに同じ種類の図を描かせるときの説明文】「y=x²の放物線と軸・頂点。単元全体で使う「放物線・軸・頂点」の3語を1枚に固定し、左右対称も破線の2点で見せる復習図。数値・設定: y=x²／軸=直線x=0（y軸）／頂点=(0,0)／対称の例(−2,4)と(2,4)を破線で結ぶ。白黒印刷向けのシンプルな教材図（SVG）としてかいて。」——この説明文を生成AIに渡せば同型の図を描かせられる。数値を変えれば類題用の図も作れる。</desc>
<!-- L01_fig1_parabola_axis_vertex.svg | y=x²の放物線と軸・頂点 -->
<!-- generated by assets_provenance/generate_figures.py on 2026-07-17 (docs/SPEC_figures.md準拠（内部規約の要旨は同SPECに反映済み）・SVG直接編集禁止/スクリプト改修で再生成) -->
<rect x="0" y="0" width="318" height="265" fill="#fff"/>
<line x1="38.0" y1="217.6" x2="233.4" y2="217.6" stroke="#000" stroke-width="1.2"/>
<polygon points="240.4,217.6 233.4,220.8 233.4,214.4" fill="#000"/>
<line x1="135.2" y1="238.6" x2="135.2" y2="15.0" stroke="#000" stroke-width="1.2"/>
<polygon points="135.2,8.0 138.3,15.0 132.0,15.0" fill="#000"/>
<text x="242.4" y="222.1" font-size="13" text-anchor="start">x</text>
<text x="142.2" y="10.0" font-size="13" text-anchor="start">y</text>
<line x1="54.2" y1="214.6" x2="54.2" y2="220.6" stroke="#000" stroke-width="1.0"/>
<line x1="81.2" y1="214.6" x2="81.2" y2="220.6" stroke="#000" stroke-width="1.0"/>
<line x1="108.2" y1="214.6" x2="108.2" y2="220.6" stroke="#000" stroke-width="1.0"/>
<line x1="162.2" y1="214.6" x2="162.2" y2="220.6" stroke="#000" stroke-width="1.0"/>
<line x1="189.2" y1="214.6" x2="189.2" y2="220.6" stroke="#000" stroke-width="1.0"/>
<line x1="216.2" y1="214.6" x2="216.2" y2="220.6" stroke="#000" stroke-width="1.0"/>
<line x1="132.2" y1="238.6" x2="138.2" y2="238.6" stroke="#000" stroke-width="1.0"/>
<line x1="132.2" y1="196.6" x2="138.2" y2="196.6" stroke="#000" stroke-width="1.0"/>
<line x1="132.2" y1="175.6" x2="138.2" y2="175.6" stroke="#000" stroke-width="1.0"/>
<line x1="132.2" y1="154.6" x2="138.2" y2="154.6" stroke="#000" stroke-width="1.0"/>
<line x1="132.2" y1="133.6" x2="138.2" y2="133.6" stroke="#000" stroke-width="1.0"/>
<line x1="132.2" y1="112.6" x2="138.2" y2="112.6" stroke="#000" stroke-width="1.0"/>
<line x1="132.2" y1="91.6" x2="138.2" y2="91.6" stroke="#000" stroke-width="1.0"/>
<line x1="132.2" y1="70.6" x2="138.2" y2="70.6" stroke="#000" stroke-width="1.0"/>
<line x1="132.2" y1="49.6" x2="138.2" y2="49.6" stroke="#000" stroke-width="1.0"/>
<line x1="132.2" y1="28.6" x2="138.2" y2="28.6" stroke="#000" stroke-width="1.0"/>
<text x="54.2" y="231.6" font-size="11" text-anchor="middle">−3</text>
<text x="81.2" y="231.6" font-size="11" text-anchor="middle">−2</text>
<text x="108.2" y="231.6" font-size="11" text-anchor="middle">−1</text>
<text x="162.2" y="231.6" font-size="11" text-anchor="middle">1</text>
<text x="189.2" y="231.6" font-size="11" text-anchor="middle">2</text>
<text x="216.2" y="231.6" font-size="11" text-anchor="middle">3</text>
<text x="129.2" y="137.4" font-size="11" text-anchor="end">4</text>
<text x="129.2" y="32.4" font-size="11" text-anchor="end">9</text>
<text x="130.2" y="231.6" font-size="11" text-anchor="end">O</text>
<polyline points="51.5,16.0 52.4,20.0 53.2,24.0 54.1,27.9 54.9,31.8 55.7,35.7 56.6,39.5 57.4,43.2 58.2,47.0 59.1,50.7 59.9,54.3 60.7,57.9 61.6,61.5 62.4,65.0 63.3,68.5 64.1,71.9 64.9,75.4 65.8,78.7 66.6,82.0 67.4,85.3 68.3,88.6 69.1,91.8 69.9,94.9 70.8,98.1 71.6,101.2 72.5,104.2 73.3,107.2 74.1,110.2 75.0,113.1 75.8,116.0 76.6,118.8 77.5,121.6 78.3,124.4 79.2,127.1 80.0,129.8 80.8,132.4 81.7,135.0 82.5,137.6 83.3,140.1 84.2,142.6 85.0,145.0 85.8,147.4 86.7,149.8 87.5,152.1 88.4,154.4 89.2,156.6 90.0,158.8 90.9,161.0 91.7,163.1 92.5,165.2 93.4,167.2 94.2,169.2 95.0,171.2 95.9,173.1 96.7,174.9 97.6,176.8 98.4,178.6 99.2,180.3 100.1,182.0 100.9,183.7 101.7,185.3 102.6,186.9 103.4,188.5 104.2,190.0 105.1,191.5 105.9,192.9 106.8,194.3 107.6,195.6 108.4,197.0 109.3,198.2 110.1,199.5 110.9,200.6 111.8,201.8 112.6,202.9 113.4,204.0 114.3,205.0 115.1,206.0 116.0,206.9 116.8,207.8 117.6,208.7 118.5,209.5 119.3,210.3 120.1,211.1 121.0,211.8 121.8,212.4 122.7,213.1 123.5,213.6 124.3,214.2 125.2,214.7 126.0,215.2 126.8,215.6 127.7,216.0 128.5,216.3 129.3,216.6 130.2,216.9 131.0,217.1 131.9,217.3 132.7,217.4 133.5,217.5 134.4,217.6 135.2,217.6 136.0,217.6 136.9,217.5 137.7,217.4 138.5,217.3 139.4,217.1 140.2,216.9 141.1,216.6 141.9,216.3 142.7,216.0 143.6,215.6 144.4,215.2 145.2,214.7 146.1,214.2 146.9,213.6 147.7,213.1 148.6,212.4 149.4,211.8 150.3,211.1 151.1,210.3 151.9,209.5 152.8,208.7 153.6,207.8 154.4,206.9 155.3,206.0 156.1,205.0 157.0,204.0 157.8,202.9 158.6,201.8 159.5,200.6 160.3,199.5 161.1,198.2 162.0,197.0 162.8,195.6 163.6,194.3 164.5,192.9 165.3,191.5 166.2,190.0 167.0,188.5 167.8,186.9 168.7,185.3 169.5,183.7 170.3,182.0 171.2,180.3 172.0,178.6 172.8,176.8 173.7,174.9 174.5,173.1 175.4,171.2 176.2,169.2 177.0,167.2 177.9,165.2 178.7,163.1 179.5,161.0 180.4,158.8 181.2,156.6 182.0,154.4 182.9,152.1 183.7,149.8 184.6,147.4 185.4,145.0 186.2,142.6 187.1,140.1 187.9,137.6 188.7,135.0 189.6,132.4 190.4,129.8 191.2,127.1 192.1,124.4 192.9,121.6 193.8,118.8 194.6,116.0 195.4,113.1 196.3,110.2 197.1,107.2 197.9,104.2 198.8,101.2 199.6,98.1 200.5,94.9 201.3,91.8 202.1,88.6 203.0,85.3 203.8,82.0 204.6,78.7 205.5,75.4 206.3,71.9 207.1,68.5 208.0,65.0 208.8,61.5 209.7,57.9 210.5,54.3 211.3,50.7 212.2,47.0 213.0,43.2 213.8,39.5 214.7,35.7 215.5,31.8 216.3,27.9 217.2,24.0 218.0,20.0 218.9,16.0" fill="none" stroke="#000" stroke-width="1.6" stroke-linejoin="round"/>
<line x1="81.2" y1="133.6" x2="189.2" y2="133.6" stroke="#000" stroke-width="1.1" stroke-dasharray="6 4"/>
<circle cx="81.2" cy="133.6" r="3.0" fill="#000"/>
<circle cx="189.2" cy="133.6" r="3.0" fill="#000"/>
<text x="179.2" y="33.0" font-size="12" text-anchor="start">軸（直線x＝0）</text>
<line x1="177.2" y1="29.0" x2="144.6" y2="34.1" stroke="#000" stroke-width="1.1"/>
<polygon points="139.2,35.0 144.2,31.7 145.0,36.6" fill="#000"/>
<circle cx="135.2" cy="217.6" r="3.0" fill="#000"/>
<text x="177.2" y="241.6" font-size="12" text-anchor="start">頂点(0, 0)</text>
<line x1="175.2" y1="237.6" x2="145.2" y2="223.9" stroke="#000" stroke-width="1.1"/>
<polygon points="140.2,221.6 146.2,221.6 144.2,226.1" fill="#000"/>
<text x="213.4" y="45.4" font-size="13" text-anchor="start">y＝x²</text>
</svg>
