<svg xmlns="http://www.w3.org/2000/svg" viewBox="0 0 298 266">
<title>aの符号と開き方——y=2x²・y=x²・y=−2x²</title>
<desc>【この図の意図】a&gt;0は下に凸・a&lt;0は上に凸、|a|が大きいほど狭い——3本の比較とx軸対称の実例(1,2)(1,−2)を1枚で見せる。【主要な数値・設定】a=2,1,−2／破線(1,2)-(1,−2)／式ラベル3つ。【AIに同じ種類の図を描かせるときの説明文】「aの符号と開き方——y=2x²・y=x²・y=−2x²。a&gt;0は下に凸・a&lt;0は上に凸、|a|が大きいほど狭い——3本の比較とx軸対称の実例(1,2)(1,−2)を1枚で見せる。数値・設定: a=2,1,−2／破線(1,2)-(1,−2)／式ラベル3つ。白黒印刷向けのシンプルな教材図（SVG）としてかいて。」——この説明文を生成AIに渡せば同型の図を描かせられる。数値を変えれば類題用の図も作れる。</desc>
<!-- L01_fig2_sign_and_width.svg | aの符号と開き方——y=2x²・y=x²・y=−2x² -->
<!-- generated by assets_provenance/generate_figures.py on 2026-07-17 (docs/SPEC_figures.md準拠（内部規約の要旨は同SPECに反映済み）・SVG直接編集禁止/スクリプト改修で再生成) -->
<rect x="0" y="0" width="298" height="266" fill="#fff"/>
<line x1="40.0" y1="127.8" x2="233.0" y2="127.8" stroke="#000" stroke-width="1.2"/>
<polygon points="240.0,127.8 233.0,130.9 233.0,124.6" fill="#000"/>
<line x1="136.0" y1="239.6" x2="136.0" y2="15.0" stroke="#000" stroke-width="1.2"/>
<polygon points="136.0,8.0 139.2,15.0 132.8,15.0" fill="#000"/>
<text x="242.0" y="132.3" font-size="13" text-anchor="start">x</text>
<text x="143.0" y="10.0" font-size="13" text-anchor="start">y</text>
<line x1="46.0" y1="124.8" x2="46.0" y2="130.8" stroke="#000" stroke-width="1.0"/>
<line x1="76.0" y1="124.8" x2="76.0" y2="130.8" stroke="#000" stroke-width="1.0"/>
<line x1="106.0" y1="124.8" x2="106.0" y2="130.8" stroke="#000" stroke-width="1.0"/>
<line x1="166.0" y1="124.8" x2="166.0" y2="130.8" stroke="#000" stroke-width="1.0"/>
<line x1="196.0" y1="124.8" x2="196.0" y2="130.8" stroke="#000" stroke-width="1.0"/>
<line x1="226.0" y1="124.8" x2="226.0" y2="130.8" stroke="#000" stroke-width="1.0"/>
<line x1="133.0" y1="231.8" x2="139.0" y2="231.8" stroke="#000" stroke-width="1.0"/>
<line x1="133.0" y1="218.8" x2="139.0" y2="218.8" stroke="#000" stroke-width="1.0"/>
<line x1="133.0" y1="205.8" x2="139.0" y2="205.8" stroke="#000" stroke-width="1.0"/>
<line x1="133.0" y1="192.8" x2="139.0" y2="192.8" stroke="#000" stroke-width="1.0"/>
<line x1="133.0" y1="179.8" x2="139.0" y2="179.8" stroke="#000" stroke-width="1.0"/>
<line x1="133.0" y1="166.8" x2="139.0" y2="166.8" stroke="#000" stroke-width="1.0"/>
<line x1="133.0" y1="153.8" x2="139.0" y2="153.8" stroke="#000" stroke-width="1.0"/>
<line x1="133.0" y1="140.8" x2="139.0" y2="140.8" stroke="#000" stroke-width="1.0"/>
<line x1="133.0" y1="114.8" x2="139.0" y2="114.8" stroke="#000" stroke-width="1.0"/>
<line x1="133.0" y1="101.8" x2="139.0" y2="101.8" stroke="#000" stroke-width="1.0"/>
<line x1="133.0" y1="88.8" x2="139.0" y2="88.8" stroke="#000" stroke-width="1.0"/>
<line x1="133.0" y1="75.8" x2="139.0" y2="75.8" stroke="#000" stroke-width="1.0"/>
<line x1="133.0" y1="62.8" x2="139.0" y2="62.8" stroke="#000" stroke-width="1.0"/>
<line x1="133.0" y1="49.8" x2="139.0" y2="49.8" stroke="#000" stroke-width="1.0"/>
<line x1="133.0" y1="36.8" x2="139.0" y2="36.8" stroke="#000" stroke-width="1.0"/>
<line x1="133.0" y1="23.8" x2="139.0" y2="23.8" stroke="#000" stroke-width="1.0"/>
<text x="76.0" y="141.8" font-size="11" text-anchor="middle">−2</text>
<text x="106.0" y="141.8" font-size="11" text-anchor="middle">−1</text>
<text x="166.0" y="141.8" font-size="11" text-anchor="middle">1</text>
<text x="196.0" y="141.8" font-size="11" text-anchor="middle">2</text>
<text x="130.0" y="235.7" font-size="11" text-anchor="end">−8</text>
<text x="130.0" y="183.7" font-size="11" text-anchor="end">−4</text>
<text x="130.0" y="105.6" font-size="11" text-anchor="end">2</text>
<text x="130.0" y="79.6" font-size="11" text-anchor="end">4</text>
<text x="130.0" y="27.6" font-size="11" text-anchor="end">8</text>
<text x="131.0" y="141.8" font-size="11" text-anchor="end">O</text>
<polyline points="73.8,16.0 74.4,18.2 75.0,20.4 75.7,22.6 76.3,24.8 76.9,26.9 77.5,29.0 78.1,31.1 78.8,33.2 79.4,35.2 80.0,37.2 80.6,39.2 81.3,41.2 81.9,43.2 82.5,45.1 83.1,47.0 83.7,48.9 84.4,50.8 85.0,52.6 85.6,54.4 86.2,56.2 86.9,58.0 87.5,59.8 88.1,61.5 88.7,63.2 89.3,64.9 90.0,66.6 90.6,68.2 91.2,69.8 91.8,71.4 92.5,73.0 93.1,74.6 93.7,76.1 94.3,77.6 94.9,79.1 95.6,80.6 96.2,82.0 96.8,83.4 97.4,84.8 98.1,86.2 98.7,87.6 99.3,88.9 99.9,90.2 100.5,91.5 101.2,92.7 101.8,94.0 102.4,95.2 103.0,96.4 103.7,97.6 104.3,98.7 104.9,99.9 105.5,101.0 106.1,102.0 106.8,103.1 107.4,104.1 108.0,105.2 108.6,106.2 109.2,107.1 109.9,108.1 110.5,109.0 111.1,109.9 111.7,110.8 112.4,111.7 113.0,112.5 113.6,113.3 114.2,114.1 114.8,114.9 115.5,115.6 116.1,116.4 116.7,117.1 117.3,117.7 118.0,118.4 118.6,119.0 119.2,119.6 119.8,120.2 120.4,120.8 121.1,121.4 121.7,121.9 122.3,122.4 122.9,122.9 123.6,123.3 124.2,123.8 124.8,124.2 125.4,124.6 126.0,124.9 126.7,125.3 127.3,125.6 127.9,125.9 128.5,126.2 129.2,126.4 129.8,126.7 130.4,126.9 131.0,127.1 131.6,127.3 132.3,127.4 132.9,127.5 133.5,127.6 134.1,127.7 134.8,127.8 135.4,127.8 136.0,127.8 136.6,127.8 137.2,127.8 137.9,127.7 138.5,127.6 139.1,127.5 139.7,127.4 140.4,127.3 141.0,127.1 141.6,126.9 142.2,126.7 142.8,126.4 143.5,126.2 144.1,125.9 144.7,125.6 145.3,125.3 146.0,124.9 146.6,124.6 147.2,124.2 147.8,123.8 148.4,123.3 149.1,122.9 149.7,122.4 150.3,121.9 150.9,121.4 151.6,120.8 152.2,120.2 152.8,119.6 153.4,119.0 154.0,118.4 154.7,117.7 155.3,117.1 155.9,116.4 156.5,115.6 157.2,114.9 157.8,114.1 158.4,113.3 159.0,112.5 159.6,111.7 160.3,110.8 160.9,109.9 161.5,109.0 162.1,108.1 162.8,107.1 163.4,106.2 164.0,105.2 164.6,104.1 165.2,103.1 165.9,102.0 166.5,101.0 167.1,99.9 167.7,98.7 168.3,97.6 169.0,96.4 169.6,95.2 170.2,94.0 170.8,92.7 171.5,91.5 172.1,90.2 172.7,88.9 173.3,87.6 173.9,86.2 174.6,84.8 175.2,83.4 175.8,82.0 176.4,80.6 177.1,79.1 177.7,77.6 178.3,76.1 178.9,74.6 179.5,73.0 180.2,71.4 180.8,69.8 181.4,68.2 182.0,66.6 182.7,64.9 183.3,63.2 183.9,61.5 184.5,59.8 185.1,58.0 185.8,56.2 186.4,54.4 187.0,52.6 187.6,50.8 188.3,48.9 188.9,47.0 189.5,45.1 190.1,43.2 190.7,41.2 191.4,39.2 192.0,37.2 192.6,35.2 193.2,33.2 193.9,31.1 194.5,29.0 195.1,26.9 195.7,24.8 196.3,22.6 197.0,20.4 197.6,18.2 198.2,16.0" fill="none" stroke="#000" stroke-width="1.6" stroke-linejoin="round"/>
<polyline points="48.0,16.0 48.9,18.2 49.8,20.4 50.7,22.6 51.5,24.8 52.4,26.9 53.3,29.0 54.2,31.1 55.1,33.2 55.9,35.2 56.8,37.2 57.7,39.2 58.6,41.2 59.5,43.2 60.3,45.1 61.2,47.0 62.1,48.9 63.0,50.8 63.9,52.6 64.7,54.4 65.6,56.2 66.5,58.0 67.4,59.8 68.3,61.5 69.1,63.2 70.0,64.9 70.9,66.6 71.8,68.2 72.7,69.8 73.5,71.4 74.4,73.0 75.3,74.6 76.2,76.1 77.1,77.6 77.9,79.1 78.8,80.6 79.7,82.0 80.6,83.4 81.5,84.8 82.3,86.2 83.2,87.6 84.1,88.9 85.0,90.2 85.9,91.5 86.7,92.7 87.6,94.0 88.5,95.2 89.4,96.4 90.3,97.6 91.1,98.7 92.0,99.8 92.9,101.0 93.8,102.0 94.7,103.1 95.5,104.1 96.4,105.2 97.3,106.2 98.2,107.1 99.0,108.1 99.9,109.0 100.8,109.9 101.7,110.8 102.6,111.7 103.4,112.5 104.3,113.3 105.2,114.1 106.1,114.9 107.0,115.6 107.8,116.4 108.7,117.1 109.6,117.7 110.5,118.4 111.4,119.0 112.2,119.6 113.1,120.2 114.0,120.8 114.9,121.4 115.8,121.9 116.6,122.4 117.5,122.9 118.4,123.3 119.3,123.8 120.2,124.2 121.0,124.6 121.9,124.9 122.8,125.3 123.7,125.6 124.6,125.9 125.4,126.2 126.3,126.4 127.2,126.7 128.1,126.9 129.0,127.1 129.8,127.3 130.7,127.4 131.6,127.5 132.5,127.6 133.4,127.7 134.2,127.8 135.1,127.8 136.0,127.8 136.9,127.8 137.8,127.8 138.6,127.7 139.5,127.6 140.4,127.5 141.3,127.4 142.2,127.3 143.0,127.1 143.9,126.9 144.8,126.7 145.7,126.4 146.6,126.2 147.4,125.9 148.3,125.6 149.2,125.3 150.1,124.9 151.0,124.6 151.8,124.2 152.7,123.8 153.6,123.3 154.5,122.9 155.4,122.4 156.2,121.9 157.1,121.4 158.0,120.8 158.9,120.2 159.8,119.6 160.6,119.0 161.5,118.4 162.4,117.7 163.3,117.1 164.2,116.4 165.0,115.6 165.9,114.9 166.8,114.1 167.7,113.3 168.6,112.5 169.4,111.7 170.3,110.8 171.2,109.9 172.1,109.0 173.0,108.1 173.8,107.1 174.7,106.2 175.6,105.2 176.5,104.1 177.3,103.1 178.2,102.0 179.1,101.0 180.0,99.9 180.9,98.7 181.7,97.6 182.6,96.4 183.5,95.2 184.4,94.0 185.3,92.7 186.1,91.5 187.0,90.2 187.9,88.9 188.8,87.6 189.7,86.2 190.5,84.8 191.4,83.4 192.3,82.0 193.2,80.6 194.1,79.1 194.9,77.6 195.8,76.1 196.7,74.6 197.6,73.0 198.5,71.4 199.3,69.8 200.2,68.2 201.1,66.6 202.0,64.9 202.9,63.2 203.7,61.5 204.6,59.8 205.5,58.0 206.4,56.2 207.3,54.4 208.1,52.6 209.0,50.8 209.9,48.9 210.8,47.0 211.7,45.1 212.5,43.2 213.4,41.2 214.3,39.2 215.2,37.2 216.1,35.2 216.9,33.2 217.8,31.1 218.7,29.0 219.6,26.9 220.5,24.8 221.3,22.6 222.2,20.4 223.1,18.2 224.0,16.0" fill="none" stroke="#000" stroke-width="1.6" stroke-linejoin="round"/>
<polyline points="73.8,239.6 74.4,237.4 75.0,235.2 75.7,233.0 76.3,230.8 76.9,228.7 77.5,226.6 78.1,224.5 78.8,222.4 79.4,220.4 80.0,218.4 80.6,216.4 81.3,214.4 81.9,212.4 82.5,210.5 83.1,208.6 83.7,206.7 84.4,204.8 85.0,203.0 85.6,201.2 86.2,199.4 86.9,197.6 87.5,195.8 88.1,194.1 88.7,192.4 89.3,190.7 90.0,189.0 90.6,187.4 91.2,185.8 91.8,184.2 92.5,182.6 93.1,181.0 93.7,179.5 94.3,178.0 94.9,176.5 95.6,175.0 96.2,173.6 96.8,172.2 97.4,170.8 98.1,169.4 98.7,168.0 99.3,166.7 99.9,165.4 100.5,164.1 101.2,162.9 101.8,161.6 102.4,160.4 103.0,159.2 103.7,158.0 104.3,156.9 104.9,155.8 105.5,154.6 106.1,153.6 106.8,152.5 107.4,151.5 108.0,150.4 108.6,149.4 109.2,148.5 109.9,147.5 110.5,146.6 111.1,145.7 111.7,144.8 112.4,143.9 113.0,143.1 113.6,142.3 114.2,141.5 114.8,140.7 115.5,140.0 116.1,139.2 116.7,138.5 117.3,137.9 118.0,137.2 118.6,136.6 119.2,136.0 119.8,135.4 120.4,134.8 121.1,134.2 121.7,133.7 122.3,133.2 122.9,132.7 123.6,132.3 124.2,131.8 124.8,131.4 125.4,131.0 126.0,130.7 126.7,130.3 127.3,130.0 127.9,129.7 128.5,129.4 129.2,129.2 129.8,128.9 130.4,128.7 131.0,128.5 131.6,128.3 132.3,128.2 132.9,128.1 133.5,128.0 134.1,127.9 134.8,127.8 135.4,127.8 136.0,127.8 136.6,127.8 137.2,127.8 137.9,127.9 138.5,128.0 139.1,128.1 139.7,128.2 140.4,128.3 141.0,128.5 141.6,128.7 142.2,128.9 142.8,129.2 143.5,129.4 144.1,129.7 144.7,130.0 145.3,130.3 146.0,130.7 146.6,131.0 147.2,131.4 147.8,131.8 148.4,132.3 149.1,132.7 149.7,133.2 150.3,133.7 150.9,134.2 151.6,134.8 152.2,135.4 152.8,136.0 153.4,136.6 154.0,137.2 154.7,137.9 155.3,138.5 155.9,139.2 156.5,140.0 157.2,140.7 157.8,141.5 158.4,142.3 159.0,143.1 159.6,143.9 160.3,144.8 160.9,145.7 161.5,146.6 162.1,147.5 162.8,148.5 163.4,149.4 164.0,150.4 164.6,151.5 165.2,152.5 165.9,153.6 166.5,154.6 167.1,155.7 167.7,156.9 168.3,158.0 169.0,159.2 169.6,160.4 170.2,161.6 170.8,162.9 171.5,164.1 172.1,165.4 172.7,166.7 173.3,168.0 173.9,169.4 174.6,170.8 175.2,172.2 175.8,173.6 176.4,175.0 177.1,176.5 177.7,178.0 178.3,179.5 178.9,181.0 179.5,182.6 180.2,184.2 180.8,185.8 181.4,187.4 182.0,189.0 182.7,190.7 183.3,192.4 183.9,194.1 184.5,195.8 185.1,197.6 185.8,199.4 186.4,201.2 187.0,203.0 187.6,204.8 188.3,206.7 188.9,208.6 189.5,210.5 190.1,212.4 190.7,214.4 191.4,216.4 192.0,218.4 192.6,220.4 193.2,222.4 193.9,224.5 194.5,226.6 195.1,228.7 195.7,230.8 196.3,233.0 197.0,235.2 197.6,237.4 198.2,239.6" fill="none" stroke="#000" stroke-width="1.6" stroke-linejoin="round"/>
<line x1="166.0" y1="101.8" x2="166.0" y2="153.8" stroke="#000" stroke-width="1.1" stroke-dasharray="6 4"/>
<circle cx="166.0" cy="101.8" r="3.0" fill="#000"/>
<circle cx="166.0" cy="153.8" r="3.0" fill="#000"/>
<text x="67.8" y="21.2" font-size="13" text-anchor="end">y＝2x²</text>
<text x="230.0" y="21.2" font-size="13" text-anchor="start">y＝x²</text>
<text x="204.2" y="242.4" font-size="13" text-anchor="start">y＝−2x²</text>
</svg>
