<svg xmlns="http://www.w3.org/2000/svg" viewBox="0 0 418 216">
<title>y=x²とy=(x−3)²——x軸方向に＋3の平行移動</title>
<desc>【この図の意図】グラフ上のすべての点がそろって右へ3移る（点(u,u²)→(u+3,u²)）ことを対応点3組の矢印で見せる前後比較図。【主要な数値・設定】y=x²とy=(x−3)²／対応点(−1,1)→(2,1),(0,0)→(3,0),(1,1)→(4,1)／軸x=3破線。【AIに同じ種類の図を描かせるときの説明文】「y=x²とy=(x−3)²——x軸方向に＋3の平行移動。グラフ上のすべての点がそろって右へ3移る（点(u,u²)→(u+3,u²)）ことを対応点3組の矢印で見せる前後比較図。数値・設定: y=x²とy=(x−3)²／対応点(−1,1)→(2,1),(0,0)→(3,0),(1,1)→(4,1)／軸x=3破線。白黒印刷向けのシンプルな教材図（SVG）としてかいて。」——この説明文を生成AIに渡せば同型の図を描かせられる。数値を変えれば類題用の図も作れる。</desc>
<!-- L02_fig2_horizontal_shift.svg | y=x²とy=(x−3)²——x軸方向に＋3の平行移動 -->
<!-- generated by assets_provenance/generate_figures.py on 2026-07-17 (docs/SPEC_figures.md準拠（内部規約の要旨は同SPECに反映済み）・SVG直接編集禁止/スクリプト改修で再生成) -->
<rect x="0" y="0" width="418" height="216" fill="#fff"/>
<line x1="38.0" y1="163.0" x2="331.4" y2="163.0" stroke="#000" stroke-width="1.2"/>
<polygon points="338.4,163.0 331.4,166.2 331.4,159.8" fill="#000"/>
<line x1="129.8" y1="190.0" x2="129.8" y2="15.0" stroke="#000" stroke-width="1.2"/>
<polygon points="129.8,8.0 133.0,15.0 126.7,15.0" fill="#000"/>
<text x="340.4" y="167.5" font-size="13" text-anchor="start">x</text>
<text x="136.8" y="10.0" font-size="13" text-anchor="start">y</text>
<line x1="61.8" y1="160.0" x2="61.8" y2="166.0" stroke="#000" stroke-width="1.0"/>
<line x1="95.8" y1="160.0" x2="95.8" y2="166.0" stroke="#000" stroke-width="1.0"/>
<line x1="163.8" y1="160.0" x2="163.8" y2="166.0" stroke="#000" stroke-width="1.0"/>
<line x1="197.8" y1="160.0" x2="197.8" y2="166.0" stroke="#000" stroke-width="1.0"/>
<line x1="231.8" y1="160.0" x2="231.8" y2="166.0" stroke="#000" stroke-width="1.0"/>
<line x1="265.8" y1="160.0" x2="265.8" y2="166.0" stroke="#000" stroke-width="1.0"/>
<line x1="299.8" y1="160.0" x2="299.8" y2="166.0" stroke="#000" stroke-width="1.0"/>
<line x1="126.8" y1="133.0" x2="132.8" y2="133.0" stroke="#000" stroke-width="1.0"/>
<line x1="126.8" y1="103.0" x2="132.8" y2="103.0" stroke="#000" stroke-width="1.0"/>
<line x1="126.8" y1="73.0" x2="132.8" y2="73.0" stroke="#000" stroke-width="1.0"/>
<line x1="126.8" y1="43.0" x2="132.8" y2="43.0" stroke="#000" stroke-width="1.0"/>
<text x="61.8" y="177.0" font-size="11" text-anchor="middle">−2</text>
<text x="95.8" y="177.0" font-size="11" text-anchor="middle">−1</text>
<text x="163.8" y="177.0" font-size="11" text-anchor="middle">1</text>
<text x="197.8" y="177.0" font-size="11" text-anchor="middle">2</text>
<text x="231.8" y="177.0" font-size="11" text-anchor="middle">3</text>
<text x="265.8" y="177.0" font-size="11" text-anchor="middle">4</text>
<text x="299.8" y="177.0" font-size="11" text-anchor="middle">5</text>
<text x="123.8" y="136.8" font-size="11" text-anchor="end">1</text>
<text x="123.8" y="46.9" font-size="11" text-anchor="end">4</text>
<text x="124.8" y="177.0" font-size="11" text-anchor="end">O</text>
<polyline points="54.5,16.0 55.3,18.9 56.0,21.8 56.8,24.7 57.5,27.5 58.3,30.3 59.1,33.1 59.8,35.9 60.6,38.6 61.3,41.3 62.1,43.9 62.8,46.6 63.6,49.2 64.3,51.7 65.1,54.3 65.8,56.8 66.6,59.3 67.3,61.7 68.1,64.2 68.8,66.6 69.6,68.9 70.3,71.3 71.1,73.6 71.8,75.8 72.6,78.1 73.4,80.3 74.1,82.5 74.9,84.7 75.6,86.8 76.4,88.9 77.1,91.0 77.9,93.0 78.6,95.0 79.4,97.0 80.1,99.0 80.9,100.9 81.6,102.8 82.4,104.7 83.1,106.5 83.9,108.3 84.6,110.1 85.4,111.8 86.1,113.5 86.9,115.2 87.7,116.9 88.4,118.5 89.2,120.1 89.9,121.7 90.7,123.3 91.4,124.8 92.2,126.2 92.9,127.7 93.7,129.1 94.4,130.5 95.2,131.9 95.9,133.2 96.7,134.5 97.4,135.8 98.2,137.1 98.9,138.3 99.7,139.5 100.4,140.6 101.2,141.8 102.0,142.9 102.7,143.9 103.5,145.0 104.2,146.0 105.0,147.0 105.7,147.9 106.5,148.9 107.2,149.8 108.0,150.6 108.7,151.5 109.5,152.3 110.2,153.1 111.0,153.8 111.7,154.5 112.5,155.2 113.2,155.9 114.0,156.5 114.7,157.1 115.5,157.7 116.3,158.2 117.0,158.8 117.8,159.2 118.5,159.7 119.3,160.1 120.0,160.5 120.8,160.9 121.5,161.2 122.3,161.5 123.0,161.8 123.8,162.1 124.5,162.3 125.3,162.5 126.0,162.6 126.8,162.8 127.5,162.9 128.3,162.9 129.0,163.0 129.8,163.0 130.6,163.0 131.3,162.9 132.1,162.9 132.8,162.8 133.6,162.6 134.3,162.5 135.1,162.3 135.8,162.1 136.6,161.8 137.3,161.5 138.1,161.2 138.8,160.9 139.6,160.5 140.3,160.1 141.1,159.7 141.8,159.2 142.6,158.8 143.3,158.2 144.1,157.7 144.9,157.1 145.6,156.5 146.4,155.9 147.1,155.2 147.9,154.5 148.6,153.8 149.4,153.1 150.1,152.3 150.9,151.5 151.6,150.6 152.4,149.8 153.1,148.9 153.9,147.9 154.6,147.0 155.4,146.0 156.1,145.0 156.9,143.9 157.6,142.9 158.4,141.8 159.2,140.6 159.9,139.5 160.7,138.3 161.4,137.1 162.2,135.8 162.9,134.5 163.7,133.2 164.4,131.9 165.2,130.5 165.9,129.1 166.7,127.7 167.4,126.2 168.2,124.8 168.9,123.3 169.7,121.7 170.4,120.1 171.2,118.5 171.9,116.9 172.7,115.2 173.5,113.5 174.2,111.8 175.0,110.1 175.7,108.3 176.5,106.5 177.2,104.7 178.0,102.8 178.7,100.9 179.5,99.0 180.2,97.0 181.0,95.0 181.7,93.0 182.5,91.0 183.2,88.9 184.0,86.8 184.7,84.7 185.5,82.5 186.2,80.3 187.0,78.1 187.8,75.8 188.5,73.6 189.3,71.3 190.0,68.9 190.8,66.6 191.5,64.2 192.3,61.7 193.0,59.3 193.8,56.8 194.5,54.3 195.3,51.7 196.0,49.2 196.8,46.6 197.5,43.9 198.3,41.3 199.0,38.6 199.8,35.9 200.5,33.1 201.3,30.3 202.1,27.5 202.8,24.7 203.6,21.8 204.3,18.9 205.1,16.0" fill="none" stroke="#000" stroke-width="1.6" stroke-linejoin="round"/>
<polyline points="156.5,16.0 157.3,18.9 158.0,21.8 158.8,24.7 159.5,27.5 160.3,30.3 161.1,33.1 161.8,35.9 162.6,38.6 163.3,41.3 164.1,43.9 164.8,46.6 165.6,49.2 166.3,51.7 167.1,54.3 167.8,56.8 168.6,59.3 169.3,61.7 170.1,64.2 170.8,66.6 171.6,68.9 172.3,71.3 173.1,73.6 173.8,75.8 174.6,78.1 175.4,80.3 176.1,82.5 176.9,84.7 177.6,86.8 178.4,88.9 179.1,91.0 179.9,93.0 180.6,95.0 181.4,97.0 182.1,99.0 182.9,100.9 183.6,102.8 184.4,104.7 185.1,106.5 185.9,108.3 186.6,110.1 187.4,111.8 188.1,113.5 188.9,115.2 189.7,116.9 190.4,118.5 191.2,120.1 191.9,121.7 192.7,123.3 193.4,124.8 194.2,126.2 194.9,127.7 195.7,129.1 196.4,130.5 197.2,131.9 197.9,133.2 198.7,134.5 199.4,135.8 200.2,137.1 200.9,138.3 201.7,139.5 202.4,140.6 203.2,141.8 204.0,142.9 204.7,143.9 205.5,145.0 206.2,146.0 207.0,147.0 207.7,147.9 208.5,148.9 209.2,149.8 210.0,150.6 210.7,151.5 211.5,152.3 212.2,153.1 213.0,153.8 213.7,154.5 214.5,155.2 215.2,155.9 216.0,156.5 216.7,157.1 217.5,157.7 218.3,158.2 219.0,158.8 219.8,159.2 220.5,159.7 221.3,160.1 222.0,160.5 222.8,160.9 223.5,161.2 224.3,161.5 225.0,161.8 225.8,162.1 226.5,162.3 227.3,162.5 228.0,162.6 228.8,162.8 229.5,162.9 230.3,162.9 231.0,163.0 231.8,163.0 232.6,163.0 233.3,162.9 234.1,162.9 234.8,162.8 235.6,162.6 236.3,162.5 237.1,162.3 237.8,162.1 238.6,161.8 239.3,161.5 240.1,161.2 240.8,160.9 241.6,160.5 242.3,160.1 243.1,159.7 243.8,159.2 244.6,158.8 245.3,158.2 246.1,157.7 246.9,157.1 247.6,156.5 248.4,155.9 249.1,155.2 249.9,154.5 250.6,153.8 251.4,153.1 252.1,152.3 252.9,151.5 253.6,150.6 254.4,149.8 255.1,148.9 255.9,147.9 256.6,147.0 257.4,146.0 258.1,145.0 258.9,143.9 259.6,142.9 260.4,141.8 261.2,140.6 261.9,139.5 262.7,138.3 263.4,137.1 264.2,135.8 264.9,134.5 265.7,133.2 266.4,131.9 267.2,130.5 267.9,129.1 268.7,127.7 269.4,126.3 270.2,124.8 270.9,123.3 271.7,121.7 272.4,120.1 273.2,118.5 273.9,116.9 274.7,115.2 275.5,113.5 276.2,111.8 277.0,110.1 277.7,108.3 278.5,106.5 279.2,104.7 280.0,102.8 280.7,100.9 281.5,99.0 282.2,97.0 283.0,95.0 283.7,93.0 284.5,91.0 285.2,88.9 286.0,86.8 286.7,84.7 287.5,82.5 288.2,80.3 289.0,78.1 289.8,75.8 290.5,73.6 291.3,71.3 292.0,68.9 292.8,66.6 293.5,64.2 294.3,61.7 295.0,59.3 295.8,56.8 296.5,54.3 297.3,51.7 298.0,49.2 298.8,46.6 299.5,43.9 300.3,41.3 301.0,38.6 301.8,35.9 302.5,33.1 303.3,30.3 304.1,27.5 304.8,24.7 305.6,21.8 306.3,18.9 307.1,16.0" fill="none" stroke="#000" stroke-width="1.6" stroke-linejoin="round"/>
<circle cx="95.8" cy="133.0" r="3.0" fill="#000"/>
<circle cx="197.8" cy="133.0" r="3.0" fill="#000"/>
<line x1="101.8" y1="126.0" x2="184.8" y2="126.0" stroke="#000" stroke-width="1.2"/>
<polygon points="191.8,126.0 184.8,129.2 184.8,122.8" fill="#000"/>
<circle cx="129.8" cy="163.0" r="3.0" fill="#000"/>
<circle cx="231.8" cy="163.0" r="3.0" fill="#000"/>
<line x1="135.8" y1="170.0" x2="218.8" y2="170.0" stroke="#000" stroke-width="1.2"/>
<polygon points="225.8,170.0 218.8,173.2 218.8,166.8" fill="#000"/>
<circle cx="163.8" cy="133.0" r="3.0" fill="#000"/>
<circle cx="265.8" cy="133.0" r="3.0" fill="#000"/>
<line x1="169.8" y1="126.0" x2="252.8" y2="126.0" stroke="#000" stroke-width="1.2"/>
<polygon points="259.8,126.0 252.8,129.2 252.8,122.8" fill="#000"/>
<text x="180.8" y="151.0" font-size="12" text-anchor="middle" font-weight="bold">＋3</text>
<line x1="231.8" y1="163.0" x2="231.8" y2="28.0" stroke="#000" stroke-width="1.1" stroke-dasharray="6 4"/>
<text x="51.0" y="21.0" font-size="13" text-anchor="start">y＝x²</text>
<text x="308.6" y="21.0" font-size="13" text-anchor="start">y＝(x−3)²</text>
</svg>
