<svg xmlns="http://www.w3.org/2000/svg" viewBox="0 0 311 250">
<title>y=x²とy=x²＋2——y軸方向に＋2の平行移動</title>
<desc>【この図の意図】どのxでもyがちょうど2大きい→グラフ全体が上に2ずれる（形は不変）ことを縦矢印3本で見せる前後比較図。【主要な数値・設定】y=x²とy=x²+2／縦矢印x=−1.5,0,1.5／頂点(0,0)→(0,2)。【AIに同じ種類の図を描かせるときの説明文】「y=x²とy=x²＋2——y軸方向に＋2の平行移動。どのxでもyがちょうど2大きい→グラフ全体が上に2ずれる（形は不変）ことを縦矢印3本で見せる前後比較図。数値・設定: y=x²とy=x²+2／縦矢印x=−1.5,0,1.5／頂点(0,0)→(0,2)。白黒印刷向けのシンプルな教材図（SVG）としてかいて。」——この説明文を生成AIに渡せば同型の図を描かせられる。数値を変えれば類題用の図も作れる。</desc>
<!-- L02_fig1_vertical_shift.svg | y=x²とy=x²＋2——y軸方向に＋2の平行移動 -->
<!-- generated by assets_provenance/generate_figures.py on 2026-07-17 (docs/SPEC_figures.md準拠（内部規約の要旨は同SPECに反映済み）・SVG直接編集禁止/スクリプト改修で再生成) -->
<rect x="0" y="0" width="311" height="250" fill="#fff"/>
<line x1="38.0" y1="203.2" x2="236.2" y2="203.2" stroke="#000" stroke-width="1.2"/>
<polygon points="243.2,203.2 236.2,206.4 236.2,200.1" fill="#000"/>
<line x1="136.6" y1="224.0" x2="136.6" y2="15.0" stroke="#000" stroke-width="1.2"/>
<polygon points="136.6,8.0 139.8,15.0 133.4,15.0" fill="#000"/>
<text x="245.2" y="207.7" font-size="13" text-anchor="start">x</text>
<text x="143.6" y="10.0" font-size="13" text-anchor="start">y</text>
<line x1="68.6" y1="200.2" x2="68.6" y2="206.2" stroke="#000" stroke-width="1.0"/>
<line x1="102.6" y1="200.2" x2="102.6" y2="206.2" stroke="#000" stroke-width="1.0"/>
<line x1="170.6" y1="200.2" x2="170.6" y2="206.2" stroke="#000" stroke-width="1.0"/>
<line x1="204.6" y1="200.2" x2="204.6" y2="206.2" stroke="#000" stroke-width="1.0"/>
<line x1="133.6" y1="177.2" x2="139.6" y2="177.2" stroke="#000" stroke-width="1.0"/>
<line x1="133.6" y1="151.2" x2="139.6" y2="151.2" stroke="#000" stroke-width="1.0"/>
<line x1="133.6" y1="125.2" x2="139.6" y2="125.2" stroke="#000" stroke-width="1.0"/>
<line x1="133.6" y1="99.2" x2="139.6" y2="99.2" stroke="#000" stroke-width="1.0"/>
<line x1="133.6" y1="73.2" x2="139.6" y2="73.2" stroke="#000" stroke-width="1.0"/>
<line x1="133.6" y1="47.2" x2="139.6" y2="47.2" stroke="#000" stroke-width="1.0"/>
<line x1="133.6" y1="21.2" x2="139.6" y2="21.2" stroke="#000" stroke-width="1.0"/>
<text x="68.6" y="217.2" font-size="11" text-anchor="middle">−2</text>
<text x="102.6" y="217.2" font-size="11" text-anchor="middle">−1</text>
<text x="170.6" y="217.2" font-size="11" text-anchor="middle">1</text>
<text x="204.6" y="217.2" font-size="11" text-anchor="middle">2</text>
<text x="130.6" y="155.1" font-size="11" text-anchor="end">2</text>
<text x="130.6" y="103.1" font-size="11" text-anchor="end">4</text>
<text x="130.6" y="51.1" font-size="11" text-anchor="end">6</text>
<text x="131.6" y="217.2" font-size="11" text-anchor="end">O</text>
<polyline points="45.4,16.0 46.3,19.7 47.2,23.4 48.1,27.1 49.0,30.7 49.9,34.3 50.8,37.8 51.8,41.3 52.7,44.8 53.6,48.2 54.5,51.6 55.4,54.9 56.3,58.2 57.2,61.5 58.1,64.7 59.1,67.9 60.0,71.1 60.9,74.2 61.8,77.3 62.7,80.4 63.6,83.4 64.5,86.4 65.4,89.3 66.4,92.2 67.3,95.1 68.2,97.9 69.1,100.7 70.0,103.4 70.9,106.2 71.8,108.8 72.7,111.5 73.7,114.1 74.6,116.6 75.5,119.2 76.4,121.7 77.3,124.1 78.2,126.5 79.1,128.9 80.0,131.2 80.9,133.5 81.9,135.8 82.8,138.0 83.7,140.2 84.6,142.4 85.5,144.5 86.4,146.6 87.3,148.6 88.2,150.6 89.2,152.6 90.1,154.5 91.0,156.4 91.9,158.3 92.8,160.1 93.7,161.8 94.6,163.6 95.5,165.3 96.5,167.0 97.4,168.6 98.3,170.2 99.2,171.7 100.1,173.2 101.0,174.7 101.9,176.2 102.8,177.6 103.8,178.9 104.7,180.3 105.6,181.6 106.5,182.8 107.4,184.0 108.3,185.2 109.2,186.4 110.1,187.5 111.1,188.5 112.0,189.6 112.9,190.5 113.8,191.5 114.7,192.4 115.6,193.3 116.5,194.1 117.4,194.9 118.4,195.7 119.3,196.4 120.2,197.1 121.1,197.8 122.0,198.4 122.9,199.0 123.8,199.5 124.7,200.0 125.7,200.5 126.6,200.9 127.5,201.3 128.4,201.7 129.3,202.0 130.2,202.3 131.1,202.5 132.0,202.7 133.0,202.9 133.9,203.0 134.8,203.1 135.7,203.2 136.6,203.2 137.5,203.2 138.4,203.1 139.3,203.0 140.2,202.9 141.2,202.7 142.1,202.5 143.0,202.3 143.9,202.0 144.8,201.7 145.7,201.3 146.6,200.9 147.5,200.5 148.5,200.0 149.4,199.5 150.3,199.0 151.2,198.4 152.1,197.8 153.0,197.1 153.9,196.4 154.8,195.7 155.8,194.9 156.7,194.1 157.6,193.3 158.5,192.4 159.4,191.5 160.3,190.5 161.2,189.6 162.1,188.5 163.1,187.5 164.0,186.4 164.9,185.2 165.8,184.0 166.7,182.8 167.6,181.6 168.5,180.3 169.4,178.9 170.4,177.6 171.3,176.2 172.2,174.7 173.1,173.2 174.0,171.7 174.9,170.2 175.8,168.6 176.7,167.0 177.7,165.3 178.6,163.6 179.5,161.8 180.4,160.1 181.3,158.3 182.2,156.4 183.1,154.5 184.0,152.6 185.0,150.6 185.9,148.6 186.8,146.6 187.7,144.5 188.6,142.4 189.5,140.2 190.4,138.0 191.3,135.8 192.3,133.5 193.2,131.2 194.1,128.9 195.0,126.5 195.9,124.1 196.8,121.7 197.7,119.2 198.6,116.6 199.5,114.1 200.5,111.5 201.4,108.8 202.3,106.2 203.2,103.4 204.1,100.7 205.0,97.9 205.9,95.1 206.8,92.2 207.8,89.3 208.7,86.4 209.6,83.4 210.5,80.4 211.4,77.3 212.3,74.2 213.2,71.1 214.1,67.9 215.1,64.7 216.0,61.5 216.9,58.2 217.8,54.9 218.7,51.6 219.6,48.2 220.5,44.8 221.4,41.3 222.4,37.8 223.3,34.3 224.2,30.7 225.1,27.1 226.0,23.4 226.9,19.7 227.8,16.0" fill="none" stroke="#000" stroke-width="1.6" stroke-linejoin="round"/>
<polyline points="59.1,16.0 59.8,18.7 60.6,21.4 61.4,24.0 62.2,26.6 62.9,29.2 63.7,31.7 64.5,34.3 65.3,36.8 66.0,39.2 66.8,41.7 67.6,44.1 68.4,46.5 69.1,48.9 69.9,51.2 70.7,53.5 71.5,55.8 72.2,58.1 73.0,60.3 73.8,62.5 74.6,64.7 75.3,66.8 76.1,68.9 76.9,71.0 77.7,73.1 78.5,75.2 79.2,77.2 80.0,79.2 80.8,81.1 81.6,83.0 82.3,85.0 83.1,86.8 83.9,88.7 84.7,90.5 85.4,92.3 86.2,94.1 87.0,95.8 87.8,97.5 88.5,99.2 89.3,100.9 90.1,102.5 90.9,104.1 91.6,105.7 92.4,107.3 93.2,108.8 94.0,110.3 94.7,111.8 95.5,113.2 96.3,114.6 97.1,116.0 97.8,117.4 98.6,118.7 99.4,120.0 100.2,121.3 100.9,122.6 101.7,123.8 102.5,125.0 103.3,126.2 104.0,127.4 104.8,128.5 105.6,129.6 106.4,130.6 107.1,131.7 107.9,132.7 108.7,133.7 109.5,134.6 110.2,135.6 111.0,136.5 111.8,137.4 112.6,138.2 113.3,139.0 114.1,139.8 114.9,140.6 115.7,141.3 116.4,142.1 117.2,142.8 118.0,143.4 118.8,144.0 119.5,144.7 120.3,145.2 121.1,145.8 121.9,146.3 122.6,146.8 123.4,147.3 124.2,147.7 125.0,148.2 125.7,148.6 126.5,148.9 127.3,149.3 128.1,149.6 128.8,149.8 129.6,150.1 130.4,150.3 131.2,150.5 131.9,150.7 132.7,150.9 133.5,151.0 134.3,151.1 135.0,151.1 135.8,151.2 136.6,151.2 137.4,151.2 138.2,151.1 138.9,151.1 139.7,151.0 140.5,150.9 141.3,150.7 142.0,150.5 142.8,150.3 143.6,150.1 144.4,149.8 145.1,149.6 145.9,149.3 146.7,148.9 147.5,148.6 148.2,148.2 149.0,147.7 149.8,147.3 150.6,146.8 151.3,146.3 152.1,145.8 152.9,145.2 153.7,144.7 154.4,144.0 155.2,143.4 156.0,142.8 156.8,142.1 157.5,141.3 158.3,140.6 159.1,139.8 159.9,139.0 160.6,138.2 161.4,137.4 162.2,136.5 163.0,135.6 163.7,134.6 164.5,133.7 165.3,132.7 166.1,131.7 166.8,130.6 167.6,129.6 168.4,128.5 169.2,127.4 169.9,126.2 170.7,125.0 171.5,123.8 172.3,122.6 173.0,121.3 173.8,120.0 174.6,118.7 175.4,117.4 176.1,116.0 176.9,114.6 177.7,113.2 178.5,111.8 179.2,110.3 180.0,108.8 180.8,107.3 181.6,105.7 182.3,104.1 183.1,102.5 183.9,100.9 184.7,99.2 185.4,97.5 186.2,95.8 187.0,94.1 187.8,92.3 188.5,90.5 189.3,88.7 190.1,86.8 190.9,85.0 191.6,83.0 192.4,81.1 193.2,79.2 194.0,77.2 194.7,75.2 195.5,73.1 196.3,71.0 197.1,68.9 197.9,66.8 198.6,64.7 199.4,62.5 200.2,60.3 201.0,58.1 201.7,55.8 202.5,53.5 203.3,51.2 204.1,48.9 204.8,46.5 205.6,44.1 206.4,41.7 207.2,39.2 207.9,36.8 208.7,34.3 209.5,31.7 210.3,29.2 211.0,26.6 211.8,24.0 212.6,21.4 213.4,18.7 214.1,16.0" fill="none" stroke="#000" stroke-width="1.6" stroke-linejoin="round"/>
<line x1="85.6" y1="144.7" x2="85.6" y2="104.7" stroke="#000" stroke-width="1.3"/>
<polygon points="85.6,97.7 88.8,104.7 82.4,104.7" fill="#000"/>
<line x1="136.6" y1="203.2" x2="136.6" y2="163.2" stroke="#000" stroke-width="1.3"/>
<polygon points="136.6,156.2 139.8,163.2 133.4,163.2" fill="#000"/>
<line x1="187.6" y1="144.7" x2="187.6" y2="104.7" stroke="#000" stroke-width="1.3"/>
<polygon points="187.6,97.7 190.8,104.7 184.4,104.7" fill="#000"/>
<text x="197.6" y="122.7" font-size="12" text-anchor="start" font-weight="bold">＋2</text>
<circle cx="136.6" cy="203.2" r="3.0" fill="#000"/>
<circle cx="136.6" cy="151.2" r="3.0" fill="#000"/>
<text x="233.8" y="33.8" font-size="13" text-anchor="start">y＝x²</text>
<text x="53.1" y="20.0" font-size="13" text-anchor="end">y＝x²＋2</text>
</svg>
