<svg xmlns="http://www.w3.org/2000/svg" viewBox="0 0 412 253">
<title>y=(x−3)²＋2——右へ3・上へ2で頂点(3,2)</title>
<desc>【この図の意図】縦横の平行移動を組み合わせると頂点が(p,q)に移る——一般則y=a(x−p)²+qの具体例を2段矢印で見せる。【主要な数値・設定】y=x²→y=(x−3)²+2／移動矢印(0,0)→(3,0)→(3,2)／軸x=3破線・頂点(3,2)。【AIに同じ種類の図を描かせるときの説明文】「y=(x−3)²＋2——右へ3・上へ2で頂点(3,2)。縦横の平行移動を組み合わせると頂点が(p,q)に移る——一般則y=a(x−p)²+qの具体例を2段矢印で見せる。数値・設定: y=x²→y=(x−3)²+2／移動矢印(0,0)→(3,0)→(3,2)／軸x=3破線・頂点(3,2)。白黒印刷向けのシンプルな教材図（SVG）としてかいて。」——この説明文を生成AIに渡せば同型の図を描かせられる。数値を変えれば類題用の図も作れる。</desc>
<!-- L02_fig3_both_shift_vertex.svg | y=(x−3)²＋2——右へ3・上へ2で頂点(3,2) -->
<!-- generated by assets_provenance/generate_figures.py on 2026-07-17 (docs/SPEC_figures.md準拠（内部規約の要旨は同SPECに反映済み）・SVG直接編集禁止/スクリプト改修で再生成) -->
<rect x="0" y="0" width="412" height="253" fill="#fff"/>
<line x1="38.0" y1="203.2" x2="320.6" y2="203.2" stroke="#000" stroke-width="1.2"/>
<polygon points="327.6,203.2 320.6,206.4 320.6,200.1" fill="#000"/>
<line x1="121.2" y1="226.6" x2="121.2" y2="15.0" stroke="#000" stroke-width="1.2"/>
<polygon points="121.2,8.0 124.4,15.0 118.0,15.0" fill="#000"/>
<text x="329.6" y="207.7" font-size="13" text-anchor="start">x</text>
<text x="128.2" y="10.0" font-size="13" text-anchor="start">y</text>
<line x1="57.2" y1="200.2" x2="57.2" y2="206.2" stroke="#000" stroke-width="1.0"/>
<line x1="89.2" y1="200.2" x2="89.2" y2="206.2" stroke="#000" stroke-width="1.0"/>
<line x1="153.2" y1="200.2" x2="153.2" y2="206.2" stroke="#000" stroke-width="1.0"/>
<line x1="185.2" y1="200.2" x2="185.2" y2="206.2" stroke="#000" stroke-width="1.0"/>
<line x1="217.2" y1="200.2" x2="217.2" y2="206.2" stroke="#000" stroke-width="1.0"/>
<line x1="249.2" y1="200.2" x2="249.2" y2="206.2" stroke="#000" stroke-width="1.0"/>
<line x1="281.2" y1="200.2" x2="281.2" y2="206.2" stroke="#000" stroke-width="1.0"/>
<line x1="313.2" y1="200.2" x2="313.2" y2="206.2" stroke="#000" stroke-width="1.0"/>
<line x1="118.2" y1="177.2" x2="124.2" y2="177.2" stroke="#000" stroke-width="1.0"/>
<line x1="118.2" y1="151.2" x2="124.2" y2="151.2" stroke="#000" stroke-width="1.0"/>
<line x1="118.2" y1="125.2" x2="124.2" y2="125.2" stroke="#000" stroke-width="1.0"/>
<line x1="118.2" y1="99.2" x2="124.2" y2="99.2" stroke="#000" stroke-width="1.0"/>
<line x1="118.2" y1="73.2" x2="124.2" y2="73.2" stroke="#000" stroke-width="1.0"/>
<line x1="118.2" y1="47.2" x2="124.2" y2="47.2" stroke="#000" stroke-width="1.0"/>
<line x1="118.2" y1="21.2" x2="124.2" y2="21.2" stroke="#000" stroke-width="1.0"/>
<text x="57.2" y="217.2" font-size="11" text-anchor="middle">−2</text>
<text x="89.2" y="217.2" font-size="11" text-anchor="middle">−1</text>
<text x="153.2" y="217.2" font-size="11" text-anchor="middle">1</text>
<text x="185.2" y="217.2" font-size="11" text-anchor="middle">2</text>
<text x="249.2" y="217.2" font-size="11" text-anchor="middle">4</text>
<text x="281.2" y="217.2" font-size="11" text-anchor="middle">5</text>
<text x="115.2" y="155.1" font-size="11" text-anchor="end">2</text>
<text x="115.2" y="103.1" font-size="11" text-anchor="end">4</text>
<text x="115.2" y="51.1" font-size="11" text-anchor="end">6</text>
<text x="116.2" y="217.2" font-size="11" text-anchor="end">O</text>
<polyline points="38.0,27.4 38.8,31.0 39.7,34.5 40.5,38.0 41.4,41.4 42.2,44.8 43.1,48.2 43.9,51.6 44.8,54.9 45.6,58.1 46.5,61.3 47.3,64.5 48.1,67.7 49.0,70.8 49.8,73.9 50.7,76.9 51.5,79.9 52.4,82.9 53.2,85.8 54.1,88.7 54.9,91.6 55.8,94.4 56.6,97.2 57.4,100.0 58.3,102.7 59.1,105.4 60.0,108.0 60.8,110.6 61.7,113.2 62.5,115.8 63.4,118.3 64.2,120.7 65.1,123.1 65.9,125.5 66.7,127.9 67.6,130.2 68.4,132.5 69.3,134.7 70.1,137.0 71.0,139.1 71.8,141.3 72.7,143.4 73.5,145.4 74.3,147.5 75.2,149.5 76.0,151.4 76.9,153.3 77.7,155.2 78.6,157.1 79.4,158.9 80.3,160.7 81.1,162.4 82.0,164.1 82.8,165.8 83.6,167.4 84.5,169.0 85.3,170.5 86.2,172.1 87.0,173.6 87.9,175.0 88.7,176.4 89.6,177.8 90.4,179.1 91.3,180.4 92.1,181.7 92.9,182.9 93.8,184.1 94.6,185.3 95.5,186.4 96.3,187.5 97.2,188.5 98.0,189.6 98.9,190.5 99.7,191.5 100.6,192.4 101.4,193.2 102.2,194.1 103.1,194.9 103.9,195.6 104.8,196.4 105.6,197.0 106.5,197.7 107.3,198.3 108.2,198.9 109.0,199.4 109.9,199.9 110.7,200.4 111.5,200.8 112.4,201.2 113.2,201.6 114.1,201.9 114.9,202.2 115.8,202.5 116.6,202.7 117.5,202.8 118.3,203.0 119.2,203.1 120.0,203.2 120.8,203.2 121.7,203.2 122.5,203.2 123.4,203.1 124.2,203.0 125.1,202.8 125.9,202.6 126.8,202.4 127.6,202.2 128.4,201.9 129.3,201.5 130.1,201.2 131.0,200.8 131.8,200.3 132.7,199.9 133.5,199.3 134.4,198.8 135.2,198.2 136.1,197.6 136.9,196.9 137.7,196.2 138.6,195.5 139.4,194.8 140.3,194.0 141.1,193.1 142.0,192.2 142.8,191.3 143.7,190.4 144.5,189.4 145.4,188.4 146.2,187.3 147.0,186.2 147.9,185.1 148.7,183.9 149.6,182.7 150.4,181.5 151.3,180.2 152.1,178.9 153.0,177.6 153.8,176.2 154.7,174.8 155.5,173.3 156.3,171.8 157.2,170.3 158.0,168.7 158.9,167.1 159.7,165.5 160.6,163.8 161.4,162.1 162.3,160.4 163.1,158.6 164.0,156.8 164.8,154.9 165.6,153.0 166.5,151.1 167.3,149.2 168.2,147.2 169.0,145.1 169.9,143.1 170.7,140.9 171.6,138.8 172.4,136.6 173.3,134.4 174.1,132.2 174.9,129.9 175.8,127.5 176.6,125.2 177.5,122.8 178.3,120.3 179.2,117.9 180.0,115.4 180.9,112.8 181.7,110.2 182.6,107.6 183.4,105.0 184.2,102.3 185.1,99.6 185.9,96.8 186.8,94.0 187.6,91.2 188.5,88.3 189.3,85.4 190.2,82.5 191.0,79.5 191.8,76.5 192.7,73.4 193.5,70.3 194.4,67.2 195.2,64.0 196.1,60.9 196.9,57.6 197.8,54.3 198.6,51.0 199.5,47.7 200.3,44.3 201.1,40.9 202.0,37.5 202.8,34.0 203.7,30.5 204.5,26.9 205.4,23.3 206.2,19.7 207.1,16.0" fill="none" stroke="#000" stroke-width="1.6" stroke-linejoin="round"/>
<polyline points="144.2,16.0 145.0,18.7 145.7,21.4 146.4,24.0 147.1,26.6 147.9,29.2 148.6,31.7 149.3,34.3 150.1,36.8 150.8,39.2 151.5,41.7 152.3,44.1 153.0,46.5 153.7,48.9 154.4,51.2 155.2,53.5 155.9,55.8 156.6,58.1 157.4,60.3 158.1,62.5 158.8,64.7 159.6,66.8 160.3,68.9 161.0,71.0 161.7,73.1 162.5,75.2 163.2,77.2 163.9,79.2 164.7,81.1 165.4,83.0 166.1,85.0 166.8,86.8 167.6,88.7 168.3,90.5 169.0,92.3 169.8,94.1 170.5,95.8 171.2,97.5 172.0,99.2 172.7,100.9 173.4,102.5 174.1,104.1 174.9,105.7 175.6,107.3 176.3,108.8 177.1,110.3 177.8,111.8 178.5,113.2 179.3,114.6 180.0,116.0 180.7,117.4 181.4,118.7 182.2,120.0 182.9,121.3 183.6,122.6 184.4,123.8 185.1,125.0 185.8,126.2 186.6,127.4 187.3,128.5 188.0,129.6 188.7,130.6 189.5,131.7 190.2,132.7 190.9,133.7 191.7,134.6 192.4,135.6 193.1,136.5 193.8,137.4 194.6,138.2 195.3,139.0 196.0,139.8 196.8,140.6 197.5,141.3 198.2,142.1 199.0,142.8 199.7,143.4 200.4,144.0 201.1,144.7 201.9,145.2 202.6,145.8 203.3,146.3 204.1,146.8 204.8,147.3 205.5,147.7 206.3,148.2 207.0,148.6 207.7,148.9 208.4,149.3 209.2,149.6 209.9,149.8 210.6,150.1 211.4,150.3 212.1,150.5 212.8,150.7 213.6,150.9 214.3,151.0 215.0,151.1 215.7,151.1 216.5,151.2 217.2,151.2 217.9,151.2 218.7,151.1 219.4,151.1 220.1,151.0 220.8,150.9 221.6,150.7 222.3,150.5 223.0,150.3 223.8,150.1 224.5,149.8 225.2,149.6 226.0,149.3 226.7,148.9 227.4,148.6 228.1,148.2 228.9,147.7 229.6,147.3 230.3,146.8 231.1,146.3 231.8,145.8 232.5,145.2 233.3,144.7 234.0,144.0 234.7,143.4 235.4,142.8 236.2,142.1 236.9,141.3 237.6,140.6 238.4,139.8 239.1,139.0 239.8,138.2 240.6,137.4 241.3,136.5 242.0,135.6 242.7,134.6 243.5,133.7 244.2,132.7 244.9,131.7 245.7,130.6 246.4,129.6 247.1,128.5 247.8,127.4 248.6,126.2 249.3,125.0 250.0,123.8 250.8,122.6 251.5,121.3 252.2,120.0 253.0,118.7 253.7,117.4 254.4,116.0 255.1,114.6 255.9,113.2 256.6,111.8 257.3,110.3 258.1,108.8 258.8,107.3 259.5,105.7 260.3,104.1 261.0,102.5 261.7,100.9 262.4,99.2 263.2,97.5 263.9,95.8 264.6,94.1 265.4,92.3 266.1,90.5 266.8,88.7 267.6,86.8 268.3,85.0 269.0,83.0 269.7,81.1 270.5,79.2 271.2,77.2 271.9,75.1 272.7,73.1 273.4,71.0 274.1,68.9 274.8,66.8 275.6,64.7 276.3,62.5 277.0,60.3 277.8,58.1 278.5,55.8 279.2,53.5 280.0,51.2 280.7,48.9 281.4,46.5 282.1,44.1 282.9,41.7 283.6,39.2 284.3,36.8 285.1,34.3 285.8,31.7 286.5,29.2 287.3,26.6 288.0,24.0 288.7,21.4 289.4,18.7 290.2,16.0" fill="none" stroke="#000" stroke-width="1.6" stroke-linejoin="round"/>
<line x1="127.2" y1="217.2" x2="208.2" y2="217.2" stroke="#000" stroke-width="1.3"/>
<polygon points="215.2,217.2 208.2,220.4 208.2,214.1" fill="#000"/>
<text x="169.2" y="231.2" font-size="11" text-anchor="middle">x軸方向に＋3</text>
<line x1="239.2" y1="203.2" x2="239.2" y2="162.2" stroke="#000" stroke-width="1.3"/>
<polygon points="239.2,155.2 242.3,162.2 236.0,162.2" fill="#000"/>
<text x="245.2" y="181.2" font-size="11" text-anchor="start">y軸方向に＋2</text>
<line x1="217.2" y1="151.2" x2="217.2" y2="23.8" stroke="#000" stroke-width="1.1" stroke-dasharray="6 4"/>
<circle cx="121.2" cy="203.2" r="3.0" fill="#000"/>
<circle cx="217.2" cy="151.2" r="3.4" fill="#000"/>
<text x="203.2" y="171.2" font-size="12" text-anchor="end" font-weight="bold">頂点(3, 2)</text>
<text x="223.2" y="25.8" font-size="12" text-anchor="start">軸 x＝3</text>
<text x="46.8" y="30.8" font-size="13" text-anchor="start">y＝x²</text>
<text x="290.0" y="19.8" font-size="13" text-anchor="start">y＝(x−3)²＋2</text>
</svg>
