<svg xmlns="http://www.w3.org/2000/svg" viewBox="0 0 300 278">
<title>y=x²＋4x＋1のグラフ——変形すると頂点(−2,−3)が読める</title>
<desc>【この図の意図】一般形のままでは見えなかった頂点が、平方完成後の式から読めた——式変形の成果をグラフで確認する。【主要な数値・設定】y=x²+4x+1=(x+2)²−3／頂点(−2,−3)・軸x=−2破線／y切片(0,1)。【AIに同じ種類の図を描かせるときの説明文】「y=x²＋4x＋1のグラフ——変形すると頂点(−2,−3)が読める。一般形のままでは見えなかった頂点が、平方完成後の式から読めた——式変形の成果をグラフで確認する。数値・設定: y=x²+4x+1=(x+2)²−3／頂点(−2,−3)・軸x=−2破線／y切片(0,1)。白黒印刷向けのシンプルな教材図（SVG）としてかいて。」——この説明文を生成AIに渡せば同型の図を描かせられる。数値を変えれば類題用の図も作れる。</desc>
<!-- L03_fig1_completing_square_vertex.svg | y=x²＋4x＋1のグラフ——変形すると頂点(−2,−3)が読める -->
<!-- generated by assets_provenance/generate_figures.py on 2026-07-17 (docs/SPEC_figures.md準拠（内部規約の要旨は同SPECに反映済み）・SVG直接編集禁止/スクリプト改修で再生成) -->
<rect x="0" y="0" width="300" height="278" fill="#fff"/>
<line x1="40.0" y1="152.4" x2="271.4" y2="152.4" stroke="#000" stroke-width="1.2"/>
<polygon points="278.4,152.4 271.4,155.6 271.4,149.2" fill="#000"/>
<line x1="219.2" y1="238.2" x2="219.2" y2="15.0" stroke="#000" stroke-width="1.2"/>
<polygon points="219.2,8.0 222.3,15.0 216.0,15.0" fill="#000"/>
<text x="280.4" y="156.9" font-size="13" text-anchor="start">x</text>
<text x="226.2" y="10.0" font-size="13" text-anchor="start">y</text>
<line x1="59.2" y1="149.4" x2="59.2" y2="155.4" stroke="#000" stroke-width="1.0"/>
<line x1="91.2" y1="149.4" x2="91.2" y2="155.4" stroke="#000" stroke-width="1.0"/>
<line x1="123.2" y1="149.4" x2="123.2" y2="155.4" stroke="#000" stroke-width="1.0"/>
<line x1="155.2" y1="149.4" x2="155.2" y2="155.4" stroke="#000" stroke-width="1.0"/>
<line x1="187.2" y1="149.4" x2="187.2" y2="155.4" stroke="#000" stroke-width="1.0"/>
<line x1="251.2" y1="149.4" x2="251.2" y2="155.4" stroke="#000" stroke-width="1.0"/>
<line x1="216.2" y1="218.4" x2="222.2" y2="218.4" stroke="#000" stroke-width="1.0"/>
<line x1="216.2" y1="196.4" x2="222.2" y2="196.4" stroke="#000" stroke-width="1.0"/>
<line x1="216.2" y1="174.4" x2="222.2" y2="174.4" stroke="#000" stroke-width="1.0"/>
<line x1="216.2" y1="130.4" x2="222.2" y2="130.4" stroke="#000" stroke-width="1.0"/>
<line x1="216.2" y1="108.4" x2="222.2" y2="108.4" stroke="#000" stroke-width="1.0"/>
<line x1="216.2" y1="86.4" x2="222.2" y2="86.4" stroke="#000" stroke-width="1.0"/>
<line x1="216.2" y1="64.4" x2="222.2" y2="64.4" stroke="#000" stroke-width="1.0"/>
<line x1="216.2" y1="42.4" x2="222.2" y2="42.4" stroke="#000" stroke-width="1.0"/>
<line x1="216.2" y1="20.4" x2="222.2" y2="20.4" stroke="#000" stroke-width="1.0"/>
<text x="59.2" y="166.4" font-size="11" text-anchor="middle">−5</text>
<text x="91.2" y="166.4" font-size="11" text-anchor="middle">−4</text>
<text x="123.2" y="166.4" font-size="11" text-anchor="middle">−3</text>
<text x="187.2" y="166.4" font-size="11" text-anchor="middle">−1</text>
<text x="251.2" y="166.4" font-size="11" text-anchor="middle">1</text>
<text x="213.2" y="222.2" font-size="11" text-anchor="end">−3</text>
<text x="213.2" y="134.2" font-size="11" text-anchor="end">1</text>
<text x="213.2" y="90.2" font-size="11" text-anchor="end">3</text>
<text x="213.2" y="24.3" font-size="11" text-anchor="end">6</text>
<text x="214.2" y="166.4" font-size="11" text-anchor="end">O</text>
<polyline points="58.1,16.0 59.1,20.0 60.1,24.0 61.1,28.0 62.0,31.9 63.0,35.7 64.0,39.6 64.9,43.3 65.9,47.1 66.9,50.8 67.8,54.5 68.8,58.1 69.8,61.7 70.8,65.2 71.7,68.7 72.7,72.2 73.7,75.6 74.6,79.0 75.6,82.3 76.6,85.6 77.6,88.9 78.5,92.1 79.5,95.3 80.5,98.4 81.4,101.5 82.4,104.6 83.4,107.6 84.3,110.5 85.3,113.5 86.3,116.4 87.3,119.2 88.2,122.0 89.2,124.8 90.2,127.5 91.1,130.2 92.1,132.9 93.1,135.5 94.1,138.1 95.0,140.6 96.0,143.1 97.0,145.5 97.9,147.9 98.9,150.3 99.9,152.6 100.8,154.9 101.8,157.2 102.8,159.4 103.8,161.5 104.7,163.7 105.7,165.8 106.7,167.8 107.6,169.8 108.6,171.8 109.6,173.7 110.6,175.6 111.5,177.4 112.5,179.2 113.5,181.0 114.4,182.7 115.4,184.4 116.4,186.0 117.3,187.6 118.3,189.2 119.3,190.7 120.3,192.2 121.2,193.6 122.2,195.0 123.2,196.4 124.1,197.7 125.1,198.9 126.1,200.2 127.1,201.4 128.0,202.5 129.0,203.6 130.0,204.7 130.9,205.8 131.9,206.7 132.9,207.7 133.8,208.6 134.8,209.5 135.8,210.3 136.8,211.1 137.7,211.8 138.7,212.6 139.7,213.2 140.6,213.8 141.6,214.4 142.6,215.0 143.6,215.5 144.5,216.0 145.5,216.4 146.5,216.8 147.4,217.1 148.4,217.4 149.4,217.7 150.3,217.9 151.3,218.1 152.3,218.2 153.3,218.3 154.2,218.4 155.2,218.4 156.2,218.4 157.1,218.3 158.1,218.2 159.1,218.1 160.1,217.9 161.0,217.7 162.0,217.4 163.0,217.1 163.9,216.8 164.9,216.4 165.9,216.0 166.8,215.5 167.8,215.0 168.8,214.4 169.8,213.8 170.7,213.2 171.7,212.6 172.7,211.8 173.6,211.1 174.6,210.3 175.6,209.5 176.6,208.6 177.5,207.7 178.5,206.7 179.5,205.8 180.4,204.7 181.4,203.6 182.4,202.5 183.3,201.4 184.3,200.2 185.3,198.9 186.3,197.7 187.2,196.4 188.2,195.0 189.2,193.6 190.1,192.2 191.1,190.7 192.1,189.2 193.1,187.6 194.0,186.0 195.0,184.4 196.0,182.7 196.9,181.0 197.9,179.2 198.9,177.4 199.8,175.6 200.8,173.7 201.8,171.8 202.8,169.8 203.7,167.8 204.7,165.8 205.7,163.7 206.6,161.5 207.6,159.4 208.6,157.2 209.6,154.9 210.5,152.6 211.5,150.3 212.5,147.9 213.4,145.5 214.4,143.1 215.4,140.6 216.3,138.1 217.3,135.5 218.3,132.9 219.3,130.2 220.2,127.5 221.2,124.8 222.2,122.0 223.1,119.2 224.1,116.4 225.1,113.5 226.1,110.5 227.0,107.6 228.0,104.6 229.0,101.5 229.9,98.4 230.9,95.3 231.9,92.1 232.8,88.9 233.8,85.6 234.8,82.3 235.8,79.0 236.7,75.6 237.7,72.2 238.7,68.7 239.6,65.2 240.6,61.7 241.6,58.1 242.6,54.5 243.5,50.8 244.5,47.1 245.5,43.3 246.4,39.6 247.4,35.7 248.4,31.9 249.3,28.0 250.3,24.0 251.3,20.0 252.3,16.0" fill="none" stroke="#000" stroke-width="1.6" stroke-linejoin="round"/>
<line x1="155.2" y1="218.4" x2="155.2" y2="22.6" stroke="#000" stroke-width="1.1" stroke-dasharray="6 4"/>
<line x1="155.2" y1="218.4" x2="219.2" y2="218.4" stroke="#000" stroke-width="1.1" stroke-dasharray="6 4"/>
<circle cx="155.2" cy="218.4" r="3.4" fill="#000"/>
<circle cx="219.2" cy="130.4" r="3.0" fill="#000"/>
<text x="147.2" y="236.4" font-size="12" text-anchor="start" font-weight="bold">頂点(−2, −3)</text>
<text x="147.2" y="24.6" font-size="12" text-anchor="end">軸 x＝−2</text>
<text x="150.0" y="270.0" font-size="12" text-anchor="middle">y＝x²＋4x＋1＝(x＋2)²−3</text>
</svg>
