<svg xmlns="http://www.w3.org/2000/svg" viewBox="0 0 286 255">
<title>y=x²−4x＋3のグラフ——4つの情報から描いた完成形</title>
<desc>【この図の意図】凸の向き・軸・頂点・x=0の値の4情報を集めて、軸について対称に描く手順の到達点（完成見本）を見せる。【主要な数値・設定】y=x²−4x+3=(x−2)²−1／頂点(2,−1)・軸x=2破線／(0,3)と対称点(4,3)を破線で結ぶ。【AIに同じ種類の図を描かせるときの説明文】「y=x²−4x＋3のグラフ——4つの情報から描いた完成形。凸の向き・軸・頂点・x=0の値の4情報を集めて、軸について対称に描く手順の到達点（完成見本）を見せる。数値・設定: y=x²−4x+3=(x−2)²−1／頂点(2,−1)・軸x=2破線／(0,3)と対称点(4,3)を破線で結ぶ。白黒印刷向けのシンプルな教材図（SVG）としてかいて。」——この説明文を生成AIに渡せば同型の図を描かせられる。数値を変えれば類題用の図も作れる。</desc>
<!-- L04_fig1_graph_from_four_facts.svg | y=x²−4x＋3のグラフ——4つの情報から描いた完成形 -->
<!-- generated by assets_provenance/generate_figures.py on 2026-07-17 (docs/SPEC_figures.md準拠（内部規約の要旨は同SPECに反映済み）・SVG直接編集禁止/スクリプト改修で再生成) -->
<rect x="0" y="0" width="286" height="255" fill="#fff"/>
<line x1="38.0" y1="169.6" x2="256.6" y2="169.6" stroke="#000" stroke-width="1.2"/>
<polygon points="263.6,169.6 256.6,172.8 256.6,166.5" fill="#000"/>
<line x1="79.6" y1="215.2" x2="79.6" y2="15.0" stroke="#000" stroke-width="1.2"/>
<polygon points="79.6,8.0 82.8,15.0 76.4,15.0" fill="#000"/>
<text x="265.6" y="174.1" font-size="13" text-anchor="start">x</text>
<text x="86.6" y="10.0" font-size="13" text-anchor="start">y</text>
<line x1="47.6" y1="166.6" x2="47.6" y2="172.6" stroke="#000" stroke-width="1.0"/>
<line x1="111.6" y1="166.6" x2="111.6" y2="172.6" stroke="#000" stroke-width="1.0"/>
<line x1="143.6" y1="166.6" x2="143.6" y2="172.6" stroke="#000" stroke-width="1.0"/>
<line x1="175.6" y1="166.6" x2="175.6" y2="172.6" stroke="#000" stroke-width="1.0"/>
<line x1="207.6" y1="166.6" x2="207.6" y2="172.6" stroke="#000" stroke-width="1.0"/>
<line x1="239.6" y1="166.6" x2="239.6" y2="172.6" stroke="#000" stroke-width="1.0"/>
<line x1="76.6" y1="193.6" x2="82.6" y2="193.6" stroke="#000" stroke-width="1.0"/>
<line x1="76.6" y1="145.6" x2="82.6" y2="145.6" stroke="#000" stroke-width="1.0"/>
<line x1="76.6" y1="121.6" x2="82.6" y2="121.6" stroke="#000" stroke-width="1.0"/>
<line x1="76.6" y1="97.6" x2="82.6" y2="97.6" stroke="#000" stroke-width="1.0"/>
<line x1="76.6" y1="73.6" x2="82.6" y2="73.6" stroke="#000" stroke-width="1.0"/>
<line x1="76.6" y1="49.6" x2="82.6" y2="49.6" stroke="#000" stroke-width="1.0"/>
<line x1="76.6" y1="25.6" x2="82.6" y2="25.6" stroke="#000" stroke-width="1.0"/>
<text x="47.6" y="183.6" font-size="11" text-anchor="middle">−1</text>
<text x="111.6" y="183.6" font-size="11" text-anchor="middle">1</text>
<text x="175.6" y="183.6" font-size="11" text-anchor="middle">3</text>
<text x="207.6" y="183.6" font-size="11" text-anchor="middle">4</text>
<text x="239.6" y="183.6" font-size="11" text-anchor="middle">5</text>
<text x="73.6" y="197.5" font-size="11" text-anchor="end">−1</text>
<text x="73.6" y="101.5" font-size="11" text-anchor="end">3</text>
<text x="73.6" y="29.5" font-size="11" text-anchor="end">6</text>
<text x="74.6" y="183.6" font-size="11" text-anchor="end">O</text>
<polyline points="56.6,16.0 57.4,19.5 58.3,23.0 59.2,26.5 60.0,29.9 60.9,33.3 61.8,36.7 62.6,40.0 63.5,43.3 64.4,46.5 65.3,49.7 66.1,52.9 67.0,56.1 67.9,59.2 68.7,62.2 69.6,65.3 70.5,68.3 71.3,71.3 72.2,74.2 73.1,77.1 74.0,79.9 74.8,82.8 75.7,85.5 76.6,88.3 77.4,91.0 78.3,93.7 79.2,96.3 80.1,99.0 80.9,101.5 81.8,104.1 82.7,106.6 83.5,109.0 84.4,111.5 85.3,113.9 86.1,116.2 87.0,118.6 87.9,120.9 88.8,123.1 89.6,125.3 90.5,127.5 91.4,129.7 92.2,131.8 93.1,133.9 94.0,135.9 94.9,137.9 95.7,139.9 96.6,141.8 97.5,143.7 98.3,145.6 99.2,147.4 100.1,149.2 100.9,151.0 101.8,152.7 102.7,154.4 103.6,156.0 104.4,157.6 105.3,159.2 106.2,160.8 107.0,162.3 107.9,163.7 108.8,165.2 109.7,166.6 110.5,168.0 111.4,169.3 112.3,170.6 113.1,171.8 114.0,173.1 114.9,174.3 115.7,175.4 116.6,176.5 117.5,177.6 118.4,178.7 119.2,179.7 120.1,180.7 121.0,181.6 121.8,182.5 122.7,183.4 123.6,184.2 124.4,185.0 125.3,185.8 126.2,186.5 127.1,187.2 127.9,187.8 128.8,188.5 129.7,189.1 130.5,189.6 131.4,190.1 132.3,190.6 133.2,191.0 134.0,191.5 134.9,191.8 135.8,192.2 136.6,192.5 137.5,192.7 138.4,193.0 139.2,193.2 140.1,193.3 141.0,193.4 141.9,193.5 142.7,193.6 143.6,193.6 144.5,193.6 145.3,193.5 146.2,193.4 147.1,193.3 148.0,193.2 148.8,193.0 149.7,192.7 150.6,192.5 151.4,192.2 152.3,191.8 153.2,191.5 154.0,191.0 154.9,190.6 155.8,190.1 156.7,189.6 157.5,189.1 158.4,188.5 159.3,187.8 160.1,187.2 161.0,186.5 161.9,185.8 162.8,185.0 163.6,184.2 164.5,183.4 165.4,182.5 166.2,181.6 167.1,180.7 168.0,179.7 168.8,178.7 169.7,177.6 170.6,176.5 171.5,175.4 172.3,174.3 173.2,173.1 174.1,171.8 174.9,170.6 175.8,169.3 176.7,168.0 177.5,166.6 178.4,165.2 179.3,163.7 180.2,162.3 181.0,160.8 181.9,159.2 182.8,157.6 183.6,156.0 184.5,154.4 185.4,152.7 186.3,151.0 187.1,149.2 188.0,147.4 188.9,145.6 189.7,143.7 190.6,141.8 191.5,139.9 192.3,137.9 193.2,135.9 194.1,133.9 195.0,131.8 195.8,129.7 196.7,127.5 197.6,125.3 198.4,123.1 199.3,120.9 200.2,118.6 201.1,116.2 201.9,113.9 202.8,111.5 203.7,109.0 204.5,106.6 205.4,104.1 206.3,101.5 207.1,99.0 208.0,96.3 208.9,93.7 209.8,91.0 210.6,88.3 211.5,85.5 212.4,82.8 213.2,79.9 214.1,77.1 215.0,74.2 215.9,71.3 216.7,68.3 217.6,65.3 218.5,62.2 219.3,59.2 220.2,56.1 221.1,52.9 221.9,49.7 222.8,46.5 223.7,43.3 224.6,40.0 225.4,36.7 226.3,33.3 227.2,29.9 228.0,26.5 228.9,23.0 229.8,19.5 230.6,16.0" fill="none" stroke="#000" stroke-width="1.6" stroke-linejoin="round"/>
<line x1="143.6" y1="193.6" x2="143.6" y2="23.2" stroke="#000" stroke-width="1.1" stroke-dasharray="6 4"/>
<line x1="79.6" y1="97.6" x2="207.6" y2="97.6" stroke="#000" stroke-width="1.1" stroke-dasharray="6 4"/>
<circle cx="143.6" cy="193.6" r="3.2" fill="#000"/>
<circle cx="79.6" cy="97.6" r="3.2" fill="#000"/>
<circle cx="207.6" cy="97.6" r="3.2" fill="#000"/>
<text x="151.6" y="207.6" font-size="12" text-anchor="start" font-weight="bold">頂点(2, −1)</text>
<text x="149.6" y="25.2" font-size="12" text-anchor="start">軸 x＝2</text>
<text x="71.6" y="89.6" font-size="12" text-anchor="end">(0, 3)</text>
<text x="215.6" y="89.6" font-size="12" text-anchor="start">(4, 3)</text>
<text x="143.0" y="247.0" font-size="12" text-anchor="middle">y＝x²−4x＋3＝(x−2)²−1</text>
</svg>
