<svg xmlns="http://www.w3.org/2000/svg" viewBox="0 0 250 245">
<title>y=−2x²−4x＋1のグラフ——上に凸の完成形</title>
<desc>【この図の意図】aが負でも手順は同じ——上に凸・頂点(−1,3)の完成見本を例題1と対で見せ、符号ミスを図で点検できるようにする。【主要な数値・設定】y=−2x²−4x+1=−2(x+1)²+3／頂点(−1,3)・軸x=−1破線／(0,1)と対称点(−2,1)。【AIに同じ種類の図を描かせるときの説明文】「y=−2x²−4x＋1のグラフ——上に凸の完成形。aが負でも手順は同じ——上に凸・頂点(−1,3)の完成見本を例題1と対で見せ、符号ミスを図で点検できるようにする。数値・設定: y=−2x²−4x+1=−2(x+1)²+3／頂点(−1,3)・軸x=−1破線／(0,1)と対称点(−2,1)。白黒印刷向けのシンプルな教材図（SVG）としてかいて。」——この説明文を生成AIに渡せば同型の図を描かせられる。数値を変えれば類題用の図も作れる。</desc>
<!-- L04_fig2_negative_a_graph.svg | y=−2x²−4x＋1のグラフ——上に凸の完成形 -->
<!-- generated by assets_provenance/generate_figures.py on 2026-07-17 (docs/SPEC_figures.md準拠（内部規約の要旨は同SPECに反映済み）・SVG直接編集禁止/スクリプト改修で再生成) -->
<rect x="0" y="0" width="250" height="245" fill="#fff"/>
<line x1="40.0" y1="108.4" x2="221.0" y2="108.4" stroke="#000" stroke-width="1.2"/>
<polygon points="228.0,108.4 221.0,111.6 221.0,105.2" fill="#000"/>
<line x1="166.0" y1="205.2" x2="166.0" y2="15.0" stroke="#000" stroke-width="1.2"/>
<polygon points="166.0,8.0 169.2,15.0 162.8,15.0" fill="#000"/>
<text x="230.0" y="112.9" font-size="13" text-anchor="start">x</text>
<text x="173.0" y="10.0" font-size="13" text-anchor="start">y</text>
<line x1="58.0" y1="105.4" x2="58.0" y2="111.4" stroke="#000" stroke-width="1.0"/>
<line x1="94.0" y1="105.4" x2="94.0" y2="111.4" stroke="#000" stroke-width="1.0"/>
<line x1="130.0" y1="105.4" x2="130.0" y2="111.4" stroke="#000" stroke-width="1.0"/>
<line x1="202.0" y1="105.4" x2="202.0" y2="111.4" stroke="#000" stroke-width="1.0"/>
<line x1="163.0" y1="196.4" x2="169.0" y2="196.4" stroke="#000" stroke-width="1.0"/>
<line x1="163.0" y1="174.4" x2="169.0" y2="174.4" stroke="#000" stroke-width="1.0"/>
<line x1="163.0" y1="152.4" x2="169.0" y2="152.4" stroke="#000" stroke-width="1.0"/>
<line x1="163.0" y1="130.4" x2="169.0" y2="130.4" stroke="#000" stroke-width="1.0"/>
<line x1="163.0" y1="86.4" x2="169.0" y2="86.4" stroke="#000" stroke-width="1.0"/>
<line x1="163.0" y1="64.4" x2="169.0" y2="64.4" stroke="#000" stroke-width="1.0"/>
<line x1="163.0" y1="42.4" x2="169.0" y2="42.4" stroke="#000" stroke-width="1.0"/>
<line x1="163.0" y1="20.4" x2="169.0" y2="20.4" stroke="#000" stroke-width="1.0"/>
<text x="58.0" y="122.4" font-size="11" text-anchor="middle">−3</text>
<text x="94.0" y="122.4" font-size="11" text-anchor="middle">−2</text>
<text x="202.0" y="122.4" font-size="11" text-anchor="middle">1</text>
<text x="160.0" y="200.2" font-size="11" text-anchor="end">−4</text>
<text x="160.0" y="156.2" font-size="11" text-anchor="end">−2</text>
<text x="160.0" y="90.2" font-size="11" text-anchor="end">1</text>
<text x="160.0" y="46.3" font-size="11" text-anchor="end">3</text>
<text x="161.0" y="122.4" font-size="11" text-anchor="end">O</text>
<polyline points="60.8,205.2 61.4,202.0 62.1,198.8 62.8,195.6 63.5,192.4 64.2,189.3 64.9,186.3 65.6,183.2 66.3,180.2 67.0,177.2 67.7,174.3 68.4,171.4 69.1,168.5 69.8,165.6 70.4,162.8 71.1,160.0 71.8,157.3 72.5,154.6 73.2,151.9 73.9,149.2 74.6,146.6 75.3,144.0 76.0,141.4 76.7,138.9 77.4,136.4 78.1,134.0 78.8,131.5 79.4,129.2 80.1,126.8 80.8,124.5 81.5,122.2 82.2,119.9 82.9,117.7 83.6,115.5 84.3,113.3 85.0,111.2 85.7,109.1 86.4,107.0 87.1,105.0 87.8,103.0 88.5,101.0 89.1,99.1 89.8,97.2 90.5,95.3 91.2,93.5 91.9,91.6 92.6,89.9 93.3,88.1 94.0,86.4 94.7,84.7 95.4,83.1 96.1,81.5 96.8,79.9 97.5,78.4 98.1,76.8 98.8,75.4 99.5,73.9 100.2,72.5 100.9,71.1 101.6,69.8 102.3,68.4 103.0,67.2 103.7,65.9 104.4,64.7 105.1,63.5 105.8,62.3 106.5,61.2 107.1,60.1 107.8,59.1 108.5,58.0 109.2,57.1 109.9,56.1 110.6,55.2 111.3,54.3 112.0,53.4 112.7,52.6 113.4,51.8 114.1,51.0 114.8,50.3 115.5,49.6 116.2,48.9 116.8,48.3 117.5,47.7 118.2,47.1 118.9,46.6 119.6,46.1 120.3,45.6 121.0,45.2 121.7,44.7 122.4,44.4 123.1,44.0 123.8,43.7 124.5,43.4 125.2,43.2 125.8,43.0 126.5,42.8 127.2,42.7 127.9,42.5 128.6,42.5 129.3,42.4 130.0,42.4 130.7,42.4 131.4,42.5 132.1,42.5 132.8,42.7 133.5,42.8 134.2,43.0 134.8,43.2 135.5,43.4 136.2,43.7 136.9,44.0 137.6,44.4 138.3,44.7 139.0,45.2 139.7,45.6 140.4,46.1 141.1,46.6 141.8,47.1 142.5,47.7 143.2,48.3 143.8,48.9 144.5,49.6 145.2,50.3 145.9,51.0 146.6,51.8 147.3,52.6 148.0,53.4 148.7,54.3 149.4,55.2 150.1,56.1 150.8,57.1 151.5,58.0 152.2,59.1 152.9,60.1 153.5,61.2 154.2,62.3 154.9,63.5 155.6,64.7 156.3,65.9 157.0,67.2 157.7,68.4 158.4,69.8 159.1,71.1 159.8,72.5 160.5,73.9 161.2,75.4 161.9,76.8 162.5,78.4 163.2,79.9 163.9,81.5 164.6,83.1 165.3,84.7 166.0,86.4 166.7,88.1 167.4,89.9 168.1,91.6 168.8,93.5 169.5,95.3 170.2,97.2 170.9,99.1 171.5,101.0 172.2,103.0 172.9,105.0 173.6,107.0 174.3,109.1 175.0,111.2 175.7,113.3 176.4,115.5 177.1,117.7 177.8,119.9 178.5,122.2 179.2,124.5 179.9,126.8 180.6,129.2 181.2,131.5 181.9,134.0 182.6,136.4 183.3,138.9 184.0,141.4 184.7,144.0 185.4,146.6 186.1,149.2 186.8,151.9 187.5,154.6 188.2,157.3 188.9,160.0 189.6,162.8 190.2,165.6 190.9,168.5 191.6,171.4 192.3,174.3 193.0,177.2 193.7,180.2 194.4,183.2 195.1,186.3 195.8,189.3 196.5,192.4 197.2,195.6 197.9,198.8 198.6,202.0 199.2,205.2" fill="none" stroke="#000" stroke-width="1.6" stroke-linejoin="round"/>
<line x1="130.0" y1="42.4" x2="130.0" y2="198.6" stroke="#000" stroke-width="1.1" stroke-dasharray="6 4"/>
<line x1="166.0" y1="86.4" x2="94.0" y2="86.4" stroke="#000" stroke-width="1.1" stroke-dasharray="6 4"/>
<circle cx="130.0" cy="42.4" r="3.2" fill="#000"/>
<circle cx="166.0" cy="86.4" r="3.2" fill="#000"/>
<circle cx="94.0" cy="86.4" r="3.2" fill="#000"/>
<text x="130.0" y="32.4" font-size="12" text-anchor="middle" font-weight="bold">頂点(−1, 3)</text>
<text x="122.0" y="200.6" font-size="12" text-anchor="end">軸 x＝−1</text>
<text x="174.0" y="90.4" font-size="12" text-anchor="start">(0, 1)</text>
<text x="86.0" y="90.4" font-size="12" text-anchor="end">(−2, 1)</text>
<text x="125.0" y="237.0" font-size="12" text-anchor="middle">y＝−2x²−4x＋1＝−2(x＋1)²＋3</text>
</svg>
