<svg xmlns="http://www.w3.org/2000/svg" viewBox="0 0 556 266">
<title>軸が動く場合分け——左外・中・右外の3ケース</title>
<desc>【この図の意図】区間0≦x≦2を固定したまま軸x=aが左→中→右と動くと、最小の位置が左端→頂点→右端と切りかわることを3パネルで見せる。【主要な数値・設定】y=x²−2ax／代表値a=−1,1,3／区間[0,2]固定・軸破線・最小位置●（最小値の式は書かない）。【AIに同じ種類の図を描かせるときの説明文】「軸が動く場合分け——左外・中・右外の3ケース。区間0≦x≦2を固定したまま軸x=aが左→中→右と動くと、最小の位置が左端→頂点→右端と切りかわることを3パネルで見せる。数値・設定: y=x²−2ax／代表値a=−1,1,3／区間[0,2]固定・軸破線・最小位置●（最小値の式は書かない）。白黒印刷向けのシンプルな教材図（SVG）としてかいて。」——この説明文を生成AIに渡せば同型の図を描かせられる。数値を変えれば類題用の図も作れる。</desc>
<!-- L06_fig3_case_split_moving_axis.svg | 軸が動く場合分け——左外・中・右外の3ケース -->
<!-- generated by assets_provenance/generate_figures.py on 2026-07-17 (docs/SPEC_figures.md準拠（内部規約の要旨は同SPECに反映済み）・SVG直接編集禁止/スクリプト改修で再生成) -->
<rect x="0" y="0" width="556" height="266" fill="#fff"/>
<line x1="28.0" y1="105.3" x2="169.0" y2="105.3" stroke="#000" stroke-width="1.2"/>
<polygon points="176.0,105.3 169.0,108.5 169.0,102.2" fill="#000"/>
<line x1="76.0" y1="212.0" x2="76.0" y2="39.0" stroke="#000" stroke-width="1.2"/>
<polygon points="76.0,32.0 79.2,39.0 72.8,39.0" fill="#000"/>
<text x="178.0" y="109.8" font-size="13" text-anchor="start">x</text>
<text x="83.0" y="34.0" font-size="13" text-anchor="start">y</text>
<line x1="36.0" y1="102.3" x2="36.0" y2="108.3" stroke="#000" stroke-width="1.0"/>
<line x1="56.0" y1="102.3" x2="56.0" y2="108.3" stroke="#000" stroke-width="1.0"/>
<line x1="96.0" y1="102.3" x2="96.0" y2="108.3" stroke="#000" stroke-width="1.0"/>
<line x1="116.0" y1="102.3" x2="116.0" y2="108.3" stroke="#000" stroke-width="1.0"/>
<line x1="136.0" y1="102.3" x2="136.0" y2="108.3" stroke="#000" stroke-width="1.0"/>
<line x1="156.0" y1="102.3" x2="156.0" y2="108.3" stroke="#000" stroke-width="1.0"/>
<line x1="73.0" y1="203.3" x2="79.0" y2="203.3" stroke="#000" stroke-width="1.0"/>
<line x1="73.0" y1="192.4" x2="79.0" y2="192.4" stroke="#000" stroke-width="1.0"/>
<line x1="73.0" y1="181.5" x2="79.0" y2="181.5" stroke="#000" stroke-width="1.0"/>
<line x1="73.0" y1="170.6" x2="79.0" y2="170.6" stroke="#000" stroke-width="1.0"/>
<line x1="73.0" y1="159.7" x2="79.0" y2="159.7" stroke="#000" stroke-width="1.0"/>
<line x1="73.0" y1="148.9" x2="79.0" y2="148.9" stroke="#000" stroke-width="1.0"/>
<line x1="73.0" y1="138.0" x2="79.0" y2="138.0" stroke="#000" stroke-width="1.0"/>
<line x1="73.0" y1="127.1" x2="79.0" y2="127.1" stroke="#000" stroke-width="1.0"/>
<line x1="73.0" y1="116.2" x2="79.0" y2="116.2" stroke="#000" stroke-width="1.0"/>
<line x1="73.0" y1="94.4" x2="79.0" y2="94.4" stroke="#000" stroke-width="1.0"/>
<line x1="73.0" y1="83.5" x2="79.0" y2="83.5" stroke="#000" stroke-width="1.0"/>
<line x1="73.0" y1="72.7" x2="79.0" y2="72.7" stroke="#000" stroke-width="1.0"/>
<line x1="73.0" y1="61.8" x2="79.0" y2="61.8" stroke="#000" stroke-width="1.0"/>
<line x1="73.0" y1="50.9" x2="79.0" y2="50.9" stroke="#000" stroke-width="1.0"/>
<line x1="73.0" y1="40.0" x2="79.0" y2="40.0" stroke="#000" stroke-width="1.0"/>
<text x="116.0" y="117.3" font-size="9" text-anchor="middle">2</text>
<polyline points="28.0,94.9 28.4,95.5 28.8,96.1 29.2,96.7 29.6,97.3 30.0,97.8 30.4,98.4 30.8,99.0 31.2,99.5 31.6,100.1 32.0,100.6 32.5,101.1 32.9,101.6 33.3,102.1 33.7,102.6 34.1,103.1 34.5,103.6 34.9,104.1 35.3,104.5 35.7,105.0 36.1,105.4 36.5,105.8 36.9,106.3 37.3,106.7 37.7,107.1 38.1,107.5 38.5,107.9 38.9,108.3 39.3,108.6 39.7,109.0 40.1,109.4 40.5,109.7 40.9,110.0 41.4,110.4 41.8,110.7 42.2,111.0 42.6,111.3 43.0,111.6 43.4,111.9 43.8,112.1 44.2,112.4 44.6,112.7 45.0,112.9 45.4,113.1 45.8,113.4 46.2,113.6 46.6,113.8 47.0,114.0 47.4,114.2 47.8,114.4 48.2,114.6 48.6,114.7 49.0,114.9 49.4,115.0 49.8,115.2 50.3,115.3 50.7,115.4 51.1,115.5 51.5,115.6 51.9,115.7 52.3,115.8 52.7,115.9 53.1,116.0 53.5,116.0 53.9,116.1 54.3,116.1 54.7,116.2 55.1,116.2 55.5,116.2 55.9,116.2 56.3,116.2 56.7,116.2 57.1,116.2 57.5,116.1 57.9,116.1 58.3,116.1 58.7,116.0 59.2,115.9 59.6,115.9 60.0,115.8 60.4,115.7 60.8,115.6 61.2,115.5 61.6,115.4 62.0,115.2 62.4,115.1 62.8,114.9 63.2,114.8 63.6,114.6 64.0,114.5 64.4,114.3 64.8,114.1 65.2,113.9 65.6,113.7 66.0,113.5 66.4,113.2 66.8,113.0 67.2,112.8 67.6,112.5 68.1,112.2 68.5,112.0 68.9,111.7 69.3,111.4 69.7,111.1 70.1,110.8 70.5,110.5 70.9,110.2 71.3,109.8 71.7,109.5 72.1,109.1 72.5,108.8 72.9,108.4 73.3,108.0 73.7,107.7 74.1,107.3 74.5,106.9 74.9,106.4 75.3,106.0 75.7,105.6 76.1,105.2 76.5,104.7 77.0,104.3 77.4,103.8 77.8,103.3 78.2,102.8 78.6,102.3 79.0,101.8 79.4,101.3 79.8,100.8 80.2,100.3 80.6,99.7 81.0,99.2 81.4,98.6 81.8,98.1 82.2,97.5 82.6,96.9 83.0,96.3 83.4,95.7 83.8,95.1 84.2,94.5 84.6,93.9 85.0,93.2 85.4,92.6 85.9,91.9 86.3,91.3 86.7,90.6 87.1,89.9 87.5,89.2 87.9,88.5 88.3,87.8 88.7,87.1 89.1,86.4 89.5,85.7 89.9,84.9 90.3,84.2 90.7,83.4 91.1,82.6 91.5,81.9 91.9,81.1 92.3,80.3 92.7,79.5 93.1,78.7 93.5,77.8 93.9,77.0 94.4,76.2 94.8,75.3 95.2,74.5 95.6,73.6 96.0,72.7 96.4,71.8 96.8,70.9 97.2,70.0 97.6,69.1 98.0,68.2 98.4,67.3 98.8,66.3 99.2,65.4 99.6,64.4 100.0,63.5 100.4,62.5 100.8,61.5 101.2,60.5 101.6,59.5 102.0,58.5 102.4,57.5 102.8,56.5 103.3,55.4 103.7,54.4 104.1,53.3 104.5,52.3 104.9,51.2 105.3,50.1 105.7,49.0 106.1,47.9 106.5,46.8 106.9,45.7 107.3,44.6 107.7,43.5 108.1,42.3 108.5,41.2 108.9,40.0" fill="none" stroke="#000" stroke-width="1.6" stroke-linejoin="round"/>
<line x1="76.0" y1="105.3" x2="116.0" y2="105.3" stroke="#000" stroke-width="3.2"/>
<circle cx="76.0" cy="105.3" r="3.0" fill="#000"/>
<circle cx="116.0" cy="105.3" r="3.0" fill="#000"/>
<line x1="56.0" y1="203.5" x2="56.0" y2="45.2" stroke="#000" stroke-width="1.1" stroke-dasharray="6 4"/>
<text x="42.0" y="41.2" font-size="11" text-anchor="middle">軸</text>
<circle cx="76.0" cy="105.3" r="3.6" fill="#000"/>
<text x="84.0" y="121.3" font-size="11" text-anchor="start" font-weight="bold">最小</text>
<text x="98.0" y="16.0" font-size="12" text-anchor="middle" font-weight="bold">(i) a＜0</text>
<line x1="208.0" y1="105.3" x2="349.0" y2="105.3" stroke="#000" stroke-width="1.2"/>
<polygon points="356.0,105.3 349.0,108.5 349.0,102.2" fill="#000"/>
<line x1="256.0" y1="212.0" x2="256.0" y2="39.0" stroke="#000" stroke-width="1.2"/>
<polygon points="256.0,32.0 259.1,39.0 252.8,39.0" fill="#000"/>
<text x="358.0" y="109.8" font-size="13" text-anchor="start">x</text>
<text x="263.0" y="34.0" font-size="13" text-anchor="start">y</text>
<line x1="216.0" y1="102.3" x2="216.0" y2="108.3" stroke="#000" stroke-width="1.0"/>
<line x1="236.0" y1="102.3" x2="236.0" y2="108.3" stroke="#000" stroke-width="1.0"/>
<line x1="276.0" y1="102.3" x2="276.0" y2="108.3" stroke="#000" stroke-width="1.0"/>
<line x1="296.0" y1="102.3" x2="296.0" y2="108.3" stroke="#000" stroke-width="1.0"/>
<line x1="316.0" y1="102.3" x2="316.0" y2="108.3" stroke="#000" stroke-width="1.0"/>
<line x1="336.0" y1="102.3" x2="336.0" y2="108.3" stroke="#000" stroke-width="1.0"/>
<line x1="253.0" y1="203.3" x2="259.0" y2="203.3" stroke="#000" stroke-width="1.0"/>
<line x1="253.0" y1="192.4" x2="259.0" y2="192.4" stroke="#000" stroke-width="1.0"/>
<line x1="253.0" y1="181.5" x2="259.0" y2="181.5" stroke="#000" stroke-width="1.0"/>
<line x1="253.0" y1="170.6" x2="259.0" y2="170.6" stroke="#000" stroke-width="1.0"/>
<line x1="253.0" y1="159.7" x2="259.0" y2="159.7" stroke="#000" stroke-width="1.0"/>
<line x1="253.0" y1="148.9" x2="259.0" y2="148.9" stroke="#000" stroke-width="1.0"/>
<line x1="253.0" y1="138.0" x2="259.0" y2="138.0" stroke="#000" stroke-width="1.0"/>
<line x1="253.0" y1="127.1" x2="259.0" y2="127.1" stroke="#000" stroke-width="1.0"/>
<line x1="253.0" y1="116.2" x2="259.0" y2="116.2" stroke="#000" stroke-width="1.0"/>
<line x1="253.0" y1="94.4" x2="259.0" y2="94.4" stroke="#000" stroke-width="1.0"/>
<line x1="253.0" y1="83.5" x2="259.0" y2="83.5" stroke="#000" stroke-width="1.0"/>
<line x1="253.0" y1="72.7" x2="259.0" y2="72.7" stroke="#000" stroke-width="1.0"/>
<line x1="253.0" y1="61.8" x2="259.0" y2="61.8" stroke="#000" stroke-width="1.0"/>
<line x1="253.0" y1="50.9" x2="259.0" y2="50.9" stroke="#000" stroke-width="1.0"/>
<line x1="253.0" y1="40.0" x2="259.0" y2="40.0" stroke="#000" stroke-width="1.0"/>
<text x="296.0" y="117.3" font-size="9" text-anchor="middle">2</text>
<polyline points="223.1,40.0 223.6,41.5 224.1,43.0 224.7,44.5 225.2,46.0 225.7,47.4 226.3,48.9 226.8,50.3 227.3,51.7 227.8,53.1 228.4,54.5 228.9,55.8 229.4,57.2 230.0,58.5 230.5,59.8 231.0,61.1 231.6,62.4 232.1,63.7 232.6,65.0 233.1,66.2 233.7,67.4 234.2,68.6 234.7,69.8 235.3,71.0 235.8,72.2 236.3,73.3 236.8,74.5 237.4,75.6 237.9,76.7 238.4,77.8 239.0,78.9 239.5,79.9 240.0,81.0 240.5,82.0 241.1,83.0 241.6,84.0 242.1,85.0 242.7,86.0 243.2,86.9 243.7,87.8 244.3,88.8 244.8,89.7 245.3,90.6 245.8,91.4 246.4,92.3 246.9,93.2 247.4,94.0 248.0,94.8 248.5,95.6 249.0,96.4 249.5,97.2 250.1,97.9 250.6,98.6 251.1,99.4 251.7,100.1 252.2,100.8 252.7,101.4 253.2,102.1 253.8,102.8 254.3,103.4 254.8,104.0 255.4,104.6 255.9,105.2 256.4,105.8 257.0,106.3 257.5,106.9 258.0,107.4 258.5,107.9 259.1,108.4 259.6,108.9 260.1,109.3 260.7,109.8 261.2,110.2 261.7,110.6 262.2,111.1 262.8,111.4 263.3,111.8 263.8,112.2 264.4,112.5 264.9,112.8 265.4,113.2 265.9,113.5 266.5,113.7 267.0,114.0 267.5,114.3 268.1,114.5 268.6,114.7 269.1,114.9 269.7,115.1 270.2,115.3 270.7,115.4 271.2,115.6 271.8,115.7 272.3,115.8 272.8,115.9 273.4,116.0 273.9,116.1 274.4,116.1 274.9,116.2 275.5,116.2 276.0,116.2 276.5,116.2 277.1,116.2 277.6,116.1 278.1,116.1 278.6,116.0 279.2,115.9 279.7,115.8 280.2,115.7 280.8,115.6 281.3,115.4 281.8,115.3 282.3,115.1 282.9,114.9 283.4,114.7 283.9,114.5 284.5,114.3 285.0,114.0 285.5,113.7 286.1,113.5 286.6,113.2 287.1,112.8 287.6,112.5 288.2,112.2 288.7,111.8 289.2,111.4 289.8,111.1 290.3,110.6 290.8,110.2 291.3,109.8 291.9,109.3 292.4,108.9 292.9,108.4 293.5,107.9 294.0,107.4 294.5,106.9 295.0,106.3 295.6,105.8 296.1,105.2 296.6,104.6 297.2,104.0 297.7,103.4 298.2,102.8 298.8,102.1 299.3,101.4 299.8,100.8 300.3,100.1 300.9,99.4 301.4,98.6 301.9,97.9 302.5,97.2 303.0,96.4 303.5,95.6 304.0,94.8 304.6,94.0 305.1,93.2 305.6,92.3 306.2,91.4 306.7,90.6 307.2,89.7 307.7,88.8 308.3,87.8 308.8,86.9 309.3,86.0 309.9,85.0 310.4,84.0 310.9,83.0 311.5,82.0 312.0,81.0 312.5,79.9 313.0,78.9 313.6,77.8 314.1,76.7 314.6,75.6 315.2,74.5 315.7,73.3 316.2,72.2 316.7,71.0 317.3,69.8 317.8,68.6 318.3,67.4 318.9,66.2 319.4,65.0 319.9,63.7 320.4,62.4 321.0,61.1 321.5,59.8 322.0,58.5 322.6,57.2 323.1,55.8 323.6,54.5 324.2,53.1 324.7,51.7 325.2,50.3 325.7,48.9 326.3,47.4 326.8,46.0 327.3,44.5 327.9,43.0 328.4,41.5 328.9,40.0" fill="none" stroke="#000" stroke-width="1.6" stroke-linejoin="round"/>
<line x1="256.0" y1="105.3" x2="296.0" y2="105.3" stroke="#000" stroke-width="3.2"/>
<circle cx="256.0" cy="105.3" r="3.0" fill="#000"/>
<circle cx="296.0" cy="105.3" r="3.0" fill="#000"/>
<line x1="276.0" y1="203.5" x2="276.0" y2="45.2" stroke="#000" stroke-width="1.1" stroke-dasharray="6 4"/>
<text x="290.0" y="41.2" font-size="11" text-anchor="middle">軸</text>
<circle cx="276.0" cy="116.2" r="3.6" fill="#000"/>
<text x="276.0" y="132.2" font-size="11" text-anchor="middle" font-weight="bold">最小</text>
<text x="278.0" y="16.0" font-size="12" text-anchor="middle" font-weight="bold">(ii) 0≦a≦2</text>
<line x1="388.0" y1="105.3" x2="529.0" y2="105.3" stroke="#000" stroke-width="1.2"/>
<polygon points="536.0,105.3 529.0,108.5 529.0,102.2" fill="#000"/>
<line x1="436.0" y1="212.0" x2="436.0" y2="39.0" stroke="#000" stroke-width="1.2"/>
<polygon points="436.0,32.0 439.1,39.0 432.9,39.0" fill="#000"/>
<text x="538.0" y="109.8" font-size="13" text-anchor="start">x</text>
<text x="443.0" y="34.0" font-size="13" text-anchor="start">y</text>
<line x1="396.0" y1="102.3" x2="396.0" y2="108.3" stroke="#000" stroke-width="1.0"/>
<line x1="416.0" y1="102.3" x2="416.0" y2="108.3" stroke="#000" stroke-width="1.0"/>
<line x1="456.0" y1="102.3" x2="456.0" y2="108.3" stroke="#000" stroke-width="1.0"/>
<line x1="476.0" y1="102.3" x2="476.0" y2="108.3" stroke="#000" stroke-width="1.0"/>
<line x1="496.0" y1="102.3" x2="496.0" y2="108.3" stroke="#000" stroke-width="1.0"/>
<line x1="516.0" y1="102.3" x2="516.0" y2="108.3" stroke="#000" stroke-width="1.0"/>
<line x1="433.0" y1="203.3" x2="439.0" y2="203.3" stroke="#000" stroke-width="1.0"/>
<line x1="433.0" y1="192.4" x2="439.0" y2="192.4" stroke="#000" stroke-width="1.0"/>
<line x1="433.0" y1="181.5" x2="439.0" y2="181.5" stroke="#000" stroke-width="1.0"/>
<line x1="433.0" y1="170.6" x2="439.0" y2="170.6" stroke="#000" stroke-width="1.0"/>
<line x1="433.0" y1="159.7" x2="439.0" y2="159.7" stroke="#000" stroke-width="1.0"/>
<line x1="433.0" y1="148.9" x2="439.0" y2="148.9" stroke="#000" stroke-width="1.0"/>
<line x1="433.0" y1="138.0" x2="439.0" y2="138.0" stroke="#000" stroke-width="1.0"/>
<line x1="433.0" y1="127.1" x2="439.0" y2="127.1" stroke="#000" stroke-width="1.0"/>
<line x1="433.0" y1="116.2" x2="439.0" y2="116.2" stroke="#000" stroke-width="1.0"/>
<line x1="433.0" y1="94.4" x2="439.0" y2="94.4" stroke="#000" stroke-width="1.0"/>
<line x1="433.0" y1="83.5" x2="439.0" y2="83.5" stroke="#000" stroke-width="1.0"/>
<line x1="433.0" y1="72.7" x2="439.0" y2="72.7" stroke="#000" stroke-width="1.0"/>
<line x1="433.0" y1="61.8" x2="439.0" y2="61.8" stroke="#000" stroke-width="1.0"/>
<line x1="433.0" y1="50.9" x2="439.0" y2="50.9" stroke="#000" stroke-width="1.0"/>
<line x1="433.0" y1="40.0" x2="439.0" y2="40.0" stroke="#000" stroke-width="1.0"/>
<text x="476.0" y="117.3" font-size="9" text-anchor="middle">2</text>
<polyline points="418.5,40.0 419.1,42.3 419.6,44.6 420.2,46.8 420.7,49.1 421.3,51.3 421.8,53.6 422.4,55.8 422.9,57.9 423.5,60.1 424.0,62.3 424.6,64.4 425.1,66.5 425.7,68.6 426.2,70.7 426.7,72.8 427.3,74.8 427.8,76.9 428.4,78.9 428.9,80.9 429.5,82.9 430.0,84.9 430.6,86.8 431.1,88.8 431.7,90.7 432.2,92.6 432.8,94.5 433.3,96.4 433.9,98.2 434.4,100.1 435.0,101.9 435.5,103.7 436.1,105.5 436.6,107.3 437.1,109.0 437.7,110.8 438.2,112.5 438.8,114.2 439.3,115.9 439.9,117.6 440.4,119.3 441.0,120.9 441.5,122.5 442.1,124.1 442.6,125.7 443.2,127.3 443.7,128.9 444.3,130.4 444.8,132.0 445.4,133.5 445.9,135.0 446.5,136.5 447.0,137.9 447.5,139.4 448.1,140.8 448.6,142.3 449.2,143.7 449.7,145.0 450.3,146.4 450.8,147.8 451.4,149.1 451.9,150.4 452.5,151.7 453.0,153.0 453.6,154.3 454.1,155.5 454.7,156.8 455.2,158.0 455.8,159.2 456.3,160.4 456.9,161.6 457.4,162.7 457.9,163.9 458.5,165.0 459.0,166.1 459.6,167.2 460.1,168.3 460.7,169.3 461.2,170.4 461.8,171.4 462.3,172.4 462.9,173.4 463.4,174.4 464.0,175.4 464.5,176.3 465.1,177.2 465.6,178.2 466.2,179.1 466.7,179.9 467.2,180.8 467.8,181.6 468.3,182.5 468.9,183.3 469.4,184.1 470.0,184.9 470.5,185.6 471.1,186.4 471.6,187.1 472.2,187.8 472.7,188.5 473.3,189.2 473.8,189.9 474.4,190.6 474.9,191.2 475.5,191.8 476.0,192.4 476.6,193.0 477.1,193.6 477.6,194.1 478.2,194.7 478.7,195.2 479.3,195.7 479.8,196.2 480.4,196.7 480.9,197.1 481.5,197.6 482.0,198.0 482.6,198.4 483.1,198.8 483.7,199.2 484.2,199.5 484.8,199.9 485.3,200.2 485.9,200.5 486.4,200.8 487.0,201.1 487.5,201.3 488.0,201.6 488.6,201.8 489.1,202.0 489.7,202.2 490.2,202.4 490.8,202.6 491.3,202.7 491.9,202.8 492.4,202.9 493.0,203.0 493.5,203.1 494.1,203.2 494.6,203.2 495.2,203.3 495.7,203.3 496.3,203.3 496.8,203.3 497.4,203.2 497.9,203.2 498.4,203.1 499.0,203.0 499.5,202.9 500.1,202.8 500.6,202.7 501.2,202.6 501.7,202.4 502.3,202.2 502.8,202.0 503.4,201.8 503.9,201.6 504.5,201.3 505.0,201.1 505.6,200.8 506.1,200.5 506.7,200.2 507.2,199.9 507.7,199.5 508.3,199.2 508.8,198.8 509.4,198.4 509.9,198.0 510.5,197.6 511.0,197.1 511.6,196.7 512.1,196.2 512.7,195.7 513.2,195.2 513.8,194.7 514.3,194.2 514.9,193.6 515.4,193.0 516.0,192.4 516.5,191.8 517.1,191.2 517.6,190.6 518.1,189.9 518.7,189.3 519.2,188.6 519.8,187.9 520.3,187.2 520.9,186.4 521.4,185.7 522.0,184.9 522.5,184.1 523.1,183.3 523.6,182.5 524.2,181.7 524.7,180.8 525.3,180.0 525.8,179.1 526.4,178.2 526.9,177.3 527.5,176.4 528.0,175.4" fill="none" stroke="#000" stroke-width="1.6" stroke-linejoin="round"/>
<line x1="436.0" y1="105.3" x2="476.0" y2="105.3" stroke="#000" stroke-width="3.2"/>
<circle cx="436.0" cy="105.3" r="3.0" fill="#000"/>
<circle cx="476.0" cy="105.3" r="3.0" fill="#000"/>
<line x1="496.0" y1="203.5" x2="496.0" y2="45.2" stroke="#000" stroke-width="1.1" stroke-dasharray="6 4"/>
<text x="496.0" y="41.2" font-size="11" text-anchor="middle">軸</text>
<circle cx="476.0" cy="192.4" r="3.6" fill="#000"/>
<text x="476.0" y="208.4" font-size="11" text-anchor="middle" font-weight="bold">最小</text>
<text x="458.0" y="16.0" font-size="12" text-anchor="middle" font-weight="bold">(iii) a＞2</text>
<text x="278.0" y="242.0" font-size="12" text-anchor="middle">区間 0≦x≦2 は3枚とも同じ位置に固定——動くのは軸 x＝a だけ</text>
<text x="278.0" y="258.0" font-size="11" text-anchor="middle">y＝x²−2ax</text>
</svg>
