<svg xmlns="http://www.w3.org/2000/svg" viewBox="0 0 370 228">
<title>y=(x−4)²＋1（0≦x≦2）——頂点が区間の外</title>
<desc>【この図の意図】頂点が区間の外なら候補は両端のみ——頂点の値は○（実現されない）で示し、太線の使える部分と分離して見せる。【主要な数値・設定】y=(x−4)²+1／区間[0,2]を太線／両端(0,17),(2,5)●・頂点(4,1)○。【AIに同じ種類の図を描かせるときの説明文】「y=(x−4)²＋1（0≦x≦2）——頂点が区間の外。頂点が区間の外なら候補は両端のみ——頂点の値は○（実現されない）で示し、太線の使える部分と分離して見せる。数値・設定: y=(x−4)²+1／区間[0,2]を太線／両端(0,17),(2,5)●・頂点(4,1)○。白黒印刷向けのシンプルな教材図（SVG）としてかいて。」——この説明文を生成AIに渡せば同型の図を描かせられる。数値を変えれば類題用の図も作れる。</desc>
<!-- L06_fig2_vertex_outside_interval.svg | y=(x−4)²＋1（0≦x≦2）——頂点が区間の外 -->
<!-- generated by assets_provenance/generate_figures.py on 2026-07-17 (docs/SPEC_figures.md準拠（内部規約の要旨は同SPECに反映済み）・SVG直接編集禁止/スクリプト改修で再生成) -->
<rect x="0" y="0" width="370" height="228" fill="#fff"/>
<line x1="40.0" y1="183.4" x2="341.0" y2="183.4" stroke="#000" stroke-width="1.2"/>
<polygon points="348.0,183.4 341.0,186.6 341.0,180.2" fill="#000"/>
<line x1="76.0" y1="199.6" x2="76.0" y2="15.0" stroke="#000" stroke-width="1.2"/>
<polygon points="76.0,8.0 79.2,15.0 72.8,15.0" fill="#000"/>
<text x="350.0" y="187.9" font-size="13" text-anchor="start">x</text>
<text x="83.0" y="10.0" font-size="13" text-anchor="start">y</text>
<line x1="116.0" y1="180.4" x2="116.0" y2="186.4" stroke="#000" stroke-width="1.0"/>
<line x1="156.0" y1="180.4" x2="156.0" y2="186.4" stroke="#000" stroke-width="1.0"/>
<line x1="196.0" y1="180.4" x2="196.0" y2="186.4" stroke="#000" stroke-width="1.0"/>
<line x1="236.0" y1="180.4" x2="236.0" y2="186.4" stroke="#000" stroke-width="1.0"/>
<line x1="276.0" y1="180.4" x2="276.0" y2="186.4" stroke="#000" stroke-width="1.0"/>
<line x1="316.0" y1="180.4" x2="316.0" y2="186.4" stroke="#000" stroke-width="1.0"/>
<line x1="73.0" y1="165.4" x2="79.0" y2="165.4" stroke="#000" stroke-width="1.0"/>
<line x1="73.0" y1="147.4" x2="79.0" y2="147.4" stroke="#000" stroke-width="1.0"/>
<line x1="73.0" y1="129.4" x2="79.0" y2="129.4" stroke="#000" stroke-width="1.0"/>
<line x1="73.0" y1="111.4" x2="79.0" y2="111.4" stroke="#000" stroke-width="1.0"/>
<line x1="73.0" y1="93.4" x2="79.0" y2="93.4" stroke="#000" stroke-width="1.0"/>
<line x1="73.0" y1="75.4" x2="79.0" y2="75.4" stroke="#000" stroke-width="1.0"/>
<line x1="73.0" y1="57.4" x2="79.0" y2="57.4" stroke="#000" stroke-width="1.0"/>
<line x1="73.0" y1="39.4" x2="79.0" y2="39.4" stroke="#000" stroke-width="1.0"/>
<line x1="73.0" y1="21.4" x2="79.0" y2="21.4" stroke="#000" stroke-width="1.0"/>
<text x="116.0" y="197.4" font-size="11" text-anchor="middle">1</text>
<text x="156.0" y="197.4" font-size="11" text-anchor="middle">2</text>
<text x="236.0" y="197.4" font-size="11" text-anchor="middle">4</text>
<text x="70.0" y="178.2" font-size="11" text-anchor="end">1</text>
<text x="70.0" y="142.2" font-size="11" text-anchor="end">5</text>
<text x="70.0" y="34.3" font-size="11" text-anchor="end">17</text>
<text x="71.0" y="197.4" font-size="11" text-anchor="end">O</text>
<polyline points="68.2,16.0 69.5,18.6 70.9,21.1 72.3,23.6 73.6,26.1 75.0,28.6 76.3,31.0 77.7,33.5 79.1,35.9 80.4,38.2 81.8,40.6 83.1,43.0 84.5,45.3 85.9,47.6 87.2,49.9 88.6,52.1 89.9,54.4 91.3,56.6 92.7,58.8 94.0,61.0 95.4,63.2 96.7,65.3 98.1,67.4 99.4,69.5 100.8,71.6 102.2,73.6 103.5,75.7 104.9,77.7 106.2,79.7 107.6,81.7 109.0,83.6 110.3,85.6 111.7,87.5 113.0,89.4 114.4,91.2 115.8,93.1 117.1,94.9 118.5,96.7 119.8,98.5 121.2,100.3 122.6,102.0 123.9,103.7 125.3,105.4 126.6,107.1 128.0,108.8 129.3,110.4 130.7,112.0 132.1,113.6 133.4,115.2 134.8,116.8 136.1,118.3 137.5,119.8 138.9,121.3 140.2,122.8 141.6,124.3 142.9,125.7 144.3,127.1 145.7,128.5 147.0,129.9 148.4,131.2 149.7,132.5 151.1,133.8 152.5,135.1 153.8,136.4 155.2,137.6 156.5,138.9 157.9,140.1 159.2,141.3 160.6,142.4 162.0,143.6 163.3,144.7 164.7,145.8 166.0,146.9 167.4,147.9 168.8,149.0 170.1,150.0 171.5,151.0 172.8,152.0 174.2,152.9 175.6,153.8 176.9,154.8 178.3,155.7 179.6,156.5 181.0,157.4 182.4,158.2 183.7,159.0 185.1,159.8 186.4,160.6 187.8,161.3 189.1,162.1 190.5,162.8 191.9,163.4 193.2,164.1 194.6,164.8 195.9,165.4 197.3,166.0 198.7,166.6 200.0,167.1 201.4,167.7 202.7,168.2 204.1,168.7 205.5,169.2 206.8,169.6 208.2,170.0 209.5,170.5 210.9,170.9 212.2,171.2 213.6,171.6 215.0,171.9 216.3,172.2 217.7,172.5 219.0,172.8 220.4,173.0 221.8,173.3 223.1,173.5 224.5,173.7 225.8,173.8 227.2,174.0 228.6,174.1 229.9,174.2 231.3,174.3 232.6,174.3 234.0,174.4 235.4,174.4 236.7,174.4 238.1,174.4 239.4,174.3 240.8,174.3 242.1,174.2 243.5,174.1 244.9,174.0 246.2,173.8 247.6,173.6 248.9,173.5 250.3,173.2 251.7,173.0 253.0,172.8 254.4,172.5 255.7,172.2 257.1,171.9 258.5,171.6 259.8,171.2 261.2,170.8 262.5,170.4 263.9,170.0 265.3,169.6 266.6,169.1 268.0,168.7 269.3,168.2 270.7,167.6 272.0,167.1 273.4,166.5 274.8,165.9 276.1,165.3 277.5,164.7 278.8,164.1 280.2,163.4 281.6,162.7 282.9,162.0 284.3,161.3 285.6,160.5 287.0,159.8 288.4,159.0 289.7,158.2 291.1,157.3 292.4,156.5 293.8,155.6 295.2,154.7 296.5,153.8 297.9,152.9 299.2,151.9 300.6,150.9 301.9,149.9 303.3,148.9 304.7,147.9 306.0,146.8 307.4,145.7 308.7,144.6 310.1,143.5 311.5,142.4 312.8,141.2 314.2,140.0 315.5,138.8 316.9,137.6 318.3,136.3 319.6,135.1 321.0,133.8 322.3,132.5 323.7,131.1 325.1,129.8 326.4,128.4 327.8,127.0 329.1,125.6 330.5,124.2 331.8,122.7 333.2,121.3 334.6,119.8 335.9,118.2 337.3,116.7 338.6,115.1 340.0,113.6" fill="none" stroke="#000" stroke-width="1.6" stroke-linejoin="round"/>
<polyline points="76.0,30.4 76.7,31.6 77.3,32.8 78.0,34.0 78.7,35.2 79.3,36.3 80.0,37.5 80.7,38.7 81.3,39.8 82.0,41.0 82.7,42.1 83.3,43.3 84.0,44.4 84.7,45.6 85.3,46.7 86.0,47.8 86.7,49.0 87.3,50.1 88.0,51.2 88.7,52.3 89.3,53.4 90.0,54.5 90.7,55.6 91.3,56.7 92.0,57.8 92.7,58.8 93.3,59.9 94.0,61.0 94.7,62.0 95.3,63.1 96.0,64.2 96.7,65.2 97.3,66.2 98.0,67.3 98.7,68.3 99.3,69.3 100.0,70.4 100.7,71.4 101.3,72.4 102.0,73.4 102.7,74.4 103.3,75.4 104.0,76.4 104.7,77.4 105.3,78.4 106.0,79.3 106.7,80.3 107.3,81.3 108.0,82.2 108.7,83.2 109.3,84.2 110.0,85.1 110.7,86.0 111.3,87.0 112.0,87.9 112.7,88.8 113.3,89.8 114.0,90.7 114.7,91.6 115.3,92.5 116.0,93.4 116.7,94.3 117.3,95.2 118.0,96.1 118.7,97.0 119.3,97.8 120.0,98.7 120.7,99.6 121.3,100.4 122.0,101.3 122.7,102.2 123.3,103.0 124.0,103.8 124.7,104.7 125.3,105.5 126.0,106.3 126.7,107.2 127.3,108.0 128.0,108.8 128.7,109.6 129.3,110.4 130.0,111.2 130.7,112.0 131.3,112.8 132.0,113.6 132.7,114.3 133.3,115.1 134.0,115.9 134.7,116.6 135.3,117.4 136.0,118.2 136.7,118.9 137.3,119.6 138.0,120.4 138.7,121.1 139.3,121.8 140.0,122.6 140.7,123.3 141.3,124.0 142.0,124.7 142.7,125.4 143.3,126.1 144.0,126.8 144.7,127.5 145.3,128.2 146.0,128.8 146.7,129.5 147.3,130.2 148.0,130.8 148.7,131.5 149.3,132.2 150.0,132.8 150.7,133.4 151.3,134.1 152.0,134.7 152.7,135.3 153.3,136.0 154.0,136.6 154.7,137.2 155.3,137.8 156.0,138.4" fill="none" stroke="#000" stroke-width="3.2" stroke-linejoin="round"/>
<circle cx="76.0" cy="30.4" r="3.2" fill="#000"/>
<line x1="76.0" y1="30.4" x2="76.0" y2="30.4" stroke="#000" stroke-width="1.1" stroke-dasharray="6 4"/>
<circle cx="156.0" cy="138.4" r="3.2" fill="#000"/>
<line x1="76.0" y1="138.4" x2="156.0" y2="138.4" stroke="#000" stroke-width="1.1" stroke-dasharray="6 4"/>
<line x1="156.0" y1="183.4" x2="156.0" y2="138.4" stroke="#000" stroke-width="1.1" stroke-dasharray="6 4"/>
<line x1="76.0" y1="183.4" x2="156.0" y2="183.4" stroke="#000" stroke-width="3.2"/>
<circle cx="236.0" cy="174.4" r="3.4" fill="#fff" stroke="#000" stroke-width="1.4"/>
<line x1="236.0" y1="183.4" x2="236.0" y2="174.4" stroke="#000" stroke-width="1.1" stroke-dasharray="6 4"/>
<text x="230.0" y="158.4" font-size="12" text-anchor="middle" font-weight="bold">頂点は区間の外</text>
<text x="240.0" y="212.4" font-size="11" text-anchor="middle">この値は実現されない</text>
<text x="116.0" y="209.4" font-size="11" text-anchor="middle">区間 0≦x≦2</text>
</svg>
