<svg xmlns="http://www.w3.org/2000/svg" viewBox="0 0 316 260">
<title>y=(x−1)²＋2（0≦x≦3）——頂点が区間の中</title>
<desc>【この図の意図】区間内のグラフだけを太くなぞると、最小は頂点・最大は軸から遠い端になっていることが目で確かめられる。【主要な数値・設定】y=(x−1)²+2／区間[0,3]を太線／候補3点(0,3),(1,2),(3,6)に破線ガイド。【AIに同じ種類の図を描かせるときの説明文】「y=(x−1)²＋2（0≦x≦3）——頂点が区間の中。区間内のグラフだけを太くなぞると、最小は頂点・最大は軸から遠い端になっていることが目で確かめられる。数値・設定: y=(x−1)²+2／区間[0,3]を太線／候補3点(0,3),(1,2),(3,6)に破線ガイド。白黒印刷向けのシンプルな教材図（SVG）としてかいて。」——この説明文を生成AIに渡せば同型の図を描かせられる。数値を変えれば類題用の図も作れる。</desc>
<!-- L06_fig1_vertex_inside_interval.svg | y=(x−1)²＋2（0≦x≦3）——頂点が区間の中 -->
<!-- generated by assets_provenance/generate_figures.py on 2026-07-17 (docs/SPEC_figures.md準拠（内部規約の要旨は同SPECに反映済み）・SVG直接編集禁止/スクリプト改修で再生成) -->
<rect x="0" y="0" width="316" height="260" fill="#fff"/>
<line x1="38.0" y1="208.4" x2="240.6" y2="208.4" stroke="#000" stroke-width="1.2"/>
<polygon points="247.6,208.4 240.6,211.6 240.6,205.2" fill="#000"/>
<line x1="88.4" y1="231.8" x2="88.4" y2="15.0" stroke="#000" stroke-width="1.2"/>
<polygon points="88.4,8.0 91.6,15.0 85.2,15.0" fill="#000"/>
<text x="249.6" y="212.9" font-size="13" text-anchor="start">x</text>
<text x="95.4" y="10.0" font-size="13" text-anchor="start">y</text>
<line x1="52.4" y1="205.4" x2="52.4" y2="211.4" stroke="#000" stroke-width="1.0"/>
<line x1="124.4" y1="205.4" x2="124.4" y2="211.4" stroke="#000" stroke-width="1.0"/>
<line x1="160.4" y1="205.4" x2="160.4" y2="211.4" stroke="#000" stroke-width="1.0"/>
<line x1="196.4" y1="205.4" x2="196.4" y2="211.4" stroke="#000" stroke-width="1.0"/>
<line x1="232.4" y1="205.4" x2="232.4" y2="211.4" stroke="#000" stroke-width="1.0"/>
<line x1="85.4" y1="182.4" x2="91.4" y2="182.4" stroke="#000" stroke-width="1.0"/>
<line x1="85.4" y1="156.4" x2="91.4" y2="156.4" stroke="#000" stroke-width="1.0"/>
<line x1="85.4" y1="130.4" x2="91.4" y2="130.4" stroke="#000" stroke-width="1.0"/>
<line x1="85.4" y1="104.4" x2="91.4" y2="104.4" stroke="#000" stroke-width="1.0"/>
<line x1="85.4" y1="78.4" x2="91.4" y2="78.4" stroke="#000" stroke-width="1.0"/>
<line x1="85.4" y1="52.4" x2="91.4" y2="52.4" stroke="#000" stroke-width="1.0"/>
<line x1="85.4" y1="26.4" x2="91.4" y2="26.4" stroke="#000" stroke-width="1.0"/>
<text x="52.4" y="222.4" font-size="11" text-anchor="middle">−1</text>
<text x="124.4" y="222.4" font-size="11" text-anchor="middle">1</text>
<text x="160.4" y="222.4" font-size="11" text-anchor="middle">2</text>
<text x="196.4" y="222.4" font-size="11" text-anchor="middle">3</text>
<text x="82.4" y="160.2" font-size="11" text-anchor="end">2</text>
<text x="82.4" y="134.2" font-size="11" text-anchor="end">3</text>
<text x="82.4" y="56.3" font-size="11" text-anchor="end">6</text>
<text x="83.4" y="222.4" font-size="11" text-anchor="end">O</text>
<polyline points="40.7,16.0 41.6,18.8 42.4,21.6 43.3,24.3 44.1,27.0 44.9,29.7 45.8,32.3 46.6,35.0 47.4,37.6 48.3,40.1 49.1,42.7 49.9,45.2 50.8,47.7 51.6,50.1 52.5,52.6 53.3,55.0 54.1,57.3 55.0,59.7 55.8,62.0 56.6,64.3 57.5,66.5 58.3,68.8 59.1,71.0 60.0,73.2 60.8,75.3 61.7,77.4 62.5,79.5 63.3,81.6 64.2,83.6 65.0,85.6 65.8,87.6 66.7,89.6 67.5,91.5 68.4,93.4 69.2,95.2 70.0,97.1 70.9,98.9 71.7,100.7 72.5,102.4 73.4,104.2 74.2,105.9 75.0,107.5 75.9,109.2 76.7,110.8 77.6,112.4 78.4,113.9 79.2,115.5 80.1,117.0 80.9,118.4 81.7,119.9 82.6,121.3 83.4,122.7 84.2,124.1 85.1,125.4 85.9,126.7 86.8,128.0 87.6,129.2 88.4,130.4 89.3,131.6 90.1,132.8 90.9,133.9 91.8,135.0 92.6,136.1 93.4,137.2 94.3,138.2 95.1,139.2 96.0,140.2 96.8,141.1 97.6,142.0 98.5,142.9 99.3,143.8 100.1,144.6 101.0,145.4 101.8,146.2 102.6,146.9 103.5,147.6 104.3,148.3 105.2,149.0 106.0,149.6 106.8,150.2 107.7,150.8 108.5,151.3 109.3,151.9 110.2,152.3 111.0,152.8 111.9,153.2 112.7,153.6 113.5,154.0 114.4,154.4 115.2,154.7 116.0,155.0 116.9,155.3 117.7,155.5 118.5,155.7 119.4,155.9 120.2,156.0 121.1,156.2 121.9,156.3 122.7,156.3 123.6,156.4 124.4,156.4 125.2,156.4 126.1,156.3 126.9,156.3 127.7,156.2 128.6,156.0 129.4,155.9 130.3,155.7 131.1,155.5 131.9,155.3 132.8,155.0 133.6,154.7 134.4,154.4 135.3,154.0 136.1,153.6 136.9,153.2 137.8,152.8 138.6,152.3 139.5,151.9 140.3,151.3 141.1,150.8 142.0,150.2 142.8,149.6 143.6,149.0 144.5,148.3 145.3,147.6 146.2,146.9 147.0,146.2 147.8,145.4 148.7,144.6 149.5,143.8 150.3,142.9 151.2,142.0 152.0,141.1 152.8,140.2 153.7,139.2 154.5,138.2 155.4,137.2 156.2,136.1 157.0,135.0 157.9,133.9 158.7,132.8 159.5,131.6 160.4,130.4 161.2,129.2 162.0,128.0 162.9,126.7 163.7,125.4 164.6,124.1 165.4,122.7 166.2,121.3 167.1,119.9 167.9,118.4 168.7,117.0 169.6,115.5 170.4,113.9 171.2,112.4 172.1,110.8 172.9,109.2 173.8,107.5 174.6,105.9 175.4,104.2 176.3,102.4 177.1,100.7 177.9,98.9 178.8,97.1 179.6,95.2 180.4,93.4 181.3,91.5 182.1,89.6 183.0,87.6 183.8,85.6 184.6,83.6 185.5,81.6 186.3,79.5 187.1,77.4 188.0,75.3 188.8,73.2 189.7,71.0 190.5,68.8 191.3,66.5 192.2,64.3 193.0,62.0 193.8,59.7 194.7,57.3 195.5,55.0 196.3,52.6 197.2,50.1 198.0,47.7 198.9,45.2 199.7,42.7 200.5,40.1 201.4,37.6 202.2,35.0 203.0,32.3 203.9,29.7 204.7,27.0 205.5,24.3 206.4,21.6 207.2,18.8 208.1,16.0" fill="none" stroke="#000" stroke-width="1.6" stroke-linejoin="round"/>
<polyline points="88.4,130.4 89.3,131.7 90.2,132.9 91.1,134.2 92.0,135.3 92.9,136.5 93.8,137.6 94.7,138.7 95.6,139.8 96.5,140.8 97.4,141.8 98.3,142.7 99.2,143.7 100.1,144.6 101.0,145.4 101.9,146.2 102.8,147.0 103.7,147.8 104.6,148.5 105.5,149.2 106.4,149.9 107.3,150.5 108.2,151.1 109.1,151.7 110.0,152.2 110.9,152.7 111.8,153.2 112.7,153.7 113.6,154.1 114.5,154.4 115.4,154.8 116.3,155.1 117.2,155.4 118.1,155.6 119.0,155.8 119.9,156.0 120.8,156.1 121.7,156.3 122.6,156.3 123.5,156.4 124.4,156.4 125.3,156.4 126.2,156.3 127.1,156.3 128.0,156.1 128.9,156.0 129.8,155.8 130.7,155.6 131.6,155.4 132.5,155.1 133.4,154.8 134.3,154.4 135.2,154.1 136.1,153.7 137.0,153.2 137.9,152.7 138.8,152.2 139.7,151.7 140.6,151.1 141.5,150.5 142.4,149.9 143.3,149.2 144.2,148.5 145.1,147.8 146.0,147.0 146.9,146.2 147.8,145.4 148.7,144.6 149.6,143.7 150.5,142.7 151.4,141.8 152.3,140.8 153.2,139.8 154.1,138.7 155.0,137.6 155.9,136.5 156.8,135.3 157.7,134.2 158.6,132.9 159.5,131.7 160.4,130.4 161.3,129.1 162.2,127.7 163.1,126.4 164.0,124.9 164.9,123.5 165.8,122.0 166.7,120.5 167.6,119.0 168.5,117.4 169.4,115.8 170.3,114.1 171.2,112.5 172.1,110.8 173.0,109.0 173.9,107.2 174.8,105.4 175.7,103.6 176.6,101.7 177.5,99.8 178.4,97.9 179.3,95.9 180.2,93.9 181.1,91.9 182.0,89.8 182.9,87.7 183.8,85.6 184.7,83.5 185.6,81.3 186.5,79.0 187.4,76.8 188.3,74.5 189.2,72.2 190.1,69.8 191.0,67.4 191.9,65.0 192.8,62.5 193.7,60.1 194.6,57.5 195.5,55.0 196.4,52.4" fill="none" stroke="#000" stroke-width="3.2" stroke-linejoin="round"/>
<circle cx="88.4" cy="130.4" r="3.2" fill="#000"/>
<line x1="88.4" y1="208.4" x2="88.4" y2="130.4" stroke="#000" stroke-width="1.1" stroke-dasharray="6 4"/>
<line x1="88.4" y1="130.4" x2="88.4" y2="130.4" stroke="#000" stroke-width="1.1" stroke-dasharray="6 4"/>
<circle cx="124.4" cy="156.4" r="3.2" fill="#000"/>
<line x1="124.4" y1="208.4" x2="124.4" y2="156.4" stroke="#000" stroke-width="1.1" stroke-dasharray="6 4"/>
<line x1="88.4" y1="156.4" x2="124.4" y2="156.4" stroke="#000" stroke-width="1.1" stroke-dasharray="6 4"/>
<circle cx="196.4" cy="52.4" r="3.2" fill="#000"/>
<line x1="196.4" y1="208.4" x2="196.4" y2="52.4" stroke="#000" stroke-width="1.1" stroke-dasharray="6 4"/>
<line x1="88.4" y1="52.4" x2="196.4" y2="52.4" stroke="#000" stroke-width="1.1" stroke-dasharray="6 4"/>
<line x1="88.4" y1="208.4" x2="196.4" y2="208.4" stroke="#000" stroke-width="3.2"/>
<text x="154.4" y="178.4" font-size="12" text-anchor="start" font-weight="bold">頂点は区間の中</text>
<line x1="152.4" y1="174.4" x2="134.1" y2="163.3" stroke="#000" stroke-width="1.1"/>
<polygon points="129.4,160.4 135.4,161.1 132.8,165.4" fill="#000"/>
<text x="142.4" y="234.4" font-size="11" text-anchor="middle">区間 0≦x≦3</text>
</svg>
