<svg xmlns="http://www.w3.org/2000/svg" viewBox="0 0 392 230">
<title>S=x(10−x)と定義域0＜x＜10——文脈が範囲を決める</title>
<desc>【この図の意図】問題文にない定義域が文脈（長さは正）から決まり、その両端は含まれない（○）——頂点(5,25)が中にあるから最大が実現することを見せる。【主要な数値・設定】S=x(10−x)=−(x−5)²+25／定義域(0,10)両端○／頂点(5,25)●・破線ガイド。【AIに同じ種類の図を描かせるときの説明文】「S=x(10−x)と定義域0＜x＜10——文脈が範囲を決める。問題文にない定義域が文脈（長さは正）から決まり、その両端は含まれない（○）——頂点(5,25)が中にあるから最大が実現することを見せる。数値・設定: S=x(10−x)=−(x−5)²+25／定義域(0,10)両端○／頂点(5,25)●・破線ガイド。白黒印刷向けのシンプルな教材図（SVG）としてかいて。」——この説明文を生成AIに渡せば同型の図を描かせられる。数値を変えれば類題用の図も作れる。</desc>
<!-- L07_fig1_rope_domain_open.svg | S=x(10−x)と定義域0＜x＜10——文脈が範囲を決める -->
<!-- generated by assets_provenance/generate_figures.py on 2026-07-17 (docs/SPEC_figures.md準拠（内部規約の要旨は同SPECに反映済み）・SVG直接編集禁止/スクリプト改修で再生成) -->
<rect x="0" y="0" width="392" height="230" fill="#fff"/>
<line x1="40.0" y1="170.0" x2="363.4" y2="170.0" stroke="#000" stroke-width="1.2"/>
<polygon points="370.4,170.0 363.4,173.2 363.4,166.8" fill="#000"/>
<line x1="71.2" y1="187.9" x2="71.2" y2="15.0" stroke="#000" stroke-width="1.2"/>
<polygon points="71.2,8.0 74.4,15.0 68.0,15.0" fill="#000"/>
<text x="372.4" y="174.5" font-size="13" text-anchor="start">x</text>
<text x="78.2" y="10.0" font-size="13" text-anchor="start">y</text>
<line x1="45.2" y1="167.0" x2="45.2" y2="173.0" stroke="#000" stroke-width="1.0"/>
<line x1="97.2" y1="167.0" x2="97.2" y2="173.0" stroke="#000" stroke-width="1.0"/>
<line x1="123.2" y1="167.0" x2="123.2" y2="173.0" stroke="#000" stroke-width="1.0"/>
<line x1="149.2" y1="167.0" x2="149.2" y2="173.0" stroke="#000" stroke-width="1.0"/>
<line x1="175.2" y1="167.0" x2="175.2" y2="173.0" stroke="#000" stroke-width="1.0"/>
<line x1="201.2" y1="167.0" x2="201.2" y2="173.0" stroke="#000" stroke-width="1.0"/>
<line x1="227.2" y1="167.0" x2="227.2" y2="173.0" stroke="#000" stroke-width="1.0"/>
<line x1="253.2" y1="167.0" x2="253.2" y2="173.0" stroke="#000" stroke-width="1.0"/>
<line x1="279.2" y1="167.0" x2="279.2" y2="173.0" stroke="#000" stroke-width="1.0"/>
<line x1="305.2" y1="167.0" x2="305.2" y2="173.0" stroke="#000" stroke-width="1.0"/>
<line x1="331.2" y1="167.0" x2="331.2" y2="173.0" stroke="#000" stroke-width="1.0"/>
<line x1="357.2" y1="167.0" x2="357.2" y2="173.0" stroke="#000" stroke-width="1.0"/>
<line x1="68.2" y1="142.0" x2="74.2" y2="142.0" stroke="#000" stroke-width="1.0"/>
<line x1="68.2" y1="114.0" x2="74.2" y2="114.0" stroke="#000" stroke-width="1.0"/>
<line x1="68.2" y1="86.0" x2="74.2" y2="86.0" stroke="#000" stroke-width="1.0"/>
<line x1="68.2" y1="58.0" x2="74.2" y2="58.0" stroke="#000" stroke-width="1.0"/>
<line x1="68.2" y1="30.0" x2="74.2" y2="30.0" stroke="#000" stroke-width="1.0"/>
<text x="201.2" y="184.0" font-size="11" text-anchor="middle">5</text>
<text x="331.2" y="184.0" font-size="11" text-anchor="middle">10</text>
<text x="65.2" y="33.9" font-size="11" text-anchor="end">25</text>
<text x="66.2" y="184.0" font-size="11" text-anchor="end">O</text>
<polyline points="71.2,170.0 72.4,167.5 73.6,165.0 74.7,162.5 75.9,160.0 77.1,157.6 78.3,155.1 79.5,152.7 80.7,150.4 81.8,148.0 83.0,145.7 84.2,143.4 85.4,141.1 86.6,138.9 87.7,136.6 88.9,134.4 90.1,132.2 91.3,130.1 92.5,127.9 93.7,125.8 94.8,123.7 96.0,121.6 97.2,119.6 98.4,117.6 99.6,115.6 100.7,113.6 101.9,111.6 103.1,109.7 104.3,107.8 105.5,105.9 106.7,104.0 107.8,102.2 109.0,100.4 110.2,98.6 111.4,96.8 112.6,95.1 113.7,93.4 114.9,91.7 116.1,90.0 117.3,88.3 118.5,86.7 119.7,85.1 120.8,83.5 122.0,81.9 123.2,80.4 124.4,78.9 125.6,77.4 126.7,75.9 127.9,74.5 129.1,73.1 130.3,71.7 131.5,70.3 132.7,68.9 133.8,67.6 135.0,66.3 136.2,65.0 137.4,63.7 138.6,62.5 139.7,61.3 140.9,60.1 142.1,58.9 143.3,57.8 144.5,56.7 145.7,55.6 146.8,54.5 148.0,53.4 149.2,52.4 150.4,51.4 151.6,50.4 152.7,49.4 153.9,48.5 155.1,47.6 156.3,46.7 157.5,45.8 158.7,45.0 159.8,44.2 161.0,43.4 162.2,42.6 163.4,41.8 164.6,41.1 165.7,40.4 166.9,39.7 168.1,39.1 169.3,38.4 170.5,37.8 171.7,37.2 172.8,36.7 174.0,36.1 175.2,35.6 176.4,35.1 177.6,34.6 178.7,34.2 179.9,33.7 181.1,33.3 182.3,33.0 183.5,32.6 184.7,32.3 185.8,32.0 187.0,31.7 188.2,31.4 189.4,31.2 190.6,30.9 191.7,30.7 192.9,30.6 194.1,30.4 195.3,30.3 196.5,30.2 197.7,30.1 198.8,30.0 200.0,30.0 201.2,30.0 202.4,30.0 203.6,30.0 204.7,30.1 205.9,30.2 207.1,30.3 208.3,30.4 209.5,30.6 210.7,30.7 211.8,30.9 213.0,31.2 214.2,31.4 215.4,31.7 216.6,32.0 217.7,32.3 218.9,32.6 220.1,33.0 221.3,33.3 222.5,33.7 223.7,34.2 224.8,34.6 226.0,35.1 227.2,35.6 228.4,36.1 229.6,36.7 230.7,37.2 231.9,37.8 233.1,38.4 234.3,39.1 235.5,39.7 236.7,40.4 237.8,41.1 239.0,41.8 240.2,42.6 241.4,43.4 242.6,44.2 243.7,45.0 244.9,45.8 246.1,46.7 247.3,47.6 248.5,48.5 249.7,49.4 250.8,50.4 252.0,51.4 253.2,52.4 254.4,53.4 255.6,54.5 256.7,55.6 257.9,56.7 259.1,57.8 260.3,58.9 261.5,60.1 262.7,61.3 263.8,62.5 265.0,63.7 266.2,65.0 267.4,66.3 268.6,67.6 269.7,68.9 270.9,70.3 272.1,71.7 273.3,73.1 274.5,74.5 275.7,75.9 276.8,77.4 278.0,78.9 279.2,80.4 280.4,81.9 281.6,83.5 282.7,85.1 283.9,86.7 285.1,88.3 286.3,90.0 287.5,91.7 288.7,93.4 289.8,95.1 291.0,96.8 292.2,98.6 293.4,100.4 294.6,102.2 295.7,104.0 296.9,105.9 298.1,107.8 299.3,109.7 300.5,111.6 301.7,113.6 302.8,115.6 304.0,117.6 305.2,119.6 306.4,121.6 307.6,123.7 308.7,125.8 309.9,127.9 311.1,130.1 312.3,132.2 313.5,134.4 314.7,136.6 315.8,138.9 317.0,141.1 318.2,143.4 319.4,145.7 320.6,148.0 321.7,150.4 322.9,152.7 324.1,155.1 325.3,157.6 326.5,160.0 327.7,162.5 328.8,165.0 330.0,167.5 331.2,170.0" fill="none" stroke="#000" stroke-width="1.6" stroke-linejoin="round"/>
<circle cx="71.2" cy="170.0" r="3.4" fill="#fff" stroke="#000" stroke-width="1.4"/>
<circle cx="331.2" cy="170.0" r="3.4" fill="#fff" stroke="#000" stroke-width="1.4"/>
<circle cx="201.2" cy="30.0" r="3.4" fill="#000"/>
<line x1="201.2" y1="170.0" x2="201.2" y2="30.0" stroke="#000" stroke-width="1.1" stroke-dasharray="6 4"/>
<line x1="71.2" y1="30.0" x2="201.2" y2="30.0" stroke="#000" stroke-width="1.1" stroke-dasharray="6 4"/>
<text x="209.2" y="24.0" font-size="12" text-anchor="start" font-weight="bold">頂点(5, 25)</text>
<text x="333.2" y="158.0" font-size="11" text-anchor="end">○＝ふくまない</text>
<text x="201.2" y="196.0" font-size="11" text-anchor="middle">定義域 0＜x＜10（文脈から）</text>
<text x="196.0" y="224.0" font-size="12" text-anchor="middle">S＝x(10−x)＝−(x−5)²＋25</text>
</svg>
