<svg xmlns="http://www.w3.org/2000/svg" viewBox="0 0 340 274">
<title>y=x²−5x＋6とx軸の共有点(2,0)・(3,0)</title>
<desc>【この図の意図】二次方程式x²−5x+6=0の解2,3が、グラフとx軸の共有点のx座標として見える——計算とグラフをつなぐ基準図。【主要な数値・設定】y=x²−5x+6=(x−2)(x−3)／共有点(2,0),(3,0)●・座標ラベルつき。【AIに同じ種類の図を描かせるときの説明文】「y=x²−5x＋6とx軸の共有点(2,0)・(3,0)。二次方程式x²−5x+6=0の解2,3が、グラフとx軸の共有点のx座標として見える——計算とグラフをつなぐ基準図。数値・設定: y=x²−5x+6=(x−2)(x−3)／共有点(2,0),(3,0)●・座標ラベルつき。白黒印刷向けのシンプルな教材図（SVG）としてかいて。」——この説明文を生成AIに渡せば同型の図を描かせられる。数値を変えれば類題用の図も作れる。</desc>
<!-- L08_fig1_roots_as_intersections.svg | y=x²−5x＋6とx軸の共有点(2,0)・(3,0) -->
<!-- generated by assets_provenance/generate_figures.py on 2026-07-17 (docs/SPEC_figures.md準拠（内部規約の要旨は同SPECに反映済み）・SVG直接編集禁止/スクリプト改修で再生成) -->
<rect x="0" y="0" width="340" height="274" fill="#fff"/>
<line x1="38.0" y1="192.8" x2="311.0" y2="192.8" stroke="#000" stroke-width="1.2"/>
<polygon points="318.0,192.8 311.0,195.9 311.0,189.6" fill="#000"/>
<line x1="74.0" y1="234.4" x2="74.0" y2="15.0" stroke="#000" stroke-width="1.2"/>
<polygon points="74.0,8.0 77.2,15.0 70.8,15.0" fill="#000"/>
<text x="320.0" y="197.3" font-size="13" text-anchor="start">x</text>
<text x="81.0" y="10.0" font-size="13" text-anchor="start">y</text>
<line x1="114.0" y1="189.8" x2="114.0" y2="195.8" stroke="#000" stroke-width="1.0"/>
<line x1="154.0" y1="189.8" x2="154.0" y2="195.8" stroke="#000" stroke-width="1.0"/>
<line x1="194.0" y1="189.8" x2="194.0" y2="195.8" stroke="#000" stroke-width="1.0"/>
<line x1="234.0" y1="189.8" x2="234.0" y2="195.8" stroke="#000" stroke-width="1.0"/>
<line x1="274.0" y1="189.8" x2="274.0" y2="195.8" stroke="#000" stroke-width="1.0"/>
<line x1="71.0" y1="218.8" x2="77.0" y2="218.8" stroke="#000" stroke-width="1.0"/>
<line x1="71.0" y1="166.8" x2="77.0" y2="166.8" stroke="#000" stroke-width="1.0"/>
<line x1="71.0" y1="140.8" x2="77.0" y2="140.8" stroke="#000" stroke-width="1.0"/>
<line x1="71.0" y1="114.8" x2="77.0" y2="114.8" stroke="#000" stroke-width="1.0"/>
<line x1="71.0" y1="88.8" x2="77.0" y2="88.8" stroke="#000" stroke-width="1.0"/>
<line x1="71.0" y1="62.8" x2="77.0" y2="62.8" stroke="#000" stroke-width="1.0"/>
<line x1="71.0" y1="36.8" x2="77.0" y2="36.8" stroke="#000" stroke-width="1.0"/>
<text x="114.0" y="206.8" font-size="11" text-anchor="middle">1</text>
<text x="234.0" y="206.8" font-size="11" text-anchor="middle">4</text>
<text x="274.0" y="206.8" font-size="11" text-anchor="middle">5</text>
<text x="68.0" y="144.6" font-size="11" text-anchor="end">2</text>
<text x="68.0" y="92.6" font-size="11" text-anchor="end">4</text>
<text x="68.0" y="40.6" font-size="11" text-anchor="end">6</text>
<text x="69.0" y="206.8" font-size="11" text-anchor="end">O</text>
<polyline points="67.8,16.0 68.9,19.6 69.9,23.3 71.0,26.8 72.0,30.4 73.1,33.9 74.2,37.3 75.2,40.8 76.3,44.2 77.4,47.5 78.4,50.8 79.5,54.1 80.5,57.4 81.6,60.6 82.7,63.7 83.7,66.9 84.8,70.0 85.8,73.0 86.9,76.0 88.0,79.0 89.0,82.0 90.1,84.9 91.2,87.8 92.2,90.6 93.3,93.4 94.3,96.2 95.4,98.9 96.5,101.6 97.5,104.3 98.6,106.9 99.7,109.5 100.7,112.0 101.8,114.5 102.8,117.0 103.9,119.5 105.0,121.9 106.0,124.2 107.1,126.5 108.2,128.8 109.2,131.1 110.3,133.3 111.3,135.5 112.4,137.6 113.5,139.7 114.5,141.8 115.6,143.9 116.6,145.8 117.7,147.8 118.8,149.7 119.8,151.6 120.9,153.5 122.0,155.3 123.0,157.1 124.1,158.8 125.1,160.5 126.2,162.2 127.3,163.8 128.3,165.4 129.4,167.0 130.5,168.5 131.5,170.0 132.6,171.4 133.6,172.8 134.7,174.2 135.8,175.5 136.8,176.8 137.9,178.1 139.0,179.3 140.0,180.5 141.1,181.7 142.1,182.8 143.2,183.9 144.3,184.9 145.3,185.9 146.4,186.9 147.4,187.8 148.5,188.7 149.6,189.6 150.6,190.4 151.7,191.2 152.8,192.0 153.8,192.7 154.9,193.4 155.9,194.0 157.0,194.6 158.1,195.2 159.1,195.7 160.2,196.2 161.3,196.7 162.3,197.1 163.4,197.5 164.4,197.8 165.5,198.1 166.6,198.4 167.6,198.6 168.7,198.8 169.8,199.0 170.8,199.1 171.9,199.2 172.9,199.3 174.0,199.3 175.1,199.3 176.1,199.2 177.2,199.1 178.2,199.0 179.3,198.8 180.4,198.6 181.4,198.4 182.5,198.1 183.6,197.8 184.6,197.5 185.7,197.1 186.7,196.7 187.8,196.2 188.9,195.7 189.9,195.2 191.0,194.6 192.1,194.0 193.1,193.4 194.2,192.7 195.2,192.0 196.3,191.2 197.4,190.4 198.4,189.6 199.5,188.7 200.6,187.8 201.6,186.9 202.7,185.9 203.7,184.9 204.8,183.9 205.9,182.8 206.9,181.7 208.0,180.5 209.0,179.3 210.1,178.1 211.2,176.8 212.2,175.5 213.3,174.2 214.4,172.8 215.4,171.4 216.5,170.0 217.5,168.5 218.6,167.0 219.7,165.4 220.7,163.8 221.8,162.2 222.9,160.5 223.9,158.8 225.0,157.1 226.0,155.3 227.1,153.5 228.2,151.6 229.2,149.7 230.3,147.8 231.4,145.8 232.4,143.9 233.5,141.8 234.5,139.7 235.6,137.6 236.7,135.5 237.7,133.3 238.8,131.1 239.8,128.8 240.9,126.5 242.0,124.2 243.0,121.9 244.1,119.5 245.2,117.0 246.2,114.5 247.3,112.0 248.3,109.5 249.4,106.9 250.5,104.3 251.5,101.6 252.6,98.9 253.7,96.2 254.7,93.4 255.8,90.6 256.8,87.8 257.9,84.9 259.0,82.0 260.0,79.0 261.1,76.0 262.2,73.0 263.2,70.0 264.3,66.9 265.3,63.7 266.4,60.6 267.5,57.4 268.5,54.1 269.6,50.8 270.6,47.5 271.7,44.2 272.8,40.8 273.8,37.3 274.9,33.9 276.0,30.4 277.0,26.8 278.1,23.3 279.1,19.6 280.2,16.0" fill="none" stroke="#000" stroke-width="1.6" stroke-linejoin="round"/>
<circle cx="154.0" cy="192.8" r="3.6" fill="#000"/>
<circle cx="194.0" cy="192.8" r="3.6" fill="#000"/>
<text x="148.0" y="214.8" font-size="12" text-anchor="middle" font-weight="bold">(2, 0)</text>
<text x="204.0" y="214.8" font-size="12" text-anchor="middle" font-weight="bold">(3, 0)</text>
<text x="232.0" y="107.2" font-size="11" text-anchor="middle">共有点のx座標＝方程式の解</text>
<line x1="200.0" y1="111.2" x2="160.7" y2="182.0" stroke="#000" stroke-width="1.1"/>
<polygon points="158.0,186.8 158.5,180.8 162.8,183.2" fill="#000"/>
<line x1="234.0" y1="111.2" x2="194.7" y2="182.0" stroke="#000" stroke-width="1.1"/>
<polygon points="192.0,186.8 192.5,180.8 196.8,183.2" fill="#000"/>
<text x="170.0" y="268.0" font-size="12" text-anchor="middle">y＝x²−5x＋6</text>
</svg>
