<svg xmlns="http://www.w3.org/2000/svg" viewBox="0 0 295 242">
<title>上に凸で頂点がx軸より上——共有点2個</title>
<desc>【この図の意図】上に凸では「頂点がx軸より上」が2個の条件——「頂点が下なら2個」と符号だけで覚える誤りを防ぐ反例図。【主要な数値・設定】y=−x²+4x−3=−(x−2)²+1／頂点(2,1)●・共有点(1,0),(3,0)●。【AIに同じ種類の図を描かせるときの説明文】「上に凸で頂点がx軸より上——共有点2個。上に凸では「頂点がx軸より上」が2個の条件——「頂点が下なら2個」と符号だけで覚える誤りを防ぐ反例図。数値・設定: y=−x²+4x−3=−(x−2)²+1／頂点(2,1)●・共有点(1,0),(3,0)●。白黒印刷向けのシンプルな教材図（SVG）としてかいて。」——この説明文を生成AIに渡せば同型の図を描かせられる。数値を変えれば類題用の図も作れる。</desc>
<!-- L09_fig2_concave_down_two_points.svg | 上に凸で頂点がx軸より上——共有点2個 -->
<!-- generated by assets_provenance/generate_figures.py on 2026-07-17 (docs/SPEC_figures.md準拠（内部規約の要旨は同SPECに反映済み）・SVG直接編集禁止/スクリプト改修で再生成) -->
<rect x="0" y="0" width="295" height="242" fill="#fff"/>
<line x1="38.0" y1="86.4" x2="265.8" y2="86.4" stroke="#000" stroke-width="1.2"/>
<polygon points="272.8,86.4 265.8,89.6 265.8,83.2" fill="#000"/>
<line x1="67.4" y1="201.6" x2="67.4" y2="15.0" stroke="#000" stroke-width="1.2"/>
<polygon points="67.4,8.0 70.6,15.0 64.2,15.0" fill="#000"/>
<text x="274.8" y="90.9" font-size="13" text-anchor="start">x</text>
<text x="74.4" y="10.0" font-size="13" text-anchor="start">y</text>
<line x1="109.4" y1="83.4" x2="109.4" y2="89.4" stroke="#000" stroke-width="1.0"/>
<line x1="151.4" y1="83.4" x2="151.4" y2="89.4" stroke="#000" stroke-width="1.0"/>
<line x1="193.4" y1="83.4" x2="193.4" y2="89.4" stroke="#000" stroke-width="1.0"/>
<line x1="235.4" y1="83.4" x2="235.4" y2="89.4" stroke="#000" stroke-width="1.0"/>
<line x1="64.4" y1="182.4" x2="70.4" y2="182.4" stroke="#000" stroke-width="1.0"/>
<line x1="64.4" y1="150.4" x2="70.4" y2="150.4" stroke="#000" stroke-width="1.0"/>
<line x1="64.4" y1="118.4" x2="70.4" y2="118.4" stroke="#000" stroke-width="1.0"/>
<line x1="64.4" y1="54.4" x2="70.4" y2="54.4" stroke="#000" stroke-width="1.0"/>
<line x1="64.4" y1="22.4" x2="70.4" y2="22.4" stroke="#000" stroke-width="1.0"/>
<text x="235.4" y="100.4" font-size="11" text-anchor="middle">4</text>
<text x="61.4" y="58.3" font-size="11" text-anchor="end">1</text>
<text x="62.4" y="100.4" font-size="11" text-anchor="end">O</text>
<polyline points="61.3,201.6 62.2,198.7 63.1,195.8 64.0,192.9 64.9,190.1 65.8,187.2 66.7,184.5 67.6,181.7 68.5,179.0 69.4,176.3 70.3,173.6 71.2,171.0 72.1,168.4 73.0,165.8 73.9,163.3 74.8,160.8 75.7,158.3 76.6,155.8 77.5,153.4 78.4,151.0 79.3,148.6 80.2,146.3 81.1,144.0 82.0,141.7 82.9,139.4 83.8,137.2 84.7,135.0 85.6,132.8 86.5,130.7 87.4,128.6 88.3,126.5 89.2,124.5 90.1,122.5 91.0,120.5 91.9,118.5 92.8,116.6 93.7,114.7 94.6,112.8 95.6,111.0 96.5,109.2 97.4,107.4 98.3,105.6 99.2,103.9 100.1,102.2 101.0,100.6 101.9,98.9 102.8,97.3 103.7,95.7 104.6,94.2 105.5,92.7 106.4,91.2 107.3,89.7 108.2,88.3 109.1,86.9 110.0,85.5 110.9,84.2 111.8,82.9 112.7,81.6 113.6,80.4 114.5,79.1 115.4,78.0 116.3,76.8 117.2,75.7 118.1,74.6 119.0,73.5 119.9,72.4 120.8,71.4 121.7,70.4 122.6,69.5 123.5,68.5 124.4,67.6 125.3,66.8 126.2,65.9 127.1,65.1 128.0,64.4 128.9,63.6 129.8,62.9 130.7,62.2 131.6,61.5 132.5,60.9 133.4,60.3 134.3,59.7 135.2,59.2 136.1,58.7 137.0,58.2 137.9,57.7 138.8,57.3 139.7,56.9 140.6,56.5 141.5,56.2 142.4,55.9 143.3,55.6 144.2,55.3 145.1,55.1 146.0,54.9 146.9,54.8 147.8,54.6 148.7,54.5 149.6,54.5 150.5,54.4 151.4,54.4 152.3,54.4 153.2,54.5 154.1,54.5 155.0,54.6 155.9,54.8 156.8,54.9 157.7,55.1 158.6,55.3 159.5,55.6 160.4,55.9 161.3,56.2 162.2,56.5 163.1,56.9 164.0,57.3 164.9,57.7 165.8,58.2 166.7,58.7 167.6,59.2 168.5,59.7 169.4,60.3 170.3,60.9 171.2,61.5 172.1,62.2 173.0,62.9 173.9,63.6 174.8,64.4 175.7,65.1 176.6,65.9 177.5,66.8 178.4,67.6 179.3,68.5 180.2,69.5 181.1,70.4 182.0,71.4 182.9,72.4 183.8,73.5 184.7,74.6 185.6,75.7 186.5,76.8 187.4,78.0 188.3,79.1 189.2,80.4 190.1,81.6 191.0,82.9 191.9,84.2 192.8,85.5 193.7,86.9 194.6,88.3 195.5,89.7 196.4,91.2 197.3,92.7 198.2,94.2 199.1,95.7 200.0,97.3 200.9,98.9 201.8,100.6 202.7,102.2 203.6,103.9 204.5,105.6 205.4,107.4 206.3,109.2 207.2,111.0 208.2,112.8 209.1,114.7 210.0,116.6 210.9,118.5 211.8,120.5 212.7,122.5 213.6,124.5 214.5,126.5 215.4,128.6 216.3,130.7 217.2,132.8 218.1,135.0 219.0,137.2 219.9,139.4 220.8,141.7 221.7,144.0 222.6,146.3 223.5,148.6 224.4,151.0 225.3,153.4 226.2,155.8 227.1,158.3 228.0,160.8 228.9,163.3 229.8,165.8 230.7,168.4 231.6,171.0 232.5,173.6 233.4,176.3 234.3,179.0 235.2,181.7 236.1,184.5 237.0,187.2 237.9,190.1 238.8,192.9 239.7,195.8 240.6,198.7 241.5,201.6" fill="none" stroke="#000" stroke-width="1.6" stroke-linejoin="round"/>
<circle cx="151.4" cy="54.4" r="3.2" fill="#000"/>
<circle cx="109.4" cy="86.4" r="3.6" fill="#000"/>
<circle cx="193.4" cy="86.4" r="3.6" fill="#000"/>
<text x="151.4" y="44.4" font-size="12" text-anchor="middle" font-weight="bold">頂点(2, 1)——x軸より上</text>
<text x="105.4" y="108.4" font-size="11" text-anchor="middle">(1, 0)</text>
<text x="199.4" y="108.4" font-size="11" text-anchor="middle">(3, 0)</text>
<text x="147.5" y="236.0" font-size="12" text-anchor="middle">y＝−x²＋4x−3（上に凸）——共有点2個</text>
</svg>
