<svg xmlns="http://www.w3.org/2000/svg" viewBox="0 0 351 269">
<title>x²−2x−3≦0——グラフの下側と閉区間の解</title>
<desc>【この図の意図】y≦0の解＝共有点の間で、等号つきなら共有点も含む（●）——下側の太線と閉区間[−1,3]を対応させて見せる。【主要な数値・設定】y=(x+1)(x−3)／下側を太線／解−1≦x≦3を軸上の太線+●で表示。【AIに同じ種類の図を描かせるときの説明文】「x²−2x−3≦0——グラフの下側と閉区間の解。y≦0の解＝共有点の間で、等号つきなら共有点も含む（●）——下側の太線と閉区間[−1,3]を対応させて見せる。数値・設定: y=(x+1)(x−3)／下側を太線／解−1≦x≦3を軸上の太線+●で表示。白黒印刷向けのシンプルな教材図（SVG）としてかいて。」——この説明文を生成AIに渡せば同型の図を描かせられる。数値を変えれば類題用の図も作れる。</desc>
<!-- L10_fig2_below_axis_between.svg | x²−2x−3≦0——グラフの下側と閉区間の解 -->
<!-- generated by assets_provenance/generate_figures.py on 2026-07-17 (docs/SPEC_figures.md準拠（内部規約の要旨は同SPECに反映済み）・SVG直接編集禁止/スクリプト改修で再生成) -->
<rect x="0" y="0" width="351" height="269" fill="#fff"/>
<line x1="40.0" y1="117.2" x2="321.8" y2="117.2" stroke="#000" stroke-width="1.2"/>
<polygon points="328.8,117.2 321.8,120.3 321.8,114.0" fill="#000"/>
<line x1="144.4" y1="225.0" x2="144.4" y2="15.0" stroke="#000" stroke-width="1.2"/>
<polygon points="144.4,8.0 147.5,15.0 141.2,15.0" fill="#000"/>
<text x="330.8" y="121.7" font-size="13" text-anchor="start">x</text>
<text x="151.4" y="10.0" font-size="13" text-anchor="start">y</text>
<line x1="72.4" y1="114.2" x2="72.4" y2="120.2" stroke="#000" stroke-width="1.0"/>
<line x1="108.4" y1="114.2" x2="108.4" y2="120.2" stroke="#000" stroke-width="1.0"/>
<line x1="180.4" y1="114.2" x2="180.4" y2="120.2" stroke="#000" stroke-width="1.0"/>
<line x1="216.4" y1="114.2" x2="216.4" y2="120.2" stroke="#000" stroke-width="1.0"/>
<line x1="252.4" y1="114.2" x2="252.4" y2="120.2" stroke="#000" stroke-width="1.0"/>
<line x1="288.4" y1="114.2" x2="288.4" y2="120.2" stroke="#000" stroke-width="1.0"/>
<line x1="141.4" y1="205.2" x2="147.4" y2="205.2" stroke="#000" stroke-width="1.0"/>
<line x1="141.4" y1="183.2" x2="147.4" y2="183.2" stroke="#000" stroke-width="1.0"/>
<line x1="141.4" y1="161.2" x2="147.4" y2="161.2" stroke="#000" stroke-width="1.0"/>
<line x1="141.4" y1="139.2" x2="147.4" y2="139.2" stroke="#000" stroke-width="1.0"/>
<line x1="141.4" y1="95.2" x2="147.4" y2="95.2" stroke="#000" stroke-width="1.0"/>
<line x1="141.4" y1="73.2" x2="147.4" y2="73.2" stroke="#000" stroke-width="1.0"/>
<line x1="141.4" y1="51.2" x2="147.4" y2="51.2" stroke="#000" stroke-width="1.0"/>
<line x1="141.4" y1="29.2" x2="147.4" y2="29.2" stroke="#000" stroke-width="1.0"/>
<text x="72.4" y="131.2" font-size="11" text-anchor="middle">−2</text>
<text x="180.4" y="131.2" font-size="11" text-anchor="middle">1</text>
<text x="216.4" y="131.2" font-size="11" text-anchor="middle">2</text>
<text x="288.4" y="131.2" font-size="11" text-anchor="middle">4</text>
<text x="139.4" y="131.2" font-size="11" text-anchor="end">O</text>
<polyline points="74.8,16.0 75.9,19.8 76.9,23.5 78.0,27.2 79.1,30.8 80.1,34.4 81.2,38.0 82.2,41.6 83.3,45.1 84.3,48.5 85.4,51.9 86.4,55.3 87.5,58.7 88.6,62.0 89.6,65.3 90.7,68.5 91.7,71.7 92.8,74.9 93.8,78.0 94.9,81.1 95.9,84.1 97.0,87.1 98.1,90.1 99.1,93.0 100.2,95.9 101.2,98.8 102.3,101.6 103.3,104.4 104.4,107.1 105.4,109.8 106.5,112.5 107.6,115.1 108.6,117.7 109.7,120.3 110.7,122.8 111.8,125.3 112.8,127.7 113.9,130.1 114.9,132.5 116.0,134.8 117.1,137.1 118.1,139.3 119.2,141.6 120.2,143.7 121.3,145.9 122.3,148.0 123.4,150.0 124.4,152.1 125.5,154.0 126.6,156.0 127.6,157.9 128.7,159.8 129.7,161.6 130.8,163.4 131.8,165.2 132.9,166.9 133.9,168.6 135.0,170.2 136.1,171.8 137.1,173.4 138.2,174.9 139.2,176.4 140.3,177.9 141.3,179.3 142.4,180.7 143.4,182.0 144.5,183.3 145.6,184.6 146.6,185.8 147.7,187.0 148.7,188.2 149.8,189.3 150.8,190.4 151.9,191.4 153.0,192.4 154.0,193.4 155.1,194.3 156.1,195.2 157.2,196.0 158.2,196.9 159.3,197.6 160.3,198.4 161.4,199.1 162.5,199.7 163.5,200.4 164.6,200.9 165.6,201.5 166.7,202.0 167.7,202.5 168.8,202.9 169.8,203.3 170.9,203.7 172.0,204.0 173.0,204.3 174.1,204.5 175.1,204.7 176.2,204.9 177.2,205.0 178.3,205.1 179.3,205.2 180.4,205.2 181.5,205.2 182.5,205.1 183.6,205.0 184.6,204.9 185.7,204.7 186.7,204.5 187.8,204.3 188.8,204.0 189.9,203.7 191.0,203.3 192.0,202.9 193.1,202.5 194.1,202.0 195.2,201.5 196.2,200.9 197.3,200.4 198.3,199.7 199.4,199.1 200.5,198.4 201.5,197.6 202.6,196.9 203.6,196.0 204.7,195.2 205.7,194.3 206.8,193.4 207.8,192.4 208.9,191.4 210.0,190.4 211.0,189.3 212.1,188.2 213.1,187.0 214.2,185.8 215.2,184.6 216.3,183.3 217.4,182.0 218.4,180.7 219.5,179.3 220.5,177.9 221.6,176.4 222.6,174.9 223.7,173.4 224.7,171.8 225.8,170.2 226.9,168.6 227.9,166.9 229.0,165.2 230.0,163.4 231.1,161.6 232.1,159.8 233.2,157.9 234.2,156.0 235.3,154.0 236.4,152.1 237.4,150.0 238.5,148.0 239.5,145.9 240.6,143.7 241.6,141.6 242.7,139.3 243.7,137.1 244.8,134.8 245.9,132.5 246.9,130.1 248.0,127.7 249.0,125.3 250.1,122.8 251.1,120.3 252.2,117.7 253.2,115.1 254.3,112.5 255.4,109.8 256.4,107.1 257.5,104.4 258.5,101.6 259.6,98.8 260.6,95.9 261.7,93.0 262.7,90.1 263.8,87.1 264.9,84.1 265.9,81.1 267.0,78.0 268.0,74.9 269.1,71.7 270.1,68.5 271.2,65.3 272.2,62.0 273.3,58.7 274.4,55.3 275.4,51.9 276.5,48.5 277.5,45.1 278.6,41.6 279.6,38.0 280.7,34.4 281.7,30.8 282.8,27.2 283.9,23.5 284.9,19.8 286.0,16.0" fill="none" stroke="#000" stroke-width="1.6" stroke-linejoin="round"/>
<polyline points="108.4,117.2 109.6,120.1 110.8,123.0 112.0,125.8 113.2,128.5 114.4,131.3 115.6,133.9 116.8,136.5 118.0,139.1 119.2,141.6 120.4,144.1 121.6,146.5 122.8,148.9 124.0,151.2 125.2,153.5 126.4,155.7 127.6,157.9 128.8,160.0 130.0,162.1 131.2,164.1 132.4,166.1 133.6,168.0 134.8,169.9 136.0,171.7 137.2,173.5 138.4,175.3 139.6,176.9 140.8,178.6 142.0,180.2 143.2,181.7 144.4,183.2 145.6,184.6 146.8,186.0 148.0,187.4 149.2,188.7 150.4,189.9 151.6,191.1 152.8,192.3 154.0,193.4 155.2,194.4 156.4,195.4 157.6,196.4 158.8,197.3 160.0,198.1 161.2,198.9 162.4,199.7 163.6,200.4 164.8,201.1 166.0,201.7 167.2,202.2 168.4,202.8 169.6,203.2 170.8,203.6 172.0,204.0 173.2,204.3 174.4,204.6 175.6,204.8 176.8,205.0 178.0,205.1 179.2,205.2 180.4,205.2 181.6,205.2 182.8,205.1 184.0,205.0 185.2,204.8 186.4,204.6 187.6,204.3 188.8,204.0 190.0,203.6 191.2,203.2 192.4,202.8 193.6,202.2 194.8,201.7 196.0,201.1 197.2,200.4 198.4,199.7 199.6,198.9 200.8,198.1 202.0,197.3 203.2,196.4 204.4,195.4 205.6,194.4 206.8,193.4 208.0,192.3 209.2,191.1 210.4,189.9 211.6,188.7 212.8,187.4 214.0,186.0 215.2,184.6 216.4,183.2 217.6,181.7 218.8,180.2 220.0,178.6 221.2,176.9 222.4,175.3 223.6,173.5 224.8,171.7 226.0,169.9 227.2,168.0 228.4,166.1 229.6,164.1 230.8,162.1 232.0,160.0 233.2,157.9 234.4,155.7 235.6,153.5 236.8,151.2 238.0,148.9 239.2,146.5 240.4,144.1 241.6,141.6 242.8,139.1 244.0,136.5 245.2,133.9 246.4,131.3 247.6,128.5 248.8,125.8 250.0,123.0 251.2,120.1 252.4,117.2" fill="none" stroke="#000" stroke-width="3.2" stroke-linejoin="round"/>
<line x1="108.4" y1="103.2" x2="252.4" y2="103.2" stroke="#000" stroke-width="3.2"/>
<circle cx="108.4" cy="117.2" r="3.4" fill="#000"/>
<circle cx="108.4" cy="103.2" r="3.4" fill="#000"/>
<circle cx="252.4" cy="117.2" r="3.4" fill="#000"/>
<circle cx="252.4" cy="103.2" r="3.4" fill="#000"/>
<text x="106.4" y="93.2" font-size="11" text-anchor="middle">−1</text>
<text x="254.4" y="93.2" font-size="11" text-anchor="middle">3</text>
<text x="220.0" y="211.4" font-size="11" text-anchor="start">x軸より下（y＜0）</text>
<text x="175.5" y="263.0" font-size="11" text-anchor="middle">y＝(x＋1)(x−3)——「≦0」は間・両端の共有点も入る（●＝ふくむ）</text>
</svg>
