<svg xmlns="http://www.w3.org/2000/svg" viewBox="0 0 364 271">
<title>x²−5x＋4＞0——グラフの上側と解の範囲</title>
<desc>【この図の意図】y&gt;0の解＝グラフがx軸より上にある部分のxの範囲——上側の太線と、x軸上の解の範囲（○つき外向き矢印）を対応させて見せる。【主要な数値・設定】y=(x−1)(x−4)／上側2枝を太線／解x&lt;1,4&lt;xを軸上の太線+○で表示。【AIに同じ種類の図を描かせるときの説明文】「x²−5x＋4＞0——グラフの上側と解の範囲。y&gt;0の解＝グラフがx軸より上にある部分のxの範囲——上側の太線と、x軸上の解の範囲（○つき外向き矢印）を対応させて見せる。数値・設定: y=(x−1)(x−4)／上側2枝を太線／解x&lt;1,4&lt;xを軸上の太線+○で表示。白黒印刷向けのシンプルな教材図（SVG）としてかいて。」——この説明文を生成AIに渡せば同型の図を描かせられる。数値を変えれば類題用の図も作れる。</desc>
<!-- L10_fig1_above_axis_outside.svg | x²−5x＋4＞0——グラフの上側と解の範囲 -->
<!-- generated by assets_provenance/generate_figures.py on 2026-07-17 (docs/SPEC_figures.md準拠（内部規約の要旨は同SPECに反映済み）・SVG直接編集禁止/スクリプト改修で再生成) -->
<rect x="0" y="0" width="364" height="271" fill="#fff"/>
<line x1="38.0" y1="155.2" x2="335.4" y2="155.2" stroke="#000" stroke-width="1.2"/>
<polygon points="342.4,155.2 335.4,158.3 335.4,152.0" fill="#000"/>
<line x1="91.2" y1="227.2" x2="91.2" y2="15.0" stroke="#000" stroke-width="1.2"/>
<polygon points="91.2,8.0 94.3,15.0 88.0,15.0" fill="#000"/>
<text x="344.4" y="159.7" font-size="13" text-anchor="start">x</text>
<text x="98.2" y="10.0" font-size="13" text-anchor="start">y</text>
<line x1="53.2" y1="152.2" x2="53.2" y2="158.2" stroke="#000" stroke-width="1.0"/>
<line x1="129.2" y1="152.2" x2="129.2" y2="158.2" stroke="#000" stroke-width="1.0"/>
<line x1="167.2" y1="152.2" x2="167.2" y2="158.2" stroke="#000" stroke-width="1.0"/>
<line x1="205.2" y1="152.2" x2="205.2" y2="158.2" stroke="#000" stroke-width="1.0"/>
<line x1="243.2" y1="152.2" x2="243.2" y2="158.2" stroke="#000" stroke-width="1.0"/>
<line x1="281.2" y1="152.2" x2="281.2" y2="158.2" stroke="#000" stroke-width="1.0"/>
<line x1="319.2" y1="152.2" x2="319.2" y2="158.2" stroke="#000" stroke-width="1.0"/>
<line x1="88.2" y1="227.2" x2="94.2" y2="227.2" stroke="#000" stroke-width="1.0"/>
<line x1="88.2" y1="203.2" x2="94.2" y2="203.2" stroke="#000" stroke-width="1.0"/>
<line x1="88.2" y1="179.2" x2="94.2" y2="179.2" stroke="#000" stroke-width="1.0"/>
<line x1="88.2" y1="131.2" x2="94.2" y2="131.2" stroke="#000" stroke-width="1.0"/>
<line x1="88.2" y1="107.2" x2="94.2" y2="107.2" stroke="#000" stroke-width="1.0"/>
<line x1="88.2" y1="83.2" x2="94.2" y2="83.2" stroke="#000" stroke-width="1.0"/>
<line x1="88.2" y1="59.2" x2="94.2" y2="59.2" stroke="#000" stroke-width="1.0"/>
<line x1="88.2" y1="35.2" x2="94.2" y2="35.2" stroke="#000" stroke-width="1.0"/>
<text x="167.2" y="169.2" font-size="11" text-anchor="middle">2</text>
<text x="205.2" y="169.2" font-size="11" text-anchor="middle">3</text>
<text x="281.2" y="169.2" font-size="11" text-anchor="middle">5</text>
<text x="85.2" y="63.0" font-size="11" text-anchor="end">4</text>
<text x="86.2" y="169.2" font-size="11" text-anchor="end">O</text>
<polyline points="78.4,16.0 79.5,19.8 80.5,23.7 81.6,27.4 82.7,31.1 83.8,34.8 84.9,38.5 85.9,42.1 87.0,45.7 88.1,49.2 89.2,52.7 90.2,56.2 91.3,59.6 92.4,63.0 93.5,66.3 94.6,69.6 95.6,72.9 96.7,76.1 97.8,79.3 98.9,82.4 99.9,85.6 101.0,88.6 102.1,91.7 103.2,94.7 104.3,97.6 105.3,100.5 106.4,103.4 107.5,106.2 108.6,109.0 109.7,111.8 110.7,114.5 111.8,117.2 112.9,119.9 114.0,122.5 115.0,125.0 116.1,127.6 117.2,130.1 118.3,132.5 119.4,134.9 120.4,137.3 121.5,139.6 122.6,141.9 123.7,144.2 124.7,146.4 125.8,148.6 126.9,150.8 128.0,152.9 129.1,154.9 130.1,157.0 131.2,158.9 132.3,160.9 133.4,162.8 134.4,164.7 135.5,166.5 136.6,168.3 137.7,170.1 138.8,171.8 139.8,173.5 140.9,175.1 142.0,176.7 143.1,178.3 144.2,179.8 145.2,181.3 146.3,182.8 147.4,184.2 148.5,185.5 149.5,186.9 150.6,188.2 151.7,189.4 152.8,190.6 153.9,191.8 154.9,193.0 156.0,194.1 157.1,195.1 158.2,196.1 159.2,197.1 160.3,198.1 161.4,199.0 162.5,199.8 163.6,200.7 164.6,201.5 165.7,202.2 166.8,202.9 167.9,203.6 168.9,204.3 170.0,204.9 171.1,205.4 172.2,205.9 173.3,206.4 174.3,206.9 175.4,207.3 176.5,207.6 177.6,208.0 178.7,208.3 179.7,208.5 180.8,208.7 181.9,208.9 183.0,209.0 184.0,209.1 185.1,209.2 186.2,209.2 187.3,209.2 188.4,209.1 189.4,209.0 190.5,208.9 191.6,208.7 192.7,208.5 193.7,208.3 194.8,208.0 195.9,207.6 197.0,207.3 198.1,206.9 199.1,206.4 200.2,205.9 201.3,205.4 202.4,204.9 203.5,204.3 204.5,203.6 205.6,202.9 206.7,202.2 207.8,201.5 208.8,200.7 209.9,199.8 211.0,199.0 212.1,198.1 213.2,197.1 214.2,196.1 215.3,195.1 216.4,194.1 217.5,193.0 218.5,191.8 219.6,190.6 220.7,189.4 221.8,188.2 222.9,186.9 223.9,185.5 225.0,184.2 226.1,182.8 227.2,181.3 228.2,179.8 229.3,178.3 230.4,176.7 231.5,175.1 232.6,173.5 233.6,171.8 234.7,170.1 235.8,168.3 236.9,166.5 238.0,164.7 239.0,162.8 240.1,160.9 241.2,158.9 242.3,157.0 243.3,154.9 244.4,152.9 245.5,150.8 246.6,148.6 247.7,146.4 248.7,144.2 249.8,141.9 250.9,139.6 252.0,137.3 253.0,134.9 254.1,132.5 255.2,130.1 256.3,127.6 257.4,125.0 258.4,122.5 259.5,119.9 260.6,117.2 261.7,114.5 262.7,111.8 263.8,109.0 264.9,106.2 266.0,103.4 267.1,100.5 268.1,97.6 269.2,94.7 270.3,91.7 271.4,88.6 272.5,85.6 273.5,82.4 274.6,79.3 275.7,76.1 276.8,72.9 277.8,69.6 278.9,66.3 280.0,63.0 281.1,59.6 282.2,56.2 283.2,52.7 284.3,49.2 285.4,45.7 286.5,42.1 287.5,38.5 288.6,34.8 289.7,31.1 290.8,27.4 291.9,23.7 292.9,19.8 294.0,16.0" fill="none" stroke="#000" stroke-width="1.6" stroke-linejoin="round"/>
<polyline points="78.4,16.0 79.0,18.3 79.7,20.5 80.3,22.8 80.9,25.0 81.6,27.2 82.2,29.4 82.8,31.6 83.5,33.8 84.1,35.9 84.7,38.1 85.4,40.2 86.0,42.4 86.6,44.5 87.3,46.6 87.9,48.6 88.5,50.7 89.2,52.8 89.8,54.8 90.5,56.8 91.1,58.8 91.7,60.8 92.4,62.8 93.0,64.8 93.6,66.8 94.3,68.7 94.9,70.7 95.5,72.6 96.2,74.5 96.8,76.4 97.4,78.3 98.1,80.1 98.7,82.0 99.3,83.8 100.0,85.6 100.6,87.5 101.3,89.3 101.9,91.0 102.5,92.8 103.2,94.6 103.8,96.3 104.4,98.1 105.1,99.8 105.7,101.5 106.3,103.2 107.0,104.9 107.6,106.5 108.2,108.2 108.9,109.8 109.5,111.4 110.1,113.1 110.8,114.7 111.4,116.2 112.0,117.8 112.7,119.4 113.3,120.9 114.0,122.5 114.6,124.0 115.2,125.5 115.9,127.0 116.5,128.4 117.1,129.9 117.8,131.4 118.4,132.8 119.0,134.2 119.7,135.6 120.3,137.0 120.9,138.4 121.6,139.8 122.2,141.1 122.8,142.5 123.5,143.8 124.1,145.1 124.8,146.4 125.4,147.7 126.0,149.0 126.7,150.3 127.3,151.5 127.9,152.8 128.6,154.0 129.2,155.2" fill="none" stroke="#000" stroke-width="3.2" stroke-linejoin="round"/>
<polyline points="243.2,155.2 243.8,154.0 244.5,152.8 245.1,151.5 245.7,150.3 246.4,149.0 247.0,147.7 247.6,146.4 248.3,145.1 248.9,143.8 249.6,142.5 250.2,141.1 250.8,139.8 251.5,138.4 252.1,137.0 252.7,135.6 253.4,134.2 254.0,132.8 254.6,131.4 255.3,129.9 255.9,128.4 256.5,127.0 257.2,125.5 257.8,124.0 258.4,122.5 259.1,120.9 259.7,119.4 260.4,117.8 261.0,116.2 261.6,114.7 262.3,113.1 262.9,111.4 263.5,109.8 264.2,108.2 264.8,106.5 265.4,104.9 266.1,103.2 266.7,101.5 267.3,99.8 268.0,98.1 268.6,96.3 269.2,94.6 269.9,92.8 270.5,91.0 271.1,89.3 271.8,87.5 272.4,85.6 273.1,83.8 273.7,82.0 274.3,80.1 275.0,78.3 275.6,76.4 276.2,74.5 276.9,72.6 277.5,70.7 278.1,68.7 278.8,66.8 279.4,64.8 280.0,62.8 280.7,60.8 281.3,58.8 281.9,56.8 282.6,54.8 283.2,52.8 283.9,50.7 284.5,48.6 285.1,46.6 285.8,44.5 286.4,42.4 287.0,40.2 287.7,38.1 288.3,35.9 288.9,33.8 289.6,31.6 290.2,29.4 290.8,27.2 291.5,25.0 292.1,22.8 292.7,20.5 293.4,18.3 294.0,16.0" fill="none" stroke="#000" stroke-width="3.2" stroke-linejoin="round"/>
<line x1="129.2" y1="169.2" x2="57.0" y2="169.2" stroke="#000" stroke-width="3.2"/>
<line x1="57.0" y1="169.2" x2="50.0" y2="169.2" stroke="#000" stroke-width="2.4000000000000004"/>
<polygon points="43.0,169.2 50.0,166.0 50.0,172.3" fill="#000"/>
<circle cx="129.2" cy="155.2" r="3.4" fill="#fff" stroke="#000" stroke-width="1.4"/>
<circle cx="129.2" cy="169.2" r="3.4" fill="#fff" stroke="#000" stroke-width="1.4"/>
<line x1="243.2" y1="169.2" x2="315.4" y2="169.2" stroke="#000" stroke-width="3.2"/>
<line x1="315.4" y1="169.2" x2="322.4" y2="169.2" stroke="#000" stroke-width="2.4000000000000004"/>
<polygon points="329.4,169.2 322.4,172.3 322.4,166.0" fill="#000"/>
<circle cx="243.2" cy="155.2" r="3.4" fill="#fff" stroke="#000" stroke-width="1.4"/>
<circle cx="243.2" cy="169.2" r="3.4" fill="#fff" stroke="#000" stroke-width="1.4"/>
<text x="129.2" y="189.2" font-size="11" text-anchor="middle">1</text>
<text x="243.2" y="189.2" font-size="11" text-anchor="middle">4</text>
<text x="186.2" y="37.6" font-size="11" text-anchor="middle">x軸より上（y＞0）</text>
<text x="182.0" y="265.0" font-size="11" text-anchor="middle">y＝(x−1)(x−4)——解は共有点の外側 x＜1, 4＜x（○＝ふくまない）</text>
</svg>
