<svg xmlns="http://www.w3.org/2000/svg" viewBox="0 0 654 234">
<title>y=(x−1)²のstrict/non-strict 4パターン</title>
<desc>【この図の意図】同じグラフでも不等号の種類（&gt;、≧、&lt;、≦）で解集合が4通りに変わる——接点x=1の●○だけが差だと4パネルで見せる。【主要な数値・設定】y=(x−1)²共通／①○+軸太線=x≠1 ②●+軸太線=全実数 ③なし=解なし ④●のみ=x=1。【AIに同じ種類の図を描かせるときの説明文】「y=(x−1)²のstrict/non-strict 4パターン。同じグラフでも不等号の種類（&gt;、≧、&lt;、≦）で解集合が4通りに変わる——接点x=1の●○だけが差だと4パネルで見せる。数値・設定: y=(x−1)²共通／①○+軸太線=x≠1 ②●+軸太線=全実数 ③なし=解なし ④●のみ=x=1。白黒印刷向けのシンプルな教材図（SVG）としてかいて。」——この説明文を生成AIに渡せば同型の図を描かせられる。数値を変えれば類題用の図も作れる。</desc>
<!-- L11_fig1_four_patterns_tangent.svg | y=(x−1)²のstrict/non-strict 4パターン -->
<!-- generated by assets_provenance/generate_figures.py on 2026-07-17 (docs/SPEC_figures.md準拠（内部規約の要旨は同SPECに反映済み）・SVG直接編集禁止/スクリプト改修で再生成) -->
<rect x="0" y="0" width="654" height="234" fill="#fff"/>
<line x1="26.0" y1="133.7" x2="149.0" y2="133.7" stroke="#000" stroke-width="1.2"/>
<polygon points="156.0,133.7 149.0,136.8 149.0,130.5" fill="#000"/>
<line x1="61.6" y1="162.0" x2="61.6" y2="39.0" stroke="#000" stroke-width="1.2"/>
<polygon points="61.6,32.0 64.7,39.0 58.4,39.0" fill="#000"/>
<text x="158.0" y="138.2" font-size="13" text-anchor="start">x</text>
<text x="68.6" y="34.0" font-size="13" text-anchor="start">y</text>
<line x1="36.2" y1="130.7" x2="36.2" y2="136.7" stroke="#000" stroke-width="1.0"/>
<line x1="87.0" y1="130.7" x2="87.0" y2="136.7" stroke="#000" stroke-width="1.0"/>
<line x1="112.4" y1="130.7" x2="112.4" y2="136.7" stroke="#000" stroke-width="1.0"/>
<line x1="137.8" y1="130.7" x2="137.8" y2="136.7" stroke="#000" stroke-width="1.0"/>
<line x1="58.6" y1="155.5" x2="64.6" y2="155.5" stroke="#000" stroke-width="1.0"/>
<line x1="58.6" y1="111.9" x2="64.6" y2="111.9" stroke="#000" stroke-width="1.0"/>
<line x1="58.6" y1="90.1" x2="64.6" y2="90.1" stroke="#000" stroke-width="1.0"/>
<line x1="58.6" y1="68.3" x2="64.6" y2="68.3" stroke="#000" stroke-width="1.0"/>
<line x1="58.6" y1="46.5" x2="64.6" y2="46.5" stroke="#000" stroke-width="1.0"/>
<text x="87.0" y="145.7" font-size="9" text-anchor="middle">1</text>
<polyline points="34.3,40.0 34.8,41.9 35.3,43.7 35.9,45.5 36.4,47.3 36.9,49.1 37.5,50.9 38.0,52.7 38.5,54.4 39.0,56.1 39.6,57.8 40.1,59.5 40.6,61.1 41.1,62.8 41.7,64.4 42.2,66.0 42.7,67.6 43.3,69.1 43.8,70.7 44.3,72.2 44.8,73.7 45.4,75.2 45.9,76.7 46.4,78.1 46.9,79.6 47.5,81.0 48.0,82.4 48.5,83.8 49.1,85.1 49.6,86.5 50.1,87.8 50.6,89.1 51.2,90.4 51.7,91.6 52.2,92.9 52.7,94.1 53.3,95.3 53.8,96.5 54.3,97.7 54.8,98.8 55.4,100.0 55.9,101.1 56.4,102.2 57.0,103.2 57.5,104.3 58.0,105.3 58.5,106.4 59.1,107.4 59.6,108.3 60.1,109.3 60.6,110.3 61.2,111.2 61.7,112.1 62.2,113.0 62.8,113.9 63.3,114.7 63.8,115.5 64.3,116.4 64.9,117.2 65.4,117.9 65.9,118.7 66.4,119.4 67.0,120.2 67.5,120.9 68.0,121.5 68.6,122.2 69.1,122.8 69.6,123.5 70.1,124.1 70.7,124.7 71.2,125.2 71.7,125.8 72.2,126.3 72.8,126.8 73.3,127.3 73.8,127.8 74.4,128.3 74.9,128.7 75.4,129.1 75.9,129.5 76.5,129.9 77.0,130.3 77.5,130.6 78.0,131.0 78.6,131.3 79.1,131.6 79.6,131.8 80.1,132.1 80.7,132.3 81.2,132.5 81.7,132.7 82.3,132.9 82.8,133.1 83.3,133.2 83.8,133.3 84.4,133.4 84.9,133.5 85.4,133.6 85.9,133.6 86.5,133.7 87.0,133.7 87.5,133.7 88.1,133.6 88.6,133.6 89.1,133.5 89.6,133.4 90.2,133.3 90.7,133.2 91.2,133.1 91.7,132.9 92.3,132.7 92.8,132.5 93.3,132.3 93.9,132.1 94.4,131.8 94.9,131.6 95.4,131.3 96.0,131.0 96.5,130.6 97.0,130.3 97.5,129.9 98.1,129.5 98.6,129.1 99.1,128.7 99.6,128.3 100.2,127.8 100.7,127.3 101.2,126.8 101.8,126.3 102.3,125.8 102.8,125.2 103.3,124.7 103.9,124.1 104.4,123.5 104.9,122.8 105.4,122.2 106.0,121.5 106.5,120.9 107.0,120.2 107.6,119.4 108.1,118.7 108.6,117.9 109.1,117.2 109.7,116.4 110.2,115.5 110.7,114.7 111.2,113.9 111.8,113.0 112.3,112.1 112.8,111.2 113.4,110.3 113.9,109.3 114.4,108.3 114.9,107.4 115.5,106.4 116.0,105.3 116.5,104.3 117.0,103.2 117.6,102.2 118.1,101.1 118.6,100.0 119.2,98.8 119.7,97.7 120.2,96.5 120.7,95.3 121.3,94.1 121.8,92.9 122.3,91.6 122.8,90.4 123.4,89.1 123.9,87.8 124.4,86.5 124.9,85.1 125.5,83.8 126.0,82.4 126.5,81.0 127.1,79.6 127.6,78.1 128.1,76.7 128.6,75.2 129.2,73.7 129.7,72.2 130.2,70.7 130.7,69.1 131.3,67.6 131.8,66.0 132.3,64.4 132.9,62.8 133.4,61.1 133.9,59.5 134.4,57.8 135.0,56.1 135.5,54.4 136.0,52.7 136.5,50.9 137.1,49.1 137.6,47.3 138.1,45.5 138.7,43.7 139.2,41.9 139.7,40.0" fill="none" stroke="#000" stroke-width="1.6" stroke-linejoin="round"/>
<line x1="29.8" y1="133.7" x2="87.0" y2="133.7" stroke="#000" stroke-width="3.2"/>
<line x1="87.0" y1="133.7" x2="144.2" y2="133.7" stroke="#000" stroke-width="3.2"/>
<circle cx="87.0" cy="133.7" r="3.4" fill="#fff" stroke="#000" stroke-width="1.4"/>
<text x="87.0" y="18.0" font-size="13" text-anchor="middle" font-weight="bold">(x−1)²＞0</text>
<text x="87.0" y="194.0" font-size="11.5" text-anchor="middle">解: x≠1（1だけ除く）</text>
<line x1="186.0" y1="133.7" x2="309.0" y2="133.7" stroke="#000" stroke-width="1.2"/>
<polygon points="316.0,133.7 309.0,136.8 309.0,130.5" fill="#000"/>
<line x1="221.6" y1="162.0" x2="221.6" y2="39.0" stroke="#000" stroke-width="1.2"/>
<polygon points="221.6,32.0 224.7,39.0 218.4,39.0" fill="#000"/>
<text x="318.0" y="138.2" font-size="13" text-anchor="start">x</text>
<text x="228.6" y="34.0" font-size="13" text-anchor="start">y</text>
<line x1="196.2" y1="130.7" x2="196.2" y2="136.7" stroke="#000" stroke-width="1.0"/>
<line x1="247.0" y1="130.7" x2="247.0" y2="136.7" stroke="#000" stroke-width="1.0"/>
<line x1="272.4" y1="130.7" x2="272.4" y2="136.7" stroke="#000" stroke-width="1.0"/>
<line x1="297.8" y1="130.7" x2="297.8" y2="136.7" stroke="#000" stroke-width="1.0"/>
<line x1="218.6" y1="155.5" x2="224.6" y2="155.5" stroke="#000" stroke-width="1.0"/>
<line x1="218.6" y1="111.9" x2="224.6" y2="111.9" stroke="#000" stroke-width="1.0"/>
<line x1="218.6" y1="90.1" x2="224.6" y2="90.1" stroke="#000" stroke-width="1.0"/>
<line x1="218.6" y1="68.3" x2="224.6" y2="68.3" stroke="#000" stroke-width="1.0"/>
<line x1="218.6" y1="46.5" x2="224.6" y2="46.5" stroke="#000" stroke-width="1.0"/>
<text x="247.0" y="145.7" font-size="9" text-anchor="middle">1</text>
<polyline points="194.3,40.0 194.8,41.9 195.3,43.7 195.9,45.5 196.4,47.3 196.9,49.1 197.5,50.9 198.0,52.7 198.5,54.4 199.0,56.1 199.6,57.8 200.1,59.5 200.6,61.1 201.1,62.8 201.7,64.4 202.2,66.0 202.7,67.6 203.3,69.1 203.8,70.7 204.3,72.2 204.8,73.7 205.4,75.2 205.9,76.7 206.4,78.1 206.9,79.6 207.5,81.0 208.0,82.4 208.5,83.8 209.1,85.1 209.6,86.5 210.1,87.8 210.6,89.1 211.2,90.4 211.7,91.6 212.2,92.9 212.7,94.1 213.3,95.3 213.8,96.5 214.3,97.7 214.8,98.8 215.4,100.0 215.9,101.1 216.4,102.2 217.0,103.2 217.5,104.3 218.0,105.3 218.5,106.4 219.1,107.4 219.6,108.3 220.1,109.3 220.6,110.3 221.2,111.2 221.7,112.1 222.2,113.0 222.8,113.9 223.3,114.7 223.8,115.5 224.3,116.4 224.9,117.2 225.4,117.9 225.9,118.7 226.4,119.4 227.0,120.2 227.5,120.9 228.0,121.5 228.6,122.2 229.1,122.8 229.6,123.5 230.1,124.1 230.7,124.7 231.2,125.2 231.7,125.8 232.2,126.3 232.8,126.8 233.3,127.3 233.8,127.8 234.4,128.3 234.9,128.7 235.4,129.1 235.9,129.5 236.5,129.9 237.0,130.3 237.5,130.6 238.0,131.0 238.6,131.3 239.1,131.6 239.6,131.8 240.1,132.1 240.7,132.3 241.2,132.5 241.7,132.7 242.3,132.9 242.8,133.1 243.3,133.2 243.8,133.3 244.4,133.4 244.9,133.5 245.4,133.6 245.9,133.6 246.5,133.7 247.0,133.7 247.5,133.7 248.1,133.6 248.6,133.6 249.1,133.5 249.6,133.4 250.2,133.3 250.7,133.2 251.2,133.1 251.7,132.9 252.3,132.7 252.8,132.5 253.3,132.3 253.9,132.1 254.4,131.8 254.9,131.6 255.4,131.3 256.0,131.0 256.5,130.6 257.0,130.3 257.5,129.9 258.1,129.5 258.6,129.1 259.1,128.7 259.6,128.3 260.2,127.8 260.7,127.3 261.2,126.8 261.8,126.3 262.3,125.8 262.8,125.2 263.3,124.7 263.9,124.1 264.4,123.5 264.9,122.8 265.4,122.2 266.0,121.5 266.5,120.9 267.0,120.2 267.6,119.4 268.1,118.7 268.6,117.9 269.1,117.2 269.7,116.4 270.2,115.5 270.7,114.7 271.2,113.9 271.8,113.0 272.3,112.1 272.8,111.2 273.4,110.3 273.9,109.3 274.4,108.3 274.9,107.4 275.5,106.4 276.0,105.3 276.5,104.3 277.0,103.2 277.6,102.2 278.1,101.1 278.6,100.0 279.2,98.8 279.7,97.7 280.2,96.5 280.7,95.3 281.3,94.1 281.8,92.9 282.3,91.6 282.8,90.4 283.4,89.1 283.9,87.8 284.4,86.5 284.9,85.1 285.5,83.8 286.0,82.4 286.5,81.0 287.1,79.6 287.6,78.1 288.1,76.7 288.6,75.2 289.2,73.7 289.7,72.2 290.2,70.7 290.7,69.1 291.3,67.6 291.8,66.0 292.3,64.4 292.9,62.8 293.4,61.1 293.9,59.5 294.4,57.8 295.0,56.1 295.5,54.4 296.0,52.7 296.5,50.9 297.1,49.1 297.6,47.3 298.1,45.5 298.7,43.7 299.2,41.9 299.7,40.0" fill="none" stroke="#000" stroke-width="1.6" stroke-linejoin="round"/>
<line x1="189.8" y1="133.7" x2="247.0" y2="133.7" stroke="#000" stroke-width="3.2"/>
<line x1="247.0" y1="133.7" x2="304.2" y2="133.7" stroke="#000" stroke-width="3.2"/>
<circle cx="247.0" cy="133.7" r="3.4" fill="#000"/>
<text x="247.0" y="18.0" font-size="13" text-anchor="middle" font-weight="bold">(x−1)²≧0</text>
<text x="247.0" y="194.0" font-size="11.5" text-anchor="middle">解: すべての実数</text>
<line x1="346.0" y1="133.7" x2="469.0" y2="133.7" stroke="#000" stroke-width="1.2"/>
<polygon points="476.0,133.7 469.0,136.8 469.0,130.5" fill="#000"/>
<line x1="381.6" y1="162.0" x2="381.6" y2="39.0" stroke="#000" stroke-width="1.2"/>
<polygon points="381.6,32.0 384.7,39.0 378.4,39.0" fill="#000"/>
<text x="478.0" y="138.2" font-size="13" text-anchor="start">x</text>
<text x="388.6" y="34.0" font-size="13" text-anchor="start">y</text>
<line x1="356.2" y1="130.7" x2="356.2" y2="136.7" stroke="#000" stroke-width="1.0"/>
<line x1="407.0" y1="130.7" x2="407.0" y2="136.7" stroke="#000" stroke-width="1.0"/>
<line x1="432.4" y1="130.7" x2="432.4" y2="136.7" stroke="#000" stroke-width="1.0"/>
<line x1="457.8" y1="130.7" x2="457.8" y2="136.7" stroke="#000" stroke-width="1.0"/>
<line x1="378.6" y1="155.5" x2="384.6" y2="155.5" stroke="#000" stroke-width="1.0"/>
<line x1="378.6" y1="111.9" x2="384.6" y2="111.9" stroke="#000" stroke-width="1.0"/>
<line x1="378.6" y1="90.1" x2="384.6" y2="90.1" stroke="#000" stroke-width="1.0"/>
<line x1="378.6" y1="68.3" x2="384.6" y2="68.3" stroke="#000" stroke-width="1.0"/>
<line x1="378.6" y1="46.5" x2="384.6" y2="46.5" stroke="#000" stroke-width="1.0"/>
<text x="407.0" y="145.7" font-size="9" text-anchor="middle">1</text>
<polyline points="354.3,40.0 354.8,41.9 355.3,43.7 355.9,45.5 356.4,47.3 356.9,49.1 357.5,50.9 358.0,52.7 358.5,54.4 359.0,56.1 359.6,57.8 360.1,59.5 360.6,61.1 361.1,62.8 361.7,64.4 362.2,66.0 362.7,67.6 363.3,69.1 363.8,70.7 364.3,72.2 364.8,73.7 365.4,75.2 365.9,76.7 366.4,78.1 366.9,79.6 367.5,81.0 368.0,82.4 368.5,83.8 369.1,85.1 369.6,86.5 370.1,87.8 370.6,89.1 371.2,90.4 371.7,91.6 372.2,92.9 372.7,94.1 373.3,95.3 373.8,96.5 374.3,97.7 374.8,98.8 375.4,100.0 375.9,101.1 376.4,102.2 377.0,103.2 377.5,104.3 378.0,105.3 378.5,106.4 379.1,107.4 379.6,108.3 380.1,109.3 380.6,110.3 381.2,111.2 381.7,112.1 382.2,113.0 382.8,113.9 383.3,114.7 383.8,115.5 384.3,116.4 384.9,117.2 385.4,117.9 385.9,118.7 386.4,119.4 387.0,120.2 387.5,120.9 388.0,121.5 388.6,122.2 389.1,122.8 389.6,123.5 390.1,124.1 390.7,124.7 391.2,125.2 391.7,125.8 392.2,126.3 392.8,126.8 393.3,127.3 393.8,127.8 394.4,128.3 394.9,128.7 395.4,129.1 395.9,129.5 396.5,129.9 397.0,130.3 397.5,130.6 398.0,131.0 398.6,131.3 399.1,131.6 399.6,131.8 400.1,132.1 400.7,132.3 401.2,132.5 401.7,132.7 402.3,132.9 402.8,133.1 403.3,133.2 403.8,133.3 404.4,133.4 404.9,133.5 405.4,133.6 405.9,133.6 406.5,133.7 407.0,133.7 407.5,133.7 408.1,133.6 408.6,133.6 409.1,133.5 409.6,133.4 410.2,133.3 410.7,133.2 411.2,133.1 411.7,132.9 412.3,132.7 412.8,132.5 413.3,132.3 413.9,132.1 414.4,131.8 414.9,131.6 415.4,131.3 416.0,131.0 416.5,130.6 417.0,130.3 417.5,129.9 418.1,129.5 418.6,129.1 419.1,128.7 419.6,128.3 420.2,127.8 420.7,127.3 421.2,126.8 421.8,126.3 422.3,125.8 422.8,125.2 423.3,124.7 423.9,124.1 424.4,123.5 424.9,122.8 425.4,122.2 426.0,121.5 426.5,120.9 427.0,120.2 427.6,119.4 428.1,118.7 428.6,117.9 429.1,117.2 429.7,116.4 430.2,115.5 430.7,114.7 431.2,113.9 431.8,113.0 432.3,112.1 432.8,111.2 433.4,110.3 433.9,109.3 434.4,108.3 434.9,107.4 435.5,106.4 436.0,105.3 436.5,104.3 437.0,103.2 437.6,102.2 438.1,101.1 438.6,100.0 439.2,98.8 439.7,97.7 440.2,96.5 440.7,95.3 441.3,94.1 441.8,92.9 442.3,91.6 442.8,90.4 443.4,89.1 443.9,87.8 444.4,86.5 444.9,85.1 445.5,83.8 446.0,82.4 446.5,81.0 447.1,79.6 447.6,78.1 448.1,76.7 448.6,75.2 449.2,73.7 449.7,72.2 450.2,70.7 450.7,69.1 451.3,67.6 451.8,66.0 452.3,64.4 452.9,62.8 453.4,61.1 453.9,59.5 454.4,57.8 455.0,56.1 455.5,54.4 456.0,52.7 456.5,50.9 457.1,49.1 457.6,47.3 458.1,45.5 458.7,43.7 459.2,41.9 459.7,40.0" fill="none" stroke="#000" stroke-width="1.6" stroke-linejoin="round"/>
<text x="407.0" y="18.0" font-size="13" text-anchor="middle" font-weight="bold">(x−1)²＜0</text>
<text x="407.0" y="194.0" font-size="11.5" text-anchor="middle">解: なし</text>
<line x1="506.0" y1="133.7" x2="629.0" y2="133.7" stroke="#000" stroke-width="1.2"/>
<polygon points="636.0,133.7 629.0,136.8 629.0,130.5" fill="#000"/>
<line x1="541.6" y1="162.0" x2="541.6" y2="39.0" stroke="#000" stroke-width="1.2"/>
<polygon points="541.6,32.0 544.7,39.0 538.4,39.0" fill="#000"/>
<text x="638.0" y="138.2" font-size="13" text-anchor="start">x</text>
<text x="548.6" y="34.0" font-size="13" text-anchor="start">y</text>
<line x1="516.2" y1="130.7" x2="516.2" y2="136.7" stroke="#000" stroke-width="1.0"/>
<line x1="567.0" y1="130.7" x2="567.0" y2="136.7" stroke="#000" stroke-width="1.0"/>
<line x1="592.4" y1="130.7" x2="592.4" y2="136.7" stroke="#000" stroke-width="1.0"/>
<line x1="617.8" y1="130.7" x2="617.8" y2="136.7" stroke="#000" stroke-width="1.0"/>
<line x1="538.6" y1="155.5" x2="544.6" y2="155.5" stroke="#000" stroke-width="1.0"/>
<line x1="538.6" y1="111.9" x2="544.6" y2="111.9" stroke="#000" stroke-width="1.0"/>
<line x1="538.6" y1="90.1" x2="544.6" y2="90.1" stroke="#000" stroke-width="1.0"/>
<line x1="538.6" y1="68.3" x2="544.6" y2="68.3" stroke="#000" stroke-width="1.0"/>
<line x1="538.6" y1="46.5" x2="544.6" y2="46.5" stroke="#000" stroke-width="1.0"/>
<text x="567.0" y="145.7" font-size="9" text-anchor="middle">1</text>
<polyline points="514.3,40.0 514.8,41.9 515.3,43.7 515.9,45.5 516.4,47.3 516.9,49.1 517.5,50.9 518.0,52.7 518.5,54.4 519.0,56.1 519.6,57.8 520.1,59.5 520.6,61.1 521.1,62.8 521.7,64.4 522.2,66.0 522.7,67.6 523.3,69.1 523.8,70.7 524.3,72.2 524.8,73.7 525.4,75.2 525.9,76.7 526.4,78.1 526.9,79.6 527.5,81.0 528.0,82.4 528.5,83.8 529.1,85.1 529.6,86.5 530.1,87.8 530.6,89.1 531.2,90.4 531.7,91.6 532.2,92.9 532.7,94.1 533.3,95.3 533.8,96.5 534.3,97.7 534.8,98.8 535.4,100.0 535.9,101.1 536.4,102.2 537.0,103.2 537.5,104.3 538.0,105.3 538.5,106.4 539.1,107.4 539.6,108.3 540.1,109.3 540.6,110.3 541.2,111.2 541.7,112.1 542.2,113.0 542.8,113.9 543.3,114.7 543.8,115.5 544.3,116.4 544.9,117.2 545.4,117.9 545.9,118.7 546.4,119.4 547.0,120.2 547.5,120.9 548.0,121.5 548.6,122.2 549.1,122.8 549.6,123.5 550.1,124.1 550.7,124.7 551.2,125.2 551.7,125.8 552.2,126.3 552.8,126.8 553.3,127.3 553.8,127.8 554.4,128.3 554.9,128.7 555.4,129.1 555.9,129.5 556.5,129.9 557.0,130.3 557.5,130.6 558.0,131.0 558.6,131.3 559.1,131.6 559.6,131.8 560.1,132.1 560.7,132.3 561.2,132.5 561.7,132.7 562.3,132.9 562.8,133.1 563.3,133.2 563.8,133.3 564.4,133.4 564.9,133.5 565.4,133.6 565.9,133.6 566.5,133.7 567.0,133.7 567.5,133.7 568.1,133.6 568.6,133.6 569.1,133.5 569.6,133.4 570.2,133.3 570.7,133.2 571.2,133.1 571.7,132.9 572.3,132.7 572.8,132.5 573.3,132.3 573.9,132.1 574.4,131.8 574.9,131.6 575.4,131.3 576.0,131.0 576.5,130.6 577.0,130.3 577.5,129.9 578.1,129.5 578.6,129.1 579.1,128.7 579.6,128.3 580.2,127.8 580.7,127.3 581.2,126.8 581.8,126.3 582.3,125.8 582.8,125.2 583.3,124.7 583.9,124.1 584.4,123.5 584.9,122.8 585.4,122.2 586.0,121.5 586.5,120.9 587.0,120.2 587.6,119.4 588.1,118.7 588.6,117.9 589.1,117.2 589.7,116.4 590.2,115.5 590.7,114.7 591.2,113.9 591.8,113.0 592.3,112.1 592.8,111.2 593.4,110.3 593.9,109.3 594.4,108.3 594.9,107.4 595.5,106.4 596.0,105.3 596.5,104.3 597.0,103.2 597.6,102.2 598.1,101.1 598.6,100.0 599.2,98.8 599.7,97.7 600.2,96.5 600.7,95.3 601.3,94.1 601.8,92.9 602.3,91.6 602.8,90.4 603.4,89.1 603.9,87.8 604.4,86.5 604.9,85.1 605.5,83.8 606.0,82.4 606.5,81.0 607.1,79.6 607.6,78.1 608.1,76.7 608.6,75.2 609.2,73.7 609.7,72.2 610.2,70.7 610.7,69.1 611.3,67.6 611.8,66.0 612.3,64.4 612.9,62.8 613.4,61.1 613.9,59.5 614.4,57.8 615.0,56.1 615.5,54.4 616.0,52.7 616.5,50.9 617.1,49.1 617.6,47.3 618.1,45.5 618.7,43.7 619.2,41.9 619.7,40.0" fill="none" stroke="#000" stroke-width="1.6" stroke-linejoin="round"/>
<circle cx="567.0" cy="133.7" r="3.4" fill="#000"/>
<text x="567.0" y="18.0" font-size="13" text-anchor="middle" font-weight="bold">(x−1)²≦0</text>
<text x="567.0" y="194.0" font-size="11.5" text-anchor="middle">解: x＝1（1点だけ）</text>
<text x="327.0" y="226.0" font-size="11" text-anchor="middle">グラフは4枚とも同じ y＝(x−1)²——違いは接点 x＝1 を含む（●）か除く（○）かだけ</text>
</svg>
