<svg xmlns="http://www.w3.org/2000/svg" viewBox="0 0 369 254">
<title>y=x²＋1——x軸から浮いたグラフ</title>
<desc>【この図の意図】共有点0個ではグラフ全体がx軸より上に浮いていて接点がない——等号の有無で答えが変わらない理由を1枚で見せる。【主要な数値・設定】y=x²+1／頂点(0,1)●／x軸とのすき間を両端ティックの補助線で明示。【AIに同じ種類の図を描かせるときの説明文】「y=x²＋1——x軸から浮いたグラフ。共有点0個ではグラフ全体がx軸より上に浮いていて接点がない——等号の有無で答えが変わらない理由を1枚で見せる。数値・設定: y=x²+1／頂点(0,1)●／x軸とのすき間を両端ティックの補助線で明示。白黒印刷向けのシンプルな教材図（SVG）としてかいて。」——この説明文を生成AIに渡せば同型の図を描かせられる。数値を変えれば類題用の図も作れる。</desc>
<!-- L11_fig2_no_intersection_floating.svg | y=x²＋1——x軸から浮いたグラフ -->
<!-- generated by assets_provenance/generate_figures.py on 2026-07-17 (docs/SPEC_figures.md準拠（内部規約の要旨は同SPECに反映済み）・SVG直接編集禁止/スクリプト改修で再生成) -->
<rect x="0" y="0" width="369" height="254" fill="#fff"/>
<line x1="40.0" y1="177.2" x2="246.2" y2="177.2" stroke="#000" stroke-width="1.2"/>
<polygon points="253.2,177.2 246.2,180.4 246.2,174.1" fill="#000"/>
<line x1="142.6" y1="213.6" x2="142.6" y2="15.0" stroke="#000" stroke-width="1.2"/>
<polygon points="142.6,8.0 145.8,15.0 139.5,15.0" fill="#000"/>
<text x="255.2" y="181.7" font-size="13" text-anchor="start">x</text>
<text x="149.6" y="10.0" font-size="13" text-anchor="start">y</text>
<line x1="66.6" y1="174.2" x2="66.6" y2="180.2" stroke="#000" stroke-width="1.0"/>
<line x1="104.6" y1="174.2" x2="104.6" y2="180.2" stroke="#000" stroke-width="1.0"/>
<line x1="180.6" y1="174.2" x2="180.6" y2="180.2" stroke="#000" stroke-width="1.0"/>
<line x1="218.6" y1="174.2" x2="218.6" y2="180.2" stroke="#000" stroke-width="1.0"/>
<line x1="139.6" y1="203.2" x2="145.6" y2="203.2" stroke="#000" stroke-width="1.0"/>
<line x1="139.6" y1="151.2" x2="145.6" y2="151.2" stroke="#000" stroke-width="1.0"/>
<line x1="139.6" y1="125.2" x2="145.6" y2="125.2" stroke="#000" stroke-width="1.0"/>
<line x1="139.6" y1="99.2" x2="145.6" y2="99.2" stroke="#000" stroke-width="1.0"/>
<line x1="139.6" y1="73.2" x2="145.6" y2="73.2" stroke="#000" stroke-width="1.0"/>
<line x1="139.6" y1="47.2" x2="145.6" y2="47.2" stroke="#000" stroke-width="1.0"/>
<line x1="139.6" y1="21.2" x2="145.6" y2="21.2" stroke="#000" stroke-width="1.0"/>
<text x="66.6" y="191.2" font-size="11" text-anchor="middle">−2</text>
<text x="104.6" y="191.2" font-size="11" text-anchor="middle">−1</text>
<text x="180.6" y="191.2" font-size="11" text-anchor="middle">1</text>
<text x="218.6" y="191.2" font-size="11" text-anchor="middle">2</text>
<text x="136.6" y="155.1" font-size="11" text-anchor="end">1</text>
<text x="137.6" y="191.2" font-size="11" text-anchor="end">O</text>
<polyline points="55.9,16.0 56.8,18.7 57.7,21.4 58.5,24.0 59.4,26.6 60.3,29.2 61.1,31.7 62.0,34.3 62.9,36.8 63.7,39.2 64.6,41.7 65.5,44.1 66.3,46.5 67.2,48.9 68.1,51.2 68.9,53.5 69.8,55.8 70.7,58.1 71.5,60.3 72.4,62.5 73.3,64.7 74.1,66.8 75.0,68.9 75.9,71.0 76.7,73.1 77.6,75.2 78.5,77.2 79.3,79.2 80.2,81.1 81.1,83.0 81.9,85.0 82.8,86.8 83.7,88.7 84.5,90.5 85.4,92.3 86.3,94.1 87.1,95.8 88.0,97.5 88.9,99.2 89.7,100.9 90.6,102.5 91.5,104.1 92.3,105.7 93.2,107.3 94.1,108.8 94.9,110.3 95.8,111.8 96.7,113.2 97.5,114.6 98.4,116.0 99.3,117.4 100.1,118.7 101.0,120.0 101.9,121.3 102.7,122.6 103.6,123.8 104.5,125.0 105.3,126.2 106.2,127.4 107.1,128.5 107.9,129.6 108.8,130.6 109.7,131.7 110.5,132.7 111.4,133.7 112.3,134.6 113.1,135.6 114.0,136.5 114.9,137.4 115.7,138.2 116.6,139.0 117.5,139.8 118.3,140.6 119.2,141.3 120.1,142.1 120.9,142.8 121.8,143.4 122.7,144.0 123.5,144.7 124.4,145.2 125.3,145.8 126.1,146.3 127.0,146.8 127.9,147.3 128.7,147.7 129.6,148.2 130.5,148.6 131.3,148.9 132.2,149.3 133.1,149.6 133.9,149.8 134.8,150.1 135.7,150.3 136.5,150.5 137.4,150.7 138.3,150.9 139.1,151.0 140.0,151.1 140.9,151.1 141.7,151.2 142.6,151.2 143.5,151.2 144.3,151.1 145.2,151.1 146.1,151.0 146.9,150.9 147.8,150.7 148.7,150.5 149.5,150.3 150.4,150.1 151.3,149.8 152.1,149.6 153.0,149.3 153.9,148.9 154.7,148.6 155.6,148.2 156.5,147.7 157.3,147.3 158.2,146.8 159.1,146.3 159.9,145.8 160.8,145.2 161.7,144.7 162.5,144.0 163.4,143.4 164.3,142.8 165.1,142.1 166.0,141.3 166.9,140.6 167.7,139.8 168.6,139.0 169.5,138.2 170.3,137.4 171.2,136.5 172.1,135.6 172.9,134.6 173.8,133.7 174.7,132.7 175.5,131.7 176.4,130.6 177.3,129.6 178.1,128.5 179.0,127.4 179.9,126.2 180.7,125.0 181.6,123.8 182.5,122.6 183.3,121.3 184.2,120.0 185.1,118.7 185.9,117.4 186.8,116.0 187.7,114.6 188.5,113.2 189.4,111.8 190.3,110.3 191.1,108.8 192.0,107.3 192.9,105.7 193.7,104.1 194.6,102.5 195.5,100.9 196.3,99.2 197.2,97.5 198.1,95.8 198.9,94.1 199.8,92.3 200.7,90.5 201.5,88.7 202.4,86.8 203.3,85.0 204.1,83.0 205.0,81.1 205.9,79.2 206.7,77.2 207.6,75.2 208.5,73.1 209.3,71.0 210.2,68.9 211.1,66.8 211.9,64.7 212.8,62.5 213.7,60.3 214.5,58.1 215.4,55.8 216.3,53.5 217.1,51.2 218.0,48.9 218.9,46.5 219.7,44.1 220.6,41.7 221.5,39.2 222.3,36.8 223.2,34.3 224.1,31.7 224.9,29.2 225.8,26.6 226.7,24.0 227.5,21.4 228.4,18.7 229.3,16.0" fill="none" stroke="#000" stroke-width="1.6" stroke-linejoin="round"/>
<circle cx="142.6" cy="151.2" r="3.4" fill="#000"/>
<line x1="168.6" y1="177.2" x2="168.6" y2="151.2" stroke="#000" stroke-width="0.9"/>
<line x1="164.6" y1="177.2" x2="172.6" y2="177.2" stroke="#000" stroke-width="0.9"/>
<line x1="164.6" y1="151.2" x2="172.6" y2="151.2" stroke="#000" stroke-width="0.9"/>
<text x="176.6" y="168.2" font-size="11" text-anchor="start">すき間（x軸に届かない）</text>
<text x="132.6" y="143.2" font-size="12" text-anchor="end" font-weight="bold">頂点(0, 1)</text>
<text x="184.5" y="248.0" font-size="11" text-anchor="middle">y＝x²＋1——全体がx軸より上（共有点0個）</text>
</svg>
