<svg xmlns="http://www.w3.org/2000/svg" viewBox="0 0 620 216">
<title>定義域と不等式の解の重ね合わせ（数直線3段）</title>
<desc>【この図の意図】文脈が決めた定義域0&lt;x&lt;10（○）と不等式の解3≦x≦7（●）を数直線で重ね、最終の答えを決める手順④を見せる。【主要な数値・設定】定義域(0,10)○／解[3,7]●／破線でx=3,7の対応／3段構成。【AIに同じ種類の図を描かせるときの説明文】「定義域と不等式の解の重ね合わせ（数直線3段）。文脈が決めた定義域0&lt;x&lt;10（○）と不等式の解3≦x≦7（●）を数直線で重ね、最終の答えを決める手順④を見せる。数値・設定: 定義域(0,10)○／解[3,7]●／破線でx=3,7の対応／3段構成。白黒印刷向けのシンプルな教材図（SVG）としてかいて。」——この説明文を生成AIに渡せば同型の図を描かせられる。数値を変えれば類題用の図も作れる。</desc>
<!-- L12_fig1_domain_overlay_numberline.svg | 定義域と不等式の解の重ね合わせ（数直線3段） -->
<!-- generated by assets_provenance/generate_figures.py on 2026-07-17 (docs/SPEC_figures.md準拠（内部規約の要旨は同SPECに反映済み）・SVG直接編集禁止/スクリプト改修で再生成) -->
<rect x="0" y="0" width="620" height="216" fill="#fff"/>
<line x1="316.0" y1="34.0" x2="316.0" y2="180.0" stroke="#000" stroke-width="1.1" stroke-dasharray="6 4"/>
<line x1="460.0" y1="34.0" x2="460.0" y2="180.0" stroke="#000" stroke-width="1.1" stroke-dasharray="6 4"/>
<text x="196.0" y="54.0" font-size="12" text-anchor="end">① 定義域（文脈から） 0＜x＜10</text>
<line x1="202.0" y1="50.0" x2="583.0" y2="50.0" stroke="#000" stroke-width="1.2"/>
<polygon points="590.0,50.0 583.0,53.1 583.0,46.9" fill="#000"/>
<line x1="208.0" y1="47.0" x2="208.0" y2="53.0" stroke="#000" stroke-width="1.0"/>
<text x="208.0" y="67.0" font-size="11" text-anchor="middle">0</text>
<line x1="316.0" y1="47.0" x2="316.0" y2="53.0" stroke="#000" stroke-width="1.0"/>
<text x="310.0" y="67.0" font-size="11" text-anchor="end">3</text>
<line x1="460.0" y1="47.0" x2="460.0" y2="53.0" stroke="#000" stroke-width="1.0"/>
<text x="454.0" y="67.0" font-size="11" text-anchor="end">7</text>
<line x1="568.0" y1="47.0" x2="568.0" y2="53.0" stroke="#000" stroke-width="1.0"/>
<text x="568.0" y="67.0" font-size="11" text-anchor="middle">10</text>
<line x1="208.0" y1="50.0" x2="568.0" y2="50.0" stroke="#000" stroke-width="3.2"/>
<circle cx="208.0" cy="50.0" r="3.4" fill="#fff" stroke="#000" stroke-width="1.4"/>
<circle cx="568.0" cy="50.0" r="3.4" fill="#fff" stroke="#000" stroke-width="1.4"/>
<text x="196.0" y="116.0" font-size="12" text-anchor="end">② 不等式の解 3≦x≦7</text>
<line x1="202.0" y1="112.0" x2="583.0" y2="112.0" stroke="#000" stroke-width="1.2"/>
<polygon points="590.0,112.0 583.0,115.2 583.0,108.8" fill="#000"/>
<line x1="208.0" y1="109.0" x2="208.0" y2="115.0" stroke="#000" stroke-width="1.0"/>
<text x="208.0" y="129.0" font-size="11" text-anchor="middle">0</text>
<line x1="316.0" y1="109.0" x2="316.0" y2="115.0" stroke="#000" stroke-width="1.0"/>
<text x="310.0" y="129.0" font-size="11" text-anchor="end">3</text>
<line x1="460.0" y1="109.0" x2="460.0" y2="115.0" stroke="#000" stroke-width="1.0"/>
<text x="454.0" y="129.0" font-size="11" text-anchor="end">7</text>
<line x1="568.0" y1="109.0" x2="568.0" y2="115.0" stroke="#000" stroke-width="1.0"/>
<text x="568.0" y="129.0" font-size="11" text-anchor="middle">10</text>
<line x1="316.0" y1="112.0" x2="460.0" y2="112.0" stroke="#000" stroke-width="3.2"/>
<circle cx="316.0" cy="112.0" r="3.4" fill="#000"/>
<circle cx="460.0" cy="112.0" r="3.4" fill="#000"/>
<text x="196.0" y="178.0" font-size="12" text-anchor="end">③ 重ねた答え 3≦x≦7</text>
<line x1="202.0" y1="174.0" x2="583.0" y2="174.0" stroke="#000" stroke-width="1.2"/>
<polygon points="590.0,174.0 583.0,177.2 583.0,170.8" fill="#000"/>
<line x1="208.0" y1="171.0" x2="208.0" y2="177.0" stroke="#000" stroke-width="1.0"/>
<text x="208.0" y="191.0" font-size="11" text-anchor="middle">0</text>
<line x1="316.0" y1="171.0" x2="316.0" y2="177.0" stroke="#000" stroke-width="1.0"/>
<text x="310.0" y="191.0" font-size="11" text-anchor="end">3</text>
<line x1="460.0" y1="171.0" x2="460.0" y2="177.0" stroke="#000" stroke-width="1.0"/>
<text x="454.0" y="191.0" font-size="11" text-anchor="end">7</text>
<line x1="568.0" y1="171.0" x2="568.0" y2="177.0" stroke="#000" stroke-width="1.0"/>
<text x="568.0" y="191.0" font-size="11" text-anchor="middle">10</text>
<line x1="316.0" y1="174.0" x2="460.0" y2="174.0" stroke="#000" stroke-width="3.2"/>
<circle cx="316.0" cy="174.0" r="3.4" fill="#000"/>
<circle cx="460.0" cy="174.0" r="3.4" fill="#000"/>
<text x="310.0" y="208.0" font-size="11" text-anchor="middle">②が①にすべて収まっている→重ねても削れず、答えは 3≦x≦7</text>
</svg>
